<svg xmlns="http://www.w3.org/2000/svg" width="112" height="112" viewBox="-2.00 -2.00 14.00 14.00">
<rect x="-2.00" y="-2.00" width="14.00" height="14.00" fill="white"/>
<circle cx="5" cy="5" r="5" fill="#e8edff" stroke="#4466aa" stroke-width="0.15"/>
<path fill="rgba(255,255,255,0)" stroke="#dd3333" stroke-width="0.08" d="M10,5 L9.903926849365234,5.975451469421387 L9.61939811706543,6.913417339324951 L9.1573486328125,7.777851104736328 L8.535533905029297,8.535533905029297 L7.777851104736328,9.1573486328125 L6.913416862487793,9.61939811706543 L5.9754509925842285,9.903926849365234 L5,10 L4.024548530578613,9.903926849365234 L3.0865824222564697,9.61939811706543 L2.2221481800079346,9.157347679138184 L1.4644660949707031,8.535533905029297 L0.8426518440246582,7.777851104736328 L0.3806018829345703,6.913416385650635 L0.09607362747192383,5.975451469421387 L0,4.999999523162842 L0.09607362747192383,4.024547576904297 L0.3806023597717285,3.086582899093628 L0.8426523208618164,2.2221484184265137 L1.4644668102264404,1.464465618133545 L2.2221498489379883,0.8426513671875 L3.0865843296051025,0.3806014060974121 L4.024548053741455,0.09607362747192383 L5,0 L5.975451946258545,0.09607362747192383 L6.913417816162109,0.3806028366088867 L7.7778520584106445,0.8426527976989746 L8.535534858703613,1.4644672870635986 L9.1573486328125,2.2221484184265137 L9.61939811706543,3.086582899093628 L9.903926849365234,4.0245490074157715 Z"/>
<circle cx="10" cy="5" r="0.15" fill="#dd3333"/>
<circle cx="9.903926849365234" cy="5.975451469421387" r="0.15" fill="#dd3333"/>
<circle cx="9.61939811706543" cy="6.913417339324951" r="0.15" fill="#dd3333"/>
<circle cx="9.1573486328125" cy="7.777851104736328" r="0.15" fill="#dd3333"/>
<circle cx="8.535533905029297" cy="8.535533905029297" r="0.15" fill="#dd3333"/>
<circle cx="7.777851104736328" cy="9.1573486328125" r="0.15" fill="#dd3333"/>
<circle cx="6.913416862487793" cy="9.61939811706543" r="0.15" fill="#dd3333"/>
<circle cx="5.9754509925842285" cy="9.903926849365234" r="0.15" fill="#dd3333"/>
<circle cx="5" cy="10" r="0.15" fill="#dd3333"/>
<circle cx="4.024548530578613" cy="9.903926849365234" r="0.15" fill="#dd3333"/>
<circle cx="3.0865824222564697" cy="9.61939811706543" r="0.15" fill="#dd3333"/>
<circle cx="2.2221481800079346" cy="9.157347679138184" r="0.15" fill="#dd3333"/>
<circle cx="1.4644660949707031" cy="8.535533905029297" r="0.15" fill="#dd3333"/>
<circle cx="0.8426518440246582" cy="7.777851104736328" r="0.15" fill="#dd3333"/>
<circle cx="0.3806018829345703" cy="6.913416385650635" r="0.15" fill="#dd3333"/>
<circle cx="0.09607362747192383" cy="5.975451469421387" r="0.15" fill="#dd3333"/>
<circle cx="0" cy="4.999999523162842" r="0.15" fill="#dd3333"/>
<circle cx="0.09607362747192383" cy="4.024547576904297" r="0.15" fill="#dd3333"/>
<circle cx="0.3806023597717285" cy="3.086582899093628" r="0.15" fill="#dd3333"/>
<circle cx="0.8426523208618164" cy="2.2221484184265137" r="0.15" fill="#dd3333"/>
<circle cx="1.4644668102264404" cy="1.464465618133545" r="0.15" fill="#dd3333"/>
<circle cx="2.2221498489379883" cy="0.8426513671875" r="0.15" fill="#dd3333"/>
<circle cx="3.0865843296051025" cy="0.3806014060974121" r="0.15" fill="#dd3333"/>
<circle cx="4.024548053741455" cy="0.09607362747192383" r="0.15" fill="#dd3333"/>
<circle cx="5" cy="0" r="0.15" fill="#dd3333"/>
<circle cx="5.975451946258545" cy="0.09607362747192383" r="0.15" fill="#dd3333"/>
<circle cx="6.913417816162109" cy="0.3806028366088867" r="0.15" fill="#dd3333"/>
<circle cx="7.7778520584106445" cy="0.8426527976989746" r="0.15" fill="#dd3333"/>
<circle cx="8.535534858703613" cy="1.4644672870635986" r="0.15" fill="#dd3333"/>
<circle cx="9.1573486328125" cy="2.2221484184265137" r="0.15" fill="#dd3333"/>
<circle cx="9.61939811706543" cy="3.086582899093628" r="0.15" fill="#dd3333"/>
<circle cx="9.903926849365234" cy="4.0245490074157715" r="0.15" fill="#dd3333"/>
</svg>
