<svg xmlns="http://www.w3.org/2000/svg" width="112" height="77" viewBox="-2.00 0.15 14.00 9.70">
<rect x="-2.00" y="0.15" width="14.00" height="9.70" fill="white"/>
<path fill="#e8edff" stroke="#4466aa" stroke-width="0.15" d="M 0 5 C 3 -5, 7 15, 10 5"/>
<polyline points="0,5 0.32048845291137695,4.052997589111328 0.7384450435638428,3.145502805709839 1.3546726703643799,2.365546464920044 2.2907683849334717,2.1507408618927 3.138150453567505,2.6646969318389893 3.819485902786255,3.395394802093506 4.426411151885986,4.189969062805176 5.004266262054443,5.006093978881836 5.582334041595459,5.822066783905029 6.189960956573486,6.616098403930664 6.872986316680908,7.345167636871338 7.7236480712890625,7.852916717529297 8.657072067260742,7.625320911407471 9.268878936767578,6.841547012329102 9.684773445129395,5.933086395263672 10,5" fill="none" stroke="#dd3333" stroke-width="0.08" stroke-linecap="round" stroke-linejoin="round"/>
<circle cx="0" cy="5" r="0.15" fill="#dd3333"/>
<circle cx="0.32048845291137695" cy="4.052997589111328" r="0.15" fill="#dd3333"/>
<circle cx="0.7384450435638428" cy="3.145502805709839" r="0.15" fill="#dd3333"/>
<circle cx="1.3546726703643799" cy="2.365546464920044" r="0.15" fill="#dd3333"/>
<circle cx="2.2907683849334717" cy="2.1507408618927" r="0.15" fill="#dd3333"/>
<circle cx="3.138150453567505" cy="2.6646969318389893" r="0.15" fill="#dd3333"/>
<circle cx="3.819485902786255" cy="3.395394802093506" r="0.15" fill="#dd3333"/>
<circle cx="4.426411151885986" cy="4.189969062805176" r="0.15" fill="#dd3333"/>
<circle cx="5.004266262054443" cy="5.006093978881836" r="0.15" fill="#dd3333"/>
<circle cx="5.582334041595459" cy="5.822066783905029" r="0.15" fill="#dd3333"/>
<circle cx="6.189960956573486" cy="6.616098403930664" r="0.15" fill="#dd3333"/>
<circle cx="6.872986316680908" cy="7.345167636871338" r="0.15" fill="#dd3333"/>
<circle cx="7.7236480712890625" cy="7.852916717529297" r="0.15" fill="#dd3333"/>
<circle cx="8.657072067260742" cy="7.625320911407471" r="0.15" fill="#dd3333"/>
<circle cx="9.268878936767578" cy="6.841547012329102" r="0.15" fill="#dd3333"/>
<circle cx="9.684773445129395" cy="5.933086395263672" r="0.15" fill="#dd3333"/>
<circle cx="10" cy="5" r="0.15" fill="#dd3333"/>
</svg>
