<svg xmlns="http://www.w3.org/2000/svg" width="112" height="72" viewBox="-2.00 -2.00 14.00 9.00">
<rect x="-2.00" y="-2.00" width="14.00" height="9.00" fill="white"/>
<path fill="#e8edff" stroke="#4466aa" stroke-width="0.15" d="M0,0 L10,0 L10,5 L0,5 Z"/>
<path fill="rgba(255,255,255,0)" stroke="#dd3333" stroke-width="0.08" d="M0,0 L1,0 L2,0 L3,0 L4,0 L5,0 L6,0 L7,0 L8,0 L9,0 L10,0 L10,1 L10,2 L10,3 L10,4 L10,5 L9,5 L8,5 L7,5 L6,5 L5,5 L4,5 L3,5 L2,5 L1,5 L0,5 L0,4 L0,3 L0,2 L0,1 Z"/>
<circle cx="0" cy="0" r="0.15" fill="#dd3333"/>
<circle cx="1" cy="0" r="0.15" fill="#dd3333"/>
<circle cx="2" cy="0" r="0.15" fill="#dd3333"/>
<circle cx="3" cy="0" r="0.15" fill="#dd3333"/>
<circle cx="4" cy="0" r="0.15" fill="#dd3333"/>
<circle cx="5" cy="0" r="0.15" fill="#dd3333"/>
<circle cx="6" cy="0" r="0.15" fill="#dd3333"/>
<circle cx="7" cy="0" r="0.15" fill="#dd3333"/>
<circle cx="8" cy="0" r="0.15" fill="#dd3333"/>
<circle cx="9" cy="0" r="0.15" fill="#dd3333"/>
<circle cx="10" cy="0" r="0.15" fill="#dd3333"/>
<circle cx="10" cy="1" r="0.15" fill="#dd3333"/>
<circle cx="10" cy="2" r="0.15" fill="#dd3333"/>
<circle cx="10" cy="3" r="0.15" fill="#dd3333"/>
<circle cx="10" cy="4" r="0.15" fill="#dd3333"/>
<circle cx="10" cy="5" r="0.15" fill="#dd3333"/>
<circle cx="9" cy="5" r="0.15" fill="#dd3333"/>
<circle cx="8" cy="5" r="0.15" fill="#dd3333"/>
<circle cx="7" cy="5" r="0.15" fill="#dd3333"/>
<circle cx="6" cy="5" r="0.15" fill="#dd3333"/>
<circle cx="5" cy="5" r="0.15" fill="#dd3333"/>
<circle cx="4" cy="5" r="0.15" fill="#dd3333"/>
<circle cx="3" cy="5" r="0.15" fill="#dd3333"/>
<circle cx="2" cy="5" r="0.15" fill="#dd3333"/>
<circle cx="1" cy="5" r="0.15" fill="#dd3333"/>
<circle cx="0" cy="5" r="0.15" fill="#dd3333"/>
<circle cx="0" cy="4" r="0.15" fill="#dd3333"/>
<circle cx="0" cy="3" r="0.15" fill="#dd3333"/>
<circle cx="0" cy="2" r="0.15" fill="#dd3333"/>
<circle cx="0" cy="1" r="0.15" fill="#dd3333"/>
</svg>
