<svg xmlns="http://www.w3.org/2000/svg" width="152" height="64" viewBox="-2.00 -2.00 19.00 8.00">
<rect x="-2.00" y="-2.00" width="19.00" height="8.00" fill="white"/>
<polyline points="0,0 5,4 10,0 15,4" fill="none" stroke="#4466aa" stroke-width="0.15" stroke-linecap="round" stroke-linejoin="round"/>
<polyline points="0,0 0.7142857313156128,0.5714285969734192 1.4285714626312256,1.1428571939468384 2.142857074737549,1.7142857313156128 2.857142925262451,2.2857143878936768 3.5714287757873535,2.857142925262451 4.285714149475098,3.4285714626312256 5,4 5.714285850524902,3.4285714626312256 6.428571701049805,2.857142925262451 7.142857074737549,2.2857141494750977 7.857142925262451,1.7142856121063232 8.571428298950195,1.1428570747375488 9.285714149475098,0.5714285373687744 10,0 10.714285850524902,0.5714285969734192 11.428571701049805,1.1428571939468384 12.14285659790039,1.7142857313156128 12.85714340209961,2.2857143878936768 13.571428298950195,2.857142925262451 14.285714149475098,3.4285714626312256 15,4" fill="none" stroke="#dd3333" stroke-width="0.08" stroke-linecap="round" stroke-linejoin="round"/>
<circle cx="0" cy="0" r="0.15" fill="#dd3333"/>
<circle cx="0.7142857313156128" cy="0.5714285969734192" r="0.15" fill="#dd3333"/>
<circle cx="1.4285714626312256" cy="1.1428571939468384" r="0.15" fill="#dd3333"/>
<circle cx="2.142857074737549" cy="1.7142857313156128" r="0.15" fill="#dd3333"/>
<circle cx="2.857142925262451" cy="2.2857143878936768" r="0.15" fill="#dd3333"/>
<circle cx="3.5714287757873535" cy="2.857142925262451" r="0.15" fill="#dd3333"/>
<circle cx="4.285714149475098" cy="3.4285714626312256" r="0.15" fill="#dd3333"/>
<circle cx="5" cy="4" r="0.15" fill="#dd3333"/>
<circle cx="5.714285850524902" cy="3.4285714626312256" r="0.15" fill="#dd3333"/>
<circle cx="6.428571701049805" cy="2.857142925262451" r="0.15" fill="#dd3333"/>
<circle cx="7.142857074737549" cy="2.2857141494750977" r="0.15" fill="#dd3333"/>
<circle cx="7.857142925262451" cy="1.7142856121063232" r="0.15" fill="#dd3333"/>
<circle cx="8.571428298950195" cy="1.1428570747375488" r="0.15" fill="#dd3333"/>
<circle cx="9.285714149475098" cy="0.5714285373687744" r="0.15" fill="#dd3333"/>
<circle cx="10" cy="0" r="0.15" fill="#dd3333"/>
<circle cx="10.714285850524902" cy="0.5714285969734192" r="0.15" fill="#dd3333"/>
<circle cx="11.428571701049805" cy="1.1428571939468384" r="0.15" fill="#dd3333"/>
<circle cx="12.14285659790039" cy="1.7142857313156128" r="0.15" fill="#dd3333"/>
<circle cx="12.85714340209961" cy="2.2857143878936768" r="0.15" fill="#dd3333"/>
<circle cx="13.571428298950195" cy="2.857142925262451" r="0.15" fill="#dd3333"/>
<circle cx="14.285714149475098" cy="3.4285714626312256" r="0.15" fill="#dd3333"/>
<circle cx="15" cy="4" r="0.15" fill="#dd3333"/>
</svg>
