<svg xmlns="http://www.w3.org/2000/svg" width="112" height="56" viewBox="-2.00 -2.00 14.00 7.00">
<rect x="-2.00" y="-2.00" width="14.00" height="7.00" fill="white"/>
<line x1="0" y1="0" x2="10" y2="3" stroke="#4466aa" stroke-width="0.15" stroke-linecap="round"/>
<polyline points="0,0 0.9090909361839294,0.27272728085517883 1.8181818723678589,0.5454545617103577 2.7272727489471436,0.8181818723678589 3.6363637447357178,1.0909091234207153 4.545454502105713,1.3636363744735718 5.454545497894287,1.6363637447357178 6.363636016845703,1.9090908765792847 7.2727274894714355,2.1818182468414307 8.181818008422852,2.454545497894287 9.090909004211426,2.7272727489471436 10,3" fill="none" stroke="#dd3333" stroke-width="0.08" stroke-linecap="round" stroke-linejoin="round"/>
<circle cx="0" cy="0" r="0.15" fill="#dd3333"/>
<circle cx="0.9090909361839294" cy="0.27272728085517883" r="0.15" fill="#dd3333"/>
<circle cx="1.8181818723678589" cy="0.5454545617103577" r="0.15" fill="#dd3333"/>
<circle cx="2.7272727489471436" cy="0.8181818723678589" r="0.15" fill="#dd3333"/>
<circle cx="3.6363637447357178" cy="1.0909091234207153" r="0.15" fill="#dd3333"/>
<circle cx="4.545454502105713" cy="1.3636363744735718" r="0.15" fill="#dd3333"/>
<circle cx="5.454545497894287" cy="1.6363637447357178" r="0.15" fill="#dd3333"/>
<circle cx="6.363636016845703" cy="1.9090908765792847" r="0.15" fill="#dd3333"/>
<circle cx="7.2727274894714355" cy="2.1818182468414307" r="0.15" fill="#dd3333"/>
<circle cx="8.181818008422852" cy="2.454545497894287" r="0.15" fill="#dd3333"/>
<circle cx="9.090909004211426" cy="2.7272727489471436" r="0.15" fill="#dd3333"/>
<circle cx="10" cy="3" r="0.15" fill="#dd3333"/>
</svg>
