<svg xmlns="http://www.w3.org/2000/svg" width="96" height="80" viewBox="-2.00 -2.00 12.00 10.00">
<rect x="-2.00" y="-2.00" width="12.00" height="10.00" fill="white"/>
<polygon points="0,0 8,0 4,6" fill="#e8edff" stroke="#4466aa" stroke-width="0.15"/>
<path fill="rgba(255,255,255,0)" stroke="#dd3333" stroke-width="0.08" d="M0,0 L1,0 L2,0 L3,0 L4,0 L5,0 L6,0 L7,0 L8,0 L7.5,0.75 L7,1.5 L6.5,2.25 L6,3 L5.5,3.75 L5,4.5 L4.5,5.25 L4,6 L3.5,5.25 L3,4.5 L2.5,3.75 L2,3 L1.5,2.25 L1,1.5 L0.5,0.75 Z"/>
<circle cx="0" cy="0" r="0.15" fill="#dd3333"/>
<circle cx="1" cy="0" r="0.15" fill="#dd3333"/>
<circle cx="2" cy="0" r="0.15" fill="#dd3333"/>
<circle cx="3" cy="0" r="0.15" fill="#dd3333"/>
<circle cx="4" cy="0" r="0.15" fill="#dd3333"/>
<circle cx="5" cy="0" r="0.15" fill="#dd3333"/>
<circle cx="6" cy="0" r="0.15" fill="#dd3333"/>
<circle cx="7" cy="0" r="0.15" fill="#dd3333"/>
<circle cx="8" cy="0" r="0.15" fill="#dd3333"/>
<circle cx="7.5" cy="0.75" r="0.15" fill="#dd3333"/>
<circle cx="7" cy="1.5" r="0.15" fill="#dd3333"/>
<circle cx="6.5" cy="2.25" r="0.15" fill="#dd3333"/>
<circle cx="6" cy="3" r="0.15" fill="#dd3333"/>
<circle cx="5.5" cy="3.75" r="0.15" fill="#dd3333"/>
<circle cx="5" cy="4.5" r="0.15" fill="#dd3333"/>
<circle cx="4.5" cy="5.25" r="0.15" fill="#dd3333"/>
<circle cx="4" cy="6" r="0.15" fill="#dd3333"/>
<circle cx="3.5" cy="5.25" r="0.15" fill="#dd3333"/>
<circle cx="3" cy="4.5" r="0.15" fill="#dd3333"/>
<circle cx="2.5" cy="3.75" r="0.15" fill="#dd3333"/>
<circle cx="2" cy="3" r="0.15" fill="#dd3333"/>
<circle cx="1.5" cy="2.25" r="0.15" fill="#dd3333"/>
<circle cx="1" cy="1.5" r="0.15" fill="#dd3333"/>
<circle cx="0.5" cy="0.75" r="0.15" fill="#dd3333"/>
</svg>
