<svg xmlns="http://www.w3.org/2000/svg" width="400" height="313" viewBox="-10.00 -86.93 130.83 104.67">
<rect x="-10.00" y="-86.93" width="130.83" height="104.67" fill="white"/>
<g transform="scale(1,-1)">
<polyline points="10,0 10.5,0 11,0 11.5,0 12,0 12.5,0 13,0 13.5,0 14,0 14.5,0 15,0 15.5,0 16,0 16.5,0 17,0 17.5,0 18,0 18.5,0 19,0 19.5,0 20,0 20.5,0 21,0 21.5,0 22,0 22.5,0 23,0 23.5,0 24,0 24.5,0 25,0 25.5,0 26,0 26.5,0 27,0 27.5,0 28,0 28.5,0 29,0 29.5,0 30,0 30.5,0 31,0 31.5,0 32,0 32.5,0 33,0 33.5,0 34,0 34.5,0 35,0 35.5,0 36,0 36.5,0 37,0 37.5,0 38,0 38.5,0 39,0 39.5,0 40,0 40.5,0 41,0 41.5,0 42,0 42.5,0 43,0 43.5,0 44,0 44.5,0 45,0 45.5,0 46,0 46.5,0 47,0 47.5,0 48,0 48.5,0 49,0 49.5,0 50,0 50.5,0 51,0 51.5,0 52,0 52.5,0 53,0 53.5,0 54,0 54.5,0 55,0 55.5,0 56,0 56.5,0 57,0 57.5,0 58,0 58.5,0 59,0 59.5,0 60,0 60.5,0 61,0 61.5,0 62,0 62.5,0 63,0 63.5,0 64,0 64.5,0 65,0 65.5,0 66,0 66.5,0 67,0 67.5,0 68,0 68.5,0 69,0 69.5,0 70,0 70.5,0 71,0 71.5,0 72,0 72.5,0 73,0 73.5,0 74,0 74.5,0 75,0 75.5,0 76,0 76.5,0 77,0 77.5,0 78,0 78.5,0 79,0 79.5,0 80,0 80.5,0 81,0 81.5,0 82,0 82.5,0 83,0 83.5,0 84,0 84.5,0 85,0 85.5,0 86,0 86.5,0 87,0 87.5,0 88,0 88.5,0 89,0 89.5,0 90,0 90,0 90.49978637695312,0.012658422812819481 90.99834442138672,0.04981675371527672 91.49445343017578,0.1115112155675888 91.98690795898438,0.19767367839813232 92.47434997558594,0.30876925587654114 92.95549011230469,0.44454866647720337 93.42930603027344,0.6040206551551819 93.89463806152344,0.7868010997772217 94.34980010986328,0.9936206340789795 94.79420471191406,1.2226026058197021 95.22684478759766,1.4731366634368896 95.64592742919922,1.7457432746887207 96.0511245727539,2.0385706424713135 96.44158172607422,2.3508031368255615 96.81537628173828,2.682799816131592 97.17256164550781,3.0325934886932373 97.51224517822266,3.399414539337158 97.83258056640625,3.783247232437134 98.13384246826172,4.182217597961426 98.41511535644531,4.595527172088623 98.67469787597656,5.022795677185059 98.91301727294922,5.462271213531494 99.12935638427734,5.912982940673828 99.32190704345703,6.374354839324951 99.49142456054688,6.844671726226807 99.63740539550781,7.322822093963623 99.75860595703125,7.807847023010254 99.85518646240234,8.298365592956543 99.9273452758789,8.793061256408691 99.97498321533203,9.290724754333496 99.99763488769531,9.790157318115234 100,10 100,10 100,10.5 100,11 100,11.5 100,12 100,12.5 100,13 100,13.5 100,14 100,14.5 100,15 100,15.5 100,16 100,16.5 100,17 100,17.5 100,18 100,18.5 100,19 100,19.5 100,20 100,20.5 100,21 100,21.5 100,22 100,22.5 100,23 100,23.5 100,24 100,24.5 100,25 100,25.5 100,26 100,26.5 100,27 100,27.5 100,28 100,28.5 100,29 100,29.5 100,30 100,30.5 100,31 100,31.5 100,32 100,32.5 100,33 100,33.5 100,34 100,34.5 100,35 100,35.5 100,36 100,36.5 100,37 100,37.5 100,38 100,38.5 100,39 100,39.5 100,40 100,40.5 100,41 100,41.5 100,42 100,42.5 100,43 100,43.5 100,44 100,44.5 100,45 100,45.5 100,46 100,46.5 100,47 100,47.5 100,48 100,48.5 100,49 100,49.5 100,50 100,50.5 100,51 100,51.5 100,52 100,52.5 100,53 100,53.5 100,54 100,54.5 100,55 100,55.5 100,56 100,56.5 100,57 100,57.5 100,58 100,58.5 100,59 100,59.5 100,60 100,60 99.98733520507812,60.49979019165039 99.95018005371094,60.99834060668945 99.88848876953125,61.49445343017578 99.80233001708984,61.986907958984375 99.69122314453125,62.47434616088867 99.55545043945312,62.95549392700195 99.39598846435547,63.4293098449707 99.21319580078125,63.89463806152344 99.00637817382812,64.34980010986328 98.77739715576172,64.79420471191406 98.52687072753906,65.22684478759766 98.25425720214844,65.64592742919922 97.96143341064453,66.0511245727539 97.64920806884766,66.44158935546875 97.31719970703125,66.81537628173828 96.9674072265625,67.17256164550781 96.60059356689453,67.51224517822266 96.21675109863281,67.83257293701172 95.81778717041016,68.13384246826172 95.40447235107422,68.41511535644531 94.97721099853516,68.6747055053711 94.53772735595703,68.91301727294922 94.08702087402344,69.12935638427734 93.62564849853516,69.32190704345703 93.15532684326172,69.49141693115234 92.67717742919922,69.63739776611328 92.19215393066406,69.75860595703125 91.7016372680664,69.85517883300781 91.20693969726562,69.92735290527344 90.70927429199219,69.97498321533203 90.20984649658203,69.99763488769531 90,70 90,70 89.5,70 89,70 88.5,70 88,70 87.5,70 87,70 86.5,70 86,70 85.5,70 85,70 84.5,70 84,70 83.5,70 83,70 82.5,70 82,70 81.5,70 81,70 80.5,70 80,70 79.5,70 79,70 78.5,70 78,70 77.5,70 77,70 76.5,70 76,70 75.5,70 75,70 74.5,70 74,70 73.5,70 73,70 72.5,70 72,70 71.5,70 71,70 70.5,70 70,70 69.5,70 69,70 68.5,70 68,70 67.5,70 67,70 66.5,70 66,70 65.5,70 65,70 64.5,70 64,70 63.5,70 63,70 62.5,70 62,70 61.5,70 61,70 60.5,70 60,70 59.5,70 59,70 58.5,70 58,70 57.5,70 57,70 56.5,70 56,70 55.5,70 55,70 54.5,70 54,70 53.5,70 53,70 52.5,70 52,70 51.5,70 51,70 50.5,70 50,70 49.5,70 49,70 48.5,70 48,70 47.5,70 47,70 46.5,70 46,70 45.5,70 45,70 44.5,70 44,70 43.5,70 43,70 42.5,70 42,70 41.5,70 41,70 40.5,70 40,70 39.5,70 39,70 38.5,70 38,70 37.5,70 37,70 36.5,70 36,70 35.5,70 35,70 34.5,70 34,70 33.5,70 33,70 32.5,70 32,70 31.5,70 31,70 30.5,70 30,70 29.5,70 29,70 28.5,70 28,70 27.5,70 27,70 26.5,70 26,70 25.5,70 25,70 24.5,70 24,70 23.5,70 23,70 22.5,70 22,70 21.5,70 21,70 20.5,70 20,70 19.5,70 19,70 18.5,70 18,70 17.5,70 17,70 16.5,70 16,70 15.5,70 15,70 14.5,70 14,70 13.5,70 13,70 12.5,70 12,70 11.5,70 11,70 10.5,70 10,70 10,70 9.500210762023926,69.98734283447266 9.00165843963623,69.95018768310547 8.505548477172852,69.88849639892578 8.013092994689941,69.80233001708984 7.52565336227417,69.69123077392578 7.044508457183838,69.55545043945312 6.57069206237793,69.39598083496094 6.105362415313721,69.21319580078125 5.650203227996826,69.00637817382812 5.2057929039001465,68.77739715576172 4.77315616607666,68.52686309814453 4.354074001312256,68.25425720214844 3.9488747119903564,67.96142578125 3.5584230422973633,67.6491928100586 3.184626340866089,67.31719970703125 2.8274426460266113,66.9674072265625 2.4877591133117676,66.6005859375 2.167423725128174,66.21675109863281 1.8661597967147827,65.81777954101562 1.5848859548568726,65.40447235107422 1.3252990245819092,64.97720336914062 1.0869821310043335,64.53772735595703 0.8706510663032532,64.0870132446289 0.6780910491943359,63.62564468383789 0.5085854530334473,63.15532684326172 0.3625999987125397,62.67717742919922 0.24139642715454102,62.1921501159668 0.14481478929519653,61.70163345336914 0.07264875620603561,61.206939697265625 0.025012144818902016,60.70927429199219 0.0023605828173458576,60.209842681884766 0,60 0,60 0,59.5 0,59 0,58.5 0,58 0,57.5 0,57 0,56.5 0,56 0,55.5 0,55 0,54.5 0,54 0,53.5 0,53 0,52.5 0,52 0,51.5 0,51 0,50.5 0,50 0,49.5 0,49 0,48.5 0,48 0,47.5 0,47 0,46.5 0,46 0,45.5 0,45 0,44.5 0,44 0,43.5 0,43 0,42.5 0,42 0,41.5 0,41 0,40.5 0,40 0,39.5 0,39 0,38.5 0,38 0,37.5 0,37 0,36.5 0,36 0,35.5 0,35 0,34.5 0,34 0,33.5 0,33 0,32.5 0,32 0,31.5 0,31 0,30.500001907348633 0,29.999998092651367 0,29.5 0,29 0,28.5 0,28 0,27.5 0,27 0,26.5 0,26 0,25.5 0,25 0,24.5 0,24 0,23.5 0,23 0,22.5 0,22 0,21.5 0,21 0,20.5 0,20 0,19.5 0,19 0,18.5 0,18 0,17.5 0,17 0,16.5 0,16 0,15.5 0,15 0,14.5 0,14 0,13.5 0,13 0,12.5 0,12 0,11.5 0,11 0,10.5 0,10 0,10 0.012658211402595043,9.500211715698242 0.04981674998998642,9.00165843963623 0.11151176691055298,8.505549430847168 0.1976739764213562,8.013092994689941 0.3087690472602844,7.525652885437012 0.4445495009422302,7.044508457183838 0.604022741317749,6.570693492889404 0.7868029475212097,6.105361461639404 0.9936223030090332,5.650203704833984 1.2226051092147827,5.205793380737305 1.473137378692627,4.773155212402344 1.7457438707351685,4.354074954986572 2.038573741912842,3.94887638092041 2.35080623626709,3.558422088623047 2.6828017234802246,3.184627056121826 3.032595157623291,2.8274431228637695 3.3994157314300537,2.4877586364746094 3.7832484245300293,2.167422294616699 4.182218074798584,1.8661609888076782 4.595529556274414,1.5848865509033203 5.022795677185059,1.325299859046936 5.462271213531494,1.08698308467865 5.912984848022461,0.8706503510475159 6.374355792999268,0.6780915260314941 6.844675064086914,0.5085864067077637 7.322823524475098,0.3625992238521576 7.807849884033203,0.24139663577079773 8.29836654663086,0.14481498301029205 8.793061256408691,0.07264868915081024 9.290725708007812,0.02501235343515873 9.79015827178955,0.0023605620954185724 10,0" fill="none" stroke="#4466aa" stroke-width="0.80" stroke-dasharray="4,2"/>
<polyline points="24.593111038208008,-7.034695625305176 29.301095962524414,-6.7386064529418945 29.846080780029297,-6.737359046936035 30.38251304626465,-6.725021839141846 30.988037109375,-6.658792972564697 31.635601043701172,-6.498852252960205 32.27101135253906,-6.3962483406066895 32.93680191040039,-6.2075371742248535 34.187522888183594,-5.9994096755981445 35.425743103027344,-5.732452392578125 36.686805725097656,-5.572936058044434 37.86056900024414,-5.323372840881348 39.02009201049805,-5.006836891174316 40.19102478027344,-4.743928909301758 41.379329681396484,-4.5627875328063965 42.543399810791016,-4.2676286697387695 43.72130584716797,-4.037567615509033 44.88517761230469,-3.7414703369140625 46.038394927978516,-3.3952574729919434 47.208824157714844,-3.130016803741455 48.332923889160156,-2.9674289226531982 49.43980026245117,-2.7238540649414062 50.477989196777344,-2.4777679443359375 51.52756881713867,-2.2852556705474854 52.63907241821289,-2.063455820083618 53.80581283569336,-1.7808696031570435 54.97923278808594,-1.52969229221344 56.14763259887695,-1.2548983097076416 57.31950759887695,-0.9964481592178345 58.559871673583984,-0.7395489811897278 59.795677185058594,-0.46125322580337524 61.04861068725586,-0.2635086178779602 62.27207946777344,0.07287158817052841 63.508155822753906,0.34990254044532776 64.66317749023438,0.6876503825187683 65.83061218261719,0.9669716954231262 66.99490356445312,1.2610896825790405 68.19381713867188,1.3923524618148804 69.37003326416016,1.6303329467773438 70.4743881225586,1.8857430219650269 71.5116195678711,2.1363775730133057 72.56294250488281,2.3206775188446045 73.6153564453125,2.4998931884765625 74.67138671875,2.6620445251464844 75.63938903808594,2.917642831802368 76.63322448730469,3.0517752170562744 77.60494995117188,3.2898783683776855 78.60750579833984,3.383031129837036 79.60193634033203,3.514298915863037 80.6026840209961,3.61588716506958 81.58621978759766,3.798413038253784 82.58041381835938,3.930823802947998 83.5511703491211,4.173523426055908 84.51290893554688,4.45861291885376 85.5004653930664,4.62223482131958 86.4696044921875,4.8725266456604 87.44241333007812,5.10556173324585 88.41323852539062,5.347938060760498 89.45860290527344,5.56029748916626 90.70108795166016,5.807187080383301 91.9213638305664,6.1585693359375 93.14989471435547,6.471115589141846 94.31631469726562,6.759070873260498 95.47930145263672,7.05339241027832 96.68274688720703,7.423408508300781 97.89771270751953,7.782937049865723 99.09342956542969,8.178936004638672 100.2437515258789,8.60519790649414 101.3893051147461,8.99949836730957 102.5818099975586,9.437935829162598 103.7383041381836,9.853559494018555 104.82222747802734,10.399374008178711 105.92637634277344,11.096587181091309 106.89253234863281,11.897683143615723 107.60743713378906,12.671245574951172 108.25529479980469,13.446856498718262 108.80355072021484,14.215206146240234 109.35797882080078,15.099279403686523 109.8472900390625,16.006195068359375 110.17977905273438,16.90073585510254 110.41661834716797,17.86017608642578 110.56706237792969,18.829242706298828 110.73233032226562,19.792211532592773 110.8291015625,20.778553009033203 110.70915985107422,21.887094497680664 110.62736511230469,22.998380661010742 110.53023529052734,24.104156494140625 110.34638977050781,25.079341888427734 110.04399871826172,26.02664566040039 109.75585174560547,26.973299026489258 109.49935150146484,27.943340301513672 109.19944763183594,28.970090866088867 108.95909881591797,30.00950050354004 108.6520004272461,31.03472137451172 108.36347961425781,32.06388854980469 108.04960632324219,33.087669372558594 107.87931823730469,34.14197540283203 107.60570526123047,35.174312591552734 107.30589294433594,36.20108413696289 107.18134307861328,37.19694900512695 106.90400695800781,38.22849655151367 106.69108581542969,39.27373123168945 106.42550659179688,40.30778121948242 106.2334213256836,41.35744857788086 105.97084045410156,42.39213180541992 105.70429992675781,43.42597198486328 105.5346450805664,44.48040771484375 105.29898834228516,45.52081298828125 105.1261215209961,46.64271926879883 104.95803833007812,47.765647888183594 104.79261779785156,48.88914108276367 104.4548568725586,49.97599792480469 104.17365264892578,51.07487487792969 103.98694610595703,52.193843841552734 103.71595001220703,53.29489517211914 103.4845199584961,54.33619689941406 103.21614837646484,55.369651794433594 103.00199890136719,56.41463088989258 102.78047943115234,57.45804214477539 102.63346099853516,58.585445404052734 102.46965789794922,59.709285736083984 102.26924133300781,60.82533264160156 102.0416488647461,61.935611724853516 101.84757232666016,62.919639587402344 101.65923309326172,63.90766143798828 101.40231323242188,64.86763763427734 101.2606201171875,65.8721923828125 101.06863403320312,66.8512954711914 100.75424194335938,67.86925506591797 100.36934661865234,68.84182739257812 99.91092681884766,69.78239440917969 99.40714263916016,70.75704956054688 98.77408599853516,71.7002944946289 98.11988067626953,72.61418914794922 97.37493133544922,73.38764953613281 96.56038665771484,74.05955505371094 95.7149887084961,74.6468276977539 94.88530731201172,75.17385864257812 93.9700698852539,75.67536926269531 93.0151596069336,76.06047058105469 92.09159088134766,76.46041870117188 91.06510925292969,76.70901489257812 90.04420471191406,76.9017562866211 89.04048919677734,76.92667388916016 88.0394058227539,76.92829132080078 87.10398864746094,76.92420196533203 86.12531280517578,76.81558990478516 85.23435974121094,76.57672882080078 84.27910614013672,76.2924575805664 83.31179809570312,76.08431243896484 82.36261749267578,75.82179260253906 81.3927230834961,75.57213592529297 80.35920715332031,75.30409240722656 79.31253814697266,75.09788513183594 78.27732849121094,74.8377914428711 77.24102020263672,74.58280181884766 76.20677185058594,74.31820678710938 75.15059661865234,74.15679168701172 74.100341796875,73.96743774414062 73.0490493774414,73.78304290771484 72.00962829589844,73.54271697998047 70.95743560791016,73.36250305175781 69.89795684814453,73.21659851074219 68.9043960571289,73.0811996459961 67.94231414794922,72.79771423339844 66.87909698486328,72.66935729980469 65.83980560302734,72.42843627929688 64.77725982666016,72.29695129394531 63.74800491333008,72.00880432128906 62.69181442260742,71.847412109375 61.662723541259766,71.55850982666016 60.615970611572266,71.35273742675781 59.583045959472656,71.0818862915039 58.537986755371094,70.86812591552734 57.42232894897461,70.66582489013672 56.303504943847656,70.47848510742188 55.22002029418945,70.12483978271484 54.11563491821289,69.8695297241211 53.01701354980469,69.58710479736328 51.897342681884766,69.4036865234375 50.86896896362305,69.11140441894531 49.820133209228516,68.91539001464844 48.79899215698242,68.58911895751953 47.75420379638672,68.37406921386719 46.69818115234375,68.21187591552734 45.56999969482422,68.06851196289062 44.45525360107422,67.86196899414062 43.27863693237305,67.62583923339844 42.11628341674805,67.32261657714844 41.029598236083984,66.98403930664062 39.918209075927734,66.76167297363281 38.80146026611328,66.56452178955078 37.68074035644531,66.38607025146484 36.49396514892578,66.19770812988281 35.32563400268555,65.92259216308594 34.136619567871094,65.7447738647461 32.95918273925781,65.51250457763672 31.76778793334961,65.34591674804688 30.576366424560547,65.17942810058594 29.428571701049805,64.80769348144531 28.249834060668945,64.58153533935547 27.086681365966797,64.28205871582031 25.972578048706055,64.07247161865234 24.858034133911133,63.86494827270508 23.73478889465332,63.69837951660156 22.63189125061035,63.436073303222656 21.530231475830078,63.167945861816406 20.442716598510742,62.8332633972168 19.406702041625977,62.57695007324219 18.370759963989258,62.32028579711914 17.335926055908203,62.05841827392578 16.364009857177734,61.82726287841797 15.395549774169922,61.573814392089844 14.444268226623535,61.27113342285156 13.468481063842773,61.083614349365234 12.565759658813477,60.81111145019531 11.715508460998535,60.537113189697266 10.850974082946777,60.19385528564453 9.986268997192383,59.89003372192383 9.217604637145996,59.4691162109375 8.461216926574707,59.010929107666016 7.758903980255127,58.56766891479492 7.065647602081299,58.086830139160156 6.364822864532471,57.51878356933594 5.788366317749023,56.9348258972168 5.209365367889404,56.23251724243164 4.664129257202148,55.510799407958984 4.242361545562744,54.74094009399414 3.7951552867889404,54.00669479370117 3.434433937072754,53.22246170043945 3.2454380989074707,52.385807037353516 3.0019218921661377,51.521018981933594 2.9150242805480957,50.58832550048828 2.932009696960449,49.646053314208984 2.880586862564087,48.585350036621094 2.900615930557251,47.500911712646484 2.919299840927124,46.418758392333984 3.0253915786743164,45.32255935668945 3.2865030765533447,44.22549819946289 3.444667100906372,43.12922668457031 3.7304580211639404,42.04195022583008 4.027873516082764,40.96484375 4.190784931182861,39.84180450439453 4.460477828979492,38.67232131958008 4.812492370605469,37.52033233642578 5.006694316864014,36.334800720214844 5.265439987182617,35.23114776611328 5.4925079345703125,34.12076187133789 5.630426406860352,32.99142837524414 5.851078510284424,31.94782829284668 6.075883388519287,30.768802642822266 6.383171558380127,29.60730743408203 6.685561656951904,28.444774627685547 6.97052001953125,27.21038246154785 7.245031356811523,25.97376251220703 7.490845680236816,24.731046676635742 7.7342143058776855,23.48781394958496 7.99536657333374,22.24835777282715 8.266554832458496,21.011037826538086 8.499787330627441,19.765649795532227 8.723270416259766,18.518186569213867 9.02881145477295,17.28816795349121 9.302285194396973,16.05133056640625 9.68072509765625,14.83680534362793 9.945679664611816,13.666314125061035 10.26041316986084,12.642714500427246 10.441529273986816,11.590715408325195 10.654765129089355,10.54554271697998 10.849150657653809,9.564520835876465 11.032113075256348,8.581071853637695 11.235671997070312,7.601998805999756 11.403629302978516,6.615358829498291 11.669930458068848,5.719059467315674 11.867156982421875,4.80466890335083 11.999226570129395,3.8697502613067627 12.304940223693848,2.9912588596343994 12.498149871826172,2.0734262466430664 12.778839111328125,1.2028433084487915 13.065850257873535,0.27419090270996094 13.459426879882812,-0.647885262966156 13.881608009338379,-1.4795398712158203 14.408941268920898,-2.2636024951934814 14.95137882232666,-2.969168186187744 15.501127243041992,-3.7243800163269043 16.17473602294922,-4.432801246643066 16.882856369018555,-5.079452037811279 17.63680648803711,-5.601534843444824 18.392038345336914,-6.05808162689209 18.787139892578125,-6.398972034454346 19.24254608154297,-6.7060651779174805 19.65412139892578,-7.028990268707275 20.15604019165039,-7.293354511260986 20.637332916259766,-7.577063083648682 21.09876251220703,-7.738156795501709 24.614137649536133,-6.969949722290039" fill="none" stroke="#999999" stroke-width="0.3" stroke-dasharray="1,1"/>
<circle cx="24.593111038208008" cy="-7.034695625305176" r="0.40" fill="#aaaaaa"/>
<circle cx="30.38251304626465" cy="-6.725021839141846" r="0.40" fill="#aaaaaa"/>
<circle cx="32.27101135253906" cy="-6.3962483406066895" r="0.40" fill="#aaaaaa"/>
<circle cx="35.425743103027344" cy="-5.732452392578125" r="0.40" fill="#aaaaaa"/>
<circle cx="39.02009201049805" cy="-5.006836891174316" r="0.40" fill="#aaaaaa"/>
<circle cx="42.543399810791016" cy="-4.2676286697387695" r="0.40" fill="#aaaaaa"/>
<circle cx="46.038394927978516" cy="-3.3952574729919434" r="0.40" fill="#aaaaaa"/>
<circle cx="49.43980026245117" cy="-2.7238540649414062" r="0.40" fill="#aaaaaa"/>
<circle cx="52.63907241821289" cy="-2.063455820083618" r="0.40" fill="#aaaaaa"/>
<circle cx="56.14763259887695" cy="-1.2548983097076416" r="0.40" fill="#aaaaaa"/>
<circle cx="59.795677185058594" cy="-0.46125322580337524" r="0.40" fill="#aaaaaa"/>
<circle cx="63.508155822753906" cy="0.34990254044532776" r="0.40" fill="#aaaaaa"/>
<circle cx="66.99490356445312" cy="1.2610896825790405" r="0.40" fill="#aaaaaa"/>
<circle cx="70.4743881225586" cy="1.8857430219650269" r="0.40" fill="#aaaaaa"/>
<circle cx="73.6153564453125" cy="2.4998931884765625" r="0.40" fill="#aaaaaa"/>
<circle cx="76.63322448730469" cy="3.0517752170562744" r="0.40" fill="#aaaaaa"/>
<circle cx="79.60193634033203" cy="3.514298915863037" r="0.40" fill="#aaaaaa"/>
<circle cx="82.58041381835938" cy="3.930823802947998" r="0.40" fill="#aaaaaa"/>
<circle cx="85.5004653930664" cy="4.62223482131958" r="0.40" fill="#aaaaaa"/>
<circle cx="88.41323852539062" cy="5.347938060760498" r="0.40" fill="#aaaaaa"/>
<circle cx="91.9213638305664" cy="6.1585693359375" r="0.40" fill="#aaaaaa"/>
<circle cx="95.47930145263672" cy="7.05339241027832" r="0.40" fill="#aaaaaa"/>
<circle cx="99.09342956542969" cy="8.178936004638672" r="0.40" fill="#aaaaaa"/>
<circle cx="102.5818099975586" cy="9.437935829162598" r="0.40" fill="#aaaaaa"/>
<circle cx="105.92637634277344" cy="11.096587181091309" r="0.40" fill="#aaaaaa"/>
<circle cx="108.25529479980469" cy="13.446856498718262" r="0.40" fill="#aaaaaa"/>
<circle cx="109.8472900390625" cy="16.006195068359375" r="0.40" fill="#aaaaaa"/>
<circle cx="110.56706237792969" cy="18.829242706298828" r="0.40" fill="#aaaaaa"/>
<circle cx="110.70915985107422" cy="21.887094497680664" r="0.40" fill="#aaaaaa"/>
<circle cx="110.34638977050781" cy="25.079341888427734" r="0.40" fill="#aaaaaa"/>
<circle cx="109.49935150146484" cy="27.943340301513672" r="0.40" fill="#aaaaaa"/>
<circle cx="108.6520004272461" cy="31.03472137451172" r="0.40" fill="#aaaaaa"/>
<circle cx="107.87931823730469" cy="34.14197540283203" r="0.40" fill="#aaaaaa"/>
<circle cx="107.18134307861328" cy="37.19694900512695" r="0.40" fill="#aaaaaa"/>
<circle cx="106.42550659179688" cy="40.30778121948242" r="0.40" fill="#aaaaaa"/>
<circle cx="105.70429992675781" cy="43.42597198486328" r="0.40" fill="#aaaaaa"/>
<circle cx="105.1261215209961" cy="46.64271926879883" r="0.40" fill="#aaaaaa"/>
<circle cx="104.4548568725586" cy="49.97599792480469" r="0.40" fill="#aaaaaa"/>
<circle cx="103.71595001220703" cy="53.29489517211914" r="0.40" fill="#aaaaaa"/>
<circle cx="103.00199890136719" cy="56.41463088989258" r="0.40" fill="#aaaaaa"/>
<circle cx="102.46965789794922" cy="59.709285736083984" r="0.40" fill="#aaaaaa"/>
<circle cx="101.84757232666016" cy="62.919639587402344" r="0.40" fill="#aaaaaa"/>
<circle cx="101.2606201171875" cy="65.8721923828125" r="0.40" fill="#aaaaaa"/>
<circle cx="100.36934661865234" cy="68.84182739257812" r="0.40" fill="#aaaaaa"/>
<circle cx="98.77408599853516" cy="71.7002944946289" r="0.40" fill="#aaaaaa"/>
<circle cx="96.56038665771484" cy="74.05955505371094" r="0.40" fill="#aaaaaa"/>
<circle cx="93.9700698852539" cy="75.67536926269531" r="0.40" fill="#aaaaaa"/>
<circle cx="91.06510925292969" cy="76.70901489257812" r="0.40" fill="#aaaaaa"/>
<circle cx="88.0394058227539" cy="76.92829132080078" r="0.40" fill="#aaaaaa"/>
<circle cx="85.23435974121094" cy="76.57672882080078" r="0.40" fill="#aaaaaa"/>
<circle cx="82.36261749267578" cy="75.82179260253906" r="0.40" fill="#aaaaaa"/>
<circle cx="79.31253814697266" cy="75.09788513183594" r="0.40" fill="#aaaaaa"/>
<circle cx="76.20677185058594" cy="74.31820678710938" r="0.40" fill="#aaaaaa"/>
<circle cx="73.0490493774414" cy="73.78304290771484" r="0.40" fill="#aaaaaa"/>
<circle cx="69.89795684814453" cy="73.21659851074219" r="0.40" fill="#aaaaaa"/>
<circle cx="66.87909698486328" cy="72.66935729980469" r="0.40" fill="#aaaaaa"/>
<circle cx="63.74800491333008" cy="72.00880432128906" r="0.40" fill="#aaaaaa"/>
<circle cx="60.615970611572266" cy="71.35273742675781" r="0.40" fill="#aaaaaa"/>
<circle cx="57.42232894897461" cy="70.66582489013672" r="0.40" fill="#aaaaaa"/>
<circle cx="54.11563491821289" cy="69.8695297241211" r="0.40" fill="#aaaaaa"/>
<circle cx="50.86896896362305" cy="69.11140441894531" r="0.40" fill="#aaaaaa"/>
<circle cx="47.75420379638672" cy="68.37406921386719" r="0.40" fill="#aaaaaa"/>
<circle cx="44.45525360107422" cy="67.86196899414062" r="0.40" fill="#aaaaaa"/>
<circle cx="41.029598236083984" cy="66.98403930664062" r="0.40" fill="#aaaaaa"/>
<circle cx="37.68074035644531" cy="66.38607025146484" r="0.40" fill="#aaaaaa"/>
<circle cx="34.136619567871094" cy="65.7447738647461" r="0.40" fill="#aaaaaa"/>
<circle cx="30.576366424560547" cy="65.17942810058594" r="0.40" fill="#aaaaaa"/>
<circle cx="27.086681365966797" cy="64.28205871582031" r="0.40" fill="#aaaaaa"/>
<circle cx="23.73478889465332" cy="63.69837951660156" r="0.40" fill="#aaaaaa"/>
<circle cx="20.442716598510742" cy="62.8332633972168" r="0.40" fill="#aaaaaa"/>
<circle cx="17.335926055908203" cy="62.05841827392578" r="0.40" fill="#aaaaaa"/>
<circle cx="14.444268226623535" cy="61.27113342285156" r="0.40" fill="#aaaaaa"/>
<circle cx="11.715508460998535" cy="60.537113189697266" r="0.40" fill="#aaaaaa"/>
<circle cx="9.217604637145996" cy="59.4691162109375" r="0.40" fill="#aaaaaa"/>
<circle cx="7.065647602081299" cy="58.086830139160156" r="0.40" fill="#aaaaaa"/>
<circle cx="5.209365367889404" cy="56.23251724243164" r="0.40" fill="#aaaaaa"/>
<circle cx="3.7951552867889404" cy="54.00669479370117" r="0.40" fill="#aaaaaa"/>
<circle cx="3.0019218921661377" cy="51.521018981933594" r="0.40" fill="#aaaaaa"/>
<circle cx="2.880586862564087" cy="48.585350036621094" r="0.40" fill="#aaaaaa"/>
<circle cx="3.0253915786743164" cy="45.32255935668945" r="0.40" fill="#aaaaaa"/>
<circle cx="3.7304580211639404" cy="42.04195022583008" r="0.40" fill="#aaaaaa"/>
<circle cx="4.460477828979492" cy="38.67232131958008" r="0.40" fill="#aaaaaa"/>
<circle cx="5.265439987182617" cy="35.23114776611328" r="0.40" fill="#aaaaaa"/>
<circle cx="5.851078510284424" cy="31.94782829284668" r="0.40" fill="#aaaaaa"/>
<circle cx="6.685561656951904" cy="28.444774627685547" r="0.40" fill="#aaaaaa"/>
<circle cx="7.490845680236816" cy="24.731046676635742" r="0.40" fill="#aaaaaa"/>
<circle cx="8.266554832458496" cy="21.011037826538086" r="0.40" fill="#aaaaaa"/>
<circle cx="9.02881145477295" cy="17.28816795349121" r="0.40" fill="#aaaaaa"/>
<circle cx="9.945679664611816" cy="13.666314125061035" r="0.40" fill="#aaaaaa"/>
<circle cx="10.654765129089355" cy="10.54554271697998" r="0.40" fill="#aaaaaa"/>
<circle cx="11.235671997070312" cy="7.601998805999756" r="0.40" fill="#aaaaaa"/>
<circle cx="11.867156982421875" cy="4.80466890335083" r="0.40" fill="#aaaaaa"/>
<circle cx="12.498149871826172" cy="2.0734262466430664" r="0.40" fill="#aaaaaa"/>
<circle cx="13.459426879882812" cy="-0.647885262966156" r="0.40" fill="#aaaaaa"/>
<circle cx="14.95137882232666" cy="-2.969168186187744" r="0.40" fill="#aaaaaa"/>
<circle cx="16.882856369018555" cy="-5.079452037811279" r="0.40" fill="#aaaaaa"/>
<circle cx="18.787139892578125" cy="-6.398972034454346" r="0.40" fill="#aaaaaa"/>
<circle cx="20.15604019165039" cy="-7.293354511260986" r="0.40" fill="#aaaaaa"/>
<circle cx="24.614137649536133" cy="-6.969949722290039" r="0.40" fill="#aaaaaa"/>
<polyline points="24.874910354614258,-7.01697301864624 25.367809295654297,-6.985974311828613 25.86071014404297,-6.954975128173828 24.614137649536133,-6.969949722290039 24.614137649536133,-6.969949722290039 27.33940887451172,-6.861978530883789 27.83230972290039,-6.830979824066162 28.325210571289062,-6.799980640411377 28.8181095123291,-6.76898193359375 29.31670570373535,-6.738570690155029 29.804954528808594,-6.737452983856201 30.295516967773438,-6.727022647857666 30.799959182739258,-6.67936372756958 31.313844680786133,-6.578322410583496 31.787094116210938,-6.474389553070068 32.3039436340332,-6.386913299560547 32.78422164916992,-6.250783920288086 33.25320816040039,-6.154885292053223 33.745689392089844,-6.072933673858643 34.24930953979492,-5.98608922958374 34.738059997558594,-5.8807148933410645 35.2268180847168,-5.7753400802612305 35.696571350097656,-5.69819450378418 36.1904411315918,-5.635722637176514 36.7152099609375,-5.566896915435791 37.20425033569336,-5.462918281555176 37.69329833984375,-5.358937740325928 38.19890594482422,-5.231010913848877 38.680728912353516,-5.099479675292969 39.14955520629883,-4.977768898010254 39.63740921020508,-4.868231296539307 40.12526321411133,-4.758694171905518 40.59501266479492,-4.682346343994141 41.08815383911133,-4.607173442840576 41.61650848388672,-4.502648830413818 42.100975036621094,-4.3798089027404785 42.56543731689453,-4.26332426071167 43.05599594116211,-4.167511940002441 43.546546936035156,-4.071700572967529 44.05540466308594,-3.9525701999664307 44.539756774902344,-3.8293473720550537 45.03740692138672,-3.6957685947418213 45.51504898071289,-3.5523741245269775 45.99268341064453,-3.4089808464050293 46.4600830078125,-3.2996954917907715 46.94771194458008,-3.189189910888672 47.41588592529297,-3.1000678539276123 47.9093132019043,-3.0286993980407715 48.4283561706543,-2.946428060531616 48.91667175292969,-2.8389716148376465 49.40498733520508,-2.7315149307250977 49.897438049316406,-2.6153781414031982 50.383914947509766,-2.5000665187835693 50.85631561279297,-2.4083757400512695 51.347755432128906,-2.318236827850342 51.84450149536133,-2.2220115661621094 52.334712982177734,-2.1241908073425293 52.84004211425781,-2.014780282974243 53.32591247558594,-1.8971017599105835 53.80581283569336,-1.7808696031570435 54.290199279785156,-1.6771842241287231 54.77910232543945,-1.57253098487854 55.274784088134766,-1.4601824283599854 55.761470794677734,-1.3457190990447998 56.24305725097656,-1.2338526248931885 56.7313232421875,-1.1261686086654663 57.21958923339844,-1.0184844732284546 57.70382308959961,-0.9168503284454346 58.19337463378906,-0.8154562711715698 58.68958282470703,-0.7103387117385864 59.177364349365234,-0.6004935503005981 59.6651496887207,-0.4906476140022278 60.12982177734375,-0.40851646661758423 60.62273025512695,-0.3307231068611145 61.16783905029297,-0.23072829842567444 61.649375915527344,-0.09833478927612305 62.13091278076172,0.03405874967575073 62.59653854370117,0.14558973908424377 63.084434509277344,0.25493770837783813 63.59788513183594,0.3761410415172577 64.07677459716797,0.5161767601966858 64.5556640625,0.6562124490737915 65.02294921875,0.7737300395965576 65.50917053222656,0.8900638222694397 65.99897766113281,1.0095040798187256 66.48355865478516,1.1319162845611572 66.9681396484375,1.2543284893035889 67.41971588134766,1.3076000213623047 67.91371154785156,1.3616852760314941 68.44507598876953,1.4431893825531006 68.93505859375,1.5423250198364258 69.43716430664062,1.6458590030670166 69.92428588867188,1.7585186958312988 70.41141510009766,1.871178388595581 70.9018325805664,1.9890302419662476 71.38777160644531,2.106451988220215 71.85099792480469,2.195871591567993 72.34297180175781,2.282115936279297 72.8327865600586,2.366629123687744 73.3250503540039,2.4504568576812744 73.80896759033203,2.5296218395233154 74.30206298828125,2.6053359508514404 74.85504150390625,2.7105376720428467 75.33810424804688,2.838090181350708 75.75513458251953,2.9332637786865234 76.24884033203125,2.999896764755249 76.80853271484375,3.094730854034424 77.29405975341797,3.2136998176574707 77.68944549560547,3.297729015350342 78.18330383300781,3.343616247177124 78.70657348632812,3.3961079120635986 79.2003402709961,3.4612865447998047 79.66857147216797,3.5210630893707275 80.16253662109375,3.571207046508789 80.7352066040039,3.6404807567596436 81.22649383544922,3.7316551208496094 81.66747283935547,3.809234857559204 82.16120910644531,3.8749923706054688 82.77326965332031,3.979038953781128 83.25818634033203,4.100273609161377 83.7846908569336,4.242746829986572 84.26293182373047,4.384512424468994 84.62580108642578,4.477316856384277 85.11832427978516,4.558919906616211 85.6993408203125,4.673596382141113 86.18317413330078,4.798552989959717 86.65047454833984,4.915853023529053 87.13665771484375,5.032318592071533 87.6316909790039,5.152815818786621 88.11664581298828,5.273891448974609 88.56101989746094,5.377958297729492 89.0509262084961,5.477479934692383 89.53668975830078,5.575814247131348 90.02696990966797,5.67323637008667 90.51725769042969,5.770658493041992 91.08415985107422,5.917494297027588 91.56375122070312,6.055593967437744 92.01564025878906,6.182553768157959 92.5,6.305777072906494 92.98433685302734,6.428997039794922 93.4630126953125,6.548415660858154 93.94831848144531,6.668224334716797 94.43846893310547,6.789985656738281 94.92298126220703,6.912603378295898 95.40751647949219,7.035224437713623 95.92633819580078,7.190840721130371 96.40277099609375,7.337325096130371 96.87229919433594,7.4795002937316895 97.35063934326172,7.621048450469971 97.8289794921875,7.762596607208252 98.32254028320312,7.9236321449279785 98.79480743408203,8.080037117004395 99.28218078613281,8.248878479003906 99.7467269897461,8.4210205078125 100.21128845214844,8.593167304992676 100.67231750488281,8.752711296081543 101.14213562011719,8.914422988891602 101.61449432373047,9.082292556762695 102.07965850830078,9.253313064575195 102.54481506347656,9.424333572387695 103.01099395751953,9.59217643737793 103.01099395751953,9.59217643737793 103.4791259765625,9.760416030883789 103.9304428100586,9.950313568115234 104.37356567382812,10.173449516296387 104.81887817382812,10.397687911987305 105.2237777709961,10.65293025970459 105.64549255371094,10.91922378540039 106.02603912353516,11.179221153259277 106.40902709960938,11.496781349182129 106.79347229003906,11.815546035766602 107.10858917236328,12.131464004516602 107.44680786132812,12.49743938446045 107.76058959960938,12.854598045349121 108.08094024658203,13.238120079040527 108.3654556274414,13.601241111755371 108.65584564208984,14.008201599121094 108.91803741455078,14.397762298583984 109.18351745605469,14.821084022521973 109.42459869384766,15.22275161743164 109.66143798828125,15.661728858947754 109.8659896850586,16.056514739990234 110.04010009765625,16.524930953979492 110.1942367553711,16.959304809570312 110.31404113769531,17.444631576538086 110.42353057861328,17.904680252075195 110.50019073486328,18.39850616455078 110.57830047607422,18.89470863342285 110.66197967529297,19.382301330566406 110.73907470703125,19.860965728759766 110.78716278076172,20.351125717163086 110.82038879394531,20.859046936035156 110.76673126220703,21.354995727539062 110.74427032470703,21.562580108642578 110.74427032470703,21.562580108642578 110.69718933105469,22.049720764160156 110.66088104248047,22.54306411743164 110.62358093261719,23.041494369506836 110.58020782470703,23.535249710083008 110.53683471679688,24.029006958007812 110.44252014160156,24.569427490234375 110.33232879638672,25.12339210510254 110.18089294433594,25.597806930541992 110.03180694580078,26.06669044494629 109.88663482666016,26.54364585876465 109.74668884277344,27.007946014404297 109.61897277832031,27.490964889526367 109.48809814453125,27.98187828063965 109.34819793701172,28.46082305908203 109.20830535888672,28.93976593017578 109.09729766845703,29.41184425354004 108.98465728759766,29.898971557617188 108.84382629394531,30.39432144165039 108.70072174072266,30.8720703125 108.56395721435547,31.348772048950195 108.42918395996094,31.829513549804688 108.28775787353516,32.310882568359375 108.14163970947266,32.787471771240234 108.02094268798828,33.265159606933594 107.94135284423828,33.75789260864258 107.84857940673828,34.257965087890625 107.7205810546875,34.74089813232422 107.5909652709961,35.224796295166016 107.45111083984375,35.70375442504883 107.3112564086914,36.18271255493164 107.24625396728516,36.677921295166016 107.18448638916016,37.171817779541016 107.05525207519531,37.66593933105469 106.92555236816406,38.148345947265625 106.82125854492188,38.634708404541016 106.72147369384766,39.12456512451172 106.60391235351562,39.613155364990234 106.4795913696289,40.097190856933594 106.37499237060547,40.583839416503906 106.28504943847656,41.07530212402344 106.17999267578125,41.56797409057617 106.05706024169922,42.05240249633789 105.93354034423828,42.53680419921875 105.80878448486328,43.02070999145508 105.6913833618164,43.506229400634766 105.61210632324219,43.998992919921875 105.53123474121094,44.49546813964844 105.4207763671875,44.98311996459961 105.3103256225586,45.470760345458984 105.23143768310547,45.959232330322266 105.15546417236328,46.452301025390625 105.08088684082031,46.94491195678711 105.0070571899414,47.43815994262695 104.93370056152344,47.93092346191406 104.86106872558594,48.42426300048828 104.77039337158203,48.96065902709961 104.62250518798828,49.43653869628906 104.47461700439453,49.912418365478516 104.35009765625,50.3853645324707 104.22620391845703,50.8695182800293 104.12871551513672,51.344207763671875 104.04654693603516,51.836666107177734 103.9499282836914,52.34424591064453 103.83045959472656,52.82964324951172 103.71246337890625,53.310585021972656 103.6039810180664,53.79867935180664 103.4955062866211,54.28676986694336 103.36979675292969,54.777976989746094 103.24420166015625,55.26163101196289 103.13997650146484,55.7413444519043 103.03961181640625,56.23109436035156 102.93680572509766,56.72172546386719 102.83296966552734,57.21080017089844 102.75069427490234,57.68646240234375 102.68629455566406,58.180267333984375 102.6198959350586,58.67850875854492 102.54798126220703,59.171905517578125 102.47606658935547,59.66529083251953 102.38697814941406,60.16971206665039 102.29867553710938,60.66141128540039 102.20018005371094,61.162235260009766 102.09979248046875,61.6519775390625 102.00160217285156,62.138671875 101.90487670898438,62.62907409667969 101.81001281738281,63.1166877746582 101.7164306640625,63.60761260986328 101.59938049316406,64.13130187988281 101.47023010253906,64.6138687133789 101.37722778320312,65.04545593261719 101.3076171875,65.53900146484375 101.22370910644531,66.06044006347656 101.12753295898438,66.55091857910156 100.99369812011719,67.09393310546875 100.84661865234375,67.57014465332031 100.67271423339844,68.07525634765625 100.49099731445312,68.534423828125 100.28785705566406,69.009033203125 100.07476043701172,69.44624328613281 99.85869598388672,69.8834457397461 99.63668060302734,70.31297302246094 99.63668060302734,70.31297302246094 99.41327667236328,70.74518585205078 99.15999603271484,71.12528991699219 98.88990783691406,71.52771759033203 98.61953735351562,71.91619110107422 98.33311462402344,72.3163070678711 98.1023941040039,72.63233947753906 97.76414489746094,72.9835433959961 97.42249298095703,73.33826446533203 97.13336181640625,73.5869140625 96.75435638427734,73.89955139160156 96.4408950805664,74.14256286621094 96.0360336303711,74.4238052368164 95.6726303100586,74.67373657226562 95.25321960449219,74.94015502929688 94.88530731201172,75.17385864257812 94.47370910644531,75.3993911743164 94.03543090820312,75.63955688476562 93.73856353759766,75.76873016357422 93.2753677368164,75.95553588867188 92.7784423828125,76.16297912597656 92.32121276855469,76.3609848022461 92.09159088134766,76.46041870117188 91.60464477539062,76.5783462524414 91.11967468261719,76.69580078125 90.69996643066406,76.7779541015625 90.211669921875,76.8701400756836 89.92352294921875,76.90475463867188 89.42436218261719,76.91714477539062 88.95467376708984,76.92681121826172 88.45870208740234,76.9276123046875 87.97270202636719,76.9280014038086 87.76719665527344,76.9271011352539 87.76719665527344,76.9271011352539 87.27872467041016,76.92496490478516 86.87689971923828,76.89900207519531 86.38289642333984,76.84417724609375 86.00131225585938,76.7823486328125 85.518798828125,76.65298461914062 85.05825805664062,76.52432250976562 84.58019256591797,76.3820571899414 84.03472137451172,76.2398681640625 83.54591369628906,76.13468933105469 83.10735321044922,76.02777099609375 82.62605285644531,75.8946533203125 82.1282730102539,75.761474609375 81.64432525634766,75.63690185546875 81.16209411621094,75.51232147216797 80.67838287353516,75.38687133789062 80.13722229003906,75.26036071777344 79.64682006835938,75.16374206542969 79.20439147949219,75.07071685791016 78.7196273803711,74.94892120361328 78.23030853271484,74.82622528076172 77.74490356445312,74.706787109375 77.2594985961914,74.58734893798828 76.7839584350586,74.46587371826172 76.2998046875,74.34201049804688 75.71012878417969,74.24230194091797 75.21700286865234,74.16693878173828 74.74980163574219,74.08453369140625 74.25814056396484,73.99588775634766 73.7621078491211,73.90811157226562 73.2701416015625,73.82182312011719 72.82483673095703,73.731201171875 72.33769989013672,73.61856842041016 71.80066680908203,73.50692749023438 71.3084487915039,73.42262268066406 70.78993225097656,73.33943939208984 70.29629516601562,73.27145385742188 69.8016586303711,73.20347595214844 69.30799865722656,73.13619995117188 68.9043960571289,73.0811996459961 68.42903900146484,72.94113159179688 67.83676147460938,72.78497314453125 67.34282684326172,72.725341796875 66.87909698486328,72.66935729980469 66.4238052368164,72.56381225585938 65.9367446899414,72.4509048461914 65.382568359375,72.37185668945312 64.8886489868164,72.31073760986328 64.47584533691406,72.21257019042969 63.995052337646484,72.07796478271484 63.44255447387695,71.96212768554688 62.94942855834961,71.88677978515625 62.51816177368164,71.79866027832031 62.037479400634766,71.6637191772461 61.512939453125,71.52906799316406 61.02248764038086,71.43265533447266 60.56380081176758,71.33905792236328 60.080482482910156,71.21232604980469 59.56808853149414,71.07882690429688 59.07830810546875,70.97864532470703 58.58852767944336,70.87846374511719 58.08552169799805,70.78607940673828 57.59394073486328,70.69694519042969 57.095401763916016,70.611083984375 56.60297393798828,70.52862548828125 56.17783737182617,70.43746948242188 55.7047004699707,70.28303527832031 55.18614196777344,70.11700439453125 54.699005126953125,70.00439453125 54.21186828613281,69.89177703857422 53.73999786376953,69.77296447753906 53.25598907470703,69.6485366821289 52.71699142456055,69.53795623779297 52.22437286376953,69.45726013183594 51.79216384887695,69.37379455566406 51.31200408935547,69.23731994628906 50.7791748046875,69.09461975097656 50.28797912597656,69.00282287597656 49.820133209228516,68.91539001464844 49.38652801513672,68.77684783935547 48.91215896606445,68.62527465820312 48.3603401184082,68.49883270263672 47.87067794799805,68.39804077148438 47.34773635864258,68.31163787841797 46.854644775390625,68.23590850830078 46.34702682495117,68.16725158691406 45.85316467285156,68.1044921875 45.384830474853516,68.0342025756836 44.89352035522461,67.94316864013672 44.4080924987793,67.85250091552734 43.91797637939453,67.75414276123047 43.4278678894043,67.6557846069336 42.962745666503906,67.5434341430664 42.479244232177734,67.41730499267578 42.0161018371582,67.2914047241211 41.54035949707031,67.14317321777344 41.06462097167969,66.99494934082031 40.523590087890625,66.88279724121094 40.033424377441406,66.78472900390625 39.53117752075195,66.69334411621094 39.039283752441406,66.60650634765625 38.53974533081055,66.5228500366211 38.046905517578125,66.44437408447266 37.55387878417969,66.36593627929688 37.06100845336914,66.28770446777344 36.56814193725586,66.20948028564453 36.101097106933594,66.10519409179688 35.614444732666016,65.9906005859375 35.10059356689453,65.8889389038086 34.60734176635742,65.81517028808594 34.12397766113281,65.74227905273438 33.63357925415039,65.64553833007812 33.143184661865234,65.5488052368164 32.640594482421875,65.46795654296875 32.14701843261719,65.39894104003906 31.6534366607666,65.32994079589844 31.15985870361328,65.2609634399414 30.66628074645996,65.1919937133789 30.18752098083496,65.05349731445312 29.71393585205078,64.90011596679688 29.22088623046875,64.7678451538086 28.73006248474121,64.67367553710938 28.24348258972168,64.57990264892578 27.75952911376953,64.4552993774414 27.275575637817383,64.33069610595703 26.780336380004883,64.22442626953125 26.28923225402832,64.13204193115234 25.79795265197754,64.03995513916016 25.30670928955078,63.948490142822266 24.814247131347656,63.858455657958984 24.320945739746094,63.785301208496094 23.827648162841797,63.71215057373047 23.335468292236328,63.60340881347656 22.849084854125977,63.487728118896484 22.362871170043945,63.37059783935547 21.87714195251465,63.25238037109375 21.3931827545166,63.125770568847656 20.916791915893555,62.97916030883789 20.436321258544922,62.83168029785156 19.951082229614258,62.711631774902344 19.46584701538086,62.591583251953125 18.98067855834961,62.471397399902344 18.495485305786133,62.35118865966797 18.011384963989258,62.22934341430664 17.526859283447266,62.10673522949219 17.039058685302734,61.98781204223633 16.55267333984375,61.872135162353516 16.07176971435547,61.75078201293945 15.58838176727295,61.6242790222168 15.120418548583984,61.486270904541016 14.64582347869873,61.33526611328125 14.127893447875977,61.21033477783203 13.63709545135498,61.11601638793945 13.181096076965332,60.99686050415039 12.703729629516602,60.852760314941406 12.234739303588867,60.704437255859375 11.76086139678955,60.551727294921875 11.326150894165039,60.38252258300781 10.867260932922363,60.200321197509766 10.377680778503418,60.02756118774414 9.986268997192383,59.89003372192383 9.986268997192383,59.89003372192383 9.588872909545898,59.672420501708984 9.195490837097168,59.455718994140625 8.776538848876953,59.20193862915039 8.372098922729492,58.954681396484375 7.952337265014648,58.689754486083984 7.579711437225342,58.443382263183594 7.169715881347656,58.15901184082031 6.8483662605285645,57.91071319580078 6.4602251052856445,57.59611129760742 6.200461387634277,57.3522834777832 5.849636554718018,56.99689483642578 5.602454662322998,56.709320068359375 5.284641265869141,56.32382583618164 5.014700889587402,55.97484588623047 4.713418006896973,55.57604217529297 4.55958890914917,55.31998062133789 4.319461345672607,54.88167190551758 4.032924175262451,54.39707565307617 3.7951552867889404,54.00669479370117 3.6336498260498047,53.65557098388672 3.434433937072754,53.22246170043945 3.376189708709717,52.964622497558594 3.2660324573516846,52.47697448730469 3.1183578968048096,51.934513092041016 3.0019218921661377,51.521018981933594 2.96834135055542,51.16059112548828 2.9220690727233887,50.663936614990234 2.9205424785614014,50.28220748901367 2.9295382499694824,49.78316116333008 2.9114999771118164,49.222999572753906 2.8878886699676514,48.735965728759766 2.880586862564087,48.585350036621094 2.880586862564087,48.585350036621094 2.8896336555480957,48.095523834228516 2.8986809253692627,47.605674743652344 2.9072747230529785,47.11524200439453 2.9157302379608154,46.62550354003906 2.9443445205688477,46.15998077392578 2.9921462535858154,45.66606903076172 3.0543901920318604,45.200721740722656 3.170149803161621,44.714359283447266 3.2888693809509277,44.20909881591797 3.360060214996338,43.71565628051758 3.431250810623169,43.22221755981445 3.5440561771392822,42.75110626220703 3.671074151992798,42.26787185668945 3.8006725311279297,41.787662506103516 3.933588981628418,41.30630111694336 4.052729606628418,40.79349899291992 4.124305248260498,40.30008316040039 4.196183204650879,39.818397521972656 4.308535575866699,39.33119583129883 4.420888423919678,38.843994140625 4.551794528961182,38.37348175048828 4.697475910186768,37.896728515625 4.834712028503418,37.38468933105469 4.915408134460449,36.89207077026367 4.996103763580322,36.399452209472656 5.1031599044799805,35.923336029052734 5.217281341552734,35.43656539916992 5.324389934539795,34.942874908447266 5.424548625946045,34.45309066772461 5.5134992599487305,33.948875427246094 5.573819637298584,33.4549446105957 5.6358323097229,32.965858459472656 5.739256381988525,32.47670364379883 5.842679977416992,31.987548828125 5.937235355377197,31.49596405029297 6.0308380126953125,31.005050659179688 6.142097473144531,30.518524169921875 6.269881248474121,30.035524368286133 6.397491931915283,29.55225372314453 6.5232834815979,29.06865119934082 6.649074554443359,28.58504867553711 6.7659831047058105,28.096403121948242 6.878446578979492,27.609228134155273 6.990352630615234,27.12104034423828 7.098707675933838,26.63292121887207 7.207062721252441,26.144804000854492 7.308492183685303,25.652935028076172 7.405485153198242,25.162586212158203 7.502389430999756,24.672077178955078 7.598410606384277,24.18155860900879 7.694431781768799,23.6910400390625 7.794476509094238,23.20180320739746 7.897555828094482,22.71257972717285 8.000799179077148,22.223573684692383 8.107843399047852,21.735172271728516 8.214888572692871,21.246767044067383 8.314241409301758,20.756406784057617 8.406225204467773,20.265239715576172 8.498208999633789,19.774078369140625 8.586333274841309,19.282560348510742 8.67442512512207,18.790836334228516 8.778227806091309,18.296945571899414 8.898731231689453,17.811832427978516 9.019235610961914,17.326719284057617 9.127904891967773,16.839998245239258 9.235851287841797,16.351791381835938 9.36058521270752,15.864228248596191 9.508822441101074,15.388490676879883 9.657060623168945,14.912753105163574 9.774428367614746,14.422853469848633 9.884815216064453,13.935194969177246 10.010132789611816,13.456694602966309 10.156625747680664,12.980257987976074 10.28818130493164,12.481427192687988 10.372913360595703,11.989267349243164 10.45998764038086,11.50024127960205 10.559922218322754,11.010414123535156 10.659790992736816,10.520176887512207 10.75694751739502,10.029851913452148 10.853906631469727,9.538957595825195 10.945300102233887,9.04770278930664 11.03717041015625,8.556744575500488 11.138938903808594,8.067264556884766 11.239789962768555,7.577805519104004 11.323590278625488,7.085534572601318 11.411896705627441,6.587532043457031 11.553958892822266,6.109389781951904 11.68944263458252,5.628594875335693 11.794861793518066,5.1398468017578125 11.889091491699219,4.649394989013672 11.958809852600098,4.155860900878906 12.072413444519043,3.6594412326812744 12.2356538772583,3.1903576850891113 12.365143775939941,2.705263376235962 12.468132972717285,2.2160212993621826 12.605631828308105,1.7400625944137573 12.758407592773438,1.266214370727539 12.906713485717773,0.7890948057174683 13.053878784179688,0.31292641162872314 13.235536575317383,-0.12335163354873657 13.235536575317383,-0.12335163354873657 13.429338455200195,-0.5773947238922119 13.637157440185547,-0.9979959726333618 13.861644744873047,-1.4402140378952026 14.097051620483398,-1.7998716831207275 14.372990608215332,-2.2101497650146484 14.645167350769043,-2.5708694458007812 14.960246086120605,-2.9813499450683594 15.254289627075195,-3.385289192199707 15.501127243041992,-3.7243800163269043 15.828149795532227,-4.06830358505249 16.172605514526367,-4.43056058883667 16.49765968322754,-4.727693557739258 16.866788864135742,-5.064778804779053 17.181636810302734,-5.286346435546875 17.592578887939453,-5.570909023284912 17.97170066833496,-5.803982257843018 18.510835647583008,-6.160578727722168 18.812786102294922,-6.416266441345215 19.221586227416992,-6.69193172454834 19.638507843017578,-7.016739845275879 19.987834930419922,-7.20475959777832 20.427684783935547,-7.453481197357178 20.820087432861328,-7.640865802764893 21.190231323242188,-7.718168258666992 21.650426864624023,-7.617602825164795 22.118167877197266,-7.515388488769531 22.592525482177734,-7.4117279052734375 24.593111038208008,-7.034695625305176 24.593111038208008,-7.034695625305176 24.593111038208008,-7.034695625305176 24.667678833007812,-7.030005931854248 24.874910354614258,-7.01697301864624" fill="none" stroke="#dd3333" stroke-width="0.80"/>
</g>
</svg>
