<svg xmlns="http://www.w3.org/2000/svg" width="400" height="318" viewBox="-10.00 -87.74 131.54 106.05">
<rect x="-10.00" y="-87.74" width="131.54" height="106.05" fill="white"/>
<g transform="scale(1,-1)">
<polyline points="10,0 10.5,0 11,0 11.5,0 12,0 12.5,0 13,0 13.5,0 14,0 14.5,0 15,0 15.5,0 16,0 16.5,0 17,0 17.5,0 18,0 18.5,0 19,0 19.5,0 20,0 20.5,0 21,0 21.5,0 22,0 22.5,0 23,0 23.5,0 24,0 24.5,0 25,0 25.5,0 26,0 26.5,0 27,0 27.5,0 28,0 28.5,0 29,0 29.5,0 30,0 30.5,0 31,0 31.5,0 32,0 32.5,0 33,0 33.5,0 34,0 34.5,0 35,0 35.5,0 36,0 36.5,0 37,0 37.5,0 38,0 38.5,0 39,0 39.5,0 40,0 40.5,0 41,0 41.5,0 42,0 42.5,0 43,0 43.5,0 44,0 44.5,0 45,0 45.5,0 46,0 46.5,0 47,0 47.5,0 48,0 48.5,0 49,0 49.5,0 50,0 50.5,0 51,0 51.5,0 52,0 52.5,0 53,0 53.5,0 54,0 54.5,0 55,0 55.5,0 56,0 56.5,0 57,0 57.5,0 58,0 58.5,0 59,0 59.5,0 60,0 60.5,0 61,0 61.5,0 62,0 62.5,0 63,0 63.5,0 64,0 64.5,0 65,0 65.5,0 66,0 66.5,0 67,0 67.5,0 68,0 68.5,0 69,0 69.5,0 70,0 70.5,0 71,0 71.5,0 72,0 72.5,0 73,0 73.5,0 74,0 74.5,0 75,0 75.5,0 76,0 76.5,0 77,0 77.5,0 78,0 78.5,0 79,0 79.5,0 80,0 80.5,0 81,0 81.5,0 82,0 82.5,0 83,0 83.5,0 84,0 84.5,0 85,0 85.5,0 86,0 86.5,0 87,0 87.5,0 88,0 88.5,0 89,0 89.5,0 90,0 90,0 90.49978637695312,0.012658422812819481 90.99834442138672,0.04981675371527672 91.49445343017578,0.1115112155675888 91.98690795898438,0.19767367839813232 92.47434997558594,0.30876925587654114 92.95549011230469,0.44454866647720337 93.42930603027344,0.6040206551551819 93.89463806152344,0.7868010997772217 94.34980010986328,0.9936206340789795 94.79420471191406,1.2226026058197021 95.22684478759766,1.4731366634368896 95.64592742919922,1.7457432746887207 96.0511245727539,2.0385706424713135 96.44158172607422,2.3508031368255615 96.81537628173828,2.682799816131592 97.17256164550781,3.0325934886932373 97.51224517822266,3.399414539337158 97.83258056640625,3.783247232437134 98.13384246826172,4.182217597961426 98.41511535644531,4.595527172088623 98.67469787597656,5.022795677185059 98.91301727294922,5.462271213531494 99.12935638427734,5.912982940673828 99.32190704345703,6.374354839324951 99.49142456054688,6.844671726226807 99.63740539550781,7.322822093963623 99.75860595703125,7.807847023010254 99.85518646240234,8.298365592956543 99.9273452758789,8.793061256408691 99.97498321533203,9.290724754333496 99.99763488769531,9.790157318115234 100,10 100,10 100,10.5 100,11 100,11.5 100,12 100,12.5 100,13 100,13.5 100,14 100,14.5 100,15 100,15.5 100,16 100,16.5 100,17 100,17.5 100,18 100,18.5 100,19 100,19.5 100,20 100,20.5 100,21 100,21.5 100,22 100,22.5 100,23 100,23.5 100,24 100,24.5 100,25 100,25.5 100,26 100,26.5 100,27 100,27.5 100,28 100,28.5 100,29 100,29.5 100,30 100,30.5 100,31 100,31.5 100,32 100,32.5 100,33 100,33.5 100,34 100,34.5 100,35 100,35.5 100,36 100,36.5 100,37 100,37.5 100,38 100,38.5 100,39 100,39.5 100,40 100,40.5 100,41 100,41.5 100,42 100,42.5 100,43 100,43.5 100,44 100,44.5 100,45 100,45.5 100,46 100,46.5 100,47 100,47.5 100,48 100,48.5 100,49 100,49.5 100,50 100,50.5 100,51 100,51.5 100,52 100,52.5 100,53 100,53.5 100,54 100,54.5 100,55 100,55.5 100,56 100,56.5 100,57 100,57.5 100,58 100,58.5 100,59 100,59.5 100,60 100,60 99.98733520507812,60.49979019165039 99.95018005371094,60.99834060668945 99.88848876953125,61.49445343017578 99.80233001708984,61.986907958984375 99.69122314453125,62.47434616088867 99.55545043945312,62.95549392700195 99.39598846435547,63.4293098449707 99.21319580078125,63.89463806152344 99.00637817382812,64.34980010986328 98.77739715576172,64.79420471191406 98.52687072753906,65.22684478759766 98.25425720214844,65.64592742919922 97.96143341064453,66.0511245727539 97.64920806884766,66.44158935546875 97.31719970703125,66.81537628173828 96.9674072265625,67.17256164550781 96.60059356689453,67.51224517822266 96.21675109863281,67.83257293701172 95.81778717041016,68.13384246826172 95.40447235107422,68.41511535644531 94.97721099853516,68.6747055053711 94.53772735595703,68.91301727294922 94.08702087402344,69.12935638427734 93.62564849853516,69.32190704345703 93.15532684326172,69.49141693115234 92.67717742919922,69.63739776611328 92.19215393066406,69.75860595703125 91.7016372680664,69.85517883300781 91.20693969726562,69.92735290527344 90.70927429199219,69.97498321533203 90.20984649658203,69.99763488769531 90,70 90,70 89.5,70 89,70 88.5,70 88,70 87.5,70 87,70 86.5,70 86,70 85.5,70 85,70 84.5,70 84,70 83.5,70 83,70 82.5,70 82,70 81.5,70 81,70 80.5,70 80,70 79.5,70 79,70 78.5,70 78,70 77.5,70 77,70 76.5,70 76,70 75.5,70 75,70 74.5,70 74,70 73.5,70 73,70 72.5,70 72,70 71.5,70 71,70 70.5,70 70,70 69.5,70 69,70 68.5,70 68,70 67.5,70 67,70 66.5,70 66,70 65.5,70 65,70 64.5,70 64,70 63.5,70 63,70 62.5,70 62,70 61.5,70 61,70 60.5,70 60,70 59.5,70 59,70 58.5,70 58,70 57.5,70 57,70 56.5,70 56,70 55.5,70 55,70 54.5,70 54,70 53.5,70 53,70 52.5,70 52,70 51.5,70 51,70 50.5,70 50,70 49.5,70 49,70 48.5,70 48,70 47.5,70 47,70 46.5,70 46,70 45.5,70 45,70 44.5,70 44,70 43.5,70 43,70 42.5,70 42,70 41.5,70 41,70 40.5,70 40,70 39.5,70 39,70 38.5,70 38,70 37.5,70 37,70 36.5,70 36,70 35.5,70 35,70 34.5,70 34,70 33.5,70 33,70 32.5,70 32,70 31.5,70 31,70 30.5,70 30,70 29.5,70 29,70 28.5,70 28,70 27.5,70 27,70 26.5,70 26,70 25.5,70 25,70 24.5,70 24,70 23.5,70 23,70 22.5,70 22,70 21.5,70 21,70 20.5,70 20,70 19.5,70 19,70 18.5,70 18,70 17.5,70 17,70 16.5,70 16,70 15.5,70 15,70 14.5,70 14,70 13.5,70 13,70 12.5,70 12,70 11.5,70 11,70 10.5,70 10,70 10,70 9.500210762023926,69.98734283447266 9.00165843963623,69.95018768310547 8.505548477172852,69.88849639892578 8.013092994689941,69.80233001708984 7.52565336227417,69.69123077392578 7.044508457183838,69.55545043945312 6.57069206237793,69.39598083496094 6.105362415313721,69.21319580078125 5.650203227996826,69.00637817382812 5.2057929039001465,68.77739715576172 4.77315616607666,68.52686309814453 4.354074001312256,68.25425720214844 3.9488747119903564,67.96142578125 3.5584230422973633,67.6491928100586 3.184626340866089,67.31719970703125 2.8274426460266113,66.9674072265625 2.4877591133117676,66.6005859375 2.167423725128174,66.21675109863281 1.8661597967147827,65.81777954101562 1.5848859548568726,65.40447235107422 1.3252990245819092,64.97720336914062 1.0869821310043335,64.53772735595703 0.8706510663032532,64.0870132446289 0.6780910491943359,63.62564468383789 0.5085854530334473,63.15532684326172 0.3625999987125397,62.67717742919922 0.24139642715454102,62.1921501159668 0.14481478929519653,61.70163345336914 0.07264875620603561,61.206939697265625 0.025012144818902016,60.70927429199219 0.0023605828173458576,60.209842681884766 0,60 0,60 0,59.5 0,59 0,58.5 0,58 0,57.5 0,57 0,56.5 0,56 0,55.5 0,55 0,54.5 0,54 0,53.5 0,53 0,52.5 0,52 0,51.5 0,51 0,50.5 0,50 0,49.5 0,49 0,48.5 0,48 0,47.5 0,47 0,46.5 0,46 0,45.5 0,45 0,44.5 0,44 0,43.5 0,43 0,42.5 0,42 0,41.5 0,41 0,40.5 0,40 0,39.5 0,39 0,38.5 0,38 0,37.5 0,37 0,36.5 0,36 0,35.5 0,35 0,34.5 0,34 0,33.5 0,33 0,32.5 0,32 0,31.5 0,31 0,30.500001907348633 0,29.999998092651367 0,29.5 0,29 0,28.5 0,28 0,27.5 0,27 0,26.5 0,26 0,25.5 0,25 0,24.5 0,24 0,23.5 0,23 0,22.5 0,22 0,21.5 0,21 0,20.5 0,20 0,19.5 0,19 0,18.5 0,18 0,17.5 0,17 0,16.5 0,16 0,15.5 0,15 0,14.5 0,14 0,13.5 0,13 0,12.5 0,12 0,11.5 0,11 0,10.5 0,10 0,10 0.012658211402595043,9.500211715698242 0.04981674998998642,9.00165843963623 0.11151176691055298,8.505549430847168 0.1976739764213562,8.013092994689941 0.3087690472602844,7.525652885437012 0.4445495009422302,7.044508457183838 0.604022741317749,6.570693492889404 0.7868029475212097,6.105361461639404 0.9936223030090332,5.650203704833984 1.2226051092147827,5.205793380737305 1.473137378692627,4.773155212402344 1.7457438707351685,4.354074954986572 2.038573741912842,3.94887638092041 2.35080623626709,3.558422088623047 2.6828017234802246,3.184627056121826 3.032595157623291,2.8274431228637695 3.3994157314300537,2.4877586364746094 3.7832484245300293,2.167422294616699 4.182218074798584,1.8661609888076782 4.595529556274414,1.5848865509033203 5.022795677185059,1.325299859046936 5.462271213531494,1.08698308467865 5.912984848022461,0.8706503510475159 6.374355792999268,0.6780915260314941 6.844675064086914,0.5085864067077637 7.322823524475098,0.3625992238521576 7.807849884033203,0.24139663577079773 8.29836654663086,0.14481498301029205 8.793061256408691,0.07264868915081024 9.290725708007812,0.02501235343515873 9.79015827178955,0.0023605620954185724 10,0" fill="none" stroke="#4466aa" stroke-width="0.80" stroke-dasharray="4,2"/>
<polyline points="24.593111038208008,-7.034695625305176 27.084335327148438,-7.211625099182129 27.674072265625,-7.100276470184326 28.216419219970703,-6.903399467468262 29.377248764038086,-6.867835998535156 30.484943389892578,-6.5822930335998535 31.65762710571289,-6.602490425109863 32.66538619995117,-6.533880710601807 33.776390075683594,-6.263913631439209 35.031192779541016,-5.983345985412598 36.32559585571289,-5.889098644256592 37.68830108642578,-5.429074287414551 39.09943771362305,-5.196911811828613 40.462947845458984,-4.740659236907959 41.85026168823242,-4.396421909332275 43.086002349853516,-4.026164531707764 44.208614349365234,-3.8107988834381104 45.30222702026367,-3.459015369415283 46.307552337646484,-3.3789350986480713 47.282691955566406,-3.1568763256073 48.26114273071289,-2.950395345687866 49.22556686401367,-2.6779210567474365 50.189300537109375,-2.402204751968384 51.32366943359375,-2.242156505584717 52.47811508178711,-2.176561117172241 53.5980339050293,-1.9485265016555786 54.69099044799805,-1.5936592817306519 55.82714080810547,-1.4419586658477783 57.07843780517578,-1.144913673400879 58.49473190307617,-0.9370188117027283 59.736881256103516,-0.5968981981277466 60.95443344116211,-0.14109012484550476 62.18732452392578,0.24256978929042816 63.62586212158203,0.34582042694091797 65.00007629394531,0.7517006993293762 66.28157806396484,0.9066343307495117 67.36754608154297,1.2943812608718872 68.46556091308594,1.6254985332489014 69.57125854492188,1.9204477071762085 70.71620178222656,2.0307669639587402 71.6731185913086,2.3385565280914307 72.68699645996094,2.3783528804779053 73.65876770019531,2.6162734031677246 74.65485382080078,2.7398109436035156 75.64502716064453,2.891141653060913 76.66497039794922,2.9024455547332764 77.6360092163086,3.1437416076660156 78.63690948486328,3.2446162700653076 79.58067321777344,3.614300012588501 80.56404113769531,3.7976479530334473 81.56133270263672,3.915496349334717 82.57298278808594,3.9657821655273438 83.5490951538086,4.183259010314941 84.54410552978516,4.311863422393799 85.5337142944336,4.465842247009277 86.54674530029297,4.509657859802246 87.51116943359375,4.78209924697876 88.46154022216797,5.120704650878906 89.42552947998047,5.3952460289001465 90.36149597167969,5.801629066467285 91.3215560913086,6.0946044921875 92.26534271240234,6.464151859283447 93.3758773803711,6.736344814300537 94.90192413330078,7.115005970001221 96.43929290771484,7.440410614013672 97.95294952392578,7.877384662628174 99.3873519897461,8.008376121520996 100.77098846435547,8.357182502746582 102.26447296142578,8.759302139282227 103.6175537109375,9.228642463684082 104.53034973144531,9.591980934143066 105.34486389160156,10.024874687194824 106.11744689941406,10.538668632507324 107.13731384277344,11.135673522949219 108.05936431884766,11.801987648010254 108.7633056640625,12.471673011779785 109.46959686279297,13.56482982635498 110.08821868896484,14.705086708068848 110.68123626708984,15.82796573638916 111.15211486816406,16.970462799072266 111.28522491455078,18.11439323425293 111.42950439453125,19.249202728271484 111.53898620605469,20.37179946899414 111.37891387939453,21.19676399230957 111.16918182373047,22.005414962768555 110.87242889404297,22.787689208984375 110.6528091430664,23.622060775756836 110.45793914794922,24.60297966003418 110.03272247314453,25.680986404418945 109.73097229003906,26.785236358642578 109.51427459716797,27.90756607055664 109.319091796875,29.034465789794922 108.96735382080078,30.128095626831055 108.58876037597656,31.216012954711914 108.30262756347656,32.32358169555664 108.05010986328125,33.29224395751953 107.85462951660156,34.273033142089844 107.5141830444336,35.22301483154297 107.12982177734375,36.16365432739258 106.89546966552734,37.13618850708008 106.85130310058594,38.14913558959961 106.5949935913086,39.11699676513672 106.40030670166016,40.09795379638672 106.22325134277344,41.08266067504883 105.98527526855469,42.20046615600586 105.93058776855469,43.35723114013672 105.8388900756836,44.50613021850586 105.44044494628906,45.58982467651367 105.08550262451172,46.682769775390625 104.87066650390625,47.80549240112305 104.52146911621094,48.899658203125 104.415283203125,49.8994255065918 104.16069793701172,51.01370620727539 103.98523712158203,52.14480209350586 103.80802917480469,53.27552032470703 103.60273742675781,54.400272369384766 103.31502532958984,55.507511138916016 103.08380126953125,56.626747131347656 102.83100891113281,57.74140548706055 102.4675521850586,58.68649673461914 102.19795989990234,59.65153121948242 102.00188446044922,60.63219451904297 101.85252380371094,61.62278366088867 101.78511810302734,62.77684783935547 101.61933898925781,63.91000747680664 101.42137908935547,65.03630828857422 101.32341766357422,66.18388366699219 101.22802734375,67.19224548339844 101.10785675048828,68.20128631591797 100.85480499267578,69.15323638916016 100.6609115600586,70.0147476196289 100.31282806396484,70.81183624267578 99.83739471435547,71.72087097167969 99.24748992919922,72.54045867919922 98.3176040649414,73.39240264892578 97.37203216552734,74.32878875732422 96.36994171142578,75.27356719970703 95.12235260009766,76.06990814208984 93.87005615234375,76.78327941894531 92.63251495361328,77.17491149902344 91.4477767944336,77.4755859375 90.55426025390625,77.73702239990234 89.57718658447266,77.73149871826172 88.76732635498047,77.5445556640625 87.93708038330078,77.39515686035156 87.13985443115234,77.13199615478516 86.3495864868164,76.90229034423828 85.53489685058594,76.60626220703125 84.57767486572266,76.29996490478516 83.60453033447266,76.06849670410156 82.6080322265625,75.9468994140625 81.67584228515625,75.52278900146484 80.58089447021484,75.17728424072266 79.44347381591797,75.03160095214844 78.32275390625,74.8072738647461 77.20491027832031,74.56951141357422 76.10118103027344,74.26533508300781 74.9784164428711,74.0506591796875 73.85942840576172,73.8182601928711 72.8554916381836,73.73162841796875 71.9148178100586,73.34746551513672 70.8952407836914,73.33445739746094 69.90835571289062,73.16765594482422 68.91302490234375,73.04058074951172 67.9554214477539,72.73601531982422 66.92254638671875,72.78556060791016 65.94066619873047,72.59520721435547 64.93292236328125,72.52657318115234 63.997154235839844,72.11927032470703 62.84865951538086,72.0256576538086 61.756553649902344,71.6667709350586 60.60324478149414,71.59583282470703 59.52963638305664,71.14990234375 58.41770553588867,70.88427734375 57.337646484375,70.46873474121094 56.21551513671875,70.25108337402344 55.26084518432617,69.93272399902344 54.26158905029297,69.82412719726562 53.152462005615234,69.54533386230469 52.00290298461914,69.45674133300781 50.91155242919922,69.09431457519531 49.76831817626953,68.9759292602539 48.6494255065918,68.74305725097656 47.52779006958008,68.52313232421875 46.41506576538086,68.2612533569336 45.466156005859375,67.91580200195312 44.52216720581055,67.54718780517578 43.53147506713867,67.39826202392578 42.523189544677734,67.33216857910156 41.37977981567383,67.21463012695312 40.2681884765625,66.9474105834961 38.995845794677734,66.74938201904297 37.753318786621094,66.41106414794922 36.50374984741211,66.10588836669922 35.21147537231445,66.0016098022461 33.989994049072266,65.56427764892578 32.862754821777344,65.37068939208984 31.58953285217285,65.17679595947266 30.485645294189453,64.87332916259766 29.315797805786133,64.88017272949219 28.172412872314453,64.76253509521484 27.056976318359375,64.51342010498047 25.90627670288086,64.43020629882812 24.839969635009766,63.94993209838867 23.71377944946289,63.75140380859375 22.613290786743164,63.431968688964844 21.50146484375,63.16585922241211 20.39371681213379,62.88056564331055 19.290180206298828,62.57545852661133 18.187602996826172,62.26583480834961 17.064977645874023,62.0505256652832 16.133214950561523,61.6243896484375 15.132428169250488,61.52299880981445 14.19603443145752,61.11864471435547 13.196990013122559,61.009033203125 12.377890586853027,60.752994537353516 11.550528526306152,60.52288055419922 10.722066879272461,60.365623474121094 9.895181655883789,60.20068359375 9.054618835449219,59.96746826171875 8.352035522460938,59.61087417602539 7.605141639709473,59.170372009277344 6.7271270751953125,58.7293701171875 6.051727294921875,58.065391540527344 5.366780757904053,57.42255401611328 4.830169677734375,56.65922164916992 4.347262382507324,55.786651611328125 3.6666743755340576,55.05514907836914 3.347588062286377,54.135009765625 2.9607691764831543,53.1715087890625 2.6204447746276855,52.27088165283203 2.5101237297058105,51.37287139892578 2.228317975997925,50.59209442138672 2.1140096187591553,49.77703094482422 2.370222330093384,48.968231201171875 2.38108229637146,48.00985336303711 2.6886956691741943,47.07566452026367 3.0154407024383545,46.16204833984375 3.1336381435394287,44.87485122680664 3.449910879135132,43.48159408569336 3.726310968399048,42.079856872558594 3.875734567642212,40.651126861572266 4.276492118835449,39.421875 4.482538223266602,38.1512336730957 4.671731472015381,36.877010345458984 5.078916072845459,35.941219329833984 5.2747721672058105,34.960506439208984 5.530843257904053,33.99259567260742 5.94351053237915,33.0579719543457 6.056346416473389,32.05961227416992 6.282737731933594,31.08539390563965 6.464515686035156,30.1016902923584 6.449482440948486,29.076156616210938 6.691409587860107,27.959192276000977 6.91149377822876,26.54548454284668 7.092052936553955,25.12337875366211 7.473307132720947,23.743928909301758 7.930236339569092,22.234514236450195 8.237946510314941,20.693387985229492 8.658345222473145,19.176210403442383 9.114206314086914,17.812620162963867 9.38795280456543,16.702417373657227 9.56666374206543,15.572013854980469 9.831138610839844,14.4598388671875 9.812240600585938,13.43348217010498 10.105123519897461,12.473397254943848 10.346169471740723,11.502290725708008 10.620579719543457,10.538278579711914 10.870651245117188,9.569091796875 11.184045791625977,8.61336612701416 11.25292682647705,7.605666160583496 11.612221717834473,6.659695625305176 11.830965042114258,5.6838507652282715 11.944722175598145,4.685690402984619 11.990371704101562,3.6730520725250244 12.238385200500488,2.7034285068511963 12.408345222473145,1.8660098314285278 12.621580123901367,1.0304803848266602 12.712127685546875,0.15456655621528625 12.931784629821777,-0.6520815491676331 13.24663257598877,-1.4715574979782104 13.652958869934082,-2.21018385887146 14.182479858398438,-3.0499370098114014 14.705289840698242,-4.074360370635986 15.500727653503418,-4.852794170379639 16.41659927368164,-5.537232875823975 17.28316307067871,-6.112648010253906 18.265913009643555,-6.740019798278809 19.22163963317871,-7.390690803527832 20.169668197631836,-7.799040794372559 21.18991470336914,-7.911535739898682 22.073551177978516,-7.945149898529053 22.53948211669922,-8.0697021484375 22.973461151123047,-8.311871528625488 24.614137649536133,-6.969949722290039" fill="none" stroke="#999999" stroke-width="0.3" stroke-dasharray="1,1"/>
<circle cx="24.593111038208008" cy="-7.034695625305176" r="0.40" fill="#aaaaaa"/>
<circle cx="28.216419219970703" cy="-6.903399467468262" r="0.40" fill="#aaaaaa"/>
<circle cx="31.65762710571289" cy="-6.602490425109863" r="0.40" fill="#aaaaaa"/>
<circle cx="35.031192779541016" cy="-5.983345985412598" r="0.40" fill="#aaaaaa"/>
<circle cx="39.09943771362305" cy="-5.196911811828613" r="0.40" fill="#aaaaaa"/>
<circle cx="43.086002349853516" cy="-4.026164531707764" r="0.40" fill="#aaaaaa"/>
<circle cx="46.307552337646484" cy="-3.3789350986480713" r="0.40" fill="#aaaaaa"/>
<circle cx="49.22556686401367" cy="-2.6779210567474365" r="0.40" fill="#aaaaaa"/>
<circle cx="52.47811508178711" cy="-2.176561117172241" r="0.40" fill="#aaaaaa"/>
<circle cx="55.82714080810547" cy="-1.4419586658477783" r="0.40" fill="#aaaaaa"/>
<circle cx="59.736881256103516" cy="-0.5968981981277466" r="0.40" fill="#aaaaaa"/>
<circle cx="63.62586212158203" cy="0.34582042694091797" r="0.40" fill="#aaaaaa"/>
<circle cx="67.36754608154297" cy="1.2943812608718872" r="0.40" fill="#aaaaaa"/>
<circle cx="70.71620178222656" cy="2.0307669639587402" r="0.40" fill="#aaaaaa"/>
<circle cx="73.65876770019531" cy="2.6162734031677246" r="0.40" fill="#aaaaaa"/>
<circle cx="76.66497039794922" cy="2.9024455547332764" r="0.40" fill="#aaaaaa"/>
<circle cx="79.58067321777344" cy="3.614300012588501" r="0.40" fill="#aaaaaa"/>
<circle cx="82.57298278808594" cy="3.9657821655273438" r="0.40" fill="#aaaaaa"/>
<circle cx="85.5337142944336" cy="4.465842247009277" r="0.40" fill="#aaaaaa"/>
<circle cx="88.46154022216797" cy="5.120704650878906" r="0.40" fill="#aaaaaa"/>
<circle cx="91.3215560913086" cy="6.0946044921875" r="0.40" fill="#aaaaaa"/>
<circle cx="94.90192413330078" cy="7.115005970001221" r="0.40" fill="#aaaaaa"/>
<circle cx="99.3873519897461" cy="8.008376121520996" r="0.40" fill="#aaaaaa"/>
<circle cx="103.6175537109375" cy="9.228642463684082" r="0.40" fill="#aaaaaa"/>
<circle cx="106.11744689941406" cy="10.538668632507324" r="0.40" fill="#aaaaaa"/>
<circle cx="108.7633056640625" cy="12.471673011779785" r="0.40" fill="#aaaaaa"/>
<circle cx="110.68123626708984" cy="15.82796573638916" r="0.40" fill="#aaaaaa"/>
<circle cx="111.42950439453125" cy="19.249202728271484" r="0.40" fill="#aaaaaa"/>
<circle cx="111.16918182373047" cy="22.005414962768555" r="0.40" fill="#aaaaaa"/>
<circle cx="110.45793914794922" cy="24.60297966003418" r="0.40" fill="#aaaaaa"/>
<circle cx="109.51427459716797" cy="27.90756607055664" r="0.40" fill="#aaaaaa"/>
<circle cx="108.58876037597656" cy="31.216012954711914" r="0.40" fill="#aaaaaa"/>
<circle cx="107.85462951660156" cy="34.273033142089844" r="0.40" fill="#aaaaaa"/>
<circle cx="106.89546966552734" cy="37.13618850708008" r="0.40" fill="#aaaaaa"/>
<circle cx="106.40030670166016" cy="40.09795379638672" r="0.40" fill="#aaaaaa"/>
<circle cx="105.93058776855469" cy="43.35723114013672" r="0.40" fill="#aaaaaa"/>
<circle cx="105.08550262451172" cy="46.682769775390625" r="0.40" fill="#aaaaaa"/>
<circle cx="104.415283203125" cy="49.8994255065918" r="0.40" fill="#aaaaaa"/>
<circle cx="103.80802917480469" cy="53.27552032470703" r="0.40" fill="#aaaaaa"/>
<circle cx="103.08380126953125" cy="56.626747131347656" r="0.40" fill="#aaaaaa"/>
<circle cx="102.19795989990234" cy="59.65153121948242" r="0.40" fill="#aaaaaa"/>
<circle cx="101.78511810302734" cy="62.77684783935547" r="0.40" fill="#aaaaaa"/>
<circle cx="101.32341766357422" cy="66.18388366699219" r="0.40" fill="#aaaaaa"/>
<circle cx="100.85480499267578" cy="69.15323638916016" r="0.40" fill="#aaaaaa"/>
<circle cx="99.83739471435547" cy="71.72087097167969" r="0.40" fill="#aaaaaa"/>
<circle cx="97.37203216552734" cy="74.32878875732422" r="0.40" fill="#aaaaaa"/>
<circle cx="93.87005615234375" cy="76.78327941894531" r="0.40" fill="#aaaaaa"/>
<circle cx="90.55426025390625" cy="77.73702239990234" r="0.40" fill="#aaaaaa"/>
<circle cx="87.93708038330078" cy="77.39515686035156" r="0.40" fill="#aaaaaa"/>
<circle cx="85.53489685058594" cy="76.60626220703125" r="0.40" fill="#aaaaaa"/>
<circle cx="82.6080322265625" cy="75.9468994140625" r="0.40" fill="#aaaaaa"/>
<circle cx="79.44347381591797" cy="75.03160095214844" r="0.40" fill="#aaaaaa"/>
<circle cx="76.10118103027344" cy="74.26533508300781" r="0.40" fill="#aaaaaa"/>
<circle cx="72.8554916381836" cy="73.73162841796875" r="0.40" fill="#aaaaaa"/>
<circle cx="69.90835571289062" cy="73.16765594482422" r="0.40" fill="#aaaaaa"/>
<circle cx="66.92254638671875" cy="72.78556060791016" r="0.40" fill="#aaaaaa"/>
<circle cx="63.997154235839844" cy="72.11927032470703" r="0.40" fill="#aaaaaa"/>
<circle cx="60.60324478149414" cy="71.59583282470703" r="0.40" fill="#aaaaaa"/>
<circle cx="57.337646484375" cy="70.46873474121094" r="0.40" fill="#aaaaaa"/>
<circle cx="54.26158905029297" cy="69.82412719726562" r="0.40" fill="#aaaaaa"/>
<circle cx="50.91155242919922" cy="69.09431457519531" r="0.40" fill="#aaaaaa"/>
<circle cx="47.52779006958008" cy="68.52313232421875" r="0.40" fill="#aaaaaa"/>
<circle cx="44.52216720581055" cy="67.54718780517578" r="0.40" fill="#aaaaaa"/>
<circle cx="41.37977981567383" cy="67.21463012695312" r="0.40" fill="#aaaaaa"/>
<circle cx="37.753318786621094" cy="66.41106414794922" r="0.40" fill="#aaaaaa"/>
<circle cx="33.989994049072266" cy="65.56427764892578" r="0.40" fill="#aaaaaa"/>
<circle cx="30.485645294189453" cy="64.87332916259766" r="0.40" fill="#aaaaaa"/>
<circle cx="27.056976318359375" cy="64.51342010498047" r="0.40" fill="#aaaaaa"/>
<circle cx="23.71377944946289" cy="63.75140380859375" r="0.40" fill="#aaaaaa"/>
<circle cx="20.39371681213379" cy="62.88056564331055" r="0.40" fill="#aaaaaa"/>
<circle cx="17.064977645874023" cy="62.0505256652832" r="0.40" fill="#aaaaaa"/>
<circle cx="14.19603443145752" cy="61.11864471435547" r="0.40" fill="#aaaaaa"/>
<circle cx="11.550528526306152" cy="60.52288055419922" r="0.40" fill="#aaaaaa"/>
<circle cx="9.054618835449219" cy="59.96746826171875" r="0.40" fill="#aaaaaa"/>
<circle cx="6.7271270751953125" cy="58.7293701171875" r="0.40" fill="#aaaaaa"/>
<circle cx="4.830169677734375" cy="56.65922164916992" r="0.40" fill="#aaaaaa"/>
<circle cx="3.347588062286377" cy="54.135009765625" r="0.40" fill="#aaaaaa"/>
<circle cx="2.5101237297058105" cy="51.37287139892578" r="0.40" fill="#aaaaaa"/>
<circle cx="2.370222330093384" cy="48.968231201171875" r="0.40" fill="#aaaaaa"/>
<circle cx="3.0154407024383545" cy="46.16204833984375" r="0.40" fill="#aaaaaa"/>
<circle cx="3.726310968399048" cy="42.079856872558594" r="0.40" fill="#aaaaaa"/>
<circle cx="4.482538223266602" cy="38.1512336730957" r="0.40" fill="#aaaaaa"/>
<circle cx="5.2747721672058105" cy="34.960506439208984" r="0.40" fill="#aaaaaa"/>
<circle cx="6.056346416473389" cy="32.05961227416992" r="0.40" fill="#aaaaaa"/>
<circle cx="6.449482440948486" cy="29.076156616210938" r="0.40" fill="#aaaaaa"/>
<circle cx="7.092052936553955" cy="25.12337875366211" r="0.40" fill="#aaaaaa"/>
<circle cx="8.237946510314941" cy="20.693387985229492" r="0.40" fill="#aaaaaa"/>
<circle cx="9.38795280456543" cy="16.702417373657227" r="0.40" fill="#aaaaaa"/>
<circle cx="9.812240600585938" cy="13.43348217010498" r="0.40" fill="#aaaaaa"/>
<circle cx="10.620579719543457" cy="10.538278579711914" r="0.40" fill="#aaaaaa"/>
<circle cx="11.25292682647705" cy="7.605666160583496" r="0.40" fill="#aaaaaa"/>
<circle cx="11.944722175598145" cy="4.685690402984619" r="0.40" fill="#aaaaaa"/>
<circle cx="12.408345222473145" cy="1.8660098314285278" r="0.40" fill="#aaaaaa"/>
<circle cx="12.931784629821777" cy="-0.6520815491676331" r="0.40" fill="#aaaaaa"/>
<circle cx="14.182479858398438" cy="-3.0499370098114014" r="0.40" fill="#aaaaaa"/>
<circle cx="16.41659927368164" cy="-5.537232875823975" r="0.40" fill="#aaaaaa"/>
<circle cx="19.22163963317871" cy="-7.390690803527832" r="0.40" fill="#aaaaaa"/>
<circle cx="22.073551177978516" cy="-7.945149898529053" r="0.40" fill="#aaaaaa"/>
<circle cx="24.614137649536133" cy="-6.969949722290039" r="0.40" fill="#aaaaaa"/>
<polyline points="87.92508697509766,77.39119720458984 87.45260620117188,77.23523712158203 86.95521545410156,77.07833099365234 86.47603607177734,76.93904876708984 86.05005645751953,76.79344940185547 85.58399963378906,76.62409973144531 85.08014678955078,76.46074676513672 84.53923034667969,76.29082489013672 84.05284881591797,76.17513275146484 83.46377563476562,76.05132293701172 82.96985626220703,75.99105072021484 82.6080322265625,75.9468994140625 82.26935577392578,75.79281616210938 81.82396697998047,75.59017944335938 81.23714447021484,75.38436126708984 80.76206970214844,75.23445129394531 80.07597351074219,75.11260986328125 79.58214569091797,75.04936218261719 79.16163635253906,74.97518920898438 78.6714859008789,74.8770751953125 78.19339752197266,74.7797622680664 77.70436096191406,74.67574310302734 77.21533203125,74.57173156738281 76.79010772705078,74.45519256591797 76.30865478515625,74.32251739501953 75.73993682861328,74.1962661743164 75.24906921386719,74.10240936279297 74.77445983886719,74.00830078125 74.28496551513672,73.9066390991211 73.67814636230469,73.80261993408203 73.1844482421875,73.76001739501953 72.8554916381836,73.73162841796875 72.48413848876953,73.57997131347656 71.65524291992188,73.34415435791016 71.16596984863281,73.3379135131836 70.8018569946289,73.31867218017578 70.30953216552734,73.23546600341797 69.78629302978516,73.15206909179688 69.2924575805664,73.08901977539062 68.91302490234375,73.04058074951172 68.4437484741211,72.89132690429688 67.7045669555664,72.748046875 67.22295379638672,72.77114868164062 66.85480499267578,72.77243041992188 66.36414337158203,72.67730712890625 65.81712341308594,72.5867919921875 65.32402801513672,72.55320739746094 64.93292236328125,72.52657318115234 64.4840087890625,72.3311767578125 63.87456130981445,72.1092758178711 63.3809928894043,72.06904602050781 62.88742446899414,72.02881622314453 62.48868179321289,71.90736389160156 62.015933990478516,71.75200653076172 61.42007827758789,71.64607238769531 60.927276611328125,71.61576080322266 60.52882766723633,71.56492614746094 60.07402801513672,71.37602233886719 59.619224548339844,71.1871109008789 59.06595993041992,71.03913879394531 58.57969284057617,70.9229736328125 58.16973114013672,70.78887176513672 57.70813751220703,70.61127471923828 57.127315521240234,70.42794036865234 56.636661529541016,70.33277130126953 56.21551513671875,70.25108337402344 55.75348663330078,70.09700775146484 55.129154205322266,69.91841125488281 54.63517761230469,69.86473083496094 54.22564697265625,69.81509399414062 53.740901947021484,69.69324493408203 53.25615692138672,69.57139587402344 52.65660095214844,69.50711822509766 52.163169860839844,69.4690933227539 51.794734954833984,69.38761138916016 51.3226203918457,69.23082733154297 50.71964645385742,69.0744400024414 50.225685119628906,69.0232925415039 49.76831817626953,68.9759292602539 49.288761138916016,68.8761215209961 48.7993049621582,68.77425384521484 48.304100036621094,68.67534637451172 47.81361389160156,68.57917785644531 47.33980178833008,68.47888946533203 46.85313034057617,68.36434936523438 46.41506576538086,68.2612533569336 45.94970703125,68.09184265136719 45.48379135131836,67.9222183227539 45.03530502319336,67.74755859375 44.42164611816406,67.53207397460938 43.92844009399414,67.45793914794922 43.38180923461914,67.3884506225586 42.88882064819336,67.35613250732422 42.413578033447266,67.3208999633789 41.91962814331055,67.27012634277344 41.42567443847656,67.21934509277344 40.984291076660156,67.11956024169922 40.49820327758789,67.00270080566406 39.978946685791016,66.90238952636719 39.485958099365234,66.8256607055664 38.995845794677734,66.74938201904297 38.541500091552734,66.62567138671875 38.0595703125,66.49445343017578 37.56755447387695,66.36569213867188 37.08191680908203,66.2470932006836 36.596290588378906,66.12848663330078 36.04631423950195,66.06897735595703 35.55276870727539,66.0291519165039 35.113609313964844,65.96656799316406 34.646480560302734,65.79932403564453 34.179351806640625,65.63207244873047 33.63772201538086,65.50377655029297 33.145545959472656,65.41925811767578 32.647518157958984,65.3379135131836 32.15439224243164,65.2628173828125 31.6612548828125,65.1877212524414 31.200809478759766,65.06993103027344 30.719255447387695,64.93755340576172 30.16507911682129,64.87520599365234 29.677780151367188,64.8780517578125 29.188228607177734,64.86705017089844 28.69428253173828,64.81623077392578 28.200326919555664,64.7654037475586 27.695987701416016,64.65613555908203 27.2080078125,64.54714965820312 26.73686408996582,64.49027252197266 26.243595123291016,64.45459747314453 25.66700553894043,64.32243347167969 25.220502853393555,64.12133026123047 24.785463333129883,63.94032287597656 24.293567657470703,63.85361099243164 23.801664352416992,63.76689529418945 23.307174682617188,63.63338088989258 22.827932357788086,63.49427032470703 22.347333908081055,63.36831283569336 21.861120223999023,63.2519416809082 21.374887466430664,63.13325881958008 20.890941619873047,63.00862121582031 20.40699005126953,62.88398361206055 19.92560386657715,62.75114059448242 19.444278717041016,62.618064880371094 18.963619232177734,62.4837532043457 18.482933044433594,62.34877014160156 17.988502502441406,62.2276496887207 17.497676849365234,62.133514404296875 17.03044891357422,62.034732818603516 16.585647583007812,61.83130645751953 16.044471740722656,61.61539840698242 15.550538063049316,61.56535720825195 15.112692832946777,61.51447677612305 14.661727905273438,61.319740295410156 14.102807998657227,61.10841751098633 13.608834266662598,61.05421829223633 13.165359497070312,60.9991455078125 12.689773559570312,60.85048294067383 12.202258110046387,60.70414733886719 11.721174240112305,60.570343017578125 11.203126907348633,60.45693588256836 10.715313911437988,60.36427688598633 10.22510814666748,60.26649475097656 9.760951042175293,60.1634407043457 9.760951042175293,60.1634407043457 9.2793607711792,60.029823303222656 8.880426406860352,59.879058837890625 8.4381685256958,59.65459060668945 8.032723426818848,59.422550201416016 7.57066535949707,59.15305709838867 7.124111175537109,58.92876434326172 6.7271270751953125,58.7293701171875 6.4477434158325195,58.4547119140625 6.094257354736328,58.107200622558594 5.720427989959717,57.754459381103516 5.366780757904053,57.42255401611328 5.153650760650635,57.11937713623047 4.867952823638916,56.71296691894531 4.664847373962402,56.36050033569336 4.424478530883789,55.92617416381836 3.9633700847625732,55.37403869628906 3.6666743755340576,55.05514907836914 3.588080406188965,54.82851028442383 3.424989938735962,54.358211517333984 3.2345194816589355,53.85337448120117 3.0485472679138184,53.3901481628418 2.8737690448760986,52.9412727355957 2.698625087738037,52.47777557373047 2.605717182159424,52.1510009765625 2.5447585582733154,51.6547966003418 2.391725540161133,51.04483413696289 2.2306907176971436,50.59866714477539 2.172278881072998,50.19251251220703 2.1140096187591553,49.77703094482422 2.2546253204345703,49.3331413269043 2.3726680278778076,48.75239562988281 2.374999761581421,48.54662322998047 2.374999761581421,48.54662322998047 2.380542516708374,48.057491302490234 2.5057764053344727,47.63117218017578 2.6614065170288086,47.158538818359375 2.8242578506469727,46.696617126464844 2.9913511276245117,46.22940444946289 3.0629608631134033,45.6445426940918 3.108304977416992,45.150733947753906 3.1762163639068604,44.68728256225586 3.2869009971618652,44.19969177246094 3.397585391998291,43.712100982666016 3.5021026134490967,43.2169075012207 3.598801612854004,42.72650909423828 3.6954996585845947,42.236114501953125 3.763228416442871,41.72686767578125 3.8148891925811768,41.232906341552734 3.8665502071380615,40.73894500732422 4.001489639282227,40.26539611816406 4.155767917633057,39.79217529296875 4.297323226928711,39.29341506958008 4.377216815948486,38.80072784423828 4.457111358642578,38.30803680419922 4.532593727111816,37.81410598754883 4.6058349609375,37.32082748413086 4.694467544555664,36.82475662231445 4.890353679656982,36.37457275390625 5.089478015899658,35.88833236694336 5.18737268447876,35.39814376831055 5.286259174346924,34.91708755493164 5.414044380187988,34.434078216552734 5.536523818969727,33.97972869873047 5.734617710113525,33.53108215332031 5.953400611877441,32.97046661376953 6.009230613708496,32.47649002075195 6.066893100738525,32.01422882080078 6.180064678192139,31.5272216796875 6.293471336364746,31.027307510375977 6.384264945983887,30.535974502563477 6.4629926681518555,29.997779846191406 6.455864429473877,29.51152229309082 6.460390090942383,29.02579689025879 6.5662312507629395,28.537134170532227 6.6720709800720215,28.048477172851562 6.754096984863281,27.556520462036133 6.830844879150391,27.06352996826172 6.907593250274658,26.570541381835938 6.970661163330078,26.07947540283203 7.03336238861084,25.585630416870117 7.109424591064453,25.06052589416504 7.242457866668701,24.579185485839844 7.375490188598633,24.097848892211914 7.51268196105957,23.61385726928711 7.6571526527404785,23.136615753173828 7.801623344421387,22.659372329711914 7.940143585205078,22.184894561767578 8.038018226623535,21.694700241088867 8.135892868041992,21.20450782775879 8.233768463134766,20.714313507080078 8.367162704467773,20.227060317993164 8.500508308410645,19.745826721191406 8.633854866027832,19.26459503173828 8.787087440490723,18.791112899780273 8.944782257080078,18.319408416748047 9.102477073669434,17.847705841064453 9.227832794189453,17.35179901123047 9.347505569458008,16.866455078125 9.441814422607422,16.361722946166992 9.519737243652344,15.868841171264648 9.610904693603516,15.385971069335938 9.726569175720215,14.899576187133789 9.829752922058105,14.384577751159668 9.820808410644531,13.898797988891602 9.830195426940918,13.374626159667969 9.975665092468262,12.897767066955566 10.117727279663086,12.422618865966797 10.238146781921387,11.937482833862305 10.36049747467041,11.451955795288086 10.497161865234375,10.971847534179688 10.632868766784668,10.490652084350586 10.757720947265625,10.006769180297852 10.884202003479004,9.527766227722168 11.039266586303711,9.054884910583496 11.18897819519043,8.541210174560547 11.222683906555176,8.048105239868164 11.27021598815918,7.560145854949951 11.44593620300293,7.097499847412109 11.622852325439453,6.612271308898926 11.732217788696289,6.124375343322754 11.838271141052246,5.619740009307861 11.894567489624023,5.125771522521973 11.947281837463379,4.62890100479126 11.96945571899414,4.137022972106934 12.00411319732666,3.6193301677703857 12.127957344055176,3.1351542472839355 12.248156547546387,2.655285358428955 12.347588539123535,2.1653685569763184 12.457854270935059,1.672016978263855 12.581439018249512,1.1877663135528564 12.654682159423828,0.710270881652832 12.705744743347168,0.21631288528442383 12.83527946472168,-0.2976863980293274 12.83527946472168,-0.2976863980293274 12.984949111938477,-0.7904559969902039 13.163778305053711,-1.2559082508087158 13.381551742553711,-1.7168152332305908 13.621066093444824,-2.1522088050842285 13.882779121398926,-2.5746498107910156 14.148829460144043,-2.9965710639953613 14.383893966674805,-3.444598913192749 14.609455108642578,-3.886575937271118 14.918325424194336,-4.282841682434082 15.273822784423828,-4.630740165710449 15.637371063232422,-4.954908847808838 16.034339904785156,-5.251567840576172 16.42462921142578,-5.542564392089844 16.83941650390625,-5.817991733551025 17.255605697631836,-6.094348907470703 17.67258071899414,-6.361246109008789 18.093618392944336,-6.630029201507568 18.513343811035156,-6.908474445343018 18.920574188232422,-7.1857218742370605 19.332748413085938,-7.438549041748047 19.79041290283203,-7.635682106018066 20.271390914916992,-7.8102569580078125 20.764875411987305,-7.8646697998046875 21.258066177368164,-7.914128303527832 21.755708694458008,-7.933058738708496 22.267663955688477,-7.997039794921875 22.701690673828125,-8.160218238830566 23.262895584106445,-8.075141906738281 23.579967498779297,-7.815805435180664 24.593111038208008,-7.034695625305176 24.795846939086914,-7.049094200134277 24.997045516967773,-7.06338357925415 24.997045516967773,-7.06338357925415 25.474849700927734,-7.097317695617676 25.952646255493164,-7.131251335144043 26.430450439453125,-7.165185451507568 26.908246994018555,-7.1991190910339355 27.358837127685547,-7.159796237945557 27.823373794555664,-7.046078681945801 28.35318374633789,-6.899209499359131 28.844026565551758,-6.884171962738037 29.33485984802246,-6.869134426116943 29.825557708740234,-6.752270221710205 30.309473037719727,-6.62752628326416 30.796947479248047,-6.587666988372803 31.282878875732422,-6.596035957336426 31.793777465820312,-6.593221187591553 32.286869049072266,-6.559650421142578 32.848270416259766,-6.489441394805908 33.334049224853516,-6.371399402618408 33.81285858154297,-6.255759239196777 34.300811767578125,-6.146655082702637 34.788761138916016,-6.037552356719971 35.22103500366211,-5.9695234298706055 35.71431350708008,-5.93360710144043 36.207603454589844,-5.8976898193359375 36.8251838684082,-5.720446586608887 37.29627990722656,-5.561413288116455 37.70075225830078,-5.427026271820068 38.19331741333008,-5.3459882736206055 38.685890197753906,-5.264949321746826 39.25352096557617,-5.145352363586426 39.72517395019531,-4.987530708312988 40.196815490722656,-4.829711437225342 40.645538330078125,-4.695352077484131 41.13068771362305,-4.5749711990356445 41.6158447265625,-4.454588413238525 42.1126594543457,-4.317800998687744 42.59040832519531,-4.174656867980957 43.06815719604492,-4.031511306762695 43.533939361572266,-3.94023060798645 44.02476119995117,-3.846069574356079 44.53749465942383,-3.705008029937744 45.01149368286133,-3.5525355339050293 45.45261001586914,-3.4470365047454834 45.94612503051758,-3.4077248573303223 46.48296356201172,-3.3389906883239746 46.97047424316406,-3.2279744148254395 47.45372009277344,-3.1207847595214844 47.94290542602539,-3.0175528526306152 48.45008850097656,-2.8970131874084473 48.930519104003906,-2.761279582977295 49.411590576171875,-2.624701499938965 49.8914794921875,-2.4874093532562256 50.347694396972656,-2.379857063293457 50.84122085571289,-2.310225248336792 51.32366943359375,-2.242156505584717 51.80209732055664,-2.2149722576141357 52.29465866088867,-2.1869852542877197 52.855369567871094,-2.099745750427246 53.34523010253906,-2.0000016689300537 53.88205337524414,-1.8563101291656494 54.35551452636719,-1.7025831937789917 54.76245880126953,-1.5841166973114014 55.25618362426758,-1.5181939601898193 55.74989700317383,-1.4522722959518433 56.28672790527344,-1.3328574895858765 56.773162841796875,-1.2173829078674316 57.22018814086914,-1.1241062879562378 57.713531494140625,-1.051689624786377 58.20686721801758,-0.9792740345001221 58.764835357666016,-0.8630603551864624 59.24653625488281,-0.7311623692512512 59.77383804321289,-0.5830631852149963 60.23762512207031,-0.4094373285770416 60.701419830322266,-0.23580893874168396 61.151485443115234,-0.07977019250392914 61.6273078918457,0.06830023229122162 62.10313415527344,0.2163713574409485 62.536949157714844,0.26766401529312134 63.03019714355469,0.30306679010391235 63.5234375,0.3384690582752228 64.10034942626953,0.48596200346946716 64.57878112792969,0.6272695660591125 65.00007629394531,0.7517006993293762 65.49288940429688,0.8112819194793701 65.98681640625,0.870997965335846 66.57283782958984,1.0106295347213745 67.0401611328125,1.177487850189209 67.49359893798828,1.3323934078216553 67.97103118896484,1.4763671159744263 68.4484634399414,1.6203429698944092 68.92265319824219,1.7474288940429688 69.40535736083984,1.8761935234069824 69.85943603515625,1.9482142925262451 70.35331726074219,1.9958019256591797 70.91614532470703,2.095078945159912 71.39014434814453,2.2475388050079346 71.7982177734375,2.3434667587280273 72.28968811035156,2.362757921218872 72.86930847167969,2.4229886531829834 73.35486602783203,2.541867733001709 73.79350280761719,2.6329832077026367 74.28738403320312,2.6942362785339355 74.79594421386719,2.761373996734619 75.28905487060547,2.836737632751465 75.69707489013672,2.8917183876037598 76.1861801147461,2.897139310836792 76.86019897460938,2.9509592056274414 77.3453140258789,3.0715057849884033 77.722412109375,3.152449607849121 78.21634674072266,3.20223069190979 78.93417358398438,3.3610570430755615 79.3942642211914,3.541280746459961 79.73255157470703,3.6426172256469727 80.22376251220703,3.734203815460205 80.66373443603516,3.8094284534454346 81.15767669677734,3.8677971363067627 81.5906982421875,3.9169561862945557 82.08285522460938,3.9414196014404297 82.75225067138672,4.0057220458984375 83.24028015136719,4.114454746246338 83.63512420654297,4.194377899169922 84.1289291381836,4.25820255279541 84.65213775634766,4.328672409057617 85.14513397216797,4.405380725860596 85.5337142944336,4.465842247009277 85.99432373046875,4.485764503479004 86.80152130126953,4.581628799438477 87.28195190429688,4.717347621917725 87.84025573730469,4.899348258972168 88.30773162841797,5.0659050941467285 88.70722961425781,5.190675735473633 89.18730926513672,5.3274006843566895 89.79295349121094,5.554776191711426 90.24335479736328,5.750334739685059 90.6065444946289,5.876410007476807 91.08338165283203,6.021922588348389 91.61592102050781,6.209864616394043 92.07603454589844,6.39002799987793 92.45520782470703,6.510687828063965 92.94073486328125,6.629690647125244 93.42819213867188,6.749326229095459 93.91334533691406,6.869707107543945 94.39849853515625,6.9900898933410645 94.88365173339844,7.110472679138184 95.34969329833984,7.20978307723999 95.83882904052734,7.313314914703369 96.32795715332031,7.416845321655273 96.85795593261719,7.561274528503418 97.33744812011719,7.699697017669678 97.81693267822266,7.8381171226501465 98.19393920898438,7.899392604827881 98.68773651123047,7.944486618041992 99.1815414428711,7.98958158493042 99.78892517089844,8.109610557556152 100.2735824584961,8.231789588928223 100.75823211669922,8.35396671295166 101.25221252441406,8.486751556396484 101.73457336425781,8.616626739501953 102.21692657470703,8.746500015258789 102.73295593261719,8.921802520751953 103.2022705078125,9.0845947265625 103.2022705078125,9.0845947265625 103.69369506835938,9.258951187133789 104.15652465820312,9.443181037902832 104.66036987304688,9.661084175109863 105.0998306274414,9.894644737243652 105.55974578857422,10.167777061462402 105.9742660522461,10.443449974060059 106.38542938232422,10.695539474487305 106.81598663330078,10.947574615478516 107.26839447021484,11.230396270751953 107.672607421875,11.52249813079834 108.1196060180664,11.859298706054688 108.48158264160156,12.203661918640137 108.88853454589844,12.66550064086914 109.15841674804688,13.083209037780762 109.42937469482422,13.502581596374512 109.68711853027344,13.965763092041016 109.9254150390625,14.405004501342773 110.1641616821289,14.848878860473633 110.39722442626953,15.290186882019043 110.62932586669922,15.729667663574219 110.84566497802734,16.226917266845703 111.03492736816406,16.686134338378906 111.19273376464844,17.31950569152832 111.25041198730469,17.81521224975586 111.30957794189453,18.30595588684082 111.37255859375,18.80128288269043 111.4356689453125,19.312389373779297 111.48382568359375,19.80621910095215 111.51215362548828,20.510089874267578 111.4171371459961,20.999773025512695 111.2930679321289,21.52775764465332 111.24043273925781,21.730688095092773 111.24043273925781,21.730688095092773 111.0679702758789,22.272226333618164 110.89242553710938,22.73497200012207 110.77429962158203,23.160490036010742 110.6528091430664,23.622060775756836 110.5571060180664,24.10379409790039 110.4264144897461,24.682893753051758 110.24517059326172,25.142385482788086 110.06392669677734,25.60187530517578 109.93392181396484,26.04253578186035 109.8022689819336,26.524320602416992 109.69182586669922,26.987991333007812 109.59707641601562,27.478713989257812 109.5046157836914,27.963336944580078 109.41938018798828,28.455425262451172 109.33415222167969,28.947513580322266 109.17709350585938,29.47597312927246 109.02464294433594,29.949979782104492 108.86324310302734,30.42725944519043 108.69999694824219,30.896366119384766 108.5520248413086,31.35822105407715 108.4270248413086,31.842065811157227 108.30195617675781,32.32614517211914 108.17591094970703,32.80967712402344 108.05010986328125,33.29224395751953 107.95307922363281,33.7790641784668 107.85095977783203,34.28327941894531 107.68357849121094,34.750343322753906 107.51619720458984,35.217403411865234 107.33037567138672,35.67284393310547 107.14391326904297,36.12917709350586 107.01456451416016,36.64196014404297 106.8940658569336,37.16840362548828 106.87261962890625,37.66018295288086 106.85130310058594,38.14913558959961 106.72454071044922,38.6278190612793 106.59663391113281,39.11079406738281 106.498046875,39.6054801940918 106.40074157714844,40.09577178955078 106.31214141845703,40.58830261230469 106.2237319946289,41.07997512817383 106.11975860595703,41.56879806518555 106.0156478881836,42.05781173706055 105.96884155273438,42.548152923583984 105.9455795288086,43.04016876220703 105.91604614257812,43.53940200805664 105.87665557861328,44.032920837402344 105.7975845336914,44.618473052978516 105.62654876708984,45.08365249633789 105.45552062988281,45.548828125 105.30278015136719,46.013729095458984 105.1490249633789,46.487178802490234 105.03284454345703,46.95797348022461 104.93891143798828,47.448829650878906 104.82418060302734,47.951148986816406 104.67276763916016,48.42559051513672 104.52146911621094,48.899658203125 104.46977233886719,49.38639831542969 104.41730499267578,49.880367279052734 104.30416870117188,50.38576889038086 104.19279479980469,50.873207092285156 104.10785675048828,51.354347229003906 104.03137969970703,51.84736633300781 103.95453643798828,52.340694427490234 103.87728118896484,52.833641052246094 103.79740142822266,53.33375549316406 103.70769500732422,53.82524490356445 103.61798095703125,54.31673812866211 103.49210357666016,54.8260498046875 103.36642456054688,55.309696197509766 103.25833892822266,55.781917572021484 103.15718841552734,56.271514892578125 103.05208587646484,56.766597747802734 102.94149780273438,57.254215240478516 102.81451416015625,57.7842903137207 102.6369857788086,58.24592208862305 102.46575927734375,58.69292449951172 102.33141326904297,59.173824310302734 102.19795989990234,59.65153121948242 102.10101318359375,60.13642120361328 102.00300598144531,60.62659454345703 101.92935180664062,61.11322021484375 101.85498809814453,61.606414794921875 101.82582092285156,62.08002853393555 101.79704284667969,62.57267761230469 101.73783111572266,63.100093841552734 101.6656494140625,63.59345245361328 101.5859603881836,64.09991455078125 101.49949645996094,64.59184265136719 101.42133331298828,65.03681182861328 101.37919616699219,65.53047943115234 101.33705139160156,66.02415466308594 101.29121398925781,66.52427673339844 101.24449920654297,67.01813507080078 101.18759155273438,67.53178405761719 101.12876892089844,68.02572631835938 100.99177551269531,68.6379623413086 100.8634262084961,69.12079620361328 100.75981140136719,69.5753173828125 100.57505798339844,70.21134185791016 100.37863159179688,70.6611557006836 100.37863159179688,70.6611557006836 100.1390380859375,71.14411926269531 99.91140747070312,71.57935333251953 99.60320281982422,72.04624938964844 99.31888580322266,72.4412612915039 98.94606018066406,72.81661987304688 98.59782409667969,73.13566589355469 98.24250030517578,73.4667739868164 97.89407348632812,73.81181335449219 97.54251098632812,74.15996551513672 97.19107818603516,74.49939727783203 96.82820892333984,74.84151458740234 96.46450805664062,75.18441009521484 96.12696075439453,75.42866516113281 95.70801544189453,75.69607543945312 95.28727722167969,75.96463775634766 94.88232421875,76.2066421508789 94.44793701171875,76.45409393310547 94.01392364501953,76.70132446289062 93.66072845458984,76.84952545166016 93.18529510498047,76.9999771118164 92.70874786376953,77.15078735351562 92.25952911376953,77.26956939697266 91.77505493164062,77.39252471923828 91.27373504638672,77.5265121459961 90.79994201660156,77.6651382446289 90.43939971923828,77.73637390136719 89.939697265625,77.73355102539062 89.53973388671875,77.72285461425781 89.05821990966797,77.61170196533203 88.54398345947266,77.50436401367188 88.05194091796875,77.41582489013672 87.92508697509766,77.39119720458984" fill="none" stroke="#dd3333" stroke-width="0.80"/>
</g>
</svg>
