<svg xmlns="http://www.w3.org/2000/svg" width="400" height="322" viewBox="-10.00 -88.33 130.83 107.40">
<rect x="-10.00" y="-88.33" width="130.83" height="107.40" fill="white"/>
<g transform="scale(1,-1)">
<polyline points="10,0 10.5,0 11,0 11.5,0 12,0 12.5,0 13,0 13.5,0 14,0 14.5,0 15,0 15.5,0 16,0 16.5,0 17,0 17.5,0 18,0 18.5,0 19,0 19.5,0 20,0 20.5,0 21,0 21.5,0 22,0 22.5,0 23,0 23.5,0 24,0 24.5,0 25,0 25.5,0 26,0 26.5,0 27,0 27.5,0 28,0 28.5,0 29,0 29.5,0 30,0 30.5,0 31,0 31.5,0 32,0 32.5,0 33,0 33.5,0 34,0 34.5,0 35,0 35.5,0 36,0 36.5,0 37,0 37.5,0 38,0 38.5,0 39,0 39.5,0 40,0 40.5,0 41,0 41.5,0 42,0 42.5,0 43,0 43.5,0 44,0 44.5,0 45,0 45.5,0 46,0 46.5,0 47,0 47.5,0 48,0 48.5,0 49,0 49.5,0 50,0 50.5,0 51,0 51.5,0 52,0 52.5,0 53,0 53.5,0 54,0 54.5,0 55,0 55.5,0 56,0 56.5,0 57,0 57.5,0 58,0 58.5,0 59,0 59.5,0 60,0 60.5,0 61,0 61.5,0 62,0 62.5,0 63,0 63.5,0 64,0 64.5,0 65,0 65.5,0 66,0 66.5,0 67,0 67.5,0 68,0 68.5,0 69,0 69.5,0 70,0 70.5,0 71,0 71.5,0 72,0 72.5,0 73,0 73.5,0 74,0 74.5,0 75,0 75.5,0 76,0 76.5,0 77,0 77.5,0 78,0 78.5,0 79,0 79.5,0 80,0 80.5,0 81,0 81.5,0 82,0 82.5,0 83,0 83.5,0 84,0 84.5,0 85,0 85.5,0 86,0 86.5,0 87,0 87.5,0 88,0 88.5,0 89,0 89.5,0 90,0 90,0 90.49978637695312,0.012658422812819481 90.99834442138672,0.04981675371527672 91.49445343017578,0.1115112155675888 91.98690795898438,0.19767367839813232 92.47434997558594,0.30876925587654114 92.95549011230469,0.44454866647720337 93.42930603027344,0.6040206551551819 93.89463806152344,0.7868010997772217 94.34980010986328,0.9936206340789795 94.79420471191406,1.2226026058197021 95.22684478759766,1.4731366634368896 95.64592742919922,1.7457432746887207 96.0511245727539,2.0385706424713135 96.44158172607422,2.3508031368255615 96.81537628173828,2.682799816131592 97.17256164550781,3.0325934886932373 97.51224517822266,3.399414539337158 97.83258056640625,3.783247232437134 98.13384246826172,4.182217597961426 98.41511535644531,4.595527172088623 98.67469787597656,5.022795677185059 98.91301727294922,5.462271213531494 99.12935638427734,5.912982940673828 99.32190704345703,6.374354839324951 99.49142456054688,6.844671726226807 99.63740539550781,7.322822093963623 99.75860595703125,7.807847023010254 99.85518646240234,8.298365592956543 99.9273452758789,8.793061256408691 99.97498321533203,9.290724754333496 99.99763488769531,9.790157318115234 100,10 100,10 100,10.5 100,11 100,11.5 100,12 100,12.5 100,13 100,13.5 100,14 100,14.5 100,15 100,15.5 100,16 100,16.5 100,17 100,17.5 100,18 100,18.5 100,19 100,19.5 100,20 100,20.5 100,21 100,21.5 100,22 100,22.5 100,23 100,23.5 100,24 100,24.5 100,25 100,25.5 100,26 100,26.5 100,27 100,27.5 100,28 100,28.5 100,29 100,29.5 100,30 100,30.5 100,31 100,31.5 100,32 100,32.5 100,33 100,33.5 100,34 100,34.5 100,35 100,35.5 100,36 100,36.5 100,37 100,37.5 100,38 100,38.5 100,39 100,39.5 100,40 100,40.5 100,41 100,41.5 100,42 100,42.5 100,43 100,43.5 100,44 100,44.5 100,45 100,45.5 100,46 100,46.5 100,47 100,47.5 100,48 100,48.5 100,49 100,49.5 100,50 100,50.5 100,51 100,51.5 100,52 100,52.5 100,53 100,53.5 100,54 100,54.5 100,55 100,55.5 100,56 100,56.5 100,57 100,57.5 100,58 100,58.5 100,59 100,59.5 100,60 100,60 99.98733520507812,60.49979019165039 99.95018005371094,60.99834060668945 99.88848876953125,61.49445343017578 99.80233001708984,61.986907958984375 99.69122314453125,62.47434616088867 99.55545043945312,62.95549392700195 99.39598846435547,63.4293098449707 99.21319580078125,63.89463806152344 99.00637817382812,64.34980010986328 98.77739715576172,64.79420471191406 98.52687072753906,65.22684478759766 98.25425720214844,65.64592742919922 97.96143341064453,66.0511245727539 97.64920806884766,66.44158935546875 97.31719970703125,66.81537628173828 96.9674072265625,67.17256164550781 96.60059356689453,67.51224517822266 96.21675109863281,67.83257293701172 95.81778717041016,68.13384246826172 95.40447235107422,68.41511535644531 94.97721099853516,68.6747055053711 94.53772735595703,68.91301727294922 94.08702087402344,69.12935638427734 93.62564849853516,69.32190704345703 93.15532684326172,69.49141693115234 92.67717742919922,69.63739776611328 92.19215393066406,69.75860595703125 91.7016372680664,69.85517883300781 91.20693969726562,69.92735290527344 90.70927429199219,69.97498321533203 90.20984649658203,69.99763488769531 90,70 90,70 89.5,70 89,70 88.5,70 88,70 87.5,70 87,70 86.5,70 86,70 85.5,70 85,70 84.5,70 84,70 83.5,70 83,70 82.5,70 82,70 81.5,70 81,70 80.5,70 80,70 79.5,70 79,70 78.5,70 78,70 77.5,70 77,70 76.5,70 76,70 75.5,70 75,70 74.5,70 74,70 73.5,70 73,70 72.5,70 72,70 71.5,70 71,70 70.5,70 70,70 69.5,70 69,70 68.5,70 68,70 67.5,70 67,70 66.5,70 66,70 65.5,70 65,70 64.5,70 64,70 63.5,70 63,70 62.5,70 62,70 61.5,70 61,70 60.5,70 60,70 59.5,70 59,70 58.5,70 58,70 57.5,70 57,70 56.5,70 56,70 55.5,70 55,70 54.5,70 54,70 53.5,70 53,70 52.5,70 52,70 51.5,70 51,70 50.5,70 50,70 49.5,70 49,70 48.5,70 48,70 47.5,70 47,70 46.5,70 46,70 45.5,70 45,70 44.5,70 44,70 43.5,70 43,70 42.5,70 42,70 41.5,70 41,70 40.5,70 40,70 39.5,70 39,70 38.5,70 38,70 37.5,70 37,70 36.5,70 36,70 35.5,70 35,70 34.5,70 34,70 33.5,70 33,70 32.5,70 32,70 31.5,70 31,70 30.5,70 30,70 29.5,70 29,70 28.5,70 28,70 27.5,70 27,70 26.5,70 26,70 25.5,70 25,70 24.5,70 24,70 23.5,70 23,70 22.5,70 22,70 21.5,70 21,70 20.5,70 20,70 19.5,70 19,70 18.5,70 18,70 17.5,70 17,70 16.5,70 16,70 15.5,70 15,70 14.5,70 14,70 13.5,70 13,70 12.5,70 12,70 11.5,70 11,70 10.5,70 10,70 10,70 9.500210762023926,69.98734283447266 9.00165843963623,69.95018768310547 8.505548477172852,69.88849639892578 8.013092994689941,69.80233001708984 7.52565336227417,69.69123077392578 7.044508457183838,69.55545043945312 6.57069206237793,69.39598083496094 6.105362415313721,69.21319580078125 5.650203227996826,69.00637817382812 5.2057929039001465,68.77739715576172 4.77315616607666,68.52686309814453 4.354074001312256,68.25425720214844 3.9488747119903564,67.96142578125 3.5584230422973633,67.6491928100586 3.184626340866089,67.31719970703125 2.8274426460266113,66.9674072265625 2.4877591133117676,66.6005859375 2.167423725128174,66.21675109863281 1.8661597967147827,65.81777954101562 1.5848859548568726,65.40447235107422 1.3252990245819092,64.97720336914062 1.0869821310043335,64.53772735595703 0.8706510663032532,64.0870132446289 0.6780910491943359,63.62564468383789 0.5085854530334473,63.15532684326172 0.3625999987125397,62.67717742919922 0.24139642715454102,62.1921501159668 0.14481478929519653,61.70163345336914 0.07264875620603561,61.206939697265625 0.025012144818902016,60.70927429199219 0.0023605828173458576,60.209842681884766 0,60 0,60 0,59.5 0,59 0,58.5 0,58 0,57.5 0,57 0,56.5 0,56 0,55.5 0,55 0,54.5 0,54 0,53.5 0,53 0,52.5 0,52 0,51.5 0,51 0,50.5 0,50 0,49.5 0,49 0,48.5 0,48 0,47.5 0,47 0,46.5 0,46 0,45.5 0,45 0,44.5 0,44 0,43.5 0,43 0,42.5 0,42 0,41.5 0,41 0,40.5 0,40 0,39.5 0,39 0,38.5 0,38 0,37.5 0,37 0,36.5 0,36 0,35.5 0,35 0,34.5 0,34 0,33.5 0,33 0,32.5 0,32 0,31.5 0,31 0,30.500001907348633 0,29.999998092651367 0,29.5 0,29 0,28.5 0,28 0,27.5 0,27 0,26.5 0,26 0,25.5 0,25 0,24.5 0,24 0,23.5 0,23 0,22.5 0,22 0,21.5 0,21 0,20.5 0,20 0,19.5 0,19 0,18.5 0,18 0,17.5 0,17 0,16.5 0,16 0,15.5 0,15 0,14.5 0,14 0,13.5 0,13 0,12.5 0,12 0,11.5 0,11 0,10.5 0,10 0,10 0.012658211402595043,9.500211715698242 0.04981674998998642,9.00165843963623 0.11151176691055298,8.505549430847168 0.1976739764213562,8.013092994689941 0.3087690472602844,7.525652885437012 0.4445495009422302,7.044508457183838 0.604022741317749,6.570693492889404 0.7868029475212097,6.105361461639404 0.9936223030090332,5.650203704833984 1.2226051092147827,5.205793380737305 1.473137378692627,4.773155212402344 1.7457438707351685,4.354074954986572 2.038573741912842,3.94887638092041 2.35080623626709,3.558422088623047 2.6828017234802246,3.184627056121826 3.032595157623291,2.8274431228637695 3.3994157314300537,2.4877586364746094 3.7832484245300293,2.167422294616699 4.182218074798584,1.8661609888076782 4.595529556274414,1.5848865509033203 5.022795677185059,1.325299859046936 5.462271213531494,1.08698308467865 5.912984848022461,0.8706503510475159 6.374355792999268,0.6780915260314941 6.844675064086914,0.5085864067077637 7.322823524475098,0.3625992238521576 7.807849884033203,0.24139663577079773 8.29836654663086,0.14481498301029205 8.793061256408691,0.07264868915081024 9.290725708007812,0.02501235343515873 9.79015827178955,0.0023605620954185724 10,0" fill="none" stroke="#4466aa" stroke-width="0.80" stroke-dasharray="4,2"/>
<polyline points="24.781475067138672,-7.9208831787109375 105.42420959472656,5.549110412597656" fill="none" stroke="#33aa33" stroke-width="0.80" stroke-dasharray="6,3"/>
<path d="M105.42420959472656,5.549110412597656 C110.82637786865234,6.697376251220703 108.17359924316406,14.61456298828125 107.02532958984375,20.0167236328125" fill="none" stroke="#33aa33" stroke-width="0.80" stroke-dasharray="6,3"/>
<polyline points="107.02532958984375,20.0167236328125 100.3400650024414,69.48002624511719" fill="none" stroke="#33aa33" stroke-width="0.80" stroke-dasharray="6,3"/>
<path d="M100.3400650024414,69.48002624511719 C99.1917953491211,74.88218688964844 93.88162994384766,78.33065795898438 88.4794692993164,77.18238830566406" fill="none" stroke="#33aa33" stroke-width="0.80" stroke-dasharray="6,3"/>
<polyline points="88.4794692993164,77.18238830566406 7.478052139282227,57.53789520263672" fill="none" stroke="#33aa33" stroke-width="0.80" stroke-dasharray="6,3"/>
<path d="M7.478052139282227,57.53789520263672 C2.0758914947509766,56.389625549316406 3.5452098846435547,54.683990478515625 4.693473815917969,49.28183364868164" fill="none" stroke="#33aa33" stroke-width="0.80" stroke-dasharray="6,3"/>
<polyline points="4.693473815917969,49.28183364868164 12.920883178710938,-0.21852397918701172" fill="none" stroke="#33aa33" stroke-width="0.80" stroke-dasharray="6,3"/>
<path d="M12.920883178710938,-0.21852397918701172 C14.069147109985352,-5.6206841468811035 19.379316329956055,-9.069147109985352 24.781475067138672,-7.9208831787109375" fill="none" stroke="#33aa33" stroke-width="0.80" stroke-dasharray="6,3"/>
<polyline points="24.632213592529297,-7.027277946472168 27.106334686279297,-7.314609527587891 27.69866180419922,-7.229558944702148 28.247482299804688,-7.056967735290527 29.405454635620117,-7.07297420501709 30.52132225036621,-6.836907863616943 31.68868637084961,-6.9091410636901855 32.695594787597656,-6.885340690612793 33.814090728759766,-6.664981842041016 35.07628631591797,-6.440417289733887 36.369869232177734,-6.403730869293213 37.74734115600586,-6.0046892166137695 39.16318893432617,-5.835418224334717 40.54129409790039,-5.44018030166626 41.93826675415039,-5.157895088195801 43.18536376953125,-4.84289026260376 44.31304931640625,-4.677588939666748 45.41775894165039,-4.374727725982666 46.42273712158203,-4.339361190795898 47.403804779052734,-4.160827159881592 48.38749313354492,-3.998002290725708 49.360069274902344,-3.7686309814453125 50.332096099853516,-3.5359909534454346 51.46909713745117,-3.4264700412750244 52.622013092041016,-3.4121921062469482 53.7475700378418,-3.234116315841675 54.85175704956055,-2.9281461238861084 55.990169525146484,-2.827042818069458 57.24959945678711,-2.585862398147583 58.669532775878906,-2.44106125831604 59.92170333862305,-2.1564440727233887 61.154388427734375,-1.7551714181900024 62.399227142333984,-1.426650881767273 63.8367919921875,-1.3873698711395264 65.22338104248047,-1.0429260730743408 66.5067367553711,-0.9450460076332092 67.60539245605469,-0.6059203743934631 68.71357727050781,-0.3238990008831024 69.82786560058594,-0.07834802567958832 70.97325134277344,-0.01897253282368183 71.93987274169922,0.24600942432880402 72.9516372680664,0.24075494706630707 73.9300308227539,0.43528270721435547 74.92768096923828,0.5144703984260559 75.92066955566406,0.6216843724250793 76.9372329711914,0.5876989364624023 77.91505432128906,0.7856306433677673 78.9165267944336,0.8419656753540039 79.87273406982422,1.1693603992462158 80.86031341552734,1.3088598251342773 81.85894012451172,1.3823106288909912 82.8689193725586,1.387633204460144 83.85076904296875,1.5615465641021729 84.84757995605469,1.6458442211151123 85.84010314941406,1.7557278871536255 86.85118865966797,1.7545264959335327 87.82376861572266,1.9838639497756958 88.78520965576172,2.2799198627471924 89.75743103027344,2.5113754272460938 90.70745086669922,2.8757758140563965 91.67657470703125,3.1258203983306885 92.63279724121094,3.4530766010284424 93.75091552734375,3.6756818294525146 95.28758239746094,3.986194372177124 96.83321380615234,4.243005275726318 98.36006927490234,4.612318992614746 99.93352508544922,4.702635765075684 101.47127532958984,5.006648540496826 102.99031829833984,5.301620006561279 104.36966705322266,5.675659656524658 105.28092956542969,5.984799861907959 106.02672576904297,6.361605167388916 106.6797103881836,6.854726314544678 107.41729736328125,7.537779331207275 107.96654510498047,8.292282104492188 108.34959411621094,9.106918334960938 108.57901763916016,10.366217613220215 108.70977020263672,11.645171165466309 108.8598861694336,12.903963088989258 108.92517852783203,14.186606407165527 108.64964294433594,15.47475528717041 108.46517181396484,16.763240814208984 108.34270477294922,17.937946319580078 108.1407470703125,18.650436401367188 107.93121337890625,19.359376907348633 107.66279602050781,20.058124542236328 107.49711608886719,20.77073097229004 107.397705078125,21.49947166442871 107.0889892578125,22.338802337646484 106.89217376708984,23.308547973632812 106.76056671142578,24.44200325012207 106.65074157714844,25.57840347290039 106.38231658935547,26.693368911743164 106.08668518066406,27.804651260375977 105.88471984863281,28.928598403930664 105.705810546875,29.91175651550293 105.5846939086914,30.90272331237793 105.31671905517578,31.873842239379883 105.0042495727539,32.83894729614258 104.84376525878906,33.82459259033203 104.8759536743164,34.83627700805664 104.69322204589844,35.81892013549805 104.57291412353516,36.80999755859375 104.470458984375,37.80348587036133 104.31729888916016,38.93402862548828 104.34980773925781,40.089664459228516 104.34484100341797,41.240234375 104.02909088134766,42.34880447387695 103.75740814208984,43.46332550048828 103.62767028808594,44.5970344543457 103.36182403564453,45.71234130859375 103.33118438720703,46.715545654296875 103.16117858886719,47.84381103515625 103.07134246826172,48.982906341552734 102.979736328125,50.121768951416016 102.85968017578125,51.25678253173828 102.6561279296875,52.38051223754883 102.50978088378906,53.51198196411133 102.34159851074219,54.6404914855957 102.05030822753906,55.608455657958984 101.85408782958984,56.58927536010742 101.73237609863281,57.58016586303711 101.65799713134766,58.57744598388672 101.67765045166016,59.731346130371094 101.5976333618164,60.87177276611328 101.4849853515625,62.007789611816406 101.4736557006836,63.15750503540039 101.43629455566406,64.30369567871094 101.38256072998047,65.44767761230469 101.20716857910156,66.57521057128906 101.14720916748047,67.44426727294922 100.9543228149414,68.28517150878906 100.70540618896484,69.27241516113281 100.35273742675781,70.21074676513672 99.70447540283203,71.13423156738281 99.09088134765625,72.15052032470703 98.43525695800781,73.2098617553711 97.48030090332031,74.33379364013672 96.4952163696289,75.38550567626953 95.42765045166016,76.12566375732422 94.34075164794922,76.76649475097656 93.37415313720703,77.28545379638672 92.24732208251953,77.548095703125 91.2877426147461,77.55835723876953 90.42145538330078,77.59489440917969 89.58568572998047,77.46844482421875 88.7744140625,77.3254165649414 87.99385833740234,77.0785903930664 87.2154769897461,76.81562805175781 86.42845153808594,76.60686492919922 85.58367156982422,76.4926986694336 84.67145538330078,76.0440444946289 83.59539794921875,75.66956329345703 82.47119140625,75.4936294555664 81.36592864990234,75.23957061767578 80.26390075683594,74.9721450805664 79.17787170410156,74.63874053955078 78.07029724121094,74.3942642211914 76.96697998046875,74.13216400146484 75.97345733642578,74.018798828125 75.05162048339844,73.60982513427734 74.04035949707031,73.56959533691406 73.06615447998047,73.37657928466797 72.0823745727539,73.22303009033203 71.14134979248047,72.89315032958984 70.1150131225586,72.91507720947266 69.146484375,72.69865417480469 68.14862060546875,72.6031723022461 67.23236846923828,72.17121124267578 66.0956039428711,72.04700469970703 65.02275848388672,71.65923309326172 63.88054275512695,71.55756378173828 62.82867431640625,71.08332061767578 61.733367919921875,70.78822326660156 60.67417526245117,70.34416198730469 59.56730270385742,70.09673309326172 58.629615783691406,69.75312805175781 57.64139175415039,69.61793518066406 56.549251556396484,69.30974578857422 55.411285400390625,69.19054412841797 54.339298248291016,68.79926300048828 53.20851516723633,68.65045928955078 52.105308532714844,68.38789367675781 50.99898910522461,68.13819122314453 49.90277099609375,67.84680938720703 48.97161102294922,67.4762954711914 48.04602813720703,67.08277130126953 47.06751251220703,66.90751647949219 46.06903839111328,66.8145523071289 44.93804168701172,66.66657257080078 43.843116760253906,66.36988830566406 42.58660125732422,66.13804626464844 41.363895416259766,65.7668228149414 40.13320541381836,65.42852020263672 38.85409927368164,65.28982543945312 37.65524673461914,64.82022857666016 36.542579650878906,64.59669494628906 35.285072326660156,64.36895751953125 34.19887924194336,64.03626251220703 33.03791427612305,64.01187896728516 31.90694808959961,63.86381149291992 30.80765724182129,63.58510208129883 29.66839599609375,63.471229553222656 28.624805450439453,62.962867736816406 27.513330459594727,62.73442840576172 26.43098258972168,62.3858528137207 25.33578872680664,62.090267181396484 24.245220184326172,61.77562713623047 23.159420013427734,61.44130325317383 22.0747127532959,61.102481842041016 20.9672794342041,60.85736846923828 20.055559158325195,60.40668869018555 19.065587997436523,60.27865982055664 18.14862060546875,59.8496208190918 17.160629272460938,59.71343231201172 16.215234756469727,59.401611328125 15.261759757995605,59.12310791015625 14.28674602508545,58.93340301513672 13.305253028869629,58.77042007446289 12.325668334960938,58.599571228027344 11.371981620788574,58.321929931640625 10.412717819213867,58.06730270385742 9.563368797302246,57.96129608154297 8.767460823059082,57.647159576416016 7.947892189025879,57.444854736328125 7.1963791847229,57.12853240966797 6.465356349945068,56.731876373291016 5.633143424987793,56.477813720703125 5.1454949378967285,55.94230270385742 4.515812873840332,55.22163772583008 4.098495006561279,54.564170837402344 3.954637289047241,53.77431106567383 3.7602152824401855,52.92006301879883 3.745943307876587,51.97936248779297 4.083730220794678,51.167137145996094 4.141696453094482,50.20502853393555 4.461328983306885,49.29010772705078 4.7759294509887695,48.3742561340332 4.845236778259277,47.12750244140625 5.07167911529541,45.920040130615234 5.257368564605713,44.673484802246094 5.338979244232178,43.26218032836914 5.680970668792725,42.036643981933594 5.826594829559326,40.778465270996094 5.955222129821777,39.517459869384766 6.317512035369873,38.58026885986328 6.4666748046875,37.6076545715332 6.676566123962402,36.64513397216797 7.044384002685547,35.70885467529297 7.109821796417236,34.72232437133789 7.289780139923096,33.75482940673828 7.424746036529541,32.779850006103516 7.361227512359619,31.77188491821289 7.54994535446167,30.66335678100586 7.702816963195801,29.26389503479004 7.815829277038574,27.857812881469727 8.131241798400879,26.485368728637695 8.516066551208496,24.98197364807129 8.750402450561523,23.453563690185547 9.098383903503418,21.944046020507812 9.489039421081543,20.584110260009766 9.709846496582031,19.480915069580078 9.834813117980957,18.361787796020508 10.046269416809082,17.25704002380371 9.978852272033691,16.24842643737793 10.22586727142334,15.292073249816895 10.420605659484863,14.327033042907715 10.648991584777832,13.367584228515625 10.85283088684082,12.404054641723633 11.12053394317627,11.451141357421875 11.141640663146973,10.457240104675293 11.455635070800781,9.5120210647583 11.62787914276123,8.543241500854492 11.694244384765625,7.556863307952881 11.691925048828125,6.559069633483887 11.893692016601562,5.5951972007751465 12.047320365905762,4.623323917388916 12.23577880859375,3.6572391986846924 12.274965286254883,2.666344165802002 12.398408889770508,1.837162733078003 12.572267532348633,1.000212550163269 12.82164192199707,0.1961279660463333 13.122679710388184,-0.7472788691520691 13.340696334838867,-1.7428491115570068 13.86168098449707,-2.5693411827087402 14.510720252990723,-3.347026824951172 15.168973922729492,-4.155219554901123 15.922271728515625,-5.0448079109191895 16.642972946166992,-5.948477268218994 17.428119659423828,-6.618579387664795 18.369766235351562,-7.027590751647949 19.236557006835938,-7.323479175567627 20.136978149414062,-7.552120685577393 21.005952835083008,-7.7594733238220215 21.98893165588379,-7.9124884605407715 22.512054443359375,-7.8435187339782715 23.03528594970703,-7.687164306640625 24.904321670532227,-8.618974685668945" fill="none" stroke="#999999" stroke-width="0.3" stroke-dasharray="1,1"/>
<circle cx="24.632213592529297" cy="-7.027277946472168" r="0.40" fill="#aaaaaa"/>
<circle cx="28.247482299804688" cy="-7.056967735290527" r="0.40" fill="#aaaaaa"/>
<circle cx="31.68868637084961" cy="-6.9091410636901855" r="0.40" fill="#aaaaaa"/>
<circle cx="35.07628631591797" cy="-6.440417289733887" r="0.40" fill="#aaaaaa"/>
<circle cx="39.16318893432617" cy="-5.835418224334717" r="0.40" fill="#aaaaaa"/>
<circle cx="43.18536376953125" cy="-4.84289026260376" r="0.40" fill="#aaaaaa"/>
<circle cx="46.42273712158203" cy="-4.339361190795898" r="0.40" fill="#aaaaaa"/>
<circle cx="49.360069274902344" cy="-3.7686309814453125" r="0.40" fill="#aaaaaa"/>
<circle cx="52.622013092041016" cy="-3.4121921062469482" r="0.40" fill="#aaaaaa"/>
<circle cx="55.990169525146484" cy="-2.827042818069458" r="0.40" fill="#aaaaaa"/>
<circle cx="59.92170333862305" cy="-2.1564440727233887" r="0.40" fill="#aaaaaa"/>
<circle cx="63.8367919921875" cy="-1.3873698711395264" r="0.40" fill="#aaaaaa"/>
<circle cx="67.60539245605469" cy="-0.6059203743934631" r="0.40" fill="#aaaaaa"/>
<circle cx="70.97325134277344" cy="-0.01897253282368183" r="0.40" fill="#aaaaaa"/>
<circle cx="73.9300308227539" cy="0.43528270721435547" r="0.40" fill="#aaaaaa"/>
<circle cx="76.9372329711914" cy="0.5876989364624023" r="0.40" fill="#aaaaaa"/>
<circle cx="79.87273406982422" cy="1.1693603992462158" r="0.40" fill="#aaaaaa"/>
<circle cx="82.8689193725586" cy="1.387633204460144" r="0.40" fill="#aaaaaa"/>
<circle cx="85.84010314941406" cy="1.7557278871536255" r="0.40" fill="#aaaaaa"/>
<circle cx="88.78520965576172" cy="2.2799198627471924" r="0.40" fill="#aaaaaa"/>
<circle cx="91.67657470703125" cy="3.1258203983306885" r="0.40" fill="#aaaaaa"/>
<circle cx="95.28758239746094" cy="3.986194372177124" r="0.40" fill="#aaaaaa"/>
<circle cx="99.93352508544922" cy="4.702635765075684" r="0.40" fill="#aaaaaa"/>
<circle cx="104.36966705322266" cy="5.675659656524658" r="0.40" fill="#aaaaaa"/>
<circle cx="106.6797103881836" cy="6.854726314544678" r="0.40" fill="#aaaaaa"/>
<circle cx="108.34959411621094" cy="9.106918334960938" r="0.40" fill="#aaaaaa"/>
<circle cx="108.8598861694336" cy="12.903963088989258" r="0.40" fill="#aaaaaa"/>
<circle cx="108.46517181396484" cy="16.763240814208984" r="0.40" fill="#aaaaaa"/>
<circle cx="107.93121337890625" cy="19.359376907348633" r="0.40" fill="#aaaaaa"/>
<circle cx="107.397705078125" cy="21.49947166442871" r="0.40" fill="#aaaaaa"/>
<circle cx="106.76056671142578" cy="24.44200325012207" r="0.40" fill="#aaaaaa"/>
<circle cx="106.08668518066406" cy="27.804651260375977" r="0.40" fill="#aaaaaa"/>
<circle cx="105.5846939086914" cy="30.90272331237793" r="0.40" fill="#aaaaaa"/>
<circle cx="104.84376525878906" cy="33.82459259033203" r="0.40" fill="#aaaaaa"/>
<circle cx="104.57291412353516" cy="36.80999755859375" r="0.40" fill="#aaaaaa"/>
<circle cx="104.34980773925781" cy="40.089664459228516" r="0.40" fill="#aaaaaa"/>
<circle cx="103.75740814208984" cy="43.46332550048828" r="0.40" fill="#aaaaaa"/>
<circle cx="103.33118438720703" cy="46.715545654296875" r="0.40" fill="#aaaaaa"/>
<circle cx="102.979736328125" cy="50.121768951416016" r="0.40" fill="#aaaaaa"/>
<circle cx="102.50978088378906" cy="53.51198196411133" r="0.40" fill="#aaaaaa"/>
<circle cx="101.85408782958984" cy="56.58927536010742" r="0.40" fill="#aaaaaa"/>
<circle cx="101.67765045166016" cy="59.731346130371094" r="0.40" fill="#aaaaaa"/>
<circle cx="101.4736557006836" cy="63.15750503540039" r="0.40" fill="#aaaaaa"/>
<circle cx="101.20716857910156" cy="66.57521057128906" r="0.40" fill="#aaaaaa"/>
<circle cx="100.70540618896484" cy="69.27241516113281" r="0.40" fill="#aaaaaa"/>
<circle cx="99.09088134765625" cy="72.15052032470703" r="0.40" fill="#aaaaaa"/>
<circle cx="96.4952163696289" cy="75.38550567626953" r="0.40" fill="#aaaaaa"/>
<circle cx="93.37415313720703" cy="77.28545379638672" r="0.40" fill="#aaaaaa"/>
<circle cx="90.42145538330078" cy="77.59489440917969" r="0.40" fill="#aaaaaa"/>
<circle cx="87.99385833740234" cy="77.0785903930664" r="0.40" fill="#aaaaaa"/>
<circle cx="85.58367156982422" cy="76.4926986694336" r="0.40" fill="#aaaaaa"/>
<circle cx="82.47119140625" cy="75.4936294555664" r="0.40" fill="#aaaaaa"/>
<circle cx="79.17787170410156" cy="74.63874053955078" r="0.40" fill="#aaaaaa"/>
<circle cx="75.97345733642578" cy="74.018798828125" r="0.40" fill="#aaaaaa"/>
<circle cx="73.06615447998047" cy="73.37657928466797" r="0.40" fill="#aaaaaa"/>
<circle cx="70.1150131225586" cy="72.91507720947266" r="0.40" fill="#aaaaaa"/>
<circle cx="67.23236846923828" cy="72.17121124267578" r="0.40" fill="#aaaaaa"/>
<circle cx="63.88054275512695" cy="71.55756378173828" r="0.40" fill="#aaaaaa"/>
<circle cx="60.67417526245117" cy="70.34416198730469" r="0.40" fill="#aaaaaa"/>
<circle cx="57.64139175415039" cy="69.61793518066406" r="0.40" fill="#aaaaaa"/>
<circle cx="54.339298248291016" cy="68.79926300048828" r="0.40" fill="#aaaaaa"/>
<circle cx="50.99898910522461" cy="68.13819122314453" r="0.40" fill="#aaaaaa"/>
<circle cx="48.04602813720703" cy="67.08277130126953" r="0.40" fill="#aaaaaa"/>
<circle cx="44.93804168701172" cy="66.66657257080078" r="0.40" fill="#aaaaaa"/>
<circle cx="41.363895416259766" cy="65.7668228149414" r="0.40" fill="#aaaaaa"/>
<circle cx="37.65524673461914" cy="64.82022857666016" r="0.40" fill="#aaaaaa"/>
<circle cx="34.19887924194336" cy="64.03626251220703" r="0.40" fill="#aaaaaa"/>
<circle cx="30.80765724182129" cy="63.58510208129883" r="0.40" fill="#aaaaaa"/>
<circle cx="27.513330459594727" cy="62.73442840576172" r="0.40" fill="#aaaaaa"/>
<circle cx="24.245220184326172" cy="61.77562713623047" r="0.40" fill="#aaaaaa"/>
<circle cx="20.9672794342041" cy="60.85736846923828" r="0.40" fill="#aaaaaa"/>
<circle cx="18.14862060546875" cy="59.8496208190918" r="0.40" fill="#aaaaaa"/>
<circle cx="15.261759757995605" cy="59.12310791015625" r="0.40" fill="#aaaaaa"/>
<circle cx="12.325668334960938" cy="58.599571228027344" r="0.40" fill="#aaaaaa"/>
<circle cx="9.563368797302246" cy="57.96129608154297" r="0.40" fill="#aaaaaa"/>
<circle cx="7.1963791847229" cy="57.12853240966797" r="0.40" fill="#aaaaaa"/>
<circle cx="5.1454949378967285" cy="55.94230270385742" r="0.40" fill="#aaaaaa"/>
<circle cx="3.954637289047241" cy="53.77431106567383" r="0.40" fill="#aaaaaa"/>
<circle cx="4.083730220794678" cy="51.167137145996094" r="0.40" fill="#aaaaaa"/>
<circle cx="4.7759294509887695" cy="48.3742561340332" r="0.40" fill="#aaaaaa"/>
<circle cx="5.257368564605713" cy="44.673484802246094" r="0.40" fill="#aaaaaa"/>
<circle cx="5.826594829559326" cy="40.778465270996094" r="0.40" fill="#aaaaaa"/>
<circle cx="6.4666748046875" cy="37.6076545715332" r="0.40" fill="#aaaaaa"/>
<circle cx="7.109821796417236" cy="34.72232437133789" r="0.40" fill="#aaaaaa"/>
<circle cx="7.361227512359619" cy="31.77188491821289" r="0.40" fill="#aaaaaa"/>
<circle cx="7.815829277038574" cy="27.857812881469727" r="0.40" fill="#aaaaaa"/>
<circle cx="8.750402450561523" cy="23.453563690185547" r="0.40" fill="#aaaaaa"/>
<circle cx="9.709846496582031" cy="19.480915069580078" r="0.40" fill="#aaaaaa"/>
<circle cx="9.978852272033691" cy="16.24842643737793" r="0.40" fill="#aaaaaa"/>
<circle cx="10.648991584777832" cy="13.367584228515625" r="0.40" fill="#aaaaaa"/>
<circle cx="11.141640663146973" cy="10.457240104675293" r="0.40" fill="#aaaaaa"/>
<circle cx="11.694244384765625" cy="7.556863307952881" r="0.40" fill="#aaaaaa"/>
<circle cx="12.047320365905762" cy="4.623323917388916" r="0.40" fill="#aaaaaa"/>
<circle cx="12.398408889770508" cy="1.837162733078003" r="0.40" fill="#aaaaaa"/>
<circle cx="13.122679710388184" cy="-0.7472788691520691" r="0.40" fill="#aaaaaa"/>
<circle cx="14.510720252990723" cy="-3.347026824951172" r="0.40" fill="#aaaaaa"/>
<circle cx="16.642972946166992" cy="-5.948477268218994" r="0.40" fill="#aaaaaa"/>
<circle cx="19.236557006835938" cy="-7.323479175567627" r="0.40" fill="#aaaaaa"/>
<circle cx="21.98893165588379" cy="-7.9124884605407715" r="0.40" fill="#aaaaaa"/>
<circle cx="24.904321670532227" cy="-8.618974685668945" r="0.40" fill="#aaaaaa"/>
<polyline points="24.904321670532227,-8.618974685668945 24.904321670532227,-8.618974685668945 26.774127960205078,-7.276028633117676 27.106334686279297,-7.314609527587891 27.36992073059082,-7.276762008666992 27.69866180419922,-7.229558944702148 28.559001922607422,-7.061273574829102 29.044883728027344,-7.067990303039551 29.405454635620117,-7.07297420501709 29.772918701171875,-6.995235443115234 30.262035369873047,-6.891761302947998 31.039148330688477,-6.8689494132995605 31.51795196533203,-6.898576736450195 31.935495376586914,-6.9033074378967285 32.425357818603516,-6.891728401184082 32.818634033203125,-6.861100673675537 33.308990478515625,-6.764493465423584 33.799346923828125,-6.667886257171631 34.30073547363281,-6.578400135040283 34.79243850708008,-6.490918159484863 35.353294372558594,-6.43256139755249 35.84355545043945,-6.418657302856445 36.333824157714844,-6.4047532081604 36.7595100402832,-6.2908549308776855 37.23896026611328,-6.151962757110596 37.718406677246094,-6.013071060180664 38.26052474975586,-5.943336009979248 38.75425338745117,-5.884308338165283 39.221580505371094,-5.818671226501465 39.701473236083984,-5.681039333343506 40.181358337402344,-5.5434088706970215 40.68217468261719,-5.411712169647217 41.172122955322266,-5.312708854675293 41.662071228027344,-5.213706016540527 42.14039611816406,-5.106839656829834 42.625038146972656,-4.984423637390137 43.109676361083984,-4.862008094787598 43.62468338012695,-4.778492450714111 44.11787414550781,-4.706198692321777 44.587581634521484,-4.602324962615967 45.069332122802734,-4.470251083374023 45.59750747680664,-4.368402004241943 46.088321685791016,-4.351129531860352 46.57905960083008,-4.310913562774658 47.07050323486328,-4.2214813232421875 47.56159210205078,-4.134709358215332 48.053993225097656,-4.053204536437988 48.551231384277344,-3.9593865871429443 49.03786849975586,-3.844618797302246 49.5246696472168,-3.729235887527466 50.01090621948242,-3.6128628253936768 50.48819351196289,-3.5209548473358154 50.9818229675293,-3.4734063148498535 51.46909713745117,-3.4264700412750244 51.944915771484375,-3.4205775260925293 52.4337272644043,-3.4145238399505615 52.993499755859375,-3.3534185886383057 53.48624801635742,-3.2754604816436768 54.03346633911133,-3.1548945903778076 54.514793395996094,-3.0215189456939697 54.91066360473633,-2.922914743423462 55.40414047241211,-2.8790884017944336 55.897621154785156,-2.8352620601654053 56.45350646972656,-2.738314151763916 56.94428634643555,-2.644329786300659 57.37580108642578,-2.5729925632476807 57.869503021240234,-2.522646188735962 58.36320495605469,-2.472299575805664 58.958194732666016,-2.3754489421844482 59.44575500488281,-2.2646267414093018 60.0081672668457,-2.1282973289489746 60.481658935546875,-1.9741637706756592 60.95514678955078,-1.8200300931930542 61.392948150634766,-1.6922141313552856 61.87611770629883,-1.5647028684616089 62.35928726196289,-1.4371916055679321 62.687217712402344,-1.4187816381454468 63.17739486694336,-1.4053876399993896 63.66757583618164,-1.3919936418533325 64.36414337158203,-1.2563700675964355 64.84929656982422,-1.1358526945114136 65.22338104248047,-1.0429260730743408 65.66990661621094,-1.008870244026184 66.16302490234375,-0.9712605476379395 66.89698028564453,-0.8245878219604492 67.37338256835938,-0.6775356531143188 67.80205535888672,-0.5558724999427795 68.28645324707031,-0.43259724974632263 68.73868560791016,-0.31836557388305664 69.2269515991211,-0.2107684314250946 69.7152328491211,-0.10316808521747589 70.03524780273438,-0.06759771704673767 70.52719116210938,-0.04209581017494202 71.2778091430664,0.06451702117919922 71.75956726074219,0.1965809315443039 71.93987274169922,0.24600942432880402 72.40921020507812,0.24357196688652039 73.18293762207031,0.28674283623695374 73.67314147949219,0.3842073976993561 73.99559783935547,0.44048723578453064 74.48881530761719,0.4796360731124878 75.02757263183594,0.5252559185028076 75.52131652832031,0.5785661935806274 75.92066955566406,0.6216843724250793 76.25411224365234,0.6105366945266724 77.19637298583984,0.6401536464691162 77.68629455566406,0.7393248081207275 77.91505432128906,0.7856306433677673 78.38446044921875,0.8120355606079102 79.43959045410156,1.0210559368133545 79.87273406982422,1.1693603992462158 80.01924133300781,1.1900548934936523 80.51258850097656,1.2597421407699585 80.86264038085938,1.3090307712554932 81.35565185546875,1.3452926874160767 81.84866333007812,1.3815546035766602 82.17909240722656,1.3839977979660034 83.09403228759766,1.427506685256958 83.58578491210938,1.5146102905273438 83.85076904296875,1.5615465641021729 84.33988189697266,1.6029094457626343 84.9033432006836,1.6520179510116577 85.3970947265625,1.7066822052001953 85.84010314941406,1.7557278871536255 86.06294250488281,1.7554631233215332 87.25012969970703,1.8485976457595825 87.93279266357422,2.0174360275268555 88.40930938720703,2.1641697883605957 88.78520965576172,2.2799198627471924 89.18714904785156,2.3756086826324463 90.04100036621094,2.6201443672180176 90.50312042236328,2.7974002361297607 90.70745086669922,2.8757758140563965 91.1504898071289,2.9900856018066406 91.8380126953125,3.1810715198516846 92.30842590332031,3.3420650959014893 92.63279724121094,3.4530766010284424 92.92611694335938,3.5114731788635254 93.41630554199219,3.609065055847168 93.91399383544922,3.708634853363037 94.40393829345703,3.807637929916382 94.89389038085938,3.9066410064697266 95.29059600830078,3.9866955280303955 95.78296661376953,4.068504333496094 96.27533721923828,4.150312900543213 96.96844482421875,4.2757158279418945 97.45439147949219,4.39325475692749 97.94033813476562,4.510794162750244 98.36006927490234,4.612318992614746 98.41780853271484,4.615633487701416 98.91006469726562,4.6438889503479 99.40232849121094,4.672144889831543 100.31409454345703,4.777874946594238 100.80439758300781,4.874807834625244 101.29470825195312,4.97174072265625 101.77482604980469,5.065593242645264 102.2654037475586,5.160854816436768 102.7559814453125,5.256115436553955 103.46493530273438,5.430323123931885 103.94711303710938,5.561074256896973 104.6109619140625,5.757516860961914 104.6109619140625,5.757516860961914 105.47887420654297,6.084810256958008 106.35371398925781,6.608537673950195 106.93560028076172,7.0916948318481445 107.60575103759766,7.79665470123291 108.0833511352539,8.540691375732422 108.40528869628906,9.412636756896973 108.4649658203125,9.740208625793457 108.52789306640625,10.085579872131348 108.59526824951172,10.525137901306152 108.63179779052734,10.882473945617676 108.6700210571289,11.256376266479492 108.71000671386719,11.647161483764648 108.7587890625,12.0562162399292 108.80915069580078,12.478501319885254 108.8598861694336,12.903963088989258 108.87963104248047,13.291913986206055 108.90226745605469,13.73658275604248 108.92517852783203,14.186606407165527 108.92032623291016,14.20930290222168 108.83309936523438,14.617080688476562 108.7430191040039,15.038228034973145 108.62593841552734,15.640352249145508 108.55976867675781,16.102519989013672 108.49237060546875,16.573278427124023 108.42330169677734,17.16482925415039 108.37226867675781,17.654373168945312 108.34270477294922,17.937946319580078 108.29846954345703,18.094011306762695 108.1647720336914,18.565685272216797 108.0362548828125,19.003982543945312 107.93121337890625,19.359376907348633 107.90936279296875,19.416261672973633 107.90936279296875,19.416261672973633 107.59553527832031,20.3474063873291 107.44403839111328,21.159847259521484 107.397705078125,21.49947166442871 107.397705078125,21.49947166442871 107.26058197021484,21.87227439880371 106.98028564453125,22.8743896484375 106.85094451904297,23.663652420043945 106.79360961914062,24.15740203857422 106.73396301269531,24.71731185913086 106.6862564086914,25.210941314697266 106.65074157714844,25.57840347290039 106.6120834350586,25.738988876342773 106.49505615234375,26.22506332397461 106.38231658935547,26.693368911743164 106.26934051513672,27.118051528930664 106.14087677001953,27.600933074951172 105.98699951171875,28.359426498413086 105.8986587524414,28.85102081298828 105.81070709228516,29.3353271484375 105.69322204589844,30.014753341674805 105.63288116455078,30.50846290588379 105.5846939086914,30.90272331237793 105.54884338378906,31.032644271850586 105.41597747802734,31.51413917541504 105.31671905517578,31.873842239379883 105.16768646240234,32.334136962890625 104.92945098876953,33.29834747314453 104.86241149902344,34.410743713378906 104.8759536743164,34.83627700805664 104.8759536743164,34.83627700805664 104.80220031738281,35.23288345336914 104.71086120605469,35.724056243896484 104.62264251708984,36.400360107421875 104.55899810791016,36.94496154785156 104.5080795288086,37.43867492675781 104.46464538574219,37.846370697021484 104.39778900146484,38.33987045288086 104.32640838623047,39.25797653198242 104.34002685546875,39.741981506347656 104.34954833984375,40.14971923828125 104.34744262695312,40.63770294189453 104.3453369140625,41.12568283081055 104.34484100341797,41.240234375 104.25936126708984,41.54033660888672 104.12259674072266,42.02052307128906 103.97233581542969,42.58163833618164 103.85393524169922,43.067359924316406 103.71661376953125,43.81983947753906 103.66010284423828,44.31359100341797 103.62767028808594,44.5970344543457 103.51861572265625,45.0545654296875 103.3546142578125,45.948429107666016 103.33963775634766,46.438873291015625 103.33118438720703,46.715545654296875 103.25753784179688,47.20432662963867 103.18324279785156,47.6973762512207 103.12408447265625,48.31416320800781 103.08518981933594,48.80736541748047 103.04598999023438,49.29811477661133 103.00630950927734,49.79136657714844 102.96627807617188,50.248985290527344 102.91405487060547,50.74272155761719 102.86183166503906,51.236454010009766 102.79129791259766,51.634300231933594 102.70226287841797,52.12580108642578 102.61737823486328,52.68012619018555 102.55352783203125,53.173744201660156 102.48986053466797,53.645652770996094 102.41637420654297,54.138755798339844 102.34288024902344,54.631866455078125 102.24345397949219,54.966617584228516 102.0997085571289,55.44429016113281 101.96537017822266,56.03303527832031 101.86731719970703,56.52314758300781 101.79174041748047,57.09688186645508 101.72811126708984,57.637351989746094 101.69133758544922,58.13040542602539 101.66007232666016,58.69926834106445 101.66834259033203,59.18474578857422 101.6766128540039,59.670223236083984 101.65088653564453,60.11276626586914 101.61630249023438,60.60564422607422 101.5761947631836,61.08793640136719 101.5272445678711,61.581600189208984 101.48412322998047,62.09563446044922 101.47930908203125,62.584190368652344 101.4744873046875,63.072750091552734 101.46043395996094,63.56321334838867 101.44444274902344,64.05382537841797 101.4248046875,64.54826354980469 101.4017105102539,65.03990173339844 101.3623046875,65.5779037475586 101.28563690185547,66.07076263427734 101.20896911621094,66.5636215209961 101.17695617675781,67.0130615234375 101.11054229736328,67.60413360595703 100.99874877929688,68.09147644042969 100.87731170654297,68.59061431884766 100.7551040649414,69.07530212402344 100.57755279541016,69.61257934570312 100.57755279541016,69.61257934570312 100.40272521972656,70.0777359008789 100.08399200439453,70.59358978271484 99.80673217773438,70.98856353759766 99.54962158203125,71.39071655273438 99.29238891601562,71.81676483154297 99.03264617919922,72.24462127685547 98.7695541381836,72.66970825195312 98.50670623779297,73.09441375732422 98.1876449584961,73.50128936767578 97.86395263671875,73.88225555419922 97.54055786132812,74.26287078857422 97.19821166992188,74.63496398925781 96.85806274414062,74.99811553955078 96.5199203491211,75.359130859375 96.06536102294922,75.68352508544922 95.65475463867188,75.96820831298828 95.21611022949219,76.2503890991211 94.78626251220703,76.50382232666016 94.35820007324219,76.75621032714844 93.90715789794922,76.9992904663086 93.47309112548828,77.23233795166016 92.85514068603516,77.40642547607422 92.3682632446289,77.51990509033203 91.75910949707031,77.55331420898438 91.27534484863281,77.55888366699219 90.77607727050781,77.57994079589844 90.20328521728516,77.5618896484375 89.71257019042969,77.48764038085938 89.21437072753906,77.40298461914062 88.69364166259766,77.29987335205078 88.22084045410156,77.1503677368164 88.02161407470703,77.08737182617188 88.02161407470703,77.08737182617188 87.54731750488281,76.927734375 87.07703399658203,76.7789077758789 86.59404754638672,76.65078735351562 86.10910034179688,76.56370544433594 85.61559295654297,76.49700927734375 85.14213562011719,76.2755355834961 84.70559692382812,76.06083679199219 84.22481536865234,75.88861083984375 83.75550079345703,75.72528076171875 83.22723388671875,75.61194610595703 82.73442077636719,75.53482055664062 82.25566101074219,75.44408416748047 81.76837158203125,75.33207702636719 81.28331756591797,75.21952056884766 80.79747009277344,75.10162353515625 80.31161499023438,74.98372650146484 79.8445816040039,74.84341430664062 79.36790466308594,74.69708251953125 78.86311340332031,74.56925964355469 78.3748779296875,74.46149444580078 77.89137268066406,74.35176086425781 77.4049301147461,74.23619842529297 76.88558197021484,74.12287902832031 76.39183044433594,74.06653594970703 75.94934844970703,74.00810241699219 75.50084686279297,73.80912780761719 74.91901397705078,73.60455322265625 74.4278564453125,73.58501434326172 73.96318817138672,73.55430603027344 73.47291564941406,73.45716857910156 72.97650909423828,73.36258697509766 72.4836654663086,73.2856674194336 72.00777435302734,73.1968765258789 71.53894805908203,73.03253173828125 71.00221252441406,72.89612579345703 70.51730346679688,72.90647888183594 70.01649475097656,72.89306640625 69.52853393554688,72.78402709960938 69.0477523803711,72.689208984375 68.55413818359375,72.64197540283203 68.00911712646484,72.53740692138672 67.56742095947266,72.32917022705078 67.1061782836914,72.15742492675781 66.61243438720703,72.10347747802734 66.11868286132812,72.04952239990234 65.6260986328125,71.87730407714844 65.15941619873047,71.70862579345703 64.6662368774414,71.62750244140625 64.17276000976562,71.58357238769531 63.66049575805664,71.4583511352539 63.21372985839844,71.25692749023438 62.7457389831543,71.06097412109375 62.26332092285156,70.93099975585938 61.780914306640625,70.80103302001953 61.342132568359375,70.62419891357422 60.88789749145508,70.43376159667969 60.35547637939453,70.27291870117188 59.867523193359375,70.1638412475586 59.430084228515625,70.04644775390625 58.96440505981445,69.87580871582031 58.391082763671875,69.72049713134766 57.897621154785156,69.65298461914062 57.46126937866211,69.56710815429688 56.980690002441406,69.4314956665039 56.42466354370117,69.29669189453125 55.930938720703125,69.24497985839844 55.43721008300781,69.1932601928711 55.03915786743164,69.05471801757812 54.57319641113281,68.88463592529297 53.9968147277832,68.75419616699219 53.50323486328125,68.68923950195312 53.046531677246094,68.61190795898438 52.560142517089844,68.49614715576172 52.069679260253906,68.37985229492188 51.581947326660156,68.26976776123047 51.09421920776367,68.15968322753906 50.623069763183594,68.03826904296875 50.140159606933594,67.909912109375 49.71220016479492,67.77098083496094 49.253177642822266,67.58833312988281 48.808311462402344,67.40686798095703 48.355445861816406,67.21432495117188 47.72963333129883,67.02610778808594 47.23800277709961,66.93804931640625 46.6884651184082,66.87222290039062 46.19489288330078,66.8262710571289 45.72153854370117,66.76908874511719 45.22794723510742,66.70450592041016 44.79576110839844,66.62802124023438 44.313560485839844,66.49736022949219 43.79219436645508,66.36048889160156 43.30092239379883,66.26984405517578 42.80964660644531,66.17919921875 42.37209701538086,66.07292175292969 41.894859313964844,65.92802429199219 41.41762161254883,65.78313446044922 40.92316436767578,65.64566802978516 40.4415168762207,65.51327514648438 39.86404800415039,65.39933776855469 39.37030792236328,65.34579467773438 38.87656021118164,65.2922592163086 38.5196647644043,65.15882873535156 38.059288024902344,64.9784927368164 37.48843002319336,64.78671264648438 36.99838638305664,64.68826293945312 36.49715805053711,64.58847045898438 36.00566101074219,64.49945831298828 35.51416015625,64.41044616699219 35.090511322021484,64.30936431884766 34.61371612548828,64.16332244873047 33.967010498046875,64.0313949584961 33.47738265991211,64.02111053466797 33.0294075012207,64.0107650756836 32.53581619262695,63.946144104003906 32.04222869873047,63.88152313232422 31.586711883544922,63.78261947631836 31.102190017700195,63.6597785949707 30.569547653198242,63.561302185058594 30.075870513916016,63.511959075927734 29.64216423034668,63.45845031738281 29.204425811767578,63.245216369628906 28.766687393188477,63.031982421875 28.188142776489258,62.87311935424805 27.698488235473633,62.772483825683594 27.259851455688477,62.652793884277344 26.78574562072754,62.50010681152344 26.286380767822266,62.346824645996094 25.804031372070312,62.216644287109375 25.33079719543457,62.08882522583008 24.851167678833008,61.9504508972168 24.371540069580078,61.81207275390625 23.904571533203125,61.670738220214844 23.42804527282715,61.52401351928711 22.954544067382812,61.3773078918457 22.478763580322266,61.22869110107422 21.936071395874023,61.07179641723633 21.447893142700195,60.9637451171875 20.9672794342041,60.85736846923828 20.690820693969727,60.72071075439453 20.254924774169922,60.5052375793457 19.452558517456055,60.328704833984375 19.065587997436523,60.27865982055664 18.78133201599121,60.145660400390625 18.3387508392334,59.93857955932617 17.527231216430664,59.76396560668945 17.160629272460938,59.71343231201172 16.746450424194336,59.57682418823242 16.27373695373535,59.42090606689453 15.757641792297363,59.26795196533203 15.170578002929688,59.10536575317383 14.68002986907959,59.00992202758789 14.15729808807373,58.91190719604492 13.664922714233398,58.83014678955078 13.181553840637207,58.748844146728516 12.689638137817383,58.66305160522461 12.3132905960083,58.59596633911133 11.834065437316895,58.45645523071289 11.328937530517578,58.31050491333008 10.845975875854492,58.182308197021484 10.20765209197998,58.041709899902344 10.20765209197998,58.041709899902344 9.71543025970459,57.98027420043945 9.486763954162598,57.931060791015625 9.021927833557129,57.747596740722656 8.41435432434082,57.55999755859375 7.947892189025879,57.444854736328125 7.610949516296387,57.30303192138672 7.1963791847229,57.12853240966797 6.786834716796875,56.90631103515625 6.222604274749756,56.65776824951172 5.782848358154297,56.52351760864258 5.5282816886901855,56.3626594543457 5.191837310791016,55.993194580078125 4.866253852844238,55.62271499633789 4.537655830383301,55.24663543701172 4.290680885314941,54.86695098876953 4.097031116485596,54.55613327026367 4.012664318084717,54.09291076660156 3.9138057231903076,53.594905853271484 3.8050482273101807,53.11705017089844 3.758495330810547,52.806697845458984 3.751265525817871,52.33015441894531 3.745943307876587,51.97936248779297 3.772766351699829,51.91486358642578 3.934854030609131,51.525115966796875 4.124172687530518,50.49588394165039 4.141696453094482,50.20502853393555 4.193798065185547,50.05589294433594 4.350996017456055,49.605926513671875 4.513627529144287,49.13785934448242 4.795151233673096,48.028480529785156 4.822690010070801,47.53308868408203 4.834194660186768,47.326141357421875 4.834194660186768,47.326141357421875 4.846076965332031,47.123023986816406 4.938169002532959,46.6319580078125 5.030261516571045,46.140892028808594 5.124188423156738,45.56753921508789 5.197643280029297,45.074424743652344 5.273582458496094,44.39309310913086 5.30204963684082,43.90080642700195 5.330516815185547,43.40851974487305 5.338979244232178,43.26218032836914 5.459892749786377,42.82888412475586 5.594130039215088,42.34783935546875 5.735648155212402,41.564239501953125 5.792795181274414,41.070491790771484 5.849637031555176,40.55256652832031 5.899996757507324,40.05886459350586 5.950356483459473,39.565162658691406 5.960412502288818,39.504032135009766 6.13880729675293,39.04255294799805 6.375712871551514,38.20077133178711 6.451313018798828,37.707820892333984 6.528857231140137,37.3224983215332 6.63538122177124,36.83399963378906 6.689145565032959,36.61311340332031 6.869906902313232,36.152984619140625 7.082909107208252,35.128055572509766 7.109821796417236,34.72232437133789 7.180647373199463,34.341548919677734 7.272007465362549,33.850379943847656 7.3552703857421875,33.281734466552734 7.405623912811279,32.47640609741211 7.375463485717773,31.997793197631836 7.361227512359619,31.77188491821289 7.4379963874816895,31.320945739746094 7.5217814445495605,30.828792572021484 7.593644618988037,30.2633113861084 7.647579669952393,29.769563674926758 7.704287052154541,29.245601654052734 7.743931770324707,28.752351760864258 7.783576011657715,28.25910186767578 7.815829277038574,27.857812881469727 7.920763969421387,27.401214599609375 8.032752990722656,26.913917541503906 8.140961647033691,26.447397232055664 8.264904975891113,25.963184356689453 8.388849258422852,25.478971481323242 8.527395248413086,24.908082962036133 8.602973937988281,24.415136337280273 8.678553581237793,23.92218589782715 8.750402450561523,23.453563690185547 8.855146408081055,22.99919319152832 8.967462539672852,22.511974334716797 9.079778671264648,22.02475357055664 9.201837539672852,21.583908081054688 9.339670181274414,21.104087829589844 9.477502822875977,20.624271392822266 9.59289836883545,20.06521224975586 9.690993309020996,19.57510757446289 9.76239013671875,19.010366439819336 9.817524909973145,18.51661491394043 9.888849258422852,18.079479217529297 9.9827880859375,17.588695526123047 10.024591445922852,16.93271255493164 9.992644309997559,16.454763412475586 10.018684387207031,16.094209671020508 10.143672943115234,15.610298156738281 10.264059066772461,15.10280990600586 10.362931251525879,14.612841606140137 10.465770721435547,14.13729476928711 10.581549644470215,13.650909423828125 10.694247245788574,13.153666496276855 10.797720909118652,12.664552688598633 10.909266471862793,12.203167915344238 11.044328689575195,11.722402572631836 11.127340316772461,11.13065242767334 11.137738227844238,10.641003608703613 11.218008995056152,10.227348327636719 11.374898910522461,9.755062103271484 11.506293296813965,9.227097511291504 11.593716621398926,8.735384941101074 11.650096893310547,8.213017463684082 11.683250427246094,7.720264911651611 11.693467140197754,7.222581386566162 11.69233512878418,6.735331058502197 11.761716842651367,6.225661277770996 11.86414623260498,5.736343860626221 11.948196411132812,5.2503981590271 12.026087760925293,4.757644176483154 12.118195533752441,4.260001182556152 12.213881492614746,3.7694923877716064 12.249455451965332,3.311393976211548 12.268877983093262,2.8202602863311768 12.331806182861328,2.284540891647339 12.413203239440918,1.7659415006637573 12.514878273010254,1.276482105255127 12.650144577026367,0.7491065263748169 12.797816276550293,0.27295172214508057 12.949684143066406,-0.2051362842321396 13.101134300231934,-0.6797577738761902 13.207832336425781,-1.1361289024353027 13.314787864685059,-1.6245375871658325 13.314787864685059,-1.6245375871658325 13.594655990600586,-2.1457316875457764 13.852007865905762,-2.5539960861206055 14.157559394836426,-2.92386531829834 14.463748931884766,-3.2907450199127197 14.773268699645996,-3.6693789958953857 15.08362865447998,-4.050434589385986 15.3953275680542,-4.422526836395264 15.716646194458008,-4.801980018615723 16.046180725097656,-5.2001752853393555 16.3577880859375,-5.590890884399414 16.642972946166992,-5.948477268218994 16.974218368530273,-6.231187343597412 17.354446411132812,-6.55570125579834 17.62948226928711,-6.706042766571045 18.0778865814209,-6.900810241699219 18.470449447631836,-7.061960220336914 18.934703826904297,-7.220438003540039 19.32694435119629,-7.346430778503418 19.804176330566406,-7.467613220214844 20.26886558532715,-7.583591461181641 20.75328254699707,-7.699182033538818 21.143783569335938,-7.780928611755371 21.636598587036133,-7.857642650604248 21.98893165588379,-7.9124884605407715 22.240243911743164,-7.879354953765869 23.59949493408203,-7.968451499938965 24.00399398803711,-8.170114517211914 24.398326873779297,-8.366710662841797 24.781700134277344,-8.557841300964355 24.904321670532227,-8.618974685668945 24.904321670532227,-8.618974685668945 24.904321670532227,-8.618974685668945" fill="none" stroke="#dd3333" stroke-width="0.80"/>
</g>
</svg>
