<svg xmlns="http://www.w3.org/2000/svg" width="400" height="328" viewBox="-10.00 -90.36 131.06 109.43">
<rect x="-10.00" y="-90.36" width="131.06" height="109.43" fill="white"/>
<g transform="scale(1,-1)">
<polyline points="10,0 90,0" fill="none" stroke="#4466aa" stroke-width="0.80" stroke-dasharray="4,2"/>
<path d="M90,0 C95.5228500366211,0 100,4.477152347564697 100,10" fill="none" stroke="#4466aa" stroke-width="0.80" stroke-dasharray="4,2"/>
<polyline points="100,10 100,60" fill="none" stroke="#4466aa" stroke-width="0.80" stroke-dasharray="4,2"/>
<path d="M100,60 C100,65.5228500366211 95.5228500366211,70 90,70" fill="none" stroke="#4466aa" stroke-width="0.80" stroke-dasharray="4,2"/>
<polyline points="90,70 10,70" fill="none" stroke="#4466aa" stroke-width="0.80" stroke-dasharray="4,2"/>
<path d="M10,70 C4.477152347564697,70 0,65.5228500366211 0,60" fill="none" stroke="#4466aa" stroke-width="0.80" stroke-dasharray="4,2"/>
<polyline points="0,60 0,10" fill="none" stroke="#4466aa" stroke-width="0.80" stroke-dasharray="4,2"/>
<path d="M0,10 C0,4.477152347564697 4.477152347564697,0 10,0" fill="none" stroke="#4466aa" stroke-width="0.80" stroke-dasharray="4,2"/>
<polyline points="24.781475067138672,-7.9208831787109375 105.42420959472656,5.549110412597656" fill="none" stroke="#33aa33" stroke-width="0.80" stroke-dasharray="6,3"/>
<path d="M105.42420959472656,5.549110412597656 C110.82637786865234,6.697376251220703 108.17359924316406,14.61456298828125 107.02532958984375,20.0167236328125" fill="none" stroke="#33aa33" stroke-width="0.80" stroke-dasharray="6,3"/>
<polyline points="107.02532958984375,20.0167236328125 100.3400650024414,69.48002624511719" fill="none" stroke="#33aa33" stroke-width="0.80" stroke-dasharray="6,3"/>
<path d="M100.3400650024414,69.48002624511719 C99.1917953491211,74.88218688964844 93.88162994384766,78.33065795898438 88.4794692993164,77.18238830566406" fill="none" stroke="#33aa33" stroke-width="0.80" stroke-dasharray="6,3"/>
<polyline points="88.4794692993164,77.18238830566406 7.478052139282227,57.53789520263672" fill="none" stroke="#33aa33" stroke-width="0.80" stroke-dasharray="6,3"/>
<path d="M7.478052139282227,57.53789520263672 C2.0758914947509766,56.389625549316406 3.5452098846435547,54.683990478515625 4.693473815917969,49.28183364868164" fill="none" stroke="#33aa33" stroke-width="0.80" stroke-dasharray="6,3"/>
<polyline points="4.693473815917969,49.28183364868164 12.920883178710938,-0.21852397918701172" fill="none" stroke="#33aa33" stroke-width="0.80" stroke-dasharray="6,3"/>
<path d="M12.920883178710938,-0.21852397918701172 C14.069147109985352,-5.6206841468811035 19.379316329956055,-9.069147109985352 24.781475067138672,-7.9208831787109375" fill="none" stroke="#33aa33" stroke-width="0.80" stroke-dasharray="6,3"/>
<polyline points="24.632213592529297,-7.027277946472168 25.73523712158203,-7.57888126373291 26.593364715576172,-6.664333343505859 28.71403694152832,-7.256441116333008 29.85682487487793,-8.046113967895508 30.660287857055664,-6.804306983947754 31.540409088134766,-6.021420478820801 32.73801803588867,-7.139322280883789 33.54631042480469,-5.926416873931885 34.76491165161133,-7.1699676513671875 35.762413024902344,-7.089836597442627 37.68626403808594,-6.503604888916016 39.49569320678711,-5.232349395751953 40.59548568725586,-5.764617919921875 42.38031005859375,-4.346035957336426 43.457252502441406,-4.741517066955566 44.41164779663086,-4.403302192687988 45.54121398925781,-5.113842010498047 46.41592788696289,-4.298563003540039 47.38951110839844,-4.07524299621582 48.328460693359375,-3.6445908546447754 49.4151611328125,-4.098471164703369 50.324710845947266,-3.491781234741211 51.2974739074707,-3.263524055480957 52.34923553466797,-3.508242607116699 53.22011947631836,-2.670083522796631 55.34854507446289,-3.308596611022949 56.39885711669922,-3.5446481704711914 57.294036865234375,-2.851937770843506 58.054046630859375,-1.3499889373779297 59.26634979248047,-2.5558013916015625 61.16521072387695,-1.8199777603149414 63.159671783447266,-1.6564769744873047 64.11373901367188,-1.3162784576416016 65.02765655517578,-0.7357387542724609 66.00789642333984,-0.5522937774658203 68.11698913574219,-1.075021743774414 68.97247314453125,-0.14469528198242188 70.14874267578125,-1.134817123413086 70.8502426147461,0.717402458190918 71.87107849121094,0.6578712463378906 72.82763671875,0.9831180572509766 74.02555847167969,-0.13666534423828125 74.88336181640625,0.7798519134521484 76.05481719970703,-0.18147659301757812 76.99749755859375,0.22687721252441406 77.8338623046875,1.2717161178588867 78.82192993164062,1.4083690643310547 79.94357299804688,0.7452201843261719 80.87033081054688,1.248856544494629 81.89369201660156,1.1741971969604492 82.74822998046875,2.1102867126464844 83.91059875488281,1.2033729553222656 84.82418823242188,1.7858715057373047 85.89189910888672,1.445627212524414 86.81643676757812,1.9626140594482422 87.84797668457031,1.8389396667480469 88.84141540527344,1.9433832168579102 89.8258285522461,2.101877212524414 90.7186508178711,2.808734893798828 91.55422973632812,3.858262062072754 92.69747924804688,3.065816879272461 93.46656799316406,4.513416290283203 94.63182067871094,3.589252471923828 95.53498077392578,4.2341766357421875 97.65264129638672,3.6601123809814453 101.47533416748047,4.982322692871094 102.37370300292969,5.655940055847168 103.38541412353516,5.65101432800293 104.48072052001953,5.145633697509766 105.39610290527344,5.717342376708984 106.16832733154297,6.298973083496094 107.30805969238281,6.278392791748047 107.85419464111328,7.146303176879883 107.59422302246094,8.293577194213867 107.95634460449219,9.102865219116211 109.64378356933594,9.926998138427734 109.24082946777344,10.99886703491211 108.84970092773438,12.001420974731445 108.9139633178711,15.093488693237305 108.76951599121094,16.098974227905273 108.64510345458984,17.105125427246094 108.41338348388672,18.08136558532715 107.71504974365234,18.944047927856445 107.94950103759766,20.018260955810547 107.99238586425781,20.224365234375 107.50030517578125,20.080917358398438 107.30277252197266,21.06155776977539 106.76618194580078,21.99637222290039 107.25361633300781,23.06958770751953 107.01919555664062,24.045242309570312 105.78844451904297,25.893573760986328 106.61473083496094,27.012588500976562 106.57904052734375,28.01510238647461 106.53396606445312,29.01634979248047 104.88725280761719,29.801124572753906 105.18413543701172,30.848587036132812 105.60548400878906,31.912864685058594 104.53608703613281,32.77566909790039 105.76692962646484,33.949363708496094 104.70327758789062,34.81294250488281 104.34661865234375,35.772071838378906 103.76384735107422,36.70064926147461 105.40940856933594,37.930389404296875 104.32637023925781,38.791351318359375 103.69390106201172,39.713199615478516 105.04983520507812,40.90380096435547 103.63111114501953,42.72673034667969 104.57417297363281,43.86152648925781 103.72908020019531,44.75464630126953 103.19918060302734,45.69036102294922 102.42464447021484,46.593017578125 102.78571319580078,47.64915084838867 103.18885040283203,48.71098327636719 103.41661834716797,49.74910354614258 103.3841781616211,51.75938415527344 103.1002426147461,52.728355407714844 102.55789184570312,53.662384033203125 101.58426666259766,54.53813171386719 101.36079406738281,55.51526641845703 102.16450500488281,56.6312255859375 102.23931884765625,57.64867401123047 101.34512329101562,58.53515625 101.72683715820312,59.594085693359375 101.7058334350586,60.59858703613281 101.06352996826172,61.51911163330078 101.49838256835938,63.592559814453125 101.6043472290039,64.61421203613281 101.45082092285156,65.60079956054688 101.26587677001953,66.58314514160156 101.46530151367188,67.61743927001953 101.32967376708984,68.6064453125 99.83580017089844,69.41187286376953 101.07862091064453,69.67594909667969 100.25415802001953,70.5005111694336 99.70840454101562,72.51155853271484 98.79715728759766,73.15142822265625 96.92756652832031,74.08186340332031 97.03449249267578,75.72047424316406 95.24638366699219,76.82725524902344 94.39395904541016,77.54346466064453 93.35852813720703,77.86247253417969 92.23539733886719,77.69267272949219 91.18896484375,77.63726806640625 90.16136932373047,77.71451568603516 89.14669036865234,77.55900573730469 88.52931213378906,76.89913177490234 88.32989501953125,77.79914093017578 87.50816345214844,76.97738647460938 86.55648803710938,76.69148254394531 85.72512817382812,75.909423828125 84.71273040771484,75.87385559082031 83.63743591308594,76.09767150878906 82.61585998535156,76.09996795654297 81.94442749023438,74.65851593017578 79.97573852539062,74.35604095458984 78.68701171875,75.45990753173828 77.98828125,74.13101196289062 76.99856567382812,74.00188446044922 76.0352783203125,73.76384735107422 74.86275482177734,74.38860321044922 74.22122192382812,72.82383728027344 73.02107238769531,73.5624771118164 72.23416137695312,72.59713745117188 70.90943908691406,73.84940338134766 70.17912292480469,72.65077209472656 69.14881896972656,72.68902587890625 68.27565002441406,72.07938385009766 67.03685760498047,72.97732543945312 66.24131774902344,72.04757690429688 65.24913024902344,71.92874145507812 64.49563598632812,70.82562255859375 62.22180938720703,71.7813720703125 61.638946533203125,69.97464752197266 60.28009796142578,71.36766052246094 59.673797607421875,69.65763854980469 58.57415008544922,69.98186492919922 57.83481979370117,68.8203353881836 56.74753189086914,69.0936050415039 55.657981872558594,69.37616729736328 54.72133255004883,69.02830505371094 52.63513946533203,69.21035766601562 51.70802688598633,68.82315826416016 51.070247650146484,67.24291229248047 49.91929626464844,67.7786865234375 49.02511215209961,67.25569152832031 47.91374588012695,67.62820434570312 47.04782485961914,66.98866271972656 46.11701202392578,66.61672973632812 45.22895812988281,66.06847381591797 44.22063446044922,66.0161361694336 42.92997741699219,67.12794494628906 41.10816192626953,66.21986389160156 40.24924850463867,65.55144500732422 38.25224304199219,65.36576080322266 37.55805587768555,64.01811981201172 36.61408996582031,63.700408935546875 35.26692581176758,65.04523468017578 34.538002014160156,63.84077453613281 33.31949234008789,64.6551513671875 31.446697235107422,63.95726776123047 30.648895263671875,63.03688049316406 29.43130874633789,63.84740447998047 28.697303771972656,62.66392517089844 27.57190704345703,63.09431457519531 26.56316566467285,63.043678283691406 26.014352798461914,61.09661102294922 23.666370391845703,62.35813903808594 23.072486877441406,60.596900939941406 21.76494598388672,61.7783203125 21.063308715820312,60.46142578125 19.97132110595703,60.75402069091797 18.970203399658203,60.671974182128906 18.262317657470703,59.38081359863281 17.284326553344727,59.203399658203125 16.142711639404297,59.700660705566406 15.346158027648926,58.77508544921875 14.14737319946289,59.50807189941406 13.353545188903809,58.5712890625 12.295882225036621,58.72239685058594 11.437222480773926,58.05293273925781 10.413877487182617,58.06249237060547 9.285616874694824,58.504730224609375 8.67035961151123,56.83159637451172 7.4325151443481445,57.72566223144531 7.408105850219727,57.82920837402344 6.72452449798584,56.523475646972656 5.700250625610352,56.6368408203125 5.153278350830078,55.84819793701172 4.168463706970215,55.72814178466797 2.8448638916015625,55.05316162109375 4.018974304199219,53.97706604003906 3.000333786010742,52.78453063964844 3.8033008575439453,51.921234130859375 4.693244934082031,51.107810974121094 3.792325019836426,49.868507385253906 4.0685625076293945,49.14321517944336 5.209373474121094,49.36758041381836 4.424736022949219,47.242347717285156 5.237759590148926,46.38007354736328 6.005504608154297,45.5102653503418 5.178394317626953,42.38056945800781 5.377425193786621,41.41624069213867 5.368386268615723,40.41733169555664 5.780652046203613,39.48844909667969 6.8186750411987305,38.66356658935547 6.257123947143555,37.57282257080078 6.90589714050293,36.68324661254883 7.714423179626465,35.82022476196289 6.421564102172852,34.607933044433594 6.837624549865723,33.67967224121094 8.355381965637207,32.934532165527344 7.276737689971924,31.75783920288086 7.516834259033203,30.800338745117188 7.850653171539307,29.858417510986328 7.269793510437012,28.764461517333984 7.742591857910156,26.848228454589844 7.907725811004639,23.883453369140625 9.146468162536621,23.091938018798828 9.484628677368164,22.150733947753906 10.210599899291992,20.27657699584961 9.491005897521973,19.15956687927246 9.705663681030273,18.19783592224121 10.477187156677246,17.328662872314453 9.453367233276367,16.161083221435547 10.02122974395752,15.258058547973633 10.964828491210938,14.417486190795898 9.738682746887207,13.21628189086914 11.220111846923828,12.46510124206543 11.068831443786621,11.442548751831055 12.075888633728027,10.61252212524414 10.8802490234375,9.416383743286133 11.895140647888184,8.587661743164062 11.11258316040039,7.460186004638672 11.936636924743652,6.599742889404297 12.425827026367188,5.6836442947387695 11.533388137817383,4.537905693054199 12.059642791748047,3.627964973449707 12.292613983154297,2.6692752838134766 12.970550537109375,1.7845468521118164 12.431795120239258,0.6975927352905273 12.2109375,-0.33652210235595703 13.289941787719727,-0.12062454223632812 12.75039291381836,-1.3207454681396484 13.805265426635742,-2.000627040863037 14.399876594543457,-3.934572696685791 14.496655464172363,-5.184443950653076 16.078689575195312,-5.087852954864502 16.75421714782715,-5.780320167541504 17.897714614868164,-5.777972221374512 18.023481369018555,-7.547865867614746 18.850181579589844,-8.326308250427246 19.895896911621094,-8.625290870666504 21.088184356689453,-8.047523498535156 22.146221160888672,-7.159071922302246 23.05715560913086,-7.38081169128418 23.980541229248047,-7.229440689086914 24.904321670532227,-8.618974685668945" fill="none" stroke="#999999" stroke-width="0.3" stroke-dasharray="1,1"/>
<circle cx="24.632213592529297" cy="-7.027277946472168" r="0.40" fill="#aaaaaa"/>
<circle cx="28.71403694152832" cy="-7.256441116333008" r="0.40" fill="#aaaaaa"/>
<circle cx="31.540409088134766" cy="-6.021420478820801" r="0.40" fill="#aaaaaa"/>
<circle cx="34.76491165161133" cy="-7.1699676513671875" r="0.40" fill="#aaaaaa"/>
<circle cx="39.49569320678711" cy="-5.232349395751953" r="0.40" fill="#aaaaaa"/>
<circle cx="43.457252502441406" cy="-4.741517066955566" r="0.40" fill="#aaaaaa"/>
<circle cx="46.41592788696289" cy="-4.298563003540039" r="0.40" fill="#aaaaaa"/>
<circle cx="49.4151611328125" cy="-4.098471164703369" r="0.40" fill="#aaaaaa"/>
<circle cx="52.34923553466797" cy="-3.508242607116699" r="0.40" fill="#aaaaaa"/>
<circle cx="56.39885711669922" cy="-3.5446481704711914" r="0.40" fill="#aaaaaa"/>
<circle cx="59.26634979248047" cy="-2.5558013916015625" r="0.40" fill="#aaaaaa"/>
<circle cx="64.11373901367188" cy="-1.3162784576416016" r="0.40" fill="#aaaaaa"/>
<circle cx="68.11698913574219" cy="-1.075021743774414" r="0.40" fill="#aaaaaa"/>
<circle cx="70.8502426147461" cy="0.717402458190918" r="0.40" fill="#aaaaaa"/>
<circle cx="74.02555847167969" cy="-0.13666534423828125" r="0.40" fill="#aaaaaa"/>
<circle cx="76.99749755859375" cy="0.22687721252441406" r="0.40" fill="#aaaaaa"/>
<circle cx="79.94357299804688" cy="0.7452201843261719" r="0.40" fill="#aaaaaa"/>
<circle cx="82.74822998046875" cy="2.1102867126464844" r="0.40" fill="#aaaaaa"/>
<circle cx="85.89189910888672" cy="1.445627212524414" r="0.40" fill="#aaaaaa"/>
<circle cx="88.84141540527344" cy="1.9433832168579102" r="0.40" fill="#aaaaaa"/>
<circle cx="91.55422973632812" cy="3.858262062072754" r="0.40" fill="#aaaaaa"/>
<circle cx="94.63182067871094" cy="3.589252471923828" r="0.40" fill="#aaaaaa"/>
<circle cx="101.47533416748047" cy="4.982322692871094" r="0.40" fill="#aaaaaa"/>
<circle cx="104.48072052001953" cy="5.145633697509766" r="0.40" fill="#aaaaaa"/>
<circle cx="107.30805969238281" cy="6.278392791748047" r="0.40" fill="#aaaaaa"/>
<circle cx="107.95634460449219" cy="9.102865219116211" r="0.40" fill="#aaaaaa"/>
<circle cx="108.84970092773438" cy="12.001420974731445" r="0.40" fill="#aaaaaa"/>
<circle cx="108.64510345458984" cy="17.105125427246094" r="0.40" fill="#aaaaaa"/>
<circle cx="107.94950103759766" cy="20.018260955810547" r="0.40" fill="#aaaaaa"/>
<circle cx="107.30277252197266" cy="21.06155776977539" r="0.40" fill="#aaaaaa"/>
<circle cx="107.01919555664062" cy="24.045242309570312" r="0.40" fill="#aaaaaa"/>
<circle cx="106.57904052734375" cy="28.01510238647461" r="0.40" fill="#aaaaaa"/>
<circle cx="105.18413543701172" cy="30.848587036132812" r="0.40" fill="#aaaaaa"/>
<circle cx="105.76692962646484" cy="33.949363708496094" r="0.40" fill="#aaaaaa"/>
<circle cx="103.76384735107422" cy="36.70064926147461" r="0.40" fill="#aaaaaa"/>
<circle cx="103.69390106201172" cy="39.713199615478516" r="0.40" fill="#aaaaaa"/>
<circle cx="104.57417297363281" cy="43.86152648925781" r="0.40" fill="#aaaaaa"/>
<circle cx="102.42464447021484" cy="46.593017578125" r="0.40" fill="#aaaaaa"/>
<circle cx="103.41661834716797" cy="49.74910354614258" r="0.40" fill="#aaaaaa"/>
<circle cx="102.55789184570312" cy="53.662384033203125" r="0.40" fill="#aaaaaa"/>
<circle cx="102.16450500488281" cy="56.6312255859375" r="0.40" fill="#aaaaaa"/>
<circle cx="101.72683715820312" cy="59.594085693359375" r="0.40" fill="#aaaaaa"/>
<circle cx="101.49838256835938" cy="63.592559814453125" r="0.40" fill="#aaaaaa"/>
<circle cx="101.26587677001953" cy="66.58314514160156" r="0.40" fill="#aaaaaa"/>
<circle cx="99.83580017089844" cy="69.41187286376953" r="0.40" fill="#aaaaaa"/>
<circle cx="99.70840454101562" cy="72.51155853271484" r="0.40" fill="#aaaaaa"/>
<circle cx="97.03449249267578" cy="75.72047424316406" r="0.40" fill="#aaaaaa"/>
<circle cx="93.35852813720703" cy="77.86247253417969" r="0.40" fill="#aaaaaa"/>
<circle cx="90.16136932373047" cy="77.71451568603516" r="0.40" fill="#aaaaaa"/>
<circle cx="88.32989501953125" cy="77.79914093017578" r="0.40" fill="#aaaaaa"/>
<circle cx="85.72512817382812" cy="75.909423828125" r="0.40" fill="#aaaaaa"/>
<circle cx="82.61585998535156" cy="76.09996795654297" r="0.40" fill="#aaaaaa"/>
<circle cx="78.68701171875" cy="75.45990753173828" r="0.40" fill="#aaaaaa"/>
<circle cx="76.0352783203125" cy="73.76384735107422" r="0.40" fill="#aaaaaa"/>
<circle cx="73.02107238769531" cy="73.5624771118164" r="0.40" fill="#aaaaaa"/>
<circle cx="70.17912292480469" cy="72.65077209472656" r="0.40" fill="#aaaaaa"/>
<circle cx="67.03685760498047" cy="72.97732543945312" r="0.40" fill="#aaaaaa"/>
<circle cx="64.49563598632812" cy="70.82562255859375" r="0.40" fill="#aaaaaa"/>
<circle cx="60.28009796142578" cy="71.36766052246094" r="0.40" fill="#aaaaaa"/>
<circle cx="57.83481979370117" cy="68.8203353881836" r="0.40" fill="#aaaaaa"/>
<circle cx="54.72133255004883" cy="69.02830505371094" r="0.40" fill="#aaaaaa"/>
<circle cx="51.070247650146484" cy="67.24291229248047" r="0.40" fill="#aaaaaa"/>
<circle cx="47.91374588012695" cy="67.62820434570312" r="0.40" fill="#aaaaaa"/>
<circle cx="45.22895812988281" cy="66.06847381591797" r="0.40" fill="#aaaaaa"/>
<circle cx="41.10816192626953" cy="66.21986389160156" r="0.40" fill="#aaaaaa"/>
<circle cx="37.55805587768555" cy="64.01811981201172" r="0.40" fill="#aaaaaa"/>
<circle cx="34.538002014160156" cy="63.84077453613281" r="0.40" fill="#aaaaaa"/>
<circle cx="30.648895263671875" cy="63.03688049316406" r="0.40" fill="#aaaaaa"/>
<circle cx="27.57190704345703" cy="63.09431457519531" r="0.40" fill="#aaaaaa"/>
<circle cx="23.666370391845703" cy="62.35813903808594" r="0.40" fill="#aaaaaa"/>
<circle cx="21.063308715820312" cy="60.46142578125" r="0.40" fill="#aaaaaa"/>
<circle cx="18.262317657470703" cy="59.38081359863281" r="0.40" fill="#aaaaaa"/>
<circle cx="15.346158027648926" cy="58.77508544921875" r="0.40" fill="#aaaaaa"/>
<circle cx="12.295882225036621" cy="58.72239685058594" r="0.40" fill="#aaaaaa"/>
<circle cx="9.285616874694824" cy="58.504730224609375" r="0.40" fill="#aaaaaa"/>
<circle cx="7.408105850219727" cy="57.82920837402344" r="0.40" fill="#aaaaaa"/>
<circle cx="5.153278350830078" cy="55.84819793701172" r="0.40" fill="#aaaaaa"/>
<circle cx="4.018974304199219" cy="53.97706604003906" r="0.40" fill="#aaaaaa"/>
<circle cx="4.693244934082031" cy="51.107810974121094" r="0.40" fill="#aaaaaa"/>
<circle cx="5.209373474121094" cy="49.36758041381836" r="0.40" fill="#aaaaaa"/>
<circle cx="6.005504608154297" cy="45.5102653503418" r="0.40" fill="#aaaaaa"/>
<circle cx="5.368386268615723" cy="40.41733169555664" r="0.40" fill="#aaaaaa"/>
<circle cx="6.257123947143555" cy="37.57282257080078" r="0.40" fill="#aaaaaa"/>
<circle cx="6.421564102172852" cy="34.607933044433594" r="0.40" fill="#aaaaaa"/>
<circle cx="7.276737689971924" cy="31.75783920288086" r="0.40" fill="#aaaaaa"/>
<circle cx="7.269793510437012" cy="28.764461517333984" r="0.40" fill="#aaaaaa"/>
<circle cx="9.146468162536621" cy="23.091938018798828" r="0.40" fill="#aaaaaa"/>
<circle cx="9.491005897521973" cy="19.15956687927246" r="0.40" fill="#aaaaaa"/>
<circle cx="9.453367233276367" cy="16.161083221435547" r="0.40" fill="#aaaaaa"/>
<circle cx="9.738682746887207" cy="13.21628189086914" r="0.40" fill="#aaaaaa"/>
<circle cx="12.075888633728027" cy="10.61252212524414" r="0.40" fill="#aaaaaa"/>
<circle cx="11.11258316040039" cy="7.460186004638672" r="0.40" fill="#aaaaaa"/>
<circle cx="11.533388137817383" cy="4.537905693054199" r="0.40" fill="#aaaaaa"/>
<circle cx="12.970550537109375" cy="1.7845468521118164" r="0.40" fill="#aaaaaa"/>
<circle cx="13.289941787719727" cy="-0.12062454223632812" r="0.40" fill="#aaaaaa"/>
<circle cx="14.399876594543457" cy="-3.934572696685791" r="0.40" fill="#aaaaaa"/>
<circle cx="16.75421714782715" cy="-5.780320167541504" r="0.40" fill="#aaaaaa"/>
<circle cx="18.850181579589844" cy="-8.326308250427246" r="0.40" fill="#aaaaaa"/>
<circle cx="22.146221160888672" cy="-7.159071922302246" r="0.40" fill="#aaaaaa"/>
<circle cx="24.904321670532227" cy="-8.618974685668945" r="0.40" fill="#aaaaaa"/>
<polyline points="24.904321670532227,-8.618974685668945 103.38541412353516,5.65101432800293" fill="none" stroke="#dd3333" stroke-width="0.80"/>
<path d="M103.38541412353516,5.65101432800293 C111.06026458740234,5.355983257293701 109.07133483886719,14.875320434570312 107.99238586425781,20.224365234375" fill="none" stroke="#dd3333" stroke-width="0.80"/>
<polyline points="107.99238586425781,20.224365234375 100.03705596923828,69.45463562011719" fill="none" stroke="#dd3333" stroke-width="0.80"/>
<path d="M100.03705596923828,69.45463562011719 C100.1687240600586,73.6482162475586 93.57047271728516,80.35638427734375 88.5007095336914,77.0282211303711" fill="none" stroke="#dd3333" stroke-width="0.80"/>
<polyline points="88.5007095336914,77.0282211303711 9.737421989440918,58.32763671875" fill="none" stroke="#dd3333" stroke-width="0.80"/>
<path d="M9.737421989440918,58.32763671875 C2.703963279724121,55.00950622558594 2.814021348953247,56.73923873901367 4.424736022949219,47.242347717285156" fill="none" stroke="#dd3333" stroke-width="0.80"/>
<polyline points="4.424736022949219,47.242347717285156 13.475725173950195,-1.7882330417633057" fill="none" stroke="#dd3333" stroke-width="0.80"/>
<path d="M13.475725173950195,-1.7882330417633057 C16.003345489501953,-7.878438472747803 19.513967514038086,-7.50843620300293 24.904321670532227,-8.618974685668945" fill="none" stroke="#dd3333" stroke-width="0.80"/>
<polygon points="93.41903686523438,24.831336975097656 122.56573486328125,15.617393493652344 117.95877075195312,1.0440425872802734 88.81207275390625,10.257986068725586" fill="#ff8800" fill-opacity="0.12" stroke="#ff8800" stroke-width="0.3" stroke-dasharray="2,2"/>
<polygon points="80.9271240234375,65.49186706542969 96.07429504394531,88.56455993652344 107.61064147949219,80.99098205566406 92.46347045898438,57.91828918457031" fill="#ff8800" fill-opacity="0.12" stroke="#ff8800" stroke-width="0.3" stroke-dasharray="2,2"/>
<polygon points="15.510025024414062,41.92966079711914 -6.660552978515625,52.55503463745117 -1.3478670120239258,63.640323638916016 20.822711944580078,53.014949798583984" fill="#ff8800" fill-opacity="0.12" stroke="#ff8800" stroke-width="0.3" stroke-dasharray="2,2"/>
<polygon points="31.735063552856445,2.809621810913086 18.073579788208008,-20.047571182250977 6.644983291625977,-13.216829299926758 20.306467056274414,9.640363693237305" fill="#ff8800" fill-opacity="0.12" stroke="#ff8800" stroke-width="0.3" stroke-dasharray="2,2"/>
</g>
</svg>
