<svg xmlns="http://www.w3.org/2000/svg" width="406" height="329" viewBox="-11.55 -88.74 135.52 109.68">
<rect x="-11.55" y="-88.74" width="135.52" height="109.68" fill="white"/>
<g transform="scale(1,-1)">
<polyline points="10,0 90,0" fill="none" stroke="#4466aa" stroke-width="0.80" stroke-dasharray="4,2"/>
<path d="M90,0 C95.5228500366211,0 100,4.477152347564697 100,10" fill="none" stroke="#4466aa" stroke-width="0.80" stroke-dasharray="4,2"/>
<polyline points="100,10 100,60" fill="none" stroke="#4466aa" stroke-width="0.80" stroke-dasharray="4,2"/>
<path d="M100,60 C100,65.5228500366211 95.5228500366211,70 90,70" fill="none" stroke="#4466aa" stroke-width="0.80" stroke-dasharray="4,2"/>
<polyline points="90,70 10,70" fill="none" stroke="#4466aa" stroke-width="0.80" stroke-dasharray="4,2"/>
<path d="M10,70 C4.477152347564697,70 0,65.5228500366211 0,60" fill="none" stroke="#4466aa" stroke-width="0.80" stroke-dasharray="4,2"/>
<polyline points="0,60 0,10" fill="none" stroke="#4466aa" stroke-width="0.80" stroke-dasharray="4,2"/>
<path d="M0,10 C0,4.477152347564697 4.477152347564697,0 10,0" fill="none" stroke="#4466aa" stroke-width="0.80" stroke-dasharray="4,2"/>
<polyline points="25.141613006591797,-9.615194320678711 103.39342498779297,7.017744064331055" fill="none" stroke="#33aa33" stroke-width="0.80" stroke-dasharray="6,3"/>
<path d="M103.39342498779297,7.017744064331055 C108.79218292236328,8.165285110473633 112.07665252685547,14.233436584472656 110.7294921875,20.571338653564453" fill="none" stroke="#33aa33" stroke-width="0.80" stroke-dasharray="6,3"/>
<polyline points="110.7294921875,20.571338653564453 100.33390808105469,69.47872161865234" fill="none" stroke="#33aa33" stroke-width="0.80" stroke-dasharray="6,3"/>
<path d="M100.33390808105469,69.47872161865234 C99.23085021972656,74.6681900024414 93.9600830078125,77.94480895996094 88.56132507324219,76.79727172851562" fill="none" stroke="#33aa33" stroke-width="0.80" stroke-dasharray="6,3"/>
<polyline points="88.56132507324219,76.79727172851562 10.309515953063965,60.164329528808594" fill="none" stroke="#33aa33" stroke-width="0.80" stroke-dasharray="6,3"/>
<path d="M10.309515953063965,60.164329528808594 C4.086488723754883,58.841583251953125 -0.06406974792480469,53.562400817871094 1.0389862060546875,48.37293243408203" fill="none" stroke="#33aa33" stroke-width="0.80" stroke-dasharray="6,3"/>
<polyline points="1.0389862060546875,48.37293243408203 11.434572219848633,-0.534449577331543" fill="none" stroke="#33aa33" stroke-width="0.80" stroke-dasharray="6,3"/>
<path d="M11.434572219848633,-0.534449577331543 C12.781734466552734,-6.87235164642334 18.91858673095703,-10.937939643859863 25.141613006591797,-9.615194320678711" fill="none" stroke="#33aa33" stroke-width="0.80" stroke-dasharray="6,3"/>
<polyline points="24.9532470703125,-8.729007720947266 26.082294464111328,-9.231024742126465 26.90229034423828,-8.279061317443848 29.052650451660156,-8.776239395141602 30.23188018798828,-9.514350891113281 30.982891082763672,-8.237844467163086 31.83064079284668,-7.416450023651123 33.07905960083008,-8.480064392089844 33.83616256713867,-7.232220649719238 35.11106872558594,-8.420441627502441 36.10694885253906,-8.295969009399414 38.00892639160156,-7.624588966369629 39.766502380371094,-6.273871898651123 40.891475677490234,-6.756715297698975 42.61799621582031,-5.259894847869873 43.714134216308594,-5.607085227966309 44.655616760253906,-5.22667121887207 45.81816864013672,-5.88630485534668 46.659088134765625,-5.032787322998047 47.624786376953125,-4.766314506530762 48.546783447265625,-4.294229030609131 49.65523147583008,-4.699334621429443 50.54011917114258,-4.052673816680908 51.50477981567383,-3.7813048362731934 52.56913757324219,-3.978984832763672 53.405235290527344,-3.1027750968933105 55.56537628173828,-3.645975112915039 56.627906799316406,-3.83505916595459 57.49466323852539,-3.103093147277832 58.19083786010742,-1.5686044692993164 59.45779037475586,-2.719400405883789 61.32823181152344,-1.8996696472167969 63.319313049316406,-1.6475114822387695 64.2603759765625,-1.2651309967041016 65.1507797241211,-0.6444034576416016 66.12488555908203,-0.41747379302978516 68.2606201171875,-0.8458490371704102 69.07728576660156,0.12176132202148438 70.29876708984375,-0.8151340484619141 70.92111206054688,1.0667181015014648 71.9464340209961,1.0526885986328125 72.8906478881836,1.4202423095703125 74.13946533203125,0.35476112365722656 74.95904541015625,1.3086776733398438 76.17445373535156,0.40033721923828125 77.10115051269531,0.8503093719482422 77.89368438720703,1.9314794540405273 78.87765502929688,2.112006187438965 80.03022003173828,1.4993677139282227 80.93682098388672,2.043832778930664 81.96533966064453,2.0148000717163086 82.78079223632812,2.988123893737793 83.9847412109375,2.1337451934814453 84.87471771240234,2.7564163208007812 85.95922088623047,2.4640045166015625 86.8630142211914,3.0217065811157227 87.90186309814453,2.9440670013427734 88.89261627197266,3.092649459838867 89.87197875976562,3.2948360443115234 90.73575592041016,4.04083251953125 91.52729797363281,5.126654624938965 92.70710754394531,4.385795593261719 93.41474151611328,5.866385459899902 94.62232971191406,4.994897842407227 95.49915313720703,5.679477691650391 97.64570617675781,5.200193405151367 101.4180908203125,6.691457748413086 102.28887939453125,7.404489517211914 103.30268859863281,7.444610595703125 103.45761108398438,6.783868789672852 104.30265045166016,7.44386100769043 105.9040756225586,8.549680709838867 107.06423950195312,8.600833892822266 107.708740234375,9.390356063842773 107.81428527832031,10.599504470825195 108.4952163696289,11.252124786376953 110.379150390625,11.281824111938477 110.48660278320312,12.420448303222656 110.5621566772461,13.500957489013672 111.73644256591797,16.43043327331543 111.8598861694336,17.48556137084961 111.93707275390625,18.55270767211914 111.83145904541016,19.615127563476562 111.18182373046875,20.55474090576172 111.61534881591797,20.751205444335938 111.69697570800781,20.776981353759766 110.99040222167969,21.64913558959961 110.719482421875,22.6138916015625 110.11390686035156,23.50751495361328 110.51908874511719,24.615982055664062 110.2117691040039,25.572998046875 108.84508514404297,27.327178955078125 109.58472442626953,28.506736755371094 109.47354888916016,29.505447387695312 109.35313415527344,30.50218963623047 107.65182495117188,31.16290283203125 107.8689193725586,32.23139190673828 108.20886993408203,33.32598876953125 107.0773696899414,34.107826232910156 108.21634674072266,35.37226104736328 107.09053802490234,36.155303955078125 106.66255950927734,37.08667755126953 106.01139831542969,37.97060775756836 107.5596923828125,39.322052001953125 106.41474151611328,40.10102081298828 105.71453857421875,40.97452926635742 106.97695922851562,42.26520538330078 105.42474365234375,43.97995376586914 106.27964782714844,45.18401336669922 105.36956787109375,46.012908935546875 104.77059936523438,46.907936096191406 103.93016052246094,47.75163269042969 104.21060943603516,48.833587646484375 104.5325927734375,49.92436218261719 104.68145751953125,50.97834777832031 104.49755859375,52.98394012451172 104.141357421875,53.93056869506836 103.53010559082031,54.82298278808594 102.49314880371094,55.624908447265625 102.19664764404297,56.584228515625 102.91400146484375,57.75904846191406 102.91191101074219,58.78094482421875 101.95335388183594,59.59954071044922 102.25419616699219,60.685821533203125 102.15750885009766,61.68761444091797 101.4476089477539,62.559059143066406 101.72494506835938,64.66268920898438 101.75360107421875,65.69112396240234 101.52611541748047,66.66510772705078 101.26763153076172,67.63250732421875 101.38853454589844,68.6805419921875 101.17872619628906,69.65829467773438 99.84260559082031,69.34622955322266 100.79972839355469,70.68182373046875 99.87495422363281,71.44912719726562 99.08187103271484,73.3807144165039 98.09210968017578,73.89387512207031 96.11334228515625,74.55326080322266 95.98381042480469,76.18960571289062 94.05352020263672,77.0252456665039 93.10672760009766,77.6098403930664 92.03759765625,77.77632141113281 90.95137786865234,77.44877624511719 89.92400360107422,77.24869537353516 88.90576171875,77.18904876708984 88.51318359375,77.04828643798828 88.62112426757812,76.51594543457031 87.45123291015625,77.21011352539062 86.5988540649414,76.41047668457031 85.63185119628906,76.15019989013672 84.77098083496094,75.39051818847656 83.75040435791016,75.38220977783203 82.6743392944336,75.63494873046875 81.64567565917969,75.66473388671875 80.92587280273438,74.24137115478516 78.93421936035156,73.99188232421875 77.66987609863281,75.13040161132812 76.92601013183594,73.82032775878906 75.92544555664062,73.71784973144531 74.94819641113281,73.50572967529297 73.7863540649414,74.1620101928711 73.09294128417969,72.61454010009766 71.90673828125,73.38545227050781 71.0850830078125,72.44132232666016 69.78898620605469,73.72920227050781 69.01725006103516,72.55023956298828 67.98088836669922,72.6162109375 67.0831298828125,72.03009033203125 65.86283874511719,72.96133422851562 65.03357696533203,72.05300903320312 64.03082275390625,71.96086883544922 63.2386360168457,70.87806701660156 60.977806091308594,71.89497375488281 60.336151123046875,70.10397338867188 59.00995635986328,71.53350830078125 58.34761047363281,69.83985137939453 57.25006866455078,70.19364166259766 56.47038269042969,69.05204010009766 55.38374328613281,69.35455322265625 54.295108795166016,69.66643524169922 53.34135437011719,69.34378051757812 51.24604797363281,69.58195495605469 50.30070114135742,69.21971130371094 49.610599517822266,67.65666198730469 48.467796325683594,68.22339630126953 47.55150604248047,67.72445678710938 46.443626403808594,68.12687683105469 45.552268981933594,67.51065063476562 44.60366439819336,67.16376495361328 43.69277572631836,66.63941192626953 42.6757926940918,66.61420440673828 41.40975570678711,67.76071166992188 39.547664642333984,66.90168762207031 38.66249084472656,66.25638580322266 36.64585494995117,66.12444305419922 35.905982971191406,64.79551696777344 34.945777893066406,64.5031967163086 33.629886627197266,65.88424682617188 32.85939025878906,64.69942474365234 31.656982421875,65.54656219482422 29.749927520751953,64.89908599853516 28.918651580810547,64.00019073486328 27.717069625854492,64.84345245361328 26.942079544067383,63.67976379394531 25.821823120117188,64.14041137695312 24.80447769165039,64.1169204711914 24.192852020263672,62.184661865234375 21.866600036621094,63.50933837890625 21.21521759033203,61.764122009277344 19.934284210205078,62.98069763183594 19.18783950805664,61.682708740234375 18.097064971923828,62.004676818847656 17.086437225341797,61.949562072753906 16.334484100341797,60.677490234375 15.34426212310791,60.526390075683594 14.209698677062988,61.054359436035156 13.379535675048828,60.150230407714844 12.194538116455078,60.91547393798828 11.366772651672363,60.00006103515625 10.306266784667969,60.17962646484375 10.41450023651123,59.74467468261719 9.390162467956543,59.74674987792969 8.211599349975586,60.09126281738281 7.867710590362549,58.34855651855469 6.479122161865234,58.948097229003906 5.55169677734375,58.51256561279297 5.403940200805664,57.04042053222656 4.407970428466797,56.745460510253906 4.0796003341674805,55.74030303955078 3.0164947509765625,55.390098571777344 1.5661630630493164,55.13890075683594 2.0908145904541016,53.689918518066406 0.5755634307861328,53.21269226074219 0.8347568511962891,52.03011703491211 1.3228445053100586,50.94071960449219 0.10925865173339844,49.982032775878906 0.2959175109863281,48.92218780517578 1.5543498992919922,48.46183776855469 0.6605033874511719,47.2701416015625 1.5146198272705078,46.429351806640625 2.323841094970703,45.57901382446289 1.647557258605957,42.36824417114258 1.8928594589233398,41.39804458618164 1.9318485260009766,40.38399124145508 2.3885879516601562,39.45873260498047 3.4658069610595703,38.66536331176758 2.956941604614258,37.53485870361328 3.6481943130493164,36.65945053100586 4.4978532791137695,35.817710876464844 3.263848304748535,34.5330696105957 3.7243480682373047,33.60861587524414 5.277256011962891,32.916351318359375 4.255660057067871,31.676868438720703 4.541682243347168,30.715320587158203 4.920637130737305,29.77353286743164 4.392624855041504,28.638957977294922 4.957338333129883,26.714309692382812 5.264930725097656,23.712669372558594 6.541177749633789,22.96160125732422 6.924436569213867,22.020729064941406 7.740185260772705,20.149438858032227 7.074611663818359,18.985624313354492 7.335409164428711,18.018718719482422 8.14837646484375,17.169179916381836 7.181140899658203,15.941247940063477 7.7921648025512695,15.048784255981445 8.7757568359375,14.235511779785156 7.607902526855469,12.964937210083008 9.124788284301758,12.265018463134766 9.022733688354492,11.220985412597656 10.06924819946289,10.421089172363281 8.931642532348633,9.156942367553711 9.985925674438477,8.358697891235352 9.257919311523438,7.181613922119141 10.12297248840332,6.343147277832031 10.655988693237305,5.4341020584106445 9.819026947021484,4.233860015869141 10.388792991638184,3.3326263427734375 10.667749404907227,2.3695802688598633 11.387920379638672,1.5003166198730469 10.901658058166504,0.3746166229248047 10.730613708496094,-0.6840801239013672 11.804418563842773,-0.43956851959228516 11.254057884216309,-1.631917953491211 12.292092323303223,-2.336210250854492 12.79275894165039,-4.300650596618652 12.793912887573242,-5.548450469970703 14.376556396484375,-5.5890212059021 14.981539726257324,-6.350724697113037 16.124595642089844,-6.488978385925293 16.018890380859375,-8.262600898742676 16.715665817260742,-9.14754867553711 17.689350128173828,-9.603791236877441 18.958160400390625,-9.238633155822754 20.16912841796875,-8.564286231994629 21.028207778930664,-8.965245246887207 21.95970916748047,-9.011666297912598 22.902000427246094,-10.572688102722168 23.958576202392578,-10.473605155944824 24.771121978759766,-8.950950622558594 24.96803092956543,-8.744637489318848" fill="none" stroke="#999999" stroke-width="0.3" stroke-dasharray="1,1"/>
<circle cx="24.9532470703125" cy="-8.729007720947266" r="0.40" fill="#aaaaaa"/>
<circle cx="29.052650451660156" cy="-8.776239395141602" r="0.40" fill="#aaaaaa"/>
<circle cx="31.83064079284668" cy="-7.416450023651123" r="0.40" fill="#aaaaaa"/>
<circle cx="35.11106872558594" cy="-8.420441627502441" r="0.40" fill="#aaaaaa"/>
<circle cx="39.766502380371094" cy="-6.273871898651123" r="0.40" fill="#aaaaaa"/>
<circle cx="43.714134216308594" cy="-5.607085227966309" r="0.40" fill="#aaaaaa"/>
<circle cx="46.659088134765625" cy="-5.032787322998047" r="0.40" fill="#aaaaaa"/>
<circle cx="49.65523147583008" cy="-4.699334621429443" r="0.40" fill="#aaaaaa"/>
<circle cx="52.56913757324219" cy="-3.978984832763672" r="0.40" fill="#aaaaaa"/>
<circle cx="56.627906799316406" cy="-3.83505916595459" r="0.40" fill="#aaaaaa"/>
<circle cx="59.45779037475586" cy="-2.719400405883789" r="0.40" fill="#aaaaaa"/>
<circle cx="64.2603759765625" cy="-1.2651309967041016" r="0.40" fill="#aaaaaa"/>
<circle cx="68.2606201171875" cy="-0.8458490371704102" r="0.40" fill="#aaaaaa"/>
<circle cx="70.92111206054688" cy="1.0667181015014648" r="0.40" fill="#aaaaaa"/>
<circle cx="74.13946533203125" cy="0.35476112365722656" r="0.40" fill="#aaaaaa"/>
<circle cx="77.10115051269531" cy="0.8503093719482422" r="0.40" fill="#aaaaaa"/>
<circle cx="80.03022003173828" cy="1.4993677139282227" r="0.40" fill="#aaaaaa"/>
<circle cx="82.78079223632812" cy="2.988123893737793" r="0.40" fill="#aaaaaa"/>
<circle cx="85.95922088623047" cy="2.4640045166015625" r="0.40" fill="#aaaaaa"/>
<circle cx="88.89261627197266" cy="3.092649459838867" r="0.40" fill="#aaaaaa"/>
<circle cx="91.52729797363281" cy="5.126654624938965" r="0.40" fill="#aaaaaa"/>
<circle cx="94.62232971191406" cy="4.994897842407227" r="0.40" fill="#aaaaaa"/>
<circle cx="101.4180908203125" cy="6.691457748413086" r="0.40" fill="#aaaaaa"/>
<circle cx="103.45761108398438" cy="6.783868789672852" r="0.40" fill="#aaaaaa"/>
<circle cx="107.06423950195312" cy="8.600833892822266" r="0.40" fill="#aaaaaa"/>
<circle cx="108.4952163696289" cy="11.252124786376953" r="0.40" fill="#aaaaaa"/>
<circle cx="110.5621566772461" cy="13.500957489013672" r="0.40" fill="#aaaaaa"/>
<circle cx="111.93707275390625" cy="18.55270767211914" r="0.40" fill="#aaaaaa"/>
<circle cx="111.61534881591797" cy="20.751205444335938" r="0.40" fill="#aaaaaa"/>
<circle cx="110.719482421875" cy="22.6138916015625" r="0.40" fill="#aaaaaa"/>
<circle cx="110.2117691040039" cy="25.572998046875" r="0.40" fill="#aaaaaa"/>
<circle cx="109.47354888916016" cy="29.505447387695312" r="0.40" fill="#aaaaaa"/>
<circle cx="107.8689193725586" cy="32.23139190673828" r="0.40" fill="#aaaaaa"/>
<circle cx="108.21634674072266" cy="35.37226104736328" r="0.40" fill="#aaaaaa"/>
<circle cx="106.01139831542969" cy="37.97060775756836" r="0.40" fill="#aaaaaa"/>
<circle cx="105.71453857421875" cy="40.97452926635742" r="0.40" fill="#aaaaaa"/>
<circle cx="106.27964782714844" cy="45.18401336669922" r="0.40" fill="#aaaaaa"/>
<circle cx="103.93016052246094" cy="47.75163269042969" r="0.40" fill="#aaaaaa"/>
<circle cx="104.68145751953125" cy="50.97834777832031" r="0.40" fill="#aaaaaa"/>
<circle cx="103.53010559082031" cy="54.82298278808594" r="0.40" fill="#aaaaaa"/>
<circle cx="102.91400146484375" cy="57.75904846191406" r="0.40" fill="#aaaaaa"/>
<circle cx="102.25419616699219" cy="60.685821533203125" r="0.40" fill="#aaaaaa"/>
<circle cx="101.72494506835938" cy="64.66268920898438" r="0.40" fill="#aaaaaa"/>
<circle cx="101.26763153076172" cy="67.63250732421875" r="0.40" fill="#aaaaaa"/>
<circle cx="99.84260559082031" cy="69.34622955322266" r="0.40" fill="#aaaaaa"/>
<circle cx="99.08187103271484" cy="73.3807144165039" r="0.40" fill="#aaaaaa"/>
<circle cx="95.98381042480469" cy="76.18960571289062" r="0.40" fill="#aaaaaa"/>
<circle cx="92.03759765625" cy="77.77632141113281" r="0.40" fill="#aaaaaa"/>
<circle cx="88.90576171875" cy="77.18904876708984" r="0.40" fill="#aaaaaa"/>
<circle cx="87.45123291015625" cy="77.21011352539062" r="0.40" fill="#aaaaaa"/>
<circle cx="84.77098083496094" cy="75.39051818847656" r="0.40" fill="#aaaaaa"/>
<circle cx="81.64567565917969" cy="75.66473388671875" r="0.40" fill="#aaaaaa"/>
<circle cx="77.66987609863281" cy="75.13040161132812" r="0.40" fill="#aaaaaa"/>
<circle cx="74.94819641113281" cy="73.50572967529297" r="0.40" fill="#aaaaaa"/>
<circle cx="71.90673828125" cy="73.38545227050781" r="0.40" fill="#aaaaaa"/>
<circle cx="69.01725006103516" cy="72.55023956298828" r="0.40" fill="#aaaaaa"/>
<circle cx="65.86283874511719" cy="72.96133422851562" r="0.40" fill="#aaaaaa"/>
<circle cx="63.2386360168457" cy="70.87806701660156" r="0.40" fill="#aaaaaa"/>
<circle cx="59.00995635986328" cy="71.53350830078125" r="0.40" fill="#aaaaaa"/>
<circle cx="56.47038269042969" cy="69.05204010009766" r="0.40" fill="#aaaaaa"/>
<circle cx="53.34135437011719" cy="69.34378051757812" r="0.40" fill="#aaaaaa"/>
<circle cx="49.610599517822266" cy="67.65666198730469" r="0.40" fill="#aaaaaa"/>
<circle cx="46.443626403808594" cy="68.12687683105469" r="0.40" fill="#aaaaaa"/>
<circle cx="43.69277572631836" cy="66.63941192626953" r="0.40" fill="#aaaaaa"/>
<circle cx="39.547664642333984" cy="66.90168762207031" r="0.40" fill="#aaaaaa"/>
<circle cx="35.905982971191406" cy="64.79551696777344" r="0.40" fill="#aaaaaa"/>
<circle cx="32.85939025878906" cy="64.69942474365234" r="0.40" fill="#aaaaaa"/>
<circle cx="28.918651580810547" cy="64.00019073486328" r="0.40" fill="#aaaaaa"/>
<circle cx="25.821823120117188" cy="64.14041137695312" r="0.40" fill="#aaaaaa"/>
<circle cx="21.866600036621094" cy="63.50933837890625" r="0.40" fill="#aaaaaa"/>
<circle cx="19.18783950805664" cy="61.682708740234375" r="0.40" fill="#aaaaaa"/>
<circle cx="16.334484100341797" cy="60.677490234375" r="0.40" fill="#aaaaaa"/>
<circle cx="13.379535675048828" cy="60.150230407714844" r="0.40" fill="#aaaaaa"/>
<circle cx="10.306266784667969" cy="60.17962646484375" r="0.40" fill="#aaaaaa"/>
<circle cx="8.211599349975586" cy="60.09126281738281" r="0.40" fill="#aaaaaa"/>
<circle cx="5.55169677734375" cy="58.51256561279297" r="0.40" fill="#aaaaaa"/>
<circle cx="4.0796003341674805" cy="55.74030303955078" r="0.40" fill="#aaaaaa"/>
<circle cx="2.0908145904541016" cy="53.689918518066406" r="0.40" fill="#aaaaaa"/>
<circle cx="1.3228445053100586" cy="50.94071960449219" r="0.40" fill="#aaaaaa"/>
<circle cx="1.5543498992919922" cy="48.46183776855469" r="0.40" fill="#aaaaaa"/>
<circle cx="2.323841094970703" cy="45.57901382446289" r="0.40" fill="#aaaaaa"/>
<circle cx="1.9318485260009766" cy="40.38399124145508" r="0.40" fill="#aaaaaa"/>
<circle cx="2.956941604614258" cy="37.53485870361328" r="0.40" fill="#aaaaaa"/>
<circle cx="3.263848304748535" cy="34.5330696105957" r="0.40" fill="#aaaaaa"/>
<circle cx="4.255660057067871" cy="31.676868438720703" r="0.40" fill="#aaaaaa"/>
<circle cx="4.392624855041504" cy="28.638957977294922" r="0.40" fill="#aaaaaa"/>
<circle cx="6.541177749633789" cy="22.96160125732422" r="0.40" fill="#aaaaaa"/>
<circle cx="7.074611663818359" cy="18.985624313354492" r="0.40" fill="#aaaaaa"/>
<circle cx="7.181140899658203" cy="15.941247940063477" r="0.40" fill="#aaaaaa"/>
<circle cx="7.607902526855469" cy="12.964937210083008" r="0.40" fill="#aaaaaa"/>
<circle cx="10.06924819946289" cy="10.421089172363281" r="0.40" fill="#aaaaaa"/>
<circle cx="9.257919311523438" cy="7.181613922119141" r="0.40" fill="#aaaaaa"/>
<circle cx="9.819026947021484" cy="4.233860015869141" r="0.40" fill="#aaaaaa"/>
<circle cx="11.387920379638672" cy="1.5003166198730469" r="0.40" fill="#aaaaaa"/>
<circle cx="11.804418563842773" cy="-0.43956851959228516" r="0.40" fill="#aaaaaa"/>
<circle cx="12.79275894165039" cy="-4.300650596618652" r="0.40" fill="#aaaaaa"/>
<circle cx="14.981539726257324" cy="-6.350724697113037" r="0.40" fill="#aaaaaa"/>
<circle cx="16.715665817260742" cy="-9.14754867553711" r="0.40" fill="#aaaaaa"/>
<circle cx="20.16912841796875" cy="-8.564286231994629" r="0.40" fill="#aaaaaa"/>
<circle cx="22.902000427246094" cy="-10.572688102722168" r="0.40" fill="#aaaaaa"/>
<circle cx="24.96803092956543" cy="-8.744637489318848" r="0.40" fill="#aaaaaa"/>
<polyline points="87.09784698486328,76.87859344482422 9.301596641540527,59.772640228271484" fill="none" stroke="#dd3333" stroke-width="0.80"/>
<path d="M9.301596641540527,59.772640228271484 C4.520308494567871,57.77711486816406 -1.5476622581481934,53.245750427246094 1.2742658853530884,46.66595458984375" fill="none" stroke="#dd3333" stroke-width="0.80"/>
<polyline points="1.2742658853530884,46.66595458984375 12.292092323303223,-2.336210250854492" fill="none" stroke="#dd3333" stroke-width="0.80"/>
<path d="M12.292092323303223,-2.336210250854492 C13.920234680175781,-8.356786727905273 19.59908103942871,-10.434929847717285 24.661876678466797,-9.155667304992676" fill="none" stroke="#dd3333" stroke-width="0.80"/>
<polyline points="24.661876678466797,-9.155667304992676 102.8211898803711,7.425555229187012" fill="none" stroke="#dd3333" stroke-width="0.80"/>
<path d="M102.8211898803711,7.425555229187012 C107.89950561523438,7.830014705657959 113.96910858154297,14.888928413391113 111.18182373046875,20.55474090576172" fill="none" stroke="#dd3333" stroke-width="0.80"/>
<polyline points="111.18182373046875,20.55474090576172 99.84260559082031,69.34622955322266" fill="none" stroke="#dd3333" stroke-width="0.80"/>
<path d="M99.84260559082031,69.34622955322266 C99.54241943359375,75.9998779296875 92.32141876220703,78.7432861328125 87.09784698486328,76.87859344482422" fill="none" stroke="#dd3333" stroke-width="0.80"/>
<polygon points="14.380951881408691,38.63862609863281 -11.832419395446777,54.69328308105469 -3.805088996887207,67.79997253417969 22.408283233642578,51.74531555175781" fill="#ff8800" fill-opacity="0.12" stroke="#ff8800" stroke-width="0.3" stroke-dasharray="2,2"/>
<polygon points="31.481334686279297,3.2141170501708984 17.842418670654297,-21.52545166015625 5.472634315490723,-14.705994606018066 19.111549377441406,10.033574104309082" fill="#ff8800" fill-opacity="0.12" stroke="#ff8800" stroke-width="0.3" stroke-dasharray="2,2"/>
<polygon points="98.0526351928711,28.915374755859375 124.3110122680664,12.194107055664062 115.95038604736328,-0.9350781440734863 89.69200897216797,15.786190032958984" fill="#ff8800" fill-opacity="0.12" stroke="#ff8800" stroke-width="0.3" stroke-dasharray="2,2"/>
<polygon points="79.56549072265625,64.13383483886719 94.63021850585938,89.62335205078125 107.37496948242188,82.09098815917969 92.31024169921875,56.601470947265625" fill="#ff8800" fill-opacity="0.12" stroke="#ff8800" stroke-width="0.3" stroke-dasharray="2,2"/>
</g>
</svg>
