<svg xmlns="http://www.w3.org/2000/svg" width="400" height="332" viewBox="-10.00 -89.89 131.00 110.82">
<rect x="-10.00" y="-89.89" width="131.00" height="110.82" fill="white"/>
<g transform="scale(1,-1)">
<polyline points="10,0 90,0" fill="none" stroke="#4466aa" stroke-width="0.80" stroke-dasharray="4,2"/>
<path d="M90,0 C95.5228500366211,0 100,4.477152347564697 100,10" fill="none" stroke="#4466aa" stroke-width="0.80" stroke-dasharray="4,2"/>
<polyline points="100,10 100,60" fill="none" stroke="#4466aa" stroke-width="0.80" stroke-dasharray="4,2"/>
<path d="M100,60 C100,65.5228500366211 95.5228500366211,70 90,70" fill="none" stroke="#4466aa" stroke-width="0.80" stroke-dasharray="4,2"/>
<polyline points="90,70 10,70" fill="none" stroke="#4466aa" stroke-width="0.80" stroke-dasharray="4,2"/>
<path d="M10,70 C4.477152347564697,70 0,65.5228500366211 0,60" fill="none" stroke="#4466aa" stroke-width="0.80" stroke-dasharray="4,2"/>
<polyline points="0,60 0,10" fill="none" stroke="#4466aa" stroke-width="0.80" stroke-dasharray="4,2"/>
<path d="M0,10 C0,4.477152347564697 4.477152347564697,0 10,0" fill="none" stroke="#4466aa" stroke-width="0.80" stroke-dasharray="4,2"/>
<polyline points="25.141613006591797,-9.615194320678711 105.30615997314453,4.487387657165527" fill="none" stroke="#33aa33" stroke-width="0.80" stroke-dasharray="6,3"/>
<path d="M105.30615997314453,4.487387657165527 C110.70491790771484,5.6349287033081055 109.10839080810547,13.7886962890625 107.76123046875,20.126598358154297" fill="none" stroke="#33aa33" stroke-width="0.80" stroke-dasharray="6,3"/>
<polyline points="107.76123046875,20.126598358154297 100.33390808105469,69.47872161865234" fill="none" stroke="#33aa33" stroke-width="0.80" stroke-dasharray="6,3"/>
<path d="M100.33390808105469,69.47872161865234 C99.23085021972656,74.6681900024414 93.9600830078125,77.94480895996094 88.56132507324219,76.79727172851562" fill="none" stroke="#33aa33" stroke-width="0.80" stroke-dasharray="6,3"/>
<polyline points="88.56132507324219,76.79727172851562 8.109832763671875,57.75508117675781" fill="none" stroke="#33aa33" stroke-width="0.80" stroke-dasharray="6,3"/>
<path d="M8.109832763671875,57.75508117675781 C1.8868045806884766,56.432334899902344 1.67047119140625,54.03678894042969 2.773527145385742,48.847312927246094" fill="none" stroke="#33aa33" stroke-width="0.80" stroke-dasharray="6,3"/>
<polyline points="2.773527145385742,48.847312927246094 11.434572219848633,-0.534449577331543" fill="none" stroke="#33aa33" stroke-width="0.80" stroke-dasharray="6,3"/>
<path d="M11.434572219848633,-0.534449577331543 C12.781734466552734,-6.87235164642334 18.91858673095703,-10.937939643859863 25.141613006591797,-9.615194320678711" fill="none" stroke="#33aa33" stroke-width="0.80" stroke-dasharray="6,3"/>
<polyline points="24.984642028808594,-8.722911834716797 26.088008880615234,-9.265741348266602 26.93383026123047,-8.344589233398438 29.050785064697266,-8.919905662536621 30.19597053527832,-9.70045280456543 30.98430633544922,-8.45252513885498 31.853256225585938,-7.662839412689209 33.05609893798828,-8.771129608154297 33.849510192871094,-7.552061557769775 35.074424743652344,-8.785815238952637 36.06681823730469,-8.697845458984375 37.976783752441406,-8.096565246582031 39.76642608642578,-6.811275482177734 40.86639404296875,-7.334798812866211 42.63014602661133,-5.902400970458984 43.70608901977539,-6.289339542388916 44.65315246582031,-5.943667411804199 45.7844352722168,-6.645197868347168 46.64769744873047,-5.82316780090332 47.61493682861328,-5.592220783233643 48.54576110839844,-5.154247760772705 49.631961822509766,-5.599499225616455 50.5318603515625,-4.985750198364258 51.49823760986328,-4.749873161315918 52.547698974609375,-4.986271858215332 53.40693664550781,-4.141395092010498 55.53204345703125,-4.763050079345703 56.579978942871094,-4.990793228149414 57.46477127075195,-4.291150093078613 58.2074089050293,-2.783466339111328 59.425697326660156,-3.979537010192871 61.309383392333984,-3.228886604309082 63.293609619140625,-3.049711227416992 64.24032592773438,-2.702059745788574 65.14480590820312,-2.11442232131958 66.11906433105469,-1.9232902526855469 68.22383117675781,-2.429330825805664 69.06687927246094,-1.492422103881836 70.24727630615234,-2.473123073577881 70.92838287353516,-0.6156845092773438 71.9453125,-0.6671714782714844 72.8946533203125,-0.33444786071777344 74.09782409667969,-1.4446172714233398 74.94329833984375,-0.5214977264404297 76.11863708496094,-1.4734477996826172 77.05338287353516,-1.0577383041381836 77.8763198852539,-0.006488800048828125 78.85877990722656,0.13791942596435547 79.98175048828125,-0.5162906646728516 80.89974975585938,-0.005442619323730469 81.9193344116211,-0.07203292846679688 82.7613754272461,0.8706283569335938 83.92716217041016,-0.026987075805664062 84.831298828125,0.5626077651977539 85.89754486083984,0.23082351684570312 86.81319427490234,0.7550029754638672 87.84139251708984,0.6394729614257812 88.82952117919922,0.7517166137695312 89.80815124511719,0.9179353713989258 90.69046020507812,1.6317024230957031 91.51256561279297,2.6876344680786133 92.65824127197266,1.904322624206543 93.41043090820312,3.357736587524414 94.57923889160156,2.4428958892822266 95.47241973876953,3.0948238372802734 97.5862045288086,2.537525177001953 101.37982940673828,3.8896102905273438 102.26797485351562,4.570186614990234 103.27532196044922,4.5732269287109375 104.37055969238281,4.076549530029297 105.276611328125,4.655370712280273 106.05563354492188,5.237590789794922 107.19712829589844,5.195596694946289 107.78932189941406,6.031490325927734 107.63680267333984,7.204931259155273 108.08831024169922,7.978525161743164 109.85896301269531,8.607786178588867 109.579345703125,9.719776153564453 109.29931640625,10.760671615600586 109.6557388305664,13.843460083007812 109.58985900878906,14.86465835571289 109.5333023071289,15.886598587036133 109.35515594482422,16.886608123779297 108.69157409667969,17.788631439208984 108.94873809814453,18.86604881286621 108.82730102539062,19.86687469482422 108.2301254272461,20.22593879699707 108.17150115966797,20.188343048095703 107.62092590332031,21.114879608154297 108.09219360351562,22.195205688476562 107.8431396484375,23.16712188720703 106.58477783203125,24.996536254882812 107.39415740966797,26.127742767333984 107.34341430664062,27.129505157470703 107.2833251953125,28.129863739013672 105.62501525878906,28.889686584472656 105.90613555908203,29.941390991210938 106.31144714355469,31.011791229248047 105.22920989990234,31.858314514160156 106.44229125976562,33.0502815246582 105.36579895019531,33.897666931152344 104.99475860595703,34.851226806640625 104.39810943603516,35.77082824707031 106.0250244140625,37.02507400512695 104.92916870117188,37.86954879760742 104.2829360961914,38.78169250488281 105.62083435058594,39.99243927001953 104.17488861083984,41.79362487792969 105.10081481933594,42.9423713684082 104.24240112304688,43.82258605957031 103.6985092163086,44.75012969970703 102.9104995727539,45.64093017578125 103.25566864013672,46.70227813720703 103.64282989501953,47.76993942260742 103.8549575805664,48.81126403808594 103.7923355102539,50.820640563964844 103.49388885498047,51.785118103027344 102.93756866455078,52.710792541503906 101.95089721679688,53.57170104980469 101.71278381347656,54.545265197753906 102.49964141845703,55.67308044433594 102.55916595458984,56.691436767578125 101.6517562866211,57.56427001953125 102.01753997802734,58.62871551513672 101.98143768310547,59.63268280029297 101.32540130615234,60.54335021972656 101.72907257080078,62.622901916503906 101.81965637207031,63.64593505859375 101.65133666992188,64.62999725341797 101.45166778564453,65.60934448242188 101.63554382324219,66.64640808105469 101.48506927490234,67.63316345214844 99.9792709350586,68.41595458984375 101.0895004272461,69.59243774414062 100.50657653808594,69.52528381347656 100.1478271484375,71.57240295410156 99.29016876220703,72.28538513183594 97.49382781982422,73.34105682373047 97.7016372680664,74.96894836425781 95.9764633178711,76.17666625976562 95.1628646850586,76.93685913085938 94.14694213867188,77.31068420410156 93.01683807373047,77.20257568359375 91.96957397460938,77.20565032958984 90.94918060302734,77.34375 89.92384338378906,77.2508773803711 88.9922866821289,76.58738708496094 88.4417953491211,77.4205322265625 88.55448913574219,76.82615661621094 87.5975341796875,76.54463195800781 86.75814819335938,75.76628112792969 85.74185943603516,75.73542785644531 84.66410064697266,75.96427917480469 83.63883209228516,75.97134399414062 82.95573425292969,74.53271484375 80.97798919677734,74.23934936523438 79.69163513183594,75.34942626953125 78.98187255859375,74.02349853515625 77.98774719238281,73.89897918701172 77.01944732666016,73.66536712646484 75.84666442871094,74.29568481445312 75.19279479980469,72.73360443115234 73.99301147460938,73.47795867919922 73.19708251953125,72.51611328125 71.87555694580078,73.77477264404297 71.13491821289062,72.57929992675781 70.10113525390625,72.62235260009766 69.22090148925781,72.01666259765625 67.98336791992188,72.92052459716797 67.17900085449219,71.99430847167969 66.18244171142578,71.88005828857422 65.4191665649414,70.78024291992188 63.14320755004883,71.74674224853516 62.54667663574219,69.9423828125 61.191802978515625,71.34197998046875 60.572364807128906,69.63445281982422 59.47080993652344,69.9638442993164 58.72137451171875,68.80552673339844 57.63188171386719,69.08390808105469 56.54019546508789,69.37159729003906 55.59791564941406,69.02802276611328 53.50532913208008,69.21981048583984 52.57236862182617,68.83685302734375 51.92217254638672,67.25926208496094 50.77047348022461,67.80049896240234 49.86970138549805,67.28155517578125 48.756690979003906,67.65931701660156 47.883544921875,67.02366638183594 46.94697189331055,66.65599060058594 46.05218505859375,66.11175537109375 45.03987503051758,66.06409454345703 43.75164794921875,67.18212127685547 41.91741943359375,66.28235626220703 41.05112075805664,65.61779022216797 39.045684814453125,65.44136047363281 38.340362548828125,64.09669494628906 37.39094543457031,63.783287048339844 36.047489166259766,65.13465118408203 35.3082275390625,63.93335723876953 34.09049987792969,64.7535400390625 32.206451416015625,64.06423950195312 31.39986801147461,63.14738464355469 30.183048248291016,63.96372985839844 29.438814163208008,62.78343963623047 28.312091827392578,63.219139099121094 27.29937171936035,63.173187255859375 26.736116409301758,61.22828674316406 24.387683868408203,62.50098419189453 23.780380249023438,60.742156982421875 22.475656509399414,61.929901123046875 21.763044357299805,60.61601257324219 20.66897964477539,60.91374206542969 19.663707733154297,60.83631896972656 18.944988250732422,59.54821014404297 17.962318420410156,59.37531280517578 16.819738388061523,59.877967834472656 16.014381408691406,58.95592498779297 14.815940856933594,59.69464874267578 14.013243675231934,58.76136779785156 12.95271110534668,58.91741943359375 12.086649894714355,58.25181579589844 11.059662818908691,58.266143798828125 9.93012523651123,58.713706970214844 9.301947593688965,57.043113708496094 8.065330505371094,57.94310760498047 8.041274070739746,58.046722412109375 7.342304706573486,56.741798400878906 6.299012184143066,56.87683868408203 5.58624267578125,56.10453796386719 4.4886064529418945,56.21717834472656 3.006763458251953,56.43672180175781 3.206479072570801,54.901702880859375 1.6738834381103516,54.45417022705078 2.0323619842529297,53.24345397949219 2.679004669189453,52.23080825805664 1.605605125427246,51.13310623168945 1.8715496063232422,50.125022888183594 3.2028627395629883,49.350826263427734 2.183046340942383,48.74374771118164 3.003580093383789,47.88960647583008 3.778904914855957,47.027530670166016 2.9792985916137695,43.89311981201172 3.186774253845215,42.93145751953125 3.1864967346191406,41.93335723876953 3.606884002685547,41.009029388427734 4.652074813842773,40.19429016113281 4.100126266479492,39.09943389892578 4.756661415100098,38.216522216796875 5.572704315185547,37.361595153808594 4.290562629699707,36.138668060302734 4.7147369384765625,35.21500015258789 6.238931655883789,34.484275817871094 5.17067813873291,33.29886245727539 5.419157981872559,32.344383239746094 5.76121711730957,31.406326293945312 5.189988136291504,30.308082580566406 5.679563522338867,28.397842407226562 5.870691299438477,25.43719482421875 7.116296768188477,24.657608032226562 7.462691307067871,23.720298767089844 8.205053329467773,21.85439682006836 7.495303153991699,20.73185920715332 7.718381881713867,19.772930145263672 8.497479438781738,18.91152000427246 7.483965873718262,17.73570442199707 8.059711456298828,16.8386287689209 9.01062297821045,16.007354736328125 7.795092582702637,14.79610824584961 9.283014297485352,14.059017181396484 9.14071273803711,13.036003112792969 10.154985427856445,12.215843200683594 8.969913482666016,11.009939193725586 9.992008209228516,10.191146850585938 9.219390869140625,9.05758285522461 10.05093765258789,8.205373764038086 10.548131942749023,7.294519424438477 9.665800094604492,6.141712188720703 10.200000762939453,5.23735237121582 10.441366195678711,4.281627655029297 11.127018928527832,3.403829574584961 10.597830772399902,2.312962532043457 10.386058807373047,1.2777643203735352 11.640830993652344,0.49978065490722656 10.99336051940918,-0.6118326187133789 11.727912902832031,-0.4591951370239258 11.896514892578125,-2.492290496826172 11.687061309814453,-3.7223362922668457 13.240181922912598,-4.029456615447998 13.707798957824707,-4.882546424865723 14.81069564819336,-5.212373733520508 14.406745910644531,-6.942290306091309 14.942695617675781,-7.932094573974609 15.823521614074707,-8.547571182250977 17.13599395751953,-8.40504264831543 18.446008682250977,-7.949796676635742 19.223270416259766,-8.495104789733887 20.132646560668945,-8.704357147216797 20.78577995300293,-10.406617164611816 21.843219757080078,-10.495769500732422 22.886962890625,-9.139415740966797 23.805158615112305,-8.925628662109375 24.81375503540039,-9.225687980651855 24.978343963623047,-8.796364784240723" fill="none" stroke="#999999" stroke-width="0.3" stroke-dasharray="1,1"/>
<circle cx="24.984642028808594" cy="-8.722911834716797" r="0.40" fill="#aaaaaa"/>
<circle cx="29.050785064697266" cy="-8.919905662536621" r="0.40" fill="#aaaaaa"/>
<circle cx="31.853256225585938" cy="-7.662839412689209" r="0.40" fill="#aaaaaa"/>
<circle cx="35.074424743652344" cy="-8.785815238952637" r="0.40" fill="#aaaaaa"/>
<circle cx="39.76642608642578" cy="-6.811275482177734" r="0.40" fill="#aaaaaa"/>
<circle cx="43.70608901977539" cy="-6.289339542388916" r="0.40" fill="#aaaaaa"/>
<circle cx="46.64769744873047" cy="-5.82316780090332" r="0.40" fill="#aaaaaa"/>
<circle cx="49.631961822509766" cy="-5.599499225616455" r="0.40" fill="#aaaaaa"/>
<circle cx="52.547698974609375" cy="-4.986271858215332" r="0.40" fill="#aaaaaa"/>
<circle cx="56.579978942871094" cy="-4.990793228149414" r="0.40" fill="#aaaaaa"/>
<circle cx="59.425697326660156" cy="-3.979537010192871" r="0.40" fill="#aaaaaa"/>
<circle cx="64.24032592773438" cy="-2.702059745788574" r="0.40" fill="#aaaaaa"/>
<circle cx="68.22383117675781" cy="-2.429330825805664" r="0.40" fill="#aaaaaa"/>
<circle cx="70.92838287353516" cy="-0.6156845092773438" r="0.40" fill="#aaaaaa"/>
<circle cx="74.09782409667969" cy="-1.4446172714233398" r="0.40" fill="#aaaaaa"/>
<circle cx="77.05338287353516" cy="-1.0577383041381836" r="0.40" fill="#aaaaaa"/>
<circle cx="79.98175048828125" cy="-0.5162906646728516" r="0.40" fill="#aaaaaa"/>
<circle cx="82.7613754272461" cy="0.8706283569335938" r="0.40" fill="#aaaaaa"/>
<circle cx="85.89754486083984" cy="0.23082351684570312" r="0.40" fill="#aaaaaa"/>
<circle cx="88.82952117919922" cy="0.7517166137695312" r="0.40" fill="#aaaaaa"/>
<circle cx="91.51256561279297" cy="2.6876344680786133" r="0.40" fill="#aaaaaa"/>
<circle cx="94.57923889160156" cy="2.4428958892822266" r="0.40" fill="#aaaaaa"/>
<circle cx="101.37982940673828" cy="3.8896102905273438" r="0.40" fill="#aaaaaa"/>
<circle cx="104.37055969238281" cy="4.076549530029297" r="0.40" fill="#aaaaaa"/>
<circle cx="107.19712829589844" cy="5.195596694946289" r="0.40" fill="#aaaaaa"/>
<circle cx="108.08831024169922" cy="7.978525161743164" r="0.40" fill="#aaaaaa"/>
<circle cx="109.29931640625" cy="10.760671615600586" r="0.40" fill="#aaaaaa"/>
<circle cx="109.5333023071289" cy="15.886598587036133" r="0.40" fill="#aaaaaa"/>
<circle cx="108.94873809814453" cy="18.86604881286621" r="0.40" fill="#aaaaaa"/>
<circle cx="108.17150115966797" cy="20.188343048095703" r="0.40" fill="#aaaaaa"/>
<circle cx="107.8431396484375" cy="23.16712188720703" r="0.40" fill="#aaaaaa"/>
<circle cx="107.34341430664062" cy="27.129505157470703" r="0.40" fill="#aaaaaa"/>
<circle cx="105.90613555908203" cy="29.941390991210938" r="0.40" fill="#aaaaaa"/>
<circle cx="106.44229125976562" cy="33.0502815246582" r="0.40" fill="#aaaaaa"/>
<circle cx="104.39810943603516" cy="35.77082824707031" r="0.40" fill="#aaaaaa"/>
<circle cx="104.2829360961914" cy="38.78169250488281" r="0.40" fill="#aaaaaa"/>
<circle cx="105.10081481933594" cy="42.9423713684082" r="0.40" fill="#aaaaaa"/>
<circle cx="102.9104995727539" cy="45.64093017578125" r="0.40" fill="#aaaaaa"/>
<circle cx="103.8549575805664" cy="48.81126403808594" r="0.40" fill="#aaaaaa"/>
<circle cx="102.93756866455078" cy="52.710792541503906" r="0.40" fill="#aaaaaa"/>
<circle cx="102.49964141845703" cy="55.67308044433594" r="0.40" fill="#aaaaaa"/>
<circle cx="102.01753997802734" cy="58.62871551513672" r="0.40" fill="#aaaaaa"/>
<circle cx="101.72907257080078" cy="62.622901916503906" r="0.40" fill="#aaaaaa"/>
<circle cx="101.45166778564453" cy="65.60934448242188" r="0.40" fill="#aaaaaa"/>
<circle cx="99.9792709350586" cy="68.41595458984375" r="0.40" fill="#aaaaaa"/>
<circle cx="100.1478271484375" cy="71.57240295410156" r="0.40" fill="#aaaaaa"/>
<circle cx="97.7016372680664" cy="74.96894836425781" r="0.40" fill="#aaaaaa"/>
<circle cx="94.14694213867188" cy="77.31068420410156" r="0.40" fill="#aaaaaa"/>
<circle cx="90.94918060302734" cy="77.34375" r="0.40" fill="#aaaaaa"/>
<circle cx="88.4417953491211" cy="77.4205322265625" r="0.40" fill="#aaaaaa"/>
<circle cx="86.75814819335938" cy="75.76628112792969" r="0.40" fill="#aaaaaa"/>
<circle cx="83.63883209228516" cy="75.97134399414062" r="0.40" fill="#aaaaaa"/>
<circle cx="79.69163513183594" cy="75.34942626953125" r="0.40" fill="#aaaaaa"/>
<circle cx="77.01944732666016" cy="73.66536712646484" r="0.40" fill="#aaaaaa"/>
<circle cx="73.99301147460938" cy="73.47795867919922" r="0.40" fill="#aaaaaa"/>
<circle cx="71.13491821289062" cy="72.57929992675781" r="0.40" fill="#aaaaaa"/>
<circle cx="67.98336791992188" cy="72.92052459716797" r="0.40" fill="#aaaaaa"/>
<circle cx="65.4191665649414" cy="70.78024291992188" r="0.40" fill="#aaaaaa"/>
<circle cx="61.191802978515625" cy="71.34197998046875" r="0.40" fill="#aaaaaa"/>
<circle cx="58.72137451171875" cy="68.80552673339844" r="0.40" fill="#aaaaaa"/>
<circle cx="55.59791564941406" cy="69.02802276611328" r="0.40" fill="#aaaaaa"/>
<circle cx="51.92217254638672" cy="67.25926208496094" r="0.40" fill="#aaaaaa"/>
<circle cx="48.756690979003906" cy="67.65931701660156" r="0.40" fill="#aaaaaa"/>
<circle cx="46.05218505859375" cy="66.11175537109375" r="0.40" fill="#aaaaaa"/>
<circle cx="41.91741943359375" cy="66.28235626220703" r="0.40" fill="#aaaaaa"/>
<circle cx="38.340362548828125" cy="64.09669494628906" r="0.40" fill="#aaaaaa"/>
<circle cx="35.3082275390625" cy="63.93335723876953" r="0.40" fill="#aaaaaa"/>
<circle cx="31.39986801147461" cy="63.14738464355469" r="0.40" fill="#aaaaaa"/>
<circle cx="28.312091827392578" cy="63.219139099121094" r="0.40" fill="#aaaaaa"/>
<circle cx="24.387683868408203" cy="62.50098419189453" r="0.40" fill="#aaaaaa"/>
<circle cx="21.763044357299805" cy="60.61601257324219" r="0.40" fill="#aaaaaa"/>
<circle cx="18.944988250732422" cy="59.54821014404297" r="0.40" fill="#aaaaaa"/>
<circle cx="16.014381408691406" cy="58.95592498779297" r="0.40" fill="#aaaaaa"/>
<circle cx="12.95271110534668" cy="58.91741943359375" r="0.40" fill="#aaaaaa"/>
<circle cx="9.93012523651123" cy="58.713706970214844" r="0.40" fill="#aaaaaa"/>
<circle cx="8.041274070739746" cy="58.046722412109375" r="0.40" fill="#aaaaaa"/>
<circle cx="5.58624267578125" cy="56.10453796386719" r="0.40" fill="#aaaaaa"/>
<circle cx="3.206479072570801" cy="54.901702880859375" r="0.40" fill="#aaaaaa"/>
<circle cx="2.679004669189453" cy="52.23080825805664" r="0.40" fill="#aaaaaa"/>
<circle cx="3.2028627395629883" cy="49.350826263427734" r="0.40" fill="#aaaaaa"/>
<circle cx="3.778904914855957" cy="47.027530670166016" r="0.40" fill="#aaaaaa"/>
<circle cx="3.1864967346191406" cy="41.93335723876953" r="0.40" fill="#aaaaaa"/>
<circle cx="4.100126266479492" cy="39.09943389892578" r="0.40" fill="#aaaaaa"/>
<circle cx="4.290562629699707" cy="36.138668060302734" r="0.40" fill="#aaaaaa"/>
<circle cx="5.17067813873291" cy="33.29886245727539" r="0.40" fill="#aaaaaa"/>
<circle cx="5.189988136291504" cy="30.308082580566406" r="0.40" fill="#aaaaaa"/>
<circle cx="7.116296768188477" cy="24.657608032226562" r="0.40" fill="#aaaaaa"/>
<circle cx="7.495303153991699" cy="20.73185920715332" r="0.40" fill="#aaaaaa"/>
<circle cx="7.483965873718262" cy="17.73570442199707" r="0.40" fill="#aaaaaa"/>
<circle cx="7.795092582702637" cy="14.79610824584961" r="0.40" fill="#aaaaaa"/>
<circle cx="10.154985427856445" cy="12.215843200683594" r="0.40" fill="#aaaaaa"/>
<circle cx="9.219390869140625" cy="9.05758285522461" r="0.40" fill="#aaaaaa"/>
<circle cx="9.665800094604492" cy="6.141712188720703" r="0.40" fill="#aaaaaa"/>
<circle cx="11.127018928527832" cy="3.403829574584961" r="0.40" fill="#aaaaaa"/>
<circle cx="11.640830993652344" cy="0.49978065490722656" r="0.40" fill="#aaaaaa"/>
<circle cx="11.896514892578125" cy="-2.492290496826172" r="0.40" fill="#aaaaaa"/>
<circle cx="13.707798957824707" cy="-4.882546424865723" r="0.40" fill="#aaaaaa"/>
<circle cx="14.942695617675781" cy="-7.932094573974609" r="0.40" fill="#aaaaaa"/>
<circle cx="18.446008682250977" cy="-7.949796676635742" r="0.40" fill="#aaaaaa"/>
<circle cx="20.78577995300293" cy="-10.406617164611816" r="0.40" fill="#aaaaaa"/>
<circle cx="23.805158615112305" cy="-8.925628662109375" r="0.40" fill="#aaaaaa"/>
<polyline points="24.81375503540039,-9.225687980651855 103.21041870117188,4.573030948638916" fill="none" stroke="#dd3333" stroke-width="0.80"/>
<path d="M103.21041870117188,4.573030948638916 C111.00299835205078,4.456264495849609 109.98667907714844,13.850621223449707 108.82730102539062,19.86687469482422" fill="none" stroke="#dd3333" stroke-width="0.80"/>
<polyline points="108.82730102539062,19.86687469482422 99.9792709350586,68.41595458984375" fill="none" stroke="#dd3333" stroke-width="0.80"/>
<path d="M99.9792709350586,68.41595458984375 C100.76792907714844,75.2704086303711 91.85710906982422,79.8868179321289 87.12284088134766,76.10445404052734" fill="none" stroke="#dd3333" stroke-width="0.80"/>
<polyline points="87.12284088134766,76.10445404052734 9.506033897399902,57.58586502075195" fill="none" stroke="#dd3333" stroke-width="0.80"/>
<path d="M9.506033897399902,57.58586502075195 C0.3464335501194,56.29315185546875 1.3624154329299927,53.89019775390625 3.3301496505737305,45.268436431884766" fill="none" stroke="#dd3333" stroke-width="0.80"/>
<polyline points="3.3301496505737305,45.268436431884766 13.127495765686035,-4.007173538208008" fill="none" stroke="#dd3333" stroke-width="0.80"/>
<path d="M13.127495765686035,-4.007173538208008 C14.360997200012207,-8.620973587036133 20.928632736206055,-10.393272399902344 24.81375503540039,-9.225687980651855" fill="none" stroke="#dd3333" stroke-width="0.80"/>
<polygon points="93.53345489501953,25.48375701904297 124.12114715576172,14.249992370605469 118.50426483154297,-1.0438518524169922 87.91657257080078,10.189912796020508" fill="#ff8800" fill-opacity="0.12" stroke="#ff8800" stroke-width="0.3" stroke-dasharray="2,2"/>
<polygon points="79.43434143066406,63.248023986816406 94.81134033203125,88.96088409423828 107.66777038574219,81.27239227294922 92.290771484375,55.559532165527344" fill="#ff8800" fill-opacity="0.12" stroke="#ff8800" stroke-width="0.3" stroke-dasharray="2,2"/>
<polygon points="15.647578239440918,39.092552185058594 -8.987278938293457,51.44432067871094 -2.811394691467285,63.761749267578125 21.823463439941406,51.40998077392578" fill="#ff8800" fill-opacity="0.12" stroke="#ff8800" stroke-width="0.3" stroke-dasharray="2,2"/>
<polygon points="30.032268524169922,2.4605712890625 19.59524154663086,-20.91194725036621 7.908980369567871,-15.693432807922363 18.34600830078125,7.679085731506348" fill="#ff8800" fill-opacity="0.12" stroke="#ff8800" stroke-width="0.3" stroke-dasharray="2,2"/>
</g>
</svg>
