<svg xmlns="http://www.w3.org/2000/svg" width="400" height="327" viewBox="-10.00 -88.82 132.43 109.28">
<rect x="-10.00" y="-88.82" width="132.43" height="109.28" fill="white"/>
<g transform="scale(1,-1)">
<polyline points="10,0 90,0" fill="none" stroke="#4466aa" stroke-width="0.80" stroke-dasharray="4,2"/>
<path d="M90,0 C95.5228500366211,0 100,4.477152347564697 100,10" fill="none" stroke="#4466aa" stroke-width="0.80" stroke-dasharray="4,2"/>
<polyline points="100,10 100,60" fill="none" stroke="#4466aa" stroke-width="0.80" stroke-dasharray="4,2"/>
<path d="M100,60 C100,65.5228500366211 95.5228500366211,70 90,70" fill="none" stroke="#4466aa" stroke-width="0.80" stroke-dasharray="4,2"/>
<polyline points="90,70 10,70" fill="none" stroke="#4466aa" stroke-width="0.80" stroke-dasharray="4,2"/>
<path d="M10,70 C4.477152347564697,70 0,65.5228500366211 0,60" fill="none" stroke="#4466aa" stroke-width="0.80" stroke-dasharray="4,2"/>
<polyline points="0,60 0,10" fill="none" stroke="#4466aa" stroke-width="0.80" stroke-dasharray="4,2"/>
<path d="M0,10 C0,4.477152347564697 4.477152347564697,0 10,0" fill="none" stroke="#4466aa" stroke-width="0.80" stroke-dasharray="4,2"/>
<polyline points="24.593111038208008,-7.034695625305176 27.084335327148438,-7.211625099182129 27.674072265625,-7.100276470184326 28.216419219970703,-6.903399467468262 29.377248764038086,-6.867835998535156 30.484943389892578,-6.5822930335998535 31.65762710571289,-6.602490425109863 32.66538619995117,-6.533880710601807 33.776390075683594,-6.263913631439209 35.031192779541016,-5.983345985412598 36.32559585571289,-5.889098644256592 37.68830108642578,-5.429074287414551 39.09943771362305,-5.196911811828613 40.462947845458984,-4.740659236907959 41.85026168823242,-4.396421909332275 43.086002349853516,-4.026164531707764 44.208614349365234,-3.8107988834381104 45.30222702026367,-3.459015369415283 46.307552337646484,-3.3789350986480713 47.282691955566406,-3.1568763256073 48.26114273071289,-2.950395345687866 49.22556686401367,-2.6779210567474365 50.189300537109375,-2.402204751968384 51.32366943359375,-2.242156505584717 52.47811508178711,-2.176561117172241 53.5980339050293,-1.9485265016555786 54.69099044799805,-1.5936592817306519 55.82714080810547,-1.4419586658477783 57.07843780517578,-1.144913673400879 58.49473190307617,-0.9370188117027283 59.736881256103516,-0.5968981981277466 60.95443344116211,-0.14109012484550476 62.18732452392578,0.24256978929042816 63.62586212158203,0.34582042694091797 65.00007629394531,0.7517006993293762 66.28157806396484,0.9066343307495117 67.36754608154297,1.2943812608718872 68.46556091308594,1.6254985332489014 69.57125854492188,1.9204477071762085 70.71620178222656,2.0307669639587402 71.6731185913086,2.3385565280914307 72.68699645996094,2.3783528804779053 73.65876770019531,2.6162734031677246 74.65485382080078,2.7398109436035156 75.64502716064453,2.891141653060913 76.66497039794922,2.9024455547332764 77.6360092163086,3.1437416076660156 78.63690948486328,3.2446162700653076 79.58067321777344,3.614300012588501 80.56404113769531,3.7976479530334473 81.56133270263672,3.915496349334717 82.57298278808594,3.9657821655273438 83.5490951538086,4.183259010314941 84.54410552978516,4.311863422393799 85.5337142944336,4.465842247009277 86.54674530029297,4.509657859802246 87.51116943359375,4.78209924697876 88.46154022216797,5.120704650878906 89.42552947998047,5.3952460289001465 90.36149597167969,5.801629066467285 91.3215560913086,6.0946044921875 92.26534271240234,6.464151859283447 93.3758773803711,6.736344814300537 94.90192413330078,7.115005970001221 96.43929290771484,7.440410614013672 97.95294952392578,7.877384662628174 99.3873519897461,8.008376121520996 100.77098846435547,8.357182502746582 102.26447296142578,8.759302139282227 103.6175537109375,9.228642463684082 104.53034973144531,9.591980934143066 105.34486389160156,10.024874687194824 106.11744689941406,10.538668632507324 107.13731384277344,11.135673522949219 108.05936431884766,11.801987648010254 108.7633056640625,12.471673011779785 109.46959686279297,13.56482982635498 110.08821868896484,14.705086708068848 110.68123626708984,15.82796573638916 111.15211486816406,16.970462799072266 111.28522491455078,18.11439323425293 111.42950439453125,19.249202728271484 111.53898620605469,20.37179946899414 111.37891387939453,21.19676399230957 111.16918182373047,22.005414962768555 110.87242889404297,22.787689208984375 110.6528091430664,23.622060775756836 110.45793914794922,24.60297966003418 110.03272247314453,25.680986404418945 109.73097229003906,26.785236358642578 109.51427459716797,27.90756607055664 109.319091796875,29.034465789794922 108.96735382080078,30.128095626831055 108.58876037597656,31.216012954711914 108.30262756347656,32.32358169555664 108.05010986328125,33.29224395751953 107.85462951660156,34.273033142089844 107.5141830444336,35.22301483154297 107.12982177734375,36.16365432739258 106.89546966552734,37.13618850708008 106.85130310058594,38.14913558959961 106.5949935913086,39.11699676513672 106.40030670166016,40.09795379638672 106.22325134277344,41.08266067504883 105.98527526855469,42.20046615600586 105.93058776855469,43.35723114013672 105.8388900756836,44.50613021850586 105.44044494628906,45.58982467651367 105.08550262451172,46.682769775390625 104.87066650390625,47.80549240112305 104.52146911621094,48.899658203125 104.415283203125,49.8994255065918 104.16069793701172,51.01370620727539 103.98523712158203,52.14480209350586 103.80802917480469,53.27552032470703 103.60273742675781,54.400272369384766 103.31502532958984,55.507511138916016 103.08380126953125,56.626747131347656 102.83100891113281,57.74140548706055 102.4675521850586,58.68649673461914 102.19795989990234,59.65153121948242 102.00188446044922,60.63219451904297 101.85252380371094,61.62278366088867 101.78511810302734,62.77684783935547 101.61933898925781,63.91000747680664 101.42137908935547,65.03630828857422 101.32341766357422,66.18388366699219 101.22802734375,67.19224548339844 101.10785675048828,68.20128631591797 100.85480499267578,69.15323638916016 100.6609115600586,70.0147476196289 100.31282806396484,70.81183624267578 99.83739471435547,71.72087097167969 99.24748992919922,72.54045867919922 98.3176040649414,73.39240264892578 97.37203216552734,74.32878875732422 96.36994171142578,75.27356719970703 95.12235260009766,76.06990814208984 93.87005615234375,76.78327941894531 92.63251495361328,77.17491149902344 91.4477767944336,77.4755859375 90.55426025390625,77.73702239990234 89.57718658447266,77.73149871826172 88.76732635498047,77.5445556640625 87.93708038330078,77.39515686035156 87.13985443115234,77.13199615478516 86.3495864868164,76.90229034423828 85.53489685058594,76.60626220703125 84.57767486572266,76.29996490478516 83.60453033447266,76.06849670410156 82.6080322265625,75.9468994140625 81.67584228515625,75.52278900146484 80.58089447021484,75.17728424072266 79.44347381591797,75.03160095214844 78.32275390625,74.8072738647461 77.20491027832031,74.56951141357422 76.10118103027344,74.26533508300781 74.9784164428711,74.0506591796875 73.85942840576172,73.8182601928711 72.8554916381836,73.73162841796875 71.9148178100586,73.34746551513672 70.8952407836914,73.33445739746094 69.90835571289062,73.16765594482422 68.91302490234375,73.04058074951172 67.9554214477539,72.73601531982422 66.92254638671875,72.78556060791016 65.94066619873047,72.59520721435547 64.93292236328125,72.52657318115234 63.997154235839844,72.11927032470703 62.84865951538086,72.0256576538086 61.756553649902344,71.6667709350586 60.60324478149414,71.59583282470703 59.52963638305664,71.14990234375 58.41770553588867,70.88427734375 57.337646484375,70.46873474121094 56.21551513671875,70.25108337402344 55.26084518432617,69.93272399902344 54.26158905029297,69.82412719726562 53.152462005615234,69.54533386230469 52.00290298461914,69.45674133300781 50.91155242919922,69.09431457519531 49.76831817626953,68.9759292602539 48.6494255065918,68.74305725097656 47.52779006958008,68.52313232421875 46.41506576538086,68.2612533569336 45.466156005859375,67.91580200195312 44.52216720581055,67.54718780517578 43.53147506713867,67.39826202392578 42.523189544677734,67.33216857910156 41.37977981567383,67.21463012695312 40.2681884765625,66.9474105834961 38.995845794677734,66.74938201904297 37.753318786621094,66.41106414794922 36.50374984741211,66.10588836669922 35.21147537231445,66.0016098022461 33.989994049072266,65.56427764892578 32.862754821777344,65.37068939208984 31.58953285217285,65.17679595947266 30.485645294189453,64.87332916259766 29.315797805786133,64.88017272949219 28.172412872314453,64.76253509521484 27.056976318359375,64.51342010498047 25.90627670288086,64.43020629882812 24.839969635009766,63.94993209838867 23.71377944946289,63.75140380859375 22.613290786743164,63.431968688964844 21.50146484375,63.16585922241211 20.39371681213379,62.88056564331055 19.290180206298828,62.57545852661133 18.187602996826172,62.26583480834961 17.064977645874023,62.0505256652832 16.133214950561523,61.6243896484375 15.132428169250488,61.52299880981445 14.19603443145752,61.11864471435547 13.196990013122559,61.009033203125 12.377890586853027,60.752994537353516 11.550528526306152,60.52288055419922 10.722066879272461,60.365623474121094 9.895181655883789,60.20068359375 9.054618835449219,59.96746826171875 8.352035522460938,59.61087417602539 7.605141639709473,59.170372009277344 6.7271270751953125,58.7293701171875 6.051727294921875,58.065391540527344 5.366780757904053,57.42255401611328 4.830169677734375,56.65922164916992 4.347262382507324,55.786651611328125 3.6666743755340576,55.05514907836914 3.347588062286377,54.135009765625 2.9607691764831543,53.1715087890625 2.6204447746276855,52.27088165283203 2.5101237297058105,51.37287139892578 2.228317975997925,50.59209442138672 2.1140096187591553,49.77703094482422 2.370222330093384,48.968231201171875 2.38108229637146,48.00985336303711 2.6886956691741943,47.07566452026367 3.0154407024383545,46.16204833984375 3.1336381435394287,44.87485122680664 3.449910879135132,43.48159408569336 3.726310968399048,42.079856872558594 3.875734567642212,40.651126861572266 4.276492118835449,39.421875 4.482538223266602,38.1512336730957 4.671731472015381,36.877010345458984 5.078916072845459,35.941219329833984 5.2747721672058105,34.960506439208984 5.530843257904053,33.99259567260742 5.94351053237915,33.0579719543457 6.056346416473389,32.05961227416992 6.282737731933594,31.08539390563965 6.464515686035156,30.1016902923584 6.449482440948486,29.076156616210938 6.691409587860107,27.959192276000977 6.91149377822876,26.54548454284668 7.092052936553955,25.12337875366211 7.473307132720947,23.743928909301758 7.930236339569092,22.234514236450195 8.237946510314941,20.693387985229492 8.658345222473145,19.176210403442383 9.114206314086914,17.812620162963867 9.38795280456543,16.702417373657227 9.56666374206543,15.572013854980469 9.831138610839844,14.4598388671875 9.812240600585938,13.43348217010498 10.105123519897461,12.473397254943848 10.346169471740723,11.502290725708008 10.620579719543457,10.538278579711914 10.870651245117188,9.569091796875 11.184045791625977,8.61336612701416 11.25292682647705,7.605666160583496 11.612221717834473,6.659695625305176 11.830965042114258,5.6838507652282715 11.944722175598145,4.685690402984619 11.990371704101562,3.6730520725250244 12.238385200500488,2.7034285068511963 12.408345222473145,1.8660098314285278 12.621580123901367,1.0304803848266602 12.712127685546875,0.15456655621528625 12.931784629821777,-0.6520815491676331 13.24663257598877,-1.4715574979782104 13.652958869934082,-2.21018385887146 14.182479858398438,-3.0499370098114014 14.705289840698242,-4.074360370635986 15.500727653503418,-4.852794170379639 16.41659927368164,-5.537232875823975 17.28316307067871,-6.112648010253906 18.265913009643555,-6.740019798278809 19.22163963317871,-7.390690803527832 20.169668197631836,-7.799040794372559 21.18991470336914,-7.911535739898682 22.073551177978516,-7.945149898529053 22.53948211669922,-8.0697021484375 22.973461151123047,-8.311871528625488 24.614137649536133,-6.969949722290039" fill="none" stroke="#999999" stroke-width="0.3" stroke-dasharray="1,1"/>
<circle cx="24.593111038208008" cy="-7.034695625305176" r="0.40" fill="#aaaaaa"/>
<circle cx="28.216419219970703" cy="-6.903399467468262" r="0.40" fill="#aaaaaa"/>
<circle cx="31.65762710571289" cy="-6.602490425109863" r="0.40" fill="#aaaaaa"/>
<circle cx="35.031192779541016" cy="-5.983345985412598" r="0.40" fill="#aaaaaa"/>
<circle cx="39.09943771362305" cy="-5.196911811828613" r="0.40" fill="#aaaaaa"/>
<circle cx="43.086002349853516" cy="-4.026164531707764" r="0.40" fill="#aaaaaa"/>
<circle cx="46.307552337646484" cy="-3.3789350986480713" r="0.40" fill="#aaaaaa"/>
<circle cx="49.22556686401367" cy="-2.6779210567474365" r="0.40" fill="#aaaaaa"/>
<circle cx="52.47811508178711" cy="-2.176561117172241" r="0.40" fill="#aaaaaa"/>
<circle cx="55.82714080810547" cy="-1.4419586658477783" r="0.40" fill="#aaaaaa"/>
<circle cx="59.736881256103516" cy="-0.5968981981277466" r="0.40" fill="#aaaaaa"/>
<circle cx="63.62586212158203" cy="0.34582042694091797" r="0.40" fill="#aaaaaa"/>
<circle cx="67.36754608154297" cy="1.2943812608718872" r="0.40" fill="#aaaaaa"/>
<circle cx="70.71620178222656" cy="2.0307669639587402" r="0.40" fill="#aaaaaa"/>
<circle cx="73.65876770019531" cy="2.6162734031677246" r="0.40" fill="#aaaaaa"/>
<circle cx="76.66497039794922" cy="2.9024455547332764" r="0.40" fill="#aaaaaa"/>
<circle cx="79.58067321777344" cy="3.614300012588501" r="0.40" fill="#aaaaaa"/>
<circle cx="82.57298278808594" cy="3.9657821655273438" r="0.40" fill="#aaaaaa"/>
<circle cx="85.5337142944336" cy="4.465842247009277" r="0.40" fill="#aaaaaa"/>
<circle cx="88.46154022216797" cy="5.120704650878906" r="0.40" fill="#aaaaaa"/>
<circle cx="91.3215560913086" cy="6.0946044921875" r="0.40" fill="#aaaaaa"/>
<circle cx="94.90192413330078" cy="7.115005970001221" r="0.40" fill="#aaaaaa"/>
<circle cx="99.3873519897461" cy="8.008376121520996" r="0.40" fill="#aaaaaa"/>
<circle cx="103.6175537109375" cy="9.228642463684082" r="0.40" fill="#aaaaaa"/>
<circle cx="106.11744689941406" cy="10.538668632507324" r="0.40" fill="#aaaaaa"/>
<circle cx="108.7633056640625" cy="12.471673011779785" r="0.40" fill="#aaaaaa"/>
<circle cx="110.68123626708984" cy="15.82796573638916" r="0.40" fill="#aaaaaa"/>
<circle cx="111.42950439453125" cy="19.249202728271484" r="0.40" fill="#aaaaaa"/>
<circle cx="111.16918182373047" cy="22.005414962768555" r="0.40" fill="#aaaaaa"/>
<circle cx="110.45793914794922" cy="24.60297966003418" r="0.40" fill="#aaaaaa"/>
<circle cx="109.51427459716797" cy="27.90756607055664" r="0.40" fill="#aaaaaa"/>
<circle cx="108.58876037597656" cy="31.216012954711914" r="0.40" fill="#aaaaaa"/>
<circle cx="107.85462951660156" cy="34.273033142089844" r="0.40" fill="#aaaaaa"/>
<circle cx="106.89546966552734" cy="37.13618850708008" r="0.40" fill="#aaaaaa"/>
<circle cx="106.40030670166016" cy="40.09795379638672" r="0.40" fill="#aaaaaa"/>
<circle cx="105.93058776855469" cy="43.35723114013672" r="0.40" fill="#aaaaaa"/>
<circle cx="105.08550262451172" cy="46.682769775390625" r="0.40" fill="#aaaaaa"/>
<circle cx="104.415283203125" cy="49.8994255065918" r="0.40" fill="#aaaaaa"/>
<circle cx="103.80802917480469" cy="53.27552032470703" r="0.40" fill="#aaaaaa"/>
<circle cx="103.08380126953125" cy="56.626747131347656" r="0.40" fill="#aaaaaa"/>
<circle cx="102.19795989990234" cy="59.65153121948242" r="0.40" fill="#aaaaaa"/>
<circle cx="101.78511810302734" cy="62.77684783935547" r="0.40" fill="#aaaaaa"/>
<circle cx="101.32341766357422" cy="66.18388366699219" r="0.40" fill="#aaaaaa"/>
<circle cx="100.85480499267578" cy="69.15323638916016" r="0.40" fill="#aaaaaa"/>
<circle cx="99.83739471435547" cy="71.72087097167969" r="0.40" fill="#aaaaaa"/>
<circle cx="97.37203216552734" cy="74.32878875732422" r="0.40" fill="#aaaaaa"/>
<circle cx="93.87005615234375" cy="76.78327941894531" r="0.40" fill="#aaaaaa"/>
<circle cx="90.55426025390625" cy="77.73702239990234" r="0.40" fill="#aaaaaa"/>
<circle cx="87.93708038330078" cy="77.39515686035156" r="0.40" fill="#aaaaaa"/>
<circle cx="85.53489685058594" cy="76.60626220703125" r="0.40" fill="#aaaaaa"/>
<circle cx="82.6080322265625" cy="75.9468994140625" r="0.40" fill="#aaaaaa"/>
<circle cx="79.44347381591797" cy="75.03160095214844" r="0.40" fill="#aaaaaa"/>
<circle cx="76.10118103027344" cy="74.26533508300781" r="0.40" fill="#aaaaaa"/>
<circle cx="72.8554916381836" cy="73.73162841796875" r="0.40" fill="#aaaaaa"/>
<circle cx="69.90835571289062" cy="73.16765594482422" r="0.40" fill="#aaaaaa"/>
<circle cx="66.92254638671875" cy="72.78556060791016" r="0.40" fill="#aaaaaa"/>
<circle cx="63.997154235839844" cy="72.11927032470703" r="0.40" fill="#aaaaaa"/>
<circle cx="60.60324478149414" cy="71.59583282470703" r="0.40" fill="#aaaaaa"/>
<circle cx="57.337646484375" cy="70.46873474121094" r="0.40" fill="#aaaaaa"/>
<circle cx="54.26158905029297" cy="69.82412719726562" r="0.40" fill="#aaaaaa"/>
<circle cx="50.91155242919922" cy="69.09431457519531" r="0.40" fill="#aaaaaa"/>
<circle cx="47.52779006958008" cy="68.52313232421875" r="0.40" fill="#aaaaaa"/>
<circle cx="44.52216720581055" cy="67.54718780517578" r="0.40" fill="#aaaaaa"/>
<circle cx="41.37977981567383" cy="67.21463012695312" r="0.40" fill="#aaaaaa"/>
<circle cx="37.753318786621094" cy="66.41106414794922" r="0.40" fill="#aaaaaa"/>
<circle cx="33.989994049072266" cy="65.56427764892578" r="0.40" fill="#aaaaaa"/>
<circle cx="30.485645294189453" cy="64.87332916259766" r="0.40" fill="#aaaaaa"/>
<circle cx="27.056976318359375" cy="64.51342010498047" r="0.40" fill="#aaaaaa"/>
<circle cx="23.71377944946289" cy="63.75140380859375" r="0.40" fill="#aaaaaa"/>
<circle cx="20.39371681213379" cy="62.88056564331055" r="0.40" fill="#aaaaaa"/>
<circle cx="17.064977645874023" cy="62.0505256652832" r="0.40" fill="#aaaaaa"/>
<circle cx="14.19603443145752" cy="61.11864471435547" r="0.40" fill="#aaaaaa"/>
<circle cx="11.550528526306152" cy="60.52288055419922" r="0.40" fill="#aaaaaa"/>
<circle cx="9.054618835449219" cy="59.96746826171875" r="0.40" fill="#aaaaaa"/>
<circle cx="6.7271270751953125" cy="58.7293701171875" r="0.40" fill="#aaaaaa"/>
<circle cx="4.830169677734375" cy="56.65922164916992" r="0.40" fill="#aaaaaa"/>
<circle cx="3.347588062286377" cy="54.135009765625" r="0.40" fill="#aaaaaa"/>
<circle cx="2.5101237297058105" cy="51.37287139892578" r="0.40" fill="#aaaaaa"/>
<circle cx="2.370222330093384" cy="48.968231201171875" r="0.40" fill="#aaaaaa"/>
<circle cx="3.0154407024383545" cy="46.16204833984375" r="0.40" fill="#aaaaaa"/>
<circle cx="3.726310968399048" cy="42.079856872558594" r="0.40" fill="#aaaaaa"/>
<circle cx="4.482538223266602" cy="38.1512336730957" r="0.40" fill="#aaaaaa"/>
<circle cx="5.2747721672058105" cy="34.960506439208984" r="0.40" fill="#aaaaaa"/>
<circle cx="6.056346416473389" cy="32.05961227416992" r="0.40" fill="#aaaaaa"/>
<circle cx="6.449482440948486" cy="29.076156616210938" r="0.40" fill="#aaaaaa"/>
<circle cx="7.092052936553955" cy="25.12337875366211" r="0.40" fill="#aaaaaa"/>
<circle cx="8.237946510314941" cy="20.693387985229492" r="0.40" fill="#aaaaaa"/>
<circle cx="9.38795280456543" cy="16.702417373657227" r="0.40" fill="#aaaaaa"/>
<circle cx="9.812240600585938" cy="13.43348217010498" r="0.40" fill="#aaaaaa"/>
<circle cx="10.620579719543457" cy="10.538278579711914" r="0.40" fill="#aaaaaa"/>
<circle cx="11.25292682647705" cy="7.605666160583496" r="0.40" fill="#aaaaaa"/>
<circle cx="11.944722175598145" cy="4.685690402984619" r="0.40" fill="#aaaaaa"/>
<circle cx="12.408345222473145" cy="1.8660098314285278" r="0.40" fill="#aaaaaa"/>
<circle cx="12.931784629821777" cy="-0.6520815491676331" r="0.40" fill="#aaaaaa"/>
<circle cx="14.182479858398438" cy="-3.0499370098114014" r="0.40" fill="#aaaaaa"/>
<circle cx="16.41659927368164" cy="-5.537232875823975" r="0.40" fill="#aaaaaa"/>
<circle cx="19.22163963317871" cy="-7.390690803527832" r="0.40" fill="#aaaaaa"/>
<circle cx="22.073551177978516" cy="-7.945149898529053" r="0.40" fill="#aaaaaa"/>
<circle cx="24.614137649536133" cy="-6.969949722290039" r="0.40" fill="#aaaaaa"/>
<polyline points="87.92449188232422,77.39099884033203 9.760226249694824,60.163238525390625" fill="none" stroke="#dd3333" stroke-width="0.80"/>
<path d="M9.760226249694824,60.163238525390625 C5.183424949645996,59.018436431884766 1.6520477533340454,53.02888107299805 2.3750126361846924,48.54549789428711" fill="none" stroke="#dd3333" stroke-width="0.80"/>
<polyline points="2.3750126361846924,48.54549789428711 12.835558891296387,-0.2987121343612671" fill="none" stroke="#dd3333" stroke-width="0.80"/>
<path d="M12.835558891296387,-0.2987121343612671 C13.745107650756836,-4.622030735015869 21.06864356994629,-10.459458351135254 24.997987747192383,-7.063450336456299" fill="none" stroke="#dd3333" stroke-width="0.80"/>
<polyline points="24.997987747192383,-7.063450336456299 103.20304870605469,9.084863662719727" fill="none" stroke="#dd3333" stroke-width="0.80"/>
<path d="M103.20304870605469,9.084863662719727 C108.62605285644531,10.73695182800293 112.43160247802734,16.049354553222656 111.24018096923828,21.731657028198242" fill="none" stroke="#dd3333" stroke-width="0.80"/>
<polyline points="111.24018096923828,21.731657028198242 100.37818908691406,70.66216278076172" fill="none" stroke="#dd3333" stroke-width="0.80"/>
<path d="M100.37818908691406,70.66216278076172 C98.23770141601562,74.6915512084961 92.6951675415039,78.81669616699219 87.92449188232422,77.39099884033203" fill="none" stroke="#dd3333" stroke-width="0.80"/>
<polygon points="13.992753028869629,41.16028594970703 -9.242728233337402,55.93071746826172 -1.8575143814086914,67.54845428466797 21.377967834472656,52.77802276611328" fill="#ff8800" fill-opacity="0.12" stroke="#ff8800" stroke-width="0.3" stroke-dasharray="2,2"/>
<polygon points="31.762725830078125,5.098978519439697 18.23324966430664,-19.225879669189453 6.070819854736328,-12.461141586303711 19.600296020507812,11.863716125488281" fill="#ff8800" fill-opacity="0.12" stroke="#ff8800" stroke-width="0.3" stroke-dasharray="2,2"/>
<polygon points="98.59339904785156,29.768789291381836 123.88697814941406,13.694524765014648 115.84983825683594,1.0477313995361328 90.55625915527344,17.12199592590332" fill="#ff8800" fill-opacity="0.12" stroke="#ff8800" stroke-width="0.3" stroke-dasharray="2,2"/>
<polygon points="81.19564819335938,64.93730163574219 94.6533203125,89.84469604492188 107.10702514648438,83.11585998535156 93.64935302734375,58.208465576171875" fill="#ff8800" fill-opacity="0.12" stroke="#ff8800" stroke-width="0.3" stroke-dasharray="2,2"/>
</g>
</svg>
