<svg xmlns="http://www.w3.org/2000/svg" width="400" height="325" viewBox="-10.00 -89.27 130.83 108.34">
<rect x="-10.00" y="-89.27" width="130.83" height="108.34" fill="white"/>
<g transform="scale(1,-1)">
<polyline points="10,0 90,0" fill="none" stroke="#4466aa" stroke-width="0.80" stroke-dasharray="4,2"/>
<path d="M90,0 C95.5228500366211,0 100,4.477152347564697 100,10" fill="none" stroke="#4466aa" stroke-width="0.80" stroke-dasharray="4,2"/>
<polyline points="100,10 100,60" fill="none" stroke="#4466aa" stroke-width="0.80" stroke-dasharray="4,2"/>
<path d="M100,60 C100,65.5228500366211 95.5228500366211,70 90,70" fill="none" stroke="#4466aa" stroke-width="0.80" stroke-dasharray="4,2"/>
<polyline points="90,70 10,70" fill="none" stroke="#4466aa" stroke-width="0.80" stroke-dasharray="4,2"/>
<path d="M10,70 C4.477152347564697,70 0,65.5228500366211 0,60" fill="none" stroke="#4466aa" stroke-width="0.80" stroke-dasharray="4,2"/>
<polyline points="0,60 0,10" fill="none" stroke="#4466aa" stroke-width="0.80" stroke-dasharray="4,2"/>
<path d="M0,10 C0,4.477152347564697 4.477152347564697,0 10,0" fill="none" stroke="#4466aa" stroke-width="0.80" stroke-dasharray="4,2"/>
<polyline points="24.781475067138672,-7.9208831787109375 105.42420959472656,5.549110412597656" fill="none" stroke="#33aa33" stroke-width="0.80" stroke-dasharray="6,3"/>
<path d="M105.42420959472656,5.549110412597656 C110.82637786865234,6.697376251220703 108.17359924316406,14.61456298828125 107.02532958984375,20.0167236328125" fill="none" stroke="#33aa33" stroke-width="0.80" stroke-dasharray="6,3"/>
<polyline points="107.02532958984375,20.0167236328125 100.3400650024414,69.48002624511719" fill="none" stroke="#33aa33" stroke-width="0.80" stroke-dasharray="6,3"/>
<path d="M100.3400650024414,69.48002624511719 C99.1917953491211,74.88218688964844 93.88162994384766,78.33065795898438 88.4794692993164,77.18238830566406" fill="none" stroke="#33aa33" stroke-width="0.80" stroke-dasharray="6,3"/>
<polyline points="88.4794692993164,77.18238830566406 7.478052139282227,57.53789520263672" fill="none" stroke="#33aa33" stroke-width="0.80" stroke-dasharray="6,3"/>
<path d="M7.478052139282227,57.53789520263672 C2.0758914947509766,56.389625549316406 3.5452098846435547,54.683990478515625 4.693473815917969,49.28183364868164" fill="none" stroke="#33aa33" stroke-width="0.80" stroke-dasharray="6,3"/>
<polyline points="4.693473815917969,49.28183364868164 12.920883178710938,-0.21852397918701172" fill="none" stroke="#33aa33" stroke-width="0.80" stroke-dasharray="6,3"/>
<path d="M12.920883178710938,-0.21852397918701172 C14.069147109985352,-5.6206841468811035 19.379316329956055,-9.069147109985352 24.781475067138672,-7.9208831787109375" fill="none" stroke="#33aa33" stroke-width="0.80" stroke-dasharray="6,3"/>
<polyline points="24.632213592529297,-7.027277946472168 27.106334686279297,-7.314609527587891 27.69866180419922,-7.229558944702148 28.247482299804688,-7.056967735290527 29.405454635620117,-7.07297420501709 30.52132225036621,-6.836907863616943 31.68868637084961,-6.9091410636901855 32.695594787597656,-6.885340690612793 33.814090728759766,-6.664981842041016 35.07628631591797,-6.440417289733887 36.369869232177734,-6.403730869293213 37.74734115600586,-6.0046892166137695 39.16318893432617,-5.835418224334717 40.54129409790039,-5.44018030166626 41.93826675415039,-5.157895088195801 43.18536376953125,-4.84289026260376 44.31304931640625,-4.677588939666748 45.41775894165039,-4.374727725982666 46.42273712158203,-4.339361190795898 47.403804779052734,-4.160827159881592 48.38749313354492,-3.998002290725708 49.360069274902344,-3.7686309814453125 50.332096099853516,-3.5359909534454346 51.46909713745117,-3.4264700412750244 52.622013092041016,-3.4121921062469482 53.7475700378418,-3.234116315841675 54.85175704956055,-2.9281461238861084 55.990169525146484,-2.827042818069458 57.24959945678711,-2.585862398147583 58.669532775878906,-2.44106125831604 59.92170333862305,-2.1564440727233887 61.154388427734375,-1.7551714181900024 62.399227142333984,-1.426650881767273 63.8367919921875,-1.3873698711395264 65.22338104248047,-1.0429260730743408 66.5067367553711,-0.9450460076332092 67.60539245605469,-0.6059203743934631 68.71357727050781,-0.3238990008831024 69.82786560058594,-0.07834802567958832 70.97325134277344,-0.01897253282368183 71.93987274169922,0.24600942432880402 72.9516372680664,0.24075494706630707 73.9300308227539,0.43528270721435547 74.92768096923828,0.5144703984260559 75.92066955566406,0.6216843724250793 76.9372329711914,0.5876989364624023 77.91505432128906,0.7856306433677673 78.9165267944336,0.8419656753540039 79.87273406982422,1.1693603992462158 80.86031341552734,1.3088598251342773 81.85894012451172,1.3823106288909912 82.8689193725586,1.387633204460144 83.85076904296875,1.5615465641021729 84.84757995605469,1.6458442211151123 85.84010314941406,1.7557278871536255 86.85118865966797,1.7545264959335327 87.82376861572266,1.9838639497756958 88.78520965576172,2.2799198627471924 89.75743103027344,2.5113754272460938 90.70745086669922,2.8757758140563965 91.67657470703125,3.1258203983306885 92.63279724121094,3.4530766010284424 93.75091552734375,3.6756818294525146 95.28758239746094,3.986194372177124 96.83321380615234,4.243005275726318 98.36006927490234,4.612318992614746 99.93352508544922,4.702635765075684 101.47127532958984,5.006648540496826 102.99031829833984,5.301620006561279 104.36966705322266,5.675659656524658 105.28092956542969,5.984799861907959 106.02672576904297,6.361605167388916 106.6797103881836,6.854726314544678 107.41729736328125,7.537779331207275 107.96654510498047,8.292282104492188 108.34959411621094,9.106918334960938 108.57901763916016,10.366217613220215 108.70977020263672,11.645171165466309 108.8598861694336,12.903963088989258 108.92517852783203,14.186606407165527 108.64964294433594,15.47475528717041 108.46517181396484,16.763240814208984 108.34270477294922,17.937946319580078 108.1407470703125,18.650436401367188 107.93121337890625,19.359376907348633 107.66279602050781,20.058124542236328 107.49711608886719,20.77073097229004 107.397705078125,21.49947166442871 107.0889892578125,22.338802337646484 106.89217376708984,23.308547973632812 106.76056671142578,24.44200325012207 106.65074157714844,25.57840347290039 106.38231658935547,26.693368911743164 106.08668518066406,27.804651260375977 105.88471984863281,28.928598403930664 105.705810546875,29.91175651550293 105.5846939086914,30.90272331237793 105.31671905517578,31.873842239379883 105.0042495727539,32.83894729614258 104.84376525878906,33.82459259033203 104.8759536743164,34.83627700805664 104.69322204589844,35.81892013549805 104.57291412353516,36.80999755859375 104.470458984375,37.80348587036133 104.31729888916016,38.93402862548828 104.34980773925781,40.089664459228516 104.34484100341797,41.240234375 104.02909088134766,42.34880447387695 103.75740814208984,43.46332550048828 103.62767028808594,44.5970344543457 103.36182403564453,45.71234130859375 103.33118438720703,46.715545654296875 103.16117858886719,47.84381103515625 103.07134246826172,48.982906341552734 102.979736328125,50.121768951416016 102.85968017578125,51.25678253173828 102.6561279296875,52.38051223754883 102.50978088378906,53.51198196411133 102.34159851074219,54.6404914855957 102.05030822753906,55.608455657958984 101.85408782958984,56.58927536010742 101.73237609863281,57.58016586303711 101.65799713134766,58.57744598388672 101.67765045166016,59.731346130371094 101.5976333618164,60.87177276611328 101.4849853515625,62.007789611816406 101.4736557006836,63.15750503540039 101.43629455566406,64.30369567871094 101.38256072998047,65.44767761230469 101.20716857910156,66.57521057128906 101.14720916748047,67.44426727294922 100.9543228149414,68.28517150878906 100.70540618896484,69.27241516113281 100.35273742675781,70.21074676513672 99.70447540283203,71.13423156738281 99.09088134765625,72.15052032470703 98.43525695800781,73.2098617553711 97.48030090332031,74.33379364013672 96.4952163696289,75.38550567626953 95.42765045166016,76.12566375732422 94.34075164794922,76.76649475097656 93.37415313720703,77.28545379638672 92.24732208251953,77.548095703125 91.2877426147461,77.55835723876953 90.42145538330078,77.59489440917969 89.58568572998047,77.46844482421875 88.7744140625,77.3254165649414 87.99385833740234,77.0785903930664 87.2154769897461,76.81562805175781 86.42845153808594,76.60686492919922 85.58367156982422,76.4926986694336 84.67145538330078,76.0440444946289 83.59539794921875,75.66956329345703 82.47119140625,75.4936294555664 81.36592864990234,75.23957061767578 80.26390075683594,74.9721450805664 79.17787170410156,74.63874053955078 78.07029724121094,74.3942642211914 76.96697998046875,74.13216400146484 75.97345733642578,74.018798828125 75.05162048339844,73.60982513427734 74.04035949707031,73.56959533691406 73.06615447998047,73.37657928466797 72.0823745727539,73.22303009033203 71.14134979248047,72.89315032958984 70.1150131225586,72.91507720947266 69.146484375,72.69865417480469 68.14862060546875,72.6031723022461 67.23236846923828,72.17121124267578 66.0956039428711,72.04700469970703 65.02275848388672,71.65923309326172 63.88054275512695,71.55756378173828 62.82867431640625,71.08332061767578 61.733367919921875,70.78822326660156 60.67417526245117,70.34416198730469 59.56730270385742,70.09673309326172 58.629615783691406,69.75312805175781 57.64139175415039,69.61793518066406 56.549251556396484,69.30974578857422 55.411285400390625,69.19054412841797 54.339298248291016,68.79926300048828 53.20851516723633,68.65045928955078 52.105308532714844,68.38789367675781 50.99898910522461,68.13819122314453 49.90277099609375,67.84680938720703 48.97161102294922,67.4762954711914 48.04602813720703,67.08277130126953 47.06751251220703,66.90751647949219 46.06903839111328,66.8145523071289 44.93804168701172,66.66657257080078 43.843116760253906,66.36988830566406 42.58660125732422,66.13804626464844 41.363895416259766,65.7668228149414 40.13320541381836,65.42852020263672 38.85409927368164,65.28982543945312 37.65524673461914,64.82022857666016 36.542579650878906,64.59669494628906 35.285072326660156,64.36895751953125 34.19887924194336,64.03626251220703 33.03791427612305,64.01187896728516 31.90694808959961,63.86381149291992 30.80765724182129,63.58510208129883 29.66839599609375,63.471229553222656 28.624805450439453,62.962867736816406 27.513330459594727,62.73442840576172 26.43098258972168,62.3858528137207 25.33578872680664,62.090267181396484 24.245220184326172,61.77562713623047 23.159420013427734,61.44130325317383 22.0747127532959,61.102481842041016 20.9672794342041,60.85736846923828 20.055559158325195,60.40668869018555 19.065587997436523,60.27865982055664 18.14862060546875,59.8496208190918 17.160629272460938,59.71343231201172 16.215234756469727,59.401611328125 15.261759757995605,59.12310791015625 14.28674602508545,58.93340301513672 13.305253028869629,58.77042007446289 12.325668334960938,58.599571228027344 11.371981620788574,58.321929931640625 10.412717819213867,58.06730270385742 9.563368797302246,57.96129608154297 8.767460823059082,57.647159576416016 7.947892189025879,57.444854736328125 7.1963791847229,57.12853240966797 6.465356349945068,56.731876373291016 5.633143424987793,56.477813720703125 5.1454949378967285,55.94230270385742 4.515812873840332,55.22163772583008 4.098495006561279,54.564170837402344 3.954637289047241,53.77431106567383 3.7602152824401855,52.92006301879883 3.745943307876587,51.97936248779297 4.083730220794678,51.167137145996094 4.141696453094482,50.20502853393555 4.461328983306885,49.29010772705078 4.7759294509887695,48.3742561340332 4.845236778259277,47.12750244140625 5.07167911529541,45.920040130615234 5.257368564605713,44.673484802246094 5.338979244232178,43.26218032836914 5.680970668792725,42.036643981933594 5.826594829559326,40.778465270996094 5.955222129821777,39.517459869384766 6.317512035369873,38.58026885986328 6.4666748046875,37.6076545715332 6.676566123962402,36.64513397216797 7.044384002685547,35.70885467529297 7.109821796417236,34.72232437133789 7.289780139923096,33.75482940673828 7.424746036529541,32.779850006103516 7.361227512359619,31.77188491821289 7.54994535446167,30.66335678100586 7.702816963195801,29.26389503479004 7.815829277038574,27.857812881469727 8.131241798400879,26.485368728637695 8.516066551208496,24.98197364807129 8.750402450561523,23.453563690185547 9.098383903503418,21.944046020507812 9.489039421081543,20.584110260009766 9.709846496582031,19.480915069580078 9.834813117980957,18.361787796020508 10.046269416809082,17.25704002380371 9.978852272033691,16.24842643737793 10.22586727142334,15.292073249816895 10.420605659484863,14.327033042907715 10.648991584777832,13.367584228515625 10.85283088684082,12.404054641723633 11.12053394317627,11.451141357421875 11.141640663146973,10.457240104675293 11.455635070800781,9.5120210647583 11.62787914276123,8.543241500854492 11.694244384765625,7.556863307952881 11.691925048828125,6.559069633483887 11.893692016601562,5.5951972007751465 12.047320365905762,4.623323917388916 12.23577880859375,3.6572391986846924 12.274965286254883,2.666344165802002 12.398408889770508,1.837162733078003 12.572267532348633,1.000212550163269 12.82164192199707,0.1961279660463333 13.122679710388184,-0.7472788691520691 13.340696334838867,-1.7428491115570068 13.86168098449707,-2.5693411827087402 14.510720252990723,-3.347026824951172 15.168973922729492,-4.155219554901123 15.922271728515625,-5.0448079109191895 16.642972946166992,-5.948477268218994 17.428119659423828,-6.618579387664795 18.369766235351562,-7.027590751647949 19.236557006835938,-7.323479175567627 20.136978149414062,-7.552120685577393 21.005952835083008,-7.7594733238220215 21.98893165588379,-7.9124884605407715 22.512054443359375,-7.8435187339782715 23.03528594970703,-7.687164306640625 24.904321670532227,-8.618974685668945" fill="none" stroke="#999999" stroke-width="0.3" stroke-dasharray="1,1"/>
<circle cx="24.632213592529297" cy="-7.027277946472168" r="0.40" fill="#aaaaaa"/>
<circle cx="28.247482299804688" cy="-7.056967735290527" r="0.40" fill="#aaaaaa"/>
<circle cx="31.68868637084961" cy="-6.9091410636901855" r="0.40" fill="#aaaaaa"/>
<circle cx="35.07628631591797" cy="-6.440417289733887" r="0.40" fill="#aaaaaa"/>
<circle cx="39.16318893432617" cy="-5.835418224334717" r="0.40" fill="#aaaaaa"/>
<circle cx="43.18536376953125" cy="-4.84289026260376" r="0.40" fill="#aaaaaa"/>
<circle cx="46.42273712158203" cy="-4.339361190795898" r="0.40" fill="#aaaaaa"/>
<circle cx="49.360069274902344" cy="-3.7686309814453125" r="0.40" fill="#aaaaaa"/>
<circle cx="52.622013092041016" cy="-3.4121921062469482" r="0.40" fill="#aaaaaa"/>
<circle cx="55.990169525146484" cy="-2.827042818069458" r="0.40" fill="#aaaaaa"/>
<circle cx="59.92170333862305" cy="-2.1564440727233887" r="0.40" fill="#aaaaaa"/>
<circle cx="63.8367919921875" cy="-1.3873698711395264" r="0.40" fill="#aaaaaa"/>
<circle cx="67.60539245605469" cy="-0.6059203743934631" r="0.40" fill="#aaaaaa"/>
<circle cx="70.97325134277344" cy="-0.01897253282368183" r="0.40" fill="#aaaaaa"/>
<circle cx="73.9300308227539" cy="0.43528270721435547" r="0.40" fill="#aaaaaa"/>
<circle cx="76.9372329711914" cy="0.5876989364624023" r="0.40" fill="#aaaaaa"/>
<circle cx="79.87273406982422" cy="1.1693603992462158" r="0.40" fill="#aaaaaa"/>
<circle cx="82.8689193725586" cy="1.387633204460144" r="0.40" fill="#aaaaaa"/>
<circle cx="85.84010314941406" cy="1.7557278871536255" r="0.40" fill="#aaaaaa"/>
<circle cx="88.78520965576172" cy="2.2799198627471924" r="0.40" fill="#aaaaaa"/>
<circle cx="91.67657470703125" cy="3.1258203983306885" r="0.40" fill="#aaaaaa"/>
<circle cx="95.28758239746094" cy="3.986194372177124" r="0.40" fill="#aaaaaa"/>
<circle cx="99.93352508544922" cy="4.702635765075684" r="0.40" fill="#aaaaaa"/>
<circle cx="104.36966705322266" cy="5.675659656524658" r="0.40" fill="#aaaaaa"/>
<circle cx="106.6797103881836" cy="6.854726314544678" r="0.40" fill="#aaaaaa"/>
<circle cx="108.34959411621094" cy="9.106918334960938" r="0.40" fill="#aaaaaa"/>
<circle cx="108.8598861694336" cy="12.903963088989258" r="0.40" fill="#aaaaaa"/>
<circle cx="108.46517181396484" cy="16.763240814208984" r="0.40" fill="#aaaaaa"/>
<circle cx="107.93121337890625" cy="19.359376907348633" r="0.40" fill="#aaaaaa"/>
<circle cx="107.397705078125" cy="21.49947166442871" r="0.40" fill="#aaaaaa"/>
<circle cx="106.76056671142578" cy="24.44200325012207" r="0.40" fill="#aaaaaa"/>
<circle cx="106.08668518066406" cy="27.804651260375977" r="0.40" fill="#aaaaaa"/>
<circle cx="105.5846939086914" cy="30.90272331237793" r="0.40" fill="#aaaaaa"/>
<circle cx="104.84376525878906" cy="33.82459259033203" r="0.40" fill="#aaaaaa"/>
<circle cx="104.57291412353516" cy="36.80999755859375" r="0.40" fill="#aaaaaa"/>
<circle cx="104.34980773925781" cy="40.089664459228516" r="0.40" fill="#aaaaaa"/>
<circle cx="103.75740814208984" cy="43.46332550048828" r="0.40" fill="#aaaaaa"/>
<circle cx="103.33118438720703" cy="46.715545654296875" r="0.40" fill="#aaaaaa"/>
<circle cx="102.979736328125" cy="50.121768951416016" r="0.40" fill="#aaaaaa"/>
<circle cx="102.50978088378906" cy="53.51198196411133" r="0.40" fill="#aaaaaa"/>
<circle cx="101.85408782958984" cy="56.58927536010742" r="0.40" fill="#aaaaaa"/>
<circle cx="101.67765045166016" cy="59.731346130371094" r="0.40" fill="#aaaaaa"/>
<circle cx="101.4736557006836" cy="63.15750503540039" r="0.40" fill="#aaaaaa"/>
<circle cx="101.20716857910156" cy="66.57521057128906" r="0.40" fill="#aaaaaa"/>
<circle cx="100.70540618896484" cy="69.27241516113281" r="0.40" fill="#aaaaaa"/>
<circle cx="99.09088134765625" cy="72.15052032470703" r="0.40" fill="#aaaaaa"/>
<circle cx="96.4952163696289" cy="75.38550567626953" r="0.40" fill="#aaaaaa"/>
<circle cx="93.37415313720703" cy="77.28545379638672" r="0.40" fill="#aaaaaa"/>
<circle cx="90.42145538330078" cy="77.59489440917969" r="0.40" fill="#aaaaaa"/>
<circle cx="87.99385833740234" cy="77.0785903930664" r="0.40" fill="#aaaaaa"/>
<circle cx="85.58367156982422" cy="76.4926986694336" r="0.40" fill="#aaaaaa"/>
<circle cx="82.47119140625" cy="75.4936294555664" r="0.40" fill="#aaaaaa"/>
<circle cx="79.17787170410156" cy="74.63874053955078" r="0.40" fill="#aaaaaa"/>
<circle cx="75.97345733642578" cy="74.018798828125" r="0.40" fill="#aaaaaa"/>
<circle cx="73.06615447998047" cy="73.37657928466797" r="0.40" fill="#aaaaaa"/>
<circle cx="70.1150131225586" cy="72.91507720947266" r="0.40" fill="#aaaaaa"/>
<circle cx="67.23236846923828" cy="72.17121124267578" r="0.40" fill="#aaaaaa"/>
<circle cx="63.88054275512695" cy="71.55756378173828" r="0.40" fill="#aaaaaa"/>
<circle cx="60.67417526245117" cy="70.34416198730469" r="0.40" fill="#aaaaaa"/>
<circle cx="57.64139175415039" cy="69.61793518066406" r="0.40" fill="#aaaaaa"/>
<circle cx="54.339298248291016" cy="68.79926300048828" r="0.40" fill="#aaaaaa"/>
<circle cx="50.99898910522461" cy="68.13819122314453" r="0.40" fill="#aaaaaa"/>
<circle cx="48.04602813720703" cy="67.08277130126953" r="0.40" fill="#aaaaaa"/>
<circle cx="44.93804168701172" cy="66.66657257080078" r="0.40" fill="#aaaaaa"/>
<circle cx="41.363895416259766" cy="65.7668228149414" r="0.40" fill="#aaaaaa"/>
<circle cx="37.65524673461914" cy="64.82022857666016" r="0.40" fill="#aaaaaa"/>
<circle cx="34.19887924194336" cy="64.03626251220703" r="0.40" fill="#aaaaaa"/>
<circle cx="30.80765724182129" cy="63.58510208129883" r="0.40" fill="#aaaaaa"/>
<circle cx="27.513330459594727" cy="62.73442840576172" r="0.40" fill="#aaaaaa"/>
<circle cx="24.245220184326172" cy="61.77562713623047" r="0.40" fill="#aaaaaa"/>
<circle cx="20.9672794342041" cy="60.85736846923828" r="0.40" fill="#aaaaaa"/>
<circle cx="18.14862060546875" cy="59.8496208190918" r="0.40" fill="#aaaaaa"/>
<circle cx="15.261759757995605" cy="59.12310791015625" r="0.40" fill="#aaaaaa"/>
<circle cx="12.325668334960938" cy="58.599571228027344" r="0.40" fill="#aaaaaa"/>
<circle cx="9.563368797302246" cy="57.96129608154297" r="0.40" fill="#aaaaaa"/>
<circle cx="7.1963791847229" cy="57.12853240966797" r="0.40" fill="#aaaaaa"/>
<circle cx="5.1454949378967285" cy="55.94230270385742" r="0.40" fill="#aaaaaa"/>
<circle cx="3.954637289047241" cy="53.77431106567383" r="0.40" fill="#aaaaaa"/>
<circle cx="4.083730220794678" cy="51.167137145996094" r="0.40" fill="#aaaaaa"/>
<circle cx="4.7759294509887695" cy="48.3742561340332" r="0.40" fill="#aaaaaa"/>
<circle cx="5.257368564605713" cy="44.673484802246094" r="0.40" fill="#aaaaaa"/>
<circle cx="5.826594829559326" cy="40.778465270996094" r="0.40" fill="#aaaaaa"/>
<circle cx="6.4666748046875" cy="37.6076545715332" r="0.40" fill="#aaaaaa"/>
<circle cx="7.109821796417236" cy="34.72232437133789" r="0.40" fill="#aaaaaa"/>
<circle cx="7.361227512359619" cy="31.77188491821289" r="0.40" fill="#aaaaaa"/>
<circle cx="7.815829277038574" cy="27.857812881469727" r="0.40" fill="#aaaaaa"/>
<circle cx="8.750402450561523" cy="23.453563690185547" r="0.40" fill="#aaaaaa"/>
<circle cx="9.709846496582031" cy="19.480915069580078" r="0.40" fill="#aaaaaa"/>
<circle cx="9.978852272033691" cy="16.24842643737793" r="0.40" fill="#aaaaaa"/>
<circle cx="10.648991584777832" cy="13.367584228515625" r="0.40" fill="#aaaaaa"/>
<circle cx="11.141640663146973" cy="10.457240104675293" r="0.40" fill="#aaaaaa"/>
<circle cx="11.694244384765625" cy="7.556863307952881" r="0.40" fill="#aaaaaa"/>
<circle cx="12.047320365905762" cy="4.623323917388916" r="0.40" fill="#aaaaaa"/>
<circle cx="12.398408889770508" cy="1.837162733078003" r="0.40" fill="#aaaaaa"/>
<circle cx="13.122679710388184" cy="-0.7472788691520691" r="0.40" fill="#aaaaaa"/>
<circle cx="14.510720252990723" cy="-3.347026824951172" r="0.40" fill="#aaaaaa"/>
<circle cx="16.642972946166992" cy="-5.948477268218994" r="0.40" fill="#aaaaaa"/>
<circle cx="19.236557006835938" cy="-7.323479175567627" r="0.40" fill="#aaaaaa"/>
<circle cx="21.98893165588379" cy="-7.9124884605407715" r="0.40" fill="#aaaaaa"/>
<circle cx="24.904321670532227" cy="-8.618974685668945" r="0.40" fill="#aaaaaa"/>
<polyline points="24.904321670532227,-8.618974685668945 104.61170196533203,5.757769584655762" fill="none" stroke="#dd3333" stroke-width="0.80"/>
<path d="M104.61170196533203,5.757769584655762 C110.31819915771484,7.311843395233154 109.01789093017578,15.156128883361816 107.90901947021484,19.41714859008789" fill="none" stroke="#dd3333" stroke-width="0.80"/>
<polyline points="107.90901947021484,19.41714859008789 100.5771713256836,69.61360931396484" fill="none" stroke="#dd3333" stroke-width="0.80"/>
<path d="M100.5771713256836,69.61360931396484 C98.21849060058594,74.49016571044922 93.96745300292969,79.27049255371094 88.02098083496094,77.08716583251953" fill="none" stroke="#dd3333" stroke-width="0.80"/>
<polyline points="88.02098083496094,77.08716583251953 10.207003593444824,58.0416259765625" fill="none" stroke="#dd3333" stroke-width="0.80"/>
<path d="M10.207003593444824,58.0416259765625 C3.1343483924865723,56.68209457397461 2.99880313873291,53.57109451293945 4.834255695343018,47.32503890991211" fill="none" stroke="#dd3333" stroke-width="0.80"/>
<polyline points="4.834255695343018,47.32503890991211 13.315007209777832,-1.62553870677948" fill="none" stroke="#dd3333" stroke-width="0.80"/>
<path d="M13.315007209777832,-1.62553870677948 C16.331132888793945,-7.222601413726807 19.30792236328125,-7.426753044128418 24.904321670532227,-8.618974685668945" fill="none" stroke="#dd3333" stroke-width="0.80"/>
<polygon points="94.24964141845703,22.714466094970703 121.56839752197266,16.119831085205078 118.27108001708984,2.4604525566101074 90.95232391357422,9.05508804321289" fill="#ff8800" fill-opacity="0.12" stroke="#ff8800" stroke-width="0.3" stroke-dasharray="2,2"/>
<polygon points="80.54742431640625,64.53097534179688 95.49453735351562,89.64335632324219 108.05072021484375,82.1697998046875 93.10360717773438,57.05741882324219" fill="#ff8800" fill-opacity="0.12" stroke="#ff8800" stroke-width="0.3" stroke-dasharray="2,2"/>
<polygon points="15.550843238830566,41.952293395996094 -5.882330894470215,52.697792053222656 -0.5095834732055664,63.41437530517578 20.92359161376953,52.66887664794922" fill="#ff8800" fill-opacity="0.12" stroke="#ff8800" stroke-width="0.3" stroke-dasharray="2,2"/>
<polygon points="31.89775848388672,2.970339775085449 17.910884857177734,-20.208290100097656 6.321572303771973,-13.214853286743164 20.30844497680664,9.963775634765625" fill="#ff8800" fill-opacity="0.12" stroke="#ff8800" stroke-width="0.3" stroke-dasharray="2,2"/>
</g>
</svg>
