<svg xmlns="http://www.w3.org/2000/svg" width="400" height="335" viewBox="-10.00 -90.13 133.52 111.88">
<rect x="-10.00" y="-90.13" width="133.52" height="111.88" fill="white"/>
<g transform="scale(1,-1)">
<polyline points="10,0 90,0" fill="none" stroke="#4466aa" stroke-width="0.80" stroke-dasharray="4,2"/>
<path d="M90,0 C95.5228500366211,0 100,4.477152347564697 100,10" fill="none" stroke="#4466aa" stroke-width="0.80" stroke-dasharray="4,2"/>
<polyline points="100,10 100,60" fill="none" stroke="#4466aa" stroke-width="0.80" stroke-dasharray="4,2"/>
<path d="M100,60 C100,65.5228500366211 95.5228500366211,70 90,70" fill="none" stroke="#4466aa" stroke-width="0.80" stroke-dasharray="4,2"/>
<polyline points="90,70 10,70" fill="none" stroke="#4466aa" stroke-width="0.80" stroke-dasharray="4,2"/>
<path d="M10,70 C4.477152347564697,70 0,65.5228500366211 0,60" fill="none" stroke="#4466aa" stroke-width="0.80" stroke-dasharray="4,2"/>
<polyline points="0,60 0,10" fill="none" stroke="#4466aa" stroke-width="0.80" stroke-dasharray="4,2"/>
<path d="M0,10 C0,4.477152347564697 4.477152347564697,0 10,0" fill="none" stroke="#4466aa" stroke-width="0.80" stroke-dasharray="4,2"/>
<polyline points="24.593111038208008,-7.034695625305176 25.722158432006836,-7.536713123321533 26.54215431213379,-6.584749698638916 28.69251251220703,-7.081928253173828 29.87174415588379,-7.82003927230835 30.62275505065918,-6.5435333251953125 31.470502853393555,-5.722138404846191 32.71892166137695,-6.785752773284912 33.47602462768555,-5.537909030914307 34.75093078613281,-6.72613000869751 35.74681091308594,-6.601656913757324 37.64878845214844,-5.930277347564697 39.40636444091797,-4.579560279846191 40.53133773803711,-5.062403678894043 42.25785827636719,-3.5655832290649414 43.35399627685547,-3.912774085998535 44.29547882080078,-3.5323596000671387 45.458030700683594,-4.191993236541748 46.2989501953125,-3.3384757041931152 47.264652252197266,-3.07200288772583 48.1866455078125,-2.599917411804199 49.29509353637695,-3.0050230026245117 50.17998123168945,-2.3583621978759766 51.1446418762207,-2.0869932174682617 52.20899963378906,-2.2846732139587402 53.04509735107422,-1.408463478088379 55.205238342285156,-1.9516639709472656 56.26776885986328,-2.1407480239868164 57.13452911376953,-1.4087810516357422 57.8306999206543,0.12570762634277344 59.097652435302734,-1.0250883102416992 60.96809387207031,-0.20535850524902344 62.95917892456055,0.04680061340332031 63.90024185180664,0.4291801452636719 64.79064178466797,1.0499086380004883 65.7647476196289,1.2768383026123047 67.90048217773438,0.8484621047973633 68.71714782714844,1.8160734176635742 69.93863677978516,0.8791770935058594 70.56097412109375,2.7610292434692383 71.5863037109375,2.7470006942749023 72.53050994873047,3.114553451538086 73.77932739257812,2.049072265625 74.59890747070312,3.002988815307617 75.81432342529297,2.0946483612060547 76.74101257324219,2.5446205139160156 77.53355407714844,3.625791549682617 78.51751708984375,3.8063173294067383 79.67008209228516,3.1936798095703125 80.5766830444336,3.738144874572754 81.6052017211914,3.709111213684082 82.420654296875,4.682435989379883 83.62460327148438,3.8280563354492188 84.51458740234375,4.450728416442871 85.59908294677734,4.158316612243652 86.50287628173828,4.716017723083496 87.5417251586914,4.638379096984863 88.53247833251953,4.786961555480957 89.5118408203125,4.989147186279297 90.37561798095703,5.735143661499023 91.16716766357422,6.820966720581055 92.34696960449219,6.080106735229492 93.05460357666016,7.560697555541992 94.26219177246094,6.689208984375 95.13902282714844,7.373788833618164 97.28556823730469,6.894504547119141 101.05795288085938,8.38576889038086 101.92874145507812,9.098800659179688 102.94255065917969,9.138923645019531 103.09546661376953,8.477640151977539 103.9476547241211,9.130855560302734 105.5933609008789,10.188621520996094 106.75712585449219,10.179885864257812 107.44751739501953,10.929140090942383 107.63038635253906,12.129058837890625 108.35063934326172,12.735483169555664 110.23446655273438,12.656669616699219 110.4019546508789,13.79505729675293 110.52096557617188,14.876422882080078 111.70122528076172,17.831987380981445 111.77792358398438,18.910938262939453 111.781494140625,19.989200592041016 111.64678192138672,20.732975006103516 111.16622924804688,20.664169311523438 111.41191101074219,21.738731384277344 111.28730773925781,22.734588623046875 110.58073425292969,23.60674285888672 110.309814453125,24.571495056152344 109.70423889160156,25.465118408203125 110.10942840576172,26.573585510253906 109.8021011352539,27.530601501464844 108.43541717529297,29.28478240966797 109.17505645751953,30.464340209960938 109.06388854980469,31.463050842285156 108.94346618652344,32.45979309082031 107.24215698242188,33.120506286621094 107.4592514038086,34.188995361328125 107.79920196533203,35.28359603881836 106.66770935058594,36.0654296875 107.80667877197266,37.329864501953125 106.68087005615234,38.11290740966797 106.25289154052734,39.044281005859375 105.60173034667969,39.9282112121582 107.1500244140625,41.27965545654297 106.00507354736328,42.058624267578125 105.30487060546875,42.93213653564453 106.56729125976562,44.222808837890625 105.01507568359375,45.937557220458984 105.86997985839844,47.14161682128906 104.95989990234375,47.97051239013672 104.36093139648438,48.86553955078125 103.52049255371094,49.70923614501953 103.80094909667969,50.79119110107422 104.1229248046875,51.88196563720703 104.27178955078125,52.935951232910156 104.087890625,54.94154357910156 103.731689453125,55.88816833496094 103.12043762207031,56.78058624267578 102.08348846435547,57.58251953125 101.78697967529297,58.541831970214844 102.50433349609375,59.716651916503906 102.50224304199219,60.738548278808594 101.54368591308594,61.55714416503906 101.84452819824219,62.64342498779297 101.74784088134766,63.64521789550781 101.0379409790039,64.51666259765625 101.31527709960938,66.62029266357422 101.34393310546875,67.64872741699219 101.11644744873047,68.62271118164062 100.85796356201172,69.5901107788086 101.1767578125,69.70198059082031 100.90666198730469,70.7085189819336 99.26660919189453,71.18030548095703 99.95799255371094,72.65083312988281 98.90731811523438,73.22838592529297 97.78841400146484,74.98600006103516 96.72865295410156,75.32719421386719 94.66754913330078,75.66555786132812 94.2877197265625,77.26322937011719 92.25192260742188,77.7938232421875 91.22483825683594,78.22512817382812 90.14128875732422,78.22200775146484 89.1256103515625,77.7273941040039 88.435546875,77.43196868896484 88.41288757324219,77.49563598632812 87.44817352294922,77.2244873046875 86.58296203613281,76.48524475097656 85.4130859375,77.17940521240234 84.56070709228516,76.37977600097656 83.59368896484375,76.11949157714844 82.73281860351562,75.35982513427734 81.71224975585938,75.35150146484375 80.63619232177734,75.60424041748047 79.60751342773438,75.634033203125 78.8877182006836,74.21066284179688 76.89607238769531,73.961181640625 75.63172912597656,75.09970092773438 74.88784790039062,73.78961944580078 73.88729095458984,73.68714141845703 72.91004943847656,73.47502899169922 71.74820709228516,74.13130187988281 71.0547866821289,72.5838394165039 69.86858367919922,73.35475158691406 69.04692840576172,72.41061401367188 67.75083923339844,73.69849395751953 66.97909545898438,72.51953887939453 65.9427261352539,72.58551025390625 65.04497528076172,71.9993896484375 63.82469177246094,72.93062591552734 62.995418548583984,72.02230834960938 61.99266052246094,71.93016052246094 61.20048141479492,70.84735870361328 58.93965148925781,71.86426544189453 58.297996520996094,70.07327270507812 56.9718017578125,71.5028076171875 56.30945587158203,69.80914306640625 55.2119140625,70.16293334960938 54.432228088378906,69.0213394165039 53.34558868408203,69.3238525390625 52.256954193115234,69.63572692871094 51.303199768066406,69.31307220458984 49.20789337158203,69.5512466430664 48.26254653930664,69.18901062011719 47.572444915771484,67.6259536743164 46.42964172363281,68.19269561767578 45.51334762573242,67.69375610351562 44.40547180175781,68.09617614746094 43.51411437988281,67.47994995117188 42.56550979614258,67.133056640625 41.65462112426758,66.60871124267578 40.637638092041016,66.58351135253906 39.37160110473633,67.73001098632812 37.5095100402832,66.87097930908203 36.62433624267578,66.22567749023438 34.60770034790039,66.09373474121094 33.867828369140625,64.76481628417969 32.907623291015625,64.47249603271484 31.591732025146484,65.8535385131836 30.821231842041016,64.66871643066406 29.61882781982422,65.51585388183594 27.711772918701172,64.86837768554688 26.880496978759766,63.96949005126953 25.67891502380371,64.81275177001953 24.9039249420166,63.64905548095703 23.783668518066406,64.1097183227539 22.766321182250977,64.08621978759766 22.15469741821289,62.153953552246094 19.828445434570312,63.47863006591797 19.17706298828125,61.733421325683594 17.896129608154297,62.94999694824219 17.149686813354492,61.652008056640625 16.058910369873047,61.973968505859375 15.048283576965332,61.918861389160156 14.296330451965332,60.64678955078125 13.306107521057129,60.49568176269531 12.171544075012207,61.023658752441406 11.34138011932373,60.11952209472656 10.15638256072998,60.88477325439453 10.325214385986328,60.181678771972656 9.25674057006836,60.30805969238281 8.497092247009277,59.545989990234375 7.517914772033691,59.341102600097656 6.287607192993164,59.39112854003906 6.423295021057129,57.6234130859375 4.928133010864258,57.801231384277344 4.179108619689941,57.09465026855469 4.528938293457031,55.660186767578125 3.702469825744629,55.046173095703125 3.761636734008789,53.99778747558594 2.907254219055176,53.283119201660156 1.6591787338256836,52.50288391113281 2.6945295333862305,51.36027526855469 1.47137451171875,50.35010528564453 2.146670341491699,49.3558349609375 2.930220603942871,48.76011657714844 1.7889976501464844,48.532352447509766 2.107095718383789,47.5776252746582 3.4526681900024414,46.8412971496582 2.770549774169922,44.65162658691406 3.624666213989258,43.81083297729492 4.433886528015137,42.96049880981445 3.757603645324707,39.749725341796875 4.002906799316406,38.7795295715332 4.041894912719727,37.765472412109375 4.498634338378906,36.84021759033203 5.57585334777832,36.046844482421875 5.066987991333008,34.91633987426758 5.75823974609375,34.040931701660156 6.607898712158203,33.199188232421875 5.373894691467285,31.914554595947266 5.834395408630371,30.990097045898438 7.387302875518799,30.297836303710938 6.365705490112305,29.058349609375 6.651727676391602,28.096805572509766 7.030683517456055,27.155014038085938 6.502671241760254,26.020442962646484 7.067384719848633,24.095794677734375 7.374977111816406,21.09415054321289 8.651223182678223,20.34308624267578 9.034482955932617,19.402206420898438 9.850231170654297,17.530920028686523 9.184657096862793,16.367107391357422 9.445455551147461,15.400201797485352 10.2584228515625,14.550662994384766 9.291187286376953,13.322731018066406 9.902210235595703,12.430265426635742 10.885802268981934,11.616992950439453 9.717948913574219,10.346418380737305 11.234834671020508,9.646501541137695 11.132780075073242,8.602468490600586 12.17929458618164,7.802572250366211 11.041688919067383,6.538425445556641 12.095972061157227,5.740180015563965 11.367964744567871,4.56309700012207 12.23301887512207,3.7246294021606445 12.766035079956055,2.815584182739258 11.929073333740234,1.615342140197754 12.498839378356934,0.7141084671020508 12.777795791625977,-0.24893856048583984 13.285684585571289,-0.12175369262695312 12.860610961914062,-1.285609245300293 12.866859436035156,-2.4067673683166504 14.303627014160156,-2.8309526443481445 14.133009910583496,-4.1209893226623535 15.343124389648438,-4.456275939941406 16.484447479248047,-6.1272125244140625 16.94533920288086,-7.292716979980469 18.42867660522461,-6.734642028808594 19.277965545654297,-7.197842597961426 20.36958122253418,-6.858858108520508 21.012252807617188,-8.512587547302246 22.033220291137695,-9.010974884033203 23.120655059814453,-8.985664367675781 24.087045669555664,-8.080178260803223 24.614137649536133,-6.969949722290039" fill="none" stroke="#999999" stroke-width="0.3" stroke-dasharray="1,1"/>
<circle cx="24.593111038208008" cy="-7.034695625305176" r="0.40" fill="#aaaaaa"/>
<circle cx="28.69251251220703" cy="-7.081928253173828" r="0.40" fill="#aaaaaa"/>
<circle cx="31.470502853393555" cy="-5.722138404846191" r="0.40" fill="#aaaaaa"/>
<circle cx="34.75093078613281" cy="-6.72613000869751" r="0.40" fill="#aaaaaa"/>
<circle cx="39.40636444091797" cy="-4.579560279846191" r="0.40" fill="#aaaaaa"/>
<circle cx="43.35399627685547" cy="-3.912774085998535" r="0.40" fill="#aaaaaa"/>
<circle cx="46.2989501953125" cy="-3.3384757041931152" r="0.40" fill="#aaaaaa"/>
<circle cx="49.29509353637695" cy="-3.0050230026245117" r="0.40" fill="#aaaaaa"/>
<circle cx="52.20899963378906" cy="-2.2846732139587402" r="0.40" fill="#aaaaaa"/>
<circle cx="56.26776885986328" cy="-2.1407480239868164" r="0.40" fill="#aaaaaa"/>
<circle cx="59.097652435302734" cy="-1.0250883102416992" r="0.40" fill="#aaaaaa"/>
<circle cx="63.90024185180664" cy="0.4291801452636719" r="0.40" fill="#aaaaaa"/>
<circle cx="67.90048217773438" cy="0.8484621047973633" r="0.40" fill="#aaaaaa"/>
<circle cx="70.56097412109375" cy="2.7610292434692383" r="0.40" fill="#aaaaaa"/>
<circle cx="73.77932739257812" cy="2.049072265625" r="0.40" fill="#aaaaaa"/>
<circle cx="76.74101257324219" cy="2.5446205139160156" r="0.40" fill="#aaaaaa"/>
<circle cx="79.67008209228516" cy="3.1936798095703125" r="0.40" fill="#aaaaaa"/>
<circle cx="82.420654296875" cy="4.682435989379883" r="0.40" fill="#aaaaaa"/>
<circle cx="85.59908294677734" cy="4.158316612243652" r="0.40" fill="#aaaaaa"/>
<circle cx="88.53247833251953" cy="4.786961555480957" r="0.40" fill="#aaaaaa"/>
<circle cx="91.16716766357422" cy="6.820966720581055" r="0.40" fill="#aaaaaa"/>
<circle cx="94.26219177246094" cy="6.689208984375" r="0.40" fill="#aaaaaa"/>
<circle cx="101.05795288085938" cy="8.38576889038086" r="0.40" fill="#aaaaaa"/>
<circle cx="103.09546661376953" cy="8.477640151977539" r="0.40" fill="#aaaaaa"/>
<circle cx="106.75712585449219" cy="10.179885864257812" r="0.40" fill="#aaaaaa"/>
<circle cx="108.35063934326172" cy="12.735483169555664" r="0.40" fill="#aaaaaa"/>
<circle cx="110.52096557617188" cy="14.876422882080078" r="0.40" fill="#aaaaaa"/>
<circle cx="111.781494140625" cy="19.989200592041016" r="0.40" fill="#aaaaaa"/>
<circle cx="111.41191101074219" cy="21.738731384277344" r="0.40" fill="#aaaaaa"/>
<circle cx="110.309814453125" cy="24.571495056152344" r="0.40" fill="#aaaaaa"/>
<circle cx="109.8021011352539" cy="27.530601501464844" r="0.40" fill="#aaaaaa"/>
<circle cx="109.06388854980469" cy="31.463050842285156" r="0.40" fill="#aaaaaa"/>
<circle cx="107.4592514038086" cy="34.188995361328125" r="0.40" fill="#aaaaaa"/>
<circle cx="107.80667877197266" cy="37.329864501953125" r="0.40" fill="#aaaaaa"/>
<circle cx="105.60173034667969" cy="39.9282112121582" r="0.40" fill="#aaaaaa"/>
<circle cx="105.30487060546875" cy="42.93213653564453" r="0.40" fill="#aaaaaa"/>
<circle cx="105.86997985839844" cy="47.14161682128906" r="0.40" fill="#aaaaaa"/>
<circle cx="103.52049255371094" cy="49.70923614501953" r="0.40" fill="#aaaaaa"/>
<circle cx="104.27178955078125" cy="52.935951232910156" r="0.40" fill="#aaaaaa"/>
<circle cx="103.12043762207031" cy="56.78058624267578" r="0.40" fill="#aaaaaa"/>
<circle cx="102.50433349609375" cy="59.716651916503906" r="0.40" fill="#aaaaaa"/>
<circle cx="101.84452819824219" cy="62.64342498779297" r="0.40" fill="#aaaaaa"/>
<circle cx="101.31527709960938" cy="66.62029266357422" r="0.40" fill="#aaaaaa"/>
<circle cx="100.85796356201172" cy="69.5901107788086" r="0.40" fill="#aaaaaa"/>
<circle cx="99.26660919189453" cy="71.18030548095703" r="0.40" fill="#aaaaaa"/>
<circle cx="97.78841400146484" cy="74.98600006103516" r="0.40" fill="#aaaaaa"/>
<circle cx="94.2877197265625" cy="77.26322937011719" r="0.40" fill="#aaaaaa"/>
<circle cx="90.14128875732422" cy="78.22200775146484" r="0.40" fill="#aaaaaa"/>
<circle cx="88.41288757324219" cy="77.49563598632812" r="0.40" fill="#aaaaaa"/>
<circle cx="85.4130859375" cy="77.17940521240234" r="0.40" fill="#aaaaaa"/>
<circle cx="82.73281860351562" cy="75.35982513427734" r="0.40" fill="#aaaaaa"/>
<circle cx="79.60751342773438" cy="75.634033203125" r="0.40" fill="#aaaaaa"/>
<circle cx="75.63172912597656" cy="75.09970092773438" r="0.40" fill="#aaaaaa"/>
<circle cx="72.91004943847656" cy="73.47502899169922" r="0.40" fill="#aaaaaa"/>
<circle cx="69.86858367919922" cy="73.35475158691406" r="0.40" fill="#aaaaaa"/>
<circle cx="66.97909545898438" cy="72.51953887939453" r="0.40" fill="#aaaaaa"/>
<circle cx="63.82469177246094" cy="72.93062591552734" r="0.40" fill="#aaaaaa"/>
<circle cx="61.20048141479492" cy="70.84735870361328" r="0.40" fill="#aaaaaa"/>
<circle cx="56.9718017578125" cy="71.5028076171875" r="0.40" fill="#aaaaaa"/>
<circle cx="54.432228088378906" cy="69.0213394165039" r="0.40" fill="#aaaaaa"/>
<circle cx="51.303199768066406" cy="69.31307220458984" r="0.40" fill="#aaaaaa"/>
<circle cx="47.572444915771484" cy="67.6259536743164" r="0.40" fill="#aaaaaa"/>
<circle cx="44.40547180175781" cy="68.09617614746094" r="0.40" fill="#aaaaaa"/>
<circle cx="41.65462112426758" cy="66.60871124267578" r="0.40" fill="#aaaaaa"/>
<circle cx="37.5095100402832" cy="66.87097930908203" r="0.40" fill="#aaaaaa"/>
<circle cx="33.867828369140625" cy="64.76481628417969" r="0.40" fill="#aaaaaa"/>
<circle cx="30.821231842041016" cy="64.66871643066406" r="0.40" fill="#aaaaaa"/>
<circle cx="26.880496978759766" cy="63.96949005126953" r="0.40" fill="#aaaaaa"/>
<circle cx="23.783668518066406" cy="64.1097183227539" r="0.40" fill="#aaaaaa"/>
<circle cx="19.828445434570312" cy="63.47863006591797" r="0.40" fill="#aaaaaa"/>
<circle cx="17.149686813354492" cy="61.652008056640625" r="0.40" fill="#aaaaaa"/>
<circle cx="14.296330451965332" cy="60.64678955078125" r="0.40" fill="#aaaaaa"/>
<circle cx="11.34138011932373" cy="60.11952209472656" r="0.40" fill="#aaaaaa"/>
<circle cx="9.25674057006836" cy="60.30805969238281" r="0.40" fill="#aaaaaa"/>
<circle cx="6.287607192993164" cy="59.39112854003906" r="0.40" fill="#aaaaaa"/>
<circle cx="4.179108619689941" cy="57.09465026855469" r="0.40" fill="#aaaaaa"/>
<circle cx="3.761636734008789" cy="53.99778747558594" r="0.40" fill="#aaaaaa"/>
<circle cx="2.6945295333862305" cy="51.36027526855469" r="0.40" fill="#aaaaaa"/>
<circle cx="2.930220603942871" cy="48.76011657714844" r="0.40" fill="#aaaaaa"/>
<circle cx="3.4526681900024414" cy="46.8412971496582" r="0.40" fill="#aaaaaa"/>
<circle cx="4.433886528015137" cy="42.96049880981445" r="0.40" fill="#aaaaaa"/>
<circle cx="4.041894912719727" cy="37.765472412109375" r="0.40" fill="#aaaaaa"/>
<circle cx="5.066987991333008" cy="34.91633987426758" r="0.40" fill="#aaaaaa"/>
<circle cx="5.373894691467285" cy="31.914554595947266" r="0.40" fill="#aaaaaa"/>
<circle cx="6.365705490112305" cy="29.058349609375" r="0.40" fill="#aaaaaa"/>
<circle cx="6.502671241760254" cy="26.020442962646484" r="0.40" fill="#aaaaaa"/>
<circle cx="8.651223182678223" cy="20.34308624267578" r="0.40" fill="#aaaaaa"/>
<circle cx="9.184657096862793" cy="16.367107391357422" r="0.40" fill="#aaaaaa"/>
<circle cx="9.291187286376953" cy="13.322731018066406" r="0.40" fill="#aaaaaa"/>
<circle cx="9.717948913574219" cy="10.346418380737305" r="0.40" fill="#aaaaaa"/>
<circle cx="12.17929458618164" cy="7.802572250366211" r="0.40" fill="#aaaaaa"/>
<circle cx="11.367964744567871" cy="4.56309700012207" r="0.40" fill="#aaaaaa"/>
<circle cx="11.929073333740234" cy="1.615342140197754" r="0.40" fill="#aaaaaa"/>
<circle cx="13.285684585571289" cy="-0.12175369262695312" r="0.40" fill="#aaaaaa"/>
<circle cx="14.303627014160156" cy="-2.8309526443481445" r="0.40" fill="#aaaaaa"/>
<circle cx="16.484447479248047" cy="-6.1272125244140625" r="0.40" fill="#aaaaaa"/>
<circle cx="19.277965545654297" cy="-7.197842597961426" r="0.40" fill="#aaaaaa"/>
<circle cx="22.033220291137695" cy="-9.010974884033203" r="0.40" fill="#aaaaaa"/>
<circle cx="24.614137649536133" cy="-6.969949722290039" r="0.40" fill="#aaaaaa"/>
<polyline points="87.90318298339844,77.35237121582031 9.643293380737305,60.26233673095703" fill="none" stroke="#dd3333" stroke-width="0.80"/>
<path d="M9.643293380737305,60.26233673095703 C5.109574317932129,59.44188690185547 1.448714017868042,52.61322784423828 2.0807993412017822,48.59059143066406" fill="none" stroke="#dd3333" stroke-width="0.80"/>
<polyline points="2.0807993412017822,48.59059143066406 12.991999626159668,-0.19529801607131958" fill="none" stroke="#dd3333" stroke-width="0.80"/>
<path d="M12.991999626159668,-0.19529801607131958 C11.355101585388184,-3.2061707973480225 22.497303009033203,-11.743736267089844 25.190189361572266,-7.300179481506348" fill="none" stroke="#dd3333" stroke-width="0.80"/>
<polyline points="25.190189361572266,-7.300179481506348 102.94255065917969,9.138923645019531" fill="none" stroke="#dd3333" stroke-width="0.80"/>
<path d="M102.94255065917969,9.138923645019531 C107.85565948486328,10.144363403320312 113.52175903320312,15.315613746643066 111.33466339111328,21.400869369506836" fill="none" stroke="#dd3333" stroke-width="0.80"/>
<polyline points="111.33466339111328,21.400869369506836 99.86571502685547,71.00796508789062" fill="none" stroke="#dd3333" stroke-width="0.80"/>
<path d="M99.86571502685547,71.00796508789062 C100.61566925048828,73.75020599365234 91.45294952392578,80.13491821289062 87.90318298339844,77.35237121582031" fill="none" stroke="#dd3333" stroke-width="0.80"/>
<polygon points="13.752544403076172,41.028099060058594 -9.590946197509766,56.15308380126953 -2.028451919555664,67.8248291015625 21.315038681030273,52.69984436035156" fill="#ff8800" fill-opacity="0.12" stroke="#ff8800" stroke-width="0.3" stroke-dasharray="2,2"/>
<polygon points="32.29507064819336,4.89801025390625 18.085308074951172,-19.498369216918945 5.887119293212891,-12.393487930297852 20.096881866455078,12.002891540527344" fill="#ff8800" fill-opacity="0.12" stroke="#ff8800" stroke-width="0.3" stroke-dasharray="2,2"/>
<polygon points="99.07272338867188,29.79298210144043 123.59661865234375,13.008756637573242 115.20449829101562,0.7468109130859375 90.68060302734375,17.531036376953125" fill="#ff8800" fill-opacity="0.12" stroke="#ff8800" stroke-width="0.3" stroke-dasharray="2,2"/>
<polygon points="81.55877685546875,65.38983917236328 94.24758911132812,89.31490325927734 106.21011352539062,82.97049713134766 93.52130126953125,59.045433044433594" fill="#ff8800" fill-opacity="0.12" stroke="#ff8800" stroke-width="0.3" stroke-dasharray="2,2"/>
</g>
</svg>
