<svg xmlns="http://www.w3.org/2000/svg" width="50" height="50" viewBox="0 0 50 50"><path fill="#e8edff" stroke="#4466aa" stroke-width="0.3" d="M35,25 L34.23879623413086,28.826833724975586 L32.071067810058594,32.071067810058594 L28.826833724975586,34.23879623413086 L25,35 L21.173166275024414,34.23879623413086 L17.928932189941406,32.071067810058594 L15.761204719543457,28.826833724975586 L15,25 L15.761204719543457,21.173166275024414 L17.928932189941406,17.928932189941406 L21.173166275024414,15.761204719543457 L25,15 L28.826833724975586,15.761204719543457 L32.071067810058594,17.928932189941406 L34.23879623413086,21.173166275024414 Z"/><line x1="30" y1="20" x2="34.23879623413086" y2="28.826833724975586" stroke="#bbbbbb" stroke-width="0.25" stroke-linecap="round"/><line x1="25" y1="25" x2="15.761204719543457" y2="28.826833724975586" stroke="#bbbbbb" stroke-width="0.25" stroke-linecap="round"/><line x1="26.622116088867188" y1="33.154930114746094" x2="23.08658218383789" y2="24.61939811706543" stroke="#bbbbbb" stroke-width="0.25" stroke-linecap="round"/><line x1="20.11641502380371" y1="21.92040252685547" x2="15.761204719543457" y2="25" stroke="#bbbbbb" stroke-width="0.25" stroke-linecap="round"/><line x1="20.11641502380371" y1="21.92040252685547" x2="22.29401969909668" y2="22.29401969909668" stroke="#bbbbbb" stroke-width="0.25" stroke-linecap="round"/><line x1="20.11641502380371" y1="21.92040252685547" x2="22.29401969909668" y2="18.467185974121094" stroke="#bbbbbb" stroke-width="0.25" stroke-linecap="round"/><line x1="18.467185974121094" y1="22.29401969909668" x2="22.29401969909668" y2="22.29401969909668" stroke="#bbbbbb" stroke-width="0.25" stroke-linecap="round"/><line x1="23.535533905029297" y1="21.464466094970703" x2="23.916135787963867" y2="23.377883911132812" stroke="#bbbbbb" stroke-width="0.25" stroke-linecap="round"/><line x1="22.29401969909668" y1="18.467185974121094" x2="23.916135787963867" y2="19.551048278808594" stroke="#bbbbbb" stroke-width="0.25" stroke-linecap="round"/><line x1="21.92040252685547" y1="23.724388122558594" x2="15.761204719543457" y2="25" stroke="#bbbbbb" stroke-width="0.25" stroke-linecap="round"/><line x1="21.92040252685547" y1="23.724388122558594" x2="25" y2="21.173166275024414" stroke="#bbbbbb" stroke-width="0.25" stroke-linecap="round"/><line x1="21.92040252685547" y1="23.724388122558594" x2="25" y2="25" stroke="#bbbbbb" stroke-width="0.25" stroke-linecap="round"/><line x1="23.724388122558594" y1="21.92040252685547" x2="18.467185974121094" y2="22.29401969909668" stroke="#bbbbbb" stroke-width="0.25" stroke-linecap="round"/><line x1="23.724388122558594" y1="21.92040252685547" x2="25" y2="25" stroke="#bbbbbb" stroke-width="0.25" stroke-linecap="round"/><line x1="23.724388122558594" y1="21.92040252685547" x2="27.70598030090332" y2="18.467185974121094" stroke="#bbbbbb" stroke-width="0.25" stroke-linecap="round"/><line x1="29.61939811706543" y1="28.08658218383789" x2="31.532814025878906" y2="27.70598030090332" stroke="#bbbbbb" stroke-width="0.25" stroke-linecap="round"/><line x1="28.07959747314453" y1="23.724388122558594" x2="25" y2="25" stroke="#bbbbbb" stroke-width="0.25" stroke-linecap="round"/><line x1="28.07959747314453" y1="23.724388122558594" x2="29.61939811706543" y2="18.08658218383789" stroke="#bbbbbb" stroke-width="0.25" stroke-linecap="round"/><line x1="28.07959747314453" y1="23.724388122558594" x2="29.61939811706543" y2="28.08658218383789" stroke="#bbbbbb" stroke-width="0.25" stroke-linecap="round"/><line x1="29.161008834838867" y1="29.1610107421875" x2="26.622116088867188" y2="33.154930114746094" stroke="#bbbbbb" stroke-width="0.25" stroke-linecap="round"/><line x1="29.161008834838867" y1="29.1610107421875" x2="33.154930114746094" y2="26.622116088867188" stroke="#bbbbbb" stroke-width="0.25" stroke-linecap="round"/><line x1="29.161008834838867" y1="29.1610107421875" x2="27.70598030090332" y2="27.70598030090332" stroke="#bbbbbb" stroke-width="0.25" stroke-linecap="round"/><line x1="26.275611877441406" y1="21.92040252685547" x2="22.29401969909668" y2="22.29401969909668" stroke="#bbbbbb" stroke-width="0.25" stroke-linecap="round"/><line x1="26.275611877441406" y1="21.92040252685547" x2="31.532814025878906" y2="18.467185974121094" stroke="#bbbbbb" stroke-width="0.25" stroke-linecap="round"/><line x1="26.275611877441406" y1="21.92040252685547" x2="25" y2="25" stroke="#bbbbbb" stroke-width="0.25" stroke-linecap="round"/><line x1="25" y1="21.173166275024414" x2="24.61939811706543" y2="23.08658218383789" stroke="#bbbbbb" stroke-width="0.25" stroke-linecap="round"/><line x1="26.275611877441406" y1="19.369178771972656" x2="22.29401969909668" y2="18.467185974121094" stroke="#bbbbbb" stroke-width="0.25" stroke-linecap="round"/><line x1="26.275611877441406" y1="19.369178771972656" x2="31.532814025878906" y2="18.467185974121094" stroke="#bbbbbb" stroke-width="0.25" stroke-linecap="round"/><line x1="26.275611877441406" y1="19.369178771972656" x2="25" y2="21.173166275024414" stroke="#bbbbbb" stroke-width="0.25" stroke-linecap="round"/><line x1="27.70598030090332" y1="18.467185974121094" x2="26.083864212036133" y2="19.551048278808594" stroke="#bbbbbb" stroke-width="0.25" stroke-linecap="round"/><line x1="26.083864212036133" y1="19.551048278808594" x2="31.532814025878906" y2="18.467185974121094" stroke="#bbbbbb" stroke-width="0.25" stroke-linecap="round"/><line x1="23.916135787963867" y1="23.377883911132812" x2="25" y2="25" stroke="#bbbbbb" stroke-width="0.25" stroke-linecap="round"/><line x1="31.532814025878906" y1="27.70598030090332" x2="33.154930114746094" y2="26.622116088867188" stroke="#bbbbbb" stroke-width="0.25" stroke-linecap="round"/><line x1="23.535533905029297" y1="21.464466094970703" x2="24.61939811706543" y2="23.08658218383789" stroke="#bbbbbb" stroke-width="0.25" stroke-linecap="round"/><line x1="23.916135787963867" y1="19.551048278808594" x2="25" y2="21.173166275024414" stroke="#bbbbbb" stroke-width="0.25" stroke-linecap="round"/><line x1="26.803987503051758" y1="23.470653533935547" x2="23.08658218383789" y2="24.61939811706543" stroke="#bbbbbb" stroke-width="0.25" stroke-linecap="round"/><line x1="26.803987503051758" y1="23.470653533935547" x2="27.70598030090332" y2="27.70598030090332" stroke="#bbbbbb" stroke-width="0.25" stroke-linecap="round"/><line x1="26.803987503051758" y1="23.470653533935547" x2="29.61939811706543" y2="18.08658218383789" stroke="#bbbbbb" stroke-width="0.25" stroke-linecap="round"/><line x1="30" y1="20" x2="29.61939811706543" y2="18.08658218383789" stroke="#bbbbbb" stroke-width="0.25" stroke-linecap="round"/><circle cx="30" cy="20" r="0.4" fill="#bbbbbb"/><circle cx="34.23879623413086" cy="28.826833724975586" r="0.4" fill="#bbbbbb"/><circle cx="25" cy="25" r="0.4" fill="#bbbbbb"/><circle cx="15.761204719543457" cy="28.826833724975586" r="0.4" fill="#bbbbbb"/><circle cx="26.622116088867188" cy="33.154930114746094" r="0.4" fill="#bbbbbb"/><circle cx="23.08658218383789" cy="24.61939811706543" r="0.4" fill="#bbbbbb"/><circle cx="20.11641502380371" cy="21.92040252685547" r="0.4" fill="#bbbbbb"/><circle cx="15.761204719543457" cy="25" r="0.4" fill="#bbbbbb"/><circle cx="22.29401969909668" cy="22.29401969909668" r="0.4" fill="#bbbbbb"/><circle cx="22.29401969909668" cy="18.467185974121094" r="0.4" fill="#bbbbbb"/><circle cx="18.467185974121094" cy="22.29401969909668" r="0.4" fill="#bbbbbb"/><circle cx="23.535533905029297" cy="21.464466094970703" r="0.4" fill="#bbbbbb"/><circle cx="23.916135787963867" cy="23.377883911132812" r="0.4" fill="#bbbbbb"/><circle cx="23.916135787963867" cy="19.551048278808594" r="0.4" fill="#bbbbbb"/><circle cx="21.92040252685547" cy="23.724388122558594" r="0.4" fill="#bbbbbb"/><circle cx="25" cy="21.173166275024414" r="0.4" fill="#bbbbbb"/><circle cx="23.724388122558594" cy="21.92040252685547" r="0.4" fill="#bbbbbb"/><circle cx="27.70598030090332" cy="18.467185974121094" r="0.4" fill="#bbbbbb"/><circle cx="29.61939811706543" cy="28.08658218383789" r="0.4" fill="#bbbbbb"/><circle cx="31.532814025878906" cy="27.70598030090332" r="0.4" fill="#bbbbbb"/><circle cx="28.07959747314453" cy="23.724388122558594" r="0.4" fill="#bbbbbb"/><circle cx="29.61939811706543" cy="18.08658218383789" r="0.4" fill="#bbbbbb"/><circle cx="29.161008834838867" cy="29.1610107421875" r="0.4" fill="#bbbbbb"/><circle cx="33.154930114746094" cy="26.622116088867188" r="0.4" fill="#bbbbbb"/><circle cx="27.70598030090332" cy="27.70598030090332" r="0.4" fill="#bbbbbb"/><circle cx="26.275611877441406" cy="21.92040252685547" r="0.4" fill="#bbbbbb"/><circle cx="31.532814025878906" cy="18.467185974121094" r="0.4" fill="#bbbbbb"/><circle cx="24.61939811706543" cy="23.08658218383789" r="0.4" fill="#bbbbbb"/><circle cx="26.275611877441406" cy="19.369178771972656" r="0.4" fill="#bbbbbb"/><circle cx="26.083864212036133" cy="19.551048278808594" r="0.4" fill="#bbbbbb"/><circle cx="26.803987503051758" cy="23.470653533935547" r="0.4" fill="#bbbbbb"/><line x1="26.622116088867188" y1="33.154930114746094" x2="23.08658218383789" y2="24.61939811706543" stroke="#dd3333" stroke-width="0.75" stroke-linecap="round"/><line x1="20.11641502380371" y1="21.92040252685547" x2="15.761204719543457" y2="25" stroke="#dd3333" stroke-width="0.75" stroke-linecap="round"/><line x1="20.11641502380371" y1="21.92040252685547" x2="22.29401969909668" y2="22.29401969909668" stroke="#dd3333" stroke-width="0.75" stroke-linecap="round"/><line x1="20.11641502380371" y1="21.92040252685547" x2="22.29401969909668" y2="18.467185974121094" stroke="#dd3333" stroke-width="0.75" stroke-linecap="round"/><line x1="18.467185974121094" y1="22.29401969909668" x2="22.29401969909668" y2="22.29401969909668" stroke="#dd3333" stroke-width="0.75" stroke-linecap="round"/><line x1="23.535533905029297" y1="21.464466094970703" x2="23.916135787963867" y2="23.377883911132812" stroke="#dd3333" stroke-width="0.75" stroke-linecap="round"/><line x1="22.29401969909668" y1="18.467185974121094" x2="23.916135787963867" y2="19.551048278808594" stroke="#dd3333" stroke-width="0.75" stroke-linecap="round"/><line x1="21.92040252685547" y1="23.724388122558594" x2="15.761204719543457" y2="25" stroke="#dd3333" stroke-width="0.75" stroke-linecap="round"/><line x1="21.92040252685547" y1="23.724388122558594" x2="25" y2="21.173166275024414" stroke="#dd3333" stroke-width="0.75" stroke-linecap="round"/><line x1="21.92040252685547" y1="23.724388122558594" x2="25" y2="25" stroke="#dd3333" stroke-width="0.75" stroke-linecap="round"/><line x1="23.724388122558594" y1="21.92040252685547" x2="18.467185974121094" y2="22.29401969909668" stroke="#dd3333" stroke-width="0.75" stroke-linecap="round"/><line x1="23.724388122558594" y1="21.92040252685547" x2="25" y2="25" stroke="#dd3333" stroke-width="0.75" stroke-linecap="round"/><line x1="23.724388122558594" y1="21.92040252685547" x2="27.70598030090332" y2="18.467185974121094" stroke="#dd3333" stroke-width="0.75" stroke-linecap="round"/><line x1="29.61939811706543" y1="28.08658218383789" x2="31.532814025878906" y2="27.70598030090332" stroke="#dd3333" stroke-width="0.75" stroke-linecap="round"/><line x1="28.07959747314453" y1="23.724388122558594" x2="25" y2="25" stroke="#dd3333" stroke-width="0.75" stroke-linecap="round"/><line x1="28.07959747314453" y1="23.724388122558594" x2="29.61939811706543" y2="18.08658218383789" stroke="#dd3333" stroke-width="0.75" stroke-linecap="round"/><line x1="28.07959747314453" y1="23.724388122558594" x2="29.61939811706543" y2="28.08658218383789" stroke="#dd3333" stroke-width="0.75" stroke-linecap="round"/><line x1="29.161008834838867" y1="29.1610107421875" x2="26.622116088867188" y2="33.154930114746094" stroke="#dd3333" stroke-width="0.75" stroke-linecap="round"/><line x1="29.161008834838867" y1="29.1610107421875" x2="33.154930114746094" y2="26.622116088867188" stroke="#dd3333" stroke-width="0.75" stroke-linecap="round"/><line x1="29.161008834838867" y1="29.1610107421875" x2="27.70598030090332" y2="27.70598030090332" stroke="#dd3333" stroke-width="0.75" stroke-linecap="round"/><line x1="26.275611877441406" y1="21.92040252685547" x2="22.29401969909668" y2="22.29401969909668" stroke="#dd3333" stroke-width="0.75" stroke-linecap="round"/><line x1="26.275611877441406" y1="21.92040252685547" x2="31.532814025878906" y2="18.467185974121094" stroke="#dd3333" stroke-width="0.75" stroke-linecap="round"/><line x1="26.275611877441406" y1="21.92040252685547" x2="25" y2="25" stroke="#dd3333" stroke-width="0.75" stroke-linecap="round"/><line x1="25" y1="21.173166275024414" x2="24.61939811706543" y2="23.08658218383789" stroke="#dd3333" stroke-width="0.75" stroke-linecap="round"/><line x1="26.275611877441406" y1="19.369178771972656" x2="22.29401969909668" y2="18.467185974121094" stroke="#dd3333" stroke-width="0.75" stroke-linecap="round"/><line x1="26.275611877441406" y1="19.369178771972656" x2="31.532814025878906" y2="18.467185974121094" stroke="#dd3333" stroke-width="0.75" stroke-linecap="round"/><line x1="26.275611877441406" y1="19.369178771972656" x2="25" y2="21.173166275024414" stroke="#dd3333" stroke-width="0.75" stroke-linecap="round"/><line x1="27.70598030090332" y1="18.467185974121094" x2="26.083864212036133" y2="19.551048278808594" stroke="#dd3333" stroke-width="0.75" stroke-linecap="round"/><line x1="26.083864212036133" y1="19.551048278808594" x2="31.532814025878906" y2="18.467185974121094" stroke="#dd3333" stroke-width="0.75" stroke-linecap="round"/><line x1="23.916135787963867" y1="23.377883911132812" x2="25" y2="25" stroke="#dd3333" stroke-width="0.75" stroke-linecap="round"/><line x1="31.532814025878906" y1="27.70598030090332" x2="33.154930114746094" y2="26.622116088867188" stroke="#dd3333" stroke-width="0.75" stroke-linecap="round"/><line x1="23.535533905029297" y1="21.464466094970703" x2="24.61939811706543" y2="23.08658218383789" stroke="#dd3333" stroke-width="0.75" stroke-linecap="round"/><line x1="23.916135787963867" y1="19.551048278808594" x2="25" y2="21.173166275024414" stroke="#dd3333" stroke-width="0.75" stroke-linecap="round"/><line x1="26.803987503051758" y1="23.470653533935547" x2="23.08658218383789" y2="24.61939811706543" stroke="#dd3333" stroke-width="0.75" stroke-linecap="round"/><line x1="26.803987503051758" y1="23.470653533935547" x2="27.70598030090332" y2="27.70598030090332" stroke="#dd3333" stroke-width="0.75" stroke-linecap="round"/><line x1="26.803987503051758" y1="23.470653533935547" x2="29.61939811706543" y2="18.08658218383789" stroke="#dd3333" stroke-width="0.75" stroke-linecap="round"/><circle cx="30" cy="20" r="0" fill="#dd3333"/><circle cx="34.23879623413086" cy="28.826833724975586" r="0" fill="#dd3333"/><circle cx="25" cy="25" r="0" fill="#dd3333"/><circle cx="15.761204719543457" cy="28.826833724975586" r="0" fill="#dd3333"/><circle cx="26.622116088867188" cy="33.154930114746094" r="0" fill="#dd3333"/><circle cx="23.08658218383789" cy="24.61939811706543" r="0" fill="#dd3333"/><circle cx="20.11641502380371" cy="21.92040252685547" r="0" fill="#dd3333"/><circle cx="15.761204719543457" cy="25" r="0" fill="#dd3333"/><circle cx="22.29401969909668" cy="22.29401969909668" r="0" fill="#dd3333"/><circle cx="22.29401969909668" cy="18.467185974121094" r="0" fill="#dd3333"/><circle cx="18.467185974121094" cy="22.29401969909668" r="0" fill="#dd3333"/><circle cx="23.535533905029297" cy="21.464466094970703" r="0" fill="#dd3333"/><circle cx="23.916135787963867" cy="23.377883911132812" r="0" fill="#dd3333"/><circle cx="23.916135787963867" cy="19.551048278808594" r="0" fill="#dd3333"/><circle cx="21.92040252685547" cy="23.724388122558594" r="0" fill="#dd3333"/><circle cx="25" cy="21.173166275024414" r="0" fill="#dd3333"/><circle cx="23.724388122558594" cy="21.92040252685547" r="0" fill="#dd3333"/><circle cx="27.70598030090332" cy="18.467185974121094" r="0" fill="#dd3333"/><circle cx="29.61939811706543" cy="28.08658218383789" r="0" fill="#dd3333"/><circle cx="31.532814025878906" cy="27.70598030090332" r="0" fill="#dd3333"/><circle cx="28.07959747314453" cy="23.724388122558594" r="0" fill="#dd3333"/><circle cx="29.61939811706543" cy="18.08658218383789" r="0" fill="#dd3333"/><circle cx="29.161008834838867" cy="29.1610107421875" r="0" fill="#dd3333"/><circle cx="33.154930114746094" cy="26.622116088867188" r="0" fill="#dd3333"/><circle cx="27.70598030090332" cy="27.70598030090332" r="0" fill="#dd3333"/><circle cx="26.275611877441406" cy="21.92040252685547" r="0" fill="#dd3333"/><circle cx="31.532814025878906" cy="18.467185974121094" r="0" fill="#dd3333"/><circle cx="24.61939811706543" cy="23.08658218383789" r="0" fill="#dd3333"/><circle cx="26.275611877441406" cy="19.369178771972656" r="0" fill="#dd3333"/><circle cx="26.083864212036133" cy="19.551048278808594" r="0" fill="#dd3333"/><circle cx="26.803987503051758" cy="23.470653533935547" r="0" fill="#dd3333"/></svg>