<svg xmlns="http://www.w3.org/2000/svg" width="50" height="50" viewBox="0 0 50 50"><path fill="#e8edff" stroke="#4466aa" stroke-width="0.3" d="M35,25 L34.23879623413086,28.826833724975586 L32.071067810058594,32.071067810058594 L28.826833724975586,34.23879623413086 L25,35 L21.173166275024414,34.23879623413086 L17.928932189941406,32.071067810058594 L15.761204719543457,28.826833724975586 L15,25 L15.761204719543457,21.173166275024414 L17.928932189941406,17.928932189941406 L21.173166275024414,15.761204719543457 L25,15 L28.826833724975586,15.761204719543457 L32.071067810058594,17.928932189941406 L34.23879623413086,21.173166275024414 Z"/><line x1="32.39103317260742" y1="28.06145477294922" x2="28.695533752441406" y2="26.530744552612305" stroke="#bbbbbb" stroke-width="0.25" stroke-linecap="round"/><line x1="28.69550323486328" y1="26.530729293823242" x2="28.695533752441406" y2="26.530744552612305" stroke="#bbbbbb" stroke-width="0.25" stroke-linecap="round"/><line x1="30.65683937072754" y1="30.65683937072754" x2="27.828428268432617" y2="27.828428268432617" stroke="#bbbbbb" stroke-width="0.25" stroke-linecap="round"/><line x1="27.82842254638672" y1="27.82842254638672" x2="27.828428268432617" y2="27.828428268432617" stroke="#bbbbbb" stroke-width="0.25" stroke-linecap="round"/><line x1="26.530746459960938" y1="28.695545196533203" x2="28.061464309692383" y2="32.39105224609375" stroke="#bbbbbb" stroke-width="0.25" stroke-linecap="round"/><line x1="26.530746459960938" y1="28.695545196533203" x2="26.530736923217773" y2="28.695518493652344" stroke="#bbbbbb" stroke-width="0.25" stroke-linecap="round"/><line x1="25" y1="32.99999237060547" x2="25" y2="28.999963760375977" stroke="#bbbbbb" stroke-width="0.25" stroke-linecap="round"/><line x1="21.938535690307617" y1="32.39105987548828" x2="23.469253540039062" y2="28.695537567138672" stroke="#bbbbbb" stroke-width="0.25" stroke-linecap="round"/><line x1="23.469266891479492" y1="28.695512771606445" x2="23.469253540039062" y2="28.695537567138672" stroke="#bbbbbb" stroke-width="0.25" stroke-linecap="round"/><line x1="19.34316062927246" y1="30.65683937072754" x2="22.171566009521484" y2="27.828433990478516" stroke="#bbbbbb" stroke-width="0.25" stroke-linecap="round"/><line x1="22.171571731567383" y1="27.828428268432617" x2="22.171566009521484" y2="27.828433990478516" stroke="#bbbbbb" stroke-width="0.25" stroke-linecap="round"/><line x1="21.304458618164062" y1="26.530744552612305" x2="17.608976364135742" y2="28.06145477294922" stroke="#bbbbbb" stroke-width="0.25" stroke-linecap="round"/><line x1="21.304458618164062" y1="26.530744552612305" x2="21.30448341369629" y2="26.53073501586914" stroke="#bbbbbb" stroke-width="0.25" stroke-linecap="round"/><line x1="21.00000762939453" y1="25" x2="17" y2="25" stroke="#bbbbbb" stroke-width="0.25" stroke-linecap="round"/><line x1="21.00000762939453" y1="25" x2="21.000032424926758" y2="25" stroke="#bbbbbb" stroke-width="0.25" stroke-linecap="round"/><line x1="17.608966827392578" y1="21.93854522705078" x2="21.304466247558594" y2="23.469255447387695" stroke="#bbbbbb" stroke-width="0.25" stroke-linecap="round"/><line x1="21.30449676513672" y1="23.469270706176758" x2="21.304466247558594" y2="23.469255447387695" stroke="#bbbbbb" stroke-width="0.25" stroke-linecap="round"/><line x1="19.34316062927246" y1="19.34316062927246" x2="22.171571731567383" y2="22.171571731567383" stroke="#bbbbbb" stroke-width="0.25" stroke-linecap="round"/><line x1="22.17157745361328" y1="22.17157745361328" x2="22.171571731567383" y2="22.171571731567383" stroke="#bbbbbb" stroke-width="0.25" stroke-linecap="round"/><line x1="23.469253540039062" y1="21.304454803466797" x2="21.938535690307617" y2="17.608949661254883" stroke="#bbbbbb" stroke-width="0.25" stroke-linecap="round"/><line x1="23.469253540039062" y1="21.304454803466797" x2="23.469263076782227" y2="21.304481506347656" stroke="#bbbbbb" stroke-width="0.25" stroke-linecap="round"/><line x1="25" y1="17.00000762939453" x2="25" y2="21.000036239624023" stroke="#bbbbbb" stroke-width="0.25" stroke-linecap="round"/><line x1="28.69550323486328" y1="26.530729293823242" x2="25" y2="25" stroke="#bbbbbb" stroke-width="0.25" stroke-linecap="round"/><line x1="23.469266891479492" y1="28.695512771606445" x2="24.999998092651367" y2="25" stroke="#bbbbbb" stroke-width="0.25" stroke-linecap="round"/><line x1="28.061464309692383" y1="17.60894203186035" x2="26.530746459960938" y2="21.304462432861328" stroke="#bbbbbb" stroke-width="0.25" stroke-linecap="round"/><line x1="26.530733108520508" y1="21.304487228393555" x2="26.530746459960938" y2="21.304462432861328" stroke="#bbbbbb" stroke-width="0.25" stroke-linecap="round"/><line x1="30.65683937072754" y1="19.34316062927246" x2="27.828433990478516" y2="22.171566009521484" stroke="#bbbbbb" stroke-width="0.25" stroke-linecap="round"/><line x1="27.828428268432617" y1="22.171571731567383" x2="27.828433990478516" y2="22.171566009521484" stroke="#bbbbbb" stroke-width="0.25" stroke-linecap="round"/><line x1="28.695541381835938" y1="23.469255447387695" x2="32.39102554321289" y2="21.93854522705078" stroke="#bbbbbb" stroke-width="0.25" stroke-linecap="round"/><line x1="27.82842254638672" y1="27.82842254638672" x2="25" y2="25.000001907348633" stroke="#bbbbbb" stroke-width="0.25" stroke-linecap="round"/><line x1="24.99999237060547" y1="25" x2="25" y2="25" stroke="#bbbbbb" stroke-width="0.25" stroke-linecap="round"/><line x1="24.999998092651367" y1="25" x2="25" y2="25" stroke="#bbbbbb" stroke-width="0.25" stroke-linecap="round"/><line x1="25" y1="25" x2="25.000001907348633" y2="25.000001907348633" stroke="#bbbbbb" stroke-width="0.25" stroke-linecap="round"/><line x1="25.000001907348633" y1="25.000001907348633" x2="25" y2="25" stroke="#bbbbbb" stroke-width="0.25" stroke-linecap="round"/><line x1="24.99999237060547" y1="25" x2="24.999998092651367" y2="25" stroke="#bbbbbb" stroke-width="0.25" stroke-linecap="round"/><line x1="25" y1="25" x2="24.999998092651367" y2="25" stroke="#bbbbbb" stroke-width="0.25" stroke-linecap="round"/><line x1="25" y1="25" x2="24.999998092651367" y2="25" stroke="#bbbbbb" stroke-width="0.25" stroke-linecap="round"/><line x1="26.530736923217773" y1="28.695518493652344" x2="25" y2="25" stroke="#bbbbbb" stroke-width="0.25" stroke-linecap="round"/><line x1="21.000032424926758" y1="25" x2="25" y2="25" stroke="#bbbbbb" stroke-width="0.25" stroke-linecap="round"/><line x1="25" y1="25" x2="25" y2="24.999998092651367" stroke="#bbbbbb" stroke-width="0.25" stroke-linecap="round"/><line x1="25" y1="25" x2="25" y2="24.999998092651367" stroke="#bbbbbb" stroke-width="0.25" stroke-linecap="round"/><line x1="28.695541381835938" y1="23.469255447387695" x2="28.69551658630371" y2="23.46926498413086" stroke="#bbbbbb" stroke-width="0.25" stroke-linecap="round"/><line x1="25" y1="25" x2="25.000001907348633" y2="25" stroke="#bbbbbb" stroke-width="0.25" stroke-linecap="round"/><line x1="25" y1="25" x2="25" y2="25" stroke="#bbbbbb" stroke-width="0.25" stroke-linecap="round"/><line x1="25.000001907348633" y1="25" x2="25" y2="25" stroke="#bbbbbb" stroke-width="0.25" stroke-linecap="round"/><line x1="25" y1="25" x2="25.000001907348633" y2="25" stroke="#bbbbbb" stroke-width="0.25" stroke-linecap="round"/><line x1="24.99997901916504" y1="24.999996185302734" x2="25.000001907348633" y2="25" stroke="#bbbbbb" stroke-width="0.25" stroke-linecap="round"/><line x1="24.99997901916504" y1="24.999996185302734" x2="25.000001907348633" y2="25.000001907348633" stroke="#bbbbbb" stroke-width="0.25" stroke-linecap="round"/><line x1="25.000001907348633" y1="25" x2="25.000001907348633" y2="25.000001907348633" stroke="#bbbbbb" stroke-width="0.25" stroke-linecap="round"/><line x1="25" y1="25" x2="25.000024795532227" y2="25.0000057220459" stroke="#bbbbbb" stroke-width="0.25" stroke-linecap="round"/><line x1="25.000001907348633" y1="25.000001907348633" x2="25.000024795532227" y2="25.0000057220459" stroke="#bbbbbb" stroke-width="0.25" stroke-linecap="round"/><line x1="25.000001907348633" y1="25.000001907348633" x2="25.00001335144043" y2="25.000003814697266" stroke="#bbbbbb" stroke-width="0.25" stroke-linecap="round"/><line x1="25.000024795532227" y1="25.0000057220459" x2="25.00001335144043" y2="25.000003814697266" stroke="#bbbbbb" stroke-width="0.25" stroke-linecap="round"/><line x1="25.000001907348633" y1="25.000001907348633" x2="25.000003814697266" y2="25.000011444091797" stroke="#bbbbbb" stroke-width="0.25" stroke-linecap="round"/><line x1="25.000001907348633" y1="25.000001907348633" x2="25.000003814697266" y2="25.00000762939453" stroke="#bbbbbb" stroke-width="0.25" stroke-linecap="round"/><line x1="25.000003814697266" y1="25.000011444091797" x2="25.000003814697266" y2="25.00000762939453" stroke="#bbbbbb" stroke-width="0.25" stroke-linecap="round"/><line x1="25" y1="25" x2="25.000043869018555" y2="25" stroke="#bbbbbb" stroke-width="0.25" stroke-linecap="round"/><line x1="25.00007438659668" y1="25" x2="25.000043869018555" y2="25" stroke="#bbbbbb" stroke-width="0.25" stroke-linecap="round"/><line x1="25.00007438659668" y1="25" x2="28.999963760375977" y2="25" stroke="#bbbbbb" stroke-width="0.25" stroke-linecap="round"/><line x1="28.999963760375977" y1="25" x2="29" y2="25" stroke="#bbbbbb" stroke-width="0.25" stroke-linecap="round"/><line x1="33" y1="25" x2="29" y2="25" stroke="#bbbbbb" stroke-width="0.25" stroke-linecap="round"/><circle cx="32.39103317260742" cy="28.06145477294922" r="0.4" fill="#bbbbbb"/><circle cx="28.695533752441406" cy="26.530744552612305" r="0.4" fill="#bbbbbb"/><circle cx="28.69550323486328" cy="26.530729293823242" r="0.4" fill="#bbbbbb"/><circle cx="30.65683937072754" cy="30.65683937072754" r="0.4" fill="#bbbbbb"/><circle cx="27.828428268432617" cy="27.828428268432617" r="0.4" fill="#bbbbbb"/><circle cx="27.82842254638672" cy="27.82842254638672" r="0.4" fill="#bbbbbb"/><circle cx="26.530746459960938" cy="28.695545196533203" r="0.4" fill="#bbbbbb"/><circle cx="28.061464309692383" cy="32.39105224609375" r="0.4" fill="#bbbbbb"/><circle cx="26.530736923217773" cy="28.695518493652344" r="0.4" fill="#bbbbbb"/><circle cx="25" cy="32.99999237060547" r="0.4" fill="#bbbbbb"/><circle cx="25" cy="28.999963760375977" r="0.4" fill="#bbbbbb"/><circle cx="21.938535690307617" cy="32.39105987548828" r="0.4" fill="#bbbbbb"/><circle cx="23.469253540039062" cy="28.695537567138672" r="0.4" fill="#bbbbbb"/><circle cx="23.469266891479492" cy="28.695512771606445" r="0.4" fill="#bbbbbb"/><circle cx="19.34316062927246" cy="30.65683937072754" r="0.4" fill="#bbbbbb"/><circle cx="22.171566009521484" cy="27.828433990478516" r="0.4" fill="#bbbbbb"/><circle cx="22.171571731567383" cy="27.828428268432617" r="0.4" fill="#bbbbbb"/><circle cx="21.304458618164062" cy="26.530744552612305" r="0.4" fill="#bbbbbb"/><circle cx="17.608976364135742" cy="28.06145477294922" r="0.4" fill="#bbbbbb"/><circle cx="21.30448341369629" cy="26.53073501586914" r="0.4" fill="#bbbbbb"/><circle cx="21.00000762939453" cy="25" r="0.4" fill="#bbbbbb"/><circle cx="17" cy="25" r="0.4" fill="#bbbbbb"/><circle cx="21.000032424926758" cy="25" r="0.4" fill="#bbbbbb"/><circle cx="17.608966827392578" cy="21.93854522705078" r="0.4" fill="#bbbbbb"/><circle cx="21.304466247558594" cy="23.469255447387695" r="0.4" fill="#bbbbbb"/><circle cx="21.30449676513672" cy="23.469270706176758" r="0.4" fill="#bbbbbb"/><circle cx="19.34316062927246" cy="19.34316062927246" r="0.4" fill="#bbbbbb"/><circle cx="22.171571731567383" cy="22.171571731567383" r="0.4" fill="#bbbbbb"/><circle cx="22.17157745361328" cy="22.17157745361328" r="0.4" fill="#bbbbbb"/><circle cx="23.469253540039062" cy="21.304454803466797" r="0.4" fill="#bbbbbb"/><circle cx="21.938535690307617" cy="17.608949661254883" r="0.4" fill="#bbbbbb"/><circle cx="23.469263076782227" cy="21.304481506347656" r="0.4" fill="#bbbbbb"/><circle cx="25" cy="17.00000762939453" r="0.4" fill="#bbbbbb"/><circle cx="25" cy="21.000036239624023" r="0.4" fill="#bbbbbb"/><circle cx="25" cy="25" r="0.4" fill="#bbbbbb"/><circle cx="24.999998092651367" cy="25" r="0.4" fill="#bbbbbb"/><circle cx="28.061464309692383" cy="17.60894203186035" r="0.4" fill="#bbbbbb"/><circle cx="26.530746459960938" cy="21.304462432861328" r="0.4" fill="#bbbbbb"/><circle cx="26.530733108520508" cy="21.304487228393555" r="0.4" fill="#bbbbbb"/><circle cx="30.65683937072754" cy="19.34316062927246" r="0.4" fill="#bbbbbb"/><circle cx="27.828433990478516" cy="22.171566009521484" r="0.4" fill="#bbbbbb"/><circle cx="27.828428268432617" cy="22.171571731567383" r="0.4" fill="#bbbbbb"/><circle cx="28.695541381835938" cy="23.469255447387695" r="0.4" fill="#bbbbbb"/><circle cx="32.39102554321289" cy="21.93854522705078" r="0.4" fill="#bbbbbb"/><circle cx="25" cy="25.000001907348633" r="0.4" fill="#bbbbbb"/><circle cx="24.99999237060547" cy="25" r="0.4" fill="#bbbbbb"/><circle cx="25" cy="25" r="0.4" fill="#bbbbbb"/><circle cx="25" cy="25" r="0.4" fill="#bbbbbb"/><circle cx="25.000001907348633" cy="25.000001907348633" r="0.4" fill="#bbbbbb"/><circle cx="25" cy="25" r="0.4" fill="#bbbbbb"/><circle cx="24.999998092651367" cy="25" r="0.4" fill="#bbbbbb"/><circle cx="25" cy="25" r="0.4" fill="#bbbbbb"/><circle cx="25" cy="25" r="0.4" fill="#bbbbbb"/><circle cx="25" cy="24.999998092651367" r="0.4" fill="#bbbbbb"/><circle cx="25" cy="25" r="0.4" fill="#bbbbbb"/><circle cx="28.69551658630371" cy="23.46926498413086" r="0.4" fill="#bbbbbb"/><circle cx="25" cy="25" r="0.4" fill="#bbbbbb"/><circle cx="25.000001907348633" cy="25" r="0.4" fill="#bbbbbb"/><circle cx="25" cy="25" r="0.4" fill="#bbbbbb"/><circle cx="25.000001907348633" cy="25" r="0.4" fill="#bbbbbb"/><circle cx="24.99997901916504" cy="24.999996185302734" r="0.4" fill="#bbbbbb"/><circle cx="25.000001907348633" cy="25.000001907348633" r="0.4" fill="#bbbbbb"/><circle cx="25.000024795532227" cy="25.0000057220459" r="0.4" fill="#bbbbbb"/><circle cx="25.000001907348633" cy="25.000001907348633" r="0.4" fill="#bbbbbb"/><circle cx="25.00001335144043" cy="25.000003814697266" r="0.4" fill="#bbbbbb"/><circle cx="25.000001907348633" cy="25.000001907348633" r="0.4" fill="#bbbbbb"/><circle cx="25.000003814697266" cy="25.000011444091797" r="0.4" fill="#bbbbbb"/><circle cx="25.000003814697266" cy="25.00000762939453" r="0.4" fill="#bbbbbb"/><circle cx="25.000043869018555" cy="25" r="0.4" fill="#bbbbbb"/><circle cx="25.00007438659668" cy="25" r="0.4" fill="#bbbbbb"/><circle cx="28.999963760375977" cy="25" r="0.4" fill="#bbbbbb"/><circle cx="29" cy="25" r="0.4" fill="#bbbbbb"/><circle cx="33" cy="25" r="0.4" fill="#bbbbbb"/><line x1="24.99999237060547" y1="25" x2="25" y2="25" stroke="#dd3333" stroke-width="0.75" stroke-linecap="round"/><line x1="24.999998092651367" y1="25" x2="25" y2="25" stroke="#dd3333" stroke-width="0.75" stroke-linecap="round"/><line x1="25" y1="25" x2="25.000001907348633" y2="25.000001907348633" stroke="#dd3333" stroke-width="0.75" stroke-linecap="round"/><line x1="25.000001907348633" y1="25.000001907348633" x2="25" y2="25" stroke="#dd3333" stroke-width="0.75" stroke-linecap="round"/><line x1="24.99999237060547" y1="25" x2="24.999998092651367" y2="25" stroke="#dd3333" stroke-width="0.75" stroke-linecap="round"/><line x1="25" y1="25" x2="24.999998092651367" y2="25" stroke="#dd3333" stroke-width="0.75" stroke-linecap="round"/><line x1="25" y1="25" x2="24.999998092651367" y2="25" stroke="#dd3333" stroke-width="0.75" stroke-linecap="round"/><line x1="25" y1="25" x2="25" y2="24.999998092651367" stroke="#dd3333" stroke-width="0.75" stroke-linecap="round"/><line x1="25" y1="25" x2="25.000001907348633" y2="25" stroke="#dd3333" stroke-width="0.75" stroke-linecap="round"/><line x1="25" y1="25" x2="25" y2="25" stroke="#dd3333" stroke-width="0.75" stroke-linecap="round"/><line x1="25.000001907348633" y1="25" x2="25" y2="25" stroke="#dd3333" stroke-width="0.75" stroke-linecap="round"/><line x1="25" y1="25" x2="25.000001907348633" y2="25" stroke="#dd3333" stroke-width="0.75" stroke-linecap="round"/><line x1="24.99997901916504" y1="24.999996185302734" x2="25.000001907348633" y2="25" stroke="#dd3333" stroke-width="0.75" stroke-linecap="round"/><line x1="24.99997901916504" y1="24.999996185302734" x2="25.000001907348633" y2="25.000001907348633" stroke="#dd3333" stroke-width="0.75" stroke-linecap="round"/><line x1="25.000001907348633" y1="25" x2="25.000001907348633" y2="25.000001907348633" stroke="#dd3333" stroke-width="0.75" stroke-linecap="round"/><line x1="25" y1="25" x2="25.000024795532227" y2="25.0000057220459" stroke="#dd3333" stroke-width="0.75" stroke-linecap="round"/><line x1="25.000001907348633" y1="25.000001907348633" x2="25.000024795532227" y2="25.0000057220459" stroke="#dd3333" stroke-width="0.75" stroke-linecap="round"/><line x1="25.000001907348633" y1="25.000001907348633" x2="25.00001335144043" y2="25.000003814697266" stroke="#dd3333" stroke-width="0.75" stroke-linecap="round"/><line x1="25.000024795532227" y1="25.0000057220459" x2="25.00001335144043" y2="25.000003814697266" stroke="#dd3333" stroke-width="0.75" stroke-linecap="round"/><line x1="25.000001907348633" y1="25.000001907348633" x2="25.000003814697266" y2="25.000011444091797" stroke="#dd3333" stroke-width="0.75" stroke-linecap="round"/><line x1="25.000001907348633" y1="25.000001907348633" x2="25.000003814697266" y2="25.00000762939453" stroke="#dd3333" stroke-width="0.75" stroke-linecap="round"/><line x1="25.000003814697266" y1="25.000011444091797" x2="25.000003814697266" y2="25.00000762939453" stroke="#dd3333" stroke-width="0.75" stroke-linecap="round"/><circle cx="32.39103317260742" cy="28.06145477294922" r="0" fill="#dd3333"/><circle cx="28.695533752441406" cy="26.530744552612305" r="0" fill="#dd3333"/><circle cx="28.69550323486328" cy="26.530729293823242" r="0" fill="#dd3333"/><circle cx="30.65683937072754" cy="30.65683937072754" r="0" fill="#dd3333"/><circle cx="27.828428268432617" cy="27.828428268432617" r="0" fill="#dd3333"/><circle cx="27.82842254638672" cy="27.82842254638672" r="0" fill="#dd3333"/><circle cx="26.530746459960938" cy="28.695545196533203" r="0" fill="#dd3333"/><circle cx="28.061464309692383" cy="32.39105224609375" r="0" fill="#dd3333"/><circle cx="26.530736923217773" cy="28.695518493652344" r="0" fill="#dd3333"/><circle cx="25" cy="32.99999237060547" r="0" fill="#dd3333"/><circle cx="25" cy="28.999963760375977" r="0" fill="#dd3333"/><circle cx="21.938535690307617" cy="32.39105987548828" r="0" fill="#dd3333"/><circle cx="23.469253540039062" cy="28.695537567138672" r="0" fill="#dd3333"/><circle cx="23.469266891479492" cy="28.695512771606445" r="0" fill="#dd3333"/><circle cx="19.34316062927246" cy="30.65683937072754" r="0" fill="#dd3333"/><circle cx="22.171566009521484" cy="27.828433990478516" r="0" fill="#dd3333"/><circle cx="22.171571731567383" cy="27.828428268432617" r="0" fill="#dd3333"/><circle cx="21.304458618164062" cy="26.530744552612305" r="0" fill="#dd3333"/><circle cx="17.608976364135742" cy="28.06145477294922" r="0" fill="#dd3333"/><circle cx="21.30448341369629" cy="26.53073501586914" r="0" fill="#dd3333"/><circle cx="21.00000762939453" cy="25" r="0" fill="#dd3333"/><circle cx="17" cy="25" r="0" fill="#dd3333"/><circle cx="21.000032424926758" cy="25" r="0" fill="#dd3333"/><circle cx="17.608966827392578" cy="21.93854522705078" r="0" fill="#dd3333"/><circle cx="21.304466247558594" cy="23.469255447387695" r="0" fill="#dd3333"/><circle cx="21.30449676513672" cy="23.469270706176758" r="0" fill="#dd3333"/><circle cx="19.34316062927246" cy="19.34316062927246" r="0" fill="#dd3333"/><circle cx="22.171571731567383" cy="22.171571731567383" r="0" fill="#dd3333"/><circle cx="22.17157745361328" cy="22.17157745361328" r="0" fill="#dd3333"/><circle cx="23.469253540039062" cy="21.304454803466797" r="0" fill="#dd3333"/><circle cx="21.938535690307617" cy="17.608949661254883" r="0" fill="#dd3333"/><circle cx="23.469263076782227" cy="21.304481506347656" r="0" fill="#dd3333"/><circle cx="25" cy="17.00000762939453" r="0" fill="#dd3333"/><circle cx="25" cy="21.000036239624023" r="0" fill="#dd3333"/><circle cx="25" cy="25" r="0" fill="#dd3333"/><circle cx="24.999998092651367" cy="25" r="0" fill="#dd3333"/><circle cx="28.061464309692383" cy="17.60894203186035" r="0" fill="#dd3333"/><circle cx="26.530746459960938" cy="21.304462432861328" r="0" fill="#dd3333"/><circle cx="26.530733108520508" cy="21.304487228393555" r="0" fill="#dd3333"/><circle cx="30.65683937072754" cy="19.34316062927246" r="0" fill="#dd3333"/><circle cx="27.828433990478516" cy="22.171566009521484" r="0" fill="#dd3333"/><circle cx="27.828428268432617" cy="22.171571731567383" r="0" fill="#dd3333"/><circle cx="28.695541381835938" cy="23.469255447387695" r="0" fill="#dd3333"/><circle cx="32.39102554321289" cy="21.93854522705078" r="0" fill="#dd3333"/><circle cx="25" cy="25.000001907348633" r="0" fill="#dd3333"/><circle cx="24.99999237060547" cy="25" r="0" fill="#dd3333"/><circle cx="25" cy="25" r="0" fill="#dd3333"/><circle cx="25" cy="25" r="0" fill="#dd3333"/><circle cx="25.000001907348633" cy="25.000001907348633" r="0" fill="#dd3333"/><circle cx="25" cy="25" r="0" fill="#dd3333"/><circle cx="24.999998092651367" cy="25" r="0" fill="#dd3333"/><circle cx="25" cy="25" r="0" fill="#dd3333"/><circle cx="25" cy="25" r="0" fill="#dd3333"/><circle cx="25" cy="24.999998092651367" r="0" fill="#dd3333"/><circle cx="25" cy="25" r="0" fill="#dd3333"/><circle cx="28.69551658630371" cy="23.46926498413086" r="0" fill="#dd3333"/><circle cx="25" cy="25" r="0" fill="#dd3333"/><circle cx="25.000001907348633" cy="25" r="0" fill="#dd3333"/><circle cx="25" cy="25" r="0" fill="#dd3333"/><circle cx="25.000001907348633" cy="25" r="0" fill="#dd3333"/><circle cx="24.99997901916504" cy="24.999996185302734" r="0" fill="#dd3333"/><circle cx="25.000001907348633" cy="25.000001907348633" r="0" fill="#dd3333"/><circle cx="25.000024795532227" cy="25.0000057220459" r="0" fill="#dd3333"/><circle cx="25.000001907348633" cy="25.000001907348633" r="0" fill="#dd3333"/><circle cx="25.00001335144043" cy="25.000003814697266" r="0" fill="#dd3333"/><circle cx="25.000001907348633" cy="25.000001907348633" r="0" fill="#dd3333"/><circle cx="25.000003814697266" cy="25.000011444091797" r="0" fill="#dd3333"/><circle cx="25.000003814697266" cy="25.00000762939453" r="0" fill="#dd3333"/><circle cx="25.000043869018555" cy="25" r="0" fill="#dd3333"/><circle cx="25.00007438659668" cy="25" r="0" fill="#dd3333"/><circle cx="28.999963760375977" cy="25" r="0" fill="#dd3333"/><circle cx="29" cy="25" r="0" fill="#dd3333"/><circle cx="33" cy="25" r="0" fill="#dd3333"/></svg>