<svg xmlns="http://www.w3.org/2000/svg" width="50" height="50" viewBox="0 0 50 50"><path fill="#e8edff" stroke="#4466aa" stroke-width="0.3" d="M35,25 L34.23879623413086,28.826833724975586 L32.071067810058594,32.071067810058594 L28.826833724975586,34.23879623413086 L25,35 L21.173166275024414,34.23879623413086 L17.928932189941406,32.071067810058594 L15.761204719543457,28.826833724975586 L15,25 L15.761204719543457,21.173166275024414 L17.928932189941406,17.928932189941406 L21.173166275024414,15.761204719543457 L25,15 L28.826833724975586,15.761204719543457 L32.071067810058594,17.928932189941406 L34.23879623413086,21.173166275024414 Z"/><line x1="32.071067810058594" y1="17.928932189941406" x2="25" y2="24.999998092651367" stroke="#bbbbbb" stroke-width="0.25" stroke-linecap="round"/><line x1="28.826833724975586" y1="15.761204719543457" x2="25" y2="24.999998092651367" stroke="#bbbbbb" stroke-width="0.25" stroke-linecap="round"/><line x1="25" y1="15" x2="25" y2="24.999998092651367" stroke="#bbbbbb" stroke-width="0.25" stroke-linecap="round"/><line x1="21.173166275024414" y1="15.761204719543457" x2="25" y2="24.999998092651367" stroke="#bbbbbb" stroke-width="0.25" stroke-linecap="round"/><line x1="17.928932189941406" y1="17.928932189941406" x2="25" y2="24.999998092651367" stroke="#bbbbbb" stroke-width="0.25" stroke-linecap="round"/><line x1="15.761204719543457" y1="21.173166275024414" x2="25" y2="24.999998092651367" stroke="#bbbbbb" stroke-width="0.25" stroke-linecap="round"/><line x1="15" y1="25" x2="25" y2="24.999998092651367" stroke="#bbbbbb" stroke-width="0.25" stroke-linecap="round"/><line x1="15.761204719543457" y1="28.826833724975586" x2="25" y2="24.999998092651367" stroke="#bbbbbb" stroke-width="0.25" stroke-linecap="round"/><line x1="17.928932189941406" y1="32.071067810058594" x2="25" y2="24.999998092651367" stroke="#bbbbbb" stroke-width="0.25" stroke-linecap="round"/><line x1="21.173166275024414" y1="34.23879623413086" x2="25" y2="24.999998092651367" stroke="#bbbbbb" stroke-width="0.25" stroke-linecap="round"/><line x1="25" y1="35" x2="25" y2="24.999998092651367" stroke="#bbbbbb" stroke-width="0.25" stroke-linecap="round"/><line x1="28.826833724975586" y1="34.23879623413086" x2="25" y2="24.999998092651367" stroke="#bbbbbb" stroke-width="0.25" stroke-linecap="round"/><line x1="32.071067810058594" y1="32.071067810058594" x2="25" y2="24.999998092651367" stroke="#bbbbbb" stroke-width="0.25" stroke-linecap="round"/><line x1="34.23879623413086" y1="28.826833724975586" x2="25" y2="24.999998092651367" stroke="#bbbbbb" stroke-width="0.25" stroke-linecap="round"/><line x1="35" y1="25" x2="25" y2="24.999998092651367" stroke="#bbbbbb" stroke-width="0.25" stroke-linecap="round"/><line x1="34.23879623413086" y1="21.173166275024414" x2="25" y2="24.999998092651367" stroke="#bbbbbb" stroke-width="0.25" stroke-linecap="round"/><circle cx="32.071067810058594" cy="17.928932189941406" r="0.4" fill="#bbbbbb"/><circle cx="25" cy="24.999998092651367" r="0.4" fill="#bbbbbb"/><circle cx="28.826833724975586" cy="15.761204719543457" r="0.4" fill="#bbbbbb"/><circle cx="25" cy="15" r="0.4" fill="#bbbbbb"/><circle cx="21.173166275024414" cy="15.761204719543457" r="0.4" fill="#bbbbbb"/><circle cx="17.928932189941406" cy="17.928932189941406" r="0.4" fill="#bbbbbb"/><circle cx="15.761204719543457" cy="21.173166275024414" r="0.4" fill="#bbbbbb"/><circle cx="15" cy="25" r="0.4" fill="#bbbbbb"/><circle cx="15.761204719543457" cy="28.826833724975586" r="0.4" fill="#bbbbbb"/><circle cx="17.928932189941406" cy="32.071067810058594" r="0.4" fill="#bbbbbb"/><circle cx="21.173166275024414" cy="34.23879623413086" r="0.4" fill="#bbbbbb"/><circle cx="25" cy="35" r="0.4" fill="#bbbbbb"/><circle cx="28.826833724975586" cy="34.23879623413086" r="0.4" fill="#bbbbbb"/><circle cx="32.071067810058594" cy="32.071067810058594" r="0.4" fill="#bbbbbb"/><circle cx="34.23879623413086" cy="28.826833724975586" r="0.4" fill="#bbbbbb"/><circle cx="35" cy="25" r="0.4" fill="#bbbbbb"/><circle cx="34.23879623413086" cy="21.173166275024414" r="0.4" fill="#bbbbbb"/><circle cx="32.071067810058594" cy="17.928932189941406" r="0" fill="#dd3333"/><circle cx="25" cy="24.999998092651367" r="0" fill="#dd3333"/><circle cx="28.826833724975586" cy="15.761204719543457" r="0" fill="#dd3333"/><circle cx="25" cy="15" r="0" fill="#dd3333"/><circle cx="21.173166275024414" cy="15.761204719543457" r="0" fill="#dd3333"/><circle cx="17.928932189941406" cy="17.928932189941406" r="0" fill="#dd3333"/><circle cx="15.761204719543457" cy="21.173166275024414" r="0" fill="#dd3333"/><circle cx="15" cy="25" r="0" fill="#dd3333"/><circle cx="15.761204719543457" cy="28.826833724975586" r="0" fill="#dd3333"/><circle cx="17.928932189941406" cy="32.071067810058594" r="0" fill="#dd3333"/><circle cx="21.173166275024414" cy="34.23879623413086" r="0" fill="#dd3333"/><circle cx="25" cy="35" r="0" fill="#dd3333"/><circle cx="28.826833724975586" cy="34.23879623413086" r="0" fill="#dd3333"/><circle cx="32.071067810058594" cy="32.071067810058594" r="0" fill="#dd3333"/><circle cx="34.23879623413086" cy="28.826833724975586" r="0" fill="#dd3333"/><circle cx="35" cy="25" r="0" fill="#dd3333"/><circle cx="34.23879623413086" cy="21.173166275024414" r="0" fill="#dd3333"/></svg>