<svg xmlns="http://www.w3.org/2000/svg" width="1950.00" height="940.00" viewBox="-1.00 -1.00 197.00 96.00">
<style>text { font-family: sans-serif; font-size: 3px; fill: #333; }</style>
<rect x="-1" y="-1" width="197.00" height="96.00" fill="white"/>
<g transform="translate(0.00, 0)">
  <text x="32.50" y="59.00" text-anchor="middle">StraightSkeleton (7e, 8n)</text>
  <polygon points="15.00,23.00 35.00,23.00 35.00,15.00 50.00,27.00 35.00,39.00 35.00,31.00 15.00,31.00" fill="#f0f4ff" stroke="#4466aa" stroke-width="0.3"/>
  <line x1="15.00" y1="23.00" x2="31.43" y2="27.00" stroke="#dd3333" stroke-width="0.25" stroke-linecap="round"/>
  <line x1="35.00" y1="23.00" x2="31.43" y2="27.00" stroke="#dd3333" stroke-width="0.25" stroke-linecap="round"/>
  <line x1="35.00" y1="15.00" x2="31.43" y2="27.00" stroke="#dd3333" stroke-width="0.25" stroke-linecap="round"/>
  <line x1="50.00" y1="27.00" x2="31.43" y2="27.00" stroke="#dd3333" stroke-width="0.25" stroke-linecap="round"/>
  <line x1="35.00" y1="39.00" x2="31.43" y2="27.00" stroke="#dd3333" stroke-width="0.25" stroke-linecap="round"/>
  <line x1="35.00" y1="31.00" x2="31.43" y2="27.00" stroke="#dd3333" stroke-width="0.25" stroke-linecap="round"/>
  <line x1="15.00" y1="31.00" x2="31.43" y2="27.00" stroke="#dd3333" stroke-width="0.25" stroke-linecap="round"/>
  <circle cx="15.00" cy="23.00" r="0.4" fill="#dd3333"/>
  <circle cx="31.43" cy="27.00" r="0.4" fill="#dd3333"/>
  <circle cx="35.00" cy="23.00" r="0.4" fill="#dd3333"/>
  <circle cx="35.00" cy="15.00" r="0.4" fill="#dd3333"/>
  <circle cx="50.00" cy="27.00" r="0.4" fill="#dd3333"/>
  <circle cx="35.00" cy="39.00" r="0.4" fill="#dd3333"/>
  <circle cx="35.00" cy="31.00" r="0.4" fill="#dd3333"/>
  <circle cx="15.00" cy="31.00" r="0.4" fill="#dd3333"/>
  <circle cx="15.00" cy="23.00" r="0.35" fill="#4466aa"/>
  <circle cx="35.00" cy="23.00" r="0.35" fill="#4466aa"/>
  <circle cx="35.00" cy="15.00" r="0.35" fill="#4466aa"/>
  <circle cx="50.00" cy="27.00" r="0.35" fill="#4466aa"/>
  <circle cx="35.00" cy="39.00" r="0.35" fill="#4466aa"/>
  <circle cx="35.00" cy="31.00" r="0.35" fill="#4466aa"/>
  <circle cx="15.00" cy="31.00" r="0.35" fill="#4466aa"/>
</g>
<g transform="translate(65.00, 0)">
  <text x="32.50" y="59.00" text-anchor="middle">ChordalAxis (7e, 8n)</text>
  <polygon points="15.00,23.00 35.00,23.00 35.00,15.00 50.00,27.00 35.00,39.00 35.00,31.00 15.00,31.00" fill="#f0f4ff" stroke="#4466aa" stroke-width="0.3"/>
  <line x1="42.50" y1="25.00" x2="35.00" y2="15.00" stroke="#dd3333" stroke-width="0.25" stroke-linecap="round"/>
  <line x1="35.00" y1="27.00" x2="25.00" y2="27.00" stroke="#dd3333" stroke-width="0.25" stroke-linecap="round"/>
  <line x1="40.00" y1="27.00" x2="42.50" y2="25.00" stroke="#dd3333" stroke-width="0.25" stroke-linecap="round"/>
  <line x1="40.00" y1="27.00" x2="42.50" y2="29.00" stroke="#dd3333" stroke-width="0.25" stroke-linecap="round"/>
  <line x1="40.00" y1="27.00" x2="35.00" y2="27.00" stroke="#dd3333" stroke-width="0.25" stroke-linecap="round"/>
  <line x1="42.50" y1="29.00" x2="35.00" y2="39.00" stroke="#dd3333" stroke-width="0.25" stroke-linecap="round"/>
  <line x1="25.00" y1="27.00" x2="15.00" y2="31.00" stroke="#dd3333" stroke-width="0.25" stroke-linecap="round"/>
  <circle cx="42.50" cy="25.00" r="0.4" fill="#dd3333"/>
  <circle cx="35.00" cy="15.00" r="0.4" fill="#dd3333"/>
  <circle cx="35.00" cy="27.00" r="0.4" fill="#dd3333"/>
  <circle cx="25.00" cy="27.00" r="0.4" fill="#dd3333"/>
  <circle cx="40.00" cy="27.00" r="0.4" fill="#dd3333"/>
  <circle cx="42.50" cy="29.00" r="0.4" fill="#dd3333"/>
  <circle cx="35.00" cy="39.00" r="0.4" fill="#dd3333"/>
  <circle cx="15.00" cy="31.00" r="0.4" fill="#dd3333"/>
  <circle cx="15.00" cy="23.00" r="0.35" fill="#4466aa"/>
  <circle cx="35.00" cy="23.00" r="0.35" fill="#4466aa"/>
  <circle cx="35.00" cy="15.00" r="0.35" fill="#4466aa"/>
  <circle cx="50.00" cy="27.00" r="0.35" fill="#4466aa"/>
  <circle cx="35.00" cy="39.00" r="0.35" fill="#4466aa"/>
  <circle cx="35.00" cy="31.00" r="0.35" fill="#4466aa"/>
  <circle cx="15.00" cy="31.00" r="0.35" fill="#4466aa"/>
</g>
<g transform="translate(130.00, 0)">
  <text x="32.50" y="59.00" text-anchor="middle">Voronoi (61e, 64n)</text>
  <polygon points="15.00,23.00 35.00,23.00 35.00,15.00 50.00,27.00 35.00,39.00 35.00,31.00 15.00,31.00" fill="#f0f4ff" stroke="#4466aa" stroke-width="0.3"/>
  <line x1="35.31" y1="15.80" x2="36.11" y2="17.16" stroke="#dd3333" stroke-width="0.25" stroke-linecap="round"/>
  <line x1="36.08" y1="17.40" x2="36.11" y2="17.16" stroke="#dd3333" stroke-width="0.25" stroke-linecap="round"/>
  <line x1="36.08" y1="17.40" x2="36.81" y2="18.65" stroke="#dd3333" stroke-width="0.25" stroke-linecap="round"/>
  <line x1="36.86" y1="19.00" x2="36.81" y2="18.65" stroke="#dd3333" stroke-width="0.25" stroke-linecap="round"/>
  <line x1="36.86" y1="19.00" x2="37.52" y2="20.13" stroke="#dd3333" stroke-width="0.25" stroke-linecap="round"/>
  <line x1="37.63" y1="20.60" x2="37.52" y2="20.13" stroke="#dd3333" stroke-width="0.25" stroke-linecap="round"/>
  <line x1="37.63" y1="20.60" x2="38.23" y2="21.61" stroke="#dd3333" stroke-width="0.25" stroke-linecap="round"/>
  <line x1="38.41" y1="22.20" x2="38.23" y2="21.61" stroke="#dd3333" stroke-width="0.25" stroke-linecap="round"/>
  <line x1="38.41" y1="22.20" x2="38.93" y2="23.09" stroke="#dd3333" stroke-width="0.25" stroke-linecap="round"/>
  <line x1="38.93" y1="23.09" x2="39.51" y2="24.73" stroke="#dd3333" stroke-width="0.25" stroke-linecap="round"/>
  <line x1="39.51" y1="24.73" x2="39.88" y2="26.64" stroke="#dd3333" stroke-width="0.25" stroke-linecap="round"/>
  <line x1="47.16" y1="27.00" x2="49.05" y2="27.00" stroke="#dd3333" stroke-width="0.25" stroke-linecap="round"/>
  <line x1="47.16" y1="27.00" x2="47.16" y2="27.00" stroke="#dd3333" stroke-width="0.25" stroke-linecap="round"/>
  <line x1="43.38" y1="27.00" x2="45.27" y2="27.00" stroke="#dd3333" stroke-width="0.25" stroke-linecap="round"/>
  <line x1="47.16" y1="27.00" x2="45.27" y2="27.00" stroke="#dd3333" stroke-width="0.25" stroke-linecap="round"/>
  <line x1="45.27" y1="27.00" x2="45.27" y2="27.00" stroke="#dd3333" stroke-width="0.25" stroke-linecap="round"/>
  <line x1="43.38" y1="27.00" x2="43.38" y2="27.00" stroke="#dd3333" stroke-width="0.25" stroke-linecap="round"/>
  <line x1="41.48" y1="27.00" x2="43.38" y2="27.00" stroke="#dd3333" stroke-width="0.25" stroke-linecap="round"/>
  <line x1="41.48" y1="27.00" x2="41.48" y2="27.00" stroke="#dd3333" stroke-width="0.25" stroke-linecap="round"/>
  <line x1="36.11" y1="36.84" x2="35.31" y2="38.20" stroke="#dd3333" stroke-width="0.25" stroke-linecap="round"/>
  <line x1="36.11" y1="36.84" x2="36.08" y2="36.60" stroke="#dd3333" stroke-width="0.25" stroke-linecap="round"/>
  <line x1="36.81" y1="35.35" x2="36.08" y2="36.60" stroke="#dd3333" stroke-width="0.25" stroke-linecap="round"/>
  <line x1="36.81" y1="35.35" x2="36.86" y2="35.00" stroke="#dd3333" stroke-width="0.25" stroke-linecap="round"/>
  <line x1="37.52" y1="33.87" x2="36.86" y2="35.00" stroke="#dd3333" stroke-width="0.25" stroke-linecap="round"/>
  <line x1="37.52" y1="33.87" x2="37.63" y2="33.40" stroke="#dd3333" stroke-width="0.25" stroke-linecap="round"/>
  <line x1="38.23" y1="32.39" x2="37.63" y2="33.40" stroke="#dd3333" stroke-width="0.25" stroke-linecap="round"/>
  <line x1="39.88" y1="26.64" x2="39.90" y2="27.00" stroke="#dd3333" stroke-width="0.25" stroke-linecap="round"/>
  <line x1="41.48" y1="27.00" x2="39.90" y2="27.00" stroke="#dd3333" stroke-width="0.25" stroke-linecap="round"/>
  <line x1="39.90" y1="27.00" x2="39.90" y2="27.00" stroke="#dd3333" stroke-width="0.25" stroke-linecap="round"/>
  <line x1="39.90" y1="27.00" x2="39.88" y2="27.36" stroke="#dd3333" stroke-width="0.25" stroke-linecap="round"/>
  <line x1="39.88" y1="27.36" x2="39.51" y2="29.27" stroke="#dd3333" stroke-width="0.25" stroke-linecap="round"/>
  <line x1="39.51" y1="29.27" x2="38.93" y2="30.91" stroke="#dd3333" stroke-width="0.25" stroke-linecap="round"/>
  <line x1="38.23" y1="32.39" x2="38.41" y2="31.80" stroke="#dd3333" stroke-width="0.25" stroke-linecap="round"/>
  <line x1="38.93" y1="30.91" x2="38.41" y2="31.80" stroke="#dd3333" stroke-width="0.25" stroke-linecap="round"/>
  <line x1="39.90" y1="27.00" x2="34.29" y2="27.00" stroke="#dd3333" stroke-width="0.25" stroke-linecap="round"/>
  <line x1="32.86" y1="27.00" x2="34.29" y2="27.00" stroke="#dd3333" stroke-width="0.25" stroke-linecap="round"/>
  <line x1="32.86" y1="27.00" x2="32.86" y2="27.00" stroke="#dd3333" stroke-width="0.25" stroke-linecap="round"/>
  <line x1="31.43" y1="27.00" x2="32.86" y2="27.00" stroke="#dd3333" stroke-width="0.25" stroke-linecap="round"/>
  <line x1="31.43" y1="27.00" x2="31.43" y2="27.00" stroke="#dd3333" stroke-width="0.25" stroke-linecap="round"/>
  <line x1="30.00" y1="27.00" x2="31.43" y2="27.00" stroke="#dd3333" stroke-width="0.25" stroke-linecap="round"/>
  <line x1="30.00" y1="27.00" x2="30.00" y2="27.00" stroke="#dd3333" stroke-width="0.25" stroke-linecap="round"/>
  <line x1="27.14" y1="27.00" x2="28.57" y2="27.00" stroke="#dd3333" stroke-width="0.25" stroke-linecap="round"/>
  <line x1="30.00" y1="27.00" x2="28.57" y2="27.00" stroke="#dd3333" stroke-width="0.25" stroke-linecap="round"/>
  <line x1="28.57" y1="27.00" x2="28.57" y2="27.00" stroke="#dd3333" stroke-width="0.25" stroke-linecap="round"/>
  <line x1="27.14" y1="27.00" x2="27.14" y2="27.00" stroke="#dd3333" stroke-width="0.25" stroke-linecap="round"/>
  <line x1="25.71" y1="27.00" x2="27.14" y2="27.00" stroke="#dd3333" stroke-width="0.25" stroke-linecap="round"/>
  <line x1="24.29" y1="27.00" x2="25.71" y2="27.00" stroke="#dd3333" stroke-width="0.25" stroke-linecap="round"/>
  <line x1="22.86" y1="27.00" x2="24.29" y2="27.00" stroke="#dd3333" stroke-width="0.25" stroke-linecap="round"/>
  <line x1="20.00" y1="27.00" x2="21.43" y2="27.00" stroke="#dd3333" stroke-width="0.25" stroke-linecap="round"/>
  <line x1="22.86" y1="27.00" x2="21.43" y2="27.00" stroke="#dd3333" stroke-width="0.25" stroke-linecap="round"/>
  <line x1="20.00" y1="27.00" x2="20.00" y2="27.00" stroke="#dd3333" stroke-width="0.25" stroke-linecap="round"/>
  <line x1="17.14" y1="28.92" x2="15.71" y2="30.20" stroke="#dd3333" stroke-width="0.25" stroke-linecap="round"/>
  <line x1="20.00" y1="27.00" x2="18.93" y2="27.00" stroke="#dd3333" stroke-width="0.25" stroke-linecap="round"/>
  <line x1="18.93" y1="27.00" x2="18.57" y2="27.49" stroke="#dd3333" stroke-width="0.25" stroke-linecap="round"/>
  <line x1="17.14" y1="28.92" x2="17.32" y2="28.60" stroke="#dd3333" stroke-width="0.25" stroke-linecap="round"/>
  <line x1="18.57" y1="27.49" x2="17.32" y2="28.60" stroke="#dd3333" stroke-width="0.25" stroke-linecap="round"/>
  <line x1="18.93" y1="27.00" x2="18.93" y2="27.00" stroke="#dd3333" stroke-width="0.25" stroke-linecap="round"/>
  <line x1="18.57" y1="26.51" x2="18.93" y2="27.00" stroke="#dd3333" stroke-width="0.25" stroke-linecap="round"/>
  <line x1="18.57" y1="26.51" x2="17.32" y2="25.40" stroke="#dd3333" stroke-width="0.25" stroke-linecap="round"/>
  <line x1="17.14" y1="25.08" x2="17.32" y2="25.40" stroke="#dd3333" stroke-width="0.25" stroke-linecap="round"/>
  <line x1="17.14" y1="25.08" x2="15.71" y2="23.80" stroke="#dd3333" stroke-width="0.25" stroke-linecap="round"/>
  <circle cx="35.31" cy="15.80" r="0.4" fill="#dd3333"/>
  <circle cx="36.11" cy="17.16" r="0.4" fill="#dd3333"/>
  <circle cx="36.08" cy="17.40" r="0.4" fill="#dd3333"/>
  <circle cx="36.81" cy="18.65" r="0.4" fill="#dd3333"/>
  <circle cx="36.86" cy="19.00" r="0.4" fill="#dd3333"/>
  <circle cx="37.52" cy="20.13" r="0.4" fill="#dd3333"/>
  <circle cx="37.63" cy="20.60" r="0.4" fill="#dd3333"/>
  <circle cx="38.23" cy="21.61" r="0.4" fill="#dd3333"/>
  <circle cx="38.41" cy="22.20" r="0.4" fill="#dd3333"/>
  <circle cx="38.93" cy="23.09" r="0.4" fill="#dd3333"/>
  <circle cx="39.51" cy="24.73" r="0.4" fill="#dd3333"/>
  <circle cx="39.88" cy="26.64" r="0.4" fill="#dd3333"/>
  <circle cx="47.16" cy="27.00" r="0.4" fill="#dd3333"/>
  <circle cx="49.05" cy="27.00" r="0.4" fill="#dd3333"/>
  <circle cx="47.16" cy="27.00" r="0.4" fill="#dd3333"/>
  <circle cx="43.38" cy="27.00" r="0.4" fill="#dd3333"/>
  <circle cx="45.27" cy="27.00" r="0.4" fill="#dd3333"/>
  <circle cx="45.27" cy="27.00" r="0.4" fill="#dd3333"/>
  <circle cx="43.38" cy="27.00" r="0.4" fill="#dd3333"/>
  <circle cx="41.48" cy="27.00" r="0.4" fill="#dd3333"/>
  <circle cx="41.48" cy="27.00" r="0.4" fill="#dd3333"/>
  <circle cx="36.11" cy="36.84" r="0.4" fill="#dd3333"/>
  <circle cx="35.31" cy="38.20" r="0.4" fill="#dd3333"/>
  <circle cx="36.08" cy="36.60" r="0.4" fill="#dd3333"/>
  <circle cx="36.81" cy="35.35" r="0.4" fill="#dd3333"/>
  <circle cx="36.86" cy="35.00" r="0.4" fill="#dd3333"/>
  <circle cx="37.52" cy="33.87" r="0.4" fill="#dd3333"/>
  <circle cx="37.63" cy="33.40" r="0.4" fill="#dd3333"/>
  <circle cx="38.23" cy="32.39" r="0.4" fill="#dd3333"/>
  <circle cx="39.90" cy="27.00" r="0.4" fill="#dd3333"/>
  <circle cx="39.90" cy="27.00" r="0.4" fill="#dd3333"/>
  <circle cx="39.88" cy="27.36" r="0.4" fill="#dd3333"/>
  <circle cx="39.51" cy="29.27" r="0.4" fill="#dd3333"/>
  <circle cx="38.93" cy="30.91" r="0.4" fill="#dd3333"/>
  <circle cx="38.41" cy="31.80" r="0.4" fill="#dd3333"/>
  <circle cx="34.29" cy="27.00" r="0.4" fill="#dd3333"/>
  <circle cx="32.86" cy="27.00" r="0.4" fill="#dd3333"/>
  <circle cx="32.86" cy="27.00" r="0.4" fill="#dd3333"/>
  <circle cx="31.43" cy="27.00" r="0.4" fill="#dd3333"/>
  <circle cx="31.43" cy="27.00" r="0.4" fill="#dd3333"/>
  <circle cx="30.00" cy="27.00" r="0.4" fill="#dd3333"/>
  <circle cx="30.00" cy="27.00" r="0.4" fill="#dd3333"/>
  <circle cx="27.14" cy="27.00" r="0.4" fill="#dd3333"/>
  <circle cx="28.57" cy="27.00" r="0.4" fill="#dd3333"/>
  <circle cx="28.57" cy="27.00" r="0.4" fill="#dd3333"/>
  <circle cx="27.14" cy="27.00" r="0.4" fill="#dd3333"/>
  <circle cx="25.71" cy="27.00" r="0.4" fill="#dd3333"/>
  <circle cx="24.29" cy="27.00" r="0.4" fill="#dd3333"/>
  <circle cx="25.71" cy="27.00" r="0.4" fill="#dd3333"/>
  <circle cx="22.86" cy="27.00" r="0.4" fill="#dd3333"/>
  <circle cx="20.00" cy="27.00" r="0.4" fill="#dd3333"/>
  <circle cx="21.43" cy="27.00" r="0.4" fill="#dd3333"/>
  <circle cx="21.43" cy="27.00" r="0.4" fill="#dd3333"/>
  <circle cx="20.00" cy="27.00" r="0.4" fill="#dd3333"/>
  <circle cx="17.14" cy="28.92" r="0.4" fill="#dd3333"/>
  <circle cx="15.71" cy="30.20" r="0.4" fill="#dd3333"/>
  <circle cx="18.93" cy="27.00" r="0.4" fill="#dd3333"/>
  <circle cx="18.57" cy="27.49" r="0.4" fill="#dd3333"/>
  <circle cx="17.32" cy="28.60" r="0.4" fill="#dd3333"/>
  <circle cx="18.93" cy="27.00" r="0.4" fill="#dd3333"/>
  <circle cx="18.57" cy="26.51" r="0.4" fill="#dd3333"/>
  <circle cx="17.32" cy="25.40" r="0.4" fill="#dd3333"/>
  <circle cx="17.14" cy="25.08" r="0.4" fill="#dd3333"/>
  <circle cx="15.71" cy="23.80" r="0.4" fill="#dd3333"/>
  <circle cx="15.00" cy="23.00" r="0.35" fill="#4466aa"/>
  <circle cx="35.00" cy="23.00" r="0.35" fill="#4466aa"/>
  <circle cx="35.00" cy="15.00" r="0.35" fill="#4466aa"/>
  <circle cx="50.00" cy="27.00" r="0.35" fill="#4466aa"/>
  <circle cx="35.00" cy="39.00" r="0.35" fill="#4466aa"/>
  <circle cx="35.00" cy="31.00" r="0.35" fill="#4466aa"/>
  <circle cx="15.00" cy="31.00" r="0.35" fill="#4466aa"/>
</g>
</svg>
