<svg xmlns="http://www.w3.org/2000/svg" width="65" height="54" viewBox="0 0 65 54"><path fill="#e8edff" stroke="#4466aa" stroke-width="0.3" d="M15,23 L35,23 L35,15 L50,27 L35,39 L35,31 L15,31 Z"/><line x1="39" y1="27" x2="29" y2="27" stroke="#dd3333" stroke-width="0.75" stroke-linecap="round"/><line x1="19" y1="27" x2="29" y2="27" stroke="#dd3333" stroke-width="0.75" stroke-linecap="round"/><line x1="39" y1="27" x2="40.76749801635742" y2="27" stroke="#dd3333" stroke-width="0.75" stroke-linecap="round"/><circle cx="15" cy="23" r="0.4" fill="#dd3333"/><circle cx="19" cy="27" r="0.4" fill="#dd3333"/><circle cx="15" cy="31" r="0.4" fill="#dd3333"/><circle cx="35" cy="23" r="0.4" fill="#dd3333"/><circle cx="39" cy="27" r="0.4" fill="#dd3333"/><circle cx="35" cy="31" r="0.4" fill="#dd3333"/><circle cx="29" cy="27" r="0.4" fill="#dd3333"/><circle cx="35" cy="39" r="0.4" fill="#dd3333"/><circle cx="40.76749801635742" cy="27" r="0.4" fill="#dd3333"/><circle cx="50" cy="27" r="0.4" fill="#dd3333"/><circle cx="35" cy="15" r="0.4" fill="#dd3333"/><line x1="15" y1="23" x2="19" y2="27" stroke="#bbbbbb" stroke-width="0.25" stroke-linecap="round"/><line x1="15" y1="31" x2="19" y2="27" stroke="#bbbbbb" stroke-width="0.25" stroke-linecap="round"/><line x1="35" y1="23" x2="39" y2="27" stroke="#bbbbbb" stroke-width="0.25" stroke-linecap="round"/><line x1="35" y1="31" x2="39" y2="27" stroke="#bbbbbb" stroke-width="0.25" stroke-linecap="round"/><line x1="35" y1="39" x2="40.76749801635742" y2="27" stroke="#bbbbbb" stroke-width="0.25" stroke-linecap="round"/><line x1="50" y1="27" x2="40.76749801635742" y2="27" stroke="#bbbbbb" stroke-width="0.25" stroke-linecap="round"/><line x1="35" y1="15" x2="40.76749801635742" y2="27" stroke="#bbbbbb" stroke-width="0.25" stroke-linecap="round"/><circle cx="15" cy="23" r="0.4" fill="#bbbbbb"/><circle cx="19" cy="27" r="0.4" fill="#bbbbbb"/><circle cx="15" cy="31" r="0.4" fill="#bbbbbb"/><circle cx="35" cy="23" r="0.4" fill="#bbbbbb"/><circle cx="39" cy="27" r="0.4" fill="#bbbbbb"/><circle cx="35" cy="31" r="0.4" fill="#bbbbbb"/><circle cx="29" cy="27" r="0.4" fill="#bbbbbb"/><circle cx="35" cy="39" r="0.4" fill="#bbbbbb"/><circle cx="40.76749801635742" cy="27" r="0.4" fill="#bbbbbb"/><circle cx="50" cy="27" r="0.4" fill="#bbbbbb"/><circle cx="35" cy="15" r="0.4" fill="#bbbbbb"/></svg>