<svg xmlns="http://www.w3.org/2000/svg" width="65" height="54" viewBox="0 0 65 54"><path fill="#e8edff" stroke="#4466aa" stroke-width="0.3" d="M15,23 L35,23 L35,15 L50,27 L35,39 L35,31 L15,31 Z"/><line x1="42.5" y1="25" x2="35" y2="15" stroke="#bbbbbb" stroke-width="0.25" stroke-linecap="round"/><line x1="40" y1="27" x2="42.5" y2="25" stroke="#bbbbbb" stroke-width="0.25" stroke-linecap="round"/><line x1="40" y1="27" x2="42.5" y2="29" stroke="#bbbbbb" stroke-width="0.25" stroke-linecap="round"/><line x1="40" y1="27" x2="35" y2="27" stroke="#bbbbbb" stroke-width="0.25" stroke-linecap="round"/><line x1="42.5" y1="29" x2="35" y2="39" stroke="#bbbbbb" stroke-width="0.25" stroke-linecap="round"/><line x1="25" y1="27" x2="15" y2="23" stroke="#bbbbbb" stroke-width="0.25" stroke-linecap="round"/><line x1="35" y1="27" x2="25" y2="27" stroke="#bbbbbb" stroke-width="0.25" stroke-linecap="round"/><circle cx="42.5" cy="25" r="0.4" fill="#bbbbbb"/><circle cx="35" cy="15" r="0.4" fill="#bbbbbb"/><circle cx="40" cy="27" r="0.4" fill="#bbbbbb"/><circle cx="42.5" cy="29" r="0.4" fill="#bbbbbb"/><circle cx="35" cy="27" r="0.4" fill="#bbbbbb"/><circle cx="35" cy="39" r="0.4" fill="#bbbbbb"/><circle cx="25" cy="27" r="0.4" fill="#bbbbbb"/><circle cx="15" cy="23" r="0.4" fill="#bbbbbb"/><circle cx="42.5" cy="25" r="0" fill="#dd3333"/><circle cx="35" cy="15" r="0" fill="#dd3333"/><circle cx="40" cy="27" r="0" fill="#dd3333"/><circle cx="42.5" cy="29" r="0" fill="#dd3333"/><circle cx="35" cy="27" r="0" fill="#dd3333"/><circle cx="35" cy="39" r="0" fill="#dd3333"/><circle cx="25" cy="27" r="0" fill="#dd3333"/><circle cx="15" cy="23" r="0" fill="#dd3333"/></svg>