<svg xmlns="http://www.w3.org/2000/svg" width="65" height="54" viewBox="0 0 65 54"><path fill="#e8edff" stroke="#4466aa" stroke-width="0.3" d="M15,23 L35,23 L35,15 L50,27 L35,39 L35,31 L15,31 Z"/><line x1="36.87563705444336" y1="18.9999942779541" x2="35.69045639038086" y2="16.33333396911621" stroke="#bbbbbb" stroke-width="0.25" stroke-linecap="round"/><line x1="36.87563705444336" y1="18.9999942779541" x2="37.00849533081055" y2="19.07865333557129" stroke="#bbbbbb" stroke-width="0.25" stroke-linecap="round"/><line x1="38.15873336791992" y1="21.666664123535156" x2="37.00849533081055" y2="19.07865333557129" stroke="#bbbbbb" stroke-width="0.25" stroke-linecap="round"/><line x1="38.15873336791992" y1="21.666664123535156" x2="38.32652282714844" y2="21.823972702026367" stroke="#bbbbbb" stroke-width="0.25" stroke-linecap="round"/><line x1="38.32652282714844" y1="21.823972702026367" x2="39.581626892089844" y2="24.647964477539062" stroke="#bbbbbb" stroke-width="0.25" stroke-linecap="round"/><line x1="41.21427917480469" y1="26.999980926513672" x2="44.72858428955078" y2="27.000003814697266" stroke="#bbbbbb" stroke-width="0.25" stroke-linecap="round"/><line x1="48.242862701416016" y1="26.99999237060547" x2="44.728599548339844" y2="26.999996185302734" stroke="#bbbbbb" stroke-width="0.25" stroke-linecap="round"/><line x1="44.72858428955078" y1="27.000003814697266" x2="44.728599548339844" y2="26.999996185302734" stroke="#bbbbbb" stroke-width="0.25" stroke-linecap="round"/><line x1="39.581626892089844" y1="24.647964477539062" x2="39.895240783691406" y2="27.000003814697266" stroke="#bbbbbb" stroke-width="0.25" stroke-linecap="round"/><line x1="41.21427917480469" y1="26.999980926513672" x2="41.21427917480469" y2="27.000003814697266" stroke="#bbbbbb" stroke-width="0.25" stroke-linecap="round"/><line x1="39.895240783691406" y1="27.000003814697266" x2="41.21427917480469" y2="27.000003814697266" stroke="#bbbbbb" stroke-width="0.25" stroke-linecap="round"/><line x1="35.69048309326172" y1="37.666656494140625" x2="36.87565612792969" y2="34.99999237060547" stroke="#bbbbbb" stroke-width="0.25" stroke-linecap="round"/><line x1="37.00848388671875" y1="34.92134094238281" x2="36.87565612792969" y2="34.99999237060547" stroke="#bbbbbb" stroke-width="0.25" stroke-linecap="round"/><line x1="39.895240783691406" y1="27.000003814697266" x2="39.895240783691406" y2="27" stroke="#bbbbbb" stroke-width="0.25" stroke-linecap="round"/><line x1="39.895240783691406" y1="27" x2="39.58163070678711" y2="29.352031707763672" stroke="#bbbbbb" stroke-width="0.25" stroke-linecap="round"/><line x1="39.58163070678711" y1="29.352031707763672" x2="38.32652282714844" y2="32.17601013183594" stroke="#bbbbbb" stroke-width="0.25" stroke-linecap="round"/><line x1="37.00848388671875" y1="34.92134094238281" x2="38.158721923828125" y2="32.333351135253906" stroke="#bbbbbb" stroke-width="0.25" stroke-linecap="round"/><line x1="38.32652282714844" y1="32.17601013183594" x2="38.158721923828125" y2="32.333351135253906" stroke="#bbbbbb" stroke-width="0.25" stroke-linecap="round"/><line x1="39.895240783691406" y1="27" x2="33.57142639160156" y2="27" stroke="#bbbbbb" stroke-width="0.25" stroke-linecap="round"/><line x1="33.57142639160156" y1="27" x2="33.5714225769043" y2="27.000003814697266" stroke="#bbbbbb" stroke-width="0.25" stroke-linecap="round"/><line x1="30.714282989501953" y1="27" x2="33.5714225769043" y2="27.000003814697266" stroke="#bbbbbb" stroke-width="0.25" stroke-linecap="round"/><line x1="30.714282989501953" y1="27" x2="30.714290618896484" y2="27" stroke="#bbbbbb" stroke-width="0.25" stroke-linecap="round"/><line x1="27.857147216796875" y1="27" x2="30.714290618896484" y2="27" stroke="#bbbbbb" stroke-width="0.25" stroke-linecap="round"/><circle cx="36.87563705444336" cy="18.9999942779541" r="0.4" fill="#bbbbbb"/><circle cx="35.69045639038086" cy="16.33333396911621" r="0.4" fill="#bbbbbb"/><circle cx="37.00849533081055" cy="19.07865333557129" r="0.4" fill="#bbbbbb"/><circle cx="38.15873336791992" cy="21.666664123535156" r="0.4" fill="#bbbbbb"/><circle cx="38.32652282714844" cy="21.823972702026367" r="0.4" fill="#bbbbbb"/><circle cx="39.581626892089844" cy="24.647964477539062" r="0.4" fill="#bbbbbb"/><circle cx="41.21427917480469" cy="26.999980926513672" r="0.4" fill="#bbbbbb"/><circle cx="44.72858428955078" cy="27.000003814697266" r="0.4" fill="#bbbbbb"/><circle cx="48.242862701416016" cy="26.99999237060547" r="0.4" fill="#bbbbbb"/><circle cx="44.728599548339844" cy="26.999996185302734" r="0.4" fill="#bbbbbb"/><circle cx="39.895240783691406" cy="27.000003814697266" r="0.4" fill="#bbbbbb"/><circle cx="41.21427917480469" cy="27.000003814697266" r="0.4" fill="#bbbbbb"/><circle cx="35.69048309326172" cy="37.666656494140625" r="0.4" fill="#bbbbbb"/><circle cx="36.87565612792969" cy="34.99999237060547" r="0.4" fill="#bbbbbb"/><circle cx="37.00848388671875" cy="34.92134094238281" r="0.4" fill="#bbbbbb"/><circle cx="39.895240783691406" cy="27" r="0.4" fill="#bbbbbb"/><circle cx="39.58163070678711" cy="29.352031707763672" r="0.4" fill="#bbbbbb"/><circle cx="38.32652282714844" cy="32.17601013183594" r="0.4" fill="#bbbbbb"/><circle cx="38.158721923828125" cy="32.333351135253906" r="0.4" fill="#bbbbbb"/><circle cx="33.57142639160156" cy="27" r="0.4" fill="#bbbbbb"/><circle cx="33.5714225769043" cy="27.000003814697266" r="0.4" fill="#bbbbbb"/><circle cx="30.714282989501953" cy="27" r="0.4" fill="#bbbbbb"/><circle cx="30.714290618896484" cy="27" r="0.4" fill="#bbbbbb"/><circle cx="27.857147216796875" cy="27" r="0.4" fill="#bbbbbb"/><line x1="39.895240783691406" y1="27.000003814697266" x2="39.895240783691406" y2="27" stroke="#dd3333" stroke-width="0.75" stroke-linecap="round"/><circle cx="36.87563705444336" cy="18.9999942779541" r="0" fill="#dd3333"/><circle cx="35.69045639038086" cy="16.33333396911621" r="0" fill="#dd3333"/><circle cx="37.00849533081055" cy="19.07865333557129" r="0" fill="#dd3333"/><circle cx="38.15873336791992" cy="21.666664123535156" r="0" fill="#dd3333"/><circle cx="38.32652282714844" cy="21.823972702026367" r="0" fill="#dd3333"/><circle cx="39.581626892089844" cy="24.647964477539062" r="0" fill="#dd3333"/><circle cx="41.21427917480469" cy="26.999980926513672" r="0" fill="#dd3333"/><circle cx="44.72858428955078" cy="27.000003814697266" r="0" fill="#dd3333"/><circle cx="48.242862701416016" cy="26.99999237060547" r="0" fill="#dd3333"/><circle cx="44.728599548339844" cy="26.999996185302734" r="0" fill="#dd3333"/><circle cx="39.895240783691406" cy="27.000003814697266" r="0" fill="#dd3333"/><circle cx="41.21427917480469" cy="27.000003814697266" r="0" fill="#dd3333"/><circle cx="35.69048309326172" cy="37.666656494140625" r="0" fill="#dd3333"/><circle cx="36.87565612792969" cy="34.99999237060547" r="0" fill="#dd3333"/><circle cx="37.00848388671875" cy="34.92134094238281" r="0" fill="#dd3333"/><circle cx="39.895240783691406" cy="27" r="0" fill="#dd3333"/><circle cx="39.58163070678711" cy="29.352031707763672" r="0" fill="#dd3333"/><circle cx="38.32652282714844" cy="32.17601013183594" r="0" fill="#dd3333"/><circle cx="38.158721923828125" cy="32.333351135253906" r="0" fill="#dd3333"/><circle cx="33.57142639160156" cy="27" r="0" fill="#dd3333"/><circle cx="33.5714225769043" cy="27.000003814697266" r="0" fill="#dd3333"/><circle cx="30.714282989501953" cy="27" r="0" fill="#dd3333"/><circle cx="30.714290618896484" cy="27" r="0" fill="#dd3333"/><circle cx="27.857147216796875" cy="27" r="0" fill="#dd3333"/></svg>