<svg xmlns="http://www.w3.org/2000/svg" width="65" height="54" viewBox="0 0 65 54"><path fill="#e8edff" stroke="#4466aa" stroke-width="0.3" d="M15,23 L35,23 L35,15 L50,27 L35,39 L35,31 L15,31 Z"/><line x1="36.87566137566141" y1="19.00000000000002" x2="35.69047619047622" y2="16.33333333333333" stroke="#dd3333" stroke-width="0.25" stroke-linecap="round"/><line x1="36.87566137566141" y1="19.00000000000002" x2="37.008503401360514" y2="19.07865646258503" stroke="#dd3333" stroke-width="0.25" stroke-linecap="round"/><line x1="38.15873015873014" y1="21.666666666666647" x2="37.008503401360514" y2="19.07865646258503" stroke="#dd3333" stroke-width="0.25" stroke-linecap="round"/><line x1="38.15873015873014" y1="21.666666666666647" x2="38.3265306122449" y2="21.823979591836753" stroke="#dd3333" stroke-width="0.25" stroke-linecap="round"/><line x1="38.3265306122449" y1="21.823979591836753" x2="39.58163265306122" y2="24.64795918367347" stroke="#dd3333" stroke-width="0.25" stroke-linecap="round"/><line x1="48.24285714285711" y1="26.999999999999993" x2="44.72857142857137" y2="26.99999999999998" stroke="#dd3333" stroke-width="0.25" stroke-linecap="round"/><line x1="44.72857142857147" y1="27.000000000000004" x2="41.21428571428572" y2="26.999999999999986" stroke="#dd3333" stroke-width="0.25" stroke-linecap="round"/><line x1="35.69047619047619" y1="37.66666666666666" x2="36.875661375661394" y2="35" stroke="#dd3333" stroke-width="0.25" stroke-linecap="round"/><line x1="37.00850340136052" y1="34.92134353741496" x2="36.875661375661394" y2="35" stroke="#dd3333" stroke-width="0.25" stroke-linecap="round"/><line x1="39.58163265306122" y1="24.64795918367347" x2="39.89523809523809" y2="26.999999999999993" stroke="#dd3333" stroke-width="0.25" stroke-linecap="round"/><line x1="41.21428571428571" y1="27.00000000000001" x2="39.89523809523809" y2="26.999999999999986" stroke="#dd3333" stroke-width="0.25" stroke-linecap="round"/><line x1="39.89523809523809" y1="26.999999999999986" x2="39.58163265306123" y2="29.352040816326564" stroke="#dd3333" stroke-width="0.25" stroke-linecap="round"/><line x1="39.58163265306123" y1="29.352040816326564" x2="38.326530612244916" y2="32.17602040816324" stroke="#dd3333" stroke-width="0.25" stroke-linecap="round"/><line x1="37.00850340136052" y1="34.92134353741496" x2="38.15873015873012" y2="32.33333333333335" stroke="#dd3333" stroke-width="0.25" stroke-linecap="round"/><line x1="38.326530612244916" y1="32.17602040816324" x2="38.15873015873012" y2="32.33333333333335" stroke="#dd3333" stroke-width="0.25" stroke-linecap="round"/><line x1="39.89523809523809" y1="26.999999999999993" x2="33.57142857142856" y2="27" stroke="#dd3333" stroke-width="0.25" stroke-linecap="round"/><line x1="33.57142857142857" y1="27" x2="30.71428571428573" y2="27" stroke="#dd3333" stroke-width="0.25" stroke-linecap="round"/><line x1="30.71428571428572" y1="27" x2="27.857142857142854" y2="27" stroke="#dd3333" stroke-width="0.25" stroke-linecap="round"/><line x1="27.857142857142847" y1="27" x2="25" y2="27" stroke="#dd3333" stroke-width="0.25" stroke-linecap="round"/><line x1="25" y1="27" x2="22.142857142857146" y2="27" stroke="#dd3333" stroke-width="0.25" stroke-linecap="round"/><line x1="22.142857142857146" y1="27" x2="19.285714285714278" y2="27" stroke="#dd3333" stroke-width="0.25" stroke-linecap="round"/><line x1="19.285714285714285" y1="27.000000000000004" x2="18.917460317460318" y2="27.000000000000004" stroke="#dd3333" stroke-width="0.25" stroke-linecap="round"/><circle cx="36.87566137566141" cy="19.00000000000002" r="0.4" fill="#dd3333"/><circle cx="35.69047619047622" cy="16.33333333333333" r="0.4" fill="#dd3333"/><circle cx="37.008503401360514" cy="19.07865646258503" r="0.4" fill="#dd3333"/><circle cx="38.15873015873014" cy="21.666666666666647" r="0.4" fill="#dd3333"/><circle cx="38.3265306122449" cy="21.823979591836753" r="0.4" fill="#dd3333"/><circle cx="39.58163265306122" cy="24.64795918367347" r="0.4" fill="#dd3333"/><circle cx="48.24285714285711" cy="26.999999999999993" r="0.4" fill="#dd3333"/><circle cx="44.72857142857137" cy="26.99999999999998" r="0.4" fill="#dd3333"/><circle cx="41.21428571428572" cy="26.999999999999986" r="0.4" fill="#dd3333"/><circle cx="35.69047619047619" cy="37.66666666666666" r="0.4" fill="#dd3333"/><circle cx="36.875661375661394" cy="35" r="0.4" fill="#dd3333"/><circle cx="37.00850340136052" cy="34.92134353741496" r="0.4" fill="#dd3333"/><circle cx="39.89523809523809" cy="26.999999999999993" r="0.4" fill="#dd3333"/><circle cx="39.58163265306123" cy="29.352040816326564" r="0.4" fill="#dd3333"/><circle cx="38.326530612244916" cy="32.17602040816324" r="0.4" fill="#dd3333"/><circle cx="38.15873015873012" cy="32.33333333333335" r="0.4" fill="#dd3333"/><circle cx="33.57142857142856" cy="27" r="0.4" fill="#dd3333"/><circle cx="30.71428571428573" cy="27" r="0.4" fill="#dd3333"/><circle cx="27.857142857142854" cy="27" r="0.4" fill="#dd3333"/><circle cx="25" cy="27" r="0.4" fill="#dd3333"/><circle cx="22.142857142857146" cy="27" r="0.4" fill="#dd3333"/><circle cx="19.285714285714278" cy="27" r="0.4" fill="#dd3333"/><circle cx="18.917460317460318" cy="27.000000000000004" r="0.4" fill="#dd3333"/></svg>