<svg xmlns="http://www.w3.org/2000/svg" width="60" height="46" viewBox="0 0 60 46"><path fill="#e8edff" stroke="#4466aa" stroke-width="0.3" d="M15,15 L17.070552825927734,15.27259349822998 L19,16.071796417236328 L20.6568546295166,17.3431453704834 L21.928203582763672,19 L22.727405548095703,20.929447174072266 L23,23 L22.727405548095703,25.070552825927734 L21.928203582763672,27 L20.6568546295166,28.6568546295166 L19,29.928203582763672 L17.070552825927734,30.727405548095703 L15,31 L23,26 L37,26 L45,31 L42.929447174072266,30.727405548095703 L41,29.928203582763672 L39.34314727783203,28.6568546295166 L38.07179641723633,27 L37.2725944519043,25.070552825927734 L37,23 L37.2725944519043,20.929447174072266 L38.07179641723633,19 L39.34314727783203,17.3431453704834 L41,16.071796417236328 L42.929447174072266,15.27259349822998 L45,15 L37,20 L23,20 Z"/><line x1="18.863704681396484" y1="16.30786895751953" x2="19" y2="16.071796417236328" stroke="#dd3333" stroke-width="0.25" stroke-linecap="round"/><line x1="17.828426361083984" y1="16.171573638916016" x2="22.727405548095703" y2="20.929447174072266" stroke="#dd3333" stroke-width="0.25" stroke-linecap="round"/><line x1="17.828426361083984" y1="16.171573638916016" x2="18.863704681396484" y2="16.30786895751953" stroke="#dd3333" stroke-width="0.25" stroke-linecap="round"/><line x1="20.035276412963867" y1="28.36370277404785" x2="15" y2="31" stroke="#dd3333" stroke-width="0.25" stroke-linecap="round"/><line x1="18.863704681396484" y1="29.69213104248047" x2="19.499378204345703" y2="28.86370277404785" stroke="#dd3333" stroke-width="0.25" stroke-linecap="round"/><line x1="18.863704681396484" y1="29.69213104248047" x2="19" y2="29.928203582763672" stroke="#dd3333" stroke-width="0.25" stroke-linecap="round"/><line x1="23" y1="24.5" x2="22.727405548095703" y2="25.070552825927734" stroke="#dd3333" stroke-width="0.25" stroke-linecap="round"/><line x1="20.035276412963867" y1="28.36370277404785" x2="19.499378204345703" y2="28.86370277404785" stroke="#dd3333" stroke-width="0.25" stroke-linecap="round"/><line x1="41.13629913330078" y1="29.69213104248047" x2="41" y2="29.928203582763672" stroke="#dd3333" stroke-width="0.25" stroke-linecap="round"/><line x1="42.171573638916016" y1="16.171573638916016" x2="41.53589630126953" y2="17" stroke="#dd3333" stroke-width="0.25" stroke-linecap="round"/><line x1="27.66666603088379" y1="24" x2="23" y2="24.5" stroke="#dd3333" stroke-width="0.25" stroke-linecap="round"/><line x1="27.66666603088379" y1="24" x2="30" y2="23" stroke="#dd3333" stroke-width="0.25" stroke-linecap="round"/><line x1="27.66666603088379" y1="24" x2="30" y2="24.5" stroke="#dd3333" stroke-width="0.25" stroke-linecap="round"/><line x1="30" y1="24.5" x2="37" y2="24.5" stroke="#dd3333" stroke-width="0.25" stroke-linecap="round"/><line x1="37" y1="24.5" x2="37.2725944519043" y2="25.070552825927734" stroke="#dd3333" stroke-width="0.25" stroke-linecap="round"/><line x1="41.53589630126953" y1="17" x2="37" y2="20" stroke="#dd3333" stroke-width="0.25" stroke-linecap="round"/><line x1="41.13629913330078" y1="16.30786895751953" x2="41" y2="16.071796417236328" stroke="#dd3333" stroke-width="0.25" stroke-linecap="round"/><line x1="41.13629913330078" y1="29.69213104248047" x2="45" y2="31" stroke="#dd3333" stroke-width="0.25" stroke-linecap="round"/><line x1="41.13629913330078" y1="16.30786895751953" x2="42.171573638916016" y2="16.171573638916016" stroke="#dd3333" stroke-width="0.25" stroke-linecap="round"/><line x1="37" y1="21.5" x2="37.2725944519043" y2="20.929447174072266" stroke="#dd3333" stroke-width="0.25" stroke-linecap="round"/><line x1="22.86370277404785" y1="20.464723587036133" x2="23" y2="21.5" stroke="#dd3333" stroke-width="0.25" stroke-linecap="round"/><line x1="27.66666603088379" y1="22" x2="30" y2="23" stroke="#dd3333" stroke-width="0.25" stroke-linecap="round"/><line x1="27.66666603088379" y1="22" x2="23" y2="21.5" stroke="#dd3333" stroke-width="0.25" stroke-linecap="round"/><line x1="27.66666603088379" y1="22" x2="30" y2="21.5" stroke="#dd3333" stroke-width="0.25" stroke-linecap="round"/><line x1="37" y1="21.5" x2="30" y2="21.5" stroke="#dd3333" stroke-width="0.25" stroke-linecap="round"/><line x1="22.86370277404785" y1="20.464723587036133" x2="21.928203582763672" y2="19" stroke="#dd3333" stroke-width="0.25" stroke-linecap="round"/><circle cx="18.863704681396484" cy="16.30786895751953" r="0.4" fill="#dd3333"/><circle cx="19" cy="16.071796417236328" r="0.4" fill="#dd3333"/><circle cx="17.828426361083984" cy="16.171573638916016" r="0.4" fill="#dd3333"/><circle cx="22.727405548095703" cy="20.929447174072266" r="0.4" fill="#dd3333"/><circle cx="20.035276412963867" cy="28.36370277404785" r="0.4" fill="#dd3333"/><circle cx="15" cy="31" r="0.4" fill="#dd3333"/><circle cx="18.863704681396484" cy="29.69213104248047" r="0.4" fill="#dd3333"/><circle cx="19.499378204345703" cy="28.86370277404785" r="0.4" fill="#dd3333"/><circle cx="19" cy="29.928203582763672" r="0.4" fill="#dd3333"/><circle cx="23" cy="24.5" r="0.4" fill="#dd3333"/><circle cx="22.727405548095703" cy="25.070552825927734" r="0.4" fill="#dd3333"/><circle cx="41.13629913330078" cy="29.69213104248047" r="0.4" fill="#dd3333"/><circle cx="41" cy="29.928203582763672" r="0.4" fill="#dd3333"/><circle cx="42.171573638916016" cy="16.171573638916016" r="0.4" fill="#dd3333"/><circle cx="41.53589630126953" cy="17" r="0.4" fill="#dd3333"/><circle cx="27.66666603088379" cy="24" r="0.4" fill="#dd3333"/><circle cx="30" cy="23" r="0.4" fill="#dd3333"/><circle cx="30" cy="24.5" r="0.4" fill="#dd3333"/><circle cx="37" cy="24.5" r="0.4" fill="#dd3333"/><circle cx="37.2725944519043" cy="25.070552825927734" r="0.4" fill="#dd3333"/><circle cx="37" cy="20" r="0.4" fill="#dd3333"/><circle cx="41.13629913330078" cy="16.30786895751953" r="0.4" fill="#dd3333"/><circle cx="41" cy="16.071796417236328" r="0.4" fill="#dd3333"/><circle cx="45" cy="31" r="0.4" fill="#dd3333"/><circle cx="37" cy="21.5" r="0.4" fill="#dd3333"/><circle cx="37.2725944519043" cy="20.929447174072266" r="0.4" fill="#dd3333"/><circle cx="22.86370277404785" cy="20.464723587036133" r="0.4" fill="#dd3333"/><circle cx="23" cy="21.5" r="0.4" fill="#dd3333"/><circle cx="27.66666603088379" cy="22" r="0.4" fill="#dd3333"/><circle cx="30" cy="21.5" r="0.4" fill="#dd3333"/><circle cx="21.928203582763672" cy="19" r="0.4" fill="#dd3333"/></svg>