<svg xmlns="http://www.w3.org/2000/svg" width="60" height="46" viewBox="0 0 60 46"><path fill="#e8edff" stroke="#4466aa" stroke-width="0.3" d="M15,15 L17.070552825927734,15.27259349822998 L19,16.071796417236328 L20.6568546295166,17.3431453704834 L21.928203582763672,19 L22.727405548095703,20.929447174072266 L23,23 L22.727405548095703,25.070552825927734 L21.928203582763672,27 L20.6568546295166,28.6568546295166 L19,29.928203582763672 L17.070552825927734,30.727405548095703 L15,31 L23,26 L37,26 L45,31 L42.929447174072266,30.727405548095703 L41,29.928203582763672 L39.34314727783203,28.6568546295166 L38.07179641723633,27 L37.2725944519043,25.070552825927734 L37,23 L37.2725944519043,20.929447174072266 L38.07179641723633,19 L39.34314727783203,17.3431453704834 L41,16.071796417236328 L42.929447174072266,15.27259349822998 L45,15 L37,20 L23,20 Z"/><line x1="23" y1="26" x2="22.894250869750977" y2="25.631275177001953" stroke="#bbbbbb" stroke-width="0.25" stroke-linecap="round"/><line x1="37" y1="26" x2="37.10574722290039" y2="25.631275177001953" stroke="#bbbbbb" stroke-width="0.25" stroke-linecap="round"/><line x1="37" y1="20" x2="37.10574722290039" y2="20.368724822998047" stroke="#bbbbbb" stroke-width="0.25" stroke-linecap="round"/><line x1="23" y1="20" x2="22.894250869750977" y2="20.368724822998047" stroke="#bbbbbb" stroke-width="0.25" stroke-linecap="round"/><line x1="22.727405548095703" y1="20.929447174072266" x2="23.44547462463379" y2="20.737041473388672" stroke="#bbbbbb" stroke-width="0.25" stroke-linecap="round"/><line x1="22.894250869750977" y1="20.368724822998047" x2="23.44547462463379" y2="20.737041473388672" stroke="#bbbbbb" stroke-width="0.25" stroke-linecap="round"/><line x1="22.894250869750977" y1="25.631275177001953" x2="23.44547462463379" y2="25.262958526611328" stroke="#bbbbbb" stroke-width="0.25" stroke-linecap="round"/><line x1="22.727405548095703" y1="25.070552825927734" x2="23.44547462463379" y2="25.262958526611328" stroke="#bbbbbb" stroke-width="0.25" stroke-linecap="round"/><line x1="37.2725944519043" y1="25.070552825927734" x2="36.554527282714844" y2="25.262958526611328" stroke="#bbbbbb" stroke-width="0.25" stroke-linecap="round"/><line x1="37.10574722290039" y1="25.631275177001953" x2="36.554527282714844" y2="25.262958526611328" stroke="#bbbbbb" stroke-width="0.25" stroke-linecap="round"/><line x1="37.10574722290039" y1="20.368724822998047" x2="36.554527282714844" y2="20.737041473388672" stroke="#bbbbbb" stroke-width="0.25" stroke-linecap="round"/><line x1="37.2725944519043" y1="20.929447174072266" x2="36.554527282714844" y2="20.737041473388672" stroke="#bbbbbb" stroke-width="0.25" stroke-linecap="round"/><line x1="36.554527282714844" y1="25.262958526611328" x2="33.97411346435547" y2="23" stroke="#bbbbbb" stroke-width="0.25" stroke-linecap="round"/><line x1="37" y1="23" x2="33.97411346435547" y2="23" stroke="#bbbbbb" stroke-width="0.25" stroke-linecap="round"/><line x1="36.554527282714844" y1="20.737041473388672" x2="33.97411346435547" y2="23" stroke="#bbbbbb" stroke-width="0.25" stroke-linecap="round"/><line x1="23" y1="23" x2="26.02588653564453" y2="22.999998092651367" stroke="#bbbbbb" stroke-width="0.25" stroke-linecap="round"/><line x1="23.44547462463379" y1="25.262958526611328" x2="26.02588653564453" y2="22.999998092651367" stroke="#bbbbbb" stroke-width="0.25" stroke-linecap="round"/><line x1="23.44547462463379" y1="20.737041473388672" x2="26.02588653564453" y2="22.999998092651367" stroke="#bbbbbb" stroke-width="0.25" stroke-linecap="round"/><line x1="26.02588653564453" y1="22.999998092651367" x2="30" y2="22.999998092651367" stroke="#bbbbbb" stroke-width="0.25" stroke-linecap="round"/><line x1="33.97411346435547" y1="23" x2="30" y2="22.999998092651367" stroke="#bbbbbb" stroke-width="0.25" stroke-linecap="round"/><circle cx="23" cy="26" r="0.4" fill="#bbbbbb"/><circle cx="22.894250869750977" cy="25.631275177001953" r="0.4" fill="#bbbbbb"/><circle cx="37" cy="26" r="0.4" fill="#bbbbbb"/><circle cx="37.10574722290039" cy="25.631275177001953" r="0.4" fill="#bbbbbb"/><circle cx="37" cy="20" r="0.4" fill="#bbbbbb"/><circle cx="37.10574722290039" cy="20.368724822998047" r="0.4" fill="#bbbbbb"/><circle cx="23" cy="20" r="0.4" fill="#bbbbbb"/><circle cx="22.894250869750977" cy="20.368724822998047" r="0.4" fill="#bbbbbb"/><circle cx="22.727405548095703" cy="20.929447174072266" r="0.4" fill="#bbbbbb"/><circle cx="23.44547462463379" cy="20.737041473388672" r="0.4" fill="#bbbbbb"/><circle cx="23.44547462463379" cy="25.262958526611328" r="0.4" fill="#bbbbbb"/><circle cx="22.727405548095703" cy="25.070552825927734" r="0.4" fill="#bbbbbb"/><circle cx="37.2725944519043" cy="25.070552825927734" r="0.4" fill="#bbbbbb"/><circle cx="36.554527282714844" cy="25.262958526611328" r="0.4" fill="#bbbbbb"/><circle cx="36.554527282714844" cy="20.737041473388672" r="0.4" fill="#bbbbbb"/><circle cx="37.2725944519043" cy="20.929447174072266" r="0.4" fill="#bbbbbb"/><circle cx="33.97411346435547" cy="23" r="0.4" fill="#bbbbbb"/><circle cx="37" cy="23" r="0.4" fill="#bbbbbb"/><circle cx="23" cy="23" r="0.4" fill="#bbbbbb"/><circle cx="26.02588653564453" cy="22.999998092651367" r="0.4" fill="#bbbbbb"/><circle cx="30" cy="22.999998092651367" r="0.4" fill="#bbbbbb"/><line x1="36.554527282714844" y1="25.262958526611328" x2="33.97411346435547" y2="23" stroke="#dd3333" stroke-width="0.75" stroke-linecap="round"/><line x1="36.554527282714844" y1="20.737041473388672" x2="33.97411346435547" y2="23" stroke="#dd3333" stroke-width="0.75" stroke-linecap="round"/><line x1="23.44547462463379" y1="25.262958526611328" x2="26.02588653564453" y2="22.999998092651367" stroke="#dd3333" stroke-width="0.75" stroke-linecap="round"/><line x1="23.44547462463379" y1="20.737041473388672" x2="26.02588653564453" y2="22.999998092651367" stroke="#dd3333" stroke-width="0.75" stroke-linecap="round"/><line x1="26.02588653564453" y1="22.999998092651367" x2="30" y2="22.999998092651367" stroke="#dd3333" stroke-width="0.75" stroke-linecap="round"/><line x1="33.97411346435547" y1="23" x2="30" y2="22.999998092651367" stroke="#dd3333" stroke-width="0.75" stroke-linecap="round"/><circle cx="23" cy="26" r="0" fill="#dd3333"/><circle cx="22.894250869750977" cy="25.631275177001953" r="0" fill="#dd3333"/><circle cx="37" cy="26" r="0" fill="#dd3333"/><circle cx="37.10574722290039" cy="25.631275177001953" r="0" fill="#dd3333"/><circle cx="37" cy="20" r="0" fill="#dd3333"/><circle cx="37.10574722290039" cy="20.368724822998047" r="0" fill="#dd3333"/><circle cx="23" cy="20" r="0" fill="#dd3333"/><circle cx="22.894250869750977" cy="20.368724822998047" r="0" fill="#dd3333"/><circle cx="22.727405548095703" cy="20.929447174072266" r="0" fill="#dd3333"/><circle cx="23.44547462463379" cy="20.737041473388672" r="0" fill="#dd3333"/><circle cx="23.44547462463379" cy="25.262958526611328" r="0" fill="#dd3333"/><circle cx="22.727405548095703" cy="25.070552825927734" r="0" fill="#dd3333"/><circle cx="37.2725944519043" cy="25.070552825927734" r="0" fill="#dd3333"/><circle cx="36.554527282714844" cy="25.262958526611328" r="0" fill="#dd3333"/><circle cx="36.554527282714844" cy="20.737041473388672" r="0" fill="#dd3333"/><circle cx="37.2725944519043" cy="20.929447174072266" r="0" fill="#dd3333"/><circle cx="33.97411346435547" cy="23" r="0" fill="#dd3333"/><circle cx="37" cy="23" r="0" fill="#dd3333"/><circle cx="23" cy="23" r="0" fill="#dd3333"/><circle cx="26.02588653564453" cy="22.999998092651367" r="0" fill="#dd3333"/><circle cx="30" cy="22.999998092651367" r="0" fill="#dd3333"/></svg>