<svg xmlns="http://www.w3.org/2000/svg" width="60" height="46" viewBox="0 0 60 46"><path fill="#e8edff" stroke="#4466aa" stroke-width="0.3" d="M15,15 L17.070552825927734,15.27259349822998 L19,16.071796417236328 L20.6568546295166,17.3431453704834 L21.928203582763672,19 L22.727405548095703,20.929447174072266 L23,23 L22.727405548095703,25.070552825927734 L21.928203582763672,27 L20.6568546295166,28.6568546295166 L19,29.928203582763672 L17.070552825927734,30.727405548095703 L15,31 L23,26 L37,26 L45,31 L42.929447174072266,30.727405548095703 L41,29.928203582763672 L39.34314727783203,28.6568546295166 L38.07179641723633,27 L37.2725944519043,25.070552825927734 L37,23 L37.2725944519043,20.929447174072266 L38.07179641723633,19 L39.34314727783203,17.3431453704834 L41,16.071796417236328 L42.929447174072266,15.27259349822998 L45,15 L37,20 L23,20 Z"/><line x1="18.921682357788086" y1="29.254316329956055" x2="18.46794891357422" y2="29.553403854370117" stroke="#dd3333" stroke-width="0.25" stroke-linecap="round"/><line x1="18.921682357788086" y1="29.254316329956055" x2="18.95923614501953" y2="29.17646026611328" stroke="#dd3333" stroke-width="0.25" stroke-linecap="round"/><line x1="18.46794891357422" y1="29.553403854370117" x2="19.18653106689453" y2="29.540159225463867" stroke="#dd3333" stroke-width="0.25" stroke-linecap="round"/><line x1="18.95923614501953" y1="29.17646026611328" x2="19.18653106689453" y2="29.540159225463867" stroke="#dd3333" stroke-width="0.25" stroke-linecap="round"/><line x1="22.90822410583496" y1="25.522159576416016" x2="22.600263595581055" y2="26.10205078125" stroke="#dd3333" stroke-width="0.25" stroke-linecap="round"/><line x1="22.90822410583496" y1="25.522159576416016" x2="23.388917922973633" y2="25.381229400634766" stroke="#dd3333" stroke-width="0.25" stroke-linecap="round"/><line x1="23.844377517700195" y1="24.866527557373047" x2="23.388917922973633" y2="25.381229400634766" stroke="#dd3333" stroke-width="0.25" stroke-linecap="round"/><line x1="23.844377517700195" y1="24.866527557373047" x2="24.166685104370117" y2="24.675586700439453" stroke="#dd3333" stroke-width="0.25" stroke-linecap="round"/><line x1="24.555925369262695" y1="24.2580623626709" x2="24.166685104370117" y2="24.675586700439453" stroke="#dd3333" stroke-width="0.25" stroke-linecap="round"/><line x1="24.555925369262695" y1="24.2580623626709" x2="24.9444522857666" y2="23.981143951416016" stroke="#dd3333" stroke-width="0.25" stroke-linecap="round"/><line x1="25.261137008666992" y1="23.648815155029297" x2="24.9444522857666" y2="23.981143951416016" stroke="#dd3333" stroke-width="0.25" stroke-linecap="round"/><line x1="25.261137008666992" y1="23.648815155029297" x2="25.7221622467041" y2="23.29010009765625" stroke="#dd3333" stroke-width="0.25" stroke-linecap="round"/><line x1="43.9141731262207" y1="30.511865615844727" x2="43.98330307006836" y2="30.721769332885742" stroke="#dd3333" stroke-width="0.25" stroke-linecap="round"/><line x1="43.9141731262207" y1="30.511865615844727" x2="43.314579010009766" y2="30.468914031982422" stroke="#dd3333" stroke-width="0.25" stroke-linecap="round"/><line x1="43.14979934692383" y1="30.252086639404297" x2="43.314579010009766" y2="30.468914031982422" stroke="#dd3333" stroke-width="0.25" stroke-linecap="round"/><line x1="43.14979934692383" y1="30.252086639404297" x2="42.76115417480469" y2="30.22406768798828" stroke="#dd3333" stroke-width="0.25" stroke-linecap="round"/><line x1="42.44109344482422" y1="29.90260887145996" x2="42.76115417480469" y2="30.22406768798828" stroke="#dd3333" stroke-width="0.25" stroke-linecap="round"/><line x1="42.44109344482422" y1="29.90260887145996" x2="42.1459846496582" y2="29.89035987854004" stroke="#dd3333" stroke-width="0.25" stroke-linecap="round"/><line x1="41.72993850708008" y1="29.55698013305664" x2="42.1459846496582" y2="29.89035987854004" stroke="#dd3333" stroke-width="0.25" stroke-linecap="round"/><line x1="41.72993850708008" y1="29.55698013305664" x2="41.53203201293945" y2="29.553312301635742" stroke="#dd3333" stroke-width="0.25" stroke-linecap="round"/><line x1="41.53203201293945" y1="29.553312301635742" x2="41.078182220458984" y2="29.25421905517578" stroke="#dd3333" stroke-width="0.25" stroke-linecap="round"/><line x1="41.040771484375" y1="29.176563262939453" x2="41.078182220458984" y2="29.25421905517578" stroke="#dd3333" stroke-width="0.25" stroke-linecap="round"/><line x1="41.040771484375" y1="29.176563262939453" x2="40.492156982421875" y2="28.87485694885254" stroke="#dd3333" stroke-width="0.25" stroke-linecap="round"/><line x1="40.405330657958984" y1="28.709821701049805" x2="40.492156982421875" y2="28.87485694885254" stroke="#dd3333" stroke-width="0.25" stroke-linecap="round"/><line x1="40.405330657958984" y1="28.709821701049805" x2="39.908653259277344" y2="28.491662979125977" stroke="#dd3333" stroke-width="0.25" stroke-linecap="round"/><line x1="39.76718521118164" y1="28.247522354125977" x2="39.908653259277344" y2="28.491662979125977" stroke="#dd3333" stroke-width="0.25" stroke-linecap="round"/><line x1="39.76718521118164" y1="28.247522354125977" x2="39.44282913208008" y2="28.14151954650879" stroke="#dd3333" stroke-width="0.25" stroke-linecap="round"/><line x1="39.18317413330078" y1="27.698246002197266" x2="39.44282913208008" y2="28.14151954650879" stroke="#dd3333" stroke-width="0.25" stroke-linecap="round"/><line x1="39.18317413330078" y1="27.698246002197266" x2="38.9106559753418" y2="27.672771453857422" stroke="#dd3333" stroke-width="0.25" stroke-linecap="round"/><line x1="38.59815979003906" y1="27.151357650756836" x2="38.9106559753418" y2="27.672771453857422" stroke="#dd3333" stroke-width="0.25" stroke-linecap="round"/><line x1="38.59815979003906" y1="27.151357650756836" x2="38.38319778442383" y2="27.200063705444336" stroke="#dd3333" stroke-width="0.25" stroke-linecap="round"/><line x1="37.39960861206055" y1="26.10205078125" x2="37.59804153442383" y2="26.066162109375" stroke="#dd3333" stroke-width="0.25" stroke-linecap="round"/><line x1="37.39960861206055" y1="26.10205078125" x2="37.09153366088867" y2="25.522111892700195" stroke="#dd3333" stroke-width="0.25" stroke-linecap="round"/><line x1="36.611114501953125" y1="25.38119888305664" x2="37.09153366088867" y2="25.522111892700195" stroke="#dd3333" stroke-width="0.25" stroke-linecap="round"/><line x1="36.611114501953125" y1="25.38119888305664" x2="36.15581512451172" y2="24.866470336914062" stroke="#dd3333" stroke-width="0.25" stroke-linecap="round"/><line x1="35.83332824707031" y1="24.67556381225586" x2="36.15581512451172" y2="24.866470336914062" stroke="#dd3333" stroke-width="0.25" stroke-linecap="round"/><line x1="35.83332824707031" y1="24.67556381225586" x2="35.44416427612305" y2="24.25802230834961" stroke="#dd3333" stroke-width="0.25" stroke-linecap="round"/><line x1="35.055599212646484" y1="23.98116111755371" x2="35.44416427612305" y2="24.25802230834961" stroke="#dd3333" stroke-width="0.25" stroke-linecap="round"/><line x1="35.055599212646484" y1="23.98116111755371" x2="34.738975524902344" y2="23.64876937866211" stroke="#dd3333" stroke-width="0.25" stroke-linecap="round"/><line x1="34.2778434753418" y1="23.290176391601562" x2="34.738975524902344" y2="23.64876937866211" stroke="#dd3333" stroke-width="0.25" stroke-linecap="round"/><line x1="43.9832649230957" y1="15.278255462646484" x2="43.914371490478516" y2="15.48785400390625" stroke="#dd3333" stroke-width="0.25" stroke-linecap="round"/><line x1="43.31460189819336" y1="15.531214714050293" x2="43.914371490478516" y2="15.48785400390625" stroke="#dd3333" stroke-width="0.25" stroke-linecap="round"/><line x1="43.31460189819336" y1="15.531214714050293" x2="43.1497917175293" y2="15.747950553894043" stroke="#dd3333" stroke-width="0.25" stroke-linecap="round"/><line x1="42.761390686035156" y1="15.776037216186523" x2="43.1497917175293" y2="15.747950553894043" stroke="#dd3333" stroke-width="0.25" stroke-linecap="round"/><line x1="42.761390686035156" y1="15.776037216186523" x2="42.44099426269531" y2="16.097362518310547" stroke="#dd3333" stroke-width="0.25" stroke-linecap="round"/><line x1="42.14597702026367" y1="16.10965347290039" x2="42.44099426269531" y2="16.097362518310547" stroke="#dd3333" stroke-width="0.25" stroke-linecap="round"/><line x1="41.078369140625" y1="16.745662689208984" x2="41.53190994262695" y2="16.446632385253906" stroke="#dd3333" stroke-width="0.25" stroke-linecap="round"/><line x1="42.14597702026367" y1="16.10965347290039" x2="41.72986602783203" y2="16.44301986694336" stroke="#dd3333" stroke-width="0.25" stroke-linecap="round"/><line x1="41.53190994262695" y1="16.446632385253906" x2="41.72986602783203" y2="16.44301986694336" stroke="#dd3333" stroke-width="0.25" stroke-linecap="round"/><line x1="41.078369140625" y1="16.745662689208984" x2="41.04073715209961" y2="16.82353973388672" stroke="#dd3333" stroke-width="0.25" stroke-linecap="round"/><line x1="40.49199295043945" y1="17.125198364257812" x2="41.04073715209961" y2="16.82353973388672" stroke="#dd3333" stroke-width="0.25" stroke-linecap="round"/><line x1="40.49199295043945" y1="17.125198364257812" x2="40.405372619628906" y2="17.290172576904297" stroke="#dd3333" stroke-width="0.25" stroke-linecap="round"/><line x1="39.90869903564453" y1="17.508296966552734" x2="40.405372619628906" y2="17.290172576904297" stroke="#dd3333" stroke-width="0.25" stroke-linecap="round"/><line x1="39.90869903564453" y1="17.508296966552734" x2="39.76707077026367" y2="17.7525634765625" stroke="#dd3333" stroke-width="0.25" stroke-linecap="round"/><line x1="39.44282150268555" y1="17.858463287353516" x2="39.76707077026367" y2="17.7525634765625" stroke="#dd3333" stroke-width="0.25" stroke-linecap="round"/><line x1="39.44282150268555" y1="17.858463287353516" x2="39.18338394165039" y2="18.30162239074707" stroke="#dd3333" stroke-width="0.25" stroke-linecap="round"/><line x1="38.91027069091797" y1="18.32733917236328" x2="39.18338394165039" y2="18.30162239074707" stroke="#dd3333" stroke-width="0.25" stroke-linecap="round"/><line x1="38.91027069091797" y1="18.32733917236328" x2="38.59796905517578" y2="18.848621368408203" stroke="#dd3333" stroke-width="0.25" stroke-linecap="round"/><line x1="38.38290023803711" y1="18.800142288208008" x2="38.59796905517578" y2="18.848621368408203" stroke="#dd3333" stroke-width="0.25" stroke-linecap="round"/><line x1="37.597816467285156" y1="19.93368911743164" x2="37.39960861206055" y2="19.897930145263672" stroke="#dd3333" stroke-width="0.25" stroke-linecap="round"/><line x1="37.091712951660156" y1="20.477760314941406" x2="37.39960861206055" y2="19.897930145263672" stroke="#dd3333" stroke-width="0.25" stroke-linecap="round"/><line x1="37.091712951660156" y1="20.477760314941406" x2="36.61103057861328" y2="20.618854522705078" stroke="#dd3333" stroke-width="0.25" stroke-linecap="round"/><line x1="36.155738830566406" y1="21.133502960205078" x2="36.61103057861328" y2="20.618854522705078" stroke="#dd3333" stroke-width="0.25" stroke-linecap="round"/><line x1="36.155738830566406" y1="21.133502960205078" x2="35.83333206176758" y2="21.32440185546875" stroke="#dd3333" stroke-width="0.25" stroke-linecap="round"/><line x1="35.444068908691406" y1="21.741840362548828" x2="35.83333206176758" y2="21.32440185546875" stroke="#dd3333" stroke-width="0.25" stroke-linecap="round"/><line x1="35.444068908691406" y1="21.741840362548828" x2="35.055599212646484" y2="22.01883888244629" stroke="#dd3333" stroke-width="0.25" stroke-linecap="round"/><line x1="34.73884963989258" y1="22.351276397705078" x2="35.055599212646484" y2="22.01883888244629" stroke="#dd3333" stroke-width="0.25" stroke-linecap="round"/><line x1="34.2778434753418" y1="23.290176391601562" x2="33.99803161621094" y2="23.000001907348633" stroke="#dd3333" stroke-width="0.25" stroke-linecap="round"/><line x1="33.49982452392578" y1="22.99994659423828" x2="33.99803161621094" y2="23.000001907348633" stroke="#dd3333" stroke-width="0.25" stroke-linecap="round"/><line x1="34.73884963989258" y1="22.351276397705078" x2="34.277793884277344" y2="22.709835052490234" stroke="#dd3333" stroke-width="0.25" stroke-linecap="round"/><line x1="33.99803161621094" y1="23.000001907348633" x2="34.277793884277344" y2="22.709835052490234" stroke="#dd3333" stroke-width="0.25" stroke-linecap="round"/><line x1="33.49982452392578" y1="22.99994659423828" x2="33.49992752075195" y2="22.999954223632812" stroke="#dd3333" stroke-width="0.25" stroke-linecap="round"/><line x1="32.72233581542969" y1="23.00001335144043" x2="33.49992752075195" y2="22.999954223632812" stroke="#dd3333" stroke-width="0.25" stroke-linecap="round"/><line x1="32.72233581542969" y1="23.00001335144043" x2="32.72233581542969" y2="23.000045776367188" stroke="#dd3333" stroke-width="0.25" stroke-linecap="round"/><line x1="31.94441032409668" y1="22.999996185302734" x2="32.72233581542969" y2="23.000045776367188" stroke="#dd3333" stroke-width="0.25" stroke-linecap="round"/><line x1="31.94441032409668" y1="22.999996185302734" x2="31.944358825683594" y2="22.999963760375977" stroke="#dd3333" stroke-width="0.25" stroke-linecap="round"/><line x1="30.388906478881836" y1="22.999996185302734" x2="31.16666603088379" y2="23.00000762939453" stroke="#dd3333" stroke-width="0.25" stroke-linecap="round"/><line x1="31.944358825683594" y1="22.999963760375977" x2="31.16666603088379" y2="23.00001335144043" stroke="#dd3333" stroke-width="0.25" stroke-linecap="round"/><line x1="31.16666603088379" y1="23.00000762939453" x2="31.16666603088379" y2="23.00001335144043" stroke="#dd3333" stroke-width="0.25" stroke-linecap="round"/><line x1="30.388906478881836" y1="22.999996185302734" x2="30.388906478881836" y2="23.000003814697266" stroke="#dd3333" stroke-width="0.25" stroke-linecap="round"/><line x1="29.611127853393555" y1="23.000003814697266" x2="30.388906478881836" y2="23.000003814697266" stroke="#dd3333" stroke-width="0.25" stroke-linecap="round"/><line x1="28.055463790893555" y1="22.999958038330078" x2="28.8333740234375" y2="23.00000762939453" stroke="#dd3333" stroke-width="0.25" stroke-linecap="round"/><line x1="29.611127853393555" y1="23.000003814697266" x2="28.8333740234375" y2="23.00000762939453" stroke="#dd3333" stroke-width="0.25" stroke-linecap="round"/><line x1="28.055463790893555" y1="22.999958038330078" x2="28.055517196655273" y2="22.999996185302734" stroke="#dd3333" stroke-width="0.25" stroke-linecap="round"/><line x1="27.277862548828125" y1="23.000041961669922" x2="28.055517196655273" y2="22.999996185302734" stroke="#dd3333" stroke-width="0.25" stroke-linecap="round"/><line x1="27.277862548828125" y1="23.000041961669922" x2="27.27781105041504" y2="23.00001335144043" stroke="#dd3333" stroke-width="0.25" stroke-linecap="round"/><line x1="26.499977111816406" y1="22.999975204467773" x2="27.27781105041504" y2="23.00001335144043" stroke="#dd3333" stroke-width="0.25" stroke-linecap="round"/><line x1="25.7221622467041" y1="23.29010009765625" x2="26.001977920532227" y2="23" stroke="#dd3333" stroke-width="0.25" stroke-linecap="round"/><line x1="26.001977920532227" y1="23" x2="26.499977111816406" y2="22.999975204467773" stroke="#dd3333" stroke-width="0.25" stroke-linecap="round"/><line x1="26.001977920532227" y1="23" x2="25.722187042236328" y2="22.70986557006836" stroke="#dd3333" stroke-width="0.25" stroke-linecap="round"/><line x1="25.26117706298828" y1="22.351282119750977" x2="25.722187042236328" y2="22.70986557006836" stroke="#dd3333" stroke-width="0.25" stroke-linecap="round"/><line x1="25.26117706298828" y1="22.351282119750977" x2="24.9444522857666" y2="22.018871307373047" stroke="#dd3333" stroke-width="0.25" stroke-linecap="round"/><line x1="24.555896759033203" y1="21.741928100585938" x2="24.9444522857666" y2="22.018871307373047" stroke="#dd3333" stroke-width="0.25" stroke-linecap="round"/><line x1="24.555896759033203" y1="21.741928100585938" x2="24.166656494140625" y2="21.324426651000977" stroke="#dd3333" stroke-width="0.25" stroke-linecap="round"/><line x1="23.844348907470703" y1="21.13345718383789" x2="24.166656494140625" y2="21.324426651000977" stroke="#dd3333" stroke-width="0.25" stroke-linecap="round"/><line x1="23.844348907470703" y1="21.13345718383789" x2="23.388896942138672" y2="20.618770599365234" stroke="#dd3333" stroke-width="0.25" stroke-linecap="round"/><line x1="22.90822410583496" y1="20.477750778198242" x2="23.388896942138672" y2="20.618770599365234" stroke="#dd3333" stroke-width="0.25" stroke-linecap="round"/><line x1="22.90822410583496" y1="20.477750778198242" x2="22.600265502929688" y2="19.897964477539062" stroke="#dd3333" stroke-width="0.25" stroke-linecap="round"/><line x1="22.402135848999023" y1="19.93401336669922" x2="22.600265502929688" y2="19.897964477539062" stroke="#dd3333" stroke-width="0.25" stroke-linecap="round"/><line x1="20.557016372680664" y1="17.858455657958984" x2="24.159284591674805" y2="24.0058650970459" stroke="#dd3333" stroke-width="0.25" stroke-linecap="round"/><line x1="20.557016372680664" y1="17.858455657958984" x2="20.232784271240234" y2="17.752540588378906" stroke="#dd3333" stroke-width="0.25" stroke-linecap="round"/><line x1="20.091339111328125" y1="17.508352279663086" x2="20.232784271240234" y2="17.752540588378906" stroke="#dd3333" stroke-width="0.25" stroke-linecap="round"/><line x1="20.091339111328125" y1="17.508352279663086" x2="19.59463119506836" y2="17.290252685546875" stroke="#dd3333" stroke-width="0.25" stroke-linecap="round"/><line x1="19.507877349853516" y1="17.125207901000977" x2="19.59463119506836" y2="17.290252685546875" stroke="#dd3333" stroke-width="0.25" stroke-linecap="round"/><line x1="18.46800994873047" y1="16.446638107299805" x2="18.921682357788086" y2="16.74563980102539" stroke="#dd3333" stroke-width="0.25" stroke-linecap="round"/><line x1="19.507877349853516" y1="17.125207901000977" x2="18.95925521850586" y2="16.82353401184082" stroke="#dd3333" stroke-width="0.25" stroke-linecap="round"/><line x1="18.921682357788086" y1="16.74563980102539" x2="18.95925521850586" y2="16.82353401184082" stroke="#dd3333" stroke-width="0.25" stroke-linecap="round"/><line x1="18.46800994873047" y1="16.446638107299805" x2="18.270004272460938" y2="16.442989349365234" stroke="#dd3333" stroke-width="0.25" stroke-linecap="round"/><line x1="17.854068756103516" y1="16.109661102294922" x2="18.270004272460938" y2="16.442989349365234" stroke="#dd3333" stroke-width="0.25" stroke-linecap="round"/><line x1="17.854068756103516" y1="16.109661102294922" x2="17.558937072753906" y2="16.09734344482422" stroke="#dd3333" stroke-width="0.25" stroke-linecap="round"/><line x1="17.238780975341797" y1="15.775978088378906" x2="17.558937072753906" y2="16.09734344482422" stroke="#dd3333" stroke-width="0.25" stroke-linecap="round"/><line x1="17.238780975341797" y1="15.775978088378906" x2="16.850252151489258" y2="15.747933387756348" stroke="#dd3333" stroke-width="0.25" stroke-linecap="round"/><line x1="16.685436248779297" y1="15.531255722045898" x2="16.850252151489258" y2="15.747933387756348" stroke="#dd3333" stroke-width="0.25" stroke-linecap="round"/><line x1="16.685436248779297" y1="15.531255722045898" x2="16.08565902709961" y2="15.487961769104004" stroke="#dd3333" stroke-width="0.25" stroke-linecap="round"/><line x1="16.0166015625" y1="15.278169631958008" x2="16.08565902709961" y2="15.487961769104004" stroke="#dd3333" stroke-width="0.25" stroke-linecap="round"/><circle cx="18.921682357788086" cy="29.254316329956055" r="0.4" fill="#dd3333"/><circle cx="18.46794891357422" cy="29.553403854370117" r="0.4" fill="#dd3333"/><circle cx="18.95923614501953" cy="29.17646026611328" r="0.4" fill="#dd3333"/><circle cx="19.18653106689453" cy="29.540159225463867" r="0.4" fill="#dd3333"/><circle cx="22.90822410583496" cy="25.522159576416016" r="0.4" fill="#dd3333"/><circle cx="22.600263595581055" cy="26.10205078125" r="0.4" fill="#dd3333"/><circle cx="23.388917922973633" cy="25.381229400634766" r="0.4" fill="#dd3333"/><circle cx="23.844377517700195" cy="24.866527557373047" r="0.4" fill="#dd3333"/><circle cx="24.166685104370117" cy="24.675586700439453" r="0.4" fill="#dd3333"/><circle cx="24.555925369262695" cy="24.2580623626709" r="0.4" fill="#dd3333"/><circle cx="24.9444522857666" cy="23.981143951416016" r="0.4" fill="#dd3333"/><circle cx="25.261137008666992" cy="23.648815155029297" r="0.4" fill="#dd3333"/><circle cx="25.7221622467041" cy="23.29010009765625" r="0.4" fill="#dd3333"/><circle cx="43.9141731262207" cy="30.511865615844727" r="0.4" fill="#dd3333"/><circle cx="43.98330307006836" cy="30.721769332885742" r="0.4" fill="#dd3333"/><circle cx="43.314579010009766" cy="30.468914031982422" r="0.4" fill="#dd3333"/><circle cx="43.14979934692383" cy="30.252086639404297" r="0.4" fill="#dd3333"/><circle cx="42.76115417480469" cy="30.22406768798828" r="0.4" fill="#dd3333"/><circle cx="42.44109344482422" cy="29.90260887145996" r="0.4" fill="#dd3333"/><circle cx="42.1459846496582" cy="29.89035987854004" r="0.4" fill="#dd3333"/><circle cx="41.72993850708008" cy="29.55698013305664" r="0.4" fill="#dd3333"/><circle cx="41.53203201293945" cy="29.553312301635742" r="0.4" fill="#dd3333"/><circle cx="41.078182220458984" cy="29.25421905517578" r="0.4" fill="#dd3333"/><circle cx="41.040771484375" cy="29.176563262939453" r="0.4" fill="#dd3333"/><circle cx="40.492156982421875" cy="28.87485694885254" r="0.4" fill="#dd3333"/><circle cx="40.405330657958984" cy="28.709821701049805" r="0.4" fill="#dd3333"/><circle cx="39.908653259277344" cy="28.491662979125977" r="0.4" fill="#dd3333"/><circle cx="39.76718521118164" cy="28.247522354125977" r="0.4" fill="#dd3333"/><circle cx="39.44282913208008" cy="28.14151954650879" r="0.4" fill="#dd3333"/><circle cx="39.18317413330078" cy="27.698246002197266" r="0.4" fill="#dd3333"/><circle cx="38.9106559753418" cy="27.672771453857422" r="0.4" fill="#dd3333"/><circle cx="38.59815979003906" cy="27.151357650756836" r="0.4" fill="#dd3333"/><circle cx="38.38319778442383" cy="27.200063705444336" r="0.4" fill="#dd3333"/><circle cx="37.39960861206055" cy="26.10205078125" r="0.4" fill="#dd3333"/><circle cx="37.59804153442383" cy="26.066162109375" r="0.4" fill="#dd3333"/><circle cx="37.09153366088867" cy="25.522111892700195" r="0.4" fill="#dd3333"/><circle cx="36.611114501953125" cy="25.38119888305664" r="0.4" fill="#dd3333"/><circle cx="36.15581512451172" cy="24.866470336914062" r="0.4" fill="#dd3333"/><circle cx="35.83332824707031" cy="24.67556381225586" r="0.4" fill="#dd3333"/><circle cx="35.44416427612305" cy="24.25802230834961" r="0.4" fill="#dd3333"/><circle cx="35.055599212646484" cy="23.98116111755371" r="0.4" fill="#dd3333"/><circle cx="34.738975524902344" cy="23.64876937866211" r="0.4" fill="#dd3333"/><circle cx="34.2778434753418" cy="23.290176391601562" r="0.4" fill="#dd3333"/><circle cx="43.9832649230957" cy="15.278255462646484" r="0.4" fill="#dd3333"/><circle cx="43.914371490478516" cy="15.48785400390625" r="0.4" fill="#dd3333"/><circle cx="43.31460189819336" cy="15.531214714050293" r="0.4" fill="#dd3333"/><circle cx="43.1497917175293" cy="15.747950553894043" r="0.4" fill="#dd3333"/><circle cx="42.761390686035156" cy="15.776037216186523" r="0.4" fill="#dd3333"/><circle cx="42.44099426269531" cy="16.097362518310547" r="0.4" fill="#dd3333"/><circle cx="42.14597702026367" cy="16.10965347290039" r="0.4" fill="#dd3333"/><circle cx="41.078369140625" cy="16.745662689208984" r="0.4" fill="#dd3333"/><circle cx="41.53190994262695" cy="16.446632385253906" r="0.4" fill="#dd3333"/><circle cx="41.72986602783203" cy="16.44301986694336" r="0.4" fill="#dd3333"/><circle cx="41.04073715209961" cy="16.82353973388672" r="0.4" fill="#dd3333"/><circle cx="40.49199295043945" cy="17.125198364257812" r="0.4" fill="#dd3333"/><circle cx="40.405372619628906" cy="17.290172576904297" r="0.4" fill="#dd3333"/><circle cx="39.90869903564453" cy="17.508296966552734" r="0.4" fill="#dd3333"/><circle cx="39.76707077026367" cy="17.7525634765625" r="0.4" fill="#dd3333"/><circle cx="39.44282150268555" cy="17.858463287353516" r="0.4" fill="#dd3333"/><circle cx="39.18338394165039" cy="18.30162239074707" r="0.4" fill="#dd3333"/><circle cx="38.91027069091797" cy="18.32733917236328" r="0.4" fill="#dd3333"/><circle cx="38.59796905517578" cy="18.848621368408203" r="0.4" fill="#dd3333"/><circle cx="38.38290023803711" cy="18.800142288208008" r="0.4" fill="#dd3333"/><circle cx="37.597816467285156" cy="19.93368911743164" r="0.4" fill="#dd3333"/><circle cx="37.39960861206055" cy="19.897930145263672" r="0.4" fill="#dd3333"/><circle cx="37.091712951660156" cy="20.477760314941406" r="0.4" fill="#dd3333"/><circle cx="36.61103057861328" cy="20.618854522705078" r="0.4" fill="#dd3333"/><circle cx="36.155738830566406" cy="21.133502960205078" r="0.4" fill="#dd3333"/><circle cx="35.83333206176758" cy="21.32440185546875" r="0.4" fill="#dd3333"/><circle cx="35.444068908691406" cy="21.741840362548828" r="0.4" fill="#dd3333"/><circle cx="35.055599212646484" cy="22.01883888244629" r="0.4" fill="#dd3333"/><circle cx="34.73884963989258" cy="22.351276397705078" r="0.4" fill="#dd3333"/><circle cx="33.99803161621094" cy="23.000001907348633" r="0.4" fill="#dd3333"/><circle cx="33.49982452392578" cy="22.99994659423828" r="0.4" fill="#dd3333"/><circle cx="34.277793884277344" cy="22.709835052490234" r="0.4" fill="#dd3333"/><circle cx="33.49992752075195" cy="22.999954223632812" r="0.4" fill="#dd3333"/><circle cx="32.72233581542969" cy="23.00001335144043" r="0.4" fill="#dd3333"/><circle cx="32.72233581542969" cy="23.000045776367188" r="0.4" fill="#dd3333"/><circle cx="31.94441032409668" cy="22.999996185302734" r="0.4" fill="#dd3333"/><circle cx="31.944358825683594" cy="22.999963760375977" r="0.4" fill="#dd3333"/><circle cx="30.388906478881836" cy="22.999996185302734" r="0.4" fill="#dd3333"/><circle cx="31.16666603088379" cy="23.00000762939453" r="0.4" fill="#dd3333"/><circle cx="31.16666603088379" cy="23.00001335144043" r="0.4" fill="#dd3333"/><circle cx="30.388906478881836" cy="23.000003814697266" r="0.4" fill="#dd3333"/><circle cx="29.611127853393555" cy="23.000003814697266" r="0.4" fill="#dd3333"/><circle cx="28.055463790893555" cy="22.999958038330078" r="0.4" fill="#dd3333"/><circle cx="28.8333740234375" cy="23.00000762939453" r="0.4" fill="#dd3333"/><circle cx="28.055517196655273" cy="22.999996185302734" r="0.4" fill="#dd3333"/><circle cx="27.277862548828125" cy="23.000041961669922" r="0.4" fill="#dd3333"/><circle cx="27.27781105041504" cy="23.00001335144043" r="0.4" fill="#dd3333"/><circle cx="26.499977111816406" cy="22.999975204467773" r="0.4" fill="#dd3333"/><circle cx="26.001977920532227" cy="23" r="0.4" fill="#dd3333"/><circle cx="25.722187042236328" cy="22.70986557006836" r="0.4" fill="#dd3333"/><circle cx="25.26117706298828" cy="22.351282119750977" r="0.4" fill="#dd3333"/><circle cx="24.9444522857666" cy="22.018871307373047" r="0.4" fill="#dd3333"/><circle cx="24.555896759033203" cy="21.741928100585938" r="0.4" fill="#dd3333"/><circle cx="24.166656494140625" cy="21.324426651000977" r="0.4" fill="#dd3333"/><circle cx="23.844348907470703" cy="21.13345718383789" r="0.4" fill="#dd3333"/><circle cx="23.388896942138672" cy="20.618770599365234" r="0.4" fill="#dd3333"/><circle cx="22.90822410583496" cy="20.477750778198242" r="0.4" fill="#dd3333"/><circle cx="22.600265502929688" cy="19.897964477539062" r="0.4" fill="#dd3333"/><circle cx="22.402135848999023" cy="19.93401336669922" r="0.4" fill="#dd3333"/><circle cx="20.557016372680664" cy="17.858455657958984" r="0.4" fill="#dd3333"/><circle cx="24.159284591674805" cy="24.0058650970459" r="0.4" fill="#dd3333"/><circle cx="20.232784271240234" cy="17.752540588378906" r="0.4" fill="#dd3333"/><circle cx="20.091339111328125" cy="17.508352279663086" r="0.4" fill="#dd3333"/><circle cx="19.59463119506836" cy="17.290252685546875" r="0.4" fill="#dd3333"/><circle cx="19.507877349853516" cy="17.125207901000977" r="0.4" fill="#dd3333"/><circle cx="18.46800994873047" cy="16.446638107299805" r="0.4" fill="#dd3333"/><circle cx="18.921682357788086" cy="16.74563980102539" r="0.4" fill="#dd3333"/><circle cx="18.95925521850586" cy="16.82353401184082" r="0.4" fill="#dd3333"/><circle cx="18.270004272460938" cy="16.442989349365234" r="0.4" fill="#dd3333"/><circle cx="17.854068756103516" cy="16.109661102294922" r="0.4" fill="#dd3333"/><circle cx="17.558937072753906" cy="16.09734344482422" r="0.4" fill="#dd3333"/><circle cx="17.238780975341797" cy="15.775978088378906" r="0.4" fill="#dd3333"/><circle cx="16.850252151489258" cy="15.747933387756348" r="0.4" fill="#dd3333"/><circle cx="16.685436248779297" cy="15.531255722045898" r="0.4" fill="#dd3333"/><circle cx="16.08565902709961" cy="15.487961769104004" r="0.4" fill="#dd3333"/><circle cx="16.0166015625" cy="15.278169631958008" r="0.4" fill="#dd3333"/></svg>