<svg xmlns="http://www.w3.org/2000/svg" width="130" height="47" viewBox="0 0 130 47"><path fill="#e8edff" stroke="#4466aa" stroke-width="0.3" d="M15,18 L19,18.927051544189453 L23,19.763355255126953 L27,20.427051544189453 L31,20.85317039489746 L35,21 L39,20.853168487548828 L43,20.427051544189453 L47,19.763355255126953 L51,18.92704963684082 L55,18 L59,17.072948455810547 L63,16.236644744873047 L67,15.572949409484863 L71,15.146830558776855 L75,15 L79,15.146830558776855 L83,15.572949409484863 L87,16.236644744873047 L91,17.072948455810547 L95,18 L99,18.92704963684082 L103,19.763357162475586 L107,20.427051544189453 L111,20.85317039489746 L115,21 L115,29.470314025878906 L111,29.10915184020996 L107,28.53048324584961 L103,27.781423568725586 L99,26.929964065551758 L95,26.058509826660156 L91,25.255830764770508 L87,24.6082706451416 L83,24.19100570678711 L79,24.06027603149414 L75,24.24732208251953 L71,24.754695892333984 L67,25.55525016784668 L63,26.594005584716797 L59,27.792713165283203 L55,29.05666732788086 L51,30.283187866210938 L47,31.370922088623047 L43,32.22909927368164 L39,32.785858154296875 L35,32.99486541748047 L31,32.83953857421875 L27,32.334556579589844 L23,31.52442741394043 L19,30.479297637939453 L15,29.288434982299805 Z"/><line x1="113.75537872314453" y1="22.180831909179688" x2="114.583251953125" y2="21.423782348632812" stroke="#dd3333" stroke-width="0.25" stroke-linecap="round"/><line x1="113.75537872314453" y1="22.180831909179688" x2="113.70323944091797" y2="22.270484924316406" stroke="#dd3333" stroke-width="0.25" stroke-linecap="round"/><line x1="112.92530059814453" y1="22.98151969909668" x2="113.70323944091797" y2="22.270484924316406" stroke="#dd3333" stroke-width="0.25" stroke-linecap="round"/><line x1="112.92530059814453" y1="22.98151969909668" x2="112.82402801513672" y2="23.118040084838867" stroke="#dd3333" stroke-width="0.25" stroke-linecap="round"/><line x1="112.09457397460938" y1="23.782901763916016" x2="112.82402801513672" y2="23.118040084838867" stroke="#dd3333" stroke-width="0.25" stroke-linecap="round"/><line x1="112.09457397460938" y1="23.782901763916016" x2="111.94322967529297" y2="23.964557647705078" stroke="#dd3333" stroke-width="0.25" stroke-linecap="round"/><line x1="111.2626953125" y1="24.586380004882812" x2="111.94322967529297" y2="23.964557647705078" stroke="#dd3333" stroke-width="0.25" stroke-linecap="round"/><line x1="111.2626953125" y1="24.586380004882812" x2="111.0636978149414" y2="24.811416625976562" stroke="#dd3333" stroke-width="0.25" stroke-linecap="round"/><line x1="114.63529968261719" y1="29.046770095825195" x2="113.8978271484375" y2="28.28523826599121" stroke="#dd3333" stroke-width="0.25" stroke-linecap="round"/><line x1="113.85923767089844" y1="28.19973373413086" x2="113.8978271484375" y2="28.28523826599121" stroke="#dd3333" stroke-width="0.25" stroke-linecap="round"/><line x1="113.85923767089844" y1="28.19973373413086" x2="113.16462707519531" y2="27.481067657470703" stroke="#dd3333" stroke-width="0.25" stroke-linecap="round"/><line x1="113.08389282226562" y1="27.352542877197266" x2="113.16462707519531" y2="27.481067657470703" stroke="#dd3333" stroke-width="0.25" stroke-linecap="round"/><line x1="113.08389282226562" y1="27.352542877197266" x2="112.42963409423828" y2="26.676265716552734" stroke="#dd3333" stroke-width="0.25" stroke-linecap="round"/><line x1="112.30892181396484" y1="26.50566291809082" x2="112.42963409423828" y2="26.676265716552734" stroke="#dd3333" stroke-width="0.25" stroke-linecap="round"/><line x1="112.30892181396484" y1="26.50566291809082" x2="111.69535827636719" y2="25.871557235717773" stroke="#dd3333" stroke-width="0.25" stroke-linecap="round"/><line x1="111.53379821777344" y1="25.658843994140625" x2="111.69535827636719" y2="25.871557235717773" stroke="#dd3333" stroke-width="0.25" stroke-linecap="round"/><line x1="111.0636978149414" y1="24.811416625976562" x2="110.90823364257812" y2="24.953615188598633" stroke="#dd3333" stroke-width="0.25" stroke-linecap="round"/><line x1="111.53379821777344" y1="25.658843994140625" x2="111.14859008789062" y2="25.260066986083984" stroke="#dd3333" stroke-width="0.25" stroke-linecap="round"/><line x1="110.90823364257812" y1="24.953615188598633" x2="111.14859008789062" y2="25.260066986083984" stroke="#dd3333" stroke-width="0.25" stroke-linecap="round"/><line x1="110.90823364257812" y1="24.953615188598633" x2="110.38343811035156" y2="24.90186882019043" stroke="#dd3333" stroke-width="0.25" stroke-linecap="round"/><line x1="110.16956329345703" y1="24.85936737060547" x2="110.38343811035156" y2="24.90186882019043" stroke="#dd3333" stroke-width="0.25" stroke-linecap="round"/><line x1="110.16956329345703" y1="24.85936737060547" x2="109.5806655883789" y2="24.80126953125" stroke="#dd3333" stroke-width="0.25" stroke-linecap="round"/><line x1="109.36991882324219" y1="24.758926391601562" x2="109.5806655883789" y2="24.80126953125" stroke="#dd3333" stroke-width="0.25" stroke-linecap="round"/><line x1="109.36991882324219" y1="24.758926391601562" x2="108.7784423828125" y2="24.700380325317383" stroke="#dd3333" stroke-width="0.25" stroke-linecap="round"/><line x1="108.5719985961914" y1="24.658756256103516" x2="108.7784423828125" y2="24.700380325317383" stroke="#dd3333" stroke-width="0.25" stroke-linecap="round"/><line x1="108.5719985961914" y1="24.658756256103516" x2="107.97711181640625" y2="24.599796295166016" stroke="#dd3333" stroke-width="0.25" stroke-linecap="round"/><line x1="107.77413940429688" y1="24.558635711669922" x2="107.97711181640625" y2="24.599796295166016" stroke="#dd3333" stroke-width="0.25" stroke-linecap="round"/><line x1="107.77413940429688" y1="24.558635711669922" x2="107.33790588378906" y2="24.51507568359375" stroke="#dd3333" stroke-width="0.25" stroke-linecap="round"/><line x1="106.97724914550781" y1="24.441787719726562" x2="107.33790588378906" y2="24.51507568359375" stroke="#dd3333" stroke-width="0.25" stroke-linecap="round"/><line x1="106.97724914550781" y1="24.441787719726562" x2="106.53255462646484" y2="24.397130966186523" stroke="#dd3333" stroke-width="0.25" stroke-linecap="round"/><line x1="105.9498519897461" y1="24.27772331237793" x2="106.53255462646484" y2="24.397130966186523" stroke="#dd3333" stroke-width="0.25" stroke-linecap="round"/><line x1="105.9498519897461" y1="24.27772331237793" x2="105.7303695678711" y2="24.2556095123291" stroke="#dd3333" stroke-width="0.25" stroke-linecap="round"/><line x1="105.15142822265625" y1="24.136598587036133" x2="105.7303695678711" y2="24.2556095123291" stroke="#dd3333" stroke-width="0.25" stroke-linecap="round"/><line x1="105.15142822265625" y1="24.136598587036133" x2="104.92887878417969" y2="24.11408233642578" stroke="#dd3333" stroke-width="0.25" stroke-linecap="round"/><line x1="104.35334777832031" y1="23.995553970336914" x2="104.92887878417969" y2="24.11408233642578" stroke="#dd3333" stroke-width="0.25" stroke-linecap="round"/><line x1="104.35334777832031" y1="23.995553970336914" x2="104.12659454345703" y2="23.97265625" stroke="#dd3333" stroke-width="0.25" stroke-linecap="round"/><line x1="103.55416870117188" y1="23.8543758392334" x2="104.12659454345703" y2="23.97265625" stroke="#dd3333" stroke-width="0.25" stroke-linecap="round"/><line x1="103.55416870117188" y1="23.8543758392334" x2="103.42058563232422" y2="23.84090805053711" stroke="#dd3333" stroke-width="0.25" stroke-linecap="round"/><line x1="102.75708770751953" y1="23.703292846679688" x2="103.42058563232422" y2="23.84090805053711" stroke="#dd3333" stroke-width="0.25" stroke-linecap="round"/><line x1="102.75708770751953" y1="23.703292846679688" x2="102.6173324584961" y2="23.68901824951172" stroke="#dd3333" stroke-width="0.25" stroke-linecap="round"/><line x1="102.6173324584961" y1="23.68901824951172" x2="101.8157730102539" y2="23.522165298461914" stroke="#dd3333" stroke-width="0.25" stroke-linecap="round"/><line x1="101.79842376708984" y1="23.516357421875" x2="101.8157730102539" y2="23.522165298461914" stroke="#dd3333" stroke-width="0.25" stroke-linecap="round"/><line x1="101.79842376708984" y1="23.516357421875" x2="101.01595306396484" y2="23.353208541870117" stroke="#dd3333" stroke-width="0.25" stroke-linecap="round"/><line x1="100.99803161621094" y1="23.34749412536621" x2="101.01595306396484" y2="23.353208541870117" stroke="#dd3333" stroke-width="0.25" stroke-linecap="round"/><line x1="100.99803161621094" y1="23.34749412536621" x2="100.21571350097656" y2="23.184326171875" stroke="#dd3333" stroke-width="0.25" stroke-linecap="round"/><line x1="100.19783782958984" y1="23.17873191833496" x2="100.21571350097656" y2="23.184326171875" stroke="#dd3333" stroke-width="0.25" stroke-linecap="round"/><line x1="100.19783782958984" y1="23.17873191833496" x2="99.43364715576172" y2="23.01926040649414" stroke="#dd3333" stroke-width="0.25" stroke-linecap="round"/><line x1="99.39940643310547" y1="23.00833511352539" x2="99.43364715576172" y2="23.01926040649414" stroke="#dd3333" stroke-width="0.25" stroke-linecap="round"/><line x1="99.39940643310547" y1="23.00833511352539" x2="98.6324462890625" y2="22.848142623901367" stroke="#dd3333" stroke-width="0.25" stroke-linecap="round"/><line x1="98.60044860839844" y1="22.837909698486328" x2="98.6324462890625" y2="22.848142623901367" stroke="#dd3333" stroke-width="0.25" stroke-linecap="round"/><line x1="98.60044860839844" y1="22.837909698486328" x2="97.83160400390625" y2="22.677242279052734" stroke="#dd3333" stroke-width="0.25" stroke-linecap="round"/><line x1="97.718505859375" y1="22.640708923339844" x2="97.83160400390625" y2="22.677242279052734" stroke="#dd3333" stroke-width="0.25" stroke-linecap="round"/><line x1="97.718505859375" y1="22.640708923339844" x2="97.03273010253906" y2="22.49767303466797" stroke="#dd3333" stroke-width="0.25" stroke-linecap="round"/><line x1="96.9163589477539" y1="22.460445404052734" x2="97.03273010253906" y2="22.49767303466797" stroke="#dd3333" stroke-width="0.25" stroke-linecap="round"/><line x1="96.9163589477539" y1="22.460445404052734" x2="96.23360443115234" y2="22.318134307861328" stroke="#dd3333" stroke-width="0.25" stroke-linecap="round"/><line x1="96.1160888671875" y1="22.280338287353516" x2="96.23360443115234" y2="22.318134307861328" stroke="#dd3333" stroke-width="0.25" stroke-linecap="round"/><line x1="96.1160888671875" y1="22.280338287353516" x2="95.37297058105469" y2="22.12578582763672" stroke="#dd3333" stroke-width="0.25" stroke-linecap="round"/><line x1="95.3130874633789" y1="22.10659408569336" x2="95.37297058105469" y2="22.12578582763672" stroke="#dd3333" stroke-width="0.25" stroke-linecap="round"/><line x1="95.3130874633789" y1="22.10659408569336" x2="94.57545471191406" y2="21.95357894897461" stroke="#dd3333" stroke-width="0.25" stroke-linecap="round"/><line x1="94.5101318359375" y1="21.932861328125" x2="94.57545471191406" y2="21.95357894897461" stroke="#dd3333" stroke-width="0.25" stroke-linecap="round"/><line x1="94.5101318359375" y1="21.932861328125" x2="93.7777099609375" y2="21.7813777923584" stroke="#dd3333" stroke-width="0.25" stroke-linecap="round"/><line x1="93.70751190185547" y1="21.759117126464844" x2="93.7777099609375" y2="21.7813777923584" stroke="#dd3333" stroke-width="0.25" stroke-linecap="round"/><line x1="93.70751190185547" y1="21.759117126464844" x2="92.98002624511719" y2="21.609325408935547" stroke="#dd3333" stroke-width="0.25" stroke-linecap="round"/><line x1="92.90393829345703" y1="21.585298538208008" x2="92.98002624511719" y2="21.609325408935547" stroke="#dd3333" stroke-width="0.25" stroke-linecap="round"/><line x1="91.29734802246094" y1="21.246906280517578" x2="92.10120391845703" y2="21.411575317382812" stroke="#dd3333" stroke-width="0.25" stroke-linecap="round"/><line x1="92.90393829345703" y1="21.585298538208008" x2="92.18245697021484" y2="21.436981201171875" stroke="#dd3333" stroke-width="0.25" stroke-linecap="round"/><line x1="92.10120391845703" y1="21.411575317382812" x2="92.18245697021484" y2="21.436981201171875" stroke="#dd3333" stroke-width="0.25" stroke-linecap="round"/><line x1="91.29734802246094" y1="21.246906280517578" x2="91.23938751220703" y2="21.24110221862793" stroke="#dd3333" stroke-width="0.25" stroke-linecap="round"/><line x1="90.49091339111328" y1="21.088695526123047" x2="91.23938751220703" y2="21.24110221862793" stroke="#dd3333" stroke-width="0.25" stroke-linecap="round"/><line x1="90.49091339111328" y1="21.088695526123047" x2="90.44408416748047" y2="21.084156036376953" stroke="#dd3333" stroke-width="0.25" stroke-linecap="round"/><line x1="89.77173614501953" y1="20.948453903198242" x2="90.44408416748047" y2="21.084156036376953" stroke="#dd3333" stroke-width="0.25" stroke-linecap="round"/><line x1="89.77173614501953" y1="20.948453903198242" x2="89.64726257324219" y2="20.936119079589844" stroke="#dd3333" stroke-width="0.25" stroke-linecap="round"/><line x1="88.968017578125" y1="20.799707412719727" x2="89.64726257324219" y2="20.936119079589844" stroke="#dd3333" stroke-width="0.25" stroke-linecap="round"/><line x1="88.968017578125" y1="20.799707412719727" x2="88.84974670410156" y2="20.788070678710938" stroke="#dd3333" stroke-width="0.25" stroke-linecap="round"/><line x1="88.16492462158203" y1="20.650976181030273" x2="88.84974670410156" y2="20.788070678710938" stroke="#dd3333" stroke-width="0.25" stroke-linecap="round"/><line x1="88.16492462158203" y1="20.650976181030273" x2="88.05301666259766" y2="20.640047073364258" stroke="#dd3333" stroke-width="0.25" stroke-linecap="round"/><line x1="87.3612060546875" y1="20.502315521240234" x2="88.05301666259766" y2="20.640047073364258" stroke="#dd3333" stroke-width="0.25" stroke-linecap="round"/><line x1="87.3612060546875" y1="20.502315521240234" x2="87.0274658203125" y2="20.46977424621582" stroke="#dd3333" stroke-width="0.25" stroke-linecap="round"/><line x1="86.55126190185547" y1="20.37608528137207" x2="87.0274658203125" y2="20.46977424621582" stroke="#dd3333" stroke-width="0.25" stroke-linecap="round"/><line x1="86.55126190185547" y1="20.37608528137207" x2="86.23162078857422" y2="20.34520149230957" stroke="#dd3333" stroke-width="0.25" stroke-linecap="round"/><line x1="85.9170150756836" y1="20.283864974975586" x2="86.23162078857422" y2="20.34520149230957" stroke="#dd3333" stroke-width="0.25" stroke-linecap="round"/><line x1="85.9170150756836" y1="20.283864974975586" x2="85.43421173095703" y2="20.2375545501709" stroke="#dd3333" stroke-width="0.25" stroke-linecap="round"/><line x1="85.11399841308594" y1="20.17534828186035" x2="85.43421173095703" y2="20.2375545501709" stroke="#dd3333" stroke-width="0.25" stroke-linecap="round"/><line x1="85.11399841308594" y1="20.17534828186035" x2="84.63645935058594" y2="20.129867553710938" stroke="#dd3333" stroke-width="0.25" stroke-linecap="round"/><line x1="84.30953216552734" y1="20.066814422607422" x2="84.63645935058594" y2="20.129867553710938" stroke="#dd3333" stroke-width="0.25" stroke-linecap="round"/><line x1="84.30953216552734" y1="20.066814422607422" x2="83.83924865722656" y2="20.022226333618164" stroke="#dd3333" stroke-width="0.25" stroke-linecap="round"/><line x1="83.50550842285156" y1="19.958293914794922" x2="83.83924865722656" y2="20.022226333618164" stroke="#dd3333" stroke-width="0.25" stroke-linecap="round"/><line x1="82.14249420166016" y1="19.826271057128906" x2="82.69607543945312" y2="19.87786293029785" stroke="#dd3333" stroke-width="0.25" stroke-linecap="round"/><line x1="83.50550842285156" y1="19.958293914794922" x2="82.74095153808594" y2="19.886215209960938" stroke="#dd3333" stroke-width="0.25" stroke-linecap="round"/><line x1="82.69607543945312" y1="19.87786293029785" x2="82.74095153808594" y2="19.886215209960938" stroke="#dd3333" stroke-width="0.25" stroke-linecap="round"/><line x1="82.14249420166016" y1="19.826271057128906" x2="81.94196319580078" y2="19.826309204101562" stroke="#dd3333" stroke-width="0.25" stroke-linecap="round"/><line x1="81.33905029296875" y1="19.770580291748047" x2="81.94196319580078" y2="19.826309204101562" stroke="#dd3333" stroke-width="0.25" stroke-linecap="round"/><line x1="81.33905029296875" y1="19.770580291748047" x2="81.14203643798828" y2="19.770584106445312" stroke="#dd3333" stroke-width="0.25" stroke-linecap="round"/><line x1="80.5362548828125" y1="19.71491813659668" x2="81.14203643798828" y2="19.770584106445312" stroke="#dd3333" stroke-width="0.25" stroke-linecap="round"/><line x1="80.5362548828125" y1="19.71491813659668" x2="80.34322357177734" y2="19.714921951293945" stroke="#dd3333" stroke-width="0.25" stroke-linecap="round"/><line x1="79.73221588134766" y1="19.65921401977539" x2="80.34322357177734" y2="19.714921951293945" stroke="#dd3333" stroke-width="0.25" stroke-linecap="round"/><line x1="78.43614196777344" y1="19.603567123413086" x2="78.92967224121094" y2="19.603557586669922" stroke="#dd3333" stroke-width="0.25" stroke-linecap="round"/><line x1="79.73221588134766" y1="19.65921401977539" x2="79.54401397705078" y2="19.65923309326172" stroke="#dd3333" stroke-width="0.25" stroke-linecap="round"/><line x1="78.92967224121094" y1="19.603557586669922" x2="79.54401397705078" y2="19.65923309326172" stroke="#dd3333" stroke-width="0.25" stroke-linecap="round"/><line x1="78.43614196777344" y1="19.603567123413086" x2="78.39102172851562" y2="19.60756492614746" stroke="#dd3333" stroke-width="0.25" stroke-linecap="round"/><line x1="77.63453674316406" y1="19.607576370239258" x2="78.39102172851562" y2="19.60756492614746" stroke="#dd3333" stroke-width="0.25" stroke-linecap="round"/><line x1="77.63453674316406" y1="19.607576370239258" x2="77.58891296386719" y2="19.611591339111328" stroke="#dd3333" stroke-width="0.25" stroke-linecap="round"/><line x1="76.83338165283203" y1="19.61159896850586" x2="77.58891296386719" y2="19.611591339111328" stroke="#dd3333" stroke-width="0.25" stroke-linecap="round"/><line x1="76.83338165283203" y1="19.61159896850586" x2="76.787841796875" y2="19.615623474121094" stroke="#dd3333" stroke-width="0.25" stroke-linecap="round"/><line x1="76.0316390991211" y1="19.615610122680664" x2="76.787841796875" y2="19.615623474121094" stroke="#dd3333" stroke-width="0.25" stroke-linecap="round"/><line x1="76.0316390991211" y1="19.615610122680664" x2="75.9859390258789" y2="19.61963653564453" stroke="#dd3333" stroke-width="0.25" stroke-linecap="round"/><line x1="75.2308349609375" y1="19.619647979736328" x2="75.9859390258789" y2="19.61963653564453" stroke="#dd3333" stroke-width="0.25" stroke-linecap="round"/><line x1="75.2308349609375" y1="19.619647979736328" x2="75.18501281738281" y2="19.62366485595703" stroke="#dd3333" stroke-width="0.25" stroke-linecap="round"/><line x1="74.76923370361328" y1="19.623666763305664" x2="75.18501281738281" y2="19.62366485595703" stroke="#dd3333" stroke-width="0.25" stroke-linecap="round"/><line x1="74.76923370361328" y1="19.623666763305664" x2="74.015869140625" y2="19.689090728759766" stroke="#dd3333" stroke-width="0.25" stroke-linecap="round"/><line x1="73.97073364257812" y1="19.689071655273438" x2="74.015869140625" y2="19.689090728759766" stroke="#dd3333" stroke-width="0.25" stroke-linecap="round"/><line x1="73.97073364257812" y1="19.689071655273438" x2="73.21087646484375" y2="19.75450325012207" stroke="#dd3333" stroke-width="0.25" stroke-linecap="round"/><line x1="73.17184448242188" y1="19.754497528076172" x2="73.21087646484375" y2="19.75450325012207" stroke="#dd3333" stroke-width="0.25" stroke-linecap="round"/><line x1="73.17184448242188" y1="19.754497528076172" x2="72.4061050415039" y2="19.819915771484375" stroke="#dd3333" stroke-width="0.25" stroke-linecap="round"/><line x1="72.3729476928711" y1="19.819908142089844" x2="72.4061050415039" y2="19.819915771484375" stroke="#dd3333" stroke-width="0.25" stroke-linecap="round"/><line x1="71.1043701171875" y1="19.924909591674805" x2="71.57447814941406" y2="19.885343551635742" stroke="#dd3333" stroke-width="0.25" stroke-linecap="round"/><line x1="72.3729476928711" y1="19.819908142089844" x2="71.60185241699219" y2="19.885347366333008" stroke="#dd3333" stroke-width="0.25" stroke-linecap="round"/><line x1="71.57447814941406" y1="19.885343551635742" x2="71.60185241699219" y2="19.885347366333008" stroke="#dd3333" stroke-width="0.25" stroke-linecap="round"/><line x1="71.1043701171875" y1="19.924909591674805" x2="70.8004150390625" y2="19.976518630981445" stroke="#dd3333" stroke-width="0.25" stroke-linecap="round"/><line x1="70.30511474609375" y1="20.01810073852539" x2="70.8004150390625" y2="19.976518630981445" stroke="#dd3333" stroke-width="0.25" stroke-linecap="round"/><line x1="70.30511474609375" y1="20.01810073852539" x2="69.65821075439453" y2="20.127870559692383" stroke="#dd3333" stroke-width="0.25" stroke-linecap="round"/><line x1="69.50927734375" y1="20.140283584594727" x2="69.65821075439453" y2="20.127870559692383" stroke="#dd3333" stroke-width="0.25" stroke-linecap="round"/><line x1="69.50927734375" y1="20.140283584594727" x2="68.85054016113281" y2="20.251075744628906" stroke="#dd3333" stroke-width="0.25" stroke-linecap="round"/><line x1="68.7128677368164" y1="20.262405395507812" x2="68.85054016113281" y2="20.251075744628906" stroke="#dd3333" stroke-width="0.25" stroke-linecap="round"/><line x1="67.4013442993164" y1="20.469972610473633" x2="67.91708374023438" y2="20.384624481201172" stroke="#dd3333" stroke-width="0.25" stroke-linecap="round"/><line x1="68.7128677368164" y1="20.262405395507812" x2="68.04354095458984" y2="20.374286651611328" stroke="#dd3333" stroke-width="0.25" stroke-linecap="round"/><line x1="67.91708374023438" y1="20.384624481201172" x2="68.04354095458984" y2="20.374286651611328" stroke="#dd3333" stroke-width="0.25" stroke-linecap="round"/><line x1="67.4013442993164" y1="20.469972610473633" x2="67.23872375488281" y2="20.510982513427734" stroke="#dd3333" stroke-width="0.25" stroke-linecap="round"/><line x1="66.603759765625" y1="20.615787506103516" x2="67.23872375488281" y2="20.510982513427734" stroke="#dd3333" stroke-width="0.25" stroke-linecap="round"/><line x1="66.603759765625" y1="20.615787506103516" x2="66.43589782714844" y2="20.65801239013672" stroke="#dd3333" stroke-width="0.25" stroke-linecap="round"/><line x1="65.80606079101562" y1="20.76176643371582" x2="66.43589782714844" y2="20.65801239013672" stroke="#dd3333" stroke-width="0.25" stroke-linecap="round"/><line x1="65.80606079101562" y1="20.76176643371582" x2="65.3570556640625" y2="20.874046325683594" stroke="#dd3333" stroke-width="0.25" stroke-linecap="round"/><line x1="65.01191711425781" y1="20.930492401123047" x2="65.3570556640625" y2="20.874046325683594" stroke="#dd3333" stroke-width="0.25" stroke-linecap="round"/><line x1="65.01191711425781" y1="20.930492401123047" x2="64.54803466796875" y2="21.04578399658203" stroke="#dd3333" stroke-width="0.25" stroke-linecap="round"/><line x1="64.21784973144531" y1="21.09929847717285" x2="64.54803466796875" y2="21.04578399658203" stroke="#dd3333" stroke-width="0.25" stroke-linecap="round"/><line x1="64.21784973144531" y1="21.09929847717285" x2="63.73867416381836" y2="21.217437744140625" stroke="#dd3333" stroke-width="0.25" stroke-linecap="round"/><line x1="63.62742233276367" y1="21.23534393310547" x2="63.73867416381836" y2="21.217437744140625" stroke="#dd3333" stroke-width="0.25" stroke-linecap="round"/><line x1="63.62742233276367" y1="21.23534393310547" x2="62.933433532714844" y2="21.405725479125977" stroke="#dd3333" stroke-width="0.25" stroke-linecap="round"/><line x1="62.83176803588867" y1="21.422056198120117" x2="62.933433532714844" y2="21.405725479125977" stroke="#dd3333" stroke-width="0.25" stroke-linecap="round"/><line x1="62.83176803588867" y1="21.422056198120117" x2="62.128475189208984" y2="21.593955993652344" stroke="#dd3333" stroke-width="0.25" stroke-linecap="round"/><line x1="62.03556442260742" y1="21.60878562927246" x2="62.128475189208984" y2="21.593955993652344" stroke="#dd3333" stroke-width="0.25" stroke-linecap="round"/><line x1="62.03556442260742" y1="21.60878562927246" x2="61.24124526977539" y2="21.802297592163086" stroke="#dd3333" stroke-width="0.25" stroke-linecap="round"/><line x1="61.24124526977539" y1="21.802297592163086" x2="61.13832473754883" y2="21.8363094329834" stroke="#dd3333" stroke-width="0.25" stroke-linecap="round"/><line x1="60.44813537597656" y1="22.00308609008789" x2="61.13832473754883" y2="21.8363094329834" stroke="#dd3333" stroke-width="0.25" stroke-linecap="round"/><line x1="60.44813537597656" y1="22.00308609008789" x2="60.328125" y2="22.04243278503418" stroke="#dd3333" stroke-width="0.25" stroke-linecap="round"/><line x1="59.76189422607422" y1="22.178417205810547" x2="60.328125" y2="22.04243278503418" stroke="#dd3333" stroke-width="0.25" stroke-linecap="round"/><line x1="59.76189422607422" y1="22.178417205810547" x2="59.52058029174805" y2="22.256961822509766" stroke="#dd3333" stroke-width="0.25" stroke-linecap="round"/><line x1="58.967594146728516" y1="22.388996124267578" x2="59.52058029174805" y2="22.256961822509766" stroke="#dd3333" stroke-width="0.25" stroke-linecap="round"/><line x1="58.967594146728516" y1="22.388996124267578" x2="58.7132682800293" y2="22.471500396728516" stroke="#dd3333" stroke-width="0.25" stroke-linecap="round"/><line x1="58.173583984375" y1="22.59959602355957" x2="58.7132682800293" y2="22.471500396728516" stroke="#dd3333" stroke-width="0.25" stroke-linecap="round"/><line x1="58.173583984375" y1="22.59959602355957" x2="57.90547180175781" y2="22.686037063598633" stroke="#dd3333" stroke-width="0.25" stroke-linecap="round"/><line x1="57.37917709350586" y1="22.810319900512695" x2="57.90547180175781" y2="22.686037063598633" stroke="#dd3333" stroke-width="0.25" stroke-linecap="round"/><line x1="57.37917709350586" y1="22.810319900512695" x2="57.02198791503906" y2="22.92490577697754" stroke="#dd3333" stroke-width="0.25" stroke-linecap="round"/><line x1="56.586639404296875" y1="23.02705192565918" x2="57.02198791503906" y2="22.92490577697754" stroke="#dd3333" stroke-width="0.25" stroke-linecap="round"/><line x1="56.586639404296875" y1="23.02705192565918" x2="56.21201705932617" y2="23.14635467529297" stroke="#dd3333" stroke-width="0.25" stroke-linecap="round"/><line x1="55.79384231567383" y1="23.243810653686523" x2="56.21201705932617" y2="23.14635467529297" stroke="#dd3333" stroke-width="0.25" stroke-linecap="round"/><line x1="55.79384231567383" y1="23.243810653686523" x2="55.4019889831543" y2="23.367780685424805" stroke="#dd3333" stroke-width="0.25" stroke-linecap="round"/><line x1="55.001216888427734" y1="23.460601806640625" x2="55.4019889831543" y2="23.367780685424805" stroke="#dd3333" stroke-width="0.25" stroke-linecap="round"/><line x1="55.001216888427734" y1="23.460601806640625" x2="54.59227752685547" y2="23.589168548583984" stroke="#dd3333" stroke-width="0.25" stroke-linecap="round"/><line x1="54.20825958251953" y1="23.677448272705078" x2="54.59227752685547" y2="23.589168548583984" stroke="#dd3333" stroke-width="0.25" stroke-linecap="round"/><line x1="54.20825958251953" y1="23.677448272705078" x2="53.78214645385742" y2="23.810518264770508" stroke="#dd3333" stroke-width="0.25" stroke-linecap="round"/><line x1="53.415748596191406" y1="23.89427947998047" x2="53.78214645385742" y2="23.810518264770508" stroke="#dd3333" stroke-width="0.25" stroke-linecap="round"/><line x1="53.415748596191406" y1="23.89427947998047" x2="53.017372131347656" y2="24.01782989501953" stroke="#dd3333" stroke-width="0.25" stroke-linecap="round"/><line x1="52.622276306152344" y1="24.107667922973633" x2="53.017372131347656" y2="24.01782989501953" stroke="#dd3333" stroke-width="0.25" stroke-linecap="round"/><line x1="52.622276306152344" y1="24.107667922973633" x2="52.20867919921875" y2="24.23520851135254" stroke="#dd3333" stroke-width="0.25" stroke-linecap="round"/><line x1="51.71567916870117" y1="24.346628189086914" x2="52.20867919921875" y2="24.23520851135254" stroke="#dd3333" stroke-width="0.25" stroke-linecap="round"/><line x1="51.71567916870117" y1="24.346628189086914" x2="51.39755630493164" y2="24.443988800048828" stroke="#dd3333" stroke-width="0.25" stroke-linecap="round"/><line x1="50.92334747314453" y1="24.550426483154297" x2="51.39755630493164" y2="24.443988800048828" stroke="#dd3333" stroke-width="0.25" stroke-linecap="round"/><line x1="50.92334747314453" y1="24.550426483154297" x2="50.58627700805664" y2="24.652767181396484" stroke="#dd3333" stroke-width="0.25" stroke-linecap="round"/><line x1="50.130950927734375" y1="24.754220962524414" x2="50.58627700805664" y2="24.652767181396484" stroke="#dd3333" stroke-width="0.25" stroke-linecap="round"/><line x1="50.130950927734375" y1="24.754220962524414" x2="49.77522659301758" y2="24.861499786376953" stroke="#dd3333" stroke-width="0.25" stroke-linecap="round"/><line x1="49.338497161865234" y1="24.958017349243164" x2="49.77522659301758" y2="24.861499786376953" stroke="#dd3333" stroke-width="0.25" stroke-linecap="round"/><line x1="49.338497161865234" y1="24.958017349243164" x2="49.13853073120117" y2="25.017925262451172" stroke="#dd3333" stroke-width="0.25" stroke-linecap="round"/><line x1="48.54347229003906" y1="25.14888572692871" x2="49.13853073120117" y2="25.017925262451172" stroke="#dd3333" stroke-width="0.25" stroke-linecap="round"/><line x1="48.54347229003906" y1="25.14888572692871" x2="48.33216857910156" y2="25.211820602416992" stroke="#dd3333" stroke-width="0.25" stroke-linecap="round"/><line x1="47.52241134643555" y1="25.389251708984375" x2="48.33216857910156" y2="25.211820602416992" stroke="#dd3333" stroke-width="0.25" stroke-linecap="round"/><line x1="47.52241134643555" y1="25.389251708984375" x2="47.52132797241211" y2="25.38956642150879" stroke="#dd3333" stroke-width="0.25" stroke-linecap="round"/><line x1="46.72908401489258" y1="25.56182861328125" x2="47.52132797241211" y2="25.38956642150879" stroke="#dd3333" stroke-width="0.25" stroke-linecap="round"/><line x1="46.72908401489258" y1="25.56182861328125" x2="46.71040344238281" y2="25.567262649536133" stroke="#dd3333" stroke-width="0.25" stroke-linecap="round"/><line x1="45.935752868652344" y1="25.734466552734375" x2="46.71040344238281" y2="25.567262649536133" stroke="#dd3333" stroke-width="0.25" stroke-linecap="round"/><line x1="45.935752868652344" y1="25.734466552734375" x2="45.89970016479492" y2="25.744876861572266" stroke="#dd3333" stroke-width="0.25" stroke-linecap="round"/><line x1="45.89970016479492" y1="25.744876861572266" x2="45.39752960205078" y2="25.852375030517578" stroke="#dd3333" stroke-width="0.25" stroke-linecap="round"/><line x1="45.13933563232422" y1="25.888742446899414" x2="45.39752960205078" y2="25.852375030517578" stroke="#dd3333" stroke-width="0.25" stroke-linecap="round"/><line x1="45.13933563232422" y1="25.888742446899414" x2="44.593658447265625" y2="26.005123138427734" stroke="#dd3333" stroke-width="0.25" stroke-linecap="round"/><line x1="44.34239959716797" y1="26.040363311767578" x2="44.593658447265625" y2="26.005123138427734" stroke="#dd3333" stroke-width="0.25" stroke-linecap="round"/><line x1="44.34239959716797" y1="26.040363311767578" x2="43.78948211669922" y2="26.157928466796875" stroke="#dd3333" stroke-width="0.25" stroke-linecap="round"/><line x1="43.21452331542969" y1="26.238182067871094" x2="43.78948211669922" y2="26.157928466796875" stroke="#dd3333" stroke-width="0.25" stroke-linecap="round"/><line x1="43.21452331542969" y1="26.238182067871094" x2="42.980464935302734" y2="26.287540435791016" stroke="#dd3333" stroke-width="0.25" stroke-linecap="round"/><line x1="42.41893005371094" y1="26.365379333496094" x2="42.980464935302734" y2="26.287540435791016" stroke="#dd3333" stroke-width="0.25" stroke-linecap="round"/><line x1="42.41893005371094" y1="26.365379333496094" x2="42.17156982421875" y2="26.41720962524414" stroke="#dd3333" stroke-width="0.25" stroke-linecap="round"/><line x1="42.17156982421875" y1="26.41720962524414" x2="41.7906494140625" y2="26.469654083251953" stroke="#dd3333" stroke-width="0.25" stroke-linecap="round"/><line x1="41.62223434448242" y1="26.481094360351562" x2="41.7906494140625" y2="26.469654083251953" stroke="#dd3333" stroke-width="0.25" stroke-linecap="round"/><line x1="41.62223434448242" y1="26.481094360351562" x2="40.9887809753418" y2="26.568021774291992" stroke="#dd3333" stroke-width="0.25" stroke-linecap="round"/><line x1="40.82365417480469" y1="26.57925033569336" x2="40.9887809753418" y2="26.568021774291992" stroke="#dd3333" stroke-width="0.25" stroke-linecap="round"/><line x1="40.82365417480469" y1="26.57925033569336" x2="40.18694305419922" y2="26.66642951965332" stroke="#dd3333" stroke-width="0.25" stroke-linecap="round"/><line x1="40.024940490722656" y1="26.67740249633789" x2="40.18694305419922" y2="26.66642951965332" stroke="#dd3333" stroke-width="0.25" stroke-linecap="round"/><line x1="40.024940490722656" y1="26.67740249633789" x2="39.38526153564453" y2="26.76486587524414" stroke="#dd3333" stroke-width="0.25" stroke-linecap="round"/><line x1="38.81785583496094" y1="26.80322265625" x2="39.38526153564453" y2="26.76486587524414" stroke="#dd3333" stroke-width="0.25" stroke-linecap="round"/><line x1="38.81785583496094" y1="26.80322265625" x2="38.57957458496094" y2="26.835601806640625" stroke="#dd3333" stroke-width="0.25" stroke-linecap="round"/><line x1="38.57957458496094" y1="26.835601806640625" x2="38.288917541503906" y2="26.85506820678711" stroke="#dd3333" stroke-width="0.25" stroke-linecap="round"/><line x1="38.018733978271484" y1="26.855098724365234" x2="38.288917541503906" y2="26.85506820678711" stroke="#dd3333" stroke-width="0.25" stroke-linecap="round"/><line x1="38.018733978271484" y1="26.855098724365234" x2="37.48869323730469" y2="26.890670776367188" stroke="#dd3333" stroke-width="0.25" stroke-linecap="round"/><line x1="37.21891784667969" y1="26.890689849853516" x2="37.48869323730469" y2="26.890670776367188" stroke="#dd3333" stroke-width="0.25" stroke-linecap="round"/><line x1="37.21891784667969" y1="26.890689849853516" x2="36.68843078613281" y2="26.92629051208496" stroke="#dd3333" stroke-width="0.25" stroke-linecap="round"/><line x1="36.419166564941406" y1="26.926254272460938" x2="36.68843078613281" y2="26.92629051208496" stroke="#dd3333" stroke-width="0.25" stroke-linecap="round"/><line x1="36.419166564941406" y1="26.926254272460938" x2="35.88811492919922" y2="26.961864471435547" stroke="#dd3333" stroke-width="0.25" stroke-linecap="round"/><line x1="35.619361877441406" y1="26.96183967590332" x2="35.88811492919922" y2="26.961864471435547" stroke="#dd3333" stroke-width="0.25" stroke-linecap="round"/><line x1="35.619361877441406" y1="26.96183967590332" x2="35.087730407714844" y2="26.99744415283203" stroke="#dd3333" stroke-width="0.25" stroke-linecap="round"/><line x1="35.087730407714844" y1="26.99744415283203" x2="34.83228302001953" y2="26.99742889404297" stroke="#dd3333" stroke-width="0.25" stroke-linecap="round"/><line x1="34.38042449951172" y1="26.967226028442383" x2="34.83228302001953" y2="26.99742889404297" stroke="#dd3333" stroke-width="0.25" stroke-linecap="round"/><line x1="34.38042449951172" y1="26.967226028442383" x2="34.03224182128906" y2="26.967205047607422" stroke="#dd3333" stroke-width="0.25" stroke-linecap="round"/><line x1="33.58043670654297" y1="26.93699073791504" x2="34.03224182128906" y2="26.967205047607422" stroke="#dd3333" stroke-width="0.25" stroke-linecap="round"/><line x1="33.58043670654297" y1="26.93699073791504" x2="33.23222351074219" y2="26.937007904052734" stroke="#dd3333" stroke-width="0.25" stroke-linecap="round"/><line x1="32.78047180175781" y1="26.906780242919922" x2="33.23222351074219" y2="26.937007904052734" stroke="#dd3333" stroke-width="0.25" stroke-linecap="round"/><line x1="32.78047180175781" y1="26.906780242919922" x2="32.43224334716797" y2="26.90679931640625" stroke="#dd3333" stroke-width="0.25" stroke-linecap="round"/><line x1="31.980548858642578" y1="26.876585006713867" x2="32.43224334716797" y2="26.90679931640625" stroke="#dd3333" stroke-width="0.25" stroke-linecap="round"/><line x1="31.980548858642578" y1="26.876585006713867" x2="31.63211441040039" y2="26.87656021118164" stroke="#dd3333" stroke-width="0.25" stroke-linecap="round"/><line x1="31.63211441040039" y1="26.87656021118164" x2="31.348834991455078" y2="26.857616424560547" stroke="#dd3333" stroke-width="0.25" stroke-linecap="round"/><line x1="31.180957794189453" y1="26.834959030151367" x2="31.348834991455078" y2="26.857616424560547" stroke="#dd3333" stroke-width="0.25" stroke-linecap="round"/><line x1="31.180957794189453" y1="26.834959030151367" x2="30.5443115234375" y2="26.792112350463867" stroke="#dd3333" stroke-width="0.25" stroke-linecap="round"/><line x1="29.971073150634766" y1="26.714282989501953" x2="30.5443115234375" y2="26.792112350463867" stroke="#dd3333" stroke-width="0.25" stroke-linecap="round"/><line x1="29.971073150634766" y1="26.714282989501953" x2="29.743335723876953" y2="26.698925018310547" stroke="#dd3333" stroke-width="0.25" stroke-linecap="round"/><line x1="29.171897888183594" y1="26.621227264404297" x2="29.743335723876953" y2="26.698925018310547" stroke="#dd3333" stroke-width="0.25" stroke-linecap="round"/><line x1="29.171897888183594" y1="26.621227264404297" x2="28.94231414794922" y2="26.605735778808594" stroke="#dd3333" stroke-width="0.25" stroke-linecap="round"/><line x1="28.372737884521484" y1="26.5281982421875" x2="28.94231414794922" y2="26.605735778808594" stroke="#dd3333" stroke-width="0.25" stroke-linecap="round"/><line x1="28.372737884521484" y1="26.5281982421875" x2="28.141372680664062" y2="26.512557983398438" stroke="#dd3333" stroke-width="0.25" stroke-linecap="round"/><line x1="28.141372680664062" y1="26.512557983398438" x2="27.772930145263672" y2="26.462360382080078" stroke="#dd3333" stroke-width="0.25" stroke-linecap="round"/><line x1="27.575057983398438" y1="26.42131233215332" x2="27.772930145263672" y2="26.462360382080078" stroke="#dd3333" stroke-width="0.25" stroke-linecap="round"/><line x1="27.575057983398438" y1="26.42131233215332" x2="26.965351104736328" y2="26.337642669677734" stroke="#dd3333" stroke-width="0.25" stroke-linecap="round"/><line x1="26.779037475585938" y1="26.298763275146484" x2="26.965351104736328" y2="26.337642669677734" stroke="#dd3333" stroke-width="0.25" stroke-linecap="round"/><line x1="26.779037475585938" y1="26.298763275146484" x2="26.15776824951172" y2="26.21294403076172" stroke="#dd3333" stroke-width="0.25" stroke-linecap="round"/><line x1="25.646785736083984" y1="26.105562210083008" x2="26.15776824951172" y2="26.21294403076172" stroke="#dd3333" stroke-width="0.25" stroke-linecap="round"/><line x1="25.646785736083984" y1="26.105562210083008" x2="25.354902267456055" y2="26.06515884399414" stroke="#dd3333" stroke-width="0.25" stroke-linecap="round"/><line x1="24.84913444519043" y1="25.958589553833008" x2="25.354902267456055" y2="26.06515884399414" stroke="#dd3333" stroke-width="0.25" stroke-linecap="round"/><line x1="24.84913444519043" y1="25.958589553833008" x2="24.552017211914062" y2="25.917360305786133" stroke="#dd3333" stroke-width="0.25" stroke-linecap="round"/><line x1="23.257652282714844" y1="25.641841888427734" x2="24.05166244506836" y2="25.81069564819336" stroke="#dd3333" stroke-width="0.25" stroke-linecap="round"/><line x1="24.552017211914062" y1="25.917360305786133" x2="24.064613342285156" y2="25.81439971923828" stroke="#dd3333" stroke-width="0.25" stroke-linecap="round"/><line x1="24.05166244506836" y1="25.81069564819336" x2="24.064613342285156" y2="25.81439971923828" stroke="#dd3333" stroke-width="0.25" stroke-linecap="round"/><line x1="23.257652282714844" y1="25.641841888427734" x2="23.255170822143555" y2="25.64150047302246" stroke="#dd3333" stroke-width="0.25" stroke-linecap="round"/><line x1="22.463802337646484" y1="25.472084045410156" x2="23.255170822143555" y2="25.64150047302246" stroke="#dd3333" stroke-width="0.25" stroke-linecap="round"/><line x1="22.463802337646484" y1="25.472084045410156" x2="22.445514678955078" y2="25.469493865966797" stroke="#dd3333" stroke-width="0.25" stroke-linecap="round"/><line x1="22.445514678955078" y1="25.469493865966797" x2="21.636463165283203" y2="25.295103073120117" stroke="#dd3333" stroke-width="0.25" stroke-linecap="round"/><line x1="21.4381103515625" y1="25.23700714111328" x2="21.636463165283203" y2="25.295103073120117" stroke="#dd3333" stroke-width="0.25" stroke-linecap="round"/><line x1="21.4381103515625" y1="25.23700714111328" x2="20.831323623657227" y2="25.105716705322266" stroke="#dd3333" stroke-width="0.25" stroke-linecap="round"/><line x1="16.674488067626953" y1="28.05190658569336" x2="15.564718246459961" y2="28.85426902770996" stroke="#dd3333" stroke-width="0.25" stroke-linecap="round"/><line x1="16.674488067626953" y1="28.05190658569336" x2="16.729949951171875" y2="27.985919952392578" stroke="#dd3333" stroke-width="0.25" stroke-linecap="round"/><line x1="17.794105529785156" y1="27.21654510498047" x2="16.729949951171875" y2="27.985919952392578" stroke="#dd3333" stroke-width="0.25" stroke-linecap="round"/><line x1="17.794105529785156" y1="27.21654510498047" x2="17.895177841186523" y2="27.117584228515625" stroke="#dd3333" stroke-width="0.25" stroke-linecap="round"/><line x1="18.913705825805664" y1="26.381179809570312" x2="17.895177841186523" y2="27.117584228515625" stroke="#dd3333" stroke-width="0.25" stroke-linecap="round"/><line x1="18.913705825805664" y1="26.381179809570312" x2="19.06041717529297" y2="26.24924087524414" stroke="#dd3333" stroke-width="0.25" stroke-linecap="round"/><line x1="20.033302307128906" y1="25.54584503173828" x2="19.06041717529297" y2="26.24924087524414" stroke="#dd3333" stroke-width="0.25" stroke-linecap="round"/><line x1="20.831323623657227" y1="25.105716705322266" x2="20.671335220336914" y2="25.058670043945312" stroke="#dd3333" stroke-width="0.25" stroke-linecap="round"/><line x1="20.647207260131836" y1="25.026208877563477" x2="20.671335220336914" y2="25.058670043945312" stroke="#dd3333" stroke-width="0.25" stroke-linecap="round"/><line x1="20.033302307128906" y1="25.54584503173828" x2="20.22564697265625" y2="25.38089942932129" stroke="#dd3333" stroke-width="0.25" stroke-linecap="round"/><line x1="20.671335220336914" y1="25.058670043945312" x2="20.22564697265625" y2="25.38089942932129" stroke="#dd3333" stroke-width="0.25" stroke-linecap="round"/><line x1="20.647207260131836" y1="25.026208877563477" x2="20.204355239868164" y2="24.512557983398438" stroke="#dd3333" stroke-width="0.25" stroke-linecap="round"/><line x1="19.983259201049805" y1="24.208223342895508" x2="20.204355239868164" y2="24.512557983398438" stroke="#dd3333" stroke-width="0.25" stroke-linecap="round"/><line x1="19.983259201049805" y1="24.208223342895508" x2="19.498132705688477" y2="23.64421844482422" stroke="#dd3333" stroke-width="0.25" stroke-linecap="round"/><line x1="19.31924819946289" y1="23.39051055908203" x2="19.498132705688477" y2="23.64421844482422" stroke="#dd3333" stroke-width="0.25" stroke-linecap="round"/><line x1="19.31924819946289" y1="23.39051055908203" x2="18.79222869873047" y2="22.775875091552734" stroke="#dd3333" stroke-width="0.25" stroke-linecap="round"/><line x1="18.6551513671875" y1="22.573257446289062" x2="18.79222869873047" y2="22.775875091552734" stroke="#dd3333" stroke-width="0.25" stroke-linecap="round"/><line x1="18.6551513671875" y1="22.573257446289062" x2="18.08684730529785" y2="21.907535552978516" stroke="#dd3333" stroke-width="0.25" stroke-linecap="round"/><line x1="17.940889358520508" y1="21.67824935913086" x2="18.08684730529785" y2="21.907535552978516" stroke="#dd3333" stroke-width="0.25" stroke-linecap="round"/><line x1="17.940889358520508" y1="21.67824935913086" x2="17.39535140991211" y2="21.039194107055664" stroke="#dd3333" stroke-width="0.25" stroke-linecap="round"/><line x1="17.28853988647461" y1="20.85576629638672" x2="17.39535140991211" y2="21.039194107055664" stroke="#dd3333" stroke-width="0.25" stroke-linecap="round"/><line x1="17.28853988647461" y1="20.85576629638672" x2="16.703853607177734" y2="20.170852661132812" stroke="#dd3333" stroke-width="0.25" stroke-linecap="round"/><line x1="16.636188507080078" y1="20.033281326293945" x2="16.703853607177734" y2="20.170852661132812" stroke="#dd3333" stroke-width="0.25" stroke-linecap="round"/><line x1="15.320860862731934" y1="18.43416976928711" x2="15.98383903503418" y2="19.210796356201172" stroke="#dd3333" stroke-width="0.25" stroke-linecap="round"/><line x1="16.636188507080078" y1="20.033281326293945" x2="16.012357711791992" y2="19.30251121520996" stroke="#dd3333" stroke-width="0.25" stroke-linecap="round"/><line x1="15.98383903503418" y1="19.210796356201172" x2="16.012357711791992" y2="19.30251121520996" stroke="#dd3333" stroke-width="0.25" stroke-linecap="round"/><circle cx="113.75537872314453" cy="22.180831909179688" r="0.4" fill="#dd3333"/><circle cx="114.583251953125" cy="21.423782348632812" r="0.4" fill="#dd3333"/><circle cx="113.70323944091797" cy="22.270484924316406" r="0.4" fill="#dd3333"/><circle cx="112.92530059814453" cy="22.98151969909668" r="0.4" fill="#dd3333"/><circle cx="112.82402801513672" cy="23.118040084838867" r="0.4" fill="#dd3333"/><circle cx="112.09457397460938" cy="23.782901763916016" r="0.4" fill="#dd3333"/><circle cx="111.94322967529297" cy="23.964557647705078" r="0.4" fill="#dd3333"/><circle cx="111.2626953125" cy="24.586380004882812" r="0.4" fill="#dd3333"/><circle cx="111.0636978149414" cy="24.811416625976562" r="0.4" fill="#dd3333"/><circle cx="114.63529968261719" cy="29.046770095825195" r="0.4" fill="#dd3333"/><circle cx="113.8978271484375" cy="28.28523826599121" r="0.4" fill="#dd3333"/><circle cx="113.85923767089844" cy="28.19973373413086" r="0.4" fill="#dd3333"/><circle cx="113.16462707519531" cy="27.481067657470703" r="0.4" fill="#dd3333"/><circle cx="113.08389282226562" cy="27.352542877197266" r="0.4" fill="#dd3333"/><circle cx="112.42963409423828" cy="26.676265716552734" r="0.4" fill="#dd3333"/><circle cx="112.30892181396484" cy="26.50566291809082" r="0.4" fill="#dd3333"/><circle cx="111.69535827636719" cy="25.871557235717773" r="0.4" fill="#dd3333"/><circle cx="111.53379821777344" cy="25.658843994140625" r="0.4" fill="#dd3333"/><circle cx="110.90823364257812" cy="24.953615188598633" r="0.4" fill="#dd3333"/><circle cx="111.14859008789062" cy="25.260066986083984" r="0.4" fill="#dd3333"/><circle cx="110.38343811035156" cy="24.90186882019043" r="0.4" fill="#dd3333"/><circle cx="110.16956329345703" cy="24.85936737060547" r="0.4" fill="#dd3333"/><circle cx="109.5806655883789" cy="24.80126953125" r="0.4" fill="#dd3333"/><circle cx="109.36991882324219" cy="24.758926391601562" r="0.4" fill="#dd3333"/><circle cx="108.7784423828125" cy="24.700380325317383" r="0.4" fill="#dd3333"/><circle cx="108.5719985961914" cy="24.658756256103516" r="0.4" fill="#dd3333"/><circle cx="107.97711181640625" cy="24.599796295166016" r="0.4" fill="#dd3333"/><circle cx="107.77413940429688" cy="24.558635711669922" r="0.4" fill="#dd3333"/><circle cx="107.33790588378906" cy="24.51507568359375" r="0.4" fill="#dd3333"/><circle cx="106.97724914550781" cy="24.441787719726562" r="0.4" fill="#dd3333"/><circle cx="106.53255462646484" cy="24.397130966186523" r="0.4" fill="#dd3333"/><circle cx="105.9498519897461" cy="24.27772331237793" r="0.4" fill="#dd3333"/><circle cx="105.7303695678711" cy="24.2556095123291" r="0.4" fill="#dd3333"/><circle cx="105.15142822265625" cy="24.136598587036133" r="0.4" fill="#dd3333"/><circle cx="104.92887878417969" cy="24.11408233642578" r="0.4" fill="#dd3333"/><circle cx="104.35334777832031" cy="23.995553970336914" r="0.4" fill="#dd3333"/><circle cx="104.12659454345703" cy="23.97265625" r="0.4" fill="#dd3333"/><circle cx="103.55416870117188" cy="23.8543758392334" r="0.4" fill="#dd3333"/><circle cx="103.42058563232422" cy="23.84090805053711" r="0.4" fill="#dd3333"/><circle cx="102.75708770751953" cy="23.703292846679688" r="0.4" fill="#dd3333"/><circle cx="102.6173324584961" cy="23.68901824951172" r="0.4" fill="#dd3333"/><circle cx="101.8157730102539" cy="23.522165298461914" r="0.4" fill="#dd3333"/><circle cx="101.79842376708984" cy="23.516357421875" r="0.4" fill="#dd3333"/><circle cx="101.01595306396484" cy="23.353208541870117" r="0.4" fill="#dd3333"/><circle cx="100.99803161621094" cy="23.34749412536621" r="0.4" fill="#dd3333"/><circle cx="100.21571350097656" cy="23.184326171875" r="0.4" fill="#dd3333"/><circle cx="100.19783782958984" cy="23.17873191833496" r="0.4" fill="#dd3333"/><circle cx="99.43364715576172" cy="23.01926040649414" r="0.4" fill="#dd3333"/><circle cx="99.39940643310547" cy="23.00833511352539" r="0.4" fill="#dd3333"/><circle cx="98.6324462890625" cy="22.848142623901367" r="0.4" fill="#dd3333"/><circle cx="98.60044860839844" cy="22.837909698486328" r="0.4" fill="#dd3333"/><circle cx="97.83160400390625" cy="22.677242279052734" r="0.4" fill="#dd3333"/><circle cx="97.718505859375" cy="22.640708923339844" r="0.4" fill="#dd3333"/><circle cx="97.03273010253906" cy="22.49767303466797" r="0.4" fill="#dd3333"/><circle cx="96.9163589477539" cy="22.460445404052734" r="0.4" fill="#dd3333"/><circle cx="96.23360443115234" cy="22.318134307861328" r="0.4" fill="#dd3333"/><circle cx="96.1160888671875" cy="22.280338287353516" r="0.4" fill="#dd3333"/><circle cx="95.37297058105469" cy="22.12578582763672" r="0.4" fill="#dd3333"/><circle cx="95.3130874633789" cy="22.10659408569336" r="0.4" fill="#dd3333"/><circle cx="94.57545471191406" cy="21.95357894897461" r="0.4" fill="#dd3333"/><circle cx="94.5101318359375" cy="21.932861328125" r="0.4" fill="#dd3333"/><circle cx="93.7777099609375" cy="21.7813777923584" r="0.4" fill="#dd3333"/><circle cx="93.70751190185547" cy="21.759117126464844" r="0.4" fill="#dd3333"/><circle cx="92.98002624511719" cy="21.609325408935547" r="0.4" fill="#dd3333"/><circle cx="92.90393829345703" cy="21.585298538208008" r="0.4" fill="#dd3333"/><circle cx="91.29734802246094" cy="21.246906280517578" r="0.4" fill="#dd3333"/><circle cx="92.10120391845703" cy="21.411575317382812" r="0.4" fill="#dd3333"/><circle cx="92.18245697021484" cy="21.436981201171875" r="0.4" fill="#dd3333"/><circle cx="91.23938751220703" cy="21.24110221862793" r="0.4" fill="#dd3333"/><circle cx="90.49091339111328" cy="21.088695526123047" r="0.4" fill="#dd3333"/><circle cx="90.44408416748047" cy="21.084156036376953" r="0.4" fill="#dd3333"/><circle cx="89.77173614501953" cy="20.948453903198242" r="0.4" fill="#dd3333"/><circle cx="89.64726257324219" cy="20.936119079589844" r="0.4" fill="#dd3333"/><circle cx="88.968017578125" cy="20.799707412719727" r="0.4" fill="#dd3333"/><circle cx="88.84974670410156" cy="20.788070678710938" r="0.4" fill="#dd3333"/><circle cx="88.16492462158203" cy="20.650976181030273" r="0.4" fill="#dd3333"/><circle cx="88.05301666259766" cy="20.640047073364258" r="0.4" fill="#dd3333"/><circle cx="87.3612060546875" cy="20.502315521240234" r="0.4" fill="#dd3333"/><circle cx="87.0274658203125" cy="20.46977424621582" r="0.4" fill="#dd3333"/><circle cx="86.55126190185547" cy="20.37608528137207" r="0.4" fill="#dd3333"/><circle cx="86.23162078857422" cy="20.34520149230957" r="0.4" fill="#dd3333"/><circle cx="85.9170150756836" cy="20.283864974975586" r="0.4" fill="#dd3333"/><circle cx="85.43421173095703" cy="20.2375545501709" r="0.4" fill="#dd3333"/><circle cx="85.11399841308594" cy="20.17534828186035" r="0.4" fill="#dd3333"/><circle cx="84.63645935058594" cy="20.129867553710938" r="0.4" fill="#dd3333"/><circle cx="84.30953216552734" cy="20.066814422607422" r="0.4" fill="#dd3333"/><circle cx="83.83924865722656" cy="20.022226333618164" r="0.4" fill="#dd3333"/><circle cx="83.50550842285156" cy="19.958293914794922" r="0.4" fill="#dd3333"/><circle cx="82.14249420166016" cy="19.826271057128906" r="0.4" fill="#dd3333"/><circle cx="82.69607543945312" cy="19.87786293029785" r="0.4" fill="#dd3333"/><circle cx="82.74095153808594" cy="19.886215209960938" r="0.4" fill="#dd3333"/><circle cx="81.94196319580078" cy="19.826309204101562" r="0.4" fill="#dd3333"/><circle cx="81.33905029296875" cy="19.770580291748047" r="0.4" fill="#dd3333"/><circle cx="81.14203643798828" cy="19.770584106445312" r="0.4" fill="#dd3333"/><circle cx="80.5362548828125" cy="19.71491813659668" r="0.4" fill="#dd3333"/><circle cx="80.34322357177734" cy="19.714921951293945" r="0.4" fill="#dd3333"/><circle cx="79.73221588134766" cy="19.65921401977539" r="0.4" fill="#dd3333"/><circle cx="78.43614196777344" cy="19.603567123413086" r="0.4" fill="#dd3333"/><circle cx="78.92967224121094" cy="19.603557586669922" r="0.4" fill="#dd3333"/><circle cx="79.54401397705078" cy="19.65923309326172" r="0.4" fill="#dd3333"/><circle cx="78.39102172851562" cy="19.60756492614746" r="0.4" fill="#dd3333"/><circle cx="77.63453674316406" cy="19.607576370239258" r="0.4" fill="#dd3333"/><circle cx="77.58891296386719" cy="19.611591339111328" r="0.4" fill="#dd3333"/><circle cx="76.83338165283203" cy="19.61159896850586" r="0.4" fill="#dd3333"/><circle cx="76.787841796875" cy="19.615623474121094" r="0.4" fill="#dd3333"/><circle cx="76.0316390991211" cy="19.615610122680664" r="0.4" fill="#dd3333"/><circle cx="75.9859390258789" cy="19.61963653564453" r="0.4" fill="#dd3333"/><circle cx="75.2308349609375" cy="19.619647979736328" r="0.4" fill="#dd3333"/><circle cx="75.18501281738281" cy="19.62366485595703" r="0.4" fill="#dd3333"/><circle cx="74.76923370361328" cy="19.623666763305664" r="0.4" fill="#dd3333"/><circle cx="74.015869140625" cy="19.689090728759766" r="0.4" fill="#dd3333"/><circle cx="73.97073364257812" cy="19.689071655273438" r="0.4" fill="#dd3333"/><circle cx="73.21087646484375" cy="19.75450325012207" r="0.4" fill="#dd3333"/><circle cx="73.17184448242188" cy="19.754497528076172" r="0.4" fill="#dd3333"/><circle cx="72.4061050415039" cy="19.819915771484375" r="0.4" fill="#dd3333"/><circle cx="72.3729476928711" cy="19.819908142089844" r="0.4" fill="#dd3333"/><circle cx="71.1043701171875" cy="19.924909591674805" r="0.4" fill="#dd3333"/><circle cx="71.57447814941406" cy="19.885343551635742" r="0.4" fill="#dd3333"/><circle cx="71.60185241699219" cy="19.885347366333008" r="0.4" fill="#dd3333"/><circle cx="70.8004150390625" cy="19.976518630981445" r="0.4" fill="#dd3333"/><circle cx="70.30511474609375" cy="20.01810073852539" r="0.4" fill="#dd3333"/><circle cx="69.65821075439453" cy="20.127870559692383" r="0.4" fill="#dd3333"/><circle cx="69.50927734375" cy="20.140283584594727" r="0.4" fill="#dd3333"/><circle cx="68.85054016113281" cy="20.251075744628906" r="0.4" fill="#dd3333"/><circle cx="68.7128677368164" cy="20.262405395507812" r="0.4" fill="#dd3333"/><circle cx="67.4013442993164" cy="20.469972610473633" r="0.4" fill="#dd3333"/><circle cx="67.91708374023438" cy="20.384624481201172" r="0.4" fill="#dd3333"/><circle cx="68.04354095458984" cy="20.374286651611328" r="0.4" fill="#dd3333"/><circle cx="67.23872375488281" cy="20.510982513427734" r="0.4" fill="#dd3333"/><circle cx="66.603759765625" cy="20.615787506103516" r="0.4" fill="#dd3333"/><circle cx="66.43589782714844" cy="20.65801239013672" r="0.4" fill="#dd3333"/><circle cx="65.80606079101562" cy="20.76176643371582" r="0.4" fill="#dd3333"/><circle cx="65.3570556640625" cy="20.874046325683594" r="0.4" fill="#dd3333"/><circle cx="65.01191711425781" cy="20.930492401123047" r="0.4" fill="#dd3333"/><circle cx="64.54803466796875" cy="21.04578399658203" r="0.4" fill="#dd3333"/><circle cx="64.21784973144531" cy="21.09929847717285" r="0.4" fill="#dd3333"/><circle cx="63.73867416381836" cy="21.217437744140625" r="0.4" fill="#dd3333"/><circle cx="63.62742233276367" cy="21.23534393310547" r="0.4" fill="#dd3333"/><circle cx="62.933433532714844" cy="21.405725479125977" r="0.4" fill="#dd3333"/><circle cx="62.83176803588867" cy="21.422056198120117" r="0.4" fill="#dd3333"/><circle cx="62.128475189208984" cy="21.593955993652344" r="0.4" fill="#dd3333"/><circle cx="62.03556442260742" cy="21.60878562927246" r="0.4" fill="#dd3333"/><circle cx="61.24124526977539" cy="21.802297592163086" r="0.4" fill="#dd3333"/><circle cx="61.13832473754883" cy="21.8363094329834" r="0.4" fill="#dd3333"/><circle cx="60.44813537597656" cy="22.00308609008789" r="0.4" fill="#dd3333"/><circle cx="60.328125" cy="22.04243278503418" r="0.4" fill="#dd3333"/><circle cx="59.76189422607422" cy="22.178417205810547" r="0.4" fill="#dd3333"/><circle cx="59.52058029174805" cy="22.256961822509766" r="0.4" fill="#dd3333"/><circle cx="58.967594146728516" cy="22.388996124267578" r="0.4" fill="#dd3333"/><circle cx="58.7132682800293" cy="22.471500396728516" r="0.4" fill="#dd3333"/><circle cx="58.173583984375" cy="22.59959602355957" r="0.4" fill="#dd3333"/><circle cx="57.90547180175781" cy="22.686037063598633" r="0.4" fill="#dd3333"/><circle cx="57.37917709350586" cy="22.810319900512695" r="0.4" fill="#dd3333"/><circle cx="57.02198791503906" cy="22.92490577697754" r="0.4" fill="#dd3333"/><circle cx="56.586639404296875" cy="23.02705192565918" r="0.4" fill="#dd3333"/><circle cx="56.21201705932617" cy="23.14635467529297" r="0.4" fill="#dd3333"/><circle cx="55.79384231567383" cy="23.243810653686523" r="0.4" fill="#dd3333"/><circle cx="55.4019889831543" cy="23.367780685424805" r="0.4" fill="#dd3333"/><circle cx="55.001216888427734" cy="23.460601806640625" r="0.4" fill="#dd3333"/><circle cx="54.59227752685547" cy="23.589168548583984" r="0.4" fill="#dd3333"/><circle cx="54.20825958251953" cy="23.677448272705078" r="0.4" fill="#dd3333"/><circle cx="53.78214645385742" cy="23.810518264770508" r="0.4" fill="#dd3333"/><circle cx="53.415748596191406" cy="23.89427947998047" r="0.4" fill="#dd3333"/><circle cx="53.017372131347656" cy="24.01782989501953" r="0.4" fill="#dd3333"/><circle cx="52.622276306152344" cy="24.107667922973633" r="0.4" fill="#dd3333"/><circle cx="52.20867919921875" cy="24.23520851135254" r="0.4" fill="#dd3333"/><circle cx="51.71567916870117" cy="24.346628189086914" r="0.4" fill="#dd3333"/><circle cx="51.39755630493164" cy="24.443988800048828" r="0.4" fill="#dd3333"/><circle cx="50.92334747314453" cy="24.550426483154297" r="0.4" fill="#dd3333"/><circle cx="50.58627700805664" cy="24.652767181396484" r="0.4" fill="#dd3333"/><circle cx="50.130950927734375" cy="24.754220962524414" r="0.4" fill="#dd3333"/><circle cx="49.77522659301758" cy="24.861499786376953" r="0.4" fill="#dd3333"/><circle cx="49.338497161865234" cy="24.958017349243164" r="0.4" fill="#dd3333"/><circle cx="49.13853073120117" cy="25.017925262451172" r="0.4" fill="#dd3333"/><circle cx="48.54347229003906" cy="25.14888572692871" r="0.4" fill="#dd3333"/><circle cx="48.33216857910156" cy="25.211820602416992" r="0.4" fill="#dd3333"/><circle cx="47.52241134643555" cy="25.389251708984375" r="0.4" fill="#dd3333"/><circle cx="47.52132797241211" cy="25.38956642150879" r="0.4" fill="#dd3333"/><circle cx="46.72908401489258" cy="25.56182861328125" r="0.4" fill="#dd3333"/><circle cx="46.71040344238281" cy="25.567262649536133" r="0.4" fill="#dd3333"/><circle cx="45.935752868652344" cy="25.734466552734375" r="0.4" fill="#dd3333"/><circle cx="45.89970016479492" cy="25.744876861572266" r="0.4" fill="#dd3333"/><circle cx="45.39752960205078" cy="25.852375030517578" r="0.4" fill="#dd3333"/><circle cx="45.13933563232422" cy="25.888742446899414" r="0.4" fill="#dd3333"/><circle cx="44.593658447265625" cy="26.005123138427734" r="0.4" fill="#dd3333"/><circle cx="44.34239959716797" cy="26.040363311767578" r="0.4" fill="#dd3333"/><circle cx="43.78948211669922" cy="26.157928466796875" r="0.4" fill="#dd3333"/><circle cx="43.21452331542969" cy="26.238182067871094" r="0.4" fill="#dd3333"/><circle cx="42.980464935302734" cy="26.287540435791016" r="0.4" fill="#dd3333"/><circle cx="42.41893005371094" cy="26.365379333496094" r="0.4" fill="#dd3333"/><circle cx="42.17156982421875" cy="26.41720962524414" r="0.4" fill="#dd3333"/><circle cx="41.7906494140625" cy="26.469654083251953" r="0.4" fill="#dd3333"/><circle cx="41.62223434448242" cy="26.481094360351562" r="0.4" fill="#dd3333"/><circle cx="40.9887809753418" cy="26.568021774291992" r="0.4" fill="#dd3333"/><circle cx="40.82365417480469" cy="26.57925033569336" r="0.4" fill="#dd3333"/><circle cx="40.18694305419922" cy="26.66642951965332" r="0.4" fill="#dd3333"/><circle cx="40.024940490722656" cy="26.67740249633789" r="0.4" fill="#dd3333"/><circle cx="39.38526153564453" cy="26.76486587524414" r="0.4" fill="#dd3333"/><circle cx="38.81785583496094" cy="26.80322265625" r="0.4" fill="#dd3333"/><circle cx="38.57957458496094" cy="26.835601806640625" r="0.4" fill="#dd3333"/><circle cx="38.288917541503906" cy="26.85506820678711" r="0.4" fill="#dd3333"/><circle cx="38.018733978271484" cy="26.855098724365234" r="0.4" fill="#dd3333"/><circle cx="37.48869323730469" cy="26.890670776367188" r="0.4" fill="#dd3333"/><circle cx="37.21891784667969" cy="26.890689849853516" r="0.4" fill="#dd3333"/><circle cx="36.68843078613281" cy="26.92629051208496" r="0.4" fill="#dd3333"/><circle cx="36.419166564941406" cy="26.926254272460938" r="0.4" fill="#dd3333"/><circle cx="35.88811492919922" cy="26.961864471435547" r="0.4" fill="#dd3333"/><circle cx="35.619361877441406" cy="26.96183967590332" r="0.4" fill="#dd3333"/><circle cx="35.087730407714844" cy="26.99744415283203" r="0.4" fill="#dd3333"/><circle cx="34.83228302001953" cy="26.99742889404297" r="0.4" fill="#dd3333"/><circle cx="34.38042449951172" cy="26.967226028442383" r="0.4" fill="#dd3333"/><circle cx="34.03224182128906" cy="26.967205047607422" r="0.4" fill="#dd3333"/><circle cx="33.58043670654297" cy="26.93699073791504" r="0.4" fill="#dd3333"/><circle cx="33.23222351074219" cy="26.937007904052734" r="0.4" fill="#dd3333"/><circle cx="32.78047180175781" cy="26.906780242919922" r="0.4" fill="#dd3333"/><circle cx="32.43224334716797" cy="26.90679931640625" r="0.4" fill="#dd3333"/><circle cx="31.980548858642578" cy="26.876585006713867" r="0.4" fill="#dd3333"/><circle cx="31.63211441040039" cy="26.87656021118164" r="0.4" fill="#dd3333"/><circle cx="31.348834991455078" cy="26.857616424560547" r="0.4" fill="#dd3333"/><circle cx="31.180957794189453" cy="26.834959030151367" r="0.4" fill="#dd3333"/><circle cx="30.5443115234375" cy="26.792112350463867" r="0.4" fill="#dd3333"/><circle cx="29.971073150634766" cy="26.714282989501953" r="0.4" fill="#dd3333"/><circle cx="29.743335723876953" cy="26.698925018310547" r="0.4" fill="#dd3333"/><circle cx="29.171897888183594" cy="26.621227264404297" r="0.4" fill="#dd3333"/><circle cx="28.94231414794922" cy="26.605735778808594" r="0.4" fill="#dd3333"/><circle cx="28.372737884521484" cy="26.5281982421875" r="0.4" fill="#dd3333"/><circle cx="28.141372680664062" cy="26.512557983398438" r="0.4" fill="#dd3333"/><circle cx="27.772930145263672" cy="26.462360382080078" r="0.4" fill="#dd3333"/><circle cx="27.575057983398438" cy="26.42131233215332" r="0.4" fill="#dd3333"/><circle cx="26.965351104736328" cy="26.337642669677734" r="0.4" fill="#dd3333"/><circle cx="26.779037475585938" cy="26.298763275146484" r="0.4" fill="#dd3333"/><circle cx="26.15776824951172" cy="26.21294403076172" r="0.4" fill="#dd3333"/><circle cx="25.646785736083984" cy="26.105562210083008" r="0.4" fill="#dd3333"/><circle cx="25.354902267456055" cy="26.06515884399414" r="0.4" fill="#dd3333"/><circle cx="24.84913444519043" cy="25.958589553833008" r="0.4" fill="#dd3333"/><circle cx="24.552017211914062" cy="25.917360305786133" r="0.4" fill="#dd3333"/><circle cx="23.257652282714844" cy="25.641841888427734" r="0.4" fill="#dd3333"/><circle cx="24.05166244506836" cy="25.81069564819336" r="0.4" fill="#dd3333"/><circle cx="24.064613342285156" cy="25.81439971923828" r="0.4" fill="#dd3333"/><circle cx="23.255170822143555" cy="25.64150047302246" r="0.4" fill="#dd3333"/><circle cx="22.463802337646484" cy="25.472084045410156" r="0.4" fill="#dd3333"/><circle cx="22.445514678955078" cy="25.469493865966797" r="0.4" fill="#dd3333"/><circle cx="21.636463165283203" cy="25.295103073120117" r="0.4" fill="#dd3333"/><circle cx="21.4381103515625" cy="25.23700714111328" r="0.4" fill="#dd3333"/><circle cx="20.831323623657227" cy="25.105716705322266" r="0.4" fill="#dd3333"/><circle cx="16.674488067626953" cy="28.05190658569336" r="0.4" fill="#dd3333"/><circle cx="15.564718246459961" cy="28.85426902770996" r="0.4" fill="#dd3333"/><circle cx="16.729949951171875" cy="27.985919952392578" r="0.4" fill="#dd3333"/><circle cx="17.794105529785156" cy="27.21654510498047" r="0.4" fill="#dd3333"/><circle cx="17.895177841186523" cy="27.117584228515625" r="0.4" fill="#dd3333"/><circle cx="18.913705825805664" cy="26.381179809570312" r="0.4" fill="#dd3333"/><circle cx="19.06041717529297" cy="26.24924087524414" r="0.4" fill="#dd3333"/><circle cx="20.033302307128906" cy="25.54584503173828" r="0.4" fill="#dd3333"/><circle cx="20.671335220336914" cy="25.058670043945312" r="0.4" fill="#dd3333"/><circle cx="20.647207260131836" cy="25.026208877563477" r="0.4" fill="#dd3333"/><circle cx="20.22564697265625" cy="25.38089942932129" r="0.4" fill="#dd3333"/><circle cx="20.204355239868164" cy="24.512557983398438" r="0.4" fill="#dd3333"/><circle cx="19.983259201049805" cy="24.208223342895508" r="0.4" fill="#dd3333"/><circle cx="19.498132705688477" cy="23.64421844482422" r="0.4" fill="#dd3333"/><circle cx="19.31924819946289" cy="23.39051055908203" r="0.4" fill="#dd3333"/><circle cx="18.79222869873047" cy="22.775875091552734" r="0.4" fill="#dd3333"/><circle cx="18.6551513671875" cy="22.573257446289062" r="0.4" fill="#dd3333"/><circle cx="18.08684730529785" cy="21.907535552978516" r="0.4" fill="#dd3333"/><circle cx="17.940889358520508" cy="21.67824935913086" r="0.4" fill="#dd3333"/><circle cx="17.39535140991211" cy="21.039194107055664" r="0.4" fill="#dd3333"/><circle cx="17.28853988647461" cy="20.85576629638672" r="0.4" fill="#dd3333"/><circle cx="16.703853607177734" cy="20.170852661132812" r="0.4" fill="#dd3333"/><circle cx="16.636188507080078" cy="20.033281326293945" r="0.4" fill="#dd3333"/><circle cx="15.320860862731934" cy="18.43416976928711" r="0.4" fill="#dd3333"/><circle cx="15.98383903503418" cy="19.210796356201172" r="0.4" fill="#dd3333"/><circle cx="16.012357711791992" cy="19.30251121520996" r="0.4" fill="#dd3333"/></svg>