<svg xmlns="http://www.w3.org/2000/svg" width="130" height="47" viewBox="0 0 130 47"><path fill="#e8edff" stroke="#4466aa" stroke-width="0.3" d="M15,18 L19,18.927051544189453 L23,19.763355255126953 L27,20.427051544189453 L31,20.85317039489746 L35,21 L39,20.853168487548828 L43,20.427051544189453 L47,19.763355255126953 L51,18.92704963684082 L55,18 L59,17.072948455810547 L63,16.236644744873047 L67,15.572949409484863 L71,15.146830558776855 L75,15 L79,15.146830558776855 L83,15.572949409484863 L87,16.236644744873047 L91,17.072948455810547 L95,18 L99,18.92704963684082 L103,19.763357162475586 L107,20.427051544189453 L111,20.85317039489746 L115,21 L115,29.470314025878906 L111,29.10915184020996 L107,28.53048324584961 L103,27.781423568725586 L99,26.929964065551758 L95,26.058509826660156 L91,25.255830764770508 L87,24.6082706451416 L83,24.19100570678711 L79,24.06027603149414 L75,24.24732208251953 L71,24.754695892333984 L67,25.55525016784668 L63,26.594005584716797 L59,27.792713165283203 L55,29.05666732788086 L51,30.283187866210938 L47,31.370922088623047 L43,32.22909927368164 L39,32.785858154296875 L35,32.99486541748047 L31,32.83953857421875 L27,32.334556579589844 L23,31.52442741394043 L19,30.479297637939453 L15,29.288434982299805 Z"/><line x1="98.15849304199219" y1="22.745285034179688" x2="95.8040542602539" y2="22.215999603271484" stroke="#dd3333" stroke-width="0.75" stroke-linecap="round"/><line x1="98.15849304199219" y1="22.745285034179688" x2="99.82462310791016" y2="23.100948333740234" stroke="#dd3333" stroke-width="0.75" stroke-linecap="round"/><line x1="95.8040542602539" y1="22.215999603271484" x2="94.10787963867188" y2="21.84934425354004" stroke="#dd3333" stroke-width="0.75" stroke-linecap="round"/><line x1="99.82462310791016" y1="23.100948333740234" x2="102.27749633789062" y2="23.618431091308594" stroke="#dd3333" stroke-width="0.75" stroke-linecap="round"/><line x1="94.10787963867188" y1="21.84934425354004" x2="91.71117401123047" y2="21.33125877380371" stroke="#dd3333" stroke-width="0.75" stroke-linecap="round"/><line x1="102.27749633789062" y1="23.618431091308594" x2="103.77599334716797" y2="23.90208625793457" stroke="#dd3333" stroke-width="0.75" stroke-linecap="round"/><line x1="91.71117401123047" y1="21.33125877380371" x2="90.13002014160156" y2="21.020408630371094" stroke="#dd3333" stroke-width="0.75" stroke-linecap="round"/><line x1="103.77599334716797" y1="23.90208625793457" x2="106.46245574951172" y2="24.376447677612305" stroke="#dd3333" stroke-width="0.75" stroke-linecap="round"/><line x1="90.13002014160156" y1="21.020408630371094" x2="87.541015625" y2="20.540451049804688" stroke="#dd3333" stroke-width="0.75" stroke-linecap="round"/><line x1="106.46245574951172" y1="24.376447677612305" x2="107.65998840332031" y2="24.552082061767578" stroke="#dd3333" stroke-width="0.75" stroke-linecap="round"/><line x1="87.541015625" y1="20.540451049804688" x2="86.23175811767578" y2="20.335844039916992" stroke="#dd3333" stroke-width="0.75" stroke-linecap="round"/><line x1="107.65998840332031" y1="24.552082061767578" x2="110.7080307006836" y2="24.93477439880371" stroke="#dd3333" stroke-width="0.75" stroke-linecap="round"/><line x1="86.23175811767578" y1="20.335844039916992" x2="83.29090118408203" y2="19.938846588134766" stroke="#dd3333" stroke-width="0.75" stroke-linecap="round"/><line x1="111.41780090332031" y1="25.550111770629883" x2="110.90011596679688" y2="24.952144622802734" stroke="#dd3333" stroke-width="0.75" stroke-linecap="round"/><line x1="110.7080307006836" y1="24.93477439880371" x2="110.90011596679688" y2="24.952144622802734" stroke="#dd3333" stroke-width="0.75" stroke-linecap="round"/><line x1="83.29090118408203" y1="19.938846588134766" x2="82.41751098632812" y2="19.852495193481445" stroke="#dd3333" stroke-width="0.75" stroke-linecap="round"/><line x1="82.41751098632812" y1="19.852495193481445" x2="78.96873474121094" y2="19.612762451171875" stroke="#dd3333" stroke-width="0.75" stroke-linecap="round"/><line x1="78.96873474121094" y1="19.612762451171875" x2="78.68115234375" y2="19.604219436645508" stroke="#dd3333" stroke-width="0.75" stroke-linecap="round"/><line x1="78.68115234375" y1="19.604219436645508" x2="75" y2="19.62269401550293" stroke="#dd3333" stroke-width="0.75" stroke-linecap="round"/><line x1="75" y1="19.62269401550293" x2="74.60064697265625" y2="19.639360427856445" stroke="#dd3333" stroke-width="0.75" stroke-linecap="round"/><line x1="74.60064697265625" y1="19.639360427856445" x2="71.34039306640625" y2="19.905431747436523" stroke="#dd3333" stroke-width="0.75" stroke-linecap="round"/><line x1="71.34039306640625" y1="19.905431747436523" x2="70.22938537597656" y2="20.035057067871094" stroke="#dd3333" stroke-width="0.75" stroke-linecap="round"/><line x1="70.22938537597656" y1="20.035057067871094" x2="67.66082763671875" y2="20.42806625366211" stroke="#dd3333" stroke-width="0.75" stroke-linecap="round"/><line x1="67.66082763671875" y1="20.42806625366211" x2="65.89634704589844" y2="20.75092887878418" stroke="#dd3333" stroke-width="0.75" stroke-linecap="round"/><line x1="65.89634704589844" y1="20.75092887878418" x2="63.924530029296875" y2="21.169662475585938" stroke="#dd3333" stroke-width="0.75" stroke-linecap="round"/><line x1="63.924530029296875" y1="21.169662475585938" x2="61.63350296020508" y2="21.706314086914062" stroke="#dd3333" stroke-width="0.75" stroke-linecap="round"/><line x1="61.63350296020508" y1="21.706314086914062" x2="60.10660171508789" y2="22.09397315979004" stroke="#dd3333" stroke-width="0.75" stroke-linecap="round"/><line x1="60.10660171508789" y1="22.09397315979004" x2="57.46192932128906" y2="22.79595947265625" stroke="#dd3333" stroke-width="0.75" stroke-linecap="round"/><line x1="57.46192932128906" y1="22.79595947265625" x2="56.19199752807617" y2="23.143190383911133" stroke="#dd3333" stroke-width="0.75" stroke-linecap="round"/><line x1="56.19199752807617" y1="23.143190383911133" x2="53.39702606201172" y2="23.907405853271484" stroke="#dd3333" stroke-width="0.75" stroke-linecap="round"/><line x1="53.39702606201172" y1="23.907405853271484" x2="52.17032241821289" y2="24.237197875976562" stroke="#dd3333" stroke-width="0.75" stroke-linecap="round"/><line x1="52.17032241821289" y1="24.237197875976562" x2="49.45363998413086" y2="24.936145782470703" stroke="#dd3333" stroke-width="0.75" stroke-linecap="round"/><line x1="49.45363998413086" y1="24.936145782470703" x2="48.03342056274414" y2="25.277395248413086" stroke="#dd3333" stroke-width="0.75" stroke-linecap="round"/><line x1="20.473033905029297" y1="25.207406997680664" x2="20.663251876831055" y2="25.060503005981445" stroke="#dd3333" stroke-width="0.75" stroke-linecap="round"/><line x1="18.29153060913086" y1="22.141630172729492" x2="20.663251876831055" y2="25.060503005981445" stroke="#dd3333" stroke-width="0.75" stroke-linecap="round"/><line x1="20.663251876831055" y1="25.060503005981445" x2="21.950529098510742" y2="25.363048553466797" stroke="#dd3333" stroke-width="0.75" stroke-linecap="round"/><line x1="48.03342056274414" y1="25.277395248413086" x2="45.64569091796875" y2="25.798738479614258" stroke="#dd3333" stroke-width="0.75" stroke-linecap="round"/><line x1="45.64569091796875" y1="25.798738479614258" x2="43.7794303894043" y2="26.153562545776367" stroke="#dd3333" stroke-width="0.75" stroke-linecap="round"/><line x1="21.950529098510742" y1="25.363048553466797" x2="24.311115264892578" y2="25.86618423461914" stroke="#dd3333" stroke-width="0.75" stroke-linecap="round"/><line x1="24.311115264892578" y1="25.86618423461914" x2="26.212034225463867" y2="26.21627426147461" stroke="#dd3333" stroke-width="0.75" stroke-linecap="round"/><line x1="43.7794303894043" y1="26.153562545776367" x2="41.97785186767578" y2="26.44196319580078" stroke="#dd3333" stroke-width="0.75" stroke-linecap="round"/><line x1="41.97785186767578" y1="26.44196319580078" x2="39.42223358154297" y2="26.755863189697266" stroke="#dd3333" stroke-width="0.75" stroke-linecap="round"/><line x1="26.212034225463867" y1="26.21627426147461" x2="27.960113525390625" y2="26.485801696777344" stroke="#dd3333" stroke-width="0.75" stroke-linecap="round"/><line x1="27.960113525390625" y1="26.485801696777344" x2="30.575279235839844" y2="26.790145874023438" stroke="#dd3333" stroke-width="0.75" stroke-linecap="round"/><line x1="39.42223358154297" y1="26.755863189697266" x2="38.43217468261719" y2="26.84271240234375" stroke="#dd3333" stroke-width="0.75" stroke-linecap="round"/><line x1="30.575279235839844" y1="26.790145874023438" x2="31.492218017578125" y2="26.864704132080078" stroke="#dd3333" stroke-width="0.75" stroke-linecap="round"/><line x1="38.43217468261719" y1="26.84271240234375" x2="35" y2="26.995361328125" stroke="#dd3333" stroke-width="0.75" stroke-linecap="round"/><line x1="31.492218017578125" y1="26.864704132080078" x2="34.95983123779297" y2="26.99567413330078" stroke="#dd3333" stroke-width="0.75" stroke-linecap="round"/><line x1="35" y1="26.995361328125" x2="34.95983123779297" y2="26.99567413330078" stroke="#dd3333" stroke-width="0.75" stroke-linecap="round"/><circle cx="15" cy="18" r="0.4" fill="#dd3333"/><circle cx="18.29153060913086" cy="22.141630172729492" r="0.4" fill="#dd3333"/><circle cx="19" cy="18.927051544189453" r="0.4" fill="#dd3333"/><circle cx="115" cy="29.470314025878906" r="0.4" fill="#dd3333"/><circle cx="111.41780090332031" cy="25.550111770629883" r="0.4" fill="#dd3333"/><circle cx="111" cy="29.10915184020996" r="0.4" fill="#dd3333"/><circle cx="99" cy="18.92704963684082" r="0.4" fill="#dd3333"/><circle cx="98.15849304199219" cy="22.745285034179688" r="0.4" fill="#dd3333"/><circle cx="95" cy="26.058509826660156" r="0.4" fill="#dd3333"/><circle cx="95.8040542602539" cy="22.215999603271484" r="0.4" fill="#dd3333"/><circle cx="99" cy="26.929964065551758" r="0.4" fill="#dd3333"/><circle cx="99.82462310791016" cy="23.100948333740234" r="0.4" fill="#dd3333"/><circle cx="95" cy="18" r="0.4" fill="#dd3333"/><circle cx="94.10787963867188" cy="21.84934425354004" r="0.4" fill="#dd3333"/><circle cx="103" cy="19.763357162475586" r="0.4" fill="#dd3333"/><circle cx="102.27749633789062" cy="23.618431091308594" r="0.4" fill="#dd3333"/><circle cx="91" cy="25.255830764770508" r="0.4" fill="#dd3333"/><circle cx="91.71117401123047" cy="21.33125877380371" r="0.4" fill="#dd3333"/><circle cx="103" cy="27.781423568725586" r="0.4" fill="#dd3333"/><circle cx="103.77599334716797" cy="23.90208625793457" r="0.4" fill="#dd3333"/><circle cx="91" cy="17.072948455810547" r="0.4" fill="#dd3333"/><circle cx="90.13002014160156" cy="21.020408630371094" r="0.4" fill="#dd3333"/><circle cx="107" cy="20.427051544189453" r="0.4" fill="#dd3333"/><circle cx="106.46245574951172" cy="24.376447677612305" r="0.4" fill="#dd3333"/><circle cx="87" cy="24.6082706451416" r="0.4" fill="#dd3333"/><circle cx="87.541015625" cy="20.540451049804688" r="0.4" fill="#dd3333"/><circle cx="107" cy="28.53048324584961" r="0.4" fill="#dd3333"/><circle cx="107.65998840332031" cy="24.552082061767578" r="0.4" fill="#dd3333"/><circle cx="87" cy="16.236644744873047" r="0.4" fill="#dd3333"/><circle cx="86.23175811767578" cy="20.335844039916992" r="0.4" fill="#dd3333"/><circle cx="111" cy="20.85317039489746" r="0.4" fill="#dd3333"/><circle cx="110.7080307006836" cy="24.93477439880371" r="0.4" fill="#dd3333"/><circle cx="83" cy="24.19100570678711" r="0.4" fill="#dd3333"/><circle cx="83.29090118408203" cy="19.938846588134766" r="0.4" fill="#dd3333"/><circle cx="110.90011596679688" cy="24.952144622802734" r="0.4" fill="#dd3333"/><circle cx="115" cy="21" r="0.4" fill="#dd3333"/><circle cx="83" cy="15.572949409484863" r="0.4" fill="#dd3333"/><circle cx="82.41751098632812" cy="19.852495193481445" r="0.4" fill="#dd3333"/><circle cx="79" cy="24.06027603149414" r="0.4" fill="#dd3333"/><circle cx="78.96873474121094" cy="19.612762451171875" r="0.4" fill="#dd3333"/><circle cx="79" cy="15.146830558776855" r="0.4" fill="#dd3333"/><circle cx="78.68115234375" cy="19.604219436645508" r="0.4" fill="#dd3333"/><circle cx="75" cy="15" r="0.4" fill="#dd3333"/><circle cx="75" cy="19.62269401550293" r="0.4" fill="#dd3333"/><circle cx="75" cy="24.24732208251953" r="0.4" fill="#dd3333"/><circle cx="74.60064697265625" cy="19.639360427856445" r="0.4" fill="#dd3333"/><circle cx="71" cy="15.146830558776855" r="0.4" fill="#dd3333"/><circle cx="71.34039306640625" cy="19.905431747436523" r="0.4" fill="#dd3333"/><circle cx="71" cy="24.754695892333984" r="0.4" fill="#dd3333"/><circle cx="70.22938537597656" cy="20.035057067871094" r="0.4" fill="#dd3333"/><circle cx="67" cy="15.572949409484863" r="0.4" fill="#dd3333"/><circle cx="67.66082763671875" cy="20.42806625366211" r="0.4" fill="#dd3333"/><circle cx="67" cy="25.55525016784668" r="0.4" fill="#dd3333"/><circle cx="65.89634704589844" cy="20.75092887878418" r="0.4" fill="#dd3333"/><circle cx="63" cy="16.236644744873047" r="0.4" fill="#dd3333"/><circle cx="63.924530029296875" cy="21.169662475585938" r="0.4" fill="#dd3333"/><circle cx="63" cy="26.594005584716797" r="0.4" fill="#dd3333"/><circle cx="61.63350296020508" cy="21.706314086914062" r="0.4" fill="#dd3333"/><circle cx="59" cy="17.072948455810547" r="0.4" fill="#dd3333"/><circle cx="60.10660171508789" cy="22.09397315979004" r="0.4" fill="#dd3333"/><circle cx="59" cy="27.792713165283203" r="0.4" fill="#dd3333"/><circle cx="57.46192932128906" cy="22.79595947265625" r="0.4" fill="#dd3333"/><circle cx="55" cy="18" r="0.4" fill="#dd3333"/><circle cx="56.19199752807617" cy="23.143190383911133" r="0.4" fill="#dd3333"/><circle cx="55" cy="29.05666732788086" r="0.4" fill="#dd3333"/><circle cx="53.39702606201172" cy="23.907405853271484" r="0.4" fill="#dd3333"/><circle cx="51" cy="18.92704963684082" r="0.4" fill="#dd3333"/><circle cx="52.17032241821289" cy="24.237197875976562" r="0.4" fill="#dd3333"/><circle cx="19" cy="30.479297637939453" r="0.4" fill="#dd3333"/><circle cx="20.473033905029297" cy="25.207406997680664" r="0.4" fill="#dd3333"/><circle cx="15" cy="29.288434982299805" r="0.4" fill="#dd3333"/><circle cx="49.45363998413086" cy="24.936145782470703" r="0.4" fill="#dd3333"/><circle cx="51" cy="30.283187866210938" r="0.4" fill="#dd3333"/><circle cx="47" cy="19.763355255126953" r="0.4" fill="#dd3333"/><circle cx="48.03342056274414" cy="25.277395248413086" r="0.4" fill="#dd3333"/><circle cx="20.663251876831055" cy="25.060503005981445" r="0.4" fill="#dd3333"/><circle cx="23" cy="19.763355255126953" r="0.4" fill="#dd3333"/><circle cx="21.950529098510742" cy="25.363048553466797" r="0.4" fill="#dd3333"/><circle cx="45.64569091796875" cy="25.798738479614258" r="0.4" fill="#dd3333"/><circle cx="47" cy="31.370922088623047" r="0.4" fill="#dd3333"/><circle cx="43" cy="20.427051544189453" r="0.4" fill="#dd3333"/><circle cx="43.7794303894043" cy="26.153562545776367" r="0.4" fill="#dd3333"/><circle cx="23" cy="31.52442741394043" r="0.4" fill="#dd3333"/><circle cx="24.311115264892578" cy="25.86618423461914" r="0.4" fill="#dd3333"/><circle cx="27" cy="20.427051544189453" r="0.4" fill="#dd3333"/><circle cx="26.212034225463867" cy="26.21627426147461" r="0.4" fill="#dd3333"/><circle cx="41.97785186767578" cy="26.44196319580078" r="0.4" fill="#dd3333"/><circle cx="43" cy="32.22909927368164" r="0.4" fill="#dd3333"/><circle cx="39" cy="20.853168487548828" r="0.4" fill="#dd3333"/><circle cx="39.42223358154297" cy="26.755863189697266" r="0.4" fill="#dd3333"/><circle cx="27" cy="32.334556579589844" r="0.4" fill="#dd3333"/><circle cx="27.960113525390625" cy="26.485801696777344" r="0.4" fill="#dd3333"/><circle cx="31" cy="20.85317039489746" r="0.4" fill="#dd3333"/><circle cx="30.575279235839844" cy="26.790145874023438" r="0.4" fill="#dd3333"/><circle cx="38.43217468261719" cy="26.84271240234375" r="0.4" fill="#dd3333"/><circle cx="39" cy="32.785858154296875" r="0.4" fill="#dd3333"/><circle cx="31" cy="32.83953857421875" r="0.4" fill="#dd3333"/><circle cx="31.492218017578125" cy="26.864704132080078" r="0.4" fill="#dd3333"/><circle cx="35" cy="21" r="0.4" fill="#dd3333"/><circle cx="35" cy="26.995361328125" r="0.4" fill="#dd3333"/><circle cx="34.95983123779297" cy="26.99567413330078" r="0.4" fill="#dd3333"/><circle cx="35" cy="32.99486541748047" r="0.4" fill="#dd3333"/><line x1="15" y1="18" x2="18.29153060913086" y2="22.141630172729492" stroke="#bbbbbb" stroke-width="0.25" stroke-linecap="round"/><line x1="19" y1="18.927051544189453" x2="18.29153060913086" y2="22.141630172729492" stroke="#bbbbbb" stroke-width="0.25" stroke-linecap="round"/><line x1="115" y1="29.470314025878906" x2="111.41780090332031" y2="25.550111770629883" stroke="#bbbbbb" stroke-width="0.25" stroke-linecap="round"/><line x1="111" y1="29.10915184020996" x2="111.41780090332031" y2="25.550111770629883" stroke="#bbbbbb" stroke-width="0.25" stroke-linecap="round"/><line x1="99" y1="18.92704963684082" x2="98.15849304199219" y2="22.745285034179688" stroke="#bbbbbb" stroke-width="0.25" stroke-linecap="round"/><line x1="95" y1="26.058509826660156" x2="95.8040542602539" y2="22.215999603271484" stroke="#bbbbbb" stroke-width="0.25" stroke-linecap="round"/><line x1="99" y1="26.929964065551758" x2="99.82462310791016" y2="23.100948333740234" stroke="#bbbbbb" stroke-width="0.25" stroke-linecap="round"/><line x1="95" y1="18" x2="94.10787963867188" y2="21.84934425354004" stroke="#bbbbbb" stroke-width="0.25" stroke-linecap="round"/><line x1="103" y1="19.763357162475586" x2="102.27749633789062" y2="23.618431091308594" stroke="#bbbbbb" stroke-width="0.25" stroke-linecap="round"/><line x1="91" y1="25.255830764770508" x2="91.71117401123047" y2="21.33125877380371" stroke="#bbbbbb" stroke-width="0.25" stroke-linecap="round"/><line x1="103" y1="27.781423568725586" x2="103.77599334716797" y2="23.90208625793457" stroke="#bbbbbb" stroke-width="0.25" stroke-linecap="round"/><line x1="91" y1="17.072948455810547" x2="90.13002014160156" y2="21.020408630371094" stroke="#bbbbbb" stroke-width="0.25" stroke-linecap="round"/><line x1="107" y1="20.427051544189453" x2="106.46245574951172" y2="24.376447677612305" stroke="#bbbbbb" stroke-width="0.25" stroke-linecap="round"/><line x1="87" y1="24.6082706451416" x2="87.541015625" y2="20.540451049804688" stroke="#bbbbbb" stroke-width="0.25" stroke-linecap="round"/><line x1="107" y1="28.53048324584961" x2="107.65998840332031" y2="24.552082061767578" stroke="#bbbbbb" stroke-width="0.25" stroke-linecap="round"/><line x1="87" y1="16.236644744873047" x2="86.23175811767578" y2="20.335844039916992" stroke="#bbbbbb" stroke-width="0.25" stroke-linecap="round"/><line x1="111" y1="20.85317039489746" x2="110.7080307006836" y2="24.93477439880371" stroke="#bbbbbb" stroke-width="0.25" stroke-linecap="round"/><line x1="83" y1="24.19100570678711" x2="83.29090118408203" y2="19.938846588134766" stroke="#bbbbbb" stroke-width="0.25" stroke-linecap="round"/><line x1="115" y1="21" x2="110.90011596679688" y2="24.952144622802734" stroke="#bbbbbb" stroke-width="0.25" stroke-linecap="round"/><line x1="83" y1="15.572949409484863" x2="82.41751098632812" y2="19.852495193481445" stroke="#bbbbbb" stroke-width="0.25" stroke-linecap="round"/><line x1="79" y1="24.06027603149414" x2="78.96873474121094" y2="19.612762451171875" stroke="#bbbbbb" stroke-width="0.25" stroke-linecap="round"/><line x1="79" y1="15.146830558776855" x2="78.68115234375" y2="19.604219436645508" stroke="#bbbbbb" stroke-width="0.25" stroke-linecap="round"/><line x1="75" y1="15" x2="75" y2="19.62269401550293" stroke="#bbbbbb" stroke-width="0.25" stroke-linecap="round"/><line x1="75" y1="24.24732208251953" x2="74.60064697265625" y2="19.639360427856445" stroke="#bbbbbb" stroke-width="0.25" stroke-linecap="round"/><line x1="71" y1="15.146830558776855" x2="71.34039306640625" y2="19.905431747436523" stroke="#bbbbbb" stroke-width="0.25" stroke-linecap="round"/><line x1="71" y1="24.754695892333984" x2="70.22938537597656" y2="20.035057067871094" stroke="#bbbbbb" stroke-width="0.25" stroke-linecap="round"/><line x1="67" y1="15.572949409484863" x2="67.66082763671875" y2="20.42806625366211" stroke="#bbbbbb" stroke-width="0.25" stroke-linecap="round"/><line x1="67" y1="25.55525016784668" x2="65.89634704589844" y2="20.75092887878418" stroke="#bbbbbb" stroke-width="0.25" stroke-linecap="round"/><line x1="63" y1="16.236644744873047" x2="63.924530029296875" y2="21.169662475585938" stroke="#bbbbbb" stroke-width="0.25" stroke-linecap="round"/><line x1="63" y1="26.594005584716797" x2="61.63350296020508" y2="21.706314086914062" stroke="#bbbbbb" stroke-width="0.25" stroke-linecap="round"/><line x1="59" y1="17.072948455810547" x2="60.10660171508789" y2="22.09397315979004" stroke="#bbbbbb" stroke-width="0.25" stroke-linecap="round"/><line x1="59" y1="27.792713165283203" x2="57.46192932128906" y2="22.79595947265625" stroke="#bbbbbb" stroke-width="0.25" stroke-linecap="round"/><line x1="55" y1="18" x2="56.19199752807617" y2="23.143190383911133" stroke="#bbbbbb" stroke-width="0.25" stroke-linecap="round"/><line x1="55" y1="29.05666732788086" x2="53.39702606201172" y2="23.907405853271484" stroke="#bbbbbb" stroke-width="0.25" stroke-linecap="round"/><line x1="51" y1="18.92704963684082" x2="52.17032241821289" y2="24.237197875976562" stroke="#bbbbbb" stroke-width="0.25" stroke-linecap="round"/><line x1="19" y1="30.479297637939453" x2="20.473033905029297" y2="25.207406997680664" stroke="#bbbbbb" stroke-width="0.25" stroke-linecap="round"/><line x1="15" y1="29.288434982299805" x2="20.473033905029297" y2="25.207406997680664" stroke="#bbbbbb" stroke-width="0.25" stroke-linecap="round"/><line x1="51" y1="30.283187866210938" x2="49.45363998413086" y2="24.936145782470703" stroke="#bbbbbb" stroke-width="0.25" stroke-linecap="round"/><line x1="47" y1="19.763355255126953" x2="48.03342056274414" y2="25.277395248413086" stroke="#bbbbbb" stroke-width="0.25" stroke-linecap="round"/><line x1="23" y1="19.763355255126953" x2="21.950529098510742" y2="25.363048553466797" stroke="#bbbbbb" stroke-width="0.25" stroke-linecap="round"/><line x1="47" y1="31.370922088623047" x2="45.64569091796875" y2="25.798738479614258" stroke="#bbbbbb" stroke-width="0.25" stroke-linecap="round"/><line x1="43" y1="20.427051544189453" x2="43.7794303894043" y2="26.153562545776367" stroke="#bbbbbb" stroke-width="0.25" stroke-linecap="round"/><line x1="23" y1="31.52442741394043" x2="24.311115264892578" y2="25.86618423461914" stroke="#bbbbbb" stroke-width="0.25" stroke-linecap="round"/><line x1="27" y1="20.427051544189453" x2="26.212034225463867" y2="26.21627426147461" stroke="#bbbbbb" stroke-width="0.25" stroke-linecap="round"/><line x1="43" y1="32.22909927368164" x2="41.97785186767578" y2="26.44196319580078" stroke="#bbbbbb" stroke-width="0.25" stroke-linecap="round"/><line x1="39" y1="20.853168487548828" x2="39.42223358154297" y2="26.755863189697266" stroke="#bbbbbb" stroke-width="0.25" stroke-linecap="round"/><line x1="27" y1="32.334556579589844" x2="27.960113525390625" y2="26.485801696777344" stroke="#bbbbbb" stroke-width="0.25" stroke-linecap="round"/><line x1="31" y1="20.85317039489746" x2="30.575279235839844" y2="26.790145874023438" stroke="#bbbbbb" stroke-width="0.25" stroke-linecap="round"/><line x1="39" y1="32.785858154296875" x2="38.43217468261719" y2="26.84271240234375" stroke="#bbbbbb" stroke-width="0.25" stroke-linecap="round"/><line x1="31" y1="32.83953857421875" x2="31.492218017578125" y2="26.864704132080078" stroke="#bbbbbb" stroke-width="0.25" stroke-linecap="round"/><line x1="35" y1="21" x2="35" y2="26.995361328125" stroke="#bbbbbb" stroke-width="0.25" stroke-linecap="round"/><line x1="35" y1="32.99486541748047" x2="34.95983123779297" y2="26.99567413330078" stroke="#bbbbbb" stroke-width="0.25" stroke-linecap="round"/><circle cx="15" cy="18" r="0.4" fill="#bbbbbb"/><circle cx="18.29153060913086" cy="22.141630172729492" r="0.4" fill="#bbbbbb"/><circle cx="19" cy="18.927051544189453" r="0.4" fill="#bbbbbb"/><circle cx="115" cy="29.470314025878906" r="0.4" fill="#bbbbbb"/><circle cx="111.41780090332031" cy="25.550111770629883" r="0.4" fill="#bbbbbb"/><circle cx="111" cy="29.10915184020996" r="0.4" fill="#bbbbbb"/><circle cx="99" cy="18.92704963684082" r="0.4" fill="#bbbbbb"/><circle cx="98.15849304199219" cy="22.745285034179688" r="0.4" fill="#bbbbbb"/><circle cx="95" cy="26.058509826660156" r="0.4" fill="#bbbbbb"/><circle cx="95.8040542602539" cy="22.215999603271484" r="0.4" fill="#bbbbbb"/><circle cx="99" cy="26.929964065551758" r="0.4" fill="#bbbbbb"/><circle cx="99.82462310791016" cy="23.100948333740234" r="0.4" fill="#bbbbbb"/><circle cx="95" cy="18" r="0.4" fill="#bbbbbb"/><circle cx="94.10787963867188" cy="21.84934425354004" r="0.4" fill="#bbbbbb"/><circle cx="103" cy="19.763357162475586" r="0.4" fill="#bbbbbb"/><circle cx="102.27749633789062" cy="23.618431091308594" r="0.4" fill="#bbbbbb"/><circle cx="91" cy="25.255830764770508" r="0.4" fill="#bbbbbb"/><circle cx="91.71117401123047" cy="21.33125877380371" r="0.4" fill="#bbbbbb"/><circle cx="103" cy="27.781423568725586" r="0.4" fill="#bbbbbb"/><circle cx="103.77599334716797" cy="23.90208625793457" r="0.4" fill="#bbbbbb"/><circle cx="91" cy="17.072948455810547" r="0.4" fill="#bbbbbb"/><circle cx="90.13002014160156" cy="21.020408630371094" r="0.4" fill="#bbbbbb"/><circle cx="107" cy="20.427051544189453" r="0.4" fill="#bbbbbb"/><circle cx="106.46245574951172" cy="24.376447677612305" r="0.4" fill="#bbbbbb"/><circle cx="87" cy="24.6082706451416" r="0.4" fill="#bbbbbb"/><circle cx="87.541015625" cy="20.540451049804688" r="0.4" fill="#bbbbbb"/><circle cx="107" cy="28.53048324584961" r="0.4" fill="#bbbbbb"/><circle cx="107.65998840332031" cy="24.552082061767578" r="0.4" fill="#bbbbbb"/><circle cx="87" cy="16.236644744873047" r="0.4" fill="#bbbbbb"/><circle cx="86.23175811767578" cy="20.335844039916992" r="0.4" fill="#bbbbbb"/><circle cx="111" cy="20.85317039489746" r="0.4" fill="#bbbbbb"/><circle cx="110.7080307006836" cy="24.93477439880371" r="0.4" fill="#bbbbbb"/><circle cx="83" cy="24.19100570678711" r="0.4" fill="#bbbbbb"/><circle cx="83.29090118408203" cy="19.938846588134766" r="0.4" fill="#bbbbbb"/><circle cx="110.90011596679688" cy="24.952144622802734" r="0.4" fill="#bbbbbb"/><circle cx="115" cy="21" r="0.4" fill="#bbbbbb"/><circle cx="83" cy="15.572949409484863" r="0.4" fill="#bbbbbb"/><circle cx="82.41751098632812" cy="19.852495193481445" r="0.4" fill="#bbbbbb"/><circle cx="79" cy="24.06027603149414" r="0.4" fill="#bbbbbb"/><circle cx="78.96873474121094" cy="19.612762451171875" r="0.4" fill="#bbbbbb"/><circle cx="79" cy="15.146830558776855" r="0.4" fill="#bbbbbb"/><circle cx="78.68115234375" cy="19.604219436645508" r="0.4" fill="#bbbbbb"/><circle cx="75" cy="15" r="0.4" fill="#bbbbbb"/><circle cx="75" cy="19.62269401550293" r="0.4" fill="#bbbbbb"/><circle cx="75" cy="24.24732208251953" r="0.4" fill="#bbbbbb"/><circle cx="74.60064697265625" cy="19.639360427856445" r="0.4" fill="#bbbbbb"/><circle cx="71" cy="15.146830558776855" r="0.4" fill="#bbbbbb"/><circle cx="71.34039306640625" cy="19.905431747436523" r="0.4" fill="#bbbbbb"/><circle cx="71" cy="24.754695892333984" r="0.4" fill="#bbbbbb"/><circle cx="70.22938537597656" cy="20.035057067871094" r="0.4" fill="#bbbbbb"/><circle cx="67" cy="15.572949409484863" r="0.4" fill="#bbbbbb"/><circle cx="67.66082763671875" cy="20.42806625366211" r="0.4" fill="#bbbbbb"/><circle cx="67" cy="25.55525016784668" r="0.4" fill="#bbbbbb"/><circle cx="65.89634704589844" cy="20.75092887878418" r="0.4" fill="#bbbbbb"/><circle cx="63" cy="16.236644744873047" r="0.4" fill="#bbbbbb"/><circle cx="63.924530029296875" cy="21.169662475585938" r="0.4" fill="#bbbbbb"/><circle cx="63" cy="26.594005584716797" r="0.4" fill="#bbbbbb"/><circle cx="61.63350296020508" cy="21.706314086914062" r="0.4" fill="#bbbbbb"/><circle cx="59" cy="17.072948455810547" r="0.4" fill="#bbbbbb"/><circle cx="60.10660171508789" cy="22.09397315979004" r="0.4" fill="#bbbbbb"/><circle cx="59" cy="27.792713165283203" r="0.4" fill="#bbbbbb"/><circle cx="57.46192932128906" cy="22.79595947265625" r="0.4" fill="#bbbbbb"/><circle cx="55" cy="18" r="0.4" fill="#bbbbbb"/><circle cx="56.19199752807617" cy="23.143190383911133" r="0.4" fill="#bbbbbb"/><circle cx="55" cy="29.05666732788086" r="0.4" fill="#bbbbbb"/><circle cx="53.39702606201172" cy="23.907405853271484" r="0.4" fill="#bbbbbb"/><circle cx="51" cy="18.92704963684082" r="0.4" fill="#bbbbbb"/><circle cx="52.17032241821289" cy="24.237197875976562" r="0.4" fill="#bbbbbb"/><circle cx="19" cy="30.479297637939453" r="0.4" fill="#bbbbbb"/><circle cx="20.473033905029297" cy="25.207406997680664" r="0.4" fill="#bbbbbb"/><circle cx="15" cy="29.288434982299805" r="0.4" fill="#bbbbbb"/><circle cx="49.45363998413086" cy="24.936145782470703" r="0.4" fill="#bbbbbb"/><circle cx="51" cy="30.283187866210938" r="0.4" fill="#bbbbbb"/><circle cx="47" cy="19.763355255126953" r="0.4" fill="#bbbbbb"/><circle cx="48.03342056274414" cy="25.277395248413086" r="0.4" fill="#bbbbbb"/><circle cx="20.663251876831055" cy="25.060503005981445" r="0.4" fill="#bbbbbb"/><circle cx="23" cy="19.763355255126953" r="0.4" fill="#bbbbbb"/><circle cx="21.950529098510742" cy="25.363048553466797" r="0.4" fill="#bbbbbb"/><circle cx="45.64569091796875" cy="25.798738479614258" r="0.4" fill="#bbbbbb"/><circle cx="47" cy="31.370922088623047" r="0.4" fill="#bbbbbb"/><circle cx="43" cy="20.427051544189453" r="0.4" fill="#bbbbbb"/><circle cx="43.7794303894043" cy="26.153562545776367" r="0.4" fill="#bbbbbb"/><circle cx="23" cy="31.52442741394043" r="0.4" fill="#bbbbbb"/><circle cx="24.311115264892578" cy="25.86618423461914" r="0.4" fill="#bbbbbb"/><circle cx="27" cy="20.427051544189453" r="0.4" fill="#bbbbbb"/><circle cx="26.212034225463867" cy="26.21627426147461" r="0.4" fill="#bbbbbb"/><circle cx="41.97785186767578" cy="26.44196319580078" r="0.4" fill="#bbbbbb"/><circle cx="43" cy="32.22909927368164" r="0.4" fill="#bbbbbb"/><circle cx="39" cy="20.853168487548828" r="0.4" fill="#bbbbbb"/><circle cx="39.42223358154297" cy="26.755863189697266" r="0.4" fill="#bbbbbb"/><circle cx="27" cy="32.334556579589844" r="0.4" fill="#bbbbbb"/><circle cx="27.960113525390625" cy="26.485801696777344" r="0.4" fill="#bbbbbb"/><circle cx="31" cy="20.85317039489746" r="0.4" fill="#bbbbbb"/><circle cx="30.575279235839844" cy="26.790145874023438" r="0.4" fill="#bbbbbb"/><circle cx="38.43217468261719" cy="26.84271240234375" r="0.4" fill="#bbbbbb"/><circle cx="39" cy="32.785858154296875" r="0.4" fill="#bbbbbb"/><circle cx="31" cy="32.83953857421875" r="0.4" fill="#bbbbbb"/><circle cx="31.492218017578125" cy="26.864704132080078" r="0.4" fill="#bbbbbb"/><circle cx="35" cy="21" r="0.4" fill="#bbbbbb"/><circle cx="35" cy="26.995361328125" r="0.4" fill="#bbbbbb"/><circle cx="34.95983123779297" cy="26.99567413330078" r="0.4" fill="#bbbbbb"/><circle cx="35" cy="32.99486541748047" r="0.4" fill="#bbbbbb"/></svg>