<svg xmlns="http://www.w3.org/2000/svg" width="130" height="45" viewBox="0 0 130 45"><path fill="#e8edff" stroke="#4466aa" stroke-width="0.3" d="M19.99105453491211,17.281557083129883 L20.419626235961914,16.972721099853516 L20.84819793701172,16.971004486083984 L21.276769638061523,17.216930389404297 L21.705341339111328,17.01200294494629 L22.133913040161133,17.076290130615234 L22.562484741210938,17.361324310302734 L22.99105453491211,17.2425594329834 L23.419628143310547,17.047330856323242 L23.84819793701172,17.408462524414062 L24.276769638061523,17.101303100585938 L24.705341339111328,17.124067306518555 L25.1339111328125,17.282472610473633 L25.562484741210938,17.1810245513916 L25.99105453491211,17.227596282958984 L26.419628143310547,17.165668487548828 L26.84819793701172,17.330896377563477 L27.276771545410156,17.05293083190918 L27.705341339111328,17.531963348388672 L28.133913040161133,17.4019775390625 L28.562484741210938,17.306774139404297 L28.99105453491211,17.172697067260742 L29.419628143310547,17.149003982543945 L29.84819793701172,17.532054901123047 L30.276769638061523,17.613170623779297 L30.705341339111328,17.462417602539062 L31.1339111328125,17.18036651611328 L31.562484741210938,17.596481323242188 L31.99105453491211,17.27481460571289 L32.41962814331055,17.746707916259766 L32.84819793701172,17.635791778564453 L33.276771545410156,17.547771453857422 L33.70534133911133,17.367843627929688 L34.1339111328125,17.29940414428711 L34.56248474121094,17.478267669677734 L34.99105453491211,17.66244125366211 L35.41962814331055,17.824697494506836 L35.84819793701172,17.354236602783203 L36.276771545410156,17.693363189697266 L36.70534133911133,17.875333786010742 L37.1339111328125,17.861724853515625 L37.56248474121094,17.664093017578125 L37.99105453491211,17.5435791015625 L38.41962814331055,17.490745544433594 L38.84819793701172,17.52641487121582 L39.276771545410156,17.98564910888672 L39.70534133911133,17.913333892822266 L40.1339111328125,17.62725830078125 L40.56248474121094,17.72866439819336 L40.99105453491211,18.062475204467773 L41.41962814331055,17.79285430908203 L41.84819793701172,18.027740478515625 L42.276771545410156,17.744434356689453 L42.70534133911133,17.703922271728516 L43.133914947509766,18.05845832824707 L43.56248474121094,18.023237228393555 L43.991058349609375,17.76154327392578 L44.41962814331055,18.000015258789062 L44.84819793701172,18.18777084350586 L45.276771545410156,18.156164169311523 L45.70534133911133,17.924596786499023 L46.133914947509766,17.815052032470703 L46.56248474121094,18.03883171081543 L46.99105453491211,17.991844177246094 L47.41962814331055,17.8831787109375 L47.84819793701172,18.282390594482422 L48.27676773071289,17.902402877807617 L48.70534133911133,18.14543914794922 L49.133914947509766,17.880094528198242 L49.56248474121094,18.35614585876465 L49.99105453491211,18.14419937133789 L50.41962814331055,18.190624237060547 L50.84819793701172,18.18267822265625 L51.27676773071289,17.88719940185547 L51.70534133911133,18.37651252746582 L52.1339111328125,17.882770538330078 L52.56248474121094,17.871103286743164 L52.99105453491211,17.90011978149414 L53.41962814331055,18.245283126831055 L53.84819793701172,17.862777709960938 L54.27676773071289,18.377710342407227 L54.70534133911133,18.372806549072266 L55.1339111328125,18.076217651367188 L55.56248474121094,18.00701904296875 L55.99105453491211,18.132333755493164 L56.41962814331055,17.767810821533203 L56.84819793701172,17.941801071166992 L57.27676773071289,17.778486251831055 L57.70534133911133,17.928970336914062 L58.1339111328125,18.113847732543945 L58.56248474121094,17.92781639099121 L58.99105453491211,17.816999435424805 L59.41962814331055,17.721466064453125 L59.84819793701172,18.052162170410156 L60.27676773071289,17.822948455810547 L60.70534133911133,17.873424530029297 L61.1339111328125,17.40386390686035 L61.56248474121094,17.8795166015625 L61.99105453491211,17.88188362121582 L62.41962432861328,17.46227264404297 L62.84819793701172,17.642864227294922 L63.27676773071289,17.26636505126953 L63.70534133911133,17.182022094726562 L64.1339111328125,17.34136962890625 L64.56248474121094,17.21878433227539 L64.99105834960938,17.432144165039062 L65.41963195800781,17.002206802368164 L65.84819793701172,16.939525604248047 L66.27677154541016,16.932849884033203 L66.7053451538086,17.102388381958008 L67.13391876220703,16.998310089111328 L67.56248474121094,17.225400924682617 L67.99105834960938,17.03495979309082 L68.41962432861328,16.920040130615234 L68.84820556640625,16.88701629638672 L69.27677154541016,16.57270622253418 L69.7053451538086,16.67107391357422 L70.1339111328125,16.874496459960938 L70.56248474121094,16.611906051635742 L70.99105834960938,16.176895141601562 L71.41963195800781,16.310829162597656 L71.84819793701172,16.602603912353516 L72.27677154541016,16.003509521484375 L72.7053451538086,16.061710357666016 L73.13391876220703,16.032459259033203 L73.56248474121094,15.840414047241211 L73.99105834960938,15.892044067382812 L74.41962432861328,16.063838958740234 L74.84819793701172,15.90896224975586 L75.27677154541016,15.660310745239258 L75.7053451538086,16.149946212768555 L76.1339111328125,15.577933311462402 L76.56248474121094,15.521554946899414 L76.99105834960938,15.605151176452637 L77.41963195800781,15.562905311584473 L77.84819793701172,15.777398109436035 L78.27677154541016,15.782276153564453 L78.7053451538086,15.254343032836914 L79.13391876220703,15.238463401794434 L79.56248474121094,15.684057235717773 L79.99105834960938,15.686178207397461 L80.41963195800781,15.26279067993164 L80.84820556640625,15.649487495422363 L81.27677154541016,15.577320098876953 L81.7053451538086,15.216861724853516 L82.1339111328125,15.358174324035645 L82.56248474121094,15.396219253540039 L82.99105834960938,15.378150939941406 L83.41963195800781,15.108671188354492 L83.84820556640625,15.164937973022461 L84.27677154541016,15.092713356018066 L84.7053451538086,15 L85.13391876220703,15.123212814331055 L85.56248474121094,15.550359725952148 L85.99105834960938,15.591471672058105 L86.41963195800781,15.479902267456055 L86.84820556640625,15.107149124145508 L87.27677154541016,15.574352264404297 L87.7053451538086,15.17784309387207 L88.1339111328125,15.267388343811035 L88.56248474121094,15.454427719116211 L88.99105834960938,15.483254432678223 L89.41963195800781,15.611278533935547 L89.84819793701172,15.294353485107422 L90.27677154541016,15.620621681213379 L90.7053451538086,15.540178298950195 L91.13391876220703,15.880497932434082 L91.56248474121094,15.668506622314453 L91.99105834960938,15.663030624389648 L92.41963195800781,16.087810516357422 L92.84820556640625,15.845949172973633 L93.27677154541016,15.954538345336914 L93.7053451538086,16.261001586914062 L94.1339111328125,16.2447566986084 L94.56248474121094,15.904239654541016 L94.99105834960938,15.96273136138916 L95.41963195800781,15.973419189453125 L95.84819793701172,16.156402587890625 L96.27677154541016,16.689132690429688 L96.7053451538086,16.636642456054688 L97.13391876220703,16.528472900390625 L97.56248474121094,16.72376251220703 L97.99105834960938,16.69412612915039 L98.41962432861328,16.615373611450195 L98.84820556640625,17.174453735351562 L99.27677154541016,17.29522132873535 L99.7053451538086,17.341106414794922 L100.1339111328125,17.001174926757812 L100.56248474121094,17.18950843811035 L100.99105834960938,17.406702041625977 L101.41963195800781,17.543609619140625 L101.84819793701172,17.832489013671875 L102.27677154541016,17.85356330871582 L102.7053451538086,17.901683807373047 L103.13391876220703,17.714569091796875 L103.56248474121094,17.842716217041016 L103.99105834960938,18.046422958374023 L104.41962432861328,18.305152893066406 L104.84819793701172,18.061548233032227 L105.27677154541016,18.53581428527832 L105.7053451538086,18.490266799926758 L106.1339111328125,18.292659759521484 L106.56248474121094,18.43105125427246 L106.99105834960938,18.486125946044922 L107.41963195800781,18.931663513183594 L107.84819793701172,18.896060943603516 L108.27677154541016,18.63962173461914 L108.7053451538086,18.91907501220703 L109.13391876220703,19.223724365234375 L109.56248474121094,19.340051651000977 L109.99105834960938,19.34796905517578 L110.39402770996094,17.060516357421875 L110.79402160644531,17.110958099365234 L111.15594482421875,17.328582763671875 L111.57237243652344,17.313919067382812 L111.95834350585938,17.431251525878906 L112.21418762207031,17.817564010620117 L112.61727142333984,17.895103454589844 L112.87906646728516,18.205690383911133 L113.26445770263672,18.34803009033203 L113.52678680419922,18.644968032836914 L113.84060668945312,18.89286994934082 L113.94174194335938,19.31035614013672 L114.33253479003906,19.520233154296875 L114.40542602539062,19.931461334228516 L114.6163330078125,20.26483917236328 L114.8093032836914,20.615148544311523 L114.76551818847656,21.034446716308594 L114.93833923339844,21.397119522094727 L115.06196594238281,21.78160285949707 L115.01557922363281,22.180692672729492 L114.88549041748047,22.565893173217773 L115.05831909179688,22.98326873779297 L114.72230529785156,23.316564559936523 L114.61956787109375,23.684587478637695 L114.53131103515625,24.06132698059082 L114.39628601074219,24.425268173217773 L114.17023468017578,24.741697311401367 L113.9854965209961,25.08282470703125 L113.74076843261719,25.383249282836914 L113.6076431274414,25.797273635864258 L113.23246002197266,25.975887298583984 L112.9066162109375,26.193618774414062 L112.59630584716797,26.43207359313965 L112.29688262939453,26.706134796142578 L111.92314147949219,26.84514808654785 L111.58243560791016,27.078445434570312 L111.14817810058594,27.000455856323242 L110.78996276855469,27.224782943725586 L110.37891387939453,27.108848571777344 L109.99105834960938,27.592735290527344 L109.56248474121094,28.069866180419922 L109.13391876220703,27.887224197387695 L108.7053451538086,27.923372268676758 L108.27677154541016,27.812076568603516 L107.84819793701172,28.177440643310547 L107.41963195800781,27.674591064453125 L106.99105834960938,27.933547973632812 L106.56248474121094,28.202299118041992 L106.1339111328125,27.88397216796875 L105.7053451538086,28.27027130126953 L105.27677154541016,28.26910400390625 L104.84819793701172,28.295658111572266 L104.41962432861328,27.791475296020508 L103.99105834960938,27.980186462402344 L103.56248474121094,28.16813087463379 L103.13391876220703,27.849117279052734 L102.7053451538086,28.389474868774414 L102.27677154541016,28.117630004882812 L101.84819793701172,28.291913986206055 L101.41963195800781,28.29339027404785 L100.99105834960938,28.503677368164062 L100.56248474121094,28.102191925048828 L100.1339111328125,28.49915313720703 L99.7053451538086,28.3951416015625 L99.27677154541016,27.969968795776367 L98.84820556640625,28.162139892578125 L98.41962432861328,28.356739044189453 L97.99105834960938,27.991159439086914 L97.56248474121094,28.37842559814453 L97.13391876220703,28.280399322509766 L96.7053451538086,28.184619903564453 L96.27677154541016,28.16865348815918 L95.84819793701172,28.0883846282959 L95.41963195800781,28.313549041748047 L94.99105834960938,28.32807159423828 L94.56248474121094,28.294748306274414 L94.1339111328125,28.11233139038086 L93.7053451538086,28.304182052612305 L93.27677154541016,27.948793411254883 L92.84820556640625,27.952707290649414 L92.41963195800781,28.356887817382812 L91.99105834960938,28.004175186157227 L91.56248474121094,28.393388748168945 L91.13391876220703,27.991291046142578 L90.7053451538086,27.753459930419922 L90.27677154541016,28.07135009765625 L89.84819793701172,27.903127670288086 L89.41963195800781,27.75271987915039 L88.99105834960938,27.73444175720215 L88.56248474121094,27.974180221557617 L88.1339111328125,27.614418029785156 L87.7053451538086,28.075902938842773 L87.27677154541016,27.57517433166504 L86.84820556640625,27.816852569580078 L86.41963195800781,27.497394561767578 L85.99105834960938,27.716350555419922 L85.56248474121094,27.674327850341797 L85.13391876220703,27.749364852905273 L84.7053451538086,27.39548110961914 L84.27677154541016,27.49834442138672 L83.84820556640625,27.328067779541016 L83.41963195800781,27.277360916137695 L82.99105834960938,27.081279754638672 L82.56248474121094,27.381181716918945 L82.1339111328125,27.18133544921875 L81.7053451538086,27.112194061279297 L81.27677154541016,27.133167266845703 L80.84820556640625,26.916187286376953 L80.41963195800781,27.001087188720703 L79.99105834960938,27.131546020507812 L79.56248474121094,26.902751922607422 L79.13391876220703,26.55782127380371 L78.7053451538086,26.546833038330078 L78.27677154541016,26.621728897094727 L77.84819793701172,26.72277069091797 L77.41963195800781,26.588895797729492 L76.99105834960938,26.300872802734375 L76.56248474121094,26.402320861816406 L76.1339111328125,26.438426971435547 L75.7053451538086,26.197717666625977 L75.27677154541016,26.460712432861328 L74.84819793701172,26.10875129699707 L74.41962432861328,26.265098571777344 L73.99105834960938,25.71707534790039 L73.56248474121094,25.88425064086914 L73.13391876220703,25.833602905273438 L72.7053451538086,25.6263484954834 L72.27677154541016,25.813941955566406 L71.84819793701172,25.66985321044922 L71.41963195800781,25.378643035888672 L70.99105834960938,25.902685165405273 L70.56248474121094,25.56288719177246 L70.1339111328125,25.42877197265625 L69.7053451538086,25.493349075317383 L69.27677154541016,25.593229293823242 L68.84820556640625,25.376840591430664 L68.41962432861328,25.152145385742188 L67.99105834960938,25.176774978637695 L67.56248474121094,25.51338768005371 L67.13391876220703,25.287273406982422 L66.7053451538086,25.5306339263916 L66.27677154541016,25.52985382080078 L65.84819793701172,25.249176025390625 L65.41963195800781,25.059377670288086 L64.99105834960938,25.491283416748047 L64.56248474121094,25.444400787353516 L64.1339111328125,25.289508819580078 L63.70534133911133,25.291322708129883 L63.27676773071289,25.414306640625 L62.84819793701172,25.21607780456543 L62.41962432861328,25.115503311157227 L61.99105453491211,24.96965789794922 L61.56248474121094,25.0114688873291 L61.1339111328125,25.506484985351562 L60.70534133911133,25.35991096496582 L60.27676773071289,25.56056785583496 L59.84819793701172,25.377933502197266 L59.41962814331055,25.159767150878906 L58.99105453491211,25.327878952026367 L58.56248474121094,25.219560623168945 L58.1339111328125,25.404043197631836 L57.70534133911133,25.289270401000977 L57.27676773071289,25.273677825927734 L56.84819793701172,25.712501525878906 L56.41962814331055,25.387004852294922 L55.99105453491211,25.571407318115234 L55.56248474121094,26.03923797607422 L55.1339111328125,26.047487258911133 L54.70534133911133,26.111400604248047 L54.27676773071289,25.922712326049805 L53.84819793701172,26.112293243408203 L53.41962814331055,25.903156280517578 L52.99105453491211,26.376136779785156 L52.56248474121094,26.15099334716797 L52.1339111328125,26.383899688720703 L51.70534133911133,26.168840408325195 L51.27676773071289,26.22273826599121 L50.84819793701172,26.697912216186523 L50.41962814331055,26.450664520263672 L49.99105453491211,26.80086898803711 L49.56248474121094,27.044523239135742 L49.133914947509766,26.977916717529297 L48.70534133911133,27.187828063964844 L48.27676773071289,27.38987922668457 L47.84819793701172,27.34953498840332 L47.41962814331055,27.571853637695312 L46.99105453491211,27.34457778930664 L46.56248474121094,27.47142219543457 L46.133914947509766,27.839941024780273 L45.70534133911133,27.897666931152344 L45.276771545410156,28.02328109741211 L44.84819793701172,28.176712036132812 L44.41962814331055,28.193519592285156 L43.991058349609375,28.19879150390625 L43.56248474121094,27.94830322265625 L43.133914947509766,28.46603775024414 L42.70534133911133,28.639659881591797 L42.276771545410156,28.677892684936523 L41.84819793701172,28.369966506958008 L41.41962814331055,28.772205352783203 L40.99105453491211,29.01030731201172 L40.56248474121094,28.997770309448242 L40.1339111328125,29.083784103393555 L39.70534133911133,28.940811157226562 L39.276771545410156,29.295307159423828 L38.84819793701172,28.942867279052734 L38.41962814331055,29.0594539642334 L37.99105453491211,29.457969665527344 L37.56248474121094,29.24753189086914 L37.1339111328125,29.439109802246094 L36.70534133911133,29.704345703125 L36.276771545410156,29.760160446166992 L35.84819793701172,29.297775268554688 L35.41962814331055,29.818893432617188 L34.99105453491211,29.56458854675293 L34.56248474121094,29.907588958740234 L34.1339111328125,29.668861389160156 L33.70534133911133,29.53101921081543 L33.276771545410156,30.083648681640625 L32.84819793701172,29.60277557373047 L32.41962814331055,30.074718475341797 L31.99105453491211,29.869125366210938 L31.562484741210938,30.15530014038086 L31.1339111328125,29.600820541381836 L30.705341339111328,29.918615341186523 L30.276769638061523,29.97951889038086 L29.84819793701172,29.770885467529297 L29.419628143310547,29.648386001586914 L28.99105453491211,29.67592430114746 L28.562484741210938,29.985639572143555 L28.133913040161133,29.58380126953125 L27.705341339111328,29.57857894897461 L27.276771545410156,29.733041763305664 L26.84819793701172,29.647167205810547 L26.419628143310547,29.715137481689453 L25.99105453491211,29.91947364807129 L25.562484741210938,29.707313537597656 L25.1339111328125,29.393024444580078 L24.705341339111328,29.765836715698242 L24.276769638061523,29.39569664001465 L23.84819793701172,29.411794662475586 L23.419628143310547,29.289073944091797 L22.99105453491211,28.92225456237793 L22.562484741210938,28.988048553466797 L22.133913040161133,29.26249885559082 L21.705341339111328,29.207517623901367 L21.276769638061523,29.091991424560547 L20.84819793701172,29.049955368041992 L20.419626235961914,28.565622329711914 L19.99105453491211,28.422250747680664 L19.600921630859375,27.137813568115234 L19.193363189697266,27.217132568359375 L18.797760009765625,27.151126861572266 L18.487241744995117,26.8089542388916 L18.03990936279297,26.89117431640625 L17.727375030517578,26.6234130859375 L17.325593948364258,26.53032875061035 L17.002155303955078,26.2945613861084 L16.667863845825195,26.0716495513916 L16.50853729248047,25.663209915161133 L16.10277557373047,25.501598358154297 L16.033044815063477,25.05635643005371 L15.696802139282227,24.812213897705078 L15.505616188049316,24.466136932373047 L15.38282585144043,24.0894832611084 L15.160085678100586,23.750368118286133 L15.14268684387207,23.344682693481445 L15,22.97119903564453 L15.071451187133789,22.567873001098633 L15.030923843383789,22.180692672729492 L15.114051818847656,21.796863555908203 L15.167131423950195,21.416658401489258 L15.243154525756836,21.040822982788086 L15.237430572509766,20.636146545410156 L15.368067741394043,20.265789031982422 L15.575701713562012,19.930957794189453 L15.735913276672363,19.573137283325195 L15.901069641113281,19.209142684936523 L16.267974853515625,19.000879287719727 L16.428537368774414,18.618173599243164 L16.690227508544922,18.31591796875 L17.07801055908203,18.171228408813477 L17.329273223876953,17.837055206298828 L17.658447265625,17.60268783569336 L18.0961856842041,17.606069564819336 L18.465911865234375,17.48678207397461 L18.839170455932617,17.382747650146484 L19.213130950927734,17.269067764282227 L19.597496032714844,17.1800537109375 Z"/><path fill="rgba(255,255,255,0)" stroke="#2196f3" stroke-width="0.3" d="M54.70534133911133,18.372806549072266 L79.13391876220703,15.238463401794434 L94.99105834960938,15.96273136138916 L109.99105834960938,19.34796905517578 L110.39402770996094,17.060516357421875 L113.84060668945312,18.89286994934082 L115.05831909179688,22.98326873779297 L109.56248474121094,28.069866180419922 L91.56248474121094,28.393388748168945 L68.41962432861328,25.152145385742188 L50.41962814331055,26.450664520263672 L39.276771545410156,29.295307159423828 L20.84819793701172,29.049955368041992 L15.505616188049316,24.466136932373047 L15.237430572509766,20.636146545410156 L17.658447265625,17.60268783569336 Z"/><polyline points="111.12039184570312,18.164705276489258 111.10262298583984,18.582765579223633 111.69477081298828,18.457075119018555 111.43505859375,18.776830673217773 112.27062225341797,18.95467185974121 111.96640014648438,19.32916259765625 112.77941131591797,19.52992820739746 112.1982421875,19.63971519470215 113.05400848388672,20.104625701904297 112.37828826904297,20.191207885742188 113.21401977539062,20.982769012451172 112.43827819824219,20.95693016052246 113.19961547851562,21.74347496032715 112.35668182373047,21.33226776123047 112.30531311035156,21.516277313232422 112.92694854736328,22.59141731262207 112.08064270019531,22.044832229614258 112.63402557373047,23.157638549804688 111.86591339111328,22.36560821533203 112.21282196044922,23.641613006591797 111.44883728027344,22.770793914794922 111.34862518310547,24.180681228637695 110.56961822509766,23.174213409423828 110.50605010986328,24.48575782775879 110.18498229980469,23.228408813476562 109.970703125,23.224451065063477 109.75641632080078,23.16628646850586 108.97748565673828,24.669055938720703 108.27677917480469,23.44915771484375 107.99105834960938,21.943326950073242 107.41963195800781,23.30312728881836 106.99105834960938,24.830074310302734 106.77677154541016,23.407817840576172 105.99105834960938,24.869037628173828 105.91963195800781,23.361568450927734 105.7053451538086,21.75298500061035 104.84819793701172,23.163644790649414 104.7053451538086,21.544147491455078 104.41962432861328,23.04831314086914 103.99105834960938,24.648582458496094 103.77677154541016,23.07713508605957 103.41962432861328,21.351985931396484 102.91963195800781,22.87540054321289 102.7053451538086,22.851341247558594 102.49105834960938,22.840803146362305 101.84819793701172,24.5945987701416 101.20533752441406,22.96734046936035 100.5624771118164,24.6348819732666 100.56248474121094,22.901227951049805 100.27677154541016,21.047855377197266 99.49105834960938,22.655536651611328 99.27677154541016,22.63259506225586 98.84819793701172,24.41878318786621 98.6339111328125,22.643190383911133 98.41963195800781,22.582805633544922 97.56249237060547,24.417999267578125 97.34820556640625,22.631420135498047 96.99105834960938,20.650657653808594 96.06248474121094,22.388757705688477 95.41962432861328,24.296615600585938 95.20533752441406,22.400732040405273 94.5624771118164,24.250085830688477 94.77677154541016,22.31896209716797 94.41962432861328,20.29964256286621 93.49105834960938,22.104896545410156 93.27677917480469,22.106853485107422 92.41963958740234,23.989055633544922 92.2053451538086,22.00722885131836 92.27677154541016,20.034090042114258 91.56248474121094,21.920635223388672 91.41963958740234,19.907255172729492 90.91963195800781,21.816978454589844 90.41963195800781,23.79555892944336 90.27677917480469,21.816608428955078 90.06248474121094,21.807470321655273 89.41962432861328,23.743118286132812 89.6339111328125,21.74745750427246 89.56249237060547,19.702064514160156 88.77677154541016,21.61284828186035 88.27677154541016,19.60001564025879 87.70533752441406,21.594385147094727 87.5624771118164,23.587982177734375 87.27677154541016,21.574764251708984 86.99105834960938,23.548973083496094 86.84820556640625,21.535873413085938 86.56248474121094,19.554407119750977 86.2053451538086,21.54443359375 85.7053451538086,23.494781494140625 85.34820556640625,21.49347686767578 85.1339111328125,21.47292137145996 84.41962432861328,23.34237289428711 84.27677154541016,21.315820693969727 83.84819793701172,19.336597442626953 82.99105834960938,21.22971534729004 82.77677154541016,21.238750457763672 82.27677154541016,19.351606369018555 82.1339111328125,21.329299926757812 81.7053451538086,23.19159507751465 81.06248474121094,21.246753692626953 80.84820556640625,21.2828369140625 80.27677154541016,23.041166305541992 79.99105834960938,21.103654861450195 79.99105834960938,19.297828674316406 79.56248474121094,21.121999740600586 79.34820556640625,21.120939254760742 78.99105834960938,19.341384887695312 78.7053451538086,21.1700496673584 78.49105834960938,21.164554595947266 77.99105834960938,22.87666130065918 77.63391876220703,21.041574478149414 77.41963195800781,21.039134979248047 76.84819793701172,19.409406661987305 76.34819793701172,21.22541046142578 76.1339111328125,22.882844924926758 75.7053451538086,21.173831939697266 75.1339111328125,22.688247680664062 74.84820556640625,20.93351173400879 74.70533752441406,19.310287475585938 74.2053451538086,20.890457153320312 73.41963195800781,19.46117401123047 72.91963195800781,21.159839630126953 72.84820556640625,22.6486759185791 72.27677154541016,21.114477157592773 71.99105834960938,22.535865783691406 71.63391876220703,20.990623474121094 71.1339111328125,19.618581771850586 70.77677154541016,21.126569747924805 70.56248474121094,22.560636520385742 70.1339111328125,21.151634216308594 69.56248474121094,22.485137939453125 69.27677154541016,21.013320922851562 69.1339111328125,19.63788604736328 68.63391876220703,21.019580841064453 68.27677154541016,19.754854202270508 67.99105834960938,21.188772201538086 67.77677154541016,21.201087951660156 67.56248474121094,22.56315040588379 67.34820556640625,21.256338119506836 66.7053451538086,22.524017333984375 66.49105834960938,21.14238929748535 65.99105834960938,19.905641555786133 65.2053451538086,21.24576187133789 64.41963195800781,20.044795989990234 64.13391876220703,21.351119995117188 64.1339111328125,22.663917541503906 63.49105453491211,21.4661865234375 63.27676773071289,21.46709442138672 63.1339111328125,22.716754913330078 62.84819793701172,21.429471969604492 62.6339111328125,21.37918472290039 62.41962814331055,20.213417053222656 62.20534133911133,21.498693466186523 61.99105453491211,21.425771713256836 61.77676773071289,21.42458724975586 61.56248474121094,21.445491790771484 61.276771545410156,20.254802703857422 61.133914947509766,21.442447662353516 60.70533752441406,20.31235122680664 60.70534133911133,21.531816482543945 60.276771545410156,22.741132736206055 59.633914947509766,21.60596466064453 59.1339111328125,20.441925048828125 58.77676773071289,21.636808395385742 58.70533752441406,22.831058502197266 58.34819793701172,21.666704177856445 58.1339111328125,22.874225616455078 57.91962814331055,21.70155906677246 57.70534133911133,21.693763732910156 57.1339111328125,20.506620407104492 56.6339111328125,21.703006744384766 56.56248474121094,22.931005477905273 56.20534133911133,21.75967025756836 55.70534133911133,20.630714416503906 55.56248474121094,21.879905700683594 55.34819793701172,21.97210693359375 55.1339111328125,21.974559783935547 54.84819793701172,23.290611267089844 54.27676773071289,22.150211334228516 53.99105453491211,23.401193618774414 53.84819793701172,22.14043426513672 53.70534133911133,20.842050552368164 53.41962814331055,22.07421875 52.84819793701172,20.841650009155273 52.56248474121094,22.139833450317383 52.276771545410156,23.48283576965332 51.70534133911133,22.272676467895508 51.49105453491211,22.299625396728516 50.84819793701172,20.985132217407227 50.41962814331055,22.28944206237793 50.41962814331055,23.676515579223633 49.99105453491211,22.403404235839844 49.276771545410156,21.029733657836914 49.133914947509766,22.366527557373047 49.133914947509766,23.903657913208008 48.49105453491211,22.63015365600586 47.99105453491211,24.201627731323242 47.41962814331055,22.81348419189453 47.1339111328125,21.221933364868164 46.776771545410156,22.69170379638672 46.276771545410156,21.17985725402832 46.1339111328125,22.750370025634766 45.91962814331055,22.813793182373047 45.70534133911133,22.8295955657959 44.99105453491211,24.535831451416016 44.20534133911133,23.068037033081055 43.84819793701172,21.398178100585938 43.34819793701172,23.003381729125977 42.84819793701172,21.344833374023438 42.70534133911133,22.988021850585938 42.133914947509766,21.346172332763672 42.276771545410156,23.005390167236328 42.133914947509766,24.793582916259766 41.41962814331055,23.21622085571289 40.70534133911133,21.47269630432129 40.56248474121094,23.17780876159668 40.276771545410156,25.09880828857422 39.49105453491211,23.46323013305664 39.276771545410156,25.289775848388672 39.06248474121094,23.464258193969727 38.41962814331055,21.59674644470215 37.99105453491211,23.40229606628418 37.77676773071289,23.460588455200195 37.56248474121094,23.46739387512207 37.56248474121094,25.394105911254883 37.1339111328125,23.561431884765625 36.70534133911133,25.473546981811523 36.276771545410156,23.5865535736084 35.991058349609375,21.665935516357422 35.6339111328125,23.561237335205078 34.99105453491211,25.551164627075195 34.56248474121094,23.677858352661133 33.84819793701172,21.700807571411133 33.06248474121094,23.63886260986328 32.991058349609375,25.626834869384766 32.6339111328125,23.674741744995117 32.1339111328125,25.650100708007812 31.77676773071289,23.673763275146484 31.276771545410156,21.653566360473633 30.705341339111328,23.606996536254883 30.27676773071289,25.620792388916016 29.84819793701172,23.630779266357422 29.276769638061523,25.61511993408203 29.205341339111328,23.598485946655273 28.99105453491211,23.55792808532715 28.562484741210938,21.549272537231445 27.919628143310547,23.55788230895996 27.705341339111328,23.55527114868164 26.84819793701172,25.501188278198242 26.419628143310547,23.462493896484375 26.562484741210938,21.41862678527832 25.99105453491211,23.36195945739746 25.705341339111328,21.335464477539062 25.1339111328125,23.337749481201172 24.419626235961914,25.199251174926758 24.062484741210938,23.10236358642578 23.99105453491211,21.204397201538086 23.419628143310547,23.165359497070312 22.146724700927734,24.48950958251953 21.724559783935547,22.27313804626465 22.003868103027344,20.635866165161133 21.081703186035156,22.249568939208984 21.146724700927734,20.572023391723633 20.438846588134766,22.177371978759766 20.289581298828125,20.545433044433594 19.795988082885742,22.209686279296875 19.359739303588867,23.742774963378906 19.23914909362793,22.045255661010742 17.907150268554688,21.7104434967041 16.865198135375977,23.924888610839844 16.827186584472656,24.11280632019043 16.56247329711914,24.427322387695312 15.600088119506836,23.236507415771484 15.57354736328125,23.42660903930664 15.406182289123535,23.140363693237305 15.552247047424316,23.812114715576172 15.415726661682129,23.65630340576172 15.587864875793457,24.200519561767578 15.519518852233887,24.16350746154785" fill="none" stroke="#dd3333" stroke-width="0.6" stroke-linecap="round" stroke-linejoin="round"/></svg>