<svg xmlns="http://www.w3.org/2000/svg" width="130" height="45" viewBox="0 0 130 45"><path fill="#e8edff" stroke="#4466aa" stroke-width="0.3" d="M19.99105453491211,17.281557083129883 L20.419626235961914,16.972721099853516 L20.84819793701172,16.971004486083984 L21.276769638061523,17.216930389404297 L21.705341339111328,17.01200294494629 L22.133913040161133,17.076290130615234 L22.562484741210938,17.361324310302734 L22.99105453491211,17.2425594329834 L23.419628143310547,17.047330856323242 L23.84819793701172,17.408462524414062 L24.276769638061523,17.101303100585938 L24.705341339111328,17.124067306518555 L25.1339111328125,17.282472610473633 L25.562484741210938,17.1810245513916 L25.99105453491211,17.227596282958984 L26.419628143310547,17.165668487548828 L26.84819793701172,17.330896377563477 L27.276771545410156,17.05293083190918 L27.705341339111328,17.531963348388672 L28.133913040161133,17.4019775390625 L28.562484741210938,17.306774139404297 L28.99105453491211,17.172697067260742 L29.419628143310547,17.149003982543945 L29.84819793701172,17.532054901123047 L30.276769638061523,17.613170623779297 L30.705341339111328,17.462417602539062 L31.1339111328125,17.18036651611328 L31.562484741210938,17.596481323242188 L31.99105453491211,17.27481460571289 L32.41962814331055,17.746707916259766 L32.84819793701172,17.635791778564453 L33.276771545410156,17.547771453857422 L33.70534133911133,17.367843627929688 L34.1339111328125,17.29940414428711 L34.56248474121094,17.478267669677734 L34.99105453491211,17.66244125366211 L35.41962814331055,17.824697494506836 L35.84819793701172,17.354236602783203 L36.276771545410156,17.693363189697266 L36.70534133911133,17.875333786010742 L37.1339111328125,17.861724853515625 L37.56248474121094,17.664093017578125 L37.99105453491211,17.5435791015625 L38.41962814331055,17.490745544433594 L38.84819793701172,17.52641487121582 L39.276771545410156,17.98564910888672 L39.70534133911133,17.913333892822266 L40.1339111328125,17.62725830078125 L40.56248474121094,17.72866439819336 L40.99105453491211,18.062475204467773 L41.41962814331055,17.79285430908203 L41.84819793701172,18.027740478515625 L42.276771545410156,17.744434356689453 L42.70534133911133,17.703922271728516 L43.133914947509766,18.05845832824707 L43.56248474121094,18.023237228393555 L43.991058349609375,17.76154327392578 L44.41962814331055,18.000015258789062 L44.84819793701172,18.18777084350586 L45.276771545410156,18.156164169311523 L45.70534133911133,17.924596786499023 L46.133914947509766,17.815052032470703 L46.56248474121094,18.03883171081543 L46.99105453491211,17.991844177246094 L47.41962814331055,17.8831787109375 L47.84819793701172,18.282390594482422 L48.27676773071289,17.902402877807617 L48.70534133911133,18.14543914794922 L49.133914947509766,17.880094528198242 L49.56248474121094,18.35614585876465 L49.99105453491211,18.14419937133789 L50.41962814331055,18.190624237060547 L50.84819793701172,18.18267822265625 L51.27676773071289,17.88719940185547 L51.70534133911133,18.37651252746582 L52.1339111328125,17.882770538330078 L52.56248474121094,17.871103286743164 L52.99105453491211,17.90011978149414 L53.41962814331055,18.245283126831055 L53.84819793701172,17.862777709960938 L54.27676773071289,18.377710342407227 L54.70534133911133,18.372806549072266 L55.1339111328125,18.076217651367188 L55.56248474121094,18.00701904296875 L55.99105453491211,18.132333755493164 L56.41962814331055,17.767810821533203 L56.84819793701172,17.941801071166992 L57.27676773071289,17.778486251831055 L57.70534133911133,17.928970336914062 L58.1339111328125,18.113847732543945 L58.56248474121094,17.92781639099121 L58.99105453491211,17.816999435424805 L59.41962814331055,17.721466064453125 L59.84819793701172,18.052162170410156 L60.27676773071289,17.822948455810547 L60.70534133911133,17.873424530029297 L61.1339111328125,17.40386390686035 L61.56248474121094,17.8795166015625 L61.99105453491211,17.88188362121582 L62.41962432861328,17.46227264404297 L62.84819793701172,17.642864227294922 L63.27676773071289,17.26636505126953 L63.70534133911133,17.182022094726562 L64.1339111328125,17.34136962890625 L64.56248474121094,17.21878433227539 L64.99105834960938,17.432144165039062 L65.41963195800781,17.002206802368164 L65.84819793701172,16.939525604248047 L66.27677154541016,16.932849884033203 L66.7053451538086,17.102388381958008 L67.13391876220703,16.998310089111328 L67.56248474121094,17.225400924682617 L67.99105834960938,17.03495979309082 L68.41962432861328,16.920040130615234 L68.84820556640625,16.88701629638672 L69.27677154541016,16.57270622253418 L69.7053451538086,16.67107391357422 L70.1339111328125,16.874496459960938 L70.56248474121094,16.611906051635742 L70.99105834960938,16.176895141601562 L71.41963195800781,16.310829162597656 L71.84819793701172,16.602603912353516 L72.27677154541016,16.003509521484375 L72.7053451538086,16.061710357666016 L73.13391876220703,16.032459259033203 L73.56248474121094,15.840414047241211 L73.99105834960938,15.892044067382812 L74.41962432861328,16.063838958740234 L74.84819793701172,15.90896224975586 L75.27677154541016,15.660310745239258 L75.7053451538086,16.149946212768555 L76.1339111328125,15.577933311462402 L76.56248474121094,15.521554946899414 L76.99105834960938,15.605151176452637 L77.41963195800781,15.562905311584473 L77.84819793701172,15.777398109436035 L78.27677154541016,15.782276153564453 L78.7053451538086,15.254343032836914 L79.13391876220703,15.238463401794434 L79.56248474121094,15.684057235717773 L79.99105834960938,15.686178207397461 L80.41963195800781,15.26279067993164 L80.84820556640625,15.649487495422363 L81.27677154541016,15.577320098876953 L81.7053451538086,15.216861724853516 L82.1339111328125,15.358174324035645 L82.56248474121094,15.396219253540039 L82.99105834960938,15.378150939941406 L83.41963195800781,15.108671188354492 L83.84820556640625,15.164937973022461 L84.27677154541016,15.092713356018066 L84.7053451538086,15 L85.13391876220703,15.123212814331055 L85.56248474121094,15.550359725952148 L85.99105834960938,15.591471672058105 L86.41963195800781,15.479902267456055 L86.84820556640625,15.107149124145508 L87.27677154541016,15.574352264404297 L87.7053451538086,15.17784309387207 L88.1339111328125,15.267388343811035 L88.56248474121094,15.454427719116211 L88.99105834960938,15.483254432678223 L89.41963195800781,15.611278533935547 L89.84819793701172,15.294353485107422 L90.27677154541016,15.620621681213379 L90.7053451538086,15.540178298950195 L91.13391876220703,15.880497932434082 L91.56248474121094,15.668506622314453 L91.99105834960938,15.663030624389648 L92.41963195800781,16.087810516357422 L92.84820556640625,15.845949172973633 L93.27677154541016,15.954538345336914 L93.7053451538086,16.261001586914062 L94.1339111328125,16.2447566986084 L94.56248474121094,15.904239654541016 L94.99105834960938,15.96273136138916 L95.41963195800781,15.973419189453125 L95.84819793701172,16.156402587890625 L96.27677154541016,16.689132690429688 L96.7053451538086,16.636642456054688 L97.13391876220703,16.528472900390625 L97.56248474121094,16.72376251220703 L97.99105834960938,16.69412612915039 L98.41962432861328,16.615373611450195 L98.84820556640625,17.174453735351562 L99.27677154541016,17.29522132873535 L99.7053451538086,17.341106414794922 L100.1339111328125,17.001174926757812 L100.56248474121094,17.18950843811035 L100.99105834960938,17.406702041625977 L101.41963195800781,17.543609619140625 L101.84819793701172,17.832489013671875 L102.27677154541016,17.85356330871582 L102.7053451538086,17.901683807373047 L103.13391876220703,17.714569091796875 L103.56248474121094,17.842716217041016 L103.99105834960938,18.046422958374023 L104.41962432861328,18.305152893066406 L104.84819793701172,18.061548233032227 L105.27677154541016,18.53581428527832 L105.7053451538086,18.490266799926758 L106.1339111328125,18.292659759521484 L106.56248474121094,18.43105125427246 L106.99105834960938,18.486125946044922 L107.41963195800781,18.931663513183594 L107.84819793701172,18.896060943603516 L108.27677154541016,18.63962173461914 L108.7053451538086,18.91907501220703 L109.13391876220703,19.223724365234375 L109.56248474121094,19.340051651000977 L109.99105834960938,19.34796905517578 L110.39402770996094,17.060516357421875 L110.79402160644531,17.110958099365234 L111.15594482421875,17.328582763671875 L111.57237243652344,17.313919067382812 L111.95834350585938,17.431251525878906 L112.21418762207031,17.817564010620117 L112.61727142333984,17.895103454589844 L112.87906646728516,18.205690383911133 L113.26445770263672,18.34803009033203 L113.52678680419922,18.644968032836914 L113.84060668945312,18.89286994934082 L113.94174194335938,19.31035614013672 L114.33253479003906,19.520233154296875 L114.40542602539062,19.931461334228516 L114.6163330078125,20.26483917236328 L114.8093032836914,20.615148544311523 L114.76551818847656,21.034446716308594 L114.93833923339844,21.397119522094727 L115.06196594238281,21.78160285949707 L115.01557922363281,22.180692672729492 L114.88549041748047,22.565893173217773 L115.05831909179688,22.98326873779297 L114.72230529785156,23.316564559936523 L114.61956787109375,23.684587478637695 L114.53131103515625,24.06132698059082 L114.39628601074219,24.425268173217773 L114.17023468017578,24.741697311401367 L113.9854965209961,25.08282470703125 L113.74076843261719,25.383249282836914 L113.6076431274414,25.797273635864258 L113.23246002197266,25.975887298583984 L112.9066162109375,26.193618774414062 L112.59630584716797,26.43207359313965 L112.29688262939453,26.706134796142578 L111.92314147949219,26.84514808654785 L111.58243560791016,27.078445434570312 L111.14817810058594,27.000455856323242 L110.78996276855469,27.224782943725586 L110.37891387939453,27.108848571777344 L109.99105834960938,27.592735290527344 L109.56248474121094,28.069866180419922 L109.13391876220703,27.887224197387695 L108.7053451538086,27.923372268676758 L108.27677154541016,27.812076568603516 L107.84819793701172,28.177440643310547 L107.41963195800781,27.674591064453125 L106.99105834960938,27.933547973632812 L106.56248474121094,28.202299118041992 L106.1339111328125,27.88397216796875 L105.7053451538086,28.27027130126953 L105.27677154541016,28.26910400390625 L104.84819793701172,28.295658111572266 L104.41962432861328,27.791475296020508 L103.99105834960938,27.980186462402344 L103.56248474121094,28.16813087463379 L103.13391876220703,27.849117279052734 L102.7053451538086,28.389474868774414 L102.27677154541016,28.117630004882812 L101.84819793701172,28.291913986206055 L101.41963195800781,28.29339027404785 L100.99105834960938,28.503677368164062 L100.56248474121094,28.102191925048828 L100.1339111328125,28.49915313720703 L99.7053451538086,28.3951416015625 L99.27677154541016,27.969968795776367 L98.84820556640625,28.162139892578125 L98.41962432861328,28.356739044189453 L97.99105834960938,27.991159439086914 L97.56248474121094,28.37842559814453 L97.13391876220703,28.280399322509766 L96.7053451538086,28.184619903564453 L96.27677154541016,28.16865348815918 L95.84819793701172,28.0883846282959 L95.41963195800781,28.313549041748047 L94.99105834960938,28.32807159423828 L94.56248474121094,28.294748306274414 L94.1339111328125,28.11233139038086 L93.7053451538086,28.304182052612305 L93.27677154541016,27.948793411254883 L92.84820556640625,27.952707290649414 L92.41963195800781,28.356887817382812 L91.99105834960938,28.004175186157227 L91.56248474121094,28.393388748168945 L91.13391876220703,27.991291046142578 L90.7053451538086,27.753459930419922 L90.27677154541016,28.07135009765625 L89.84819793701172,27.903127670288086 L89.41963195800781,27.75271987915039 L88.99105834960938,27.73444175720215 L88.56248474121094,27.974180221557617 L88.1339111328125,27.614418029785156 L87.7053451538086,28.075902938842773 L87.27677154541016,27.57517433166504 L86.84820556640625,27.816852569580078 L86.41963195800781,27.497394561767578 L85.99105834960938,27.716350555419922 L85.56248474121094,27.674327850341797 L85.13391876220703,27.749364852905273 L84.7053451538086,27.39548110961914 L84.27677154541016,27.49834442138672 L83.84820556640625,27.328067779541016 L83.41963195800781,27.277360916137695 L82.99105834960938,27.081279754638672 L82.56248474121094,27.381181716918945 L82.1339111328125,27.18133544921875 L81.7053451538086,27.112194061279297 L81.27677154541016,27.133167266845703 L80.84820556640625,26.916187286376953 L80.41963195800781,27.001087188720703 L79.99105834960938,27.131546020507812 L79.56248474121094,26.902751922607422 L79.13391876220703,26.55782127380371 L78.7053451538086,26.546833038330078 L78.27677154541016,26.621728897094727 L77.84819793701172,26.72277069091797 L77.41963195800781,26.588895797729492 L76.99105834960938,26.300872802734375 L76.56248474121094,26.402320861816406 L76.1339111328125,26.438426971435547 L75.7053451538086,26.197717666625977 L75.27677154541016,26.460712432861328 L74.84819793701172,26.10875129699707 L74.41962432861328,26.265098571777344 L73.99105834960938,25.71707534790039 L73.56248474121094,25.88425064086914 L73.13391876220703,25.833602905273438 L72.7053451538086,25.6263484954834 L72.27677154541016,25.813941955566406 L71.84819793701172,25.66985321044922 L71.41963195800781,25.378643035888672 L70.99105834960938,25.902685165405273 L70.56248474121094,25.56288719177246 L70.1339111328125,25.42877197265625 L69.7053451538086,25.493349075317383 L69.27677154541016,25.593229293823242 L68.84820556640625,25.376840591430664 L68.41962432861328,25.152145385742188 L67.99105834960938,25.176774978637695 L67.56248474121094,25.51338768005371 L67.13391876220703,25.287273406982422 L66.7053451538086,25.5306339263916 L66.27677154541016,25.52985382080078 L65.84819793701172,25.249176025390625 L65.41963195800781,25.059377670288086 L64.99105834960938,25.491283416748047 L64.56248474121094,25.444400787353516 L64.1339111328125,25.289508819580078 L63.70534133911133,25.291322708129883 L63.27676773071289,25.414306640625 L62.84819793701172,25.21607780456543 L62.41962432861328,25.115503311157227 L61.99105453491211,24.96965789794922 L61.56248474121094,25.0114688873291 L61.1339111328125,25.506484985351562 L60.70534133911133,25.35991096496582 L60.27676773071289,25.56056785583496 L59.84819793701172,25.377933502197266 L59.41962814331055,25.159767150878906 L58.99105453491211,25.327878952026367 L58.56248474121094,25.219560623168945 L58.1339111328125,25.404043197631836 L57.70534133911133,25.289270401000977 L57.27676773071289,25.273677825927734 L56.84819793701172,25.712501525878906 L56.41962814331055,25.387004852294922 L55.99105453491211,25.571407318115234 L55.56248474121094,26.03923797607422 L55.1339111328125,26.047487258911133 L54.70534133911133,26.111400604248047 L54.27676773071289,25.922712326049805 L53.84819793701172,26.112293243408203 L53.41962814331055,25.903156280517578 L52.99105453491211,26.376136779785156 L52.56248474121094,26.15099334716797 L52.1339111328125,26.383899688720703 L51.70534133911133,26.168840408325195 L51.27676773071289,26.22273826599121 L50.84819793701172,26.697912216186523 L50.41962814331055,26.450664520263672 L49.99105453491211,26.80086898803711 L49.56248474121094,27.044523239135742 L49.133914947509766,26.977916717529297 L48.70534133911133,27.187828063964844 L48.27676773071289,27.38987922668457 L47.84819793701172,27.34953498840332 L47.41962814331055,27.571853637695312 L46.99105453491211,27.34457778930664 L46.56248474121094,27.47142219543457 L46.133914947509766,27.839941024780273 L45.70534133911133,27.897666931152344 L45.276771545410156,28.02328109741211 L44.84819793701172,28.176712036132812 L44.41962814331055,28.193519592285156 L43.991058349609375,28.19879150390625 L43.56248474121094,27.94830322265625 L43.133914947509766,28.46603775024414 L42.70534133911133,28.639659881591797 L42.276771545410156,28.677892684936523 L41.84819793701172,28.369966506958008 L41.41962814331055,28.772205352783203 L40.99105453491211,29.01030731201172 L40.56248474121094,28.997770309448242 L40.1339111328125,29.083784103393555 L39.70534133911133,28.940811157226562 L39.276771545410156,29.295307159423828 L38.84819793701172,28.942867279052734 L38.41962814331055,29.0594539642334 L37.99105453491211,29.457969665527344 L37.56248474121094,29.24753189086914 L37.1339111328125,29.439109802246094 L36.70534133911133,29.704345703125 L36.276771545410156,29.760160446166992 L35.84819793701172,29.297775268554688 L35.41962814331055,29.818893432617188 L34.99105453491211,29.56458854675293 L34.56248474121094,29.907588958740234 L34.1339111328125,29.668861389160156 L33.70534133911133,29.53101921081543 L33.276771545410156,30.083648681640625 L32.84819793701172,29.60277557373047 L32.41962814331055,30.074718475341797 L31.99105453491211,29.869125366210938 L31.562484741210938,30.15530014038086 L31.1339111328125,29.600820541381836 L30.705341339111328,29.918615341186523 L30.276769638061523,29.97951889038086 L29.84819793701172,29.770885467529297 L29.419628143310547,29.648386001586914 L28.99105453491211,29.67592430114746 L28.562484741210938,29.985639572143555 L28.133913040161133,29.58380126953125 L27.705341339111328,29.57857894897461 L27.276771545410156,29.733041763305664 L26.84819793701172,29.647167205810547 L26.419628143310547,29.715137481689453 L25.99105453491211,29.91947364807129 L25.562484741210938,29.707313537597656 L25.1339111328125,29.393024444580078 L24.705341339111328,29.765836715698242 L24.276769638061523,29.39569664001465 L23.84819793701172,29.411794662475586 L23.419628143310547,29.289073944091797 L22.99105453491211,28.92225456237793 L22.562484741210938,28.988048553466797 L22.133913040161133,29.26249885559082 L21.705341339111328,29.207517623901367 L21.276769638061523,29.091991424560547 L20.84819793701172,29.049955368041992 L20.419626235961914,28.565622329711914 L19.99105453491211,28.422250747680664 L19.600921630859375,27.137813568115234 L19.193363189697266,27.217132568359375 L18.797760009765625,27.151126861572266 L18.487241744995117,26.8089542388916 L18.03990936279297,26.89117431640625 L17.727375030517578,26.6234130859375 L17.325593948364258,26.53032875061035 L17.002155303955078,26.2945613861084 L16.667863845825195,26.0716495513916 L16.50853729248047,25.663209915161133 L16.10277557373047,25.501598358154297 L16.033044815063477,25.05635643005371 L15.696802139282227,24.812213897705078 L15.505616188049316,24.466136932373047 L15.38282585144043,24.0894832611084 L15.160085678100586,23.750368118286133 L15.14268684387207,23.344682693481445 L15,22.97119903564453 L15.071451187133789,22.567873001098633 L15.030923843383789,22.180692672729492 L15.114051818847656,21.796863555908203 L15.167131423950195,21.416658401489258 L15.243154525756836,21.040822982788086 L15.237430572509766,20.636146545410156 L15.368067741394043,20.265789031982422 L15.575701713562012,19.930957794189453 L15.735913276672363,19.573137283325195 L15.901069641113281,19.209142684936523 L16.267974853515625,19.000879287719727 L16.428537368774414,18.618173599243164 L16.690227508544922,18.31591796875 L17.07801055908203,18.171228408813477 L17.329273223876953,17.837055206298828 L17.658447265625,17.60268783569336 L18.0961856842041,17.606069564819336 L18.465911865234375,17.48678207397461 L18.839170455932617,17.382747650146484 L19.213130950927734,17.269067764282227 L19.597496032714844,17.1800537109375 Z"/><path fill="rgba(255,255,255,0)" stroke="#2196f3" stroke-width="0.3" d="M54.70534133911133,18.372806549072266 L79.13391876220703,15.238463401794434 L94.99105834960938,15.96273136138916 L109.99105834960938,19.34796905517578 L110.39402770996094,17.060516357421875 L113.84060668945312,18.89286994934082 L115.05831909179688,22.98326873779297 L109.56248474121094,28.069866180419922 L91.56248474121094,28.393388748168945 L68.41962432861328,25.152145385742188 L50.41962814331055,26.450664520263672 L39.276771545410156,29.295307159423828 L20.84819793701172,29.049955368041992 L15.505616188049316,24.466136932373047 L15.237430572509766,20.636146545410156 L17.658447265625,17.60268783569336 Z"/><polyline points="111.46833801269531,18.08724594116211 111.4411849975586,18.138519287109375 111.43356323242188,18.16781234741211 111.35221099853516,18.32406234741211 111.33831024169922,18.3458251953125 111.28565979003906,18.445175170898438 111.2872314453125,18.44953727722168 111.30968475341797,18.54401969909668 111.33968353271484,18.654088973999023 111.37246704101562,18.758987426757812 111.41459655761719,18.85857391357422 111.45391082763672,18.963605880737305 111.50289916992188,19.073875427246094 111.56063842773438,19.183765411376953 111.60994720458984,19.288785934448242 111.679931640625,19.39892578125 111.70779418945312,19.4489688873291 111.72827911376953,19.504045486450195 111.76483917236328,19.614715576171875 111.97396087646484,20.139606475830078 111.98469543457031,21.255199432373047 111.97406768798828,21.33553123474121 111.72367095947266,22.043333053588867 111.59221649169922,22.242551803588867 111.42005157470703,22.449722290039062 111.35824584960938,22.522432327270508 111.28186798095703,22.606002807617188 111.20735931396484,22.686004638671875 111.0934066772461,22.809904098510742 110.86091613769531,22.990854263305664 110.70098114013672,23.08890151977539 110.50616455078125,23.16848373413086 110.46092987060547,23.190589904785156 110.22373962402344,23.226417541503906 109.87162017822266,23.244131088256836 109.76329803466797,23.25145149230957 109.64946746826172,23.25963020324707 109.53779602050781,23.269697189331055 108.42033386230469,23.38800811767578 108.32490539550781,23.398035049438477 108.2243423461914,23.410537719726562 108.140625,23.422588348388672 108.13671875,23.421037673950195 108.0437240600586,23.401168823242188 107.55693817138672,23.30308723449707 106.0475082397461,23.303077697753906 105.52523040771484,23.228116989135742 105.51872253417969,23.22576141357422 103.6025161743164,23.048330307006836 103.56278991699219,23.048274993896484 102.43453979492188,22.896347045898438 102.09197235107422,22.911144256591797 101.98015594482422,22.917173385620117 101.87297821044922,22.92409324645996 101.86824035644531,22.924198150634766 101.86772918701172,22.924633026123047 101.7618637084961,22.93583869934082 101.6483154296875,22.94822883605957 101.3573226928711,22.98635482788086 100.45115661621094,22.872852325439453 99.61311340332031,22.660503387451172 99.08294677734375,22.639097213745117 98.97853088378906,22.63591194152832 98.86224365234375,22.63363265991211 98.75848388671875,22.632587432861328 98.54554748535156,22.632625579833984 97.75909423828125,22.53748321533203 97.666015625,22.527420043945312 97.57123565673828,22.51812171936035 97.48585510253906,22.509408950805664 97.38992309570312,22.501638412475586 96.66592407226562,22.443836212158203 96.5290756225586,22.40633773803711 94.91060638427734,22.345474243164062 94.79491424560547,22.323686599731445 94.05307006835938,22.126171112060547 93.983642578125,22.122779846191406 93.1702880859375,22.09312629699707 93.06350708007812,22.088157653808594 92.95565795898438,22.082101821899414 92.84888458251953,22.07537841796875 92.31764221191406,22.036508560180664 92.27447509765625,22.025259017944336 90.83657836914062,21.813974380493164 90.06586456298828,21.786161422729492 89.62059783935547,21.722536087036133 89.51834106445312,21.7056827545166 89.407958984375,21.688156127929688 89.39037322998047,21.685131072998047 89.34581756591797,21.67378807067871 88.2456283569336,21.555953979492188 87.98130798339844,21.57477378845215 87.38941955566406,21.574777603149414 86.71297454833984,21.526138305664062 85.9129638671875,21.554950714111328 85.37085723876953,21.49631690979004 85.26112365722656,21.485132217407227 85.15534973144531,21.4753360748291 85.04810333251953,21.466930389404297 84.90799713134766,21.456518173217773 83.8906478881836,21.229726791381836 83.18354034423828,21.229755401611328 83.07734680175781,21.230709075927734 82.97055053710938,21.23264503479004 82.86132049560547,21.235660552978516 82.72969818115234,21.240478515625 82.35889434814453,21.29576301574707 82.18516540527344,21.28911590576172 82.06908416748047,21.285991668701172 81.96333312988281,21.283939361572266 81.84669494628906,21.282886505126953 81.13133239746094,21.282821655273438 80.65690612792969,21.208301544189453 79.9101791381836,21.149385452270508 79.80635833740234,21.14203643798828 79.69740295410156,21.135644912719727 79.58838653564453,21.13042449951172 79.33110809326172,21.120262145996094 79.21991729736328,21.12919807434082 79.11480712890625,21.136459350585938 79.00122833251953,21.143136978149414 78.90120697021484,21.148269653320312 78.6033706665039,21.160078048706055 78.1611557006836,21.10638427734375 78.05812072753906,21.094181060791016 77.94662475585938,21.083297729492188 77.8409423828125,21.073444366455078 77.66276550292969,21.058923721313477 76.75530242919922,21.1738224029541 76.18917083740234,21.173826217651367 74.74061584472656,20.91423988342285 74.08772277832031,20.885234832763672 73.67904663085938,20.98128318786621 72.91979217529297,21.053396224975586 71.66560363769531,20.992170333862305 70.61106872558594,21.151630401611328 69.94451904296875,21.151622772216797 69.53186798095703,21.066150665283203 69.25672149658203,21.051902770996094 68.13887023925781,21.17301368713379 68.0325927734375,21.183013916015625 67.92213439941406,21.191835403442383 67.81585693359375,21.19890594482422 67.04779815673828,21.240386962890625 66.80142211914062,21.227275848388672 66.58551025390625,21.168216705322266 64.28936767578125,21.297237396240234 64.0946273803711,21.364667892456055 64.06368255615234,21.369823455810547 63.955284118652344,21.386499404907227 63.85284423828125,21.4012393951416 63.742069244384766,21.41508674621582 63.62009811401367,21.42864990234375 63.59958267211914,21.428447723388672 63.51155090332031,21.426485061645508 63.47760772705078,21.425260543823242 63.44002151489258,21.422208786010742 63.43795394897461,21.422277450561523 63.34226989746094,21.42461395263672 63.244232177734375,21.425769805908203 61.91717529296875,21.425779342651367 61.8086051940918,21.427413940429688 61.70562744140625,21.43056869506836 61.59633255004883,21.435483932495117 61.59169387817383,21.43572425842285 61.484283447265625,21.44060707092285 61.37501525878906,21.44390296936035 61.27021789550781,21.445480346679688 61.108726501464844,21.445486068725586 61.00556182861328,21.457887649536133 60.25288391113281,21.64327621459961 59.116737365722656,21.574790954589844 58.74367141723633,21.642854690551758 57.844722747802734,21.69708251953125 57.783416748046875,21.693328857421875 57.675254821777344,21.685386657714844 57.56983947753906,21.67582130432129 57.46273422241211,21.66457176208496 57.092594146728516,21.62041664123535 56.37514877319336,21.749643325805664 56.00628662109375,21.77142333984375 54.926021575927734,22.035375595092773 54.83378982543945,22.056495666503906 54.73974609375,22.0768985748291 54.69618606567383,22.086414337158203 54.64837646484375,22.09666633605957 54.5869255065918,22.109243392944336 54.55482482910156,22.116220474243164 54.480690002441406,22.131906509399414 54.396827697753906,22.150541305541992 54.37233352661133,22.150218963623047 53.93387985229492,22.150209426879883 53.26691818237305,22.0742130279541 52.850563049316406,22.074222564697266 51.97917175292969,22.272676467895508 51.1597785949707,22.272666931152344 51.05216979980469,22.27118682861328 50.94221878051758,22.26816177368164 50.833438873291016,22.263721466064453 50.5969123840332,22.250783920288086 49.807315826416016,22.422847747802734 48.52295684814453,22.558866500854492 48.12410354614258,22.68440055847168 47.31686782836914,22.803760528564453 46.34321212768555,22.711671829223633 46.3406867980957,22.71178436279297 45.613853454589844,22.84755516052246 45.568565368652344,22.85518455505371 45.5257453918457,22.863672256469727 45.46290969848633,22.874656677246094 45.437538146972656,22.879688262939453 45.35681915283203,22.894121170043945 45.34807205200195,22.89596176147461 45.26058578491211,22.912002563476562 45.25104522705078,22.913610458374023 44.32717514038086,23.084083557128906 43.62583541870117,22.99169921875 43.592830657958984,22.992719650268555 42.37152099609375,23.045698165893555 41.62753677368164,23.174274444580078 41.48812484741211,23.210525512695312 39.89554214477539,23.342958450317383 39.39463806152344,23.467002868652344 39.26361083984375,23.472118377685547 37.88758850097656,23.41830062866211 37.323123931884766,23.505640029907227 37.25959396362305,23.514902114868164 37.23526382446289,23.51888656616211 37.1534538269043,23.530933380126953 37.14563751220703,23.532094955444336 37.0577278137207,23.5452938079834 37.046531677246094,23.546916961669922 36.9693717956543,23.558609008789062 36.939510345458984,23.562877655029297 36.77006149291992,23.588851928710938 36.53925323486328,23.606250762939453 35.83784866333008,23.553617477416992 34.145721435546875,23.6168270111084 33.76946258544922,23.561729431152344 32.78306198120117,23.66935157775879 31.99777603149414,23.697736740112305 30.98006820678711,23.58735466003418 30.110960006713867,23.649492263793945 29.092487335205078,23.576950073242188 29.080158233642578,23.57619285583496 28.984832763671875,23.559999465942383 28.877010345458984,23.54268455505371 28.776145935058594,23.527423858642578 28.153928756713867,23.549560546875 28.046749114990234,23.55240249633789 27.939617156982422,23.554338455200195 27.832157135009766,23.555248260498047 26.847579956054688,23.55527114868164 25.88901138305664,23.347457885742188 25.820697784423828,23.337749481201172 25.341068267822266,23.337749481201172 25.07342529296875,23.288475036621094 23.84009552001953,23.1966609954834 23.005617141723633,22.832374572753906 21.35329818725586,22.33184242248535 20.885417938232422,22.2528076171875 20.44319725036621,22.23530387878418 19.998031616210938,22.1650390625 19.982486724853516,22.146190643310547 19.974388122558594,22.13616943359375 19.83386993408203,21.831886291503906 19.823373794555664,21.815921783447266 19.72138214111328,21.66416358947754 19.609375,21.505207061767578 19.481178283691406,21.32784652709961 19.398998260498047,21.169574737548828 19.142333984375,20.69066047668457 18.15868377685547,18.918399810791016 18.05251121520996,18.70777702331543 18.033283233642578,18.664690017700195 17.948970794677734,18.499183654785156 17.92765235900879,18.45047378540039" fill="none" stroke="#dd3333" stroke-width="0.6" stroke-linecap="round" stroke-linejoin="round"/></svg>