<svg xmlns="http://www.w3.org/2000/svg" width="130" height="45" viewBox="0 0 130 45"><path fill="#e8edff" stroke="#4466aa" stroke-width="0.3" d="M19.99105453491211,17.281557083129883 L20.419626235961914,16.972721099853516 L20.84819793701172,16.971004486083984 L21.276769638061523,17.216930389404297 L21.705341339111328,17.01200294494629 L22.133913040161133,17.076290130615234 L22.562484741210938,17.361324310302734 L22.99105453491211,17.2425594329834 L23.419628143310547,17.047330856323242 L23.84819793701172,17.408462524414062 L24.276769638061523,17.101303100585938 L24.705341339111328,17.124067306518555 L25.1339111328125,17.282472610473633 L25.562484741210938,17.1810245513916 L25.99105453491211,17.227596282958984 L26.419628143310547,17.165668487548828 L26.84819793701172,17.330896377563477 L27.276771545410156,17.05293083190918 L27.705341339111328,17.531963348388672 L28.133913040161133,17.4019775390625 L28.562484741210938,17.306774139404297 L28.99105453491211,17.172697067260742 L29.419628143310547,17.149003982543945 L29.84819793701172,17.532054901123047 L30.276769638061523,17.613170623779297 L30.705341339111328,17.462417602539062 L31.1339111328125,17.18036651611328 L31.562484741210938,17.596481323242188 L31.99105453491211,17.27481460571289 L32.41962814331055,17.746707916259766 L32.84819793701172,17.635791778564453 L33.276771545410156,17.547771453857422 L33.70534133911133,17.367843627929688 L34.1339111328125,17.29940414428711 L34.56248474121094,17.478267669677734 L34.99105453491211,17.66244125366211 L35.41962814331055,17.824697494506836 L35.84819793701172,17.354236602783203 L36.276771545410156,17.693363189697266 L36.70534133911133,17.875333786010742 L37.1339111328125,17.861724853515625 L37.56248474121094,17.664093017578125 L37.99105453491211,17.5435791015625 L38.41962814331055,17.490745544433594 L38.84819793701172,17.52641487121582 L39.276771545410156,17.98564910888672 L39.70534133911133,17.913333892822266 L40.1339111328125,17.62725830078125 L40.56248474121094,17.72866439819336 L40.99105453491211,18.062475204467773 L41.41962814331055,17.79285430908203 L41.84819793701172,18.027740478515625 L42.276771545410156,17.744434356689453 L42.70534133911133,17.703922271728516 L43.133914947509766,18.05845832824707 L43.56248474121094,18.023237228393555 L43.991058349609375,17.76154327392578 L44.41962814331055,18.000015258789062 L44.84819793701172,18.18777084350586 L45.276771545410156,18.156164169311523 L45.70534133911133,17.924596786499023 L46.133914947509766,17.815052032470703 L46.56248474121094,18.03883171081543 L46.99105453491211,17.991844177246094 L47.41962814331055,17.8831787109375 L47.84819793701172,18.282390594482422 L48.27676773071289,17.902402877807617 L48.70534133911133,18.14543914794922 L49.133914947509766,17.880094528198242 L49.56248474121094,18.35614585876465 L49.99105453491211,18.14419937133789 L50.41962814331055,18.190624237060547 L50.84819793701172,18.18267822265625 L51.27676773071289,17.88719940185547 L51.70534133911133,18.37651252746582 L52.1339111328125,17.882770538330078 L52.56248474121094,17.871103286743164 L52.99105453491211,17.90011978149414 L53.41962814331055,18.245283126831055 L53.84819793701172,17.862777709960938 L54.27676773071289,18.377710342407227 L54.70534133911133,18.372806549072266 L55.1339111328125,18.076217651367188 L55.56248474121094,18.00701904296875 L55.99105453491211,18.132333755493164 L56.41962814331055,17.767810821533203 L56.84819793701172,17.941801071166992 L57.27676773071289,17.778486251831055 L57.70534133911133,17.928970336914062 L58.1339111328125,18.113847732543945 L58.56248474121094,17.92781639099121 L58.99105453491211,17.816999435424805 L59.41962814331055,17.721466064453125 L59.84819793701172,18.052162170410156 L60.27676773071289,17.822948455810547 L60.70534133911133,17.873424530029297 L61.1339111328125,17.40386390686035 L61.56248474121094,17.8795166015625 L61.99105453491211,17.88188362121582 L62.41962432861328,17.46227264404297 L62.84819793701172,17.642864227294922 L63.27676773071289,17.26636505126953 L63.70534133911133,17.182022094726562 L64.1339111328125,17.34136962890625 L64.56248474121094,17.21878433227539 L64.99105834960938,17.432144165039062 L65.41963195800781,17.002206802368164 L65.84819793701172,16.939525604248047 L66.27677154541016,16.932849884033203 L66.7053451538086,17.102388381958008 L67.13391876220703,16.998310089111328 L67.56248474121094,17.225400924682617 L67.99105834960938,17.03495979309082 L68.41962432861328,16.920040130615234 L68.84820556640625,16.88701629638672 L69.27677154541016,16.57270622253418 L69.7053451538086,16.67107391357422 L70.1339111328125,16.874496459960938 L70.56248474121094,16.611906051635742 L70.99105834960938,16.176895141601562 L71.41963195800781,16.310829162597656 L71.84819793701172,16.602603912353516 L72.27677154541016,16.003509521484375 L72.7053451538086,16.061710357666016 L73.13391876220703,16.032459259033203 L73.56248474121094,15.840414047241211 L73.99105834960938,15.892044067382812 L74.41962432861328,16.063838958740234 L74.84819793701172,15.90896224975586 L75.27677154541016,15.660310745239258 L75.7053451538086,16.149946212768555 L76.1339111328125,15.577933311462402 L76.56248474121094,15.521554946899414 L76.99105834960938,15.605151176452637 L77.41963195800781,15.562905311584473 L77.84819793701172,15.777398109436035 L78.27677154541016,15.782276153564453 L78.7053451538086,15.254343032836914 L79.13391876220703,15.238463401794434 L79.56248474121094,15.684057235717773 L79.99105834960938,15.686178207397461 L80.41963195800781,15.26279067993164 L80.84820556640625,15.649487495422363 L81.27677154541016,15.577320098876953 L81.7053451538086,15.216861724853516 L82.1339111328125,15.358174324035645 L82.56248474121094,15.396219253540039 L82.99105834960938,15.378150939941406 L83.41963195800781,15.108671188354492 L83.84820556640625,15.164937973022461 L84.27677154541016,15.092713356018066 L84.7053451538086,15 L85.13391876220703,15.123212814331055 L85.56248474121094,15.550359725952148 L85.99105834960938,15.591471672058105 L86.41963195800781,15.479902267456055 L86.84820556640625,15.107149124145508 L87.27677154541016,15.574352264404297 L87.7053451538086,15.17784309387207 L88.1339111328125,15.267388343811035 L88.56248474121094,15.454427719116211 L88.99105834960938,15.483254432678223 L89.41963195800781,15.611278533935547 L89.84819793701172,15.294353485107422 L90.27677154541016,15.620621681213379 L90.7053451538086,15.540178298950195 L91.13391876220703,15.880497932434082 L91.56248474121094,15.668506622314453 L91.99105834960938,15.663030624389648 L92.41963195800781,16.087810516357422 L92.84820556640625,15.845949172973633 L93.27677154541016,15.954538345336914 L93.7053451538086,16.261001586914062 L94.1339111328125,16.2447566986084 L94.56248474121094,15.904239654541016 L94.99105834960938,15.96273136138916 L95.41963195800781,15.973419189453125 L95.84819793701172,16.156402587890625 L96.27677154541016,16.689132690429688 L96.7053451538086,16.636642456054688 L97.13391876220703,16.528472900390625 L97.56248474121094,16.72376251220703 L97.99105834960938,16.69412612915039 L98.41962432861328,16.615373611450195 L98.84820556640625,17.174453735351562 L99.27677154541016,17.29522132873535 L99.7053451538086,17.341106414794922 L100.1339111328125,17.001174926757812 L100.56248474121094,17.18950843811035 L100.99105834960938,17.406702041625977 L101.41963195800781,17.543609619140625 L101.84819793701172,17.832489013671875 L102.27677154541016,17.85356330871582 L102.7053451538086,17.901683807373047 L103.13391876220703,17.714569091796875 L103.56248474121094,17.842716217041016 L103.99105834960938,18.046422958374023 L104.41962432861328,18.305152893066406 L104.84819793701172,18.061548233032227 L105.27677154541016,18.53581428527832 L105.7053451538086,18.490266799926758 L106.1339111328125,18.292659759521484 L106.56248474121094,18.43105125427246 L106.99105834960938,18.486125946044922 L107.41963195800781,18.931663513183594 L107.84819793701172,18.896060943603516 L108.27677154541016,18.63962173461914 L108.7053451538086,18.91907501220703 L109.13391876220703,19.223724365234375 L109.56248474121094,19.340051651000977 L109.99105834960938,19.34796905517578 L110.39402770996094,17.060516357421875 L110.79402160644531,17.110958099365234 L111.15594482421875,17.328582763671875 L111.57237243652344,17.313919067382812 L111.95834350585938,17.431251525878906 L112.21418762207031,17.817564010620117 L112.61727142333984,17.895103454589844 L112.87906646728516,18.205690383911133 L113.26445770263672,18.34803009033203 L113.52678680419922,18.644968032836914 L113.84060668945312,18.89286994934082 L113.94174194335938,19.31035614013672 L114.33253479003906,19.520233154296875 L114.40542602539062,19.931461334228516 L114.6163330078125,20.26483917236328 L114.8093032836914,20.615148544311523 L114.76551818847656,21.034446716308594 L114.93833923339844,21.397119522094727 L115.06196594238281,21.78160285949707 L115.01557922363281,22.180692672729492 L114.88549041748047,22.565893173217773 L115.05831909179688,22.98326873779297 L114.72230529785156,23.316564559936523 L114.61956787109375,23.684587478637695 L114.53131103515625,24.06132698059082 L114.39628601074219,24.425268173217773 L114.17023468017578,24.741697311401367 L113.9854965209961,25.08282470703125 L113.74076843261719,25.383249282836914 L113.6076431274414,25.797273635864258 L113.23246002197266,25.975887298583984 L112.9066162109375,26.193618774414062 L112.59630584716797,26.43207359313965 L112.29688262939453,26.706134796142578 L111.92314147949219,26.84514808654785 L111.58243560791016,27.078445434570312 L111.14817810058594,27.000455856323242 L110.78996276855469,27.224782943725586 L110.37891387939453,27.108848571777344 L109.99105834960938,27.592735290527344 L109.56248474121094,28.069866180419922 L109.13391876220703,27.887224197387695 L108.7053451538086,27.923372268676758 L108.27677154541016,27.812076568603516 L107.84819793701172,28.177440643310547 L107.41963195800781,27.674591064453125 L106.99105834960938,27.933547973632812 L106.56248474121094,28.202299118041992 L106.1339111328125,27.88397216796875 L105.7053451538086,28.27027130126953 L105.27677154541016,28.26910400390625 L104.84819793701172,28.295658111572266 L104.41962432861328,27.791475296020508 L103.99105834960938,27.980186462402344 L103.56248474121094,28.16813087463379 L103.13391876220703,27.849117279052734 L102.7053451538086,28.389474868774414 L102.27677154541016,28.117630004882812 L101.84819793701172,28.291913986206055 L101.41963195800781,28.29339027404785 L100.99105834960938,28.503677368164062 L100.56248474121094,28.102191925048828 L100.1339111328125,28.49915313720703 L99.7053451538086,28.3951416015625 L99.27677154541016,27.969968795776367 L98.84820556640625,28.162139892578125 L98.41962432861328,28.356739044189453 L97.99105834960938,27.991159439086914 L97.56248474121094,28.37842559814453 L97.13391876220703,28.280399322509766 L96.7053451538086,28.184619903564453 L96.27677154541016,28.16865348815918 L95.84819793701172,28.0883846282959 L95.41963195800781,28.313549041748047 L94.99105834960938,28.32807159423828 L94.56248474121094,28.294748306274414 L94.1339111328125,28.11233139038086 L93.7053451538086,28.304182052612305 L93.27677154541016,27.948793411254883 L92.84820556640625,27.952707290649414 L92.41963195800781,28.356887817382812 L91.99105834960938,28.004175186157227 L91.56248474121094,28.393388748168945 L91.13391876220703,27.991291046142578 L90.7053451538086,27.753459930419922 L90.27677154541016,28.07135009765625 L89.84819793701172,27.903127670288086 L89.41963195800781,27.75271987915039 L88.99105834960938,27.73444175720215 L88.56248474121094,27.974180221557617 L88.1339111328125,27.614418029785156 L87.7053451538086,28.075902938842773 L87.27677154541016,27.57517433166504 L86.84820556640625,27.816852569580078 L86.41963195800781,27.497394561767578 L85.99105834960938,27.716350555419922 L85.56248474121094,27.674327850341797 L85.13391876220703,27.749364852905273 L84.7053451538086,27.39548110961914 L84.27677154541016,27.49834442138672 L83.84820556640625,27.328067779541016 L83.41963195800781,27.277360916137695 L82.99105834960938,27.081279754638672 L82.56248474121094,27.381181716918945 L82.1339111328125,27.18133544921875 L81.7053451538086,27.112194061279297 L81.27677154541016,27.133167266845703 L80.84820556640625,26.916187286376953 L80.41963195800781,27.001087188720703 L79.99105834960938,27.131546020507812 L79.56248474121094,26.902751922607422 L79.13391876220703,26.55782127380371 L78.7053451538086,26.546833038330078 L78.27677154541016,26.621728897094727 L77.84819793701172,26.72277069091797 L77.41963195800781,26.588895797729492 L76.99105834960938,26.300872802734375 L76.56248474121094,26.402320861816406 L76.1339111328125,26.438426971435547 L75.7053451538086,26.197717666625977 L75.27677154541016,26.460712432861328 L74.84819793701172,26.10875129699707 L74.41962432861328,26.265098571777344 L73.99105834960938,25.71707534790039 L73.56248474121094,25.88425064086914 L73.13391876220703,25.833602905273438 L72.7053451538086,25.6263484954834 L72.27677154541016,25.813941955566406 L71.84819793701172,25.66985321044922 L71.41963195800781,25.378643035888672 L70.99105834960938,25.902685165405273 L70.56248474121094,25.56288719177246 L70.1339111328125,25.42877197265625 L69.7053451538086,25.493349075317383 L69.27677154541016,25.593229293823242 L68.84820556640625,25.376840591430664 L68.41962432861328,25.152145385742188 L67.99105834960938,25.176774978637695 L67.56248474121094,25.51338768005371 L67.13391876220703,25.287273406982422 L66.7053451538086,25.5306339263916 L66.27677154541016,25.52985382080078 L65.84819793701172,25.249176025390625 L65.41963195800781,25.059377670288086 L64.99105834960938,25.491283416748047 L64.56248474121094,25.444400787353516 L64.1339111328125,25.289508819580078 L63.70534133911133,25.291322708129883 L63.27676773071289,25.414306640625 L62.84819793701172,25.21607780456543 L62.41962432861328,25.115503311157227 L61.99105453491211,24.96965789794922 L61.56248474121094,25.0114688873291 L61.1339111328125,25.506484985351562 L60.70534133911133,25.35991096496582 L60.27676773071289,25.56056785583496 L59.84819793701172,25.377933502197266 L59.41962814331055,25.159767150878906 L58.99105453491211,25.327878952026367 L58.56248474121094,25.219560623168945 L58.1339111328125,25.404043197631836 L57.70534133911133,25.289270401000977 L57.27676773071289,25.273677825927734 L56.84819793701172,25.712501525878906 L56.41962814331055,25.387004852294922 L55.99105453491211,25.571407318115234 L55.56248474121094,26.03923797607422 L55.1339111328125,26.047487258911133 L54.70534133911133,26.111400604248047 L54.27676773071289,25.922712326049805 L53.84819793701172,26.112293243408203 L53.41962814331055,25.903156280517578 L52.99105453491211,26.376136779785156 L52.56248474121094,26.15099334716797 L52.1339111328125,26.383899688720703 L51.70534133911133,26.168840408325195 L51.27676773071289,26.22273826599121 L50.84819793701172,26.697912216186523 L50.41962814331055,26.450664520263672 L49.99105453491211,26.80086898803711 L49.56248474121094,27.044523239135742 L49.133914947509766,26.977916717529297 L48.70534133911133,27.187828063964844 L48.27676773071289,27.38987922668457 L47.84819793701172,27.34953498840332 L47.41962814331055,27.571853637695312 L46.99105453491211,27.34457778930664 L46.56248474121094,27.47142219543457 L46.133914947509766,27.839941024780273 L45.70534133911133,27.897666931152344 L45.276771545410156,28.02328109741211 L44.84819793701172,28.176712036132812 L44.41962814331055,28.193519592285156 L43.991058349609375,28.19879150390625 L43.56248474121094,27.94830322265625 L43.133914947509766,28.46603775024414 L42.70534133911133,28.639659881591797 L42.276771545410156,28.677892684936523 L41.84819793701172,28.369966506958008 L41.41962814331055,28.772205352783203 L40.99105453491211,29.01030731201172 L40.56248474121094,28.997770309448242 L40.1339111328125,29.083784103393555 L39.70534133911133,28.940811157226562 L39.276771545410156,29.295307159423828 L38.84819793701172,28.942867279052734 L38.41962814331055,29.0594539642334 L37.99105453491211,29.457969665527344 L37.56248474121094,29.24753189086914 L37.1339111328125,29.439109802246094 L36.70534133911133,29.704345703125 L36.276771545410156,29.760160446166992 L35.84819793701172,29.297775268554688 L35.41962814331055,29.818893432617188 L34.99105453491211,29.56458854675293 L34.56248474121094,29.907588958740234 L34.1339111328125,29.668861389160156 L33.70534133911133,29.53101921081543 L33.276771545410156,30.083648681640625 L32.84819793701172,29.60277557373047 L32.41962814331055,30.074718475341797 L31.99105453491211,29.869125366210938 L31.562484741210938,30.15530014038086 L31.1339111328125,29.600820541381836 L30.705341339111328,29.918615341186523 L30.276769638061523,29.97951889038086 L29.84819793701172,29.770885467529297 L29.419628143310547,29.648386001586914 L28.99105453491211,29.67592430114746 L28.562484741210938,29.985639572143555 L28.133913040161133,29.58380126953125 L27.705341339111328,29.57857894897461 L27.276771545410156,29.733041763305664 L26.84819793701172,29.647167205810547 L26.419628143310547,29.715137481689453 L25.99105453491211,29.91947364807129 L25.562484741210938,29.707313537597656 L25.1339111328125,29.393024444580078 L24.705341339111328,29.765836715698242 L24.276769638061523,29.39569664001465 L23.84819793701172,29.411794662475586 L23.419628143310547,29.289073944091797 L22.99105453491211,28.92225456237793 L22.562484741210938,28.988048553466797 L22.133913040161133,29.26249885559082 L21.705341339111328,29.207517623901367 L21.276769638061523,29.091991424560547 L20.84819793701172,29.049955368041992 L20.419626235961914,28.565622329711914 L19.99105453491211,28.422250747680664 L19.600921630859375,27.137813568115234 L19.193363189697266,27.217132568359375 L18.797760009765625,27.151126861572266 L18.487241744995117,26.8089542388916 L18.03990936279297,26.89117431640625 L17.727375030517578,26.6234130859375 L17.325593948364258,26.53032875061035 L17.002155303955078,26.2945613861084 L16.667863845825195,26.0716495513916 L16.50853729248047,25.663209915161133 L16.10277557373047,25.501598358154297 L16.033044815063477,25.05635643005371 L15.696802139282227,24.812213897705078 L15.505616188049316,24.466136932373047 L15.38282585144043,24.0894832611084 L15.160085678100586,23.750368118286133 L15.14268684387207,23.344682693481445 L15,22.97119903564453 L15.071451187133789,22.567873001098633 L15.030923843383789,22.180692672729492 L15.114051818847656,21.796863555908203 L15.167131423950195,21.416658401489258 L15.243154525756836,21.040822982788086 L15.237430572509766,20.636146545410156 L15.368067741394043,20.265789031982422 L15.575701713562012,19.930957794189453 L15.735913276672363,19.573137283325195 L15.901069641113281,19.209142684936523 L16.267974853515625,19.000879287719727 L16.428537368774414,18.618173599243164 L16.690227508544922,18.31591796875 L17.07801055908203,18.171228408813477 L17.329273223876953,17.837055206298828 L17.658447265625,17.60268783569336 L18.0961856842041,17.606069564819336 L18.465911865234375,17.48678207397461 L18.839170455932617,17.382747650146484 L19.213130950927734,17.269067764282227 L19.597496032714844,17.1800537109375 Z"/><path fill="rgba(255,255,255,0)" stroke="#2196f3" stroke-width="0.3" d="M54.70534133911133,18.372806549072266 L79.13391876220703,15.238463401794434 L94.99105834960938,15.96273136138916 L109.99105834960938,19.34796905517578 L110.39402770996094,17.060516357421875 L113.84060668945312,18.89286994934082 L115.05831909179688,22.98326873779297 L109.56248474121094,28.069866180419922 L91.56248474121094,28.393388748168945 L68.41962432861328,25.152145385742188 L50.41962814331055,26.450664520263672 L39.276771545410156,29.295307159423828 L20.84819793701172,29.049955368041992 L15.505616188049316,24.466136932373047 L15.237430572509766,20.636146545410156 L17.658447265625,17.60268783569336 Z"/><polyline points="17.980031967163086,22.84080696105957 18.27078628540039,22.788198471069336 18.535236358642578,22.646541595458984 18.674423217773438,22.541316986083984 18.973346710205078,22.369266510009766 19.40005111694336,22.188478469848633 19.421051025390625,22.17637062072754 19.54700469970703,22.168167114257812 19.75246810913086,22.093477249145508 19.941198348999023,21.941696166992188 20.131500244140625,21.948486328125 20.58608055114746,22.222915649414062 20.78327178955078,22.228851318359375 21.08702850341797,22.279233932495117 21.53063201904297,22.132661819458008 21.792888641357422,22.18509864807129 22.41082763671875,22.039522171020508 22.63481330871582,22.097671508789062 23.606597900390625,23.57211685180664 23.848709106445312,23.65424346923828 24.00946807861328,23.588706970214844 24.864253997802734,22.913036346435547 25.345417022705078,22.91565704345703 26.02407455444336,23.531415939331055 27.286678314208984,23.747028350830078 28.864063262939453,23.52289390563965 28.980140686035156,23.534496307373047 29.16340446472168,23.610130310058594 31.168739318847656,23.743261337280273 32.03256607055664,23.100223541259766 32.220191955566406,23.12580680847168 32.8811149597168,22.525171279907227 32.90517044067383,22.527597427368164 33.78140640258789,22.793684005737305 34.11565017700195,23.023517608642578 35.65114974975586,22.61522102355957 36.732421875,23.343299865722656 37.2908821105957,23.342260360717773 37.35414123535156,23.41050910949707 37.41740036010742,23.478757858276367 37.59657287597656,23.539703369140625 37.66526794433594,23.518896102905273 37.963985443115234,23.56234359741211 38.68832778930664,23.241485595703125 39.21111297607422,23.28200340270996 39.55418395996094,23.465816497802734 40.72288513183594,23.412033081054688 41.4852409362793,22.823244094848633 41.57119369506836,22.825885772705078 41.941650390625,23.059268951416016 42.05563735961914,23.037506103515625 42.60702896118164,22.542692184448242 43.11594772338867,22.528642654418945 43.549102783203125,22.626998901367188 44.04493713378906,22.87943458557129 44.65934753417969,23.021642684936523 45.609615325927734,22.847850799560547 45.65659713745117,22.8524112701416 45.86207962036133,22.81108283996582 47.40903091430664,23.175079345703125 47.72894287109375,23.402870178222656 47.78517150878906,23.411235809326172 48.455413818359375,22.96249008178711 48.52688980102539,22.976356506347656 48.56727981567383,22.998214721679688 48.671024322509766,23.006155014038086 50.06736755371094,22.1073055267334 50.1539306640625,22.110097885131836 50.96940231323242,22.7795352935791 51.71535110473633,23.063026428222656 51.80582809448242,23.01472282409668 51.84870529174805,22.98027992248535 52.676761627197266,22.046878814697266 52.88059997558594,22.005380630493164 53.5234260559082,22.413799285888672 53.918601989746094,22.35946273803711 54.273433685302734,22.13108253479004 54.68342590332031,22.06648063659668 54.73748779296875,22.077531814575195 55.81123733520508,21.849924087524414 55.9509162902832,21.77267074584961 56.75718307495117,21.72348403930664 56.87648010253906,21.64942169189453 57.3455696105957,21.636457443237305 57.47804641723633,21.713796615600586 57.68052673339844,21.75936508178711 58.13809585571289,21.759605407714844 58.21009063720703,21.72835350036621 58.28208541870117,21.697099685668945 58.75920486450195,21.65857696533203 58.7700080871582,21.654338836669922 58.78081130981445,21.650100708007812 59.53972625732422,21.758363723754883 59.58584976196289,21.73707389831543 60.17747497558594,21.731081008911133 60.97056579589844,21.490793228149414 62.055809020996094,21.50164222717285 62.248043060302734,21.405597686767578 62.40494918823242,21.398393630981445 62.704811096191406,21.448862075805664 63.39568328857422,21.71158218383789 63.515289306640625,21.750507354736328 63.58313751220703,21.733551025390625 63.69060516357422,21.69281768798828 64.3316879272461,21.089866638183594 64.66166687011719,21.035371780395508 65.65873718261719,21.50406837463379 66.4000015258789,21.365324020385742 66.72614288330078,21.11710548400879 67.07360076904297,21.112438201904297 67.24761199951172,21.204647064208984 67.42162322998047,21.29685401916504 67.88212585449219,21.312410354614258 69.21611022949219,20.98882293701172 69.31407165527344,21.00792694091797 69.59358978271484,21.147472381591797 70.35263061523438,20.977005004882812 70.73226928710938,20.645811080932617 71.13921356201172,20.654468536376953 71.83959197998047,21.131309509277344 72.53997039794922,21.608152389526367 72.74122619628906,21.626934051513672 72.78311157226562,21.5930233001709 73.56234741210938,21.39445686340332 74.10623168945312,20.97174835205078 75.21757507324219,21.243650436401367 75.80823516845703,21.95737075805664 75.9298095703125,22.05604362487793 76.86603546142578,21.858436584472656 77.92228698730469,21.166244506835938 78.6106948852539,21.049161911010742 78.94229888916016,21.152141571044922 78.99840545654297,21.195911407470703 79.20728302001953,21.279300689697266 81.12049865722656,21.14357566833496 81.28794860839844,21.18727684020996 81.64442443847656,21.121910095214844 81.76824188232422,21.140718460083008 82.42593383789062,20.871232986450195 82.85383605957031,20.927593231201172 83.37712860107422,21.030122756958008 84.61239624023438,21.361682891845703 84.63141632080078,21.375516891479492 86.00126647949219,21.793935775756836 86.1048812866211,21.892292022705078 86.88023376464844,22.031816482543945 86.93070983886719,22.0773983001709 87.0103530883789,22.077695846557617 87.74678039550781,21.343645095825195 89.15265655517578,21.309724807739258 89.63858032226562,21.706470489501953 90.30789947509766,21.71749496459961 90.4999771118164,21.845788955688477 90.82566833496094,21.853492736816406 90.93894958496094,21.93851089477539 91.62982177734375,21.953609466552734 91.84020233154297,21.801753997802734 93.36415100097656,21.935794830322266 93.6986312866211,22.274024963378906 93.98119354248047,22.342456817626953 94.08515930175781,22.31368064880371 94.8080825805664,22.415748596191406 94.98657989501953,22.35997772216797 95.83747863769531,22.386882781982422 96.44831085205078,22.108030319213867 97.90250396728516,21.767616271972656 98.36579132080078,22.014995574951172 99.25331115722656,22.39698600769043 99.65567016601562,22.263545989990234 100.39320373535156,22.206636428833008 100.57937622070312,22.138893127441406 101.4140396118164,22.492725372314453 101.921142578125,22.262866973876953 102.3775863647461,22.072982788085938 102.59329986572266,22.15810203552246 104.12613677978516,23.18776512145996 104.26089477539062,23.196426391601562 104.98050689697266,22.8697566986084 105.26140594482422,22.79493522644043 105.5539321899414,22.852712631225586 105.59469604492188,22.897789001464844 105.89822387695312,22.908607482910156 105.913330078125,22.92190933227539 106.79489135742188,23.173500061035156 107.53917694091797,22.932464599609375 108.20367431640625,22.839338302612305 108.61931610107422,23.102834701538086 109.04531860351562,22.9639892578125 109.05000305175781,22.961793899536133 110.20361328125,23.132240295410156 110.3905029296875,23.080411911010742 110.74755096435547,23.115535736083984 110.92434692382812,23.033510208129883 111.18870544433594,22.879316329956055 111.23458862304688,22.85624122619629 111.23856353759766,22.8531494140625 111.35669708251953,22.680431365966797 112.22911834716797,22.06633758544922 112.24886322021484,21.989093780517578 112.17967987060547,21.479188919067383 112.21334075927734,21.239280700683594 112.00395202636719,20.807504653930664 111.98186492919922,20.104066848754883 111.78593444824219,19.762704849243164 111.70307159423828,19.454580307006836 111.40834045410156,19.026479721069336 111.2870101928711,18.443035125732422 110.9638671875,18.07129669189453 110.6781005859375,17.445669174194336" fill="none" stroke="#dd3333" stroke-width="0.6" stroke-linecap="round" stroke-linejoin="round"/><polyline points="19.736310958862305,22.036876678466797 19.94426918029785,22.23486328125 22.984725952148438,23.396268844604492 38.60719299316406,23.66263771057129 49.75849914550781,22.3792724609375 54.912479400634766,22.247222900390625 68.56307220458984,20.880184173583984 79.36780548095703,20.942523956298828 91.94379425048828,22.107807159423828 94.1597671508789,22.13846778869629 107.73596954345703,23.52801513671875 112.00921630859375,22.380294799804688 112.11937713623047,22.17826271057129 112.0162124633789,20.385616302490234" fill="none" stroke="#2196f3" stroke-width="0.6" stroke-linecap="round" stroke-linejoin="round"/></svg>