<svg xmlns="http://www.w3.org/2000/svg" width="60" height="78" viewBox="0 0 60 78"><path fill="#e8edff" stroke="#4466aa" stroke-width="0.3" d="M23,63 L21,53 L17,49 L15,33 L17,31 L19,33 L21,45 L22,41 L21,23 L23,21 L25,23 L26,41 L27,37 L27,17 L29,15 L31,17 L31,37 L32,39 L33,23 L35,21 L37,23 L36,41 L37,43 L43,37 L45,37 L45,41 L39,47 L37,51 L35,63 Z"/><line x1="16.999998092651367" y1="33.73077392578125" x2="17.129629135131836" y2="33.870365142822266" stroke="#dd3333" stroke-width="0.25" stroke-linecap="round"/><line x1="17.129629135131836" y1="33.870365142822266" x2="17.25643539428711" y2="34.17152786254883" stroke="#dd3333" stroke-width="0.25" stroke-linecap="round"/><line x1="17.228818893432617" y1="35.158905029296875" x2="17.25643539428711" y2="34.17152786254883" stroke="#dd3333" stroke-width="0.25" stroke-linecap="round"/><line x1="17.228818893432617" y1="35.158905029296875" x2="17.508888244628906" y2="35.89136505126953" stroke="#dd3333" stroke-width="0.25" stroke-linecap="round"/><line x1="17.461570739746094" y1="36.75481414794922" x2="17.508888244628906" y2="35.89136505126953" stroke="#dd3333" stroke-width="0.25" stroke-linecap="round"/><line x1="17.461570739746094" y1="36.75481414794922" x2="17.757532119750977" y2="37.611846923828125" stroke="#dd3333" stroke-width="0.25" stroke-linecap="round"/><line x1="17.698062896728516" y1="38.35023498535156" x2="17.757532119750977" y2="37.611846923828125" stroke="#dd3333" stroke-width="0.25" stroke-linecap="round"/><line x1="17.698062896728516" y1="38.35023498535156" x2="18.00255012512207" y2="39.332916259765625" stroke="#dd3333" stroke-width="0.25" stroke-linecap="round"/><line x1="17.938091278076172" y1="39.94526672363281" x2="18.00255012512207" y2="39.332916259765625" stroke="#dd3333" stroke-width="0.25" stroke-linecap="round"/><line x1="17.938091278076172" y1="39.94526672363281" x2="18.24411392211914" y2="41.054534912109375" stroke="#dd3333" stroke-width="0.25" stroke-linecap="round"/><line x1="18.181503295898438" y1="41.539798736572266" x2="18.24411392211914" y2="41.054534912109375" stroke="#dd3333" stroke-width="0.25" stroke-linecap="round"/><line x1="18.181503295898438" y1="41.539798736572266" x2="18.48236846923828" y2="42.77674865722656" stroke="#dd3333" stroke-width="0.25" stroke-linecap="round"/><line x1="18.4281063079834" y1="43.13401412963867" x2="18.48236846923828" y2="42.77674865722656" stroke="#dd3333" stroke-width="0.25" stroke-linecap="round"/><line x1="21.444469451904297" y1="48.555564880371094" x2="19.766674041748047" y2="47.71665573120117" stroke="#dd3333" stroke-width="0.25" stroke-linecap="round"/><line x1="19.766674041748047" y1="47.71665573120117" x2="18.96666145324707" y2="46.31667709350586" stroke="#dd3333" stroke-width="0.25" stroke-linecap="round"/><line x1="18.96666145324707" y1="46.31667709350586" x2="18.677770614624023" y2="44.72779846191406" stroke="#dd3333" stroke-width="0.25" stroke-linecap="round"/><line x1="18.4281063079834" y1="43.13401412963867" x2="18.717485427856445" y2="44.49945831298828" stroke="#dd3333" stroke-width="0.25" stroke-linecap="round"/><line x1="18.677770614624023" y1="44.72779846191406" x2="18.717485427856445" y2="44.49945831298828" stroke="#dd3333" stroke-width="0.25" stroke-linecap="round"/><line x1="21.444469451904297" y1="48.555564880371094" x2="23.666656494140625" y2="48.999996185302734" stroke="#dd3333" stroke-width="0.25" stroke-linecap="round"/><line x1="18.717485427856445" y1="44.49945831298828" x2="21.435691833496094" y2="44.046417236328125" stroke="#dd3333" stroke-width="0.25" stroke-linecap="round"/><line x1="23" y1="23.819747924804688" x2="23.085695266723633" y2="23.914302825927734" stroke="#dd3333" stroke-width="0.25" stroke-linecap="round"/><line x1="23.085695266723633" y1="23.914302825927734" x2="23.090909957885742" y2="23.926769256591797" stroke="#dd3333" stroke-width="0.25" stroke-linecap="round"/><line x1="23.090909957885742" y1="25.345962524414062" x2="23.090909957885742" y2="23.926769256591797" stroke="#dd3333" stroke-width="0.25" stroke-linecap="round"/><line x1="23.090909957885742" y1="25.345962524414062" x2="23.181819915771484" y2="25.563133239746094" stroke="#dd3333" stroke-width="0.25" stroke-linecap="round"/><line x1="23.18181800842285" y1="26.982315063476562" x2="23.181819915771484" y2="25.563133239746094" stroke="#dd3333" stroke-width="0.25" stroke-linecap="round"/><line x1="23.18181800842285" y1="26.982315063476562" x2="23.27273178100586" y2="27.199491500854492" stroke="#dd3333" stroke-width="0.25" stroke-linecap="round"/><line x1="23.27272605895996" y1="28.61869239807129" x2="23.27273178100586" y2="27.199491500854492" stroke="#dd3333" stroke-width="0.25" stroke-linecap="round"/><line x1="23.27272605895996" y1="28.61869239807129" x2="23.363636016845703" y2="28.835857391357422" stroke="#dd3333" stroke-width="0.25" stroke-linecap="round"/><line x1="23.363632202148438" y1="30.255054473876953" x2="23.363636016845703" y2="28.835857391357422" stroke="#dd3333" stroke-width="0.25" stroke-linecap="round"/><line x1="23.363632202148438" y1="30.255054473876953" x2="23.454544067382812" y2="30.47222137451172" stroke="#dd3333" stroke-width="0.25" stroke-linecap="round"/><line x1="23.454544067382812" y1="31.89141845703125" x2="23.454544067382812" y2="30.47222137451172" stroke="#dd3333" stroke-width="0.25" stroke-linecap="round"/><line x1="23.454544067382812" y1="31.89141845703125" x2="23.545454025268555" y2="32.10858917236328" stroke="#dd3333" stroke-width="0.25" stroke-linecap="round"/><line x1="23.545455932617188" y1="33.527774810791016" x2="23.545454025268555" y2="32.10858917236328" stroke="#dd3333" stroke-width="0.25" stroke-linecap="round"/><line x1="23.545455932617188" y1="33.527774810791016" x2="23.63636589050293" y2="33.744930267333984" stroke="#dd3333" stroke-width="0.25" stroke-linecap="round"/><line x1="23.636363983154297" y1="35.16416549682617" x2="23.63636589050293" y2="33.744930267333984" stroke="#dd3333" stroke-width="0.25" stroke-linecap="round"/><line x1="23.636363983154297" y1="35.16416549682617" x2="23.72726821899414" y2="35.381317138671875" stroke="#dd3333" stroke-width="0.25" stroke-linecap="round"/><line x1="23.727272033691406" y1="36.80048751831055" x2="23.72726821899414" y2="35.381317138671875" stroke="#dd3333" stroke-width="0.25" stroke-linecap="round"/><line x1="23.727272033691406" y1="36.80048751831055" x2="23.818187713623047" y2="37.017669677734375" stroke="#dd3333" stroke-width="0.25" stroke-linecap="round"/><line x1="23.818185806274414" y1="38.436859130859375" x2="23.818187713623047" y2="37.017669677734375" stroke="#dd3333" stroke-width="0.25" stroke-linecap="round"/><line x1="23.818185806274414" y1="38.436859130859375" x2="23.909095764160156" y2="38.65403747558594" stroke="#dd3333" stroke-width="0.25" stroke-linecap="round"/><line x1="23.909095764160156" y1="40.07323455810547" x2="23.909095764160156" y2="38.65403747558594" stroke="#dd3333" stroke-width="0.25" stroke-linecap="round"/><line x1="23.666656494140625" y1="48.999996185302734" x2="28.299999237060547" y2="49" stroke="#dd3333" stroke-width="0.25" stroke-linecap="round"/><line x1="21.435691833496094" y1="44.046417236328125" x2="25.0625" y2="44.953125" stroke="#dd3333" stroke-width="0.25" stroke-linecap="round"/><line x1="28.299999237060547" y1="49" x2="25.0625" y2="44.953125" stroke="#dd3333" stroke-width="0.25" stroke-linecap="round"/><line x1="25.0625" y1="44.953125" x2="24" y2="42.5625" stroke="#dd3333" stroke-width="0.25" stroke-linecap="round"/><line x1="23.909095764160156" y1="40.07323455810547" x2="24.000001907348633" y2="40.290409088134766" stroke="#dd3333" stroke-width="0.25" stroke-linecap="round"/><line x1="24" y1="42.5625" x2="24.000001907348633" y2="40.290409088134766" stroke="#dd3333" stroke-width="0.25" stroke-linecap="round"/><line x1="23.909095764160156" y1="38.65403747558594" x2="25.81463623046875" y2="38.54815673828125" stroke="#dd3333" stroke-width="0.25" stroke-linecap="round"/><line x1="24.000001907348633" y1="40.290409088134766" x2="26.79132080078125" y2="40.13533020019531" stroke="#dd3333" stroke-width="0.25" stroke-linecap="round"/><line x1="25.81463623046875" y1="38.54815673828125" x2="26.79132080078125" y2="40.13533020019531" stroke="#dd3333" stroke-width="0.25" stroke-linecap="round"/><line x1="25.81463623046875" y1="38.54815673828125" x2="26.809906005859375" y2="38.014976501464844" stroke="#dd3333" stroke-width="0.25" stroke-linecap="round"/><line x1="29.000003814697266" y1="17.89583396911621" x2="29.000003814697266" y2="17.895835876464844" stroke="#dd3333" stroke-width="0.25" stroke-linecap="round"/><line x1="29.000003814697266" y1="17.89583396911621" x2="29.000001907348633" y2="19.499998092651367" stroke="#dd3333" stroke-width="0.25" stroke-linecap="round"/><line x1="29" y1="19.5" x2="29.000001907348633" y2="19.499998092651367" stroke="#dd3333" stroke-width="0.25" stroke-linecap="round"/><line x1="29" y1="19.5" x2="29" y2="21.166669845581055" stroke="#dd3333" stroke-width="0.25" stroke-linecap="round"/><line x1="29" y1="21.166667938232422" x2="29" y2="21.166669845581055" stroke="#dd3333" stroke-width="0.25" stroke-linecap="round"/><line x1="29" y1="21.166667938232422" x2="29" y2="22.833328247070312" stroke="#dd3333" stroke-width="0.25" stroke-linecap="round"/><line x1="28.999996185302734" y1="22.833335876464844" x2="29" y2="22.833328247070312" stroke="#dd3333" stroke-width="0.25" stroke-linecap="round"/><line x1="28.999996185302734" y1="22.833335876464844" x2="28.999996185302734" y2="24.499998092651367" stroke="#dd3333" stroke-width="0.25" stroke-linecap="round"/><line x1="28.999996185302734" y1="24.500003814697266" x2="28.999996185302734" y2="24.499998092651367" stroke="#dd3333" stroke-width="0.25" stroke-linecap="round"/><line x1="28.999996185302734" y1="24.500003814697266" x2="28.9999942779541" y2="26.166671752929688" stroke="#dd3333" stroke-width="0.25" stroke-linecap="round"/><line x1="29.000001907348633" y1="26.16666030883789" x2="28.9999942779541" y2="26.166671752929688" stroke="#dd3333" stroke-width="0.25" stroke-linecap="round"/><line x1="29" y1="29.499998092651367" x2="29" y2="27.833335876464844" stroke="#dd3333" stroke-width="0.25" stroke-linecap="round"/><line x1="29.000001907348633" y1="26.16666030883789" x2="29.000001907348633" y2="27.83333396911621" stroke="#dd3333" stroke-width="0.25" stroke-linecap="round"/><line x1="29" y1="27.833335876464844" x2="29.000001907348633" y2="27.83333396911621" stroke="#dd3333" stroke-width="0.25" stroke-linecap="round"/><line x1="29" y1="29.499998092651367" x2="29.000003814697266" y2="29.499996185302734" stroke="#dd3333" stroke-width="0.25" stroke-linecap="round"/><line x1="29" y1="31.166667938232422" x2="29.000003814697266" y2="29.499996185302734" stroke="#dd3333" stroke-width="0.25" stroke-linecap="round"/><line x1="29" y1="31.166667938232422" x2="28.999998092651367" y2="31.166669845581055" stroke="#dd3333" stroke-width="0.25" stroke-linecap="round"/><line x1="28.999998092651367" y1="31.166669845581055" x2="28.999998092651367" y2="32.83333206176758" stroke="#dd3333" stroke-width="0.25" stroke-linecap="round"/><line x1="29.000001907348633" y1="32.83333206176758" x2="28.999998092651367" y2="32.83333206176758" stroke="#dd3333" stroke-width="0.25" stroke-linecap="round"/><line x1="29.000001907348633" y1="32.83333206176758" x2="28.999996185302734" y2="34.50000762939453" stroke="#dd3333" stroke-width="0.25" stroke-linecap="round"/><line x1="26.809906005859375" y1="38.014976501464844" x2="29" y2="38.5625" stroke="#dd3333" stroke-width="0.25" stroke-linecap="round"/><line x1="29" y1="38.5625" x2="29.000001907348633" y2="36.166656494140625" stroke="#dd3333" stroke-width="0.25" stroke-linecap="round"/><line x1="28.999996185302734" y1="34.50000762939453" x2="28.99999237060547" y2="36.166656494140625" stroke="#dd3333" stroke-width="0.25" stroke-linecap="round"/><line x1="29.000001907348633" y1="36.166656494140625" x2="28.99999237060547" y2="36.166656494140625" stroke="#dd3333" stroke-width="0.25" stroke-linecap="round"/><line x1="26.79132080078125" y1="40.13533020019531" x2="29.25" y2="40.75" stroke="#dd3333" stroke-width="0.25" stroke-linecap="round"/><line x1="29" y1="38.5625" x2="29.25" y2="39.125" stroke="#dd3333" stroke-width="0.25" stroke-linecap="round"/><line x1="29.25" y1="40.75" x2="29.25" y2="39.125" stroke="#dd3333" stroke-width="0.25" stroke-linecap="round"/><line x1="29.25" y1="39.125" x2="31.20558738708496" y2="38.147239685058594" stroke="#dd3333" stroke-width="0.25" stroke-linecap="round"/><line x1="34.91085433959961" y1="23.92253875732422" x2="34.914306640625" y2="23.914318084716797" stroke="#dd3333" stroke-width="0.25" stroke-linecap="round"/><line x1="34.914306640625" y1="23.914318084716797" x2="35.00000762939453" y2="23.819744110107422" stroke="#dd3333" stroke-width="0.25" stroke-linecap="round"/><line x1="34.91085433959961" y1="23.92253875732422" x2="34.89796447753906" y2="25.345333099365234" stroke="#dd3333" stroke-width="0.25" stroke-linecap="round"/><line x1="34.82198715209961" y1="25.523256301879883" x2="34.89796447753906" y2="25.345333099365234" stroke="#dd3333" stroke-width="0.25" stroke-linecap="round"/><line x1="34.82198715209961" y1="25.523256301879883" x2="34.795616149902344" y2="26.981075286865234" stroke="#dd3333" stroke-width="0.25" stroke-linecap="round"/><line x1="34.733421325683594" y1="27.123981475830078" x2="34.795616149902344" y2="26.981075286865234" stroke="#dd3333" stroke-width="0.25" stroke-linecap="round"/><line x1="34.733421325683594" y1="27.123981475830078" x2="34.69298553466797" y2="28.616783142089844" stroke="#dd3333" stroke-width="0.25" stroke-linecap="round"/><line x1="34.6451416015625" y1="28.72467041015625" x2="34.69298553466797" y2="28.616783142089844" stroke="#dd3333" stroke-width="0.25" stroke-linecap="round"/><line x1="34.6451416015625" y1="28.72467041015625" x2="34.590087890625" y2="30.25249671936035" stroke="#dd3333" stroke-width="0.25" stroke-linecap="round"/><line x1="34.55712127685547" y1="30.325443267822266" x2="34.590087890625" y2="30.25249671936035" stroke="#dd3333" stroke-width="0.25" stroke-linecap="round"/><line x1="34.55712127685547" y1="30.325443267822266" x2="34.48689651489258" y2="31.888147354125977" stroke="#dd3333" stroke-width="0.25" stroke-linecap="round"/><line x1="34.469398498535156" y1="31.926191329956055" x2="34.48689651489258" y2="31.888147354125977" stroke="#dd3333" stroke-width="0.25" stroke-linecap="round"/><line x1="34.28171920776367" y1="35.126991271972656" x2="34.381927490234375" y2="33.5269775390625" stroke="#dd3333" stroke-width="0.25" stroke-linecap="round"/><line x1="34.469398498535156" y1="31.926191329956055" x2="34.38343811035156" y2="33.523834228515625" stroke="#dd3333" stroke-width="0.25" stroke-linecap="round"/><line x1="34.381927490234375" y1="33.5269775390625" x2="34.38343811035156" y2="33.523834228515625" stroke="#dd3333" stroke-width="0.25" stroke-linecap="round"/><line x1="34.28171920776367" y1="35.126991271972656" x2="34.29245376586914" y2="35.16020202636719" stroke="#dd3333" stroke-width="0.25" stroke-linecap="round"/><line x1="34.1805534362793" y1="36.72691345214844" x2="34.29245376586914" y2="35.16020202636719" stroke="#dd3333" stroke-width="0.25" stroke-linecap="round"/><line x1="31.20558738708496" y1="38.147239685058594" x2="34.07970428466797" y2="38.32685089111328" stroke="#dd3333" stroke-width="0.25" stroke-linecap="round"/><line x1="34.1805534362793" y1="36.72691345214844" x2="34.20240783691406" y2="36.796592712402344" stroke="#dd3333" stroke-width="0.25" stroke-linecap="round"/><line x1="34.07970428466797" y1="38.32685089111328" x2="34.20240783691406" y2="36.796592712402344" stroke="#dd3333" stroke-width="0.25" stroke-linecap="round"/><line x1="34.07970428466797" y1="38.32685089111328" x2="34.112022399902344" y2="38.432987213134766" stroke="#dd3333" stroke-width="0.25" stroke-linecap="round"/><line x1="34.112022399902344" y1="38.432987213134766" x2="33.966835021972656" y2="40.06634521484375" stroke="#dd3333" stroke-width="0.25" stroke-linecap="round"/><line x1="29.25" y1="40.75" x2="30.852941513061523" y2="45.55882263183594" stroke="#dd3333" stroke-width="0.25" stroke-linecap="round"/><line x1="33.966835021972656" y1="40.06634521484375" x2="31.83333396911621" y2="44.333335876464844" stroke="#dd3333" stroke-width="0.25" stroke-linecap="round"/><line x1="30.852941513061523" y1="45.55882263183594" x2="31.83333396911621" y2="44.333335876464844" stroke="#dd3333" stroke-width="0.25" stroke-linecap="round"/><line x1="43.399993896484375" y1="38.60000991821289" x2="44" y2="38" stroke="#dd3333" stroke-width="0.25" stroke-linecap="round"/><line x1="43.399993896484375" y1="38.60000991821289" x2="43.04999542236328" y2="40" stroke="#dd3333" stroke-width="0.25" stroke-linecap="round"/><line x1="43.04999542236328" y1="40" x2="42.93333435058594" y2="40.133331298828125" stroke="#dd3333" stroke-width="0.25" stroke-linecap="round"/><line x1="42.666629791259766" y1="40.26664733886719" x2="42.93333435058594" y2="40.133331298828125" stroke="#dd3333" stroke-width="0.25" stroke-linecap="round"/><line x1="42.666629791259766" y1="40.26664733886719" x2="41.733306884765625" y2="41.33331298828125" stroke="#dd3333" stroke-width="0.25" stroke-linecap="round"/><line x1="41.46665954589844" y1="41.46662902832031" x2="41.733306884765625" y2="41.33331298828125" stroke="#dd3333" stroke-width="0.25" stroke-linecap="round"/><line x1="41.46665954589844" y1="41.46662902832031" x2="40.533329010009766" y2="42.53336715698242" stroke="#dd3333" stroke-width="0.25" stroke-linecap="round"/><line x1="40.266666412353516" y1="42.666656494140625" x2="40.533329010009766" y2="42.53336715698242" stroke="#dd3333" stroke-width="0.25" stroke-linecap="round"/><line x1="40.266666412353516" y1="42.666656494140625" x2="39.333335876464844" y2="43.733314514160156" stroke="#dd3333" stroke-width="0.25" stroke-linecap="round"/><line x1="39.06665802001953" y1="43.86669921875" x2="39.333335876464844" y2="43.733314514160156" stroke="#dd3333" stroke-width="0.25" stroke-linecap="round"/><line x1="39.06665802001953" y1="43.86669921875" x2="38.13332748413086" y2="44.93333435058594" stroke="#dd3333" stroke-width="0.25" stroke-linecap="round"/><line x1="38.13332748413086" y1="44.93333435058594" x2="35.66667556762695" y2="46.166656494140625" stroke="#dd3333" stroke-width="0.25" stroke-linecap="round"/><line x1="35.66667556762695" y1="46.166656494140625" x2="33.44436264038086" y2="46.72224044799805" stroke="#dd3333" stroke-width="0.25" stroke-linecap="round"/><line x1="28.299999237060547" y1="49" x2="28.64285659790039" y2="49.14285659790039" stroke="#dd3333" stroke-width="0.25" stroke-linecap="round"/><line x1="30.852941513061523" y1="45.55882263183594" x2="30.59090805053711" y2="47" stroke="#dd3333" stroke-width="0.25" stroke-linecap="round"/><line x1="28.64285659790039" y1="49.14285659790039" x2="30.59090805053711" y2="47" stroke="#dd3333" stroke-width="0.25" stroke-linecap="round"/><line x1="33.44436264038086" y1="46.72224044799805" x2="30.666656494140625" y2="46.999908447265625" stroke="#dd3333" stroke-width="0.25" stroke-linecap="round"/><line x1="30.59090805053711" y1="47" x2="30.666656494140625" y2="46.999908447265625" stroke="#dd3333" stroke-width="0.25" stroke-linecap="round"/><line x1="28.64285659790039" y1="49.14285659790039" x2="28.814594268798828" y2="50.51676559448242" stroke="#dd3333" stroke-width="0.25" stroke-linecap="round"/><line x1="28.814594268798828" y1="50.51676559448242" x2="28.846721649169922" y2="52.28392791748047" stroke="#dd3333" stroke-width="0.25" stroke-linecap="round"/><line x1="28.845457077026367" y1="52.29757308959961" x2="28.846721649169922" y2="52.28392791748047" stroke="#dd3333" stroke-width="0.25" stroke-linecap="round"/><line x1="28.845457077026367" y1="52.29757308959961" x2="28.87271499633789" y2="54.025447845458984" stroke="#dd3333" stroke-width="0.25" stroke-linecap="round"/><line x1="28.87271499633789" y1="54.025447845458984" x2="28.875978469848633" y2="54.0507926940918" stroke="#dd3333" stroke-width="0.25" stroke-linecap="round"/><line x1="28.89838218688965" y1="55.7536506652832" x2="28.875978469848633" y2="54.0507926940918" stroke="#dd3333" stroke-width="0.25" stroke-linecap="round"/><line x1="34.14283752441406" y1="61.97621154785156" x2="32.42851638793945" y2="59.97602081298828" stroke="#dd3333" stroke-width="0.25" stroke-linecap="round"/><line x1="32.40468215942383" y1="59.9245719909668" x2="32.42851638793945" y2="59.97602081298828" stroke="#dd3333" stroke-width="0.25" stroke-linecap="round"/><line x1="32.40468215942383" y1="59.9245719909668" x2="30.71433448791504" y2="57.95246505737305" stroke="#dd3333" stroke-width="0.25" stroke-linecap="round"/><line x1="30.666637420654297" y1="57.87300491333008" x2="30.71433448791504" y2="57.95246505737305" stroke="#dd3333" stroke-width="0.25" stroke-linecap="round"/><line x1="28.89838218688965" y1="55.7536506652832" x2="28.903430938720703" y2="55.79209518432617" stroke="#dd3333" stroke-width="0.25" stroke-linecap="round"/><line x1="28.903430938720703" y1="55.79209518432617" x2="28.928680419921875" y2="55.8215217590332" stroke="#dd3333" stroke-width="0.25" stroke-linecap="round"/><line x1="30.666637420654297" y1="57.87300491333008" x2="28.999954223632812" y2="55.92848587036133" stroke="#dd3333" stroke-width="0.25" stroke-linecap="round"/><line x1="28.928680419921875" y1="55.8215217590332" x2="28.999954223632812" y2="55.92848587036133" stroke="#dd3333" stroke-width="0.25" stroke-linecap="round"/><line x1="28.903430938720703" y1="55.79209518432617" x2="27.285675048828125" y2="57.77971267700195" stroke="#dd3333" stroke-width="0.25" stroke-linecap="round"/><line x1="27.242084503173828" y1="57.8182373046875" x2="27.285675048828125" y2="57.77971267700195" stroke="#dd3333" stroke-width="0.25" stroke-linecap="round"/><line x1="27.242084503173828" y1="57.8182373046875" x2="25.571434020996094" y2="59.870765686035156" stroke="#dd3333" stroke-width="0.25" stroke-linecap="round"/><line x1="25.54222869873047" y1="59.89156723022461" x2="25.571434020996094" y2="59.870765686035156" stroke="#dd3333" stroke-width="0.25" stroke-linecap="round"/><line x1="25.54222869873047" y1="59.89156723022461" x2="23.85723114013672" y2="61.961849212646484" stroke="#dd3333" stroke-width="0.25" stroke-linecap="round"/><circle cx="16.999998092651367" cy="33.73077392578125" r="0.4" fill="#dd3333"/><circle cx="17.129629135131836" cy="33.870365142822266" r="0.4" fill="#dd3333"/><circle cx="17.25643539428711" cy="34.17152786254883" r="0.4" fill="#dd3333"/><circle cx="17.228818893432617" cy="35.158905029296875" r="0.4" fill="#dd3333"/><circle cx="17.508888244628906" cy="35.89136505126953" r="0.4" fill="#dd3333"/><circle cx="17.461570739746094" cy="36.75481414794922" r="0.4" fill="#dd3333"/><circle cx="17.757532119750977" cy="37.611846923828125" r="0.4" fill="#dd3333"/><circle cx="17.698062896728516" cy="38.35023498535156" r="0.4" fill="#dd3333"/><circle cx="18.00255012512207" cy="39.332916259765625" r="0.4" fill="#dd3333"/><circle cx="17.938091278076172" cy="39.94526672363281" r="0.4" fill="#dd3333"/><circle cx="18.24411392211914" cy="41.054534912109375" r="0.4" fill="#dd3333"/><circle cx="18.181503295898438" cy="41.539798736572266" r="0.4" fill="#dd3333"/><circle cx="18.48236846923828" cy="42.77674865722656" r="0.4" fill="#dd3333"/><circle cx="18.4281063079834" cy="43.13401412963867" r="0.4" fill="#dd3333"/><circle cx="21.444469451904297" cy="48.555564880371094" r="0.4" fill="#dd3333"/><circle cx="19.766674041748047" cy="47.71665573120117" r="0.4" fill="#dd3333"/><circle cx="18.96666145324707" cy="46.31667709350586" r="0.4" fill="#dd3333"/><circle cx="18.677770614624023" cy="44.72779846191406" r="0.4" fill="#dd3333"/><circle cx="18.717485427856445" cy="44.49945831298828" r="0.4" fill="#dd3333"/><circle cx="23.666656494140625" cy="48.999996185302734" r="0.4" fill="#dd3333"/><circle cx="21.435691833496094" cy="44.046417236328125" r="0.4" fill="#dd3333"/><circle cx="23" cy="23.819747924804688" r="0.4" fill="#dd3333"/><circle cx="23.085695266723633" cy="23.914302825927734" r="0.4" fill="#dd3333"/><circle cx="23.090909957885742" cy="23.926769256591797" r="0.4" fill="#dd3333"/><circle cx="23.090909957885742" cy="25.345962524414062" r="0.4" fill="#dd3333"/><circle cx="23.181819915771484" cy="25.563133239746094" r="0.4" fill="#dd3333"/><circle cx="23.18181800842285" cy="26.982315063476562" r="0.4" fill="#dd3333"/><circle cx="23.27273178100586" cy="27.199491500854492" r="0.4" fill="#dd3333"/><circle cx="23.27272605895996" cy="28.61869239807129" r="0.4" fill="#dd3333"/><circle cx="23.363636016845703" cy="28.835857391357422" r="0.4" fill="#dd3333"/><circle cx="23.363632202148438" cy="30.255054473876953" r="0.4" fill="#dd3333"/><circle cx="23.454544067382812" cy="30.47222137451172" r="0.4" fill="#dd3333"/><circle cx="23.454544067382812" cy="31.89141845703125" r="0.4" fill="#dd3333"/><circle cx="23.545454025268555" cy="32.10858917236328" r="0.4" fill="#dd3333"/><circle cx="23.545455932617188" cy="33.527774810791016" r="0.4" fill="#dd3333"/><circle cx="23.63636589050293" cy="33.744930267333984" r="0.4" fill="#dd3333"/><circle cx="23.636363983154297" cy="35.16416549682617" r="0.4" fill="#dd3333"/><circle cx="23.72726821899414" cy="35.381317138671875" r="0.4" fill="#dd3333"/><circle cx="23.727272033691406" cy="36.80048751831055" r="0.4" fill="#dd3333"/><circle cx="23.818187713623047" cy="37.017669677734375" r="0.4" fill="#dd3333"/><circle cx="23.818185806274414" cy="38.436859130859375" r="0.4" fill="#dd3333"/><circle cx="23.909095764160156" cy="38.65403747558594" r="0.4" fill="#dd3333"/><circle cx="23.909095764160156" cy="40.07323455810547" r="0.4" fill="#dd3333"/><circle cx="28.299999237060547" cy="49" r="0.4" fill="#dd3333"/><circle cx="25.0625" cy="44.953125" r="0.4" fill="#dd3333"/><circle cx="24" cy="42.5625" r="0.4" fill="#dd3333"/><circle cx="24.000001907348633" cy="40.290409088134766" r="0.4" fill="#dd3333"/><circle cx="25.81463623046875" cy="38.54815673828125" r="0.4" fill="#dd3333"/><circle cx="26.79132080078125" cy="40.13533020019531" r="0.4" fill="#dd3333"/><circle cx="26.809906005859375" cy="38.014976501464844" r="0.4" fill="#dd3333"/><circle cx="29.000003814697266" cy="17.89583396911621" r="0.4" fill="#dd3333"/><circle cx="29.000003814697266" cy="17.895835876464844" r="0.4" fill="#dd3333"/><circle cx="29.000001907348633" cy="19.499998092651367" r="0.4" fill="#dd3333"/><circle cx="29" cy="19.5" r="0.4" fill="#dd3333"/><circle cx="29" cy="21.166669845581055" r="0.4" fill="#dd3333"/><circle cx="29" cy="21.166667938232422" r="0.4" fill="#dd3333"/><circle cx="29" cy="22.833328247070312" r="0.4" fill="#dd3333"/><circle cx="28.999996185302734" cy="22.833335876464844" r="0.4" fill="#dd3333"/><circle cx="28.999996185302734" cy="24.499998092651367" r="0.4" fill="#dd3333"/><circle cx="28.999996185302734" cy="24.500003814697266" r="0.4" fill="#dd3333"/><circle cx="28.9999942779541" cy="26.166671752929688" r="0.4" fill="#dd3333"/><circle cx="29.000001907348633" cy="26.16666030883789" r="0.4" fill="#dd3333"/><circle cx="29" cy="29.499998092651367" r="0.4" fill="#dd3333"/><circle cx="29" cy="27.833335876464844" r="0.4" fill="#dd3333"/><circle cx="29.000001907348633" cy="27.83333396911621" r="0.4" fill="#dd3333"/><circle cx="29.000003814697266" cy="29.499996185302734" r="0.4" fill="#dd3333"/><circle cx="29" cy="31.166667938232422" r="0.4" fill="#dd3333"/><circle cx="28.999998092651367" cy="31.166669845581055" r="0.4" fill="#dd3333"/><circle cx="28.999998092651367" cy="32.83333206176758" r="0.4" fill="#dd3333"/><circle cx="29.000001907348633" cy="32.83333206176758" r="0.4" fill="#dd3333"/><circle cx="28.999996185302734" cy="34.50000762939453" r="0.4" fill="#dd3333"/><circle cx="29" cy="38.5625" r="0.4" fill="#dd3333"/><circle cx="29.000001907348633" cy="36.166656494140625" r="0.4" fill="#dd3333"/><circle cx="28.99999237060547" cy="36.166656494140625" r="0.4" fill="#dd3333"/><circle cx="29.25" cy="40.75" r="0.4" fill="#dd3333"/><circle cx="29.25" cy="39.125" r="0.4" fill="#dd3333"/><circle cx="31.20558738708496" cy="38.147239685058594" r="0.4" fill="#dd3333"/><circle cx="34.91085433959961" cy="23.92253875732422" r="0.4" fill="#dd3333"/><circle cx="34.914306640625" cy="23.914318084716797" r="0.4" fill="#dd3333"/><circle cx="35.00000762939453" cy="23.819744110107422" r="0.4" fill="#dd3333"/><circle cx="34.89796447753906" cy="25.345333099365234" r="0.4" fill="#dd3333"/><circle cx="34.82198715209961" cy="25.523256301879883" r="0.4" fill="#dd3333"/><circle cx="34.795616149902344" cy="26.981075286865234" r="0.4" fill="#dd3333"/><circle cx="34.733421325683594" cy="27.123981475830078" r="0.4" fill="#dd3333"/><circle cx="34.69298553466797" cy="28.616783142089844" r="0.4" fill="#dd3333"/><circle cx="34.6451416015625" cy="28.72467041015625" r="0.4" fill="#dd3333"/><circle cx="34.590087890625" cy="30.25249671936035" r="0.4" fill="#dd3333"/><circle cx="34.55712127685547" cy="30.325443267822266" r="0.4" fill="#dd3333"/><circle cx="34.48689651489258" cy="31.888147354125977" r="0.4" fill="#dd3333"/><circle cx="34.469398498535156" cy="31.926191329956055" r="0.4" fill="#dd3333"/><circle cx="34.28171920776367" cy="35.126991271972656" r="0.4" fill="#dd3333"/><circle cx="34.381927490234375" cy="33.5269775390625" r="0.4" fill="#dd3333"/><circle cx="34.38343811035156" cy="33.523834228515625" r="0.4" fill="#dd3333"/><circle cx="34.29245376586914" cy="35.16020202636719" r="0.4" fill="#dd3333"/><circle cx="34.1805534362793" cy="36.72691345214844" r="0.4" fill="#dd3333"/><circle cx="34.07970428466797" cy="38.32685089111328" r="0.4" fill="#dd3333"/><circle cx="34.20240783691406" cy="36.796592712402344" r="0.4" fill="#dd3333"/><circle cx="34.112022399902344" cy="38.432987213134766" r="0.4" fill="#dd3333"/><circle cx="33.966835021972656" cy="40.06634521484375" r="0.4" fill="#dd3333"/><circle cx="30.852941513061523" cy="45.55882263183594" r="0.4" fill="#dd3333"/><circle cx="31.83333396911621" cy="44.333335876464844" r="0.4" fill="#dd3333"/><circle cx="43.399993896484375" cy="38.60000991821289" r="0.4" fill="#dd3333"/><circle cx="44" cy="38" r="0.4" fill="#dd3333"/><circle cx="43.04999542236328" cy="40" r="0.4" fill="#dd3333"/><circle cx="42.93333435058594" cy="40.133331298828125" r="0.4" fill="#dd3333"/><circle cx="42.666629791259766" cy="40.26664733886719" r="0.4" fill="#dd3333"/><circle cx="41.733306884765625" cy="41.33331298828125" r="0.4" fill="#dd3333"/><circle cx="41.46665954589844" cy="41.46662902832031" r="0.4" fill="#dd3333"/><circle cx="40.533329010009766" cy="42.53336715698242" r="0.4" fill="#dd3333"/><circle cx="40.266666412353516" cy="42.666656494140625" r="0.4" fill="#dd3333"/><circle cx="39.333335876464844" cy="43.733314514160156" r="0.4" fill="#dd3333"/><circle cx="39.06665802001953" cy="43.86669921875" r="0.4" fill="#dd3333"/><circle cx="38.13332748413086" cy="44.93333435058594" r="0.4" fill="#dd3333"/><circle cx="35.66667556762695" cy="46.166656494140625" r="0.4" fill="#dd3333"/><circle cx="33.44436264038086" cy="46.72224044799805" r="0.4" fill="#dd3333"/><circle cx="28.64285659790039" cy="49.14285659790039" r="0.4" fill="#dd3333"/><circle cx="30.59090805053711" cy="47" r="0.4" fill="#dd3333"/><circle cx="30.666656494140625" cy="46.999908447265625" r="0.4" fill="#dd3333"/><circle cx="28.814594268798828" cy="50.51676559448242" r="0.4" fill="#dd3333"/><circle cx="28.846721649169922" cy="52.28392791748047" r="0.4" fill="#dd3333"/><circle cx="28.845457077026367" cy="52.29757308959961" r="0.4" fill="#dd3333"/><circle cx="28.87271499633789" cy="54.025447845458984" r="0.4" fill="#dd3333"/><circle cx="28.875978469848633" cy="54.0507926940918" r="0.4" fill="#dd3333"/><circle cx="28.89838218688965" cy="55.7536506652832" r="0.4" fill="#dd3333"/><circle cx="34.14283752441406" cy="61.97621154785156" r="0.4" fill="#dd3333"/><circle cx="32.42851638793945" cy="59.97602081298828" r="0.4" fill="#dd3333"/><circle cx="32.40468215942383" cy="59.9245719909668" r="0.4" fill="#dd3333"/><circle cx="30.71433448791504" cy="57.95246505737305" r="0.4" fill="#dd3333"/><circle cx="30.666637420654297" cy="57.87300491333008" r="0.4" fill="#dd3333"/><circle cx="28.903430938720703" cy="55.79209518432617" r="0.4" fill="#dd3333"/><circle cx="28.928680419921875" cy="55.8215217590332" r="0.4" fill="#dd3333"/><circle cx="28.999954223632812" cy="55.92848587036133" r="0.4" fill="#dd3333"/><circle cx="27.285675048828125" cy="57.77971267700195" r="0.4" fill="#dd3333"/><circle cx="27.242084503173828" cy="57.8182373046875" r="0.4" fill="#dd3333"/><circle cx="25.571434020996094" cy="59.870765686035156" r="0.4" fill="#dd3333"/><circle cx="25.54222869873047" cy="59.89156723022461" r="0.4" fill="#dd3333"/><circle cx="23.85723114013672" cy="61.961849212646484" r="0.4" fill="#dd3333"/></svg>