<svg xmlns="http://www.w3.org/2000/svg" width="60" height="78" viewBox="0 0 60 78"><path fill="#e8edff" stroke="#4466aa" stroke-width="0.3" d="M23,63 L21,53 L17,49 L15,33 L17,31 L19,33 L21,45 L22,41 L21,23 L23,21 L25,23 L26,41 L27,37 L27,17 L29,15 L31,17 L31,37 L32,39 L33,23 L35,21 L37,23 L36,41 L37,43 L43,37 L45,37 L45,41 L39,47 L37,51 L35,63 Z"/><line x1="17" y1="33" x2="17" y2="31" stroke="#dd3333" stroke-width="0.25" stroke-linecap="round"/><line x1="19" y1="47" x2="21" y2="49" stroke="#dd3333" stroke-width="0.25" stroke-linecap="round"/><line x1="18" y1="39" x2="19" y2="47" stroke="#dd3333" stroke-width="0.25" stroke-linecap="round"/><line x1="18" y1="39" x2="17" y2="33" stroke="#dd3333" stroke-width="0.25" stroke-linecap="round"/><line x1="23" y1="23" x2="23" y2="21" stroke="#dd3333" stroke-width="0.25" stroke-linecap="round"/><line x1="22.66666603088379" y1="46.33333206176758" x2="21" y2="49" stroke="#dd3333" stroke-width="0.25" stroke-linecap="round"/><line x1="22.66666603088379" y1="46.33333206176758" x2="23.5" y2="43" stroke="#dd3333" stroke-width="0.25" stroke-linecap="round"/><line x1="22.66666603088379" y1="46.33333206176758" x2="23.5" y2="47" stroke="#dd3333" stroke-width="0.25" stroke-linecap="round"/><line x1="24" y1="41" x2="23.5" y2="43" stroke="#dd3333" stroke-width="0.25" stroke-linecap="round"/><line x1="24" y1="41" x2="23.5" y2="32" stroke="#dd3333" stroke-width="0.25" stroke-linecap="round"/><line x1="23.5" y1="32" x2="23" y2="23" stroke="#dd3333" stroke-width="0.25" stroke-linecap="round"/><line x1="29" y1="17" x2="29" y2="15" stroke="#dd3333" stroke-width="0.25" stroke-linecap="round"/><line x1="29.5" y1="38" x2="29" y2="40" stroke="#dd3333" stroke-width="0.25" stroke-linecap="round"/><line x1="29" y1="37" x2="29.5" y2="38" stroke="#dd3333" stroke-width="0.25" stroke-linecap="round"/><line x1="29" y1="17" x2="29" y2="27" stroke="#dd3333" stroke-width="0.25" stroke-linecap="round"/><line x1="29" y1="37" x2="29" y2="27" stroke="#dd3333" stroke-width="0.25" stroke-linecap="round"/><line x1="35" y1="23" x2="35" y2="21" stroke="#dd3333" stroke-width="0.25" stroke-linecap="round"/><line x1="31.66666603088379" y1="41" x2="29" y2="40" stroke="#dd3333" stroke-width="0.25" stroke-linecap="round"/><line x1="31.66666603088379" y1="41" x2="34.5" y2="41" stroke="#dd3333" stroke-width="0.25" stroke-linecap="round"/><line x1="31.66666603088379" y1="41" x2="31.5" y2="42" stroke="#dd3333" stroke-width="0.25" stroke-linecap="round"/><line x1="34" y1="40" x2="34.5" y2="41" stroke="#dd3333" stroke-width="0.25" stroke-linecap="round"/><line x1="34.5" y1="31" x2="35" y2="23" stroke="#dd3333" stroke-width="0.25" stroke-linecap="round"/><line x1="34" y1="40" x2="34.5" y2="31" stroke="#dd3333" stroke-width="0.25" stroke-linecap="round"/><line x1="44" y1="39" x2="41" y2="42" stroke="#dd3333" stroke-width="0.25" stroke-linecap="round"/><line x1="44" y1="39" x2="45" y2="37" stroke="#dd3333" stroke-width="0.25" stroke-linecap="round"/><line x1="41" y1="42" x2="38" y2="45" stroke="#dd3333" stroke-width="0.25" stroke-linecap="round"/><line x1="28" y1="48.33333206176758" x2="23.5" y2="47" stroke="#dd3333" stroke-width="0.25" stroke-linecap="round"/><line x1="28" y1="48.33333206176758" x2="31.5" y2="46" stroke="#dd3333" stroke-width="0.25" stroke-linecap="round"/><line x1="28" y1="48.33333206176758" x2="29" y2="52" stroke="#dd3333" stroke-width="0.25" stroke-linecap="round"/><line x1="33.333335876464844" y1="45" x2="31.5" y2="42" stroke="#dd3333" stroke-width="0.25" stroke-linecap="round"/><line x1="33.333335876464844" y1="45" x2="37" y2="47" stroke="#dd3333" stroke-width="0.25" stroke-linecap="round"/><line x1="33.333335876464844" y1="45" x2="31.5" y2="46" stroke="#dd3333" stroke-width="0.25" stroke-linecap="round"/><line x1="38" y1="45" x2="37" y2="47" stroke="#dd3333" stroke-width="0.25" stroke-linecap="round"/><line x1="28" y1="58" x2="23" y2="63" stroke="#dd3333" stroke-width="0.25" stroke-linecap="round"/><line x1="29" y1="52" x2="28" y2="58" stroke="#dd3333" stroke-width="0.25" stroke-linecap="round"/><circle cx="17" cy="33" r="0.4" fill="#dd3333"/><circle cx="17" cy="31" r="0.4" fill="#dd3333"/><circle cx="19" cy="47" r="0.4" fill="#dd3333"/><circle cx="21" cy="49" r="0.4" fill="#dd3333"/><circle cx="18" cy="39" r="0.4" fill="#dd3333"/><circle cx="23" cy="23" r="0.4" fill="#dd3333"/><circle cx="23" cy="21" r="0.4" fill="#dd3333"/><circle cx="22.66666603088379" cy="46.33333206176758" r="0.4" fill="#dd3333"/><circle cx="23.5" cy="43" r="0.4" fill="#dd3333"/><circle cx="23.5" cy="47" r="0.4" fill="#dd3333"/><circle cx="24" cy="41" r="0.4" fill="#dd3333"/><circle cx="23.5" cy="32" r="0.4" fill="#dd3333"/><circle cx="29" cy="17" r="0.4" fill="#dd3333"/><circle cx="29" cy="15" r="0.4" fill="#dd3333"/><circle cx="29.5" cy="38" r="0.4" fill="#dd3333"/><circle cx="29" cy="40" r="0.4" fill="#dd3333"/><circle cx="29" cy="37" r="0.4" fill="#dd3333"/><circle cx="29" cy="27" r="0.4" fill="#dd3333"/><circle cx="35" cy="23" r="0.4" fill="#dd3333"/><circle cx="35" cy="21" r="0.4" fill="#dd3333"/><circle cx="31.66666603088379" cy="41" r="0.4" fill="#dd3333"/><circle cx="34.5" cy="41" r="0.4" fill="#dd3333"/><circle cx="31.5" cy="42" r="0.4" fill="#dd3333"/><circle cx="34" cy="40" r="0.4" fill="#dd3333"/><circle cx="34.5" cy="31" r="0.4" fill="#dd3333"/><circle cx="44" cy="39" r="0.4" fill="#dd3333"/><circle cx="41" cy="42" r="0.4" fill="#dd3333"/><circle cx="45" cy="37" r="0.4" fill="#dd3333"/><circle cx="38" cy="45" r="0.4" fill="#dd3333"/><circle cx="28" cy="48.33333206176758" r="0.4" fill="#dd3333"/><circle cx="31.5" cy="46" r="0.4" fill="#dd3333"/><circle cx="29" cy="52" r="0.4" fill="#dd3333"/><circle cx="33.333335876464844" cy="45" r="0.4" fill="#dd3333"/><circle cx="37" cy="47" r="0.4" fill="#dd3333"/><circle cx="28" cy="58" r="0.4" fill="#dd3333"/><circle cx="23" cy="63" r="0.4" fill="#dd3333"/></svg>