<svg xmlns="http://www.w3.org/2000/svg" width="60" height="78" viewBox="0 0 60 78"><path fill="#e8edff" stroke="#4466aa" stroke-width="0.3" d="M23,63 L21,53 L17,49 L15,33 L17,31 L19,33 L21,45 L22,41 L21,23 L23,21 L25,23 L26,41 L27,37 L27,17 L29,15 L31,17 L31,37 L32,39 L33,23 L35,21 L37,23 L36,41 L37,43 L43,37 L45,37 L45,41 L39,47 L37,51 L35,63 Z"/><line x1="21" y1="45" x2="20.75944709777832" y2="51.02345657348633" stroke="#bbbbbb" stroke-width="0.25" stroke-linecap="round"/><line x1="15" y1="33" x2="17" y2="33.686214447021484" stroke="#bbbbbb" stroke-width="0.25" stroke-linecap="round"/><line x1="17" y1="31" x2="17" y2="33.686214447021484" stroke="#bbbbbb" stroke-width="0.25" stroke-linecap="round"/><line x1="43" y1="37" x2="43.585784912109375" y2="38.414215087890625" stroke="#bbbbbb" stroke-width="0.25" stroke-linecap="round"/><line x1="45" y1="37" x2="43.585784912109375" y2="38.414215087890625" stroke="#bbbbbb" stroke-width="0.25" stroke-linecap="round"/><line x1="19" y1="33" x2="17.134031295776367" y2="33.96025848388672" stroke="#bbbbbb" stroke-width="0.25" stroke-linecap="round"/><line x1="17" y1="33.686214447021484" x2="17.134031295776367" y2="33.96025848388672" stroke="#bbbbbb" stroke-width="0.25" stroke-linecap="round"/><line x1="35" y1="21" x2="35" y2="23.764129638671875" stroke="#bbbbbb" stroke-width="0.25" stroke-linecap="round"/><line x1="37" y1="23" x2="35" y2="23.764129638671875" stroke="#bbbbbb" stroke-width="0.25" stroke-linecap="round"/><line x1="21" y1="23" x2="23" y2="23.764129638671875" stroke="#bbbbbb" stroke-width="0.25" stroke-linecap="round"/><line x1="23" y1="21" x2="23" y2="23.764129638671875" stroke="#bbbbbb" stroke-width="0.25" stroke-linecap="round"/><line x1="17" y1="49" x2="19.171550750732422" y2="47.93775177001953" stroke="#bbbbbb" stroke-width="0.25" stroke-linecap="round"/><line x1="20.75944709777832" y1="51.02345657348633" x2="19.171550750732422" y2="47.93775177001953" stroke="#bbbbbb" stroke-width="0.25" stroke-linecap="round"/><line x1="17.134031295776367" y1="33.96025848388672" x2="19.171550750732422" y2="47.93775177001953" stroke="#bbbbbb" stroke-width="0.25" stroke-linecap="round"/><line x1="25" y1="23" x2="23.048473358154297" y2="23.872547149658203" stroke="#bbbbbb" stroke-width="0.25" stroke-linecap="round"/><line x1="23" y1="23.764129638671875" x2="23.048473358154297" y2="23.872547149658203" stroke="#bbbbbb" stroke-width="0.25" stroke-linecap="round"/><line x1="22" y1="41" x2="24.0106143951416" y2="41.19105529785156" stroke="#bbbbbb" stroke-width="0.25" stroke-linecap="round"/><line x1="24.0106143951416" y1="41.19105529785156" x2="23.529544830322266" y2="32.53179931640625" stroke="#bbbbbb" stroke-width="0.25" stroke-linecap="round"/><line x1="23.048473358154297" y1="23.872547149658203" x2="23.529544830322266" y2="32.53179931640625" stroke="#bbbbbb" stroke-width="0.25" stroke-linecap="round"/><line x1="33" y1="23" x2="34.94850540161133" y2="23.87929916381836" stroke="#bbbbbb" stroke-width="0.25" stroke-linecap="round"/><line x1="35" y1="23.764129638671875" x2="34.94850540161133" y2="23.87929916381836" stroke="#bbbbbb" stroke-width="0.25" stroke-linecap="round"/><line x1="29" y1="15" x2="29.000438690185547" y2="17.828245162963867" stroke="#bbbbbb" stroke-width="0.25" stroke-linecap="round"/><line x1="27" y1="17" x2="29.000438690185547" y2="17.828245162963867" stroke="#bbbbbb" stroke-width="0.25" stroke-linecap="round"/><line x1="31" y1="17" x2="29.000438690185547" y2="17.828245162963867" stroke="#bbbbbb" stroke-width="0.25" stroke-linecap="round"/><line x1="27" y1="37" x2="29.000438690185547" y2="37.24615478515625" stroke="#bbbbbb" stroke-width="0.25" stroke-linecap="round"/><line x1="29.000438690185547" y1="37.24615478515625" x2="29.000438690185547" y2="27.537200927734375" stroke="#bbbbbb" stroke-width="0.25" stroke-linecap="round"/><line x1="29.000438690185547" y1="17.828245162963867" x2="29.000438690185547" y2="27.537200927734375" stroke="#bbbbbb" stroke-width="0.25" stroke-linecap="round"/><line x1="31" y1="37" x2="28.97179412841797" y2="37.47879409790039" stroke="#bbbbbb" stroke-width="0.25" stroke-linecap="round"/><line x1="29.000438690185547" y1="37.24615478515625" x2="28.97179412841797" y2="37.47879409790039" stroke="#bbbbbb" stroke-width="0.25" stroke-linecap="round"/><line x1="34.94850540161133" y1="23.87929916381836" x2="33.91242218017578" y2="41.43203353881836" stroke="#bbbbbb" stroke-width="0.25" stroke-linecap="round"/><line x1="36" y1="41" x2="33.91242218017578" y2="41.43203353881836" stroke="#bbbbbb" stroke-width="0.25" stroke-linecap="round"/><line x1="39" y1="47" x2="37.2565803527832" y2="45.7434196472168" stroke="#bbbbbb" stroke-width="0.25" stroke-linecap="round"/><line x1="43.585784912109375" y1="38.414215087890625" x2="42.878684997558594" y2="40.12131881713867" stroke="#bbbbbb" stroke-width="0.25" stroke-linecap="round"/><line x1="45" y1="41" x2="42.878684997558594" y2="40.12131881713867" stroke="#bbbbbb" stroke-width="0.25" stroke-linecap="round"/><line x1="42.878684997558594" y1="40.12131881713867" x2="40.067630767822266" y2="42.932369232177734" stroke="#bbbbbb" stroke-width="0.25" stroke-linecap="round"/><line x1="37.2565803527832" y1="45.7434196472168" x2="40.067630767822266" y2="42.932369232177734" stroke="#bbbbbb" stroke-width="0.25" stroke-linecap="round"/><line x1="37" y1="43" x2="36.35089111328125" y2="47" stroke="#bbbbbb" stroke-width="0.25" stroke-linecap="round"/><line x1="37.2565803527832" y1="45.7434196472168" x2="36.35089111328125" y2="47" stroke="#bbbbbb" stroke-width="0.25" stroke-linecap="round"/><line x1="26" y1="41" x2="24.43157958984375" y2="57.504608154296875" stroke="#bbbbbb" stroke-width="0.25" stroke-linecap="round"/><line x1="21" y1="53" x2="23.676815032958984" y2="51.56742858886719" stroke="#bbbbbb" stroke-width="0.25" stroke-linecap="round"/><line x1="24.43157958984375" y1="57.504608154296875" x2="23.676815032958984" y2="51.56742858886719" stroke="#bbbbbb" stroke-width="0.25" stroke-linecap="round"/><line x1="32" y1="39" x2="34.236846923828125" y2="50.00000762939453" stroke="#bbbbbb" stroke-width="0.25" stroke-linecap="round"/><line x1="24.0106143951416" y1="41.19105529785156" x2="23.13892364501953" y2="50.3643798828125" stroke="#bbbbbb" stroke-width="0.25" stroke-linecap="round"/><line x1="20.75944709777832" y1="51.02345657348633" x2="23.13892364501953" y2="50.3643798828125" stroke="#bbbbbb" stroke-width="0.25" stroke-linecap="round"/><line x1="23.676815032958984" y1="51.56742858886719" x2="23.13892364501953" y2="50.3643798828125" stroke="#bbbbbb" stroke-width="0.25" stroke-linecap="round"/><line x1="37" y1="51" x2="33.92481994628906" y2="50.00000762939453" stroke="#bbbbbb" stroke-width="0.25" stroke-linecap="round"/><line x1="34.236846923828125" y1="50.00000762939453" x2="33.92481994628906" y2="50.00000762939453" stroke="#bbbbbb" stroke-width="0.25" stroke-linecap="round"/><line x1="36.35089111328125" y1="47" x2="35.04466247558594" y2="47" stroke="#bbbbbb" stroke-width="0.25" stroke-linecap="round"/><line x1="33.91242218017578" y1="41.43203353881836" x2="35.04466247558594" y2="47" stroke="#bbbbbb" stroke-width="0.25" stroke-linecap="round"/><line x1="34.236846923828125" y1="50.00000762939453" x2="35.04466247558594" y2="47" stroke="#bbbbbb" stroke-width="0.25" stroke-linecap="round"/><line x1="23" y1="63" x2="27.446271896362305" y2="57.576419830322266" stroke="#bbbbbb" stroke-width="0.25" stroke-linecap="round"/><line x1="24.43157958984375" y1="57.504608154296875" x2="27.446271896362305" y2="57.576419830322266" stroke="#bbbbbb" stroke-width="0.25" stroke-linecap="round"/><line x1="28.97179412841797" y1="37.47879409790039" x2="30.404069900512695" y2="50.529415130615234" stroke="#bbbbbb" stroke-width="0.25" stroke-linecap="round"/><line x1="33.92481994628906" y1="50.00000762939453" x2="30.404069900512695" y2="50.529415130615234" stroke="#bbbbbb" stroke-width="0.25" stroke-linecap="round"/><line x1="27.446271896362305" y1="57.576419830322266" x2="29.22748374938965" y2="56.18574142456055" stroke="#bbbbbb" stroke-width="0.25" stroke-linecap="round"/><line x1="35" y1="63" x2="29.22748374938965" y2="56.18574142456055" stroke="#bbbbbb" stroke-width="0.25" stroke-linecap="round"/><line x1="30.404069900512695" y1="50.529415130615234" x2="29.22748374938965" y2="56.18574142456055" stroke="#bbbbbb" stroke-width="0.25" stroke-linecap="round"/><circle cx="21" cy="45" r="0.4" fill="#bbbbbb"/><circle cx="20.75944709777832" cy="51.02345657348633" r="0.4" fill="#bbbbbb"/><circle cx="15" cy="33" r="0.4" fill="#bbbbbb"/><circle cx="17" cy="33.686214447021484" r="0.4" fill="#bbbbbb"/><circle cx="17" cy="31" r="0.4" fill="#bbbbbb"/><circle cx="43" cy="37" r="0.4" fill="#bbbbbb"/><circle cx="43.585784912109375" cy="38.414215087890625" r="0.4" fill="#bbbbbb"/><circle cx="45" cy="37" r="0.4" fill="#bbbbbb"/><circle cx="19" cy="33" r="0.4" fill="#bbbbbb"/><circle cx="17.134031295776367" cy="33.96025848388672" r="0.4" fill="#bbbbbb"/><circle cx="35" cy="21" r="0.4" fill="#bbbbbb"/><circle cx="35" cy="23.764129638671875" r="0.4" fill="#bbbbbb"/><circle cx="37" cy="23" r="0.4" fill="#bbbbbb"/><circle cx="21" cy="23" r="0.4" fill="#bbbbbb"/><circle cx="23" cy="23.764129638671875" r="0.4" fill="#bbbbbb"/><circle cx="23" cy="21" r="0.4" fill="#bbbbbb"/><circle cx="17" cy="49" r="0.4" fill="#bbbbbb"/><circle cx="19.171550750732422" cy="47.93775177001953" r="0.4" fill="#bbbbbb"/><circle cx="25" cy="23" r="0.4" fill="#bbbbbb"/><circle cx="23.048473358154297" cy="23.872547149658203" r="0.4" fill="#bbbbbb"/><circle cx="22" cy="41" r="0.4" fill="#bbbbbb"/><circle cx="24.0106143951416" cy="41.19105529785156" r="0.4" fill="#bbbbbb"/><circle cx="23.529544830322266" cy="32.53179931640625" r="0.4" fill="#bbbbbb"/><circle cx="33" cy="23" r="0.4" fill="#bbbbbb"/><circle cx="34.94850540161133" cy="23.87929916381836" r="0.4" fill="#bbbbbb"/><circle cx="29" cy="15" r="0.4" fill="#bbbbbb"/><circle cx="29.000438690185547" cy="17.828245162963867" r="0.4" fill="#bbbbbb"/><circle cx="27" cy="17" r="0.4" fill="#bbbbbb"/><circle cx="31" cy="17" r="0.4" fill="#bbbbbb"/><circle cx="27" cy="37" r="0.4" fill="#bbbbbb"/><circle cx="29.000438690185547" cy="37.24615478515625" r="0.4" fill="#bbbbbb"/><circle cx="29.000438690185547" cy="27.537200927734375" r="0.4" fill="#bbbbbb"/><circle cx="31" cy="37" r="0.4" fill="#bbbbbb"/><circle cx="28.97179412841797" cy="37.47879409790039" r="0.4" fill="#bbbbbb"/><circle cx="33.91242218017578" cy="41.43203353881836" r="0.4" fill="#bbbbbb"/><circle cx="36" cy="41" r="0.4" fill="#bbbbbb"/><circle cx="39" cy="47" r="0.4" fill="#bbbbbb"/><circle cx="37.2565803527832" cy="45.7434196472168" r="0.4" fill="#bbbbbb"/><circle cx="42.878684997558594" cy="40.12131881713867" r="0.4" fill="#bbbbbb"/><circle cx="45" cy="41" r="0.4" fill="#bbbbbb"/><circle cx="40.067630767822266" cy="42.932369232177734" r="0.4" fill="#bbbbbb"/><circle cx="37" cy="43" r="0.4" fill="#bbbbbb"/><circle cx="36.35089111328125" cy="47" r="0.4" fill="#bbbbbb"/><circle cx="26" cy="41" r="0.4" fill="#bbbbbb"/><circle cx="24.43157958984375" cy="57.504608154296875" r="0.4" fill="#bbbbbb"/><circle cx="21" cy="53" r="0.4" fill="#bbbbbb"/><circle cx="23.676815032958984" cy="51.56742858886719" r="0.4" fill="#bbbbbb"/><circle cx="32" cy="39" r="0.4" fill="#bbbbbb"/><circle cx="34.236846923828125" cy="50.00000762939453" r="0.4" fill="#bbbbbb"/><circle cx="23.13892364501953" cy="50.3643798828125" r="0.4" fill="#bbbbbb"/><circle cx="37" cy="51" r="0.4" fill="#bbbbbb"/><circle cx="33.92481994628906" cy="50.00000762939453" r="0.4" fill="#bbbbbb"/><circle cx="35.04466247558594" cy="47" r="0.4" fill="#bbbbbb"/><circle cx="23" cy="63" r="0.4" fill="#bbbbbb"/><circle cx="27.446271896362305" cy="57.576419830322266" r="0.4" fill="#bbbbbb"/><circle cx="30.404069900512695" cy="50.529415130615234" r="0.4" fill="#bbbbbb"/><circle cx="29.22748374938965" cy="56.18574142456055" r="0.4" fill="#bbbbbb"/><circle cx="35" cy="63" r="0.4" fill="#bbbbbb"/><line x1="17" y1="33.686214447021484" x2="17.134031295776367" y2="33.96025848388672" stroke="#dd3333" stroke-width="0.75" stroke-linecap="round"/><line x1="20.75944709777832" y1="51.02345657348633" x2="19.171550750732422" y2="47.93775177001953" stroke="#dd3333" stroke-width="0.75" stroke-linecap="round"/><line x1="17.134031295776367" y1="33.96025848388672" x2="19.171550750732422" y2="47.93775177001953" stroke="#dd3333" stroke-width="0.75" stroke-linecap="round"/><line x1="23" y1="23.764129638671875" x2="23.048473358154297" y2="23.872547149658203" stroke="#dd3333" stroke-width="0.75" stroke-linecap="round"/><line x1="24.0106143951416" y1="41.19105529785156" x2="23.529544830322266" y2="32.53179931640625" stroke="#dd3333" stroke-width="0.75" stroke-linecap="round"/><line x1="23.048473358154297" y1="23.872547149658203" x2="23.529544830322266" y2="32.53179931640625" stroke="#dd3333" stroke-width="0.75" stroke-linecap="round"/><line x1="35" y1="23.764129638671875" x2="34.94850540161133" y2="23.87929916381836" stroke="#dd3333" stroke-width="0.75" stroke-linecap="round"/><line x1="29.000438690185547" y1="37.24615478515625" x2="29.000438690185547" y2="27.537200927734375" stroke="#dd3333" stroke-width="0.75" stroke-linecap="round"/><line x1="29.000438690185547" y1="17.828245162963867" x2="29.000438690185547" y2="27.537200927734375" stroke="#dd3333" stroke-width="0.75" stroke-linecap="round"/><line x1="29.000438690185547" y1="37.24615478515625" x2="28.97179412841797" y2="37.47879409790039" stroke="#dd3333" stroke-width="0.75" stroke-linecap="round"/><line x1="34.94850540161133" y1="23.87929916381836" x2="33.91242218017578" y2="41.43203353881836" stroke="#dd3333" stroke-width="0.75" stroke-linecap="round"/><line x1="43.585784912109375" y1="38.414215087890625" x2="42.878684997558594" y2="40.12131881713867" stroke="#dd3333" stroke-width="0.75" stroke-linecap="round"/><line x1="42.878684997558594" y1="40.12131881713867" x2="40.067630767822266" y2="42.932369232177734" stroke="#dd3333" stroke-width="0.75" stroke-linecap="round"/><line x1="37.2565803527832" y1="45.7434196472168" x2="40.067630767822266" y2="42.932369232177734" stroke="#dd3333" stroke-width="0.75" stroke-linecap="round"/><line x1="37.2565803527832" y1="45.7434196472168" x2="36.35089111328125" y2="47" stroke="#dd3333" stroke-width="0.75" stroke-linecap="round"/><line x1="24.43157958984375" y1="57.504608154296875" x2="23.676815032958984" y2="51.56742858886719" stroke="#dd3333" stroke-width="0.75" stroke-linecap="round"/><line x1="24.0106143951416" y1="41.19105529785156" x2="23.13892364501953" y2="50.3643798828125" stroke="#dd3333" stroke-width="0.75" stroke-linecap="round"/><line x1="20.75944709777832" y1="51.02345657348633" x2="23.13892364501953" y2="50.3643798828125" stroke="#dd3333" stroke-width="0.75" stroke-linecap="round"/><line x1="23.676815032958984" y1="51.56742858886719" x2="23.13892364501953" y2="50.3643798828125" stroke="#dd3333" stroke-width="0.75" stroke-linecap="round"/><line x1="34.236846923828125" y1="50.00000762939453" x2="33.92481994628906" y2="50.00000762939453" stroke="#dd3333" stroke-width="0.75" stroke-linecap="round"/><line x1="36.35089111328125" y1="47" x2="35.04466247558594" y2="47" stroke="#dd3333" stroke-width="0.75" stroke-linecap="round"/><line x1="33.91242218017578" y1="41.43203353881836" x2="35.04466247558594" y2="47" stroke="#dd3333" stroke-width="0.75" stroke-linecap="round"/><line x1="34.236846923828125" y1="50.00000762939453" x2="35.04466247558594" y2="47" stroke="#dd3333" stroke-width="0.75" stroke-linecap="round"/><line x1="24.43157958984375" y1="57.504608154296875" x2="27.446271896362305" y2="57.576419830322266" stroke="#dd3333" stroke-width="0.75" stroke-linecap="round"/><line x1="28.97179412841797" y1="37.47879409790039" x2="30.404069900512695" y2="50.529415130615234" stroke="#dd3333" stroke-width="0.75" stroke-linecap="round"/><line x1="33.92481994628906" y1="50.00000762939453" x2="30.404069900512695" y2="50.529415130615234" stroke="#dd3333" stroke-width="0.75" stroke-linecap="round"/><line x1="27.446271896362305" y1="57.576419830322266" x2="29.22748374938965" y2="56.18574142456055" stroke="#dd3333" stroke-width="0.75" stroke-linecap="round"/><line x1="30.404069900512695" y1="50.529415130615234" x2="29.22748374938965" y2="56.18574142456055" stroke="#dd3333" stroke-width="0.75" stroke-linecap="round"/><circle cx="21" cy="45" r="0" fill="#dd3333"/><circle cx="20.75944709777832" cy="51.02345657348633" r="0" fill="#dd3333"/><circle cx="15" cy="33" r="0" fill="#dd3333"/><circle cx="17" cy="33.686214447021484" r="0" fill="#dd3333"/><circle cx="17" cy="31" r="0" fill="#dd3333"/><circle cx="43" cy="37" r="0" fill="#dd3333"/><circle cx="43.585784912109375" cy="38.414215087890625" r="0" fill="#dd3333"/><circle cx="45" cy="37" r="0" fill="#dd3333"/><circle cx="19" cy="33" r="0" fill="#dd3333"/><circle cx="17.134031295776367" cy="33.96025848388672" r="0" fill="#dd3333"/><circle cx="35" cy="21" r="0" fill="#dd3333"/><circle cx="35" cy="23.764129638671875" r="0" fill="#dd3333"/><circle cx="37" cy="23" r="0" fill="#dd3333"/><circle cx="21" cy="23" r="0" fill="#dd3333"/><circle cx="23" cy="23.764129638671875" r="0" fill="#dd3333"/><circle cx="23" cy="21" r="0" fill="#dd3333"/><circle cx="17" cy="49" r="0" fill="#dd3333"/><circle cx="19.171550750732422" cy="47.93775177001953" r="0" fill="#dd3333"/><circle cx="25" cy="23" r="0" fill="#dd3333"/><circle cx="23.048473358154297" cy="23.872547149658203" r="0" fill="#dd3333"/><circle cx="22" cy="41" r="0" fill="#dd3333"/><circle cx="24.0106143951416" cy="41.19105529785156" r="0" fill="#dd3333"/><circle cx="23.529544830322266" cy="32.53179931640625" r="0" fill="#dd3333"/><circle cx="33" cy="23" r="0" fill="#dd3333"/><circle cx="34.94850540161133" cy="23.87929916381836" r="0" fill="#dd3333"/><circle cx="29" cy="15" r="0" fill="#dd3333"/><circle cx="29.000438690185547" cy="17.828245162963867" r="0" fill="#dd3333"/><circle cx="27" cy="17" r="0" fill="#dd3333"/><circle cx="31" cy="17" r="0" fill="#dd3333"/><circle cx="27" cy="37" r="0" fill="#dd3333"/><circle cx="29.000438690185547" cy="37.24615478515625" r="0" fill="#dd3333"/><circle cx="29.000438690185547" cy="27.537200927734375" r="0" fill="#dd3333"/><circle cx="31" cy="37" r="0" fill="#dd3333"/><circle cx="28.97179412841797" cy="37.47879409790039" r="0" fill="#dd3333"/><circle cx="33.91242218017578" cy="41.43203353881836" r="0" fill="#dd3333"/><circle cx="36" cy="41" r="0" fill="#dd3333"/><circle cx="39" cy="47" r="0" fill="#dd3333"/><circle cx="37.2565803527832" cy="45.7434196472168" r="0" fill="#dd3333"/><circle cx="42.878684997558594" cy="40.12131881713867" r="0" fill="#dd3333"/><circle cx="45" cy="41" r="0" fill="#dd3333"/><circle cx="40.067630767822266" cy="42.932369232177734" r="0" fill="#dd3333"/><circle cx="37" cy="43" r="0" fill="#dd3333"/><circle cx="36.35089111328125" cy="47" r="0" fill="#dd3333"/><circle cx="26" cy="41" r="0" fill="#dd3333"/><circle cx="24.43157958984375" cy="57.504608154296875" r="0" fill="#dd3333"/><circle cx="21" cy="53" r="0" fill="#dd3333"/><circle cx="23.676815032958984" cy="51.56742858886719" r="0" fill="#dd3333"/><circle cx="32" cy="39" r="0" fill="#dd3333"/><circle cx="34.236846923828125" cy="50.00000762939453" r="0" fill="#dd3333"/><circle cx="23.13892364501953" cy="50.3643798828125" r="0" fill="#dd3333"/><circle cx="37" cy="51" r="0" fill="#dd3333"/><circle cx="33.92481994628906" cy="50.00000762939453" r="0" fill="#dd3333"/><circle cx="35.04466247558594" cy="47" r="0" fill="#dd3333"/><circle cx="23" cy="63" r="0" fill="#dd3333"/><circle cx="27.446271896362305" cy="57.576419830322266" r="0" fill="#dd3333"/><circle cx="30.404069900512695" cy="50.529415130615234" r="0" fill="#dd3333"/><circle cx="29.22748374938965" cy="56.18574142456055" r="0" fill="#dd3333"/><circle cx="35" cy="63" r="0" fill="#dd3333"/></svg>