<svg xmlns="http://www.w3.org/2000/svg" width="1500.00" height="900.00" viewBox="-1.00 -1.00 152.00 92.00">
<style>text { font-family: sans-serif; font-size: 3px; fill: #333; }</style>
<rect x="-1" y="-1" width="152.00" height="92.00" fill="white"/>
<g transform="translate(0.00, 0)">
  <text x="25.00" y="55.00" text-anchor="middle">StraightSkeleton (5e, 6n)</text>
  <polygon points="15.00,15.00 35.00,15.00 35.00,25.00 25.00,25.00 25.00,35.00 15.00,35.00" fill="#f0f4ff" stroke="#4466aa" stroke-width="0.3"/>
  <line x1="15.00" y1="15.00" x2="25.00" y2="25.00" stroke="#dd3333" stroke-width="0.25" stroke-linecap="round"/>
  <line x1="35.00" y1="15.00" x2="25.00" y2="25.00" stroke="#dd3333" stroke-width="0.25" stroke-linecap="round"/>
  <line x1="35.00" y1="25.00" x2="25.00" y2="25.00" stroke="#dd3333" stroke-width="0.25" stroke-linecap="round"/>
  <line x1="25.00" y1="35.00" x2="25.00" y2="25.00" stroke="#dd3333" stroke-width="0.25" stroke-linecap="round"/>
  <line x1="15.00" y1="35.00" x2="25.00" y2="25.00" stroke="#dd3333" stroke-width="0.25" stroke-linecap="round"/>
  <circle cx="15.00" cy="15.00" r="0.4" fill="#dd3333"/>
  <circle cx="25.00" cy="25.00" r="0.4" fill="#dd3333"/>
  <circle cx="35.00" cy="15.00" r="0.4" fill="#dd3333"/>
  <circle cx="35.00" cy="25.00" r="0.4" fill="#dd3333"/>
  <circle cx="25.00" cy="35.00" r="0.4" fill="#dd3333"/>
  <circle cx="15.00" cy="35.00" r="0.4" fill="#dd3333"/>
  <circle cx="15.00" cy="15.00" r="0.35" fill="#4466aa"/>
  <circle cx="35.00" cy="15.00" r="0.35" fill="#4466aa"/>
  <circle cx="35.00" cy="25.00" r="0.35" fill="#4466aa"/>
  <circle cx="25.00" cy="25.00" r="0.35" fill="#4466aa"/>
  <circle cx="25.00" cy="35.00" r="0.35" fill="#4466aa"/>
  <circle cx="15.00" cy="35.00" r="0.35" fill="#4466aa"/>
</g>
<g transform="translate(50.00, 0)">
  <text x="25.00" y="55.00" text-anchor="middle">ChordalAxis (4e, 5n)</text>
  <polygon points="15.00,15.00 35.00,15.00 35.00,25.00 25.00,25.00 25.00,35.00 15.00,35.00" fill="#f0f4ff" stroke="#4466aa" stroke-width="0.3"/>
  <line x1="30.00" y1="20.00" x2="20.00" y2="20.00" stroke="#dd3333" stroke-width="0.25" stroke-linecap="round"/>
  <line x1="30.00" y1="20.00" x2="35.00" y2="25.00" stroke="#dd3333" stroke-width="0.25" stroke-linecap="round"/>
  <line x1="20.00" y1="20.00" x2="20.00" y2="30.00" stroke="#dd3333" stroke-width="0.25" stroke-linecap="round"/>
  <line x1="20.00" y1="30.00" x2="25.00" y2="35.00" stroke="#dd3333" stroke-width="0.25" stroke-linecap="round"/>
  <circle cx="30.00" cy="20.00" r="0.4" fill="#dd3333"/>
  <circle cx="20.00" cy="20.00" r="0.4" fill="#dd3333"/>
  <circle cx="35.00" cy="25.00" r="0.4" fill="#dd3333"/>
  <circle cx="20.00" cy="30.00" r="0.4" fill="#dd3333"/>
  <circle cx="25.00" cy="35.00" r="0.4" fill="#dd3333"/>
  <circle cx="15.00" cy="15.00" r="0.35" fill="#4466aa"/>
  <circle cx="35.00" cy="15.00" r="0.35" fill="#4466aa"/>
  <circle cx="35.00" cy="25.00" r="0.35" fill="#4466aa"/>
  <circle cx="25.00" cy="25.00" r="0.35" fill="#4466aa"/>
  <circle cx="25.00" cy="35.00" r="0.35" fill="#4466aa"/>
  <circle cx="15.00" cy="35.00" r="0.35" fill="#4466aa"/>
</g>
<g transform="translate(100.00, 0)">
  <text x="25.00" y="55.00" text-anchor="middle">Voronoi (51e, 54n)</text>
  <polygon points="15.00,15.00 35.00,15.00 35.00,25.00 25.00,25.00 25.00,35.00 15.00,35.00" fill="#f0f4ff" stroke="#4466aa" stroke-width="0.3"/>
  <line x1="34.33" y1="15.62" x2="33.16" y2="16.87" stroke="#dd3333" stroke-width="0.25" stroke-linecap="round"/>
  <line x1="33.00" y1="16.96" x2="33.16" y2="16.87" stroke="#dd3333" stroke-width="0.25" stroke-linecap="round"/>
  <line x1="33.00" y1="16.96" x2="31.91" y2="18.12" stroke="#dd3333" stroke-width="0.25" stroke-linecap="round"/>
  <line x1="31.67" y1="18.30" x2="31.91" y2="18.12" stroke="#dd3333" stroke-width="0.25" stroke-linecap="round"/>
  <line x1="31.67" y1="18.30" x2="30.66" y2="19.38" stroke="#dd3333" stroke-width="0.25" stroke-linecap="round"/>
  <line x1="30.33" y1="19.63" x2="30.66" y2="19.38" stroke="#dd3333" stroke-width="0.25" stroke-linecap="round"/>
  <line x1="33.12" y1="23.12" x2="34.38" y2="24.38" stroke="#dd3333" stroke-width="0.25" stroke-linecap="round"/>
  <line x1="31.88" y1="21.88" x2="33.12" y2="23.12" stroke="#dd3333" stroke-width="0.25" stroke-linecap="round"/>
  <line x1="30.62" y1="20.62" x2="31.88" y2="21.88" stroke="#dd3333" stroke-width="0.25" stroke-linecap="round"/>
  <line x1="30.33" y1="19.63" x2="29.99" y2="19.99" stroke="#dd3333" stroke-width="0.25" stroke-linecap="round"/>
  <line x1="29.99" y1="19.99" x2="30.62" y2="20.62" stroke="#dd3333" stroke-width="0.25" stroke-linecap="round"/>
  <line x1="29.99" y1="19.99" x2="29.38" y2="20.02" stroke="#dd3333" stroke-width="0.25" stroke-linecap="round"/>
  <line x1="29.00" y1="19.98" x2="29.38" y2="20.02" stroke="#dd3333" stroke-width="0.25" stroke-linecap="round"/>
  <line x1="29.00" y1="19.98" x2="28.12" y2="20.02" stroke="#dd3333" stroke-width="0.25" stroke-linecap="round"/>
  <line x1="27.67" y1="19.98" x2="28.12" y2="20.02" stroke="#dd3333" stroke-width="0.25" stroke-linecap="round"/>
  <line x1="27.67" y1="19.98" x2="26.88" y2="20.02" stroke="#dd3333" stroke-width="0.25" stroke-linecap="round"/>
  <line x1="26.33" y1="19.98" x2="26.88" y2="20.02" stroke="#dd3333" stroke-width="0.25" stroke-linecap="round"/>
  <line x1="21.00" y1="20.78" x2="22.33" y2="20.33" stroke="#dd3333" stroke-width="0.25" stroke-linecap="round"/>
  <line x1="22.33" y1="20.33" x2="23.67" y2="20.07" stroke="#dd3333" stroke-width="0.25" stroke-linecap="round"/>
  <line x1="23.67" y1="20.07" x2="25.00" y2="19.98" stroke="#dd3333" stroke-width="0.25" stroke-linecap="round"/>
  <line x1="26.33" y1="19.98" x2="25.62" y2="20.02" stroke="#dd3333" stroke-width="0.25" stroke-linecap="round"/>
  <line x1="25.00" y1="19.98" x2="25.62" y2="20.02" stroke="#dd3333" stroke-width="0.25" stroke-linecap="round"/>
  <line x1="23.12" y1="33.12" x2="24.38" y2="34.38" stroke="#dd3333" stroke-width="0.25" stroke-linecap="round"/>
  <line x1="21.88" y1="31.88" x2="23.12" y2="33.12" stroke="#dd3333" stroke-width="0.25" stroke-linecap="round"/>
  <line x1="20.62" y1="30.62" x2="21.88" y2="31.88" stroke="#dd3333" stroke-width="0.25" stroke-linecap="round"/>
  <line x1="16.88" y1="33.16" x2="15.62" y2="34.33" stroke="#dd3333" stroke-width="0.25" stroke-linecap="round"/>
  <line x1="16.88" y1="33.16" x2="16.96" y2="33.00" stroke="#dd3333" stroke-width="0.25" stroke-linecap="round"/>
  <line x1="18.12" y1="31.91" x2="16.96" y2="33.00" stroke="#dd3333" stroke-width="0.25" stroke-linecap="round"/>
  <line x1="18.12" y1="31.91" x2="18.30" y2="31.67" stroke="#dd3333" stroke-width="0.25" stroke-linecap="round"/>
  <line x1="19.38" y1="30.66" x2="18.30" y2="31.67" stroke="#dd3333" stroke-width="0.25" stroke-linecap="round"/>
  <line x1="20.62" y1="30.62" x2="19.99" y2="29.99" stroke="#dd3333" stroke-width="0.25" stroke-linecap="round"/>
  <line x1="20.02" y1="29.38" x2="19.99" y2="29.99" stroke="#dd3333" stroke-width="0.25" stroke-linecap="round"/>
  <line x1="19.38" y1="30.66" x2="19.63" y2="30.33" stroke="#dd3333" stroke-width="0.25" stroke-linecap="round"/>
  <line x1="19.99" y1="29.99" x2="19.63" y2="30.33" stroke="#dd3333" stroke-width="0.25" stroke-linecap="round"/>
  <line x1="20.02" y1="29.38" x2="19.98" y2="29.00" stroke="#dd3333" stroke-width="0.25" stroke-linecap="round"/>
  <line x1="20.02" y1="28.12" x2="19.98" y2="29.00" stroke="#dd3333" stroke-width="0.25" stroke-linecap="round"/>
  <line x1="20.02" y1="28.12" x2="19.98" y2="27.67" stroke="#dd3333" stroke-width="0.25" stroke-linecap="round"/>
  <line x1="20.02" y1="26.88" x2="19.98" y2="27.67" stroke="#dd3333" stroke-width="0.25" stroke-linecap="round"/>
  <line x1="20.02" y1="26.88" x2="19.98" y2="26.33" stroke="#dd3333" stroke-width="0.25" stroke-linecap="round"/>
  <line x1="20.02" y1="25.62" x2="19.98" y2="26.33" stroke="#dd3333" stroke-width="0.25" stroke-linecap="round"/>
  <line x1="20.02" y1="25.62" x2="19.98" y2="25.00" stroke="#dd3333" stroke-width="0.25" stroke-linecap="round"/>
  <line x1="19.98" y1="25.00" x2="20.07" y2="23.67" stroke="#dd3333" stroke-width="0.25" stroke-linecap="round"/>
  <line x1="20.07" y1="23.67" x2="20.33" y2="22.33" stroke="#dd3333" stroke-width="0.25" stroke-linecap="round"/>
  <line x1="21.00" y1="20.78" x2="20.85" y2="20.85" stroke="#dd3333" stroke-width="0.25" stroke-linecap="round"/>
  <line x1="19.67" y1="19.67" x2="20.85" y2="20.85" stroke="#dd3333" stroke-width="0.25" stroke-linecap="round"/>
  <line x1="20.33" y1="22.33" x2="20.78" y2="21.00" stroke="#dd3333" stroke-width="0.25" stroke-linecap="round"/>
  <line x1="20.85" y1="20.85" x2="20.78" y2="21.00" stroke="#dd3333" stroke-width="0.25" stroke-linecap="round"/>
  <line x1="19.67" y1="19.67" x2="19.67" y2="19.67" stroke="#dd3333" stroke-width="0.25" stroke-linecap="round"/>
  <line x1="18.33" y1="18.33" x2="19.67" y2="19.67" stroke="#dd3333" stroke-width="0.25" stroke-linecap="round"/>
  <line x1="17.00" y1="17.00" x2="18.33" y2="18.33" stroke="#dd3333" stroke-width="0.25" stroke-linecap="round"/>
  <line x1="15.67" y1="15.67" x2="17.00" y2="17.00" stroke="#dd3333" stroke-width="0.25" stroke-linecap="round"/>
  <circle cx="34.33" cy="15.62" r="0.4" fill="#dd3333"/>
  <circle cx="33.16" cy="16.87" r="0.4" fill="#dd3333"/>
  <circle cx="33.00" cy="16.96" r="0.4" fill="#dd3333"/>
  <circle cx="31.91" cy="18.12" r="0.4" fill="#dd3333"/>
  <circle cx="31.67" cy="18.30" r="0.4" fill="#dd3333"/>
  <circle cx="30.66" cy="19.38" r="0.4" fill="#dd3333"/>
  <circle cx="30.33" cy="19.63" r="0.4" fill="#dd3333"/>
  <circle cx="33.12" cy="23.12" r="0.4" fill="#dd3333"/>
  <circle cx="34.38" cy="24.38" r="0.4" fill="#dd3333"/>
  <circle cx="31.88" cy="21.88" r="0.4" fill="#dd3333"/>
  <circle cx="30.62" cy="20.62" r="0.4" fill="#dd3333"/>
  <circle cx="29.99" cy="19.99" r="0.4" fill="#dd3333"/>
  <circle cx="29.38" cy="20.02" r="0.4" fill="#dd3333"/>
  <circle cx="29.00" cy="19.98" r="0.4" fill="#dd3333"/>
  <circle cx="28.12" cy="20.02" r="0.4" fill="#dd3333"/>
  <circle cx="27.67" cy="19.98" r="0.4" fill="#dd3333"/>
  <circle cx="26.88" cy="20.02" r="0.4" fill="#dd3333"/>
  <circle cx="26.33" cy="19.98" r="0.4" fill="#dd3333"/>
  <circle cx="21.00" cy="20.78" r="0.4" fill="#dd3333"/>
  <circle cx="22.33" cy="20.33" r="0.4" fill="#dd3333"/>
  <circle cx="23.67" cy="20.07" r="0.4" fill="#dd3333"/>
  <circle cx="25.00" cy="19.98" r="0.4" fill="#dd3333"/>
  <circle cx="25.62" cy="20.02" r="0.4" fill="#dd3333"/>
  <circle cx="23.12" cy="33.12" r="0.4" fill="#dd3333"/>
  <circle cx="24.38" cy="34.38" r="0.4" fill="#dd3333"/>
  <circle cx="21.88" cy="31.88" r="0.4" fill="#dd3333"/>
  <circle cx="20.62" cy="30.62" r="0.4" fill="#dd3333"/>
  <circle cx="16.88" cy="33.16" r="0.4" fill="#dd3333"/>
  <circle cx="15.62" cy="34.33" r="0.4" fill="#dd3333"/>
  <circle cx="16.96" cy="33.00" r="0.4" fill="#dd3333"/>
  <circle cx="18.12" cy="31.91" r="0.4" fill="#dd3333"/>
  <circle cx="18.30" cy="31.67" r="0.4" fill="#dd3333"/>
  <circle cx="19.38" cy="30.66" r="0.4" fill="#dd3333"/>
  <circle cx="19.99" cy="29.99" r="0.4" fill="#dd3333"/>
  <circle cx="20.02" cy="29.38" r="0.4" fill="#dd3333"/>
  <circle cx="19.63" cy="30.33" r="0.4" fill="#dd3333"/>
  <circle cx="19.98" cy="29.00" r="0.4" fill="#dd3333"/>
  <circle cx="20.02" cy="28.12" r="0.4" fill="#dd3333"/>
  <circle cx="19.98" cy="27.67" r="0.4" fill="#dd3333"/>
  <circle cx="20.02" cy="26.88" r="0.4" fill="#dd3333"/>
  <circle cx="19.98" cy="26.33" r="0.4" fill="#dd3333"/>
  <circle cx="20.02" cy="25.62" r="0.4" fill="#dd3333"/>
  <circle cx="19.98" cy="25.00" r="0.4" fill="#dd3333"/>
  <circle cx="20.07" cy="23.67" r="0.4" fill="#dd3333"/>
  <circle cx="20.33" cy="22.33" r="0.4" fill="#dd3333"/>
  <circle cx="20.85" cy="20.85" r="0.4" fill="#dd3333"/>
  <circle cx="19.67" cy="19.67" r="0.4" fill="#dd3333"/>
  <circle cx="20.78" cy="21.00" r="0.4" fill="#dd3333"/>
  <circle cx="19.67" cy="19.67" r="0.4" fill="#dd3333"/>
  <circle cx="18.33" cy="18.33" r="0.4" fill="#dd3333"/>
  <circle cx="17.00" cy="17.00" r="0.4" fill="#dd3333"/>
  <circle cx="18.33" cy="18.33" r="0.4" fill="#dd3333"/>
  <circle cx="15.67" cy="15.67" r="0.4" fill="#dd3333"/>
  <circle cx="17.00" cy="17.00" r="0.4" fill="#dd3333"/>
  <circle cx="15.00" cy="15.00" r="0.35" fill="#4466aa"/>
  <circle cx="35.00" cy="15.00" r="0.35" fill="#4466aa"/>
  <circle cx="35.00" cy="25.00" r="0.35" fill="#4466aa"/>
  <circle cx="25.00" cy="25.00" r="0.35" fill="#4466aa"/>
  <circle cx="25.00" cy="35.00" r="0.35" fill="#4466aa"/>
  <circle cx="15.00" cy="35.00" r="0.35" fill="#4466aa"/>
</g>
</svg>
