<svg xmlns="http://www.w3.org/2000/svg" width="50" height="50" viewBox="0 0 50 50"><path fill="#e8edff" stroke="#4466aa" stroke-width="0.3" d="M15,15 L35,15 L35,25 L25,25 L25,35 L15,35 Z"/><line x1="30" y1="20" x2="28.75" y2="20" stroke="#dd3333" stroke-width="0.25" stroke-linecap="round"/><line x1="21.25" y1="20.625" x2="23.75" y2="20" stroke="#dd3333" stroke-width="0.25" stroke-linecap="round"/><line x1="23.75" y1="20" x2="26.25" y2="20" stroke="#dd3333" stroke-width="0.25" stroke-linecap="round"/><line x1="28.75" y1="20" x2="26.25" y2="20" stroke="#dd3333" stroke-width="0.25" stroke-linecap="round"/><line x1="20" y1="30" x2="20" y2="28.75" stroke="#dd3333" stroke-width="0.25" stroke-linecap="round"/><line x1="20" y1="28.75" x2="20" y2="26.25" stroke="#dd3333" stroke-width="0.25" stroke-linecap="round"/><line x1="20" y1="26.25" x2="20" y2="23.75" stroke="#dd3333" stroke-width="0.25" stroke-linecap="round"/><line x1="21.25" y1="20.625" x2="20.83333396911621" y2="20.83333396911621" stroke="#dd3333" stroke-width="0.25" stroke-linecap="round"/><line x1="20" y1="23.75" x2="20.625" y2="21.25" stroke="#dd3333" stroke-width="0.25" stroke-linecap="round"/><line x1="20.83333396911621" y1="20.83333396911621" x2="20.625" y2="21.25" stroke="#dd3333" stroke-width="0.25" stroke-linecap="round"/><circle cx="30" cy="20" r="0.4" fill="#dd3333"/><circle cx="28.75" cy="20" r="0.4" fill="#dd3333"/><circle cx="21.25" cy="20.625" r="0.4" fill="#dd3333"/><circle cx="23.75" cy="20" r="0.4" fill="#dd3333"/><circle cx="26.25" cy="20" r="0.4" fill="#dd3333"/><circle cx="20" cy="30" r="0.4" fill="#dd3333"/><circle cx="20" cy="28.75" r="0.4" fill="#dd3333"/><circle cx="20" cy="26.25" r="0.4" fill="#dd3333"/><circle cx="20" cy="23.75" r="0.4" fill="#dd3333"/><circle cx="20.83333396911621" cy="20.83333396911621" r="0.4" fill="#dd3333"/><circle cx="20.625" cy="21.25" r="0.4" fill="#dd3333"/></svg>