<svg xmlns="http://www.w3.org/2000/svg" width="50" height="50" viewBox="0 0 50 50"><path fill="#e8edff" stroke="#4466aa" stroke-width="0.3" d="M15,15 L35,15 L35,25 L25,25 L25,35 L15,35 Z"/><line x1="29.97619047619048" y1="19.976190476190478" x2="28.75" y2="20.06377551020408" stroke="#dd3333" stroke-width="0.25" stroke-linecap="round"/><line x1="27.857142857142858" y1="19.904336734693878" x2="28.75" y2="20.06377551020408" stroke="#dd3333" stroke-width="0.25" stroke-linecap="round"/><line x1="22.142857142857146" y1="20.306122448979593" x2="24.999999999999996" y2="19.897959183673468" stroke="#dd3333" stroke-width="0.25" stroke-linecap="round"/><line x1="27.857142857142858" y1="19.904336734693878" x2="26.25" y2="20.0765306122449" stroke="#dd3333" stroke-width="0.25" stroke-linecap="round"/><line x1="24.999999999999996" y1="19.897959183673468" x2="26.25" y2="20.0765306122449" stroke="#dd3333" stroke-width="0.25" stroke-linecap="round"/><line x1="20.06377551020408" y1="28.75" x2="19.976190476190478" y2="29.976190476190478" stroke="#dd3333" stroke-width="0.25" stroke-linecap="round"/><line x1="20.06377551020408" y1="28.75" x2="19.904336734693878" y2="27.857142857142854" stroke="#dd3333" stroke-width="0.25" stroke-linecap="round"/><line x1="20.0765306122449" y1="26.25" x2="19.904336734693878" y2="27.857142857142854" stroke="#dd3333" stroke-width="0.25" stroke-linecap="round"/><line x1="20.0765306122449" y1="26.25" x2="19.89795918367347" y2="25" stroke="#dd3333" stroke-width="0.25" stroke-linecap="round"/><line x1="22.142857142857146" y1="20.306122448979593" x2="20.857142857142858" y2="20.857142857142858" stroke="#dd3333" stroke-width="0.25" stroke-linecap="round"/><line x1="19.89795918367347" y1="25" x2="20.306122448979593" y2="22.142857142857142" stroke="#dd3333" stroke-width="0.25" stroke-linecap="round"/><line x1="20.857142857142858" y1="20.857142857142858" x2="20.306122448979593" y2="22.142857142857142" stroke="#dd3333" stroke-width="0.25" stroke-linecap="round"/><circle cx="29.97619047619048" cy="19.976190476190478" r="0.4" fill="#dd3333"/><circle cx="28.75" cy="20.06377551020408" r="0.4" fill="#dd3333"/><circle cx="27.857142857142858" cy="19.904336734693878" r="0.4" fill="#dd3333"/><circle cx="22.142857142857146" cy="20.306122448979593" r="0.4" fill="#dd3333"/><circle cx="24.999999999999996" cy="19.897959183673468" r="0.4" fill="#dd3333"/><circle cx="26.25" cy="20.0765306122449" r="0.4" fill="#dd3333"/><circle cx="20.06377551020408" cy="28.75" r="0.4" fill="#dd3333"/><circle cx="19.976190476190478" cy="29.976190476190478" r="0.4" fill="#dd3333"/><circle cx="19.904336734693878" cy="27.857142857142854" r="0.4" fill="#dd3333"/><circle cx="20.0765306122449" cy="26.25" r="0.4" fill="#dd3333"/><circle cx="19.89795918367347" cy="25" r="0.4" fill="#dd3333"/><circle cx="20.857142857142858" cy="20.857142857142858" r="0.4" fill="#dd3333"/><circle cx="20.306122448979593" cy="22.142857142857142" r="0.4" fill="#dd3333"/></svg>