<svg xmlns="http://www.w3.org/2000/svg" width="50" height="50" viewBox="0 0 50 50"><path fill="#e8edff" stroke="#4466aa" stroke-width="0.3" d="M15,15 L35,15 L35,25 L25,25 L25,35 L15,35 Z"/><line x1="25" y1="35" x2="20" y2="30" stroke="#dd3333" stroke-width="0.25" stroke-linecap="round"/><line x1="15" y1="35" x2="20" y2="30" stroke="#dd3333" stroke-width="0.25" stroke-linecap="round"/><line x1="15" y1="15" x2="20" y2="20" stroke="#dd3333" stroke-width="0.25" stroke-linecap="round"/><line x1="25" y1="25" x2="20" y2="20" stroke="#dd3333" stroke-width="0.25" stroke-linecap="round"/><line x1="35" y1="15" x2="30" y2="20" stroke="#dd3333" stroke-width="0.25" stroke-linecap="round"/><line x1="35" y1="25" x2="30" y2="20" stroke="#dd3333" stroke-width="0.25" stroke-linecap="round"/><line x1="30" y1="20" x2="25" y2="20" stroke="#dd3333" stroke-width="0.25" stroke-linecap="round"/><line x1="20" y1="20" x2="25" y2="20" stroke="#dd3333" stroke-width="0.25" stroke-linecap="round"/><line x1="20" y1="20" x2="20" y2="25" stroke="#dd3333" stroke-width="0.25" stroke-linecap="round"/><line x1="20" y1="30" x2="20" y2="25" stroke="#dd3333" stroke-width="0.25" stroke-linecap="round"/><circle cx="25" cy="35" r="0.4" fill="#dd3333"/><circle cx="20" cy="30" r="0.4" fill="#dd3333"/><circle cx="15" cy="35" r="0.4" fill="#dd3333"/><circle cx="15" cy="15" r="0.4" fill="#dd3333"/><circle cx="20" cy="20" r="0.4" fill="#dd3333"/><circle cx="25" cy="25" r="0.4" fill="#dd3333"/><circle cx="35" cy="15" r="0.4" fill="#dd3333"/><circle cx="30" cy="20" r="0.4" fill="#dd3333"/><circle cx="35" cy="25" r="0.4" fill="#dd3333"/><circle cx="25" cy="20" r="0.4" fill="#dd3333"/><circle cx="20" cy="25" r="0.4" fill="#dd3333"/></svg>