<svg xmlns="http://www.w3.org/2000/svg" width="50" height="50" viewBox="0 0 50 50"><path fill="#e8edff" stroke="#4466aa" stroke-width="0.3" d="M35,25 L32.071067810058594,32.071067810058594 L25,35 L17.928932189941406,32.071067810058594 L15,25 L17.928932189941406,17.928932189941406 L25,15 L32.071067810058594,17.928932189941406 Z"/><line x1="30.656856536865234" y1="30.656858444213867" x2="27.82842445373535" y2="27.828428268432617" stroke="#dd3333" stroke-width="0.25" stroke-linecap="round"/><line x1="27.828426361083984" y1="27.828426361083984" x2="27.82842445373535" y2="27.828428268432617" stroke="#dd3333" stroke-width="0.25" stroke-linecap="round"/><line x1="25" y1="33.0000114440918" x2="25" y2="28.999980926513672" stroke="#dd3333" stroke-width="0.25" stroke-linecap="round"/><line x1="25" y1="28.9999942779541" x2="25" y2="28.999980926513672" stroke="#dd3333" stroke-width="0.25" stroke-linecap="round"/><line x1="19.343143463134766" y1="30.6568546295166" x2="22.171571731567383" y2="27.82842445373535" stroke="#dd3333" stroke-width="0.25" stroke-linecap="round"/><line x1="22.171573638916016" y1="27.828426361083984" x2="22.171571731567383" y2="27.82842445373535" stroke="#dd3333" stroke-width="0.25" stroke-linecap="round"/><line x1="21.000011444091797" y1="25" x2="16.999996185302734" y2="25" stroke="#dd3333" stroke-width="0.25" stroke-linecap="round"/><line x1="21.000011444091797" y1="25" x2="21.000009536743164" y2="25" stroke="#dd3333" stroke-width="0.25" stroke-linecap="round"/><line x1="19.343143463134766" y1="19.343141555786133" x2="22.17157554626465" y2="22.171571731567383" stroke="#dd3333" stroke-width="0.25" stroke-linecap="round"/><line x1="22.171573638916016" y1="22.171573638916016" x2="22.17157554626465" y2="22.171571731567383" stroke="#dd3333" stroke-width="0.25" stroke-linecap="round"/><line x1="25" y1="16.999988555908203" x2="25" y2="21.000019073486328" stroke="#dd3333" stroke-width="0.25" stroke-linecap="round"/><line x1="25" y1="21.0000057220459" x2="25" y2="21.000019073486328" stroke="#dd3333" stroke-width="0.25" stroke-linecap="round"/><line x1="21.000009536743164" y1="25" x2="25" y2="25" stroke="#dd3333" stroke-width="0.25" stroke-linecap="round"/><line x1="25" y1="28.9999942779541" x2="25" y2="25" stroke="#dd3333" stroke-width="0.25" stroke-linecap="round"/><line x1="27.828426361083984" y1="27.828426361083984" x2="25" y2="25" stroke="#dd3333" stroke-width="0.25" stroke-linecap="round"/><line x1="22.171573638916016" y1="27.828426361083984" x2="25" y2="25" stroke="#dd3333" stroke-width="0.25" stroke-linecap="round"/><line x1="25" y1="21.0000057220459" x2="25" y2="24.999998092651367" stroke="#dd3333" stroke-width="0.25" stroke-linecap="round"/><line x1="25.000001907348633" y1="25" x2="25" y2="24.999998092651367" stroke="#dd3333" stroke-width="0.25" stroke-linecap="round"/><line x1="25" y1="25" x2="24.999998092651367" y2="25" stroke="#dd3333" stroke-width="0.25" stroke-linecap="round"/><line x1="25" y1="25" x2="24.999998092651367" y2="25" stroke="#dd3333" stroke-width="0.25" stroke-linecap="round"/><line x1="25" y1="25" x2="25" y2="24.999998092651367" stroke="#dd3333" stroke-width="0.25" stroke-linecap="round"/><line x1="25" y1="25" x2="25.0000057220459" y2="25" stroke="#dd3333" stroke-width="0.25" stroke-linecap="round"/><line x1="25" y1="25" x2="25.0000057220459" y2="25" stroke="#dd3333" stroke-width="0.25" stroke-linecap="round"/><line x1="25" y1="24.999998092651367" x2="27.828426361083984" y2="22.171573638916016" stroke="#dd3333" stroke-width="0.25" stroke-linecap="round"/><line x1="30.656856536865234" y1="19.3431453704834" x2="27.828428268432617" y2="22.17157554626465" stroke="#dd3333" stroke-width="0.25" stroke-linecap="round"/><line x1="27.828426361083984" y1="22.171573638916016" x2="27.828428268432617" y2="22.17157554626465" stroke="#dd3333" stroke-width="0.25" stroke-linecap="round"/><line x1="25" y1="25" x2="25.000001907348633" y2="25" stroke="#dd3333" stroke-width="0.25" stroke-linecap="round"/><line x1="25.000001907348633" y1="25" x2="25" y2="25" stroke="#dd3333" stroke-width="0.25" stroke-linecap="round"/><line x1="28.999996185302734" y1="25" x2="25.000009536743164" y2="25" stroke="#dd3333" stroke-width="0.25" stroke-linecap="round"/><line x1="28.999996185302734" y1="25" x2="28.999990463256836" y2="25" stroke="#dd3333" stroke-width="0.25" stroke-linecap="round"/><line x1="33.000003814697266" y1="25" x2="28.999990463256836" y2="25" stroke="#dd3333" stroke-width="0.25" stroke-linecap="round"/><circle cx="30.656856536865234" cy="30.656858444213867" r="0.4" fill="#dd3333"/><circle cx="27.82842445373535" cy="27.828428268432617" r="0.4" fill="#dd3333"/><circle cx="27.828426361083984" cy="27.828426361083984" r="0.4" fill="#dd3333"/><circle cx="25" cy="33.0000114440918" r="0.4" fill="#dd3333"/><circle cx="25" cy="28.999980926513672" r="0.4" fill="#dd3333"/><circle cx="25" cy="28.9999942779541" r="0.4" fill="#dd3333"/><circle cx="19.343143463134766" cy="30.6568546295166" r="0.4" fill="#dd3333"/><circle cx="22.171571731567383" cy="27.82842445373535" r="0.4" fill="#dd3333"/><circle cx="22.171573638916016" cy="27.828426361083984" r="0.4" fill="#dd3333"/><circle cx="21.000011444091797" cy="25" r="0.4" fill="#dd3333"/><circle cx="16.999996185302734" cy="25" r="0.4" fill="#dd3333"/><circle cx="21.000009536743164" cy="25" r="0.4" fill="#dd3333"/><circle cx="19.343143463134766" cy="19.343141555786133" r="0.4" fill="#dd3333"/><circle cx="22.17157554626465" cy="22.171571731567383" r="0.4" fill="#dd3333"/><circle cx="22.171573638916016" cy="22.171573638916016" r="0.4" fill="#dd3333"/><circle cx="25" cy="16.999988555908203" r="0.4" fill="#dd3333"/><circle cx="25" cy="21.000019073486328" r="0.4" fill="#dd3333"/><circle cx="25" cy="21.0000057220459" r="0.4" fill="#dd3333"/><circle cx="25" cy="25" r="0.4" fill="#dd3333"/><circle cx="25" cy="25" r="0.4" fill="#dd3333"/><circle cx="25" cy="25" r="0.4" fill="#dd3333"/><circle cx="25" cy="25" r="0.4" fill="#dd3333"/><circle cx="25" cy="24.999998092651367" r="0.4" fill="#dd3333"/><circle cx="25.000001907348633" cy="25" r="0.4" fill="#dd3333"/><circle cx="24.999998092651367" cy="25" r="0.4" fill="#dd3333"/><circle cx="25" cy="25" r="0.4" fill="#dd3333"/><circle cx="25" cy="24.999998092651367" r="0.4" fill="#dd3333"/><circle cx="25.0000057220459" cy="25" r="0.4" fill="#dd3333"/><circle cx="27.828426361083984" cy="22.171573638916016" r="0.4" fill="#dd3333"/><circle cx="30.656856536865234" cy="19.3431453704834" r="0.4" fill="#dd3333"/><circle cx="27.828428268432617" cy="22.17157554626465" r="0.4" fill="#dd3333"/><circle cx="25.000001907348633" cy="25" r="0.4" fill="#dd3333"/><circle cx="28.999996185302734" cy="25" r="0.4" fill="#dd3333"/><circle cx="25.000009536743164" cy="25" r="0.4" fill="#dd3333"/><circle cx="28.999990463256836" cy="25" r="0.4" fill="#dd3333"/><circle cx="33.000003814697266" cy="25" r="0.4" fill="#dd3333"/></svg>