<svg xmlns="http://www.w3.org/2000/svg" width="50" height="50" viewBox="0 0 50 50"><path fill="#e8edff" stroke="#4466aa" stroke-width="0.3" d="M35,25 L32.071067810058594,32.071067810058594 L25,35 L17.928932189941406,32.071067810058594 L15,25 L17.928932189941406,17.928932189941406 L25,15 L32.071067810058594,17.928932189941406 Z"/><line x1="28.535533905029297" y1="23.535533905029297" x2="30" y2="20" stroke="#bbbbbb" stroke-width="0.25" stroke-linecap="round"/><line x1="23.535533905029297" y1="21.464466094970703" x2="25" y2="25" stroke="#bbbbbb" stroke-width="0.25" stroke-linecap="round"/><line x1="28.535533905029297" y1="26.464466094970703" x2="32.071067810058594" y2="25" stroke="#bbbbbb" stroke-width="0.25" stroke-linecap="round"/><line x1="28.535533905029297" y1="23.535533905029297" x2="32.071067810058594" y2="25" stroke="#bbbbbb" stroke-width="0.25" stroke-linecap="round"/><line x1="25" y1="25" x2="28.535533905029297" y2="26.464466094970703" stroke="#bbbbbb" stroke-width="0.25" stroke-linecap="round"/><line x1="30" y1="20" x2="32.071067810058594" y2="17.928932189941406" stroke="#bbbbbb" stroke-width="0.25" stroke-linecap="round"/><line x1="25" y1="17.928932189941406" x2="23.535533905029297" y2="21.464466094970703" stroke="#bbbbbb" stroke-width="0.25" stroke-linecap="round"/><line x1="25" y1="17.928932189941406" x2="25" y2="15" stroke="#bbbbbb" stroke-width="0.25" stroke-linecap="round"/><circle cx="28.535533905029297" cy="23.535533905029297" r="0.4" fill="#bbbbbb"/><circle cx="30" cy="20" r="0.4" fill="#bbbbbb"/><circle cx="23.535533905029297" cy="21.464466094970703" r="0.4" fill="#bbbbbb"/><circle cx="25" cy="25" r="0.4" fill="#bbbbbb"/><circle cx="28.535533905029297" cy="26.464466094970703" r="0.4" fill="#bbbbbb"/><circle cx="32.071067810058594" cy="25" r="0.4" fill="#bbbbbb"/><circle cx="32.071067810058594" cy="17.928932189941406" r="0.4" fill="#bbbbbb"/><circle cx="25" cy="17.928932189941406" r="0.4" fill="#bbbbbb"/><circle cx="25" cy="15" r="0.4" fill="#bbbbbb"/><circle cx="28.535533905029297" cy="23.535533905029297" r="0" fill="#dd3333"/><circle cx="30" cy="20" r="0" fill="#dd3333"/><circle cx="23.535533905029297" cy="21.464466094970703" r="0" fill="#dd3333"/><circle cx="25" cy="25" r="0" fill="#dd3333"/><circle cx="28.535533905029297" cy="26.464466094970703" r="0" fill="#dd3333"/><circle cx="32.071067810058594" cy="25" r="0" fill="#dd3333"/><circle cx="32.071067810058594" cy="17.928932189941406" r="0" fill="#dd3333"/><circle cx="25" cy="17.928932189941406" r="0" fill="#dd3333"/><circle cx="25" cy="15" r="0" fill="#dd3333"/></svg>