<svg xmlns="http://www.w3.org/2000/svg" width="50" height="50" viewBox="0 0 50 50"><path fill="#e8edff" stroke="#4466aa" stroke-width="0.3" d="M35,25 L32.071067810058594,32.071067810058594 L25,35 L17.928932189941406,32.071067810058594 L15,25 L17.928932189941406,17.928932189941406 L25,15 L32.071067810058594,17.928932189941406 Z"/><circle cx="25" cy="15" r="0.4" fill="#dd3333"/><circle cx="25" cy="24.999998092651367" r="0.4" fill="#dd3333"/><circle cx="17.928932189941406" cy="17.928932189941406" r="0.4" fill="#dd3333"/><circle cx="15" cy="25" r="0.4" fill="#dd3333"/><circle cx="17.928932189941406" cy="32.071067810058594" r="0.4" fill="#dd3333"/><circle cx="25" cy="35" r="0.4" fill="#dd3333"/><circle cx="32.071067810058594" cy="32.071067810058594" r="0.4" fill="#dd3333"/><circle cx="35" cy="25" r="0.4" fill="#dd3333"/><circle cx="32.071067810058594" cy="17.928932189941406" r="0.4" fill="#dd3333"/><line x1="25" y1="15" x2="25" y2="24.999998092651367" stroke="#bbbbbb" stroke-width="0.25" stroke-linecap="round"/><line x1="17.928932189941406" y1="17.928932189941406" x2="25" y2="24.999998092651367" stroke="#bbbbbb" stroke-width="0.25" stroke-linecap="round"/><line x1="15" y1="25" x2="25" y2="24.999998092651367" stroke="#bbbbbb" stroke-width="0.25" stroke-linecap="round"/><line x1="17.928932189941406" y1="32.071067810058594" x2="25" y2="24.999998092651367" stroke="#bbbbbb" stroke-width="0.25" stroke-linecap="round"/><line x1="25" y1="35" x2="25" y2="24.999998092651367" stroke="#bbbbbb" stroke-width="0.25" stroke-linecap="round"/><line x1="32.071067810058594" y1="32.071067810058594" x2="25" y2="24.999998092651367" stroke="#bbbbbb" stroke-width="0.25" stroke-linecap="round"/><line x1="35" y1="25" x2="25" y2="24.999998092651367" stroke="#bbbbbb" stroke-width="0.25" stroke-linecap="round"/><line x1="32.071067810058594" y1="17.928932189941406" x2="25" y2="24.999998092651367" stroke="#bbbbbb" stroke-width="0.25" stroke-linecap="round"/><circle cx="25" cy="15" r="0.4" fill="#bbbbbb"/><circle cx="25" cy="24.999998092651367" r="0.4" fill="#bbbbbb"/><circle cx="17.928932189941406" cy="17.928932189941406" r="0.4" fill="#bbbbbb"/><circle cx="15" cy="25" r="0.4" fill="#bbbbbb"/><circle cx="17.928932189941406" cy="32.071067810058594" r="0.4" fill="#bbbbbb"/><circle cx="25" cy="35" r="0.4" fill="#bbbbbb"/><circle cx="32.071067810058594" cy="32.071067810058594" r="0.4" fill="#bbbbbb"/><circle cx="35" cy="25" r="0.4" fill="#bbbbbb"/><circle cx="32.071067810058594" cy="17.928932189941406" r="0.4" fill="#bbbbbb"/></svg>