<svg xmlns="http://www.w3.org/2000/svg" width="1500.00" height="900.00" viewBox="-1.00 -1.00 152.00 92.00">
<style>text { font-family: sans-serif; font-size: 3px; fill: #333; }</style>
<rect x="-1" y="-1" width="152.00" height="92.00" fill="white"/>
<g transform="translate(0.00, 0)">
  <text x="25.00" y="55.00" text-anchor="middle">StraightSkeleton (8e, 9n)</text>
  <polygon points="35.00,25.00 32.07,32.07 25.00,35.00 17.93,32.07 15.00,25.00 17.93,17.93 25.00,15.00 32.07,17.93" fill="#f0f4ff" stroke="#4466aa" stroke-width="0.3"/>
  <line x1="35.00" y1="25.00" x2="25.00" y2="25.00" stroke="#dd3333" stroke-width="0.25" stroke-linecap="round"/>
  <line x1="32.07" y1="32.07" x2="25.00" y2="25.00" stroke="#dd3333" stroke-width="0.25" stroke-linecap="round"/>
  <line x1="25.00" y1="35.00" x2="25.00" y2="25.00" stroke="#dd3333" stroke-width="0.25" stroke-linecap="round"/>
  <line x1="17.93" y1="32.07" x2="25.00" y2="25.00" stroke="#dd3333" stroke-width="0.25" stroke-linecap="round"/>
  <line x1="15.00" y1="25.00" x2="25.00" y2="25.00" stroke="#dd3333" stroke-width="0.25" stroke-linecap="round"/>
  <line x1="17.93" y1="17.93" x2="25.00" y2="25.00" stroke="#dd3333" stroke-width="0.25" stroke-linecap="round"/>
  <line x1="25.00" y1="15.00" x2="25.00" y2="25.00" stroke="#dd3333" stroke-width="0.25" stroke-linecap="round"/>
  <line x1="32.07" y1="17.93" x2="25.00" y2="25.00" stroke="#dd3333" stroke-width="0.25" stroke-linecap="round"/>
  <circle cx="35.00" cy="25.00" r="0.4" fill="#dd3333"/>
  <circle cx="25.00" cy="25.00" r="0.4" fill="#dd3333"/>
  <circle cx="32.07" cy="32.07" r="0.4" fill="#dd3333"/>
  <circle cx="25.00" cy="35.00" r="0.4" fill="#dd3333"/>
  <circle cx="17.93" cy="32.07" r="0.4" fill="#dd3333"/>
  <circle cx="15.00" cy="25.00" r="0.4" fill="#dd3333"/>
  <circle cx="17.93" cy="17.93" r="0.4" fill="#dd3333"/>
  <circle cx="25.00" cy="15.00" r="0.4" fill="#dd3333"/>
  <circle cx="32.07" cy="17.93" r="0.4" fill="#dd3333"/>
  <circle cx="35.00" cy="25.00" r="0.35" fill="#4466aa"/>
  <circle cx="32.07" cy="32.07" r="0.35" fill="#4466aa"/>
  <circle cx="25.00" cy="35.00" r="0.35" fill="#4466aa"/>
  <circle cx="17.93" cy="32.07" r="0.35" fill="#4466aa"/>
  <circle cx="15.00" cy="25.00" r="0.35" fill="#4466aa"/>
  <circle cx="17.93" cy="17.93" r="0.35" fill="#4466aa"/>
  <circle cx="25.00" cy="15.00" r="0.35" fill="#4466aa"/>
  <circle cx="32.07" cy="17.93" r="0.35" fill="#4466aa"/>
</g>
<g transform="translate(50.00, 0)">
  <text x="25.00" y="55.00" text-anchor="middle">ChordalAxis (18e, 14n)</text>
  <polygon points="35.00,25.00 32.07,32.07 25.00,35.00 17.93,32.07 15.00,25.00 17.93,17.93 25.00,15.00 32.07,17.93" fill="#f0f4ff" stroke="#4466aa" stroke-width="0.3"/>
  <line x1="25.00" y1="28.33" x2="30.00" y2="30.00" stroke="#dd3333" stroke-width="0.25" stroke-linecap="round"/>
  <line x1="25.00" y1="28.33" x2="20.00" y2="30.00" stroke="#dd3333" stroke-width="0.25" stroke-linecap="round"/>
  <line x1="25.00" y1="28.33" x2="25.00" y2="25.00" stroke="#dd3333" stroke-width="0.25" stroke-linecap="round"/>
  <line x1="20.00" y1="30.00" x2="17.93" y2="32.07" stroke="#dd3333" stroke-width="0.25" stroke-linecap="round"/>
  <line x1="25.00" y1="25.00" x2="26.46" y2="21.46" stroke="#dd3333" stroke-width="0.25" stroke-linecap="round"/>
  <line x1="21.46" y1="26.46" x2="25.00" y2="25.00" stroke="#dd3333" stroke-width="0.25" stroke-linecap="round"/>
  <line x1="25.98" y1="25.98" x2="30.00" y2="30.00" stroke="#dd3333" stroke-width="0.25" stroke-linecap="round"/>
  <line x1="25.98" y1="25.98" x2="26.46" y2="21.46" stroke="#dd3333" stroke-width="0.25" stroke-linecap="round"/>
  <line x1="25.98" y1="25.98" x2="21.46" y2="26.46" stroke="#dd3333" stroke-width="0.25" stroke-linecap="round"/>
  <line x1="26.46" y1="21.46" x2="30.00" y2="20.00" stroke="#dd3333" stroke-width="0.25" stroke-linecap="round"/>
  <line x1="27.36" y1="22.64" x2="25.00" y2="25.00" stroke="#dd3333" stroke-width="0.25" stroke-linecap="round"/>
  <line x1="27.36" y1="22.64" x2="23.54" y2="21.46" stroke="#dd3333" stroke-width="0.25" stroke-linecap="round"/>
  <line x1="27.36" y1="22.64" x2="33.54" y2="21.46" stroke="#dd3333" stroke-width="0.25" stroke-linecap="round"/>
  <line x1="25.00" y1="17.93" x2="23.54" y2="21.46" stroke="#dd3333" stroke-width="0.25" stroke-linecap="round"/>
  <line x1="28.33" y1="20.29" x2="26.46" y2="21.46" stroke="#dd3333" stroke-width="0.25" stroke-linecap="round"/>
  <line x1="28.33" y1="20.29" x2="33.54" y2="21.46" stroke="#dd3333" stroke-width="0.25" stroke-linecap="round"/>
  <line x1="28.33" y1="20.29" x2="25.00" y2="17.93" stroke="#dd3333" stroke-width="0.25" stroke-linecap="round"/>
  <line x1="30.00" y1="20.00" x2="33.54" y2="21.46" stroke="#dd3333" stroke-width="0.25" stroke-linecap="round"/>
  <circle cx="25.00" cy="28.33" r="0.4" fill="#dd3333"/>
  <circle cx="30.00" cy="30.00" r="0.4" fill="#dd3333"/>
  <circle cx="20.00" cy="30.00" r="0.4" fill="#dd3333"/>
  <circle cx="25.00" cy="25.00" r="0.4" fill="#dd3333"/>
  <circle cx="17.93" cy="32.07" r="0.4" fill="#dd3333"/>
  <circle cx="26.46" cy="21.46" r="0.4" fill="#dd3333"/>
  <circle cx="21.46" cy="26.46" r="0.4" fill="#dd3333"/>
  <circle cx="25.98" cy="25.98" r="0.4" fill="#dd3333"/>
  <circle cx="30.00" cy="20.00" r="0.4" fill="#dd3333"/>
  <circle cx="27.36" cy="22.64" r="0.4" fill="#dd3333"/>
  <circle cx="23.54" cy="21.46" r="0.4" fill="#dd3333"/>
  <circle cx="33.54" cy="21.46" r="0.4" fill="#dd3333"/>
  <circle cx="25.00" cy="17.93" r="0.4" fill="#dd3333"/>
  <circle cx="28.33" cy="20.29" r="0.4" fill="#dd3333"/>
  <circle cx="35.00" cy="25.00" r="0.35" fill="#4466aa"/>
  <circle cx="32.07" cy="32.07" r="0.35" fill="#4466aa"/>
  <circle cx="25.00" cy="35.00" r="0.35" fill="#4466aa"/>
  <circle cx="17.93" cy="32.07" r="0.35" fill="#4466aa"/>
  <circle cx="15.00" cy="25.00" r="0.35" fill="#4466aa"/>
  <circle cx="17.93" cy="17.93" r="0.35" fill="#4466aa"/>
  <circle cx="25.00" cy="15.00" r="0.35" fill="#4466aa"/>
  <circle cx="32.07" cy="17.93" r="0.35" fill="#4466aa"/>
</g>
<g transform="translate(100.00, 0)">
  <text x="25.00" y="55.00" text-anchor="middle">Voronoi (71e, 79n)</text>
  <polygon points="35.00,25.00 32.07,32.07 25.00,35.00 17.93,32.07 15.00,25.00 17.93,17.93 25.00,15.00 32.07,17.93" fill="#f0f4ff" stroke="#4466aa" stroke-width="0.3"/>
  <line x1="31.36" y1="31.36" x2="29.95" y2="29.95" stroke="#dd3333" stroke-width="0.25" stroke-linecap="round"/>
  <line x1="29.95" y1="29.95" x2="29.95" y2="29.95" stroke="#dd3333" stroke-width="0.25" stroke-linecap="round"/>
  <line x1="27.12" y1="27.12" x2="28.54" y2="28.54" stroke="#dd3333" stroke-width="0.25" stroke-linecap="round"/>
  <line x1="29.95" y1="29.95" x2="28.54" y2="28.54" stroke="#dd3333" stroke-width="0.25" stroke-linecap="round"/>
  <line x1="28.54" y1="28.54" x2="28.54" y2="28.54" stroke="#dd3333" stroke-width="0.25" stroke-linecap="round"/>
  <line x1="27.12" y1="27.12" x2="27.12" y2="27.12" stroke="#dd3333" stroke-width="0.25" stroke-linecap="round"/>
  <line x1="25.71" y1="25.71" x2="27.12" y2="27.12" stroke="#dd3333" stroke-width="0.25" stroke-linecap="round"/>
  <line x1="25.71" y1="25.71" x2="25.71" y2="25.71" stroke="#dd3333" stroke-width="0.25" stroke-linecap="round"/>
  <line x1="25.00" y1="32.00" x2="25.00" y2="34.00" stroke="#dd3333" stroke-width="0.25" stroke-linecap="round"/>
  <line x1="25.00" y1="32.00" x2="25.00" y2="32.00" stroke="#dd3333" stroke-width="0.25" stroke-linecap="round"/>
  <line x1="25.00" y1="30.00" x2="25.00" y2="32.00" stroke="#dd3333" stroke-width="0.25" stroke-linecap="round"/>
  <line x1="25.00" y1="30.00" x2="25.00" y2="30.00" stroke="#dd3333" stroke-width="0.25" stroke-linecap="round"/>
  <line x1="25.00" y1="26.00" x2="25.00" y2="28.00" stroke="#dd3333" stroke-width="0.25" stroke-linecap="round"/>
  <line x1="25.00" y1="30.00" x2="25.00" y2="28.00" stroke="#dd3333" stroke-width="0.25" stroke-linecap="round"/>
  <line x1="25.00" y1="26.00" x2="25.00" y2="26.00" stroke="#dd3333" stroke-width="0.25" stroke-linecap="round"/>
  <line x1="18.64" y1="31.36" x2="20.05" y2="29.95" stroke="#dd3333" stroke-width="0.25" stroke-linecap="round"/>
  <line x1="20.05" y1="29.95" x2="20.05" y2="29.95" stroke="#dd3333" stroke-width="0.25" stroke-linecap="round"/>
  <line x1="20.05" y1="29.95" x2="21.46" y2="28.54" stroke="#dd3333" stroke-width="0.25" stroke-linecap="round"/>
  <line x1="21.46" y1="28.54" x2="21.46" y2="28.54" stroke="#dd3333" stroke-width="0.25" stroke-linecap="round"/>
  <line x1="24.29" y1="25.71" x2="22.88" y2="27.12" stroke="#dd3333" stroke-width="0.25" stroke-linecap="round"/>
  <line x1="21.46" y1="28.54" x2="22.88" y2="27.12" stroke="#dd3333" stroke-width="0.25" stroke-linecap="round"/>
  <line x1="22.88" y1="27.12" x2="22.88" y2="27.12" stroke="#dd3333" stroke-width="0.25" stroke-linecap="round"/>
  <line x1="24.29" y1="25.71" x2="24.29" y2="25.71" stroke="#dd3333" stroke-width="0.25" stroke-linecap="round"/>
  <line x1="18.00" y1="25.00" x2="16.00" y2="25.00" stroke="#dd3333" stroke-width="0.25" stroke-linecap="round"/>
  <line x1="18.00" y1="25.00" x2="18.00" y2="25.00" stroke="#dd3333" stroke-width="0.25" stroke-linecap="round"/>
  <line x1="20.00" y1="25.00" x2="18.00" y2="25.00" stroke="#dd3333" stroke-width="0.25" stroke-linecap="round"/>
  <line x1="20.00" y1="25.00" x2="20.00" y2="25.00" stroke="#dd3333" stroke-width="0.25" stroke-linecap="round"/>
  <line x1="20.00" y1="25.00" x2="22.00" y2="25.00" stroke="#dd3333" stroke-width="0.25" stroke-linecap="round"/>
  <line x1="22.00" y1="25.00" x2="22.00" y2="25.00" stroke="#dd3333" stroke-width="0.25" stroke-linecap="round"/>
  <line x1="22.00" y1="25.00" x2="24.00" y2="25.00" stroke="#dd3333" stroke-width="0.25" stroke-linecap="round"/>
  <line x1="24.00" y1="25.00" x2="24.00" y2="25.00" stroke="#dd3333" stroke-width="0.25" stroke-linecap="round"/>
  <line x1="18.64" y1="18.64" x2="20.05" y2="20.05" stroke="#dd3333" stroke-width="0.25" stroke-linecap="round"/>
  <line x1="20.05" y1="20.05" x2="20.05" y2="20.05" stroke="#dd3333" stroke-width="0.25" stroke-linecap="round"/>
  <line x1="22.88" y1="22.88" x2="21.46" y2="21.46" stroke="#dd3333" stroke-width="0.25" stroke-linecap="round"/>
  <line x1="20.05" y1="20.05" x2="21.46" y2="21.46" stroke="#dd3333" stroke-width="0.25" stroke-linecap="round"/>
  <line x1="21.46" y1="21.46" x2="21.46" y2="21.46" stroke="#dd3333" stroke-width="0.25" stroke-linecap="round"/>
  <line x1="22.88" y1="22.88" x2="22.88" y2="22.88" stroke="#dd3333" stroke-width="0.25" stroke-linecap="round"/>
  <line x1="24.29" y1="24.29" x2="22.88" y2="22.88" stroke="#dd3333" stroke-width="0.25" stroke-linecap="round"/>
  <line x1="24.29" y1="24.29" x2="24.29" y2="24.29" stroke="#dd3333" stroke-width="0.25" stroke-linecap="round"/>
  <line x1="25.00" y1="18.00" x2="25.00" y2="16.00" stroke="#dd3333" stroke-width="0.25" stroke-linecap="round"/>
  <line x1="25.00" y1="18.00" x2="25.00" y2="18.00" stroke="#dd3333" stroke-width="0.25" stroke-linecap="round"/>
  <line x1="25.00" y1="20.00" x2="25.00" y2="18.00" stroke="#dd3333" stroke-width="0.25" stroke-linecap="round"/>
  <line x1="25.00" y1="20.00" x2="25.00" y2="20.00" stroke="#dd3333" stroke-width="0.25" stroke-linecap="round"/>
  <line x1="25.00" y1="24.00" x2="25.00" y2="22.00" stroke="#dd3333" stroke-width="0.25" stroke-linecap="round"/>
  <line x1="25.00" y1="20.00" x2="25.00" y2="22.00" stroke="#dd3333" stroke-width="0.25" stroke-linecap="round"/>
  <line x1="25.71" y1="25.71" x2="25.00" y2="25.00" stroke="#dd3333" stroke-width="0.25" stroke-linecap="round"/>
  <line x1="24.00" y1="25.00" x2="25.00" y2="25.00" stroke="#dd3333" stroke-width="0.25" stroke-linecap="round"/>
  <line x1="24.29" y1="25.71" x2="25.00" y2="25.00" stroke="#dd3333" stroke-width="0.25" stroke-linecap="round"/>
  <line x1="25.00" y1="24.00" x2="25.00" y2="24.00" stroke="#dd3333" stroke-width="0.25" stroke-linecap="round"/>
  <line x1="31.36" y1="18.64" x2="29.95" y2="20.05" stroke="#dd3333" stroke-width="0.25" stroke-linecap="round"/>
  <line x1="29.95" y1="20.05" x2="29.95" y2="20.05" stroke="#dd3333" stroke-width="0.25" stroke-linecap="round"/>
  <line x1="29.95" y1="20.05" x2="28.54" y2="21.46" stroke="#dd3333" stroke-width="0.25" stroke-linecap="round"/>
  <line x1="28.54" y1="21.46" x2="28.54" y2="21.46" stroke="#dd3333" stroke-width="0.25" stroke-linecap="round"/>
  <line x1="25.71" y1="24.29" x2="27.12" y2="22.88" stroke="#dd3333" stroke-width="0.25" stroke-linecap="round"/>
  <line x1="28.54" y1="21.46" x2="27.12" y2="22.88" stroke="#dd3333" stroke-width="0.25" stroke-linecap="round"/>
  <line x1="27.12" y1="22.88" x2="27.12" y2="22.88" stroke="#dd3333" stroke-width="0.25" stroke-linecap="round"/>
  <line x1="25.00" y1="26.00" x2="25.00" y2="25.00" stroke="#dd3333" stroke-width="0.25" stroke-linecap="round"/>
  <line x1="24.29" y1="24.29" x2="25.00" y2="25.00" stroke="#dd3333" stroke-width="0.25" stroke-linecap="round"/>
  <line x1="25.00" y1="24.00" x2="25.00" y2="25.00" stroke="#dd3333" stroke-width="0.25" stroke-linecap="round"/>
  <line x1="25.00" y1="25.00" x2="25.00" y2="25.00" stroke="#dd3333" stroke-width="0.25" stroke-linecap="round"/>
  <line x1="25.71" y1="24.29" x2="25.71" y2="24.29" stroke="#dd3333" stroke-width="0.25" stroke-linecap="round"/>
  <line x1="25.00" y1="25.00" x2="25.71" y2="24.29" stroke="#dd3333" stroke-width="0.25" stroke-linecap="round"/>
  <line x1="25.00" y1="25.00" x2="26.00" y2="25.00" stroke="#dd3333" stroke-width="0.25" stroke-linecap="round"/>
  <line x1="26.00" y1="25.00" x2="26.00" y2="25.00" stroke="#dd3333" stroke-width="0.25" stroke-linecap="round"/>
  <line x1="26.00" y1="25.00" x2="28.00" y2="25.00" stroke="#dd3333" stroke-width="0.25" stroke-linecap="round"/>
  <line x1="28.00" y1="25.00" x2="28.00" y2="25.00" stroke="#dd3333" stroke-width="0.25" stroke-linecap="round"/>
  <line x1="30.00" y1="25.00" x2="28.00" y2="25.00" stroke="#dd3333" stroke-width="0.25" stroke-linecap="round"/>
  <line x1="30.00" y1="25.00" x2="30.00" y2="25.00" stroke="#dd3333" stroke-width="0.25" stroke-linecap="round"/>
  <line x1="32.00" y1="25.00" x2="30.00" y2="25.00" stroke="#dd3333" stroke-width="0.25" stroke-linecap="round"/>
  <line x1="32.00" y1="25.00" x2="32.00" y2="25.00" stroke="#dd3333" stroke-width="0.25" stroke-linecap="round"/>
  <line x1="34.00" y1="25.00" x2="32.00" y2="25.00" stroke="#dd3333" stroke-width="0.25" stroke-linecap="round"/>
  <circle cx="31.36" cy="31.36" r="0.4" fill="#dd3333"/>
  <circle cx="29.95" cy="29.95" r="0.4" fill="#dd3333"/>
  <circle cx="29.95" cy="29.95" r="0.4" fill="#dd3333"/>
  <circle cx="27.12" cy="27.12" r="0.4" fill="#dd3333"/>
  <circle cx="28.54" cy="28.54" r="0.4" fill="#dd3333"/>
  <circle cx="28.54" cy="28.54" r="0.4" fill="#dd3333"/>
  <circle cx="27.12" cy="27.12" r="0.4" fill="#dd3333"/>
  <circle cx="25.71" cy="25.71" r="0.4" fill="#dd3333"/>
  <circle cx="25.71" cy="25.71" r="0.4" fill="#dd3333"/>
  <circle cx="25.00" cy="32.00" r="0.4" fill="#dd3333"/>
  <circle cx="25.00" cy="34.00" r="0.4" fill="#dd3333"/>
  <circle cx="25.00" cy="32.00" r="0.4" fill="#dd3333"/>
  <circle cx="25.00" cy="30.00" r="0.4" fill="#dd3333"/>
  <circle cx="25.00" cy="30.00" r="0.4" fill="#dd3333"/>
  <circle cx="25.00" cy="26.00" r="0.4" fill="#dd3333"/>
  <circle cx="25.00" cy="28.00" r="0.4" fill="#dd3333"/>
  <circle cx="25.00" cy="28.00" r="0.4" fill="#dd3333"/>
  <circle cx="25.00" cy="26.00" r="0.4" fill="#dd3333"/>
  <circle cx="18.64" cy="31.36" r="0.4" fill="#dd3333"/>
  <circle cx="20.05" cy="29.95" r="0.4" fill="#dd3333"/>
  <circle cx="20.05" cy="29.95" r="0.4" fill="#dd3333"/>
  <circle cx="21.46" cy="28.54" r="0.4" fill="#dd3333"/>
  <circle cx="21.46" cy="28.54" r="0.4" fill="#dd3333"/>
  <circle cx="24.29" cy="25.71" r="0.4" fill="#dd3333"/>
  <circle cx="22.88" cy="27.12" r="0.4" fill="#dd3333"/>
  <circle cx="22.88" cy="27.12" r="0.4" fill="#dd3333"/>
  <circle cx="24.29" cy="25.71" r="0.4" fill="#dd3333"/>
  <circle cx="18.00" cy="25.00" r="0.4" fill="#dd3333"/>
  <circle cx="16.00" cy="25.00" r="0.4" fill="#dd3333"/>
  <circle cx="18.00" cy="25.00" r="0.4" fill="#dd3333"/>
  <circle cx="20.00" cy="25.00" r="0.4" fill="#dd3333"/>
  <circle cx="20.00" cy="25.00" r="0.4" fill="#dd3333"/>
  <circle cx="22.00" cy="25.00" r="0.4" fill="#dd3333"/>
  <circle cx="22.00" cy="25.00" r="0.4" fill="#dd3333"/>
  <circle cx="24.00" cy="25.00" r="0.4" fill="#dd3333"/>
  <circle cx="24.00" cy="25.00" r="0.4" fill="#dd3333"/>
  <circle cx="18.64" cy="18.64" r="0.4" fill="#dd3333"/>
  <circle cx="20.05" cy="20.05" r="0.4" fill="#dd3333"/>
  <circle cx="20.05" cy="20.05" r="0.4" fill="#dd3333"/>
  <circle cx="22.88" cy="22.88" r="0.4" fill="#dd3333"/>
  <circle cx="21.46" cy="21.46" r="0.4" fill="#dd3333"/>
  <circle cx="21.46" cy="21.46" r="0.4" fill="#dd3333"/>
  <circle cx="22.88" cy="22.88" r="0.4" fill="#dd3333"/>
  <circle cx="24.29" cy="24.29" r="0.4" fill="#dd3333"/>
  <circle cx="24.29" cy="24.29" r="0.4" fill="#dd3333"/>
  <circle cx="25.00" cy="18.00" r="0.4" fill="#dd3333"/>
  <circle cx="25.00" cy="16.00" r="0.4" fill="#dd3333"/>
  <circle cx="25.00" cy="18.00" r="0.4" fill="#dd3333"/>
  <circle cx="25.00" cy="20.00" r="0.4" fill="#dd3333"/>
  <circle cx="25.00" cy="20.00" r="0.4" fill="#dd3333"/>
  <circle cx="25.00" cy="24.00" r="0.4" fill="#dd3333"/>
  <circle cx="25.00" cy="22.00" r="0.4" fill="#dd3333"/>
  <circle cx="25.00" cy="22.00" r="0.4" fill="#dd3333"/>
  <circle cx="25.00" cy="25.00" r="0.4" fill="#dd3333"/>
  <circle cx="25.00" cy="25.00" r="0.4" fill="#dd3333"/>
  <circle cx="25.00" cy="25.00" r="0.4" fill="#dd3333"/>
  <circle cx="25.00" cy="24.00" r="0.4" fill="#dd3333"/>
  <circle cx="31.36" cy="18.64" r="0.4" fill="#dd3333"/>
  <circle cx="29.95" cy="20.05" r="0.4" fill="#dd3333"/>
  <circle cx="29.95" cy="20.05" r="0.4" fill="#dd3333"/>
  <circle cx="28.54" cy="21.46" r="0.4" fill="#dd3333"/>
  <circle cx="28.54" cy="21.46" r="0.4" fill="#dd3333"/>
  <circle cx="25.71" cy="24.29" r="0.4" fill="#dd3333"/>
  <circle cx="27.12" cy="22.88" r="0.4" fill="#dd3333"/>
  <circle cx="27.12" cy="22.88" r="0.4" fill="#dd3333"/>
  <circle cx="25.00" cy="25.00" r="0.4" fill="#dd3333"/>
  <circle cx="25.00" cy="25.00" r="0.4" fill="#dd3333"/>
  <circle cx="25.00" cy="25.00" r="0.4" fill="#dd3333"/>
  <circle cx="25.71" cy="24.29" r="0.4" fill="#dd3333"/>
  <circle cx="25.00" cy="25.00" r="0.4" fill="#dd3333"/>
  <circle cx="26.00" cy="25.00" r="0.4" fill="#dd3333"/>
  <circle cx="26.00" cy="25.00" r="0.4" fill="#dd3333"/>
  <circle cx="28.00" cy="25.00" r="0.4" fill="#dd3333"/>
  <circle cx="28.00" cy="25.00" r="0.4" fill="#dd3333"/>
  <circle cx="30.00" cy="25.00" r="0.4" fill="#dd3333"/>
  <circle cx="30.00" cy="25.00" r="0.4" fill="#dd3333"/>
  <circle cx="32.00" cy="25.00" r="0.4" fill="#dd3333"/>
  <circle cx="32.00" cy="25.00" r="0.4" fill="#dd3333"/>
  <circle cx="34.00" cy="25.00" r="0.4" fill="#dd3333"/>
  <circle cx="35.00" cy="25.00" r="0.35" fill="#4466aa"/>
  <circle cx="32.07" cy="32.07" r="0.35" fill="#4466aa"/>
  <circle cx="25.00" cy="35.00" r="0.35" fill="#4466aa"/>
  <circle cx="17.93" cy="32.07" r="0.35" fill="#4466aa"/>
  <circle cx="15.00" cy="25.00" r="0.35" fill="#4466aa"/>
  <circle cx="17.93" cy="17.93" r="0.35" fill="#4466aa"/>
  <circle cx="25.00" cy="15.00" r="0.35" fill="#4466aa"/>
  <circle cx="32.07" cy="17.93" r="0.35" fill="#4466aa"/>
</g>
</svg>
