<svg xmlns="http://www.w3.org/2000/svg" width="74" height="106" viewBox="0 0 74 106"><path fill="#e8edff" stroke="#4466aa" stroke-width="0.3" d="M47,91 L47,63 L45,59 L45,49 L55,49 L57,61 L59,61 L57,47 L45,45 L43,41 L41,39 L41,33 L42,29 L45,25 L45,21 L43,17 L39,15 L35,15 L31,17 L29,21 L29,25 L32,29 L33,33 L33,39 L31,41 L29,45 L17,47 L15,61 L17,61 L19,49 L29,49 L29,59 L27,63 L27,91 L31,91 L31,65 L35,61 L37,61 L39,61 L43,65 L43,91 Z"/><line x1="57.69692611694336" y1="60.002891540527344" x2="57.9999885559082" y2="60.34927749633789" stroke="#bbbbbb" stroke-width="0.25" stroke-linecap="round"/><line x1="57.69692611694336" y1="60.002891540527344" x2="57.79011535644531" y2="58.7917366027832" stroke="#bbbbbb" stroke-width="0.25" stroke-linecap="round"/><line x1="57.40876007080078" y1="58.28902053833008" x2="57.79011535644531" y2="58.7917366027832" stroke="#bbbbbb" stroke-width="0.25" stroke-linecap="round"/><line x1="57.40876007080078" y1="58.28902053833008" x2="57.56583023071289" y2="57.23661804199219" stroke="#bbbbbb" stroke-width="0.25" stroke-linecap="round"/><line x1="57.13427734375" y1="56.57279968261719" x2="57.56583023071289" y2="57.23661804199219" stroke="#bbbbbb" stroke-width="0.25" stroke-linecap="round"/><line x1="57.13427734375" y1="56.57279968261719" x2="57.32771301269531" y2="55.683387756347656" stroke="#bbbbbb" stroke-width="0.25" stroke-linecap="round"/><line x1="56.87310791015625" y1="54.854469299316406" x2="57.32771301269531" y2="55.683387756347656" stroke="#bbbbbb" stroke-width="0.25" stroke-linecap="round"/><line x1="56.87310791015625" y1="54.854469299316406" x2="57.0766487121582" y2="54.131961822509766" stroke="#bbbbbb" stroke-width="0.25" stroke-linecap="round"/><line x1="56.62450408935547" y1="53.13399887084961" x2="57.0766487121582" y2="54.131961822509766" stroke="#bbbbbb" stroke-width="0.25" stroke-linecap="round"/><line x1="56.62450408935547" y1="53.13399887084961" x2="56.813385009765625" y2="52.58219909667969" stroke="#bbbbbb" stroke-width="0.25" stroke-linecap="round"/><line x1="56.38774871826172" y1="51.411590576171875" x2="56.813385009765625" y2="52.58219909667969" stroke="#bbbbbb" stroke-width="0.25" stroke-linecap="round"/><line x1="56.38774871826172" y1="51.411590576171875" x2="56.5386962890625" y2="51.03422546386719" stroke="#bbbbbb" stroke-width="0.25" stroke-linecap="round"/><line x1="56.1623420715332" y1="49.687252044677734" x2="56.5386962890625" y2="51.03422546386719" stroke="#bbbbbb" stroke-width="0.25" stroke-linecap="round"/><line x1="56.1623420715332" y1="49.687252044677734" x2="56.25306701660156" y2="49.48757553100586" stroke="#bbbbbb" stroke-width="0.25" stroke-linecap="round"/><line x1="56.25306701660156" y1="49.48757553100586" x2="55.94709014892578" y2="47.95771026611328" stroke="#bbbbbb" stroke-width="0.25" stroke-linecap="round"/><line x1="52.50001525878906" y1="47.62605285644531" x2="54.166622161865234" y2="47.78042221069336" stroke="#bbbbbb" stroke-width="0.25" stroke-linecap="round"/><line x1="55.94709014892578" y1="47.95771026611328" x2="54.23314666748047" y2="47.743492126464844" stroke="#bbbbbb" stroke-width="0.25" stroke-linecap="round"/><line x1="54.166622161865234" y1="47.78042221069336" x2="54.23314666748047" y2="47.743492126464844" stroke="#bbbbbb" stroke-width="0.25" stroke-linecap="round"/><line x1="52.50001525878906" y1="47.62605285644531" x2="52.491973876953125" y2="47.6201286315918" stroke="#bbbbbb" stroke-width="0.25" stroke-linecap="round"/><line x1="50.833396911621094" y1="47.509620666503906" x2="52.491973876953125" y2="47.6201286315918" stroke="#bbbbbb" stroke-width="0.25" stroke-linecap="round"/><line x1="50.833396911621094" y1="47.509620666503906" x2="50.75672149658203" y2="47.4597282409668" stroke="#bbbbbb" stroke-width="0.25" stroke-linecap="round"/><line x1="49.16666030883789" y1="47.3874626159668" x2="50.75672149658203" y2="47.4597282409668" stroke="#bbbbbb" stroke-width="0.25" stroke-linecap="round"/><line x1="49.16666030883789" y1="47.3874626159668" x2="49.02079772949219" y2="47.30348205566406" stroke="#bbbbbb" stroke-width="0.25" stroke-linecap="round"/><line x1="47.499969482421875" y1="47.26124572753906" x2="49.02079772949219" y2="47.30348205566406" stroke="#bbbbbb" stroke-width="0.25" stroke-linecap="round"/><line x1="47.499969482421875" y1="47.26124572753906" x2="47.284461975097656" y2="47.15047836303711" stroke="#bbbbbb" stroke-width="0.25" stroke-linecap="round"/><line x1="45.833335876464844" y1="47.13187026977539" x2="47.284461975097656" y2="47.15047836303711" stroke="#bbbbbb" stroke-width="0.25" stroke-linecap="round"/><line x1="45.833335876464844" y1="47.13187026977539" x2="45.547637939453125" y2="47" stroke="#bbbbbb" stroke-width="0.25" stroke-linecap="round"/><line x1="45.547637939453125" y1="47" x2="39.33341979980469" y2="46.9999885559082" stroke="#bbbbbb" stroke-width="0.25" stroke-linecap="round"/><line x1="42.27783203125" y1="24.000024795532227" x2="37.9000244140625" y2="22.686691284179688" stroke="#bbbbbb" stroke-width="0.25" stroke-linecap="round"/><line x1="37.73807907104492" y1="22.678560256958008" x2="37.9000244140625" y2="22.686691284179688" stroke="#bbbbbb" stroke-width="0.25" stroke-linecap="round"/><line x1="37.73807907104492" y1="22.678560256958008" x2="37.380950927734375" y2="22.619043350219727" stroke="#bbbbbb" stroke-width="0.25" stroke-linecap="round"/><line x1="37.380950927734375" y1="22.619043350219727" x2="38.00001907348633" y2="22.000015258789062" stroke="#bbbbbb" stroke-width="0.25" stroke-linecap="round"/><line x1="41.33329772949219" y1="18.666662216186523" x2="38.000038146972656" y2="21.999996185302734" stroke="#bbbbbb" stroke-width="0.25" stroke-linecap="round"/><line x1="38.00001907348633" y1="22.000015258789062" x2="38.000038146972656" y2="21.999996185302734" stroke="#bbbbbb" stroke-width="0.25" stroke-linecap="round"/><line x1="37.380950927734375" y1="22.619043350219727" x2="37.20155334472656" y2="22.658916473388672" stroke="#bbbbbb" stroke-width="0.25" stroke-linecap="round"/><line x1="32.66666793823242" y1="18.666667938232422" x2="36" y2="21.999996185302734" stroke="#bbbbbb" stroke-width="0.25" stroke-linecap="round"/><line x1="36" y1="22" x2="36" y2="21.999996185302734" stroke="#bbbbbb" stroke-width="0.25" stroke-linecap="round"/><line x1="37.20155334472656" y1="22.658916473388672" x2="37" y2="22.75438690185547" stroke="#bbbbbb" stroke-width="0.25" stroke-linecap="round"/><line x1="37" y1="22.75438690185547" x2="36.79844665527344" y2="22.658912658691406" stroke="#bbbbbb" stroke-width="0.25" stroke-linecap="round"/><line x1="36" y1="22" x2="36.619049072265625" y2="22.619049072265625" stroke="#bbbbbb" stroke-width="0.25" stroke-linecap="round"/><line x1="36.79844665527344" y1="22.658912658691406" x2="36.619049072265625" y2="22.619049072265625" stroke="#bbbbbb" stroke-width="0.25" stroke-linecap="round"/><line x1="37" y1="22.75438690185547" x2="37" y2="24.208328247070312" stroke="#bbbbbb" stroke-width="0.25" stroke-linecap="round"/><line x1="37" y1="24.208324432373047" x2="37" y2="24.208328247070312" stroke="#bbbbbb" stroke-width="0.25" stroke-linecap="round"/><line x1="37" y1="24.208324432373047" x2="37" y2="28.458328247070312" stroke="#bbbbbb" stroke-width="0.25" stroke-linecap="round"/><line x1="37" y1="28.458316802978516" x2="37" y2="28.458328247070312" stroke="#bbbbbb" stroke-width="0.25" stroke-linecap="round"/><line x1="37.000003814697266" y1="31.291658401489258" x2="37" y2="29.875017166137695" stroke="#bbbbbb" stroke-width="0.25" stroke-linecap="round"/><line x1="37" y1="28.458316802978516" x2="37" y2="29.87497329711914" stroke="#bbbbbb" stroke-width="0.25" stroke-linecap="round"/><line x1="37" y1="29.875017166137695" x2="37" y2="29.87497329711914" stroke="#bbbbbb" stroke-width="0.25" stroke-linecap="round"/><line x1="37.000003814697266" y1="31.291658401489258" x2="37" y2="31.291669845581055" stroke="#bbbbbb" stroke-width="0.25" stroke-linecap="round"/><line x1="37" y1="31.291669845581055" x2="37" y2="33.75" stroke="#bbbbbb" stroke-width="0.25" stroke-linecap="round"/><line x1="37" y1="33.75" x2="37" y2="35.25" stroke="#bbbbbb" stroke-width="0.25" stroke-linecap="round"/><line x1="37" y1="35.25" x2="37" y2="36.75" stroke="#bbbbbb" stroke-width="0.25" stroke-linecap="round"/><line x1="37" y1="36.75" x2="37" y2="38.25" stroke="#bbbbbb" stroke-width="0.25" stroke-linecap="round"/><line x1="37" y1="45.33332443237305" x2="37" y2="44" stroke="#bbbbbb" stroke-width="0.25" stroke-linecap="round"/><line x1="37" y1="38.25" x2="37" y2="44" stroke="#bbbbbb" stroke-width="0.25" stroke-linecap="round"/><line x1="37" y1="45.33332443237305" x2="37" y2="45.333335876464844" stroke="#bbbbbb" stroke-width="0.25" stroke-linecap="round"/><line x1="39.33341979980469" y1="46.9999885559082" x2="37" y2="47.291664123535156" stroke="#bbbbbb" stroke-width="0.25" stroke-linecap="round"/><line x1="37" y1="47.291664123535156" x2="37" y2="46.50004959106445" stroke="#bbbbbb" stroke-width="0.25" stroke-linecap="round"/><line x1="37" y1="45.333335876464844" x2="37" y2="46.499996185302734" stroke="#bbbbbb" stroke-width="0.25" stroke-linecap="round"/><line x1="37" y1="46.50004959106445" x2="37" y2="46.499996185302734" stroke="#bbbbbb" stroke-width="0.25" stroke-linecap="round"/><line x1="16.000009536743164" y1="60.34923553466797" x2="16.303037643432617" y2="60.002830505371094" stroke="#bbbbbb" stroke-width="0.25" stroke-linecap="round"/><line x1="16.209903717041016" y1="58.79196548461914" x2="16.303037643432617" y2="60.002830505371094" stroke="#bbbbbb" stroke-width="0.25" stroke-linecap="round"/><line x1="16.209903717041016" y1="58.79196548461914" x2="16.59134292602539" y2="58.28908157348633" stroke="#bbbbbb" stroke-width="0.25" stroke-linecap="round"/><line x1="16.434280395507812" y1="57.236637115478516" x2="16.59134292602539" y2="58.28908157348633" stroke="#bbbbbb" stroke-width="0.25" stroke-linecap="round"/><line x1="16.434280395507812" y1="57.236637115478516" x2="16.865768432617188" y2="56.57279968261719" stroke="#bbbbbb" stroke-width="0.25" stroke-linecap="round"/><line x1="16.672380447387695" y1="55.683380126953125" x2="16.865768432617188" y2="56.57279968261719" stroke="#bbbbbb" stroke-width="0.25" stroke-linecap="round"/><line x1="16.672380447387695" y1="55.683380126953125" x2="17.126924514770508" y2="54.85459518432617" stroke="#bbbbbb" stroke-width="0.25" stroke-linecap="round"/><line x1="16.923351287841797" y1="54.13193130493164" x2="17.126924514770508" y2="54.85459518432617" stroke="#bbbbbb" stroke-width="0.25" stroke-linecap="round"/><line x1="16.923351287841797" y1="54.13193130493164" x2="17.375534057617188" y2="53.1340217590332" stroke="#bbbbbb" stroke-width="0.25" stroke-linecap="round"/><line x1="17.186586380004883" y1="52.58224105834961" x2="17.375534057617188" y2="53.1340217590332" stroke="#bbbbbb" stroke-width="0.25" stroke-linecap="round"/><line x1="17.186586380004883" y1="52.58224105834961" x2="17.612258911132812" y2="51.41154098510742" stroke="#bbbbbb" stroke-width="0.25" stroke-linecap="round"/><line x1="17.461326599121094" y1="51.0341796875" x2="17.612258911132812" y2="51.41154098510742" stroke="#bbbbbb" stroke-width="0.25" stroke-linecap="round"/><line x1="19.76676368713379" y1="47.743446350097656" x2="18.052902221679688" y2="47.95770263671875" stroke="#bbbbbb" stroke-width="0.25" stroke-linecap="round"/><line x1="18.052902221679688" y1="47.95770263671875" x2="17.74688720703125" y2="49.487571716308594" stroke="#bbbbbb" stroke-width="0.25" stroke-linecap="round"/><line x1="17.461326599121094" y1="51.0341796875" x2="17.837663650512695" y2="49.68724060058594" stroke="#bbbbbb" stroke-width="0.25" stroke-linecap="round"/><line x1="17.74688720703125" y1="49.487571716308594" x2="17.837663650512695" y2="49.68724060058594" stroke="#bbbbbb" stroke-width="0.25" stroke-linecap="round"/><line x1="19.76676368713379" y1="47.743446350097656" x2="19.833345413208008" y2="47.78042984008789" stroke="#bbbbbb" stroke-width="0.25" stroke-linecap="round"/><line x1="19.833345413208008" y1="47.78042984008789" x2="21.49997329711914" y2="47.626102447509766" stroke="#bbbbbb" stroke-width="0.25" stroke-linecap="round"/><line x1="21.508079528808594" y1="47.620113372802734" x2="21.49997329711914" y2="47.626102447509766" stroke="#bbbbbb" stroke-width="0.25" stroke-linecap="round"/><line x1="21.508079528808594" y1="47.620113372802734" x2="23.166704177856445" y2="47.5095329284668" stroke="#bbbbbb" stroke-width="0.25" stroke-linecap="round"/><line x1="23.2432861328125" y1="47.45973587036133" x2="23.166704177856445" y2="47.5095329284668" stroke="#bbbbbb" stroke-width="0.25" stroke-linecap="round"/><line x1="23.2432861328125" y1="47.45973587036133" x2="24.833328247070312" y2="47.38744354248047" stroke="#bbbbbb" stroke-width="0.25" stroke-linecap="round"/><line x1="24.97918701171875" y1="47.30348205566406" x2="24.833328247070312" y2="47.38744354248047" stroke="#bbbbbb" stroke-width="0.25" stroke-linecap="round"/><line x1="24.97918701171875" y1="47.30348205566406" x2="26.500019073486328" y2="47.26123046875" stroke="#bbbbbb" stroke-width="0.25" stroke-linecap="round"/><line x1="26.715545654296875" y1="47.15048599243164" x2="26.500019073486328" y2="47.26123046875" stroke="#bbbbbb" stroke-width="0.25" stroke-linecap="round"/><line x1="37" y1="47.291664123535156" x2="36.999996185302734" y2="47.29166793823242" stroke="#bbbbbb" stroke-width="0.25" stroke-linecap="round"/><line x1="36.999996185302734" y1="47.29166793823242" x2="34.66673278808594" y2="47.00000762939453" stroke="#bbbbbb" stroke-width="0.25" stroke-linecap="round"/><line x1="34.66673278808594" y1="47.00000762939453" x2="28.452373504638672" y2="47.000003814697266" stroke="#bbbbbb" stroke-width="0.25" stroke-linecap="round"/><line x1="26.715545654296875" y1="47.15048599243164" x2="28.16668128967285" y2="47.13187789916992" stroke="#bbbbbb" stroke-width="0.25" stroke-linecap="round"/><line x1="28.452373504638672" y1="47.000003814697266" x2="28.16668128967285" y2="47.13187789916992" stroke="#bbbbbb" stroke-width="0.25" stroke-linecap="round"/><line x1="36.999996185302734" y1="47.29166793823242" x2="37" y2="49.833343505859375" stroke="#bbbbbb" stroke-width="0.25" stroke-linecap="round"/><line x1="37" y1="49.833343505859375" x2="37" y2="51.4999885559082" stroke="#bbbbbb" stroke-width="0.25" stroke-linecap="round"/><line x1="29.00221061706543" y1="88.9594955444336" x2="29.00442886352539" y2="88.5625" stroke="#bbbbbb" stroke-width="0.25" stroke-linecap="round"/><line x1="28.991199493408203" y1="88.52940368652344" x2="29.00442886352539" y2="88.5625" stroke="#bbbbbb" stroke-width="0.25" stroke-linecap="round"/><line x1="28.991199493408203" y1="88.52940368652344" x2="29.00868797302246" y2="86.9375" stroke="#bbbbbb" stroke-width="0.25" stroke-linecap="round"/><line x1="28.986955642700195" y1="86.88237762451172" x2="29.00868797302246" y2="86.9375" stroke="#bbbbbb" stroke-width="0.25" stroke-linecap="round"/><line x1="28.986955642700195" y1="86.88237762451172" x2="29.012876510620117" y2="85.3125" stroke="#bbbbbb" stroke-width="0.25" stroke-linecap="round"/><line x1="28.982824325561523" y1="85.23517608642578" x2="29.012876510620117" y2="85.3125" stroke="#bbbbbb" stroke-width="0.25" stroke-linecap="round"/><line x1="28.982824325561523" y1="85.23517608642578" x2="29.016921997070312" y2="83.6875" stroke="#bbbbbb" stroke-width="0.25" stroke-linecap="round"/><line x1="28.97882080078125" y1="83.5883560180664" x2="29.016921997070312" y2="83.6875" stroke="#bbbbbb" stroke-width="0.25" stroke-linecap="round"/><line x1="28.97882080078125" y1="83.5883560180664" x2="29.020950317382812" y2="82.0625" stroke="#bbbbbb" stroke-width="0.25" stroke-linecap="round"/><line x1="28.974912643432617" y1="81.9410629272461" x2="29.020950317382812" y2="82.0625" stroke="#bbbbbb" stroke-width="0.25" stroke-linecap="round"/><line x1="28.974912643432617" y1="81.9410629272461" x2="29.024658203125" y2="80.4375" stroke="#bbbbbb" stroke-width="0.25" stroke-linecap="round"/><line x1="28.971187591552734" y1="80.29412841796875" x2="29.024658203125" y2="80.4375" stroke="#bbbbbb" stroke-width="0.25" stroke-linecap="round"/><line x1="28.971187591552734" y1="80.29412841796875" x2="29.028339385986328" y2="78.8125" stroke="#bbbbbb" stroke-width="0.25" stroke-linecap="round"/><line x1="28.967594146728516" y1="78.64716339111328" x2="29.028339385986328" y2="78.8125" stroke="#bbbbbb" stroke-width="0.25" stroke-linecap="round"/><line x1="28.967594146728516" y1="78.64716339111328" x2="29.031978607177734" y2="77.1875" stroke="#bbbbbb" stroke-width="0.25" stroke-linecap="round"/><line x1="28.964017868041992" y1="76.99988555908203" x2="29.031978607177734" y2="77.1875" stroke="#bbbbbb" stroke-width="0.25" stroke-linecap="round"/><line x1="28.964017868041992" y1="76.99988555908203" x2="29.035371780395508" y2="75.5625" stroke="#bbbbbb" stroke-width="0.25" stroke-linecap="round"/><line x1="28.960662841796875" y1="75.3530044555664" x2="29.035371780395508" y2="75.5625" stroke="#bbbbbb" stroke-width="0.25" stroke-linecap="round"/><line x1="28.960662841796875" y1="75.3530044555664" x2="29.038724899291992" y2="73.9375" stroke="#bbbbbb" stroke-width="0.25" stroke-linecap="round"/><line x1="28.9574031829834" y1="73.70588684082031" x2="29.038724899291992" y2="73.9375" stroke="#bbbbbb" stroke-width="0.25" stroke-linecap="round"/><line x1="28.9574031829834" y1="73.70588684082031" x2="29.041927337646484" y2="72.3125" stroke="#bbbbbb" stroke-width="0.25" stroke-linecap="round"/><line x1="28.95424461364746" y1="72.05878448486328" x2="29.041927337646484" y2="72.3125" stroke="#bbbbbb" stroke-width="0.25" stroke-linecap="round"/><line x1="28.95424461364746" y1="72.05878448486328" x2="29.044973373413086" y2="70.6875" stroke="#bbbbbb" stroke-width="0.25" stroke-linecap="round"/><line x1="28.951242446899414" y1="70.41181945800781" x2="29.044973373413086" y2="70.6875" stroke="#bbbbbb" stroke-width="0.25" stroke-linecap="round"/><line x1="28.951242446899414" y1="70.41181945800781" x2="29.047958374023438" y2="69.0625" stroke="#bbbbbb" stroke-width="0.25" stroke-linecap="round"/><line x1="28.948360443115234" y1="68.76469421386719" x2="29.047958374023438" y2="69.0625" stroke="#bbbbbb" stroke-width="0.25" stroke-linecap="round"/><line x1="28.948360443115234" y1="68.76469421386719" x2="29.050823211669922" y2="67.4375" stroke="#bbbbbb" stroke-width="0.25" stroke-linecap="round"/><line x1="28.945571899414062" y1="67.11759948730469" x2="29.050823211669922" y2="67.4375" stroke="#bbbbbb" stroke-width="0.25" stroke-linecap="round"/><line x1="29.333358764648438" y1="63.33330535888672" x2="29.088205337524414" y2="63.82352828979492" stroke="#bbbbbb" stroke-width="0.25" stroke-linecap="round"/><line x1="29.088205337524414" y1="63.82352828979492" x2="28.942913055419922" y2="65.47061157226562" stroke="#bbbbbb" stroke-width="0.25" stroke-linecap="round"/><line x1="28.945571899414062" y1="67.11759948730469" x2="29.053531646728516" y2="65.8125" stroke="#bbbbbb" stroke-width="0.25" stroke-linecap="round"/><line x1="28.942913055419922" y1="65.47061157226562" x2="29.053531646728516" y2="65.8125" stroke="#bbbbbb" stroke-width="0.25" stroke-linecap="round"/><line x1="29.333358764648438" y1="63.33330535888672" x2="29.999990463256836" y2="62.66669845581055" stroke="#bbbbbb" stroke-width="0.25" stroke-linecap="round"/><line x1="30.235252380371094" y1="62.11763381958008" x2="29.999990463256836" y2="62.66669845581055" stroke="#bbbbbb" stroke-width="0.25" stroke-linecap="round"/><line x1="30.235252380371094" y1="62.11763381958008" x2="31.090961456298828" y2="61.09099197387695" stroke="#bbbbbb" stroke-width="0.25" stroke-linecap="round"/><line x1="31.157913208007812" y1="60.912227630615234" x2="31.090961456298828" y2="61.09099197387695" stroke="#bbbbbb" stroke-width="0.25" stroke-linecap="round"/><line x1="35.11109924316406" y1="54.833316802978516" x2="33.6296272277832" y2="56.50001907348633" stroke="#bbbbbb" stroke-width="0.25" stroke-linecap="round"/><line x1="33.6296272277832" y1="56.50001907348633" x2="32.61107635498047" y2="58.166664123535156" stroke="#bbbbbb" stroke-width="0.25" stroke-linecap="round"/><line x1="31.157913208007812" y1="60.912227630615234" x2="32.166664123535156" y2="59.50000762939453" stroke="#bbbbbb" stroke-width="0.25" stroke-linecap="round"/><line x1="32.61107635498047" y1="58.166664123535156" x2="32.166664123535156" y2="59.50000762939453" stroke="#bbbbbb" stroke-width="0.25" stroke-linecap="round"/><line x1="37" y1="51.4999885559082" x2="37" y2="52.97435760498047" stroke="#bbbbbb" stroke-width="0.25" stroke-linecap="round"/><line x1="37.20832824707031" y1="53.16666793823242" x2="37" y2="52.97435760498047" stroke="#bbbbbb" stroke-width="0.25" stroke-linecap="round"/><line x1="37" y1="52.97435760498047" x2="36.79165267944336" y2="53.16666793823242" stroke="#bbbbbb" stroke-width="0.25" stroke-linecap="round"/><line x1="35.11109924316406" y1="54.833316802978516" x2="36" y2="54.07143020629883" stroke="#bbbbbb" stroke-width="0.25" stroke-linecap="round"/><line x1="36.79165267944336" y1="53.16666793823242" x2="36" y2="54.07143020629883" stroke="#bbbbbb" stroke-width="0.25" stroke-linecap="round"/><line x1="37.20832824707031" y1="53.16666793823242" x2="38" y2="54.07143020629883" stroke="#bbbbbb" stroke-width="0.25" stroke-linecap="round"/><line x1="38.8889045715332" y1="54.83336639404297" x2="38" y2="54.07143020629883" stroke="#bbbbbb" stroke-width="0.25" stroke-linecap="round"/><line x1="38.8889045715332" y1="54.83336639404297" x2="40.37031173706055" y2="56.49997329711914" stroke="#bbbbbb" stroke-width="0.25" stroke-linecap="round"/><line x1="40.37031173706055" y1="56.49997329711914" x2="41.388877868652344" y2="58.166664123535156" stroke="#bbbbbb" stroke-width="0.25" stroke-linecap="round"/><line x1="41.388877868652344" y1="58.166664123535156" x2="41.83335876464844" y2="59.50000762939453" stroke="#bbbbbb" stroke-width="0.25" stroke-linecap="round"/><line x1="42.84208297729492" y1="60.91225814819336" x2="41.83335876464844" y2="59.50000762939453" stroke="#bbbbbb" stroke-width="0.25" stroke-linecap="round"/><line x1="42.84208297729492" y1="60.91225814819336" x2="42.909088134765625" y2="61.09090042114258" stroke="#bbbbbb" stroke-width="0.25" stroke-linecap="round"/><line x1="43.76470184326172" y1="62.117671966552734" x2="42.909088134765625" y2="61.09090042114258" stroke="#bbbbbb" stroke-width="0.25" stroke-linecap="round"/><line x1="44.91175079345703" y1="63.82350158691406" x2="44.66667938232422" y2="63.333351135253906" stroke="#bbbbbb" stroke-width="0.25" stroke-linecap="round"/><line x1="43.76470184326172" y1="62.117671966552734" x2="43.999977111816406" y2="62.666622161865234" stroke="#bbbbbb" stroke-width="0.25" stroke-linecap="round"/><line x1="44.66667938232422" y1="63.333351135253906" x2="43.999977111816406" y2="62.666622161865234" stroke="#bbbbbb" stroke-width="0.25" stroke-linecap="round"/><line x1="44.91175079345703" y1="63.82350158691406" x2="45.05707550048828" y2="65.47064208984375" stroke="#bbbbbb" stroke-width="0.25" stroke-linecap="round"/><line x1="45.05707550048828" y1="65.47064208984375" x2="44.946475982666016" y2="65.8125" stroke="#bbbbbb" stroke-width="0.25" stroke-linecap="round"/><line x1="45.054443359375" y1="67.11759948730469" x2="44.946475982666016" y2="65.8125" stroke="#bbbbbb" stroke-width="0.25" stroke-linecap="round"/><line x1="45.054443359375" y1="67.11759948730469" x2="44.949180603027344" y2="67.4375" stroke="#bbbbbb" stroke-width="0.25" stroke-linecap="round"/><line x1="45.051639556884766" y1="68.76469421386719" x2="44.949180603027344" y2="67.4375" stroke="#bbbbbb" stroke-width="0.25" stroke-linecap="round"/><line x1="45.051639556884766" y1="68.76469421386719" x2="44.95203399658203" y2="69.0625" stroke="#bbbbbb" stroke-width="0.25" stroke-linecap="round"/><line x1="45.04877471923828" y1="70.41189575195312" x2="44.95203399658203" y2="69.0625" stroke="#bbbbbb" stroke-width="0.25" stroke-linecap="round"/><line x1="45.04877471923828" y1="70.41189575195312" x2="44.95500183105469" y2="70.6875" stroke="#bbbbbb" stroke-width="0.25" stroke-linecap="round"/><line x1="45.0457763671875" y1="72.05870819091797" x2="44.95500183105469" y2="70.6875" stroke="#bbbbbb" stroke-width="0.25" stroke-linecap="round"/><line x1="45.0457763671875" y1="72.05870819091797" x2="44.95808410644531" y2="72.3125" stroke="#bbbbbb" stroke-width="0.25" stroke-linecap="round"/><line x1="45.042633056640625" y1="73.70596313476562" x2="44.95808410644531" y2="72.3125" stroke="#bbbbbb" stroke-width="0.25" stroke-linecap="round"/><line x1="45.042633056640625" y1="73.70596313476562" x2="44.96131134033203" y2="73.9375" stroke="#bbbbbb" stroke-width="0.25" stroke-linecap="round"/><line x1="45.039337158203125" y1="75.3529281616211" x2="44.96131134033203" y2="73.9375" stroke="#bbbbbb" stroke-width="0.25" stroke-linecap="round"/><line x1="45.039337158203125" y1="75.3529281616211" x2="44.96461868286133" y2="75.5625" stroke="#bbbbbb" stroke-width="0.25" stroke-linecap="round"/><line x1="45.035980224609375" y1="76.99988555908203" x2="44.96461868286133" y2="75.5625" stroke="#bbbbbb" stroke-width="0.25" stroke-linecap="round"/><line x1="45.035980224609375" y1="76.99988555908203" x2="44.96803665161133" y2="77.1875" stroke="#bbbbbb" stroke-width="0.25" stroke-linecap="round"/><line x1="45.032405853271484" y1="78.64716339111328" x2="44.96803665161133" y2="77.1875" stroke="#bbbbbb" stroke-width="0.25" stroke-linecap="round"/><line x1="45.032405853271484" y1="78.64716339111328" x2="44.971641540527344" y2="78.8125" stroke="#bbbbbb" stroke-width="0.25" stroke-linecap="round"/><line x1="45.02877426147461" y1="80.29412841796875" x2="44.971641540527344" y2="78.8125" stroke="#bbbbbb" stroke-width="0.25" stroke-linecap="round"/><line x1="45.02877426147461" y1="80.29412841796875" x2="44.97532272338867" y2="80.4375" stroke="#bbbbbb" stroke-width="0.25" stroke-linecap="round"/><line x1="45.025123596191406" y1="81.9410629272461" x2="44.97532272338867" y2="80.4375" stroke="#bbbbbb" stroke-width="0.25" stroke-linecap="round"/><line x1="45.025123596191406" y1="81.9410629272461" x2="44.97911834716797" y2="82.0625" stroke="#bbbbbb" stroke-width="0.25" stroke-linecap="round"/><line x1="45.021141052246094" y1="83.5883560180664" x2="44.97911834716797" y2="82.0625" stroke="#bbbbbb" stroke-width="0.25" stroke-linecap="round"/><line x1="45.021141052246094" y1="83.5883560180664" x2="44.98317337036133" y2="83.6875" stroke="#bbbbbb" stroke-width="0.25" stroke-linecap="round"/><line x1="45.0172119140625" y1="85.23517608642578" x2="44.98317337036133" y2="83.6875" stroke="#bbbbbb" stroke-width="0.25" stroke-linecap="round"/><line x1="45.0172119140625" y1="85.23517608642578" x2="44.98707962036133" y2="85.3125" stroke="#bbbbbb" stroke-width="0.25" stroke-linecap="round"/><line x1="45.01298904418945" y1="86.88243865966797" x2="44.98707962036133" y2="85.3125" stroke="#bbbbbb" stroke-width="0.25" stroke-linecap="round"/><line x1="45.01298904418945" y1="86.88243865966797" x2="44.99128723144531" y2="86.9375" stroke="#bbbbbb" stroke-width="0.25" stroke-linecap="round"/><line x1="45.008819580078125" y1="88.52934265136719" x2="44.99128723144531" y2="86.9375" stroke="#bbbbbb" stroke-width="0.25" stroke-linecap="round"/><line x1="45.008819580078125" y1="88.52934265136719" x2="44.995567321777344" y2="88.5625" stroke="#bbbbbb" stroke-width="0.25" stroke-linecap="round"/><line x1="44.995567321777344" y1="88.5625" x2="44.997798919677734" y2="88.9594955444336" stroke="#bbbbbb" stroke-width="0.25" stroke-linecap="round"/><circle cx="57.69692611694336" cy="60.002891540527344" r="0.4" fill="#bbbbbb"/><circle cx="57.9999885559082" cy="60.34927749633789" r="0.4" fill="#bbbbbb"/><circle cx="57.79011535644531" cy="58.7917366027832" r="0.4" fill="#bbbbbb"/><circle cx="57.40876007080078" cy="58.28902053833008" r="0.4" fill="#bbbbbb"/><circle cx="57.56583023071289" cy="57.23661804199219" r="0.4" fill="#bbbbbb"/><circle cx="57.13427734375" cy="56.57279968261719" r="0.4" fill="#bbbbbb"/><circle cx="57.32771301269531" cy="55.683387756347656" r="0.4" fill="#bbbbbb"/><circle cx="56.87310791015625" cy="54.854469299316406" r="0.4" fill="#bbbbbb"/><circle cx="57.0766487121582" cy="54.131961822509766" r="0.4" fill="#bbbbbb"/><circle cx="56.62450408935547" cy="53.13399887084961" r="0.4" fill="#bbbbbb"/><circle cx="56.813385009765625" cy="52.58219909667969" r="0.4" fill="#bbbbbb"/><circle cx="56.38774871826172" cy="51.411590576171875" r="0.4" fill="#bbbbbb"/><circle cx="56.5386962890625" cy="51.03422546386719" r="0.4" fill="#bbbbbb"/><circle cx="56.1623420715332" cy="49.687252044677734" r="0.4" fill="#bbbbbb"/><circle cx="56.25306701660156" cy="49.48757553100586" r="0.4" fill="#bbbbbb"/><circle cx="55.94709014892578" cy="47.95771026611328" r="0.4" fill="#bbbbbb"/><circle cx="52.50001525878906" cy="47.62605285644531" r="0.4" fill="#bbbbbb"/><circle cx="54.166622161865234" cy="47.78042221069336" r="0.4" fill="#bbbbbb"/><circle cx="54.23314666748047" cy="47.743492126464844" r="0.4" fill="#bbbbbb"/><circle cx="52.491973876953125" cy="47.6201286315918" r="0.4" fill="#bbbbbb"/><circle cx="50.833396911621094" cy="47.509620666503906" r="0.4" fill="#bbbbbb"/><circle cx="50.75672149658203" cy="47.4597282409668" r="0.4" fill="#bbbbbb"/><circle cx="49.16666030883789" cy="47.3874626159668" r="0.4" fill="#bbbbbb"/><circle cx="49.02079772949219" cy="47.30348205566406" r="0.4" fill="#bbbbbb"/><circle cx="47.499969482421875" cy="47.26124572753906" r="0.4" fill="#bbbbbb"/><circle cx="47.284461975097656" cy="47.15047836303711" r="0.4" fill="#bbbbbb"/><circle cx="45.833335876464844" cy="47.13187026977539" r="0.4" fill="#bbbbbb"/><circle cx="45.547637939453125" cy="47" r="0.4" fill="#bbbbbb"/><circle cx="39.33341979980469" cy="46.9999885559082" r="0.4" fill="#bbbbbb"/><circle cx="42.27783203125" cy="24.000024795532227" r="0.4" fill="#bbbbbb"/><circle cx="37.9000244140625" cy="22.686691284179688" r="0.4" fill="#bbbbbb"/><circle cx="37.73807907104492" cy="22.678560256958008" r="0.4" fill="#bbbbbb"/><circle cx="37.380950927734375" cy="22.619043350219727" r="0.4" fill="#bbbbbb"/><circle cx="38.00001907348633" cy="22.000015258789062" r="0.4" fill="#bbbbbb"/><circle cx="41.33329772949219" cy="18.666662216186523" r="0.4" fill="#bbbbbb"/><circle cx="38.000038146972656" cy="21.999996185302734" r="0.4" fill="#bbbbbb"/><circle cx="37.20155334472656" cy="22.658916473388672" r="0.4" fill="#bbbbbb"/><circle cx="32.66666793823242" cy="18.666667938232422" r="0.4" fill="#bbbbbb"/><circle cx="36" cy="21.999996185302734" r="0.4" fill="#bbbbbb"/><circle cx="36" cy="22" r="0.4" fill="#bbbbbb"/><circle cx="37" cy="22.75438690185547" r="0.4" fill="#bbbbbb"/><circle cx="36.79844665527344" cy="22.658912658691406" r="0.4" fill="#bbbbbb"/><circle cx="36.619049072265625" cy="22.619049072265625" r="0.4" fill="#bbbbbb"/><circle cx="37" cy="24.208328247070312" r="0.4" fill="#bbbbbb"/><circle cx="37" cy="24.208324432373047" r="0.4" fill="#bbbbbb"/><circle cx="37" cy="28.458328247070312" r="0.4" fill="#bbbbbb"/><circle cx="37" cy="28.458316802978516" r="0.4" fill="#bbbbbb"/><circle cx="37.000003814697266" cy="31.291658401489258" r="0.4" fill="#bbbbbb"/><circle cx="37" cy="29.875017166137695" r="0.4" fill="#bbbbbb"/><circle cx="37" cy="29.87497329711914" r="0.4" fill="#bbbbbb"/><circle cx="37" cy="31.291669845581055" r="0.4" fill="#bbbbbb"/><circle cx="37" cy="33.75" r="0.4" fill="#bbbbbb"/><circle cx="37" cy="35.25" r="0.4" fill="#bbbbbb"/><circle cx="37" cy="36.75" r="0.4" fill="#bbbbbb"/><circle cx="37" cy="38.25" r="0.4" fill="#bbbbbb"/><circle cx="37" cy="45.33332443237305" r="0.4" fill="#bbbbbb"/><circle cx="37" cy="44" r="0.4" fill="#bbbbbb"/><circle cx="37" cy="45.333335876464844" r="0.4" fill="#bbbbbb"/><circle cx="37" cy="47.291664123535156" r="0.4" fill="#bbbbbb"/><circle cx="37" cy="46.50004959106445" r="0.4" fill="#bbbbbb"/><circle cx="37" cy="46.499996185302734" r="0.4" fill="#bbbbbb"/><circle cx="16.000009536743164" cy="60.34923553466797" r="0.4" fill="#bbbbbb"/><circle cx="16.303037643432617" cy="60.002830505371094" r="0.4" fill="#bbbbbb"/><circle cx="16.209903717041016" cy="58.79196548461914" r="0.4" fill="#bbbbbb"/><circle cx="16.59134292602539" cy="58.28908157348633" r="0.4" fill="#bbbbbb"/><circle cx="16.434280395507812" cy="57.236637115478516" r="0.4" fill="#bbbbbb"/><circle cx="16.865768432617188" cy="56.57279968261719" r="0.4" fill="#bbbbbb"/><circle cx="16.672380447387695" cy="55.683380126953125" r="0.4" fill="#bbbbbb"/><circle cx="17.126924514770508" cy="54.85459518432617" r="0.4" fill="#bbbbbb"/><circle cx="16.923351287841797" cy="54.13193130493164" r="0.4" fill="#bbbbbb"/><circle cx="17.375534057617188" cy="53.1340217590332" r="0.4" fill="#bbbbbb"/><circle cx="17.186586380004883" cy="52.58224105834961" r="0.4" fill="#bbbbbb"/><circle cx="17.612258911132812" cy="51.41154098510742" r="0.4" fill="#bbbbbb"/><circle cx="17.461326599121094" cy="51.0341796875" r="0.4" fill="#bbbbbb"/><circle cx="19.76676368713379" cy="47.743446350097656" r="0.4" fill="#bbbbbb"/><circle cx="18.052902221679688" cy="47.95770263671875" r="0.4" fill="#bbbbbb"/><circle cx="17.74688720703125" cy="49.487571716308594" r="0.4" fill="#bbbbbb"/><circle cx="17.837663650512695" cy="49.68724060058594" r="0.4" fill="#bbbbbb"/><circle cx="19.833345413208008" cy="47.78042984008789" r="0.4" fill="#bbbbbb"/><circle cx="21.49997329711914" cy="47.626102447509766" r="0.4" fill="#bbbbbb"/><circle cx="21.508079528808594" cy="47.620113372802734" r="0.4" fill="#bbbbbb"/><circle cx="23.166704177856445" cy="47.5095329284668" r="0.4" fill="#bbbbbb"/><circle cx="23.2432861328125" cy="47.45973587036133" r="0.4" fill="#bbbbbb"/><circle cx="24.833328247070312" cy="47.38744354248047" r="0.4" fill="#bbbbbb"/><circle cx="24.97918701171875" cy="47.30348205566406" r="0.4" fill="#bbbbbb"/><circle cx="26.500019073486328" cy="47.26123046875" r="0.4" fill="#bbbbbb"/><circle cx="26.715545654296875" cy="47.15048599243164" r="0.4" fill="#bbbbbb"/><circle cx="36.999996185302734" cy="47.29166793823242" r="0.4" fill="#bbbbbb"/><circle cx="34.66673278808594" cy="47.00000762939453" r="0.4" fill="#bbbbbb"/><circle cx="28.452373504638672" cy="47.000003814697266" r="0.4" fill="#bbbbbb"/><circle cx="28.16668128967285" cy="47.13187789916992" r="0.4" fill="#bbbbbb"/><circle cx="37" cy="49.833343505859375" r="0.4" fill="#bbbbbb"/><circle cx="37" cy="51.4999885559082" r="0.4" fill="#bbbbbb"/><circle cx="29.00221061706543" cy="88.9594955444336" r="0.4" fill="#bbbbbb"/><circle cx="29.00442886352539" cy="88.5625" r="0.4" fill="#bbbbbb"/><circle cx="28.991199493408203" cy="88.52940368652344" r="0.4" fill="#bbbbbb"/><circle cx="29.00868797302246" cy="86.9375" r="0.4" fill="#bbbbbb"/><circle cx="28.986955642700195" cy="86.88237762451172" r="0.4" fill="#bbbbbb"/><circle cx="29.012876510620117" cy="85.3125" r="0.4" fill="#bbbbbb"/><circle cx="28.982824325561523" cy="85.23517608642578" r="0.4" fill="#bbbbbb"/><circle cx="29.016921997070312" cy="83.6875" r="0.4" fill="#bbbbbb"/><circle cx="28.97882080078125" cy="83.5883560180664" r="0.4" fill="#bbbbbb"/><circle cx="29.020950317382812" cy="82.0625" r="0.4" fill="#bbbbbb"/><circle cx="28.974912643432617" cy="81.9410629272461" r="0.4" fill="#bbbbbb"/><circle cx="29.024658203125" cy="80.4375" r="0.4" fill="#bbbbbb"/><circle cx="28.971187591552734" cy="80.29412841796875" r="0.4" fill="#bbbbbb"/><circle cx="29.028339385986328" cy="78.8125" r="0.4" fill="#bbbbbb"/><circle cx="28.967594146728516" cy="78.64716339111328" r="0.4" fill="#bbbbbb"/><circle cx="29.031978607177734" cy="77.1875" r="0.4" fill="#bbbbbb"/><circle cx="28.964017868041992" cy="76.99988555908203" r="0.4" fill="#bbbbbb"/><circle cx="29.035371780395508" cy="75.5625" r="0.4" fill="#bbbbbb"/><circle cx="28.960662841796875" cy="75.3530044555664" r="0.4" fill="#bbbbbb"/><circle cx="29.038724899291992" cy="73.9375" r="0.4" fill="#bbbbbb"/><circle cx="28.9574031829834" cy="73.70588684082031" r="0.4" fill="#bbbbbb"/><circle cx="29.041927337646484" cy="72.3125" r="0.4" fill="#bbbbbb"/><circle cx="28.95424461364746" cy="72.05878448486328" r="0.4" fill="#bbbbbb"/><circle cx="29.044973373413086" cy="70.6875" r="0.4" fill="#bbbbbb"/><circle cx="28.951242446899414" cy="70.41181945800781" r="0.4" fill="#bbbbbb"/><circle cx="29.047958374023438" cy="69.0625" r="0.4" fill="#bbbbbb"/><circle cx="28.948360443115234" cy="68.76469421386719" r="0.4" fill="#bbbbbb"/><circle cx="29.050823211669922" cy="67.4375" r="0.4" fill="#bbbbbb"/><circle cx="28.945571899414062" cy="67.11759948730469" r="0.4" fill="#bbbbbb"/><circle cx="29.333358764648438" cy="63.33330535888672" r="0.4" fill="#bbbbbb"/><circle cx="29.088205337524414" cy="63.82352828979492" r="0.4" fill="#bbbbbb"/><circle cx="28.942913055419922" cy="65.47061157226562" r="0.4" fill="#bbbbbb"/><circle cx="29.053531646728516" cy="65.8125" r="0.4" fill="#bbbbbb"/><circle cx="29.999990463256836" cy="62.66669845581055" r="0.4" fill="#bbbbbb"/><circle cx="30.235252380371094" cy="62.11763381958008" r="0.4" fill="#bbbbbb"/><circle cx="31.090961456298828" cy="61.09099197387695" r="0.4" fill="#bbbbbb"/><circle cx="31.157913208007812" cy="60.912227630615234" r="0.4" fill="#bbbbbb"/><circle cx="35.11109924316406" cy="54.833316802978516" r="0.4" fill="#bbbbbb"/><circle cx="33.6296272277832" cy="56.50001907348633" r="0.4" fill="#bbbbbb"/><circle cx="32.61107635498047" cy="58.166664123535156" r="0.4" fill="#bbbbbb"/><circle cx="32.166664123535156" cy="59.50000762939453" r="0.4" fill="#bbbbbb"/><circle cx="37" cy="52.97435760498047" r="0.4" fill="#bbbbbb"/><circle cx="37.20832824707031" cy="53.16666793823242" r="0.4" fill="#bbbbbb"/><circle cx="36.79165267944336" cy="53.16666793823242" r="0.4" fill="#bbbbbb"/><circle cx="36" cy="54.07143020629883" r="0.4" fill="#bbbbbb"/><circle cx="38" cy="54.07143020629883" r="0.4" fill="#bbbbbb"/><circle cx="38.8889045715332" cy="54.83336639404297" r="0.4" fill="#bbbbbb"/><circle cx="40.37031173706055" cy="56.49997329711914" r="0.4" fill="#bbbbbb"/><circle cx="41.388877868652344" cy="58.166664123535156" r="0.4" fill="#bbbbbb"/><circle cx="41.83335876464844" cy="59.50000762939453" r="0.4" fill="#bbbbbb"/><circle cx="42.84208297729492" cy="60.91225814819336" r="0.4" fill="#bbbbbb"/><circle cx="42.909088134765625" cy="61.09090042114258" r="0.4" fill="#bbbbbb"/><circle cx="43.76470184326172" cy="62.117671966552734" r="0.4" fill="#bbbbbb"/><circle cx="44.91175079345703" cy="63.82350158691406" r="0.4" fill="#bbbbbb"/><circle cx="44.66667938232422" cy="63.333351135253906" r="0.4" fill="#bbbbbb"/><circle cx="43.999977111816406" cy="62.666622161865234" r="0.4" fill="#bbbbbb"/><circle cx="45.05707550048828" cy="65.47064208984375" r="0.4" fill="#bbbbbb"/><circle cx="44.946475982666016" cy="65.8125" r="0.4" fill="#bbbbbb"/><circle cx="45.054443359375" cy="67.11759948730469" r="0.4" fill="#bbbbbb"/><circle cx="44.949180603027344" cy="67.4375" r="0.4" fill="#bbbbbb"/><circle cx="45.051639556884766" cy="68.76469421386719" r="0.4" fill="#bbbbbb"/><circle cx="44.95203399658203" cy="69.0625" r="0.4" fill="#bbbbbb"/><circle cx="45.04877471923828" cy="70.41189575195312" r="0.4" fill="#bbbbbb"/><circle cx="44.95500183105469" cy="70.6875" r="0.4" fill="#bbbbbb"/><circle cx="45.0457763671875" cy="72.05870819091797" r="0.4" fill="#bbbbbb"/><circle cx="44.95808410644531" cy="72.3125" r="0.4" fill="#bbbbbb"/><circle cx="45.042633056640625" cy="73.70596313476562" r="0.4" fill="#bbbbbb"/><circle cx="44.96131134033203" cy="73.9375" r="0.4" fill="#bbbbbb"/><circle cx="45.039337158203125" cy="75.3529281616211" r="0.4" fill="#bbbbbb"/><circle cx="44.96461868286133" cy="75.5625" r="0.4" fill="#bbbbbb"/><circle cx="45.035980224609375" cy="76.99988555908203" r="0.4" fill="#bbbbbb"/><circle cx="44.96803665161133" cy="77.1875" r="0.4" fill="#bbbbbb"/><circle cx="45.032405853271484" cy="78.64716339111328" r="0.4" fill="#bbbbbb"/><circle cx="44.971641540527344" cy="78.8125" r="0.4" fill="#bbbbbb"/><circle cx="45.02877426147461" cy="80.29412841796875" r="0.4" fill="#bbbbbb"/><circle cx="44.97532272338867" cy="80.4375" r="0.4" fill="#bbbbbb"/><circle cx="45.025123596191406" cy="81.9410629272461" r="0.4" fill="#bbbbbb"/><circle cx="44.97911834716797" cy="82.0625" r="0.4" fill="#bbbbbb"/><circle cx="45.021141052246094" cy="83.5883560180664" r="0.4" fill="#bbbbbb"/><circle cx="44.98317337036133" cy="83.6875" r="0.4" fill="#bbbbbb"/><circle cx="45.0172119140625" cy="85.23517608642578" r="0.4" fill="#bbbbbb"/><circle cx="44.98707962036133" cy="85.3125" r="0.4" fill="#bbbbbb"/><circle cx="45.01298904418945" cy="86.88243865966797" r="0.4" fill="#bbbbbb"/><circle cx="44.99128723144531" cy="86.9375" r="0.4" fill="#bbbbbb"/><circle cx="45.008819580078125" cy="88.52934265136719" r="0.4" fill="#bbbbbb"/><circle cx="44.995567321777344" cy="88.5625" r="0.4" fill="#bbbbbb"/><circle cx="44.997798919677734" cy="88.9594955444336" r="0.4" fill="#bbbbbb"/><line x1="37.380950927734375" y1="22.619043350219727" x2="37.20155334472656" y2="22.658916473388672" stroke="#dd3333" stroke-width="0.75" stroke-linecap="round"/><line x1="37.20155334472656" y1="22.658916473388672" x2="37" y2="22.75438690185547" stroke="#dd3333" stroke-width="0.75" stroke-linecap="round"/><line x1="37" y1="22.75438690185547" x2="37" y2="24.208328247070312" stroke="#dd3333" stroke-width="0.75" stroke-linecap="round"/><line x1="37" y1="24.208324432373047" x2="37" y2="24.208328247070312" stroke="#dd3333" stroke-width="0.75" stroke-linecap="round"/><line x1="37" y1="24.208324432373047" x2="37" y2="28.458328247070312" stroke="#dd3333" stroke-width="0.75" stroke-linecap="round"/><line x1="37" y1="28.458316802978516" x2="37" y2="28.458328247070312" stroke="#dd3333" stroke-width="0.75" stroke-linecap="round"/><line x1="37.000003814697266" y1="31.291658401489258" x2="37" y2="29.875017166137695" stroke="#dd3333" stroke-width="0.75" stroke-linecap="round"/><line x1="37" y1="28.458316802978516" x2="37" y2="29.87497329711914" stroke="#dd3333" stroke-width="0.75" stroke-linecap="round"/><line x1="37" y1="29.875017166137695" x2="37" y2="29.87497329711914" stroke="#dd3333" stroke-width="0.75" stroke-linecap="round"/><line x1="37.000003814697266" y1="31.291658401489258" x2="37" y2="31.291669845581055" stroke="#dd3333" stroke-width="0.75" stroke-linecap="round"/><line x1="37" y1="31.291669845581055" x2="37" y2="33.75" stroke="#dd3333" stroke-width="0.75" stroke-linecap="round"/><line x1="37" y1="33.75" x2="37" y2="35.25" stroke="#dd3333" stroke-width="0.75" stroke-linecap="round"/><line x1="37" y1="35.25" x2="37" y2="36.75" stroke="#dd3333" stroke-width="0.75" stroke-linecap="round"/><line x1="37" y1="36.75" x2="37" y2="38.25" stroke="#dd3333" stroke-width="0.75" stroke-linecap="round"/><line x1="37" y1="45.33332443237305" x2="37" y2="44" stroke="#dd3333" stroke-width="0.75" stroke-linecap="round"/><line x1="37" y1="38.25" x2="37" y2="44" stroke="#dd3333" stroke-width="0.75" stroke-linecap="round"/><line x1="37" y1="45.33332443237305" x2="37" y2="45.333335876464844" stroke="#dd3333" stroke-width="0.75" stroke-linecap="round"/><line x1="37" y1="47.291664123535156" x2="37" y2="46.50004959106445" stroke="#dd3333" stroke-width="0.75" stroke-linecap="round"/><line x1="37" y1="45.333335876464844" x2="37" y2="46.499996185302734" stroke="#dd3333" stroke-width="0.75" stroke-linecap="round"/><line x1="37" y1="46.50004959106445" x2="37" y2="46.499996185302734" stroke="#dd3333" stroke-width="0.75" stroke-linecap="round"/><line x1="37" y1="47.291664123535156" x2="36.999996185302734" y2="47.29166793823242" stroke="#dd3333" stroke-width="0.75" stroke-linecap="round"/><line x1="36.999996185302734" y1="47.29166793823242" x2="37" y2="49.833343505859375" stroke="#dd3333" stroke-width="0.75" stroke-linecap="round"/><line x1="37" y1="49.833343505859375" x2="37" y2="51.4999885559082" stroke="#dd3333" stroke-width="0.75" stroke-linecap="round"/><line x1="37" y1="51.4999885559082" x2="37" y2="52.97435760498047" stroke="#dd3333" stroke-width="0.75" stroke-linecap="round"/><circle cx="57.69692611694336" cy="60.002891540527344" r="0" fill="#dd3333"/><circle cx="57.9999885559082" cy="60.34927749633789" r="0" fill="#dd3333"/><circle cx="57.79011535644531" cy="58.7917366027832" r="0" fill="#dd3333"/><circle cx="57.40876007080078" cy="58.28902053833008" r="0" fill="#dd3333"/><circle cx="57.56583023071289" cy="57.23661804199219" r="0" fill="#dd3333"/><circle cx="57.13427734375" cy="56.57279968261719" r="0" fill="#dd3333"/><circle cx="57.32771301269531" cy="55.683387756347656" r="0" fill="#dd3333"/><circle cx="56.87310791015625" cy="54.854469299316406" r="0" fill="#dd3333"/><circle cx="57.0766487121582" cy="54.131961822509766" r="0" fill="#dd3333"/><circle cx="56.62450408935547" cy="53.13399887084961" r="0" fill="#dd3333"/><circle cx="56.813385009765625" cy="52.58219909667969" r="0" fill="#dd3333"/><circle cx="56.38774871826172" cy="51.411590576171875" r="0" fill="#dd3333"/><circle cx="56.5386962890625" cy="51.03422546386719" r="0" fill="#dd3333"/><circle cx="56.1623420715332" cy="49.687252044677734" r="0" fill="#dd3333"/><circle cx="56.25306701660156" cy="49.48757553100586" r="0" fill="#dd3333"/><circle cx="55.94709014892578" cy="47.95771026611328" r="0" fill="#dd3333"/><circle cx="52.50001525878906" cy="47.62605285644531" r="0" fill="#dd3333"/><circle cx="54.166622161865234" cy="47.78042221069336" r="0" fill="#dd3333"/><circle cx="54.23314666748047" cy="47.743492126464844" r="0" fill="#dd3333"/><circle cx="52.491973876953125" cy="47.6201286315918" r="0" fill="#dd3333"/><circle cx="50.833396911621094" cy="47.509620666503906" r="0" fill="#dd3333"/><circle cx="50.75672149658203" cy="47.4597282409668" r="0" fill="#dd3333"/><circle cx="49.16666030883789" cy="47.3874626159668" r="0" fill="#dd3333"/><circle cx="49.02079772949219" cy="47.30348205566406" r="0" fill="#dd3333"/><circle cx="47.499969482421875" cy="47.26124572753906" r="0" fill="#dd3333"/><circle cx="47.284461975097656" cy="47.15047836303711" r="0" fill="#dd3333"/><circle cx="45.833335876464844" cy="47.13187026977539" r="0" fill="#dd3333"/><circle cx="45.547637939453125" cy="47" r="0" fill="#dd3333"/><circle cx="39.33341979980469" cy="46.9999885559082" r="0" fill="#dd3333"/><circle cx="42.27783203125" cy="24.000024795532227" r="0" fill="#dd3333"/><circle cx="37.9000244140625" cy="22.686691284179688" r="0" fill="#dd3333"/><circle cx="37.73807907104492" cy="22.678560256958008" r="0" fill="#dd3333"/><circle cx="37.380950927734375" cy="22.619043350219727" r="0" fill="#dd3333"/><circle cx="38.00001907348633" cy="22.000015258789062" r="0" fill="#dd3333"/><circle cx="41.33329772949219" cy="18.666662216186523" r="0" fill="#dd3333"/><circle cx="38.000038146972656" cy="21.999996185302734" r="0" fill="#dd3333"/><circle cx="37.20155334472656" cy="22.658916473388672" r="0" fill="#dd3333"/><circle cx="32.66666793823242" cy="18.666667938232422" r="0" fill="#dd3333"/><circle cx="36" cy="21.999996185302734" r="0" fill="#dd3333"/><circle cx="36" cy="22" r="0" fill="#dd3333"/><circle cx="37" cy="22.75438690185547" r="0" fill="#dd3333"/><circle cx="36.79844665527344" cy="22.658912658691406" r="0" fill="#dd3333"/><circle cx="36.619049072265625" cy="22.619049072265625" r="0" fill="#dd3333"/><circle cx="37" cy="24.208328247070312" r="0" fill="#dd3333"/><circle cx="37" cy="24.208324432373047" r="0" fill="#dd3333"/><circle cx="37" cy="28.458328247070312" r="0" fill="#dd3333"/><circle cx="37" cy="28.458316802978516" r="0" fill="#dd3333"/><circle cx="37.000003814697266" cy="31.291658401489258" r="0" fill="#dd3333"/><circle cx="37" cy="29.875017166137695" r="0" fill="#dd3333"/><circle cx="37" cy="29.87497329711914" r="0" fill="#dd3333"/><circle cx="37" cy="31.291669845581055" r="0" fill="#dd3333"/><circle cx="37" cy="33.75" r="0" fill="#dd3333"/><circle cx="37" cy="35.25" r="0" fill="#dd3333"/><circle cx="37" cy="36.75" r="0" fill="#dd3333"/><circle cx="37" cy="38.25" r="0" fill="#dd3333"/><circle cx="37" cy="45.33332443237305" r="0" fill="#dd3333"/><circle cx="37" cy="44" r="0" fill="#dd3333"/><circle cx="37" cy="45.333335876464844" r="0" fill="#dd3333"/><circle cx="37" cy="47.291664123535156" r="0" fill="#dd3333"/><circle cx="37" cy="46.50004959106445" r="0" fill="#dd3333"/><circle cx="37" cy="46.499996185302734" r="0" fill="#dd3333"/><circle cx="16.000009536743164" cy="60.34923553466797" r="0" fill="#dd3333"/><circle cx="16.303037643432617" cy="60.002830505371094" r="0" fill="#dd3333"/><circle cx="16.209903717041016" cy="58.79196548461914" r="0" fill="#dd3333"/><circle cx="16.59134292602539" cy="58.28908157348633" r="0" fill="#dd3333"/><circle cx="16.434280395507812" cy="57.236637115478516" r="0" fill="#dd3333"/><circle cx="16.865768432617188" cy="56.57279968261719" r="0" fill="#dd3333"/><circle cx="16.672380447387695" cy="55.683380126953125" r="0" fill="#dd3333"/><circle cx="17.126924514770508" cy="54.85459518432617" r="0" fill="#dd3333"/><circle cx="16.923351287841797" cy="54.13193130493164" r="0" fill="#dd3333"/><circle cx="17.375534057617188" cy="53.1340217590332" r="0" fill="#dd3333"/><circle cx="17.186586380004883" cy="52.58224105834961" r="0" fill="#dd3333"/><circle cx="17.612258911132812" cy="51.41154098510742" r="0" fill="#dd3333"/><circle cx="17.461326599121094" cy="51.0341796875" r="0" fill="#dd3333"/><circle cx="19.76676368713379" cy="47.743446350097656" r="0" fill="#dd3333"/><circle cx="18.052902221679688" cy="47.95770263671875" r="0" fill="#dd3333"/><circle cx="17.74688720703125" cy="49.487571716308594" r="0" fill="#dd3333"/><circle cx="17.837663650512695" cy="49.68724060058594" r="0" fill="#dd3333"/><circle cx="19.833345413208008" cy="47.78042984008789" r="0" fill="#dd3333"/><circle cx="21.49997329711914" cy="47.626102447509766" r="0" fill="#dd3333"/><circle cx="21.508079528808594" cy="47.620113372802734" r="0" fill="#dd3333"/><circle cx="23.166704177856445" cy="47.5095329284668" r="0" fill="#dd3333"/><circle cx="23.2432861328125" cy="47.45973587036133" r="0" fill="#dd3333"/><circle cx="24.833328247070312" cy="47.38744354248047" r="0" fill="#dd3333"/><circle cx="24.97918701171875" cy="47.30348205566406" r="0" fill="#dd3333"/><circle cx="26.500019073486328" cy="47.26123046875" r="0" fill="#dd3333"/><circle cx="26.715545654296875" cy="47.15048599243164" r="0" fill="#dd3333"/><circle cx="36.999996185302734" cy="47.29166793823242" r="0" fill="#dd3333"/><circle cx="34.66673278808594" cy="47.00000762939453" r="0" fill="#dd3333"/><circle cx="28.452373504638672" cy="47.000003814697266" r="0" fill="#dd3333"/><circle cx="28.16668128967285" cy="47.13187789916992" r="0" fill="#dd3333"/><circle cx="37" cy="49.833343505859375" r="0" fill="#dd3333"/><circle cx="37" cy="51.4999885559082" r="0" fill="#dd3333"/><circle cx="29.00221061706543" cy="88.9594955444336" r="0" fill="#dd3333"/><circle cx="29.00442886352539" cy="88.5625" r="0" fill="#dd3333"/><circle cx="28.991199493408203" cy="88.52940368652344" r="0" fill="#dd3333"/><circle cx="29.00868797302246" cy="86.9375" r="0" fill="#dd3333"/><circle cx="28.986955642700195" cy="86.88237762451172" r="0" fill="#dd3333"/><circle cx="29.012876510620117" cy="85.3125" r="0" fill="#dd3333"/><circle cx="28.982824325561523" cy="85.23517608642578" r="0" fill="#dd3333"/><circle cx="29.016921997070312" cy="83.6875" r="0" fill="#dd3333"/><circle cx="28.97882080078125" cy="83.5883560180664" r="0" fill="#dd3333"/><circle cx="29.020950317382812" cy="82.0625" r="0" fill="#dd3333"/><circle cx="28.974912643432617" cy="81.9410629272461" r="0" fill="#dd3333"/><circle cx="29.024658203125" cy="80.4375" r="0" fill="#dd3333"/><circle cx="28.971187591552734" cy="80.29412841796875" r="0" fill="#dd3333"/><circle cx="29.028339385986328" cy="78.8125" r="0" fill="#dd3333"/><circle cx="28.967594146728516" cy="78.64716339111328" r="0" fill="#dd3333"/><circle cx="29.031978607177734" cy="77.1875" r="0" fill="#dd3333"/><circle cx="28.964017868041992" cy="76.99988555908203" r="0" fill="#dd3333"/><circle cx="29.035371780395508" cy="75.5625" r="0" fill="#dd3333"/><circle cx="28.960662841796875" cy="75.3530044555664" r="0" fill="#dd3333"/><circle cx="29.038724899291992" cy="73.9375" r="0" fill="#dd3333"/><circle cx="28.9574031829834" cy="73.70588684082031" r="0" fill="#dd3333"/><circle cx="29.041927337646484" cy="72.3125" r="0" fill="#dd3333"/><circle cx="28.95424461364746" cy="72.05878448486328" r="0" fill="#dd3333"/><circle cx="29.044973373413086" cy="70.6875" r="0" fill="#dd3333"/><circle cx="28.951242446899414" cy="70.41181945800781" r="0" fill="#dd3333"/><circle cx="29.047958374023438" cy="69.0625" r="0" fill="#dd3333"/><circle cx="28.948360443115234" cy="68.76469421386719" r="0" fill="#dd3333"/><circle cx="29.050823211669922" cy="67.4375" r="0" fill="#dd3333"/><circle cx="28.945571899414062" cy="67.11759948730469" r="0" fill="#dd3333"/><circle cx="29.333358764648438" cy="63.33330535888672" r="0" fill="#dd3333"/><circle cx="29.088205337524414" cy="63.82352828979492" r="0" fill="#dd3333"/><circle cx="28.942913055419922" cy="65.47061157226562" r="0" fill="#dd3333"/><circle cx="29.053531646728516" cy="65.8125" r="0" fill="#dd3333"/><circle cx="29.999990463256836" cy="62.66669845581055" r="0" fill="#dd3333"/><circle cx="30.235252380371094" cy="62.11763381958008" r="0" fill="#dd3333"/><circle cx="31.090961456298828" cy="61.09099197387695" r="0" fill="#dd3333"/><circle cx="31.157913208007812" cy="60.912227630615234" r="0" fill="#dd3333"/><circle cx="35.11109924316406" cy="54.833316802978516" r="0" fill="#dd3333"/><circle cx="33.6296272277832" cy="56.50001907348633" r="0" fill="#dd3333"/><circle cx="32.61107635498047" cy="58.166664123535156" r="0" fill="#dd3333"/><circle cx="32.166664123535156" cy="59.50000762939453" r="0" fill="#dd3333"/><circle cx="37" cy="52.97435760498047" r="0" fill="#dd3333"/><circle cx="37.20832824707031" cy="53.16666793823242" r="0" fill="#dd3333"/><circle cx="36.79165267944336" cy="53.16666793823242" r="0" fill="#dd3333"/><circle cx="36" cy="54.07143020629883" r="0" fill="#dd3333"/><circle cx="38" cy="54.07143020629883" r="0" fill="#dd3333"/><circle cx="38.8889045715332" cy="54.83336639404297" r="0" fill="#dd3333"/><circle cx="40.37031173706055" cy="56.49997329711914" r="0" fill="#dd3333"/><circle cx="41.388877868652344" cy="58.166664123535156" r="0" fill="#dd3333"/><circle cx="41.83335876464844" cy="59.50000762939453" r="0" fill="#dd3333"/><circle cx="42.84208297729492" cy="60.91225814819336" r="0" fill="#dd3333"/><circle cx="42.909088134765625" cy="61.09090042114258" r="0" fill="#dd3333"/><circle cx="43.76470184326172" cy="62.117671966552734" r="0" fill="#dd3333"/><circle cx="44.91175079345703" cy="63.82350158691406" r="0" fill="#dd3333"/><circle cx="44.66667938232422" cy="63.333351135253906" r="0" fill="#dd3333"/><circle cx="43.999977111816406" cy="62.666622161865234" r="0" fill="#dd3333"/><circle cx="45.05707550048828" cy="65.47064208984375" r="0" fill="#dd3333"/><circle cx="44.946475982666016" cy="65.8125" r="0" fill="#dd3333"/><circle cx="45.054443359375" cy="67.11759948730469" r="0" fill="#dd3333"/><circle cx="44.949180603027344" cy="67.4375" r="0" fill="#dd3333"/><circle cx="45.051639556884766" cy="68.76469421386719" r="0" fill="#dd3333"/><circle cx="44.95203399658203" cy="69.0625" r="0" fill="#dd3333"/><circle cx="45.04877471923828" cy="70.41189575195312" r="0" fill="#dd3333"/><circle cx="44.95500183105469" cy="70.6875" r="0" fill="#dd3333"/><circle cx="45.0457763671875" cy="72.05870819091797" r="0" fill="#dd3333"/><circle cx="44.95808410644531" cy="72.3125" r="0" fill="#dd3333"/><circle cx="45.042633056640625" cy="73.70596313476562" r="0" fill="#dd3333"/><circle cx="44.96131134033203" cy="73.9375" r="0" fill="#dd3333"/><circle cx="45.039337158203125" cy="75.3529281616211" r="0" fill="#dd3333"/><circle cx="44.96461868286133" cy="75.5625" r="0" fill="#dd3333"/><circle cx="45.035980224609375" cy="76.99988555908203" r="0" fill="#dd3333"/><circle cx="44.96803665161133" cy="77.1875" r="0" fill="#dd3333"/><circle cx="45.032405853271484" cy="78.64716339111328" r="0" fill="#dd3333"/><circle cx="44.971641540527344" cy="78.8125" r="0" fill="#dd3333"/><circle cx="45.02877426147461" cy="80.29412841796875" r="0" fill="#dd3333"/><circle cx="44.97532272338867" cy="80.4375" r="0" fill="#dd3333"/><circle cx="45.025123596191406" cy="81.9410629272461" r="0" fill="#dd3333"/><circle cx="44.97911834716797" cy="82.0625" r="0" fill="#dd3333"/><circle cx="45.021141052246094" cy="83.5883560180664" r="0" fill="#dd3333"/><circle cx="44.98317337036133" cy="83.6875" r="0" fill="#dd3333"/><circle cx="45.0172119140625" cy="85.23517608642578" r="0" fill="#dd3333"/><circle cx="44.98707962036133" cy="85.3125" r="0" fill="#dd3333"/><circle cx="45.01298904418945" cy="86.88243865966797" r="0" fill="#dd3333"/><circle cx="44.99128723144531" cy="86.9375" r="0" fill="#dd3333"/><circle cx="45.008819580078125" cy="88.52934265136719" r="0" fill="#dd3333"/><circle cx="44.995567321777344" cy="88.5625" r="0" fill="#dd3333"/><circle cx="44.997798919677734" cy="88.9594955444336" r="0" fill="#dd3333"/></svg>