<svg xmlns="http://www.w3.org/2000/svg" width="74" height="106" viewBox="0 0 74 106"><path fill="#e8edff" stroke="#4466aa" stroke-width="0.3" d="M47,91 L47,63 L45,59 L45,49 L55,49 L57,61 L59,61 L57,47 L45,45 L43,41 L41,39 L41,33 L42,29 L45,25 L45,21 L43,17 L39,15 L35,15 L31,17 L29,21 L29,25 L32,29 L33,33 L33,39 L31,41 L29,45 L17,47 L15,61 L17,61 L19,49 L29,49 L29,59 L27,63 L27,91 L31,91 L31,65 L35,61 L37,61 L39,61 L43,65 L43,91 Z"/><line x1="57" y1="55" x2="57" y2="61" stroke="#dd3333" stroke-width="0.25" stroke-linecap="round"/><line x1="57" y1="55" x2="56" y2="48" stroke="#dd3333" stroke-width="0.25" stroke-linecap="round"/><line x1="45" y1="47" x2="50" y2="47" stroke="#dd3333" stroke-width="0.25" stroke-linecap="round"/><line x1="56" y1="48" x2="50" y2="47" stroke="#dd3333" stroke-width="0.25" stroke-linecap="round"/><line x1="43.5" y1="25" x2="45" y2="25" stroke="#dd3333" stroke-width="0.25" stroke-linecap="round"/><line x1="42" y1="21.666667938232422" x2="43.5" y2="25" stroke="#dd3333" stroke-width="0.25" stroke-linecap="round"/><line x1="42" y1="21.666667938232422" x2="40.5" y2="22" stroke="#dd3333" stroke-width="0.25" stroke-linecap="round"/><line x1="42" y1="21.666667938232422" x2="42" y2="18" stroke="#dd3333" stroke-width="0.25" stroke-linecap="round"/><line x1="42" y1="18" x2="43" y2="17" stroke="#dd3333" stroke-width="0.25" stroke-linecap="round"/><line x1="32" y1="18" x2="31" y2="17" stroke="#dd3333" stroke-width="0.25" stroke-linecap="round"/><line x1="37.66666793823242" y1="24.333332061767578" x2="40.5" y2="22" stroke="#dd3333" stroke-width="0.25" stroke-linecap="round"/><line x1="37.66666793823242" y1="24.333332061767578" x2="37" y2="29" stroke="#dd3333" stroke-width="0.25" stroke-linecap="round"/><line x1="37.66666793823242" y1="24.333332061767578" x2="35.5" y2="22" stroke="#dd3333" stroke-width="0.25" stroke-linecap="round"/><line x1="35.5" y1="22" x2="33.5" y2="22" stroke="#dd3333" stroke-width="0.25" stroke-linecap="round"/><line x1="32" y1="21.666667938232422" x2="32" y2="18" stroke="#dd3333" stroke-width="0.25" stroke-linecap="round"/><line x1="32" y1="21.666667938232422" x2="33.5" y2="22" stroke="#dd3333" stroke-width="0.25" stroke-linecap="round"/><line x1="32" y1="21.666667938232422" x2="30.5" y2="25" stroke="#dd3333" stroke-width="0.25" stroke-linecap="round"/><line x1="30.5" y1="25" x2="29" y2="25" stroke="#dd3333" stroke-width="0.25" stroke-linecap="round"/><line x1="37" y1="33" x2="37.5" y2="31" stroke="#dd3333" stroke-width="0.25" stroke-linecap="round"/><line x1="37" y1="29" x2="37.5" y2="31" stroke="#dd3333" stroke-width="0.25" stroke-linecap="round"/><line x1="37" y1="39" x2="37" y2="36" stroke="#dd3333" stroke-width="0.25" stroke-linecap="round"/><line x1="37" y1="33" x2="37" y2="36" stroke="#dd3333" stroke-width="0.25" stroke-linecap="round"/><line x1="37" y1="41" x2="36" y2="40" stroke="#dd3333" stroke-width="0.25" stroke-linecap="round"/><line x1="37" y1="39" x2="36" y2="40" stroke="#dd3333" stroke-width="0.25" stroke-linecap="round"/><line x1="37" y1="45" x2="36" y2="43" stroke="#dd3333" stroke-width="0.25" stroke-linecap="round"/><line x1="37" y1="41" x2="36" y2="43" stroke="#dd3333" stroke-width="0.25" stroke-linecap="round"/><line x1="24" y1="47" x2="18" y2="48" stroke="#dd3333" stroke-width="0.25" stroke-linecap="round"/><line x1="18" y1="48" x2="17" y2="55" stroke="#dd3333" stroke-width="0.25" stroke-linecap="round"/><line x1="17" y1="55" x2="17" y2="61" stroke="#dd3333" stroke-width="0.25" stroke-linecap="round"/><line x1="39.66666793823242" y1="47.66666793823242" x2="45" y2="47" stroke="#dd3333" stroke-width="0.25" stroke-linecap="round"/><line x1="39.66666793823242" y1="47.66666793823242" x2="37" y2="49" stroke="#dd3333" stroke-width="0.25" stroke-linecap="round"/><line x1="39.66666793823242" y1="47.66666793823242" x2="37" y2="47" stroke="#dd3333" stroke-width="0.25" stroke-linecap="round"/><line x1="34.33333206176758" y1="46.33333206176758" x2="37" y2="45" stroke="#dd3333" stroke-width="0.25" stroke-linecap="round"/><line x1="34.33333206176758" y1="46.33333206176758" x2="37" y2="47" stroke="#dd3333" stroke-width="0.25" stroke-linecap="round"/><line x1="34.33333206176758" y1="46.33333206176758" x2="29" y2="47" stroke="#dd3333" stroke-width="0.25" stroke-linecap="round"/><line x1="24" y1="47" x2="29" y2="47" stroke="#dd3333" stroke-width="0.25" stroke-linecap="round"/><line x1="30" y1="62" x2="29" y2="64" stroke="#dd3333" stroke-width="0.25" stroke-linecap="round"/><line x1="29" y1="64" x2="29" y2="78" stroke="#dd3333" stroke-width="0.25" stroke-linecap="round"/><line x1="29" y1="78" x2="31" y2="91" stroke="#dd3333" stroke-width="0.25" stroke-linecap="round"/><line x1="32" y1="55" x2="32" y2="60" stroke="#dd3333" stroke-width="0.25" stroke-linecap="round"/><line x1="30" y1="62" x2="32" y2="60" stroke="#dd3333" stroke-width="0.25" stroke-linecap="round"/><line x1="37" y1="53" x2="37" y2="49" stroke="#dd3333" stroke-width="0.25" stroke-linecap="round"/><line x1="37" y1="53" x2="41" y2="55" stroke="#dd3333" stroke-width="0.25" stroke-linecap="round"/><line x1="37" y1="53" x2="33" y2="55" stroke="#dd3333" stroke-width="0.25" stroke-linecap="round"/><line x1="32" y1="55" x2="33" y2="55" stroke="#dd3333" stroke-width="0.25" stroke-linecap="round"/><line x1="42" y1="60" x2="42" y2="55" stroke="#dd3333" stroke-width="0.25" stroke-linecap="round"/><line x1="41" y1="55" x2="42" y2="55" stroke="#dd3333" stroke-width="0.25" stroke-linecap="round"/><line x1="45" y1="78" x2="45" y2="64" stroke="#dd3333" stroke-width="0.25" stroke-linecap="round"/><line x1="45" y1="64" x2="44" y2="62" stroke="#dd3333" stroke-width="0.25" stroke-linecap="round"/><line x1="42" y1="60" x2="44" y2="62" stroke="#dd3333" stroke-width="0.25" stroke-linecap="round"/><line x1="45" y1="78" x2="43" y2="91" stroke="#dd3333" stroke-width="0.25" stroke-linecap="round"/><circle cx="57" cy="55" r="0.4" fill="#dd3333"/><circle cx="57" cy="61" r="0.4" fill="#dd3333"/><circle cx="56" cy="48" r="0.4" fill="#dd3333"/><circle cx="45" cy="47" r="0.4" fill="#dd3333"/><circle cx="50" cy="47" r="0.4" fill="#dd3333"/><circle cx="43.5" cy="25" r="0.4" fill="#dd3333"/><circle cx="45" cy="25" r="0.4" fill="#dd3333"/><circle cx="42" cy="21.666667938232422" r="0.4" fill="#dd3333"/><circle cx="40.5" cy="22" r="0.4" fill="#dd3333"/><circle cx="42" cy="18" r="0.4" fill="#dd3333"/><circle cx="43" cy="17" r="0.4" fill="#dd3333"/><circle cx="32" cy="18" r="0.4" fill="#dd3333"/><circle cx="31" cy="17" r="0.4" fill="#dd3333"/><circle cx="37.66666793823242" cy="24.333332061767578" r="0.4" fill="#dd3333"/><circle cx="37" cy="29" r="0.4" fill="#dd3333"/><circle cx="35.5" cy="22" r="0.4" fill="#dd3333"/><circle cx="33.5" cy="22" r="0.4" fill="#dd3333"/><circle cx="32" cy="21.666667938232422" r="0.4" fill="#dd3333"/><circle cx="30.5" cy="25" r="0.4" fill="#dd3333"/><circle cx="29" cy="25" r="0.4" fill="#dd3333"/><circle cx="37" cy="33" r="0.4" fill="#dd3333"/><circle cx="37.5" cy="31" r="0.4" fill="#dd3333"/><circle cx="37" cy="39" r="0.4" fill="#dd3333"/><circle cx="37" cy="36" r="0.4" fill="#dd3333"/><circle cx="37" cy="41" r="0.4" fill="#dd3333"/><circle cx="36" cy="40" r="0.4" fill="#dd3333"/><circle cx="37" cy="45" r="0.4" fill="#dd3333"/><circle cx="36" cy="43" r="0.4" fill="#dd3333"/><circle cx="24" cy="47" r="0.4" fill="#dd3333"/><circle cx="18" cy="48" r="0.4" fill="#dd3333"/><circle cx="17" cy="55" r="0.4" fill="#dd3333"/><circle cx="17" cy="61" r="0.4" fill="#dd3333"/><circle cx="39.66666793823242" cy="47.66666793823242" r="0.4" fill="#dd3333"/><circle cx="37" cy="49" r="0.4" fill="#dd3333"/><circle cx="37" cy="47" r="0.4" fill="#dd3333"/><circle cx="34.33333206176758" cy="46.33333206176758" r="0.4" fill="#dd3333"/><circle cx="29" cy="47" r="0.4" fill="#dd3333"/><circle cx="30" cy="62" r="0.4" fill="#dd3333"/><circle cx="29" cy="64" r="0.4" fill="#dd3333"/><circle cx="29" cy="78" r="0.4" fill="#dd3333"/><circle cx="31" cy="91" r="0.4" fill="#dd3333"/><circle cx="32" cy="55" r="0.4" fill="#dd3333"/><circle cx="32" cy="60" r="0.4" fill="#dd3333"/><circle cx="37" cy="53" r="0.4" fill="#dd3333"/><circle cx="41" cy="55" r="0.4" fill="#dd3333"/><circle cx="33" cy="55" r="0.4" fill="#dd3333"/><circle cx="42" cy="60" r="0.4" fill="#dd3333"/><circle cx="42" cy="55" r="0.4" fill="#dd3333"/><circle cx="45" cy="78" r="0.4" fill="#dd3333"/><circle cx="45" cy="64" r="0.4" fill="#dd3333"/><circle cx="44" cy="62" r="0.4" fill="#dd3333"/><circle cx="43" cy="91" r="0.4" fill="#dd3333"/></svg>