<svg xmlns="http://www.w3.org/2000/svg" width="74" height="106" viewBox="0 0 74 106"><path fill="#e8edff" stroke="#4466aa" stroke-width="0.3" d="M47,91 L47,63 L45,59 L45,49 L55,49 L57,61 L59,61 L57,47 L45,45 L43,41 L41,39 L41,33 L42,29 L45,25 L45,21 L43,17 L39,15 L35,15 L31,17 L29,21 L29,25 L32,29 L33,33 L33,39 L31,41 L29,45 L17,47 L15,61 L17,61 L19,49 L29,49 L29,59 L27,63 L27,91 L31,91 L31,65 L35,61 L37,61 L39,61 L43,65 L43,91 Z"/><line x1="59" y1="61" x2="57.847068786621094" y2="60.00006866455078" stroke="#bbbbbb" stroke-width="0.25" stroke-linecap="round"/><line x1="57" y1="61" x2="57.847068786621094" y2="60.00006866455078" stroke="#bbbbbb" stroke-width="0.25" stroke-linecap="round"/><line x1="17" y1="61" x2="16.152931213378906" y2="60.00006866455078" stroke="#bbbbbb" stroke-width="0.25" stroke-linecap="round"/><line x1="15" y1="61" x2="16.152931213378906" y2="60.00006866455078" stroke="#bbbbbb" stroke-width="0.25" stroke-linecap="round"/><line x1="19" y1="49" x2="18.082763671875" y2="47.917236328125" stroke="#bbbbbb" stroke-width="0.25" stroke-linecap="round"/><line x1="55" y1="49" x2="55.917236328125" y2="47.917236328125" stroke="#bbbbbb" stroke-width="0.25" stroke-linecap="round"/><line x1="57.847068786621094" y1="60.00006866455078" x2="55.988372802734375" y2="47.988372802734375" stroke="#bbbbbb" stroke-width="0.25" stroke-linecap="round"/><line x1="57" y1="47" x2="55.988372802734375" y2="47.988372802734375" stroke="#bbbbbb" stroke-width="0.25" stroke-linecap="round"/><line x1="55.917236328125" y1="47.917236328125" x2="55.988372802734375" y2="47.988372802734375" stroke="#bbbbbb" stroke-width="0.25" stroke-linecap="round"/><line x1="31" y1="91" x2="29" y2="89" stroke="#bbbbbb" stroke-width="0.25" stroke-linecap="round"/><line x1="27" y1="91" x2="29" y2="89" stroke="#bbbbbb" stroke-width="0.25" stroke-linecap="round"/><line x1="31" y1="65" x2="29" y2="64.17156982421875" stroke="#bbbbbb" stroke-width="0.25" stroke-linecap="round"/><line x1="43" y1="65" x2="45" y2="64.17156982421875" stroke="#bbbbbb" stroke-width="0.25" stroke-linecap="round"/><line x1="47" y1="91" x2="45" y2="89" stroke="#bbbbbb" stroke-width="0.25" stroke-linecap="round"/><line x1="43" y1="91" x2="45" y2="89" stroke="#bbbbbb" stroke-width="0.25" stroke-linecap="round"/><line x1="45" y1="89" x2="45" y2="76.58578491210938" stroke="#bbbbbb" stroke-width="0.25" stroke-linecap="round"/><line x1="45" y1="64.17156982421875" x2="45" y2="76.58578491210938" stroke="#bbbbbb" stroke-width="0.25" stroke-linecap="round"/><line x1="29" y1="64.17156982421875" x2="29" y2="76.58578491210938" stroke="#bbbbbb" stroke-width="0.25" stroke-linecap="round"/><line x1="29" y1="89" x2="29" y2="76.58578491210938" stroke="#bbbbbb" stroke-width="0.25" stroke-linecap="round"/><line x1="17" y1="47" x2="18.011627197265625" y2="47.988372802734375" stroke="#bbbbbb" stroke-width="0.25" stroke-linecap="round"/><line x1="16.152931213378906" y1="60.00006866455078" x2="18.011627197265625" y2="47.988372802734375" stroke="#bbbbbb" stroke-width="0.25" stroke-linecap="round"/><line x1="18.082763671875" y1="47.917236328125" x2="18.011627197265625" y2="47.988372802734375" stroke="#bbbbbb" stroke-width="0.25" stroke-linecap="round"/><line x1="45" y1="45" x2="43.59840393066406" y2="46.89769744873047" stroke="#bbbbbb" stroke-width="0.25" stroke-linecap="round"/><line x1="55.917236328125" y1="47.917236328125" x2="43.59840393066406" y2="46.89769744873047" stroke="#bbbbbb" stroke-width="0.25" stroke-linecap="round"/><line x1="18.082763671875" y1="47.917236328125" x2="30.401592254638672" y2="46.89769744873047" stroke="#bbbbbb" stroke-width="0.25" stroke-linecap="round"/><line x1="29" y1="45" x2="30.401592254638672" y2="46.89769744873047" stroke="#bbbbbb" stroke-width="0.25" stroke-linecap="round"/><line x1="29" y1="64.17156982421875" x2="29.26390838623047" y2="63.53443908691406" stroke="#bbbbbb" stroke-width="0.25" stroke-linecap="round"/><line x1="27" y1="63" x2="29.26390838623047" y2="63.53443908691406" stroke="#bbbbbb" stroke-width="0.25" stroke-linecap="round"/><line x1="47" y1="63" x2="44.73609161376953" y2="63.53443908691406" stroke="#bbbbbb" stroke-width="0.25" stroke-linecap="round"/><line x1="45" y1="64.17156982421875" x2="44.73609161376953" y2="63.53443908691406" stroke="#bbbbbb" stroke-width="0.25" stroke-linecap="round"/><line x1="45" y1="59" x2="41.9814567565918" y2="59.71258544921875" stroke="#bbbbbb" stroke-width="0.25" stroke-linecap="round"/><line x1="44.73609161376953" y1="63.53443908691406" x2="41.9814567565918" y2="59.71258544921875" stroke="#bbbbbb" stroke-width="0.25" stroke-linecap="round"/><line x1="29.26390838623047" y1="63.53443908691406" x2="32.01854705810547" y2="59.71258544921875" stroke="#bbbbbb" stroke-width="0.25" stroke-linecap="round"/><line x1="29" y1="59" x2="32.01854705810547" y2="59.71258544921875" stroke="#bbbbbb" stroke-width="0.25" stroke-linecap="round"/><line x1="43.59840393066406" y1="46.89769744873047" x2="41.76392364501953" y2="45.76393508911133" stroke="#bbbbbb" stroke-width="0.25" stroke-linecap="round"/><line x1="45" y1="49" x2="41.76392364501953" y2="45.76393508911133" stroke="#bbbbbb" stroke-width="0.25" stroke-linecap="round"/><line x1="29" y1="49" x2="32.2360725402832" y2="45.76393508911133" stroke="#bbbbbb" stroke-width="0.25" stroke-linecap="round"/><line x1="30.401592254638672" y1="46.89769744873047" x2="32.2360725402832" y2="45.76393508911133" stroke="#bbbbbb" stroke-width="0.25" stroke-linecap="round"/><line x1="33" y1="39" x2="37" y2="40.65685272216797" stroke="#bbbbbb" stroke-width="0.25" stroke-linecap="round"/><line x1="41" y1="39" x2="37" y2="40.65685272216797" stroke="#bbbbbb" stroke-width="0.25" stroke-linecap="round"/><line x1="33" y1="33" x2="37" y2="32.50757598876953" stroke="#bbbbbb" stroke-width="0.25" stroke-linecap="round"/><line x1="41" y1="33" x2="37" y2="32.50757598876953" stroke="#bbbbbb" stroke-width="0.25" stroke-linecap="round"/><line x1="37" y1="32.50757598876953" x2="37" y2="36.58221435546875" stroke="#bbbbbb" stroke-width="0.25" stroke-linecap="round"/><line x1="37" y1="40.65685272216797" x2="37" y2="36.58221435546875" stroke="#bbbbbb" stroke-width="0.25" stroke-linecap="round"/><line x1="42" y1="29" x2="37" y2="26.620149612426758" stroke="#bbbbbb" stroke-width="0.25" stroke-linecap="round"/><line x1="32" y1="29" x2="37" y2="26.620149612426758" stroke="#bbbbbb" stroke-width="0.25" stroke-linecap="round"/><line x1="37" y1="32.50757598876953" x2="37" y2="26.620149612426758" stroke="#bbbbbb" stroke-width="0.25" stroke-linecap="round"/><line x1="35" y1="61" x2="33.242637634277344" y2="56.757362365722656" stroke="#bbbbbb" stroke-width="0.25" stroke-linecap="round"/><line x1="32.01854705810547" y1="59.71258544921875" x2="33.242637634277344" y2="56.757362365722656" stroke="#bbbbbb" stroke-width="0.25" stroke-linecap="round"/><line x1="41.9814567565918" y1="59.71258544921875" x2="40.757354736328125" y2="56.757354736328125" stroke="#bbbbbb" stroke-width="0.25" stroke-linecap="round"/><line x1="39" y1="61" x2="40.757354736328125" y2="56.757354736328125" stroke="#bbbbbb" stroke-width="0.25" stroke-linecap="round"/><line x1="45" y1="21" x2="37.97507858276367" y2="22.65835952758789" stroke="#bbbbbb" stroke-width="0.25" stroke-linecap="round"/><line x1="45" y1="25" x2="37.97507858276367" y2="22.65835952758789" stroke="#bbbbbb" stroke-width="0.25" stroke-linecap="round"/><line x1="29" y1="25" x2="36.02491760253906" y2="22.65835952758789" stroke="#bbbbbb" stroke-width="0.25" stroke-linecap="round"/><line x1="29" y1="21" x2="36.02491760253906" y2="22.65835952758789" stroke="#bbbbbb" stroke-width="0.25" stroke-linecap="round"/><line x1="37" y1="40.65685272216797" x2="37" y2="45.32455062866211" stroke="#bbbbbb" stroke-width="0.25" stroke-linecap="round"/><line x1="31" y1="41" x2="37" y2="45.32455062866211" stroke="#bbbbbb" stroke-width="0.25" stroke-linecap="round"/><line x1="43" y1="41" x2="37" y2="45.32455062866211" stroke="#bbbbbb" stroke-width="0.25" stroke-linecap="round"/><line x1="31" y1="17" x2="36.60596466064453" y2="22.605968475341797" stroke="#bbbbbb" stroke-width="0.25" stroke-linecap="round"/><line x1="36.02491760253906" y1="22.65835952758789" x2="36.60596466064453" y2="22.605968475341797" stroke="#bbbbbb" stroke-width="0.25" stroke-linecap="round"/><line x1="43" y1="17" x2="37.39403533935547" y2="22.605968475341797" stroke="#bbbbbb" stroke-width="0.25" stroke-linecap="round"/><line x1="37.97507858276367" y1="22.65835952758789" x2="37.39403533935547" y2="22.605968475341797" stroke="#bbbbbb" stroke-width="0.25" stroke-linecap="round"/><line x1="32.2360725402832" y1="45.76393508911133" x2="37" y2="46.88853454589844" stroke="#bbbbbb" stroke-width="0.25" stroke-linecap="round"/><line x1="41.76392364501953" y1="45.76393508911133" x2="37" y2="46.88853454589844" stroke="#bbbbbb" stroke-width="0.25" stroke-linecap="round"/><line x1="37" y1="45.32455062866211" x2="37" y2="46.88853454589844" stroke="#bbbbbb" stroke-width="0.25" stroke-linecap="round"/><line x1="37" y1="61" x2="36.99999237060547" y2="53.00000762939453" stroke="#bbbbbb" stroke-width="0.25" stroke-linecap="round"/><line x1="40.757354736328125" y1="56.757354736328125" x2="36.99999237060547" y2="53.00000762939453" stroke="#bbbbbb" stroke-width="0.25" stroke-linecap="round"/><line x1="33.242637634277344" y1="56.757362365722656" x2="36.99999237060547" y2="53.00000762939453" stroke="#bbbbbb" stroke-width="0.25" stroke-linecap="round"/><line x1="36.99999237060547" y1="53.00000762939453" x2="36.999996185302734" y2="49.944271087646484" stroke="#bbbbbb" stroke-width="0.25" stroke-linecap="round"/><line x1="37" y1="46.88853454589844" x2="36.999996185302734" y2="49.944271087646484" stroke="#bbbbbb" stroke-width="0.25" stroke-linecap="round"/><line x1="39" y1="15" x2="37.19328689575195" y2="22.65335464477539" stroke="#bbbbbb" stroke-width="0.25" stroke-linecap="round"/><line x1="37.39403533935547" y1="22.605968475341797" x2="37.19328689575195" y2="22.65335464477539" stroke="#bbbbbb" stroke-width="0.25" stroke-linecap="round"/><line x1="36.60596466064453" y1="22.605968475341797" x2="36.80671310424805" y2="22.65335464477539" stroke="#bbbbbb" stroke-width="0.25" stroke-linecap="round"/><line x1="35" y1="15" x2="36.80671310424805" y2="22.65335464477539" stroke="#bbbbbb" stroke-width="0.25" stroke-linecap="round"/><line x1="37" y1="26.620149612426758" x2="37" y2="22.75" stroke="#bbbbbb" stroke-width="0.25" stroke-linecap="round"/><line x1="37.19328689575195" y1="22.65335464477539" x2="37" y2="22.75" stroke="#bbbbbb" stroke-width="0.25" stroke-linecap="round"/><line x1="36.80671310424805" y1="22.65335464477539" x2="37" y2="22.75" stroke="#bbbbbb" stroke-width="0.25" stroke-linecap="round"/><circle cx="59" cy="61" r="0.4" fill="#bbbbbb"/><circle cx="57.847068786621094" cy="60.00006866455078" r="0.4" fill="#bbbbbb"/><circle cx="57" cy="61" r="0.4" fill="#bbbbbb"/><circle cx="17" cy="61" r="0.4" fill="#bbbbbb"/><circle cx="16.152931213378906" cy="60.00006866455078" r="0.4" fill="#bbbbbb"/><circle cx="15" cy="61" r="0.4" fill="#bbbbbb"/><circle cx="19" cy="49" r="0.4" fill="#bbbbbb"/><circle cx="18.082763671875" cy="47.917236328125" r="0.4" fill="#bbbbbb"/><circle cx="55" cy="49" r="0.4" fill="#bbbbbb"/><circle cx="55.917236328125" cy="47.917236328125" r="0.4" fill="#bbbbbb"/><circle cx="55.988372802734375" cy="47.988372802734375" r="0.4" fill="#bbbbbb"/><circle cx="57" cy="47" r="0.4" fill="#bbbbbb"/><circle cx="31" cy="91" r="0.4" fill="#bbbbbb"/><circle cx="29" cy="89" r="0.4" fill="#bbbbbb"/><circle cx="27" cy="91" r="0.4" fill="#bbbbbb"/><circle cx="31" cy="65" r="0.4" fill="#bbbbbb"/><circle cx="29" cy="64.17156982421875" r="0.4" fill="#bbbbbb"/><circle cx="43" cy="65" r="0.4" fill="#bbbbbb"/><circle cx="45" cy="64.17156982421875" r="0.4" fill="#bbbbbb"/><circle cx="47" cy="91" r="0.4" fill="#bbbbbb"/><circle cx="45" cy="89" r="0.4" fill="#bbbbbb"/><circle cx="43" cy="91" r="0.4" fill="#bbbbbb"/><circle cx="45" cy="76.58578491210938" r="0.4" fill="#bbbbbb"/><circle cx="29" cy="76.58578491210938" r="0.4" fill="#bbbbbb"/><circle cx="17" cy="47" r="0.4" fill="#bbbbbb"/><circle cx="18.011627197265625" cy="47.988372802734375" r="0.4" fill="#bbbbbb"/><circle cx="45" cy="45" r="0.4" fill="#bbbbbb"/><circle cx="43.59840393066406" cy="46.89769744873047" r="0.4" fill="#bbbbbb"/><circle cx="30.401592254638672" cy="46.89769744873047" r="0.4" fill="#bbbbbb"/><circle cx="29" cy="45" r="0.4" fill="#bbbbbb"/><circle cx="29.26390838623047" cy="63.53443908691406" r="0.4" fill="#bbbbbb"/><circle cx="27" cy="63" r="0.4" fill="#bbbbbb"/><circle cx="47" cy="63" r="0.4" fill="#bbbbbb"/><circle cx="44.73609161376953" cy="63.53443908691406" r="0.4" fill="#bbbbbb"/><circle cx="45" cy="59" r="0.4" fill="#bbbbbb"/><circle cx="41.9814567565918" cy="59.71258544921875" r="0.4" fill="#bbbbbb"/><circle cx="32.01854705810547" cy="59.71258544921875" r="0.4" fill="#bbbbbb"/><circle cx="29" cy="59" r="0.4" fill="#bbbbbb"/><circle cx="41.76392364501953" cy="45.76393508911133" r="0.4" fill="#bbbbbb"/><circle cx="45" cy="49" r="0.4" fill="#bbbbbb"/><circle cx="29" cy="49" r="0.4" fill="#bbbbbb"/><circle cx="32.2360725402832" cy="45.76393508911133" r="0.4" fill="#bbbbbb"/><circle cx="33" cy="39" r="0.4" fill="#bbbbbb"/><circle cx="37" cy="40.65685272216797" r="0.4" fill="#bbbbbb"/><circle cx="41" cy="39" r="0.4" fill="#bbbbbb"/><circle cx="33" cy="33" r="0.4" fill="#bbbbbb"/><circle cx="37" cy="32.50757598876953" r="0.4" fill="#bbbbbb"/><circle cx="41" cy="33" r="0.4" fill="#bbbbbb"/><circle cx="37" cy="36.58221435546875" r="0.4" fill="#bbbbbb"/><circle cx="42" cy="29" r="0.4" fill="#bbbbbb"/><circle cx="37" cy="26.620149612426758" r="0.4" fill="#bbbbbb"/><circle cx="32" cy="29" r="0.4" fill="#bbbbbb"/><circle cx="35" cy="61" r="0.4" fill="#bbbbbb"/><circle cx="33.242637634277344" cy="56.757362365722656" r="0.4" fill="#bbbbbb"/><circle cx="40.757354736328125" cy="56.757354736328125" r="0.4" fill="#bbbbbb"/><circle cx="39" cy="61" r="0.4" fill="#bbbbbb"/><circle cx="45" cy="21" r="0.4" fill="#bbbbbb"/><circle cx="37.97507858276367" cy="22.65835952758789" r="0.4" fill="#bbbbbb"/><circle cx="45" cy="25" r="0.4" fill="#bbbbbb"/><circle cx="29" cy="25" r="0.4" fill="#bbbbbb"/><circle cx="36.02491760253906" cy="22.65835952758789" r="0.4" fill="#bbbbbb"/><circle cx="29" cy="21" r="0.4" fill="#bbbbbb"/><circle cx="37" cy="45.32455062866211" r="0.4" fill="#bbbbbb"/><circle cx="31" cy="41" r="0.4" fill="#bbbbbb"/><circle cx="43" cy="41" r="0.4" fill="#bbbbbb"/><circle cx="31" cy="17" r="0.4" fill="#bbbbbb"/><circle cx="36.60596466064453" cy="22.605968475341797" r="0.4" fill="#bbbbbb"/><circle cx="43" cy="17" r="0.4" fill="#bbbbbb"/><circle cx="37.39403533935547" cy="22.605968475341797" r="0.4" fill="#bbbbbb"/><circle cx="37" cy="46.88853454589844" r="0.4" fill="#bbbbbb"/><circle cx="37" cy="61" r="0.4" fill="#bbbbbb"/><circle cx="36.99999237060547" cy="53.00000762939453" r="0.4" fill="#bbbbbb"/><circle cx="36.999996185302734" cy="49.944271087646484" r="0.4" fill="#bbbbbb"/><circle cx="39" cy="15" r="0.4" fill="#bbbbbb"/><circle cx="37.19328689575195" cy="22.65335464477539" r="0.4" fill="#bbbbbb"/><circle cx="36.80671310424805" cy="22.65335464477539" r="0.4" fill="#bbbbbb"/><circle cx="35" cy="15" r="0.4" fill="#bbbbbb"/><circle cx="37" cy="22.75" r="0.4" fill="#bbbbbb"/><line x1="57.847068786621094" y1="60.00006866455078" x2="55.988372802734375" y2="47.988372802734375" stroke="#dd3333" stroke-width="0.75" stroke-linecap="round"/><line x1="55.917236328125" y1="47.917236328125" x2="55.988372802734375" y2="47.988372802734375" stroke="#dd3333" stroke-width="0.75" stroke-linecap="round"/><line x1="45" y1="89" x2="45" y2="76.58578491210938" stroke="#dd3333" stroke-width="0.75" stroke-linecap="round"/><line x1="45" y1="64.17156982421875" x2="45" y2="76.58578491210938" stroke="#dd3333" stroke-width="0.75" stroke-linecap="round"/><line x1="29" y1="64.17156982421875" x2="29" y2="76.58578491210938" stroke="#dd3333" stroke-width="0.75" stroke-linecap="round"/><line x1="29" y1="89" x2="29" y2="76.58578491210938" stroke="#dd3333" stroke-width="0.75" stroke-linecap="round"/><line x1="16.152931213378906" y1="60.00006866455078" x2="18.011627197265625" y2="47.988372802734375" stroke="#dd3333" stroke-width="0.75" stroke-linecap="round"/><line x1="18.082763671875" y1="47.917236328125" x2="18.011627197265625" y2="47.988372802734375" stroke="#dd3333" stroke-width="0.75" stroke-linecap="round"/><line x1="55.917236328125" y1="47.917236328125" x2="43.59840393066406" y2="46.89769744873047" stroke="#dd3333" stroke-width="0.75" stroke-linecap="round"/><line x1="18.082763671875" y1="47.917236328125" x2="30.401592254638672" y2="46.89769744873047" stroke="#dd3333" stroke-width="0.75" stroke-linecap="round"/><line x1="29" y1="64.17156982421875" x2="29.26390838623047" y2="63.53443908691406" stroke="#dd3333" stroke-width="0.75" stroke-linecap="round"/><line x1="45" y1="64.17156982421875" x2="44.73609161376953" y2="63.53443908691406" stroke="#dd3333" stroke-width="0.75" stroke-linecap="round"/><line x1="44.73609161376953" y1="63.53443908691406" x2="41.9814567565918" y2="59.71258544921875" stroke="#dd3333" stroke-width="0.75" stroke-linecap="round"/><line x1="29.26390838623047" y1="63.53443908691406" x2="32.01854705810547" y2="59.71258544921875" stroke="#dd3333" stroke-width="0.75" stroke-linecap="round"/><line x1="43.59840393066406" y1="46.89769744873047" x2="41.76392364501953" y2="45.76393508911133" stroke="#dd3333" stroke-width="0.75" stroke-linecap="round"/><line x1="30.401592254638672" y1="46.89769744873047" x2="32.2360725402832" y2="45.76393508911133" stroke="#dd3333" stroke-width="0.75" stroke-linecap="round"/><line x1="37" y1="32.50757598876953" x2="37" y2="36.58221435546875" stroke="#dd3333" stroke-width="0.75" stroke-linecap="round"/><line x1="37" y1="40.65685272216797" x2="37" y2="36.58221435546875" stroke="#dd3333" stroke-width="0.75" stroke-linecap="round"/><line x1="37" y1="32.50757598876953" x2="37" y2="26.620149612426758" stroke="#dd3333" stroke-width="0.75" stroke-linecap="round"/><line x1="32.01854705810547" y1="59.71258544921875" x2="33.242637634277344" y2="56.757362365722656" stroke="#dd3333" stroke-width="0.75" stroke-linecap="round"/><line x1="41.9814567565918" y1="59.71258544921875" x2="40.757354736328125" y2="56.757354736328125" stroke="#dd3333" stroke-width="0.75" stroke-linecap="round"/><line x1="37" y1="40.65685272216797" x2="37" y2="45.32455062866211" stroke="#dd3333" stroke-width="0.75" stroke-linecap="round"/><line x1="36.02491760253906" y1="22.65835952758789" x2="36.60596466064453" y2="22.605968475341797" stroke="#dd3333" stroke-width="0.75" stroke-linecap="round"/><line x1="37.97507858276367" y1="22.65835952758789" x2="37.39403533935547" y2="22.605968475341797" stroke="#dd3333" stroke-width="0.75" stroke-linecap="round"/><line x1="32.2360725402832" y1="45.76393508911133" x2="37" y2="46.88853454589844" stroke="#dd3333" stroke-width="0.75" stroke-linecap="round"/><line x1="41.76392364501953" y1="45.76393508911133" x2="37" y2="46.88853454589844" stroke="#dd3333" stroke-width="0.75" stroke-linecap="round"/><line x1="37" y1="45.32455062866211" x2="37" y2="46.88853454589844" stroke="#dd3333" stroke-width="0.75" stroke-linecap="round"/><line x1="40.757354736328125" y1="56.757354736328125" x2="36.99999237060547" y2="53.00000762939453" stroke="#dd3333" stroke-width="0.75" stroke-linecap="round"/><line x1="33.242637634277344" y1="56.757362365722656" x2="36.99999237060547" y2="53.00000762939453" stroke="#dd3333" stroke-width="0.75" stroke-linecap="round"/><line x1="36.99999237060547" y1="53.00000762939453" x2="36.999996185302734" y2="49.944271087646484" stroke="#dd3333" stroke-width="0.75" stroke-linecap="round"/><line x1="37" y1="46.88853454589844" x2="36.999996185302734" y2="49.944271087646484" stroke="#dd3333" stroke-width="0.75" stroke-linecap="round"/><line x1="37.39403533935547" y1="22.605968475341797" x2="37.19328689575195" y2="22.65335464477539" stroke="#dd3333" stroke-width="0.75" stroke-linecap="round"/><line x1="36.60596466064453" y1="22.605968475341797" x2="36.80671310424805" y2="22.65335464477539" stroke="#dd3333" stroke-width="0.75" stroke-linecap="round"/><line x1="37" y1="26.620149612426758" x2="37" y2="22.75" stroke="#dd3333" stroke-width="0.75" stroke-linecap="round"/><line x1="37.19328689575195" y1="22.65335464477539" x2="37" y2="22.75" stroke="#dd3333" stroke-width="0.75" stroke-linecap="round"/><line x1="36.80671310424805" y1="22.65335464477539" x2="37" y2="22.75" stroke="#dd3333" stroke-width="0.75" stroke-linecap="round"/><circle cx="59" cy="61" r="0" fill="#dd3333"/><circle cx="57.847068786621094" cy="60.00006866455078" r="0" fill="#dd3333"/><circle cx="57" cy="61" r="0" fill="#dd3333"/><circle cx="17" cy="61" r="0" fill="#dd3333"/><circle cx="16.152931213378906" cy="60.00006866455078" r="0" fill="#dd3333"/><circle cx="15" cy="61" r="0" fill="#dd3333"/><circle cx="19" cy="49" r="0" fill="#dd3333"/><circle cx="18.082763671875" cy="47.917236328125" r="0" fill="#dd3333"/><circle cx="55" cy="49" r="0" fill="#dd3333"/><circle cx="55.917236328125" cy="47.917236328125" r="0" fill="#dd3333"/><circle cx="55.988372802734375" cy="47.988372802734375" r="0" fill="#dd3333"/><circle cx="57" cy="47" r="0" fill="#dd3333"/><circle cx="31" cy="91" r="0" fill="#dd3333"/><circle cx="29" cy="89" r="0" fill="#dd3333"/><circle cx="27" cy="91" r="0" fill="#dd3333"/><circle cx="31" cy="65" r="0" fill="#dd3333"/><circle cx="29" cy="64.17156982421875" r="0" fill="#dd3333"/><circle cx="43" cy="65" r="0" fill="#dd3333"/><circle cx="45" cy="64.17156982421875" r="0" fill="#dd3333"/><circle cx="47" cy="91" r="0" fill="#dd3333"/><circle cx="45" cy="89" r="0" fill="#dd3333"/><circle cx="43" cy="91" r="0" fill="#dd3333"/><circle cx="45" cy="76.58578491210938" r="0" fill="#dd3333"/><circle cx="29" cy="76.58578491210938" r="0" fill="#dd3333"/><circle cx="17" cy="47" r="0" fill="#dd3333"/><circle cx="18.011627197265625" cy="47.988372802734375" r="0" fill="#dd3333"/><circle cx="45" cy="45" r="0" fill="#dd3333"/><circle cx="43.59840393066406" cy="46.89769744873047" r="0" fill="#dd3333"/><circle cx="30.401592254638672" cy="46.89769744873047" r="0" fill="#dd3333"/><circle cx="29" cy="45" r="0" fill="#dd3333"/><circle cx="29.26390838623047" cy="63.53443908691406" r="0" fill="#dd3333"/><circle cx="27" cy="63" r="0" fill="#dd3333"/><circle cx="47" cy="63" r="0" fill="#dd3333"/><circle cx="44.73609161376953" cy="63.53443908691406" r="0" fill="#dd3333"/><circle cx="45" cy="59" r="0" fill="#dd3333"/><circle cx="41.9814567565918" cy="59.71258544921875" r="0" fill="#dd3333"/><circle cx="32.01854705810547" cy="59.71258544921875" r="0" fill="#dd3333"/><circle cx="29" cy="59" r="0" fill="#dd3333"/><circle cx="41.76392364501953" cy="45.76393508911133" r="0" fill="#dd3333"/><circle cx="45" cy="49" r="0" fill="#dd3333"/><circle cx="29" cy="49" r="0" fill="#dd3333"/><circle cx="32.2360725402832" cy="45.76393508911133" r="0" fill="#dd3333"/><circle cx="33" cy="39" r="0" fill="#dd3333"/><circle cx="37" cy="40.65685272216797" r="0" fill="#dd3333"/><circle cx="41" cy="39" r="0" fill="#dd3333"/><circle cx="33" cy="33" r="0" fill="#dd3333"/><circle cx="37" cy="32.50757598876953" r="0" fill="#dd3333"/><circle cx="41" cy="33" r="0" fill="#dd3333"/><circle cx="37" cy="36.58221435546875" r="0" fill="#dd3333"/><circle cx="42" cy="29" r="0" fill="#dd3333"/><circle cx="37" cy="26.620149612426758" r="0" fill="#dd3333"/><circle cx="32" cy="29" r="0" fill="#dd3333"/><circle cx="35" cy="61" r="0" fill="#dd3333"/><circle cx="33.242637634277344" cy="56.757362365722656" r="0" fill="#dd3333"/><circle cx="40.757354736328125" cy="56.757354736328125" r="0" fill="#dd3333"/><circle cx="39" cy="61" r="0" fill="#dd3333"/><circle cx="45" cy="21" r="0" fill="#dd3333"/><circle cx="37.97507858276367" cy="22.65835952758789" r="0" fill="#dd3333"/><circle cx="45" cy="25" r="0" fill="#dd3333"/><circle cx="29" cy="25" r="0" fill="#dd3333"/><circle cx="36.02491760253906" cy="22.65835952758789" r="0" fill="#dd3333"/><circle cx="29" cy="21" r="0" fill="#dd3333"/><circle cx="37" cy="45.32455062866211" r="0" fill="#dd3333"/><circle cx="31" cy="41" r="0" fill="#dd3333"/><circle cx="43" cy="41" r="0" fill="#dd3333"/><circle cx="31" cy="17" r="0" fill="#dd3333"/><circle cx="36.60596466064453" cy="22.605968475341797" r="0" fill="#dd3333"/><circle cx="43" cy="17" r="0" fill="#dd3333"/><circle cx="37.39403533935547" cy="22.605968475341797" r="0" fill="#dd3333"/><circle cx="37" cy="46.88853454589844" r="0" fill="#dd3333"/><circle cx="37" cy="61" r="0" fill="#dd3333"/><circle cx="36.99999237060547" cy="53.00000762939453" r="0" fill="#dd3333"/><circle cx="36.999996185302734" cy="49.944271087646484" r="0" fill="#dd3333"/><circle cx="39" cy="15" r="0" fill="#dd3333"/><circle cx="37.19328689575195" cy="22.65335464477539" r="0" fill="#dd3333"/><circle cx="36.80671310424805" cy="22.65335464477539" r="0" fill="#dd3333"/><circle cx="35" cy="15" r="0" fill="#dd3333"/><circle cx="37" cy="22.75" r="0" fill="#dd3333"/></svg>