<svg xmlns="http://www.w3.org/2000/svg" width="1500.00" height="800.00" viewBox="-1.00 -1.00 152.00 82.00">
<style>text { font-family: sans-serif; font-size: 3px; fill: #333; }</style>
<rect x="-1" y="-1" width="152.00" height="82.00" fill="white"/>
<g transform="translate(0.00, 0)">
  <text x="25.00" y="45.00" text-anchor="middle">StraightSkeleton (4e, 5n)</text>
  <polygon points="15.00,15.00 35.00,15.00 35.00,25.00 15.00,25.00" fill="#f0f4ff" stroke="#4466aa" stroke-width="0.3"/>
  <line x1="15.00" y1="15.00" x2="25.00" y2="20.00" stroke="#dd3333" stroke-width="0.25" stroke-linecap="round"/>
  <line x1="35.00" y1="15.00" x2="25.00" y2="20.00" stroke="#dd3333" stroke-width="0.25" stroke-linecap="round"/>
  <line x1="35.00" y1="25.00" x2="25.00" y2="20.00" stroke="#dd3333" stroke-width="0.25" stroke-linecap="round"/>
  <line x1="15.00" y1="25.00" x2="25.00" y2="20.00" stroke="#dd3333" stroke-width="0.25" stroke-linecap="round"/>
  <circle cx="15.00" cy="15.00" r="0.4" fill="#dd3333"/>
  <circle cx="25.00" cy="20.00" r="0.4" fill="#dd3333"/>
  <circle cx="35.00" cy="15.00" r="0.4" fill="#dd3333"/>
  <circle cx="35.00" cy="25.00" r="0.4" fill="#dd3333"/>
  <circle cx="15.00" cy="25.00" r="0.4" fill="#dd3333"/>
  <circle cx="15.00" cy="15.00" r="0.35" fill="#4466aa"/>
  <circle cx="35.00" cy="15.00" r="0.35" fill="#4466aa"/>
  <circle cx="35.00" cy="25.00" r="0.35" fill="#4466aa"/>
  <circle cx="15.00" cy="25.00" r="0.35" fill="#4466aa"/>
</g>
<g transform="translate(50.00, 0)">
  <text x="25.00" y="45.00" text-anchor="middle">ChordalAxis (2e, 3n)</text>
  <polygon points="15.00,15.00 35.00,15.00 35.00,25.00 15.00,25.00" fill="#f0f4ff" stroke="#4466aa" stroke-width="0.3"/>
  <line x1="25.00" y1="20.00" x2="35.00" y2="15.00" stroke="#dd3333" stroke-width="0.25" stroke-linecap="round"/>
  <line x1="25.00" y1="20.00" x2="15.00" y2="25.00" stroke="#dd3333" stroke-width="0.25" stroke-linecap="round"/>
  <circle cx="25.00" cy="20.00" r="0.4" fill="#dd3333"/>
  <circle cx="35.00" cy="15.00" r="0.4" fill="#dd3333"/>
  <circle cx="15.00" cy="25.00" r="0.4" fill="#dd3333"/>
  <circle cx="15.00" cy="15.00" r="0.35" fill="#4466aa"/>
  <circle cx="35.00" cy="15.00" r="0.35" fill="#4466aa"/>
  <circle cx="35.00" cy="25.00" r="0.35" fill="#4466aa"/>
  <circle cx="15.00" cy="25.00" r="0.35" fill="#4466aa"/>
</g>
<g transform="translate(100.00, 0)">
  <text x="25.00" y="45.00" text-anchor="middle">Voronoi (37e, 38n)</text>
  <polygon points="15.00,15.00 35.00,15.00 35.00,25.00 15.00,25.00" fill="#f0f4ff" stroke="#4466aa" stroke-width="0.3"/>
  <line x1="34.23" y1="15.71" x2="32.90" y2="17.14" stroke="#dd3333" stroke-width="0.25" stroke-linecap="round"/>
  <line x1="32.69" y1="17.26" x2="32.90" y2="17.14" stroke="#dd3333" stroke-width="0.25" stroke-linecap="round"/>
  <line x1="32.69" y1="17.26" x2="31.47" y2="18.57" stroke="#dd3333" stroke-width="0.25" stroke-linecap="round"/>
  <line x1="31.15" y1="18.80" x2="31.47" y2="18.57" stroke="#dd3333" stroke-width="0.25" stroke-linecap="round"/>
  <line x1="32.90" y1="22.86" x2="34.23" y2="24.29" stroke="#dd3333" stroke-width="0.25" stroke-linecap="round"/>
  <line x1="32.90" y1="22.86" x2="32.69" y2="22.74" stroke="#dd3333" stroke-width="0.25" stroke-linecap="round"/>
  <line x1="31.47" y1="21.43" x2="32.69" y2="22.74" stroke="#dd3333" stroke-width="0.25" stroke-linecap="round"/>
  <line x1="31.15" y1="18.80" x2="30.04" y2="20.00" stroke="#dd3333" stroke-width="0.25" stroke-linecap="round"/>
  <line x1="30.04" y1="20.00" x2="30.04" y2="20.00" stroke="#dd3333" stroke-width="0.25" stroke-linecap="round"/>
  <line x1="30.04" y1="20.00" x2="29.62" y2="20.00" stroke="#dd3333" stroke-width="0.25" stroke-linecap="round"/>
  <line x1="31.47" y1="21.43" x2="31.15" y2="21.20" stroke="#dd3333" stroke-width="0.25" stroke-linecap="round"/>
  <line x1="30.04" y1="20.00" x2="31.15" y2="21.20" stroke="#dd3333" stroke-width="0.25" stroke-linecap="round"/>
  <line x1="29.62" y1="20.00" x2="29.62" y2="20.00" stroke="#dd3333" stroke-width="0.25" stroke-linecap="round"/>
  <line x1="28.08" y1="20.00" x2="29.62" y2="20.00" stroke="#dd3333" stroke-width="0.25" stroke-linecap="round"/>
  <line x1="28.08" y1="20.00" x2="28.08" y2="20.00" stroke="#dd3333" stroke-width="0.25" stroke-linecap="round"/>
  <line x1="26.54" y1="20.00" x2="28.08" y2="20.00" stroke="#dd3333" stroke-width="0.25" stroke-linecap="round"/>
  <line x1="26.54" y1="20.00" x2="26.54" y2="20.00" stroke="#dd3333" stroke-width="0.25" stroke-linecap="round"/>
  <line x1="25.00" y1="20.00" x2="26.54" y2="20.00" stroke="#dd3333" stroke-width="0.25" stroke-linecap="round"/>
  <line x1="25.00" y1="20.00" x2="25.00" y2="20.00" stroke="#dd3333" stroke-width="0.25" stroke-linecap="round"/>
  <line x1="23.46" y1="20.00" x2="25.00" y2="20.00" stroke="#dd3333" stroke-width="0.25" stroke-linecap="round"/>
  <line x1="23.46" y1="20.00" x2="23.46" y2="20.00" stroke="#dd3333" stroke-width="0.25" stroke-linecap="round"/>
  <line x1="21.92" y1="20.00" x2="23.46" y2="20.00" stroke="#dd3333" stroke-width="0.25" stroke-linecap="round"/>
  <line x1="21.92" y1="20.00" x2="21.92" y2="20.00" stroke="#dd3333" stroke-width="0.25" stroke-linecap="round"/>
  <line x1="20.38" y1="20.00" x2="21.92" y2="20.00" stroke="#dd3333" stroke-width="0.25" stroke-linecap="round"/>
  <line x1="20.38" y1="20.00" x2="20.38" y2="20.00" stroke="#dd3333" stroke-width="0.25" stroke-linecap="round"/>
  <line x1="15.77" y1="24.29" x2="17.10" y2="22.86" stroke="#dd3333" stroke-width="0.25" stroke-linecap="round"/>
  <line x1="17.31" y1="22.74" x2="17.10" y2="22.86" stroke="#dd3333" stroke-width="0.25" stroke-linecap="round"/>
  <line x1="20.38" y1="20.00" x2="19.96" y2="20.00" stroke="#dd3333" stroke-width="0.25" stroke-linecap="round"/>
  <line x1="19.96" y1="20.00" x2="18.85" y2="21.20" stroke="#dd3333" stroke-width="0.25" stroke-linecap="round"/>
  <line x1="17.31" y1="22.74" x2="18.53" y2="21.43" stroke="#dd3333" stroke-width="0.25" stroke-linecap="round"/>
  <line x1="18.85" y1="21.20" x2="18.53" y2="21.43" stroke="#dd3333" stroke-width="0.25" stroke-linecap="round"/>
  <line x1="19.96" y1="20.00" x2="19.96" y2="20.00" stroke="#dd3333" stroke-width="0.25" stroke-linecap="round"/>
  <line x1="18.85" y1="18.80" x2="19.96" y2="20.00" stroke="#dd3333" stroke-width="0.25" stroke-linecap="round"/>
  <line x1="18.85" y1="18.80" x2="18.53" y2="18.57" stroke="#dd3333" stroke-width="0.25" stroke-linecap="round"/>
  <line x1="17.31" y1="17.26" x2="18.53" y2="18.57" stroke="#dd3333" stroke-width="0.25" stroke-linecap="round"/>
  <line x1="17.31" y1="17.26" x2="17.10" y2="17.14" stroke="#dd3333" stroke-width="0.25" stroke-linecap="round"/>
  <line x1="15.77" y1="15.71" x2="17.10" y2="17.14" stroke="#dd3333" stroke-width="0.25" stroke-linecap="round"/>
  <circle cx="34.23" cy="15.71" r="0.4" fill="#dd3333"/>
  <circle cx="32.90" cy="17.14" r="0.4" fill="#dd3333"/>
  <circle cx="32.69" cy="17.26" r="0.4" fill="#dd3333"/>
  <circle cx="31.47" cy="18.57" r="0.4" fill="#dd3333"/>
  <circle cx="31.15" cy="18.80" r="0.4" fill="#dd3333"/>
  <circle cx="32.90" cy="22.86" r="0.4" fill="#dd3333"/>
  <circle cx="34.23" cy="24.29" r="0.4" fill="#dd3333"/>
  <circle cx="32.69" cy="22.74" r="0.4" fill="#dd3333"/>
  <circle cx="31.47" cy="21.43" r="0.4" fill="#dd3333"/>
  <circle cx="30.04" cy="20.00" r="0.4" fill="#dd3333"/>
  <circle cx="30.04" cy="20.00" r="0.4" fill="#dd3333"/>
  <circle cx="29.62" cy="20.00" r="0.4" fill="#dd3333"/>
  <circle cx="31.15" cy="21.20" r="0.4" fill="#dd3333"/>
  <circle cx="29.62" cy="20.00" r="0.4" fill="#dd3333"/>
  <circle cx="28.08" cy="20.00" r="0.4" fill="#dd3333"/>
  <circle cx="28.08" cy="20.00" r="0.4" fill="#dd3333"/>
  <circle cx="26.54" cy="20.00" r="0.4" fill="#dd3333"/>
  <circle cx="26.54" cy="20.00" r="0.4" fill="#dd3333"/>
  <circle cx="25.00" cy="20.00" r="0.4" fill="#dd3333"/>
  <circle cx="25.00" cy="20.00" r="0.4" fill="#dd3333"/>
  <circle cx="23.46" cy="20.00" r="0.4" fill="#dd3333"/>
  <circle cx="23.46" cy="20.00" r="0.4" fill="#dd3333"/>
  <circle cx="21.92" cy="20.00" r="0.4" fill="#dd3333"/>
  <circle cx="21.92" cy="20.00" r="0.4" fill="#dd3333"/>
  <circle cx="20.38" cy="20.00" r="0.4" fill="#dd3333"/>
  <circle cx="20.38" cy="20.00" r="0.4" fill="#dd3333"/>
  <circle cx="15.77" cy="24.29" r="0.4" fill="#dd3333"/>
  <circle cx="17.10" cy="22.86" r="0.4" fill="#dd3333"/>
  <circle cx="17.31" cy="22.74" r="0.4" fill="#dd3333"/>
  <circle cx="19.96" cy="20.00" r="0.4" fill="#dd3333"/>
  <circle cx="18.85" cy="21.20" r="0.4" fill="#dd3333"/>
  <circle cx="18.53" cy="21.43" r="0.4" fill="#dd3333"/>
  <circle cx="19.96" cy="20.00" r="0.4" fill="#dd3333"/>
  <circle cx="18.85" cy="18.80" r="0.4" fill="#dd3333"/>
  <circle cx="18.53" cy="18.57" r="0.4" fill="#dd3333"/>
  <circle cx="17.31" cy="17.26" r="0.4" fill="#dd3333"/>
  <circle cx="17.10" cy="17.14" r="0.4" fill="#dd3333"/>
  <circle cx="15.77" cy="15.71" r="0.4" fill="#dd3333"/>
  <circle cx="15.00" cy="15.00" r="0.35" fill="#4466aa"/>
  <circle cx="35.00" cy="15.00" r="0.35" fill="#4466aa"/>
  <circle cx="35.00" cy="25.00" r="0.35" fill="#4466aa"/>
  <circle cx="15.00" cy="25.00" r="0.35" fill="#4466aa"/>
</g>
</svg>
