<svg xmlns="http://www.w3.org/2000/svg" width="50" height="40" viewBox="0 0 50 40"><path fill="#e8edff" stroke="#4466aa" stroke-width="0.3" d="M15,15 L35,15 L35,25 L15,25 Z"/><line x1="27.857147216796875" y1="20.000001907348633" x2="30.198413848876953" y2="20" stroke="#dd3333" stroke-width="0.25" stroke-linecap="round"/><line x1="27.857147216796875" y1="20.000001907348633" x2="27.85714340209961" y2="20" stroke="#dd3333" stroke-width="0.25" stroke-linecap="round"/><line x1="24.999996185302734" y1="20" x2="27.85714340209961" y2="20" stroke="#dd3333" stroke-width="0.25" stroke-linecap="round"/><line x1="24.999996185302734" y1="20" x2="24.999998092651367" y2="20" stroke="#dd3333" stroke-width="0.25" stroke-linecap="round"/><line x1="22.142858505249023" y1="20.000001907348633" x2="24.999998092651367" y2="20" stroke="#dd3333" stroke-width="0.25" stroke-linecap="round"/><line x1="22.142858505249023" y1="20.000001907348633" x2="22.142858505249023" y2="20" stroke="#dd3333" stroke-width="0.25" stroke-linecap="round"/><line x1="22.142858505249023" y1="20" x2="19.80158805847168" y2="20" stroke="#dd3333" stroke-width="0.25" stroke-linecap="round"/><line x1="19.80158805847168" y1="20" x2="19.28571319580078" y2="20.884353637695312" stroke="#dd3333" stroke-width="0.25" stroke-linecap="round"/><line x1="19.28571319580078" y1="20.884353637695312" x2="16.428571701049805" y2="23.33333396911621" stroke="#dd3333" stroke-width="0.25" stroke-linecap="round"/><circle cx="27.857147216796875" cy="20.000001907348633" r="0.4" fill="#dd3333"/><circle cx="30.198413848876953" cy="20" r="0.4" fill="#dd3333"/><circle cx="27.85714340209961" cy="20" r="0.4" fill="#dd3333"/><circle cx="24.999996185302734" cy="20" r="0.4" fill="#dd3333"/><circle cx="24.999998092651367" cy="20" r="0.4" fill="#dd3333"/><circle cx="22.142858505249023" cy="20.000001907348633" r="0.4" fill="#dd3333"/><circle cx="22.142858505249023" cy="20" r="0.4" fill="#dd3333"/><circle cx="19.80158805847168" cy="20" r="0.4" fill="#dd3333"/><circle cx="19.28571319580078" cy="20.884353637695312" r="0.4" fill="#dd3333"/><circle cx="16.428571701049805" cy="23.33333396911621" r="0.4" fill="#dd3333"/></svg>