<svg xmlns="http://www.w3.org/2000/svg" width="40" height="40" viewBox="0 0 40 40"><path fill="#e8edff" stroke="#4466aa" stroke-width="0.3" d="M15,15 L25,15 L25,25 L15,25 Z"/><line x1="24" y1="16" x2="22" y2="18" stroke="#bbbbbb" stroke-width="0.25" stroke-linecap="round"/><line x1="24" y1="24" x2="22" y2="22" stroke="#bbbbbb" stroke-width="0.25" stroke-linecap="round"/><line x1="16" y1="24" x2="18" y2="22" stroke="#bbbbbb" stroke-width="0.25" stroke-linecap="round"/><line x1="22" y1="18" x2="20" y2="20" stroke="#bbbbbb" stroke-width="0.25" stroke-linecap="round"/><line x1="22" y1="22" x2="20" y2="20" stroke="#bbbbbb" stroke-width="0.25" stroke-linecap="round"/><line x1="18" y1="22" x2="20" y2="20" stroke="#bbbbbb" stroke-width="0.25" stroke-linecap="round"/><line x1="20" y1="20" x2="18" y2="18" stroke="#bbbbbb" stroke-width="0.25" stroke-linecap="round"/><line x1="18" y1="18" x2="16" y2="16" stroke="#bbbbbb" stroke-width="0.25" stroke-linecap="round"/><circle cx="24" cy="16" r="0.4" fill="#bbbbbb"/><circle cx="22" cy="18" r="0.4" fill="#bbbbbb"/><circle cx="24" cy="24" r="0.4" fill="#bbbbbb"/><circle cx="22" cy="22" r="0.4" fill="#bbbbbb"/><circle cx="16" cy="24" r="0.4" fill="#bbbbbb"/><circle cx="18" cy="22" r="0.4" fill="#bbbbbb"/><circle cx="20" cy="20" r="0.4" fill="#bbbbbb"/><circle cx="18" cy="18" r="0.4" fill="#bbbbbb"/><circle cx="16" cy="16" r="0.4" fill="#bbbbbb"/><circle cx="24" cy="16" r="0" fill="#dd3333"/><circle cx="22" cy="18" r="0" fill="#dd3333"/><circle cx="24" cy="24" r="0" fill="#dd3333"/><circle cx="22" cy="22" r="0" fill="#dd3333"/><circle cx="16" cy="24" r="0" fill="#dd3333"/><circle cx="18" cy="22" r="0" fill="#dd3333"/><circle cx="20" cy="20" r="0" fill="#dd3333"/><circle cx="18" cy="18" r="0" fill="#dd3333"/><circle cx="16" cy="16" r="0" fill="#dd3333"/></svg>