<svg xmlns="http://www.w3.org/2000/svg" width="49" height="48" viewBox="0 0 49 48"><path fill="#e8edff" stroke="#4466aa" stroke-width="0.3" d="M24.51056480407715,15 L26.861705780029297,21.763931274414062 L34.0211296081543,21.90983009338379 L28.314790725708008,26.236068725585938 L30.388416290283203,33.090171813964844 L24.51056480407715,29 L18.632713317871094,33.090171813964844 L20.70633888244629,26.236068725585938 L15,21.90983009338379 L22.159423828125,21.763931274414062 Z"/><line x1="15" y1="21.90983009338379" x2="24.510562896728516" y2="24.999996185302734" stroke="#bbbbbb" stroke-width="0.25" stroke-linecap="round"/><line x1="20.70633888244629" y1="26.236068725585938" x2="24.510562896728516" y2="24.999996185302734" stroke="#bbbbbb" stroke-width="0.25" stroke-linecap="round"/><line x1="18.632713317871094" y1="33.090171813964844" x2="24.510562896728516" y2="24.999996185302734" stroke="#bbbbbb" stroke-width="0.25" stroke-linecap="round"/><line x1="24.51056480407715" y1="29" x2="24.510562896728516" y2="24.999996185302734" stroke="#bbbbbb" stroke-width="0.25" stroke-linecap="round"/><line x1="30.388416290283203" y1="33.090171813964844" x2="24.510562896728516" y2="24.999996185302734" stroke="#bbbbbb" stroke-width="0.25" stroke-linecap="round"/><line x1="28.314790725708008" y1="26.236068725585938" x2="24.510562896728516" y2="24.999996185302734" stroke="#bbbbbb" stroke-width="0.25" stroke-linecap="round"/><line x1="34.0211296081543" y1="21.90983009338379" x2="24.510562896728516" y2="24.999996185302734" stroke="#bbbbbb" stroke-width="0.25" stroke-linecap="round"/><line x1="26.861705780029297" y1="21.763931274414062" x2="24.510562896728516" y2="24.999996185302734" stroke="#bbbbbb" stroke-width="0.25" stroke-linecap="round"/><line x1="24.51056480407715" y1="15" x2="24.510562896728516" y2="24.999996185302734" stroke="#bbbbbb" stroke-width="0.25" stroke-linecap="round"/><line x1="22.159423828125" y1="21.763931274414062" x2="24.510562896728516" y2="24.999996185302734" stroke="#bbbbbb" stroke-width="0.25" stroke-linecap="round"/><circle cx="15" cy="21.90983009338379" r="0.4" fill="#bbbbbb"/><circle cx="24.510562896728516" cy="24.999996185302734" r="0.4" fill="#bbbbbb"/><circle cx="20.70633888244629" cy="26.236068725585938" r="0.4" fill="#bbbbbb"/><circle cx="18.632713317871094" cy="33.090171813964844" r="0.4" fill="#bbbbbb"/><circle cx="24.51056480407715" cy="29" r="0.4" fill="#bbbbbb"/><circle cx="30.388416290283203" cy="33.090171813964844" r="0.4" fill="#bbbbbb"/><circle cx="28.314790725708008" cy="26.236068725585938" r="0.4" fill="#bbbbbb"/><circle cx="34.0211296081543" cy="21.90983009338379" r="0.4" fill="#bbbbbb"/><circle cx="26.861705780029297" cy="21.763931274414062" r="0.4" fill="#bbbbbb"/><circle cx="24.51056480407715" cy="15" r="0.4" fill="#bbbbbb"/><circle cx="22.159423828125" cy="21.763931274414062" r="0.4" fill="#bbbbbb"/><circle cx="15" cy="21.90983009338379" r="0" fill="#dd3333"/><circle cx="24.510562896728516" cy="24.999996185302734" r="0" fill="#dd3333"/><circle cx="20.70633888244629" cy="26.236068725585938" r="0" fill="#dd3333"/><circle cx="18.632713317871094" cy="33.090171813964844" r="0" fill="#dd3333"/><circle cx="24.51056480407715" cy="29" r="0" fill="#dd3333"/><circle cx="30.388416290283203" cy="33.090171813964844" r="0" fill="#dd3333"/><circle cx="28.314790725708008" cy="26.236068725585938" r="0" fill="#dd3333"/><circle cx="34.0211296081543" cy="21.90983009338379" r="0" fill="#dd3333"/><circle cx="26.861705780029297" cy="21.763931274414062" r="0" fill="#dd3333"/><circle cx="24.51056480407715" cy="15" r="0" fill="#dd3333"/><circle cx="22.159423828125" cy="21.763931274414062" r="0" fill="#dd3333"/></svg>