<svg xmlns="http://www.w3.org/2000/svg" width="49" height="48" viewBox="0 0 49 48"><path fill="#e8edff" stroke="#4466aa" stroke-width="0.3" d="M24.51056480407715,15 L26.861705780029297,21.763931274414062 L34.0211296081543,21.90983009338379 L28.314790725708008,26.236068725585938 L30.388416290283203,33.090171813964844 L24.51056480407715,29 L18.632713317871094,33.090171813964844 L20.70633888244629,26.236068725585938 L15,21.90983009338379 L22.159423828125,21.763931274414062 Z"/><line x1="31.85808753967285" y1="22.61264991760254" x2="33.300113677978516" y2="22.14410400390625" stroke="#dd3333" stroke-width="0.25" stroke-linecap="round"/><line x1="31.85808753967285" y1="22.61264991760254" x2="31.85808753967285" y2="22.612646102905273" stroke="#dd3333" stroke-width="0.25" stroke-linecap="round"/><line x1="28.97403335571289" y1="23.54973030090332" x2="30.416059494018555" y2="23.081188201904297" stroke="#dd3333" stroke-width="0.25" stroke-linecap="round"/><line x1="31.85808753967285" y1="22.612646102905273" x2="30.416065216064453" y2="23.081188201904297" stroke="#dd3333" stroke-width="0.25" stroke-linecap="round"/><line x1="30.416059494018555" y1="23.081188201904297" x2="30.416065216064453" y2="23.081188201904297" stroke="#dd3333" stroke-width="0.25" stroke-linecap="round"/><line x1="28.97403335571289" y1="23.54973030090332" x2="28.974031448364258" y2="23.549732208251953" stroke="#dd3333" stroke-width="0.25" stroke-linecap="round"/><line x1="27.532005310058594" y1="24.018274307250977" x2="28.974031448364258" y2="23.549732208251953" stroke="#dd3333" stroke-width="0.25" stroke-linecap="round"/><line x1="29.05158805847168" y1="31.250179290771484" x2="29.942806243896484" y2="32.476837158203125" stroke="#dd3333" stroke-width="0.25" stroke-linecap="round"/><line x1="29.05158805847168" y1="31.250179290771484" x2="29.051584243774414" y2="31.25017738342285" stroke="#dd3333" stroke-width="0.25" stroke-linecap="round"/><line x1="28.160364151000977" y1="30.023515701293945" x2="29.051584243774414" y2="31.25017738342285" stroke="#dd3333" stroke-width="0.25" stroke-linecap="round"/><line x1="28.160364151000977" y1="30.023515701293945" x2="28.160362243652344" y2="30.023517608642578" stroke="#dd3333" stroke-width="0.25" stroke-linecap="round"/><line x1="27.269140243530273" y1="28.796852111816406" x2="28.160362243652344" y2="30.023517608642578" stroke="#dd3333" stroke-width="0.25" stroke-linecap="round"/><line x1="27.269140243530273" y1="28.796852111816406" x2="27.26913833618164" y2="28.796852111816406" stroke="#dd3333" stroke-width="0.25" stroke-linecap="round"/><line x1="27.26913833618164" y1="28.796852111816406" x2="26.377918243408203" y2="27.570192337036133" stroke="#dd3333" stroke-width="0.25" stroke-linecap="round"/><line x1="26.377918243408203" y1="27.5701904296875" x2="26.377918243408203" y2="27.570192337036133" stroke="#dd3333" stroke-width="0.25" stroke-linecap="round"/><line x1="21.751989364624023" y1="28.796852111816406" x2="20.860767364501953" y2="30.023513793945312" stroke="#dd3333" stroke-width="0.25" stroke-linecap="round"/><line x1="21.751989364624023" y1="28.796852111816406" x2="21.751989364624023" y2="28.79685401916504" stroke="#dd3333" stroke-width="0.25" stroke-linecap="round"/><line x1="22.643211364746094" y1="27.570192337036133" x2="21.751989364624023" y2="28.79685401916504" stroke="#dd3333" stroke-width="0.25" stroke-linecap="round"/><line x1="22.643211364746094" y1="27.570192337036133" x2="22.643211364746094" y2="27.5701904296875" stroke="#dd3333" stroke-width="0.25" stroke-linecap="round"/><line x1="17.16303062438965" y1="22.612648010253906" x2="15.721013069152832" y2="22.14410400390625" stroke="#dd3333" stroke-width="0.25" stroke-linecap="round"/><line x1="17.16303062438965" y1="22.612648010253906" x2="17.163040161132812" y2="22.612646102905273" stroke="#dd3333" stroke-width="0.25" stroke-linecap="round"/><line x1="18.605066299438477" y1="23.081188201904297" x2="17.163040161132812" y2="22.612646102905273" stroke="#dd3333" stroke-width="0.25" stroke-linecap="round"/><line x1="18.605066299438477" y1="23.081188201904297" x2="18.605072021484375" y2="23.081188201904297" stroke="#dd3333" stroke-width="0.25" stroke-linecap="round"/><line x1="20.04709815979004" y1="23.549732208251953" x2="18.605072021484375" y2="23.081188201904297" stroke="#dd3333" stroke-width="0.25" stroke-linecap="round"/><line x1="20.04709815979004" y1="23.549732208251953" x2="20.047096252441406" y2="23.549732208251953" stroke="#dd3333" stroke-width="0.25" stroke-linecap="round"/><line x1="21.489124298095703" y1="24.018274307250977" x2="20.047096252441406" y2="23.549732208251953" stroke="#dd3333" stroke-width="0.25" stroke-linecap="round"/><line x1="27.532005310058594" y1="24.018274307250977" x2="24.51056480407715" y2="25" stroke="#dd3333" stroke-width="0.25" stroke-linecap="round"/><line x1="26.377918243408203" y1="27.5701904296875" x2="24.51056480407715" y2="25" stroke="#dd3333" stroke-width="0.25" stroke-linecap="round"/><line x1="22.643211364746094" y1="27.5701904296875" x2="24.51056480407715" y2="25" stroke="#dd3333" stroke-width="0.25" stroke-linecap="round"/><line x1="24.51056480407715" y1="25" x2="21.489124298095703" y2="24.018274307250977" stroke="#dd3333" stroke-width="0.25" stroke-linecap="round"/><line x1="24.51056480407715" y1="25" x2="24.51056480407715" y2="21.823068618774414" stroke="#dd3333" stroke-width="0.25" stroke-linecap="round"/><line x1="24.51056480407715" y1="18.79059410095215" x2="24.510562896728516" y2="20.30683135986328" stroke="#dd3333" stroke-width="0.25" stroke-linecap="round"/><line x1="24.51056480407715" y1="18.79059410095215" x2="24.510562896728516" y2="18.79059600830078" stroke="#dd3333" stroke-width="0.25" stroke-linecap="round"/><line x1="24.51056480407715" y1="17.27435874938965" x2="24.510562896728516" y2="18.79059600830078" stroke="#dd3333" stroke-width="0.25" stroke-linecap="round"/><line x1="24.51056480407715" y1="17.27435874938965" x2="24.51056480407715" y2="17.274354934692383" stroke="#dd3333" stroke-width="0.25" stroke-linecap="round"/><line x1="24.51056480407715" y1="15.75811767578125" x2="24.51056480407715" y2="17.274354934692383" stroke="#dd3333" stroke-width="0.25" stroke-linecap="round"/><circle cx="31.85808753967285" cy="22.61264991760254" r="0.4" fill="#dd3333"/><circle cx="33.300113677978516" cy="22.14410400390625" r="0.4" fill="#dd3333"/><circle cx="31.85808753967285" cy="22.612646102905273" r="0.4" fill="#dd3333"/><circle cx="28.97403335571289" cy="23.54973030090332" r="0.4" fill="#dd3333"/><circle cx="30.416059494018555" cy="23.081188201904297" r="0.4" fill="#dd3333"/><circle cx="30.416065216064453" cy="23.081188201904297" r="0.4" fill="#dd3333"/><circle cx="28.974031448364258" cy="23.549732208251953" r="0.4" fill="#dd3333"/><circle cx="27.532005310058594" cy="24.018274307250977" r="0.4" fill="#dd3333"/><circle cx="29.05158805847168" cy="31.250179290771484" r="0.4" fill="#dd3333"/><circle cx="29.942806243896484" cy="32.476837158203125" r="0.4" fill="#dd3333"/><circle cx="29.051584243774414" cy="31.25017738342285" r="0.4" fill="#dd3333"/><circle cx="28.160364151000977" cy="30.023515701293945" r="0.4" fill="#dd3333"/><circle cx="28.160362243652344" cy="30.023517608642578" r="0.4" fill="#dd3333"/><circle cx="27.269140243530273" cy="28.796852111816406" r="0.4" fill="#dd3333"/><circle cx="27.26913833618164" cy="28.796852111816406" r="0.4" fill="#dd3333"/><circle cx="26.377918243408203" cy="27.570192337036133" r="0.4" fill="#dd3333"/><circle cx="26.377918243408203" cy="27.5701904296875" r="0.4" fill="#dd3333"/><circle cx="21.751989364624023" cy="28.796852111816406" r="0.4" fill="#dd3333"/><circle cx="20.860767364501953" cy="30.023513793945312" r="0.4" fill="#dd3333"/><circle cx="21.751989364624023" cy="28.79685401916504" r="0.4" fill="#dd3333"/><circle cx="22.643211364746094" cy="27.570192337036133" r="0.4" fill="#dd3333"/><circle cx="22.643211364746094" cy="27.5701904296875" r="0.4" fill="#dd3333"/><circle cx="17.16303062438965" cy="22.612648010253906" r="0.4" fill="#dd3333"/><circle cx="15.721013069152832" cy="22.14410400390625" r="0.4" fill="#dd3333"/><circle cx="17.163040161132812" cy="22.612646102905273" r="0.4" fill="#dd3333"/><circle cx="18.605066299438477" cy="23.081188201904297" r="0.4" fill="#dd3333"/><circle cx="18.605072021484375" cy="23.081188201904297" r="0.4" fill="#dd3333"/><circle cx="20.04709815979004" cy="23.549732208251953" r="0.4" fill="#dd3333"/><circle cx="20.047096252441406" cy="23.549732208251953" r="0.4" fill="#dd3333"/><circle cx="21.489124298095703" cy="24.018274307250977" r="0.4" fill="#dd3333"/><circle cx="27.532005310058594" cy="24.018274307250977" r="0.4" fill="#dd3333"/><circle cx="24.51056480407715" cy="25" r="0.4" fill="#dd3333"/><circle cx="24.51056480407715" cy="25" r="0.4" fill="#dd3333"/><circle cx="24.51056480407715" cy="25" r="0.4" fill="#dd3333"/><circle cx="21.489124298095703" cy="24.018274307250977" r="0.4" fill="#dd3333"/><circle cx="24.51056480407715" cy="21.823068618774414" r="0.4" fill="#dd3333"/><circle cx="24.51056480407715" cy="18.79059410095215" r="0.4" fill="#dd3333"/><circle cx="24.510562896728516" cy="20.30683135986328" r="0.4" fill="#dd3333"/><circle cx="24.510562896728516" cy="18.79059600830078" r="0.4" fill="#dd3333"/><circle cx="24.51056480407715" cy="17.27435874938965" r="0.4" fill="#dd3333"/><circle cx="24.51056480407715" cy="17.274354934692383" r="0.4" fill="#dd3333"/><circle cx="24.51056480407715" cy="15.75811767578125" r="0.4" fill="#dd3333"/></svg>