<svg xmlns="http://www.w3.org/2000/svg" width="1470.63" height="880.90" viewBox="-1.00 -1.00 149.06 90.09">
<style>text { font-family: sans-serif; font-size: 3px; fill: #333; }</style>
<rect x="-1" y="-1" width="149.06" height="90.09" fill="white"/>
<g transform="translate(0.00, 0)">
  <text x="24.51" y="53.09" text-anchor="middle">StraightSkeleton (10e, 11n)</text>
  <polygon points="24.51,15.00 26.86,21.76 34.02,21.91 28.31,26.24 30.39,33.09 24.51,29.00 18.63,33.09 20.71,26.24 15.00,21.91 22.16,21.76" fill="#f0f4ff" stroke="#4466aa" stroke-width="0.3"/>
  <line x1="24.51" y1="15.00" x2="24.51" y2="25.00" stroke="#dd3333" stroke-width="0.25" stroke-linecap="round"/>
  <line x1="26.86" y1="21.76" x2="24.51" y2="25.00" stroke="#dd3333" stroke-width="0.25" stroke-linecap="round"/>
  <line x1="34.02" y1="21.91" x2="24.51" y2="25.00" stroke="#dd3333" stroke-width="0.25" stroke-linecap="round"/>
  <line x1="28.31" y1="26.24" x2="24.51" y2="25.00" stroke="#dd3333" stroke-width="0.25" stroke-linecap="round"/>
  <line x1="30.39" y1="33.09" x2="24.51" y2="25.00" stroke="#dd3333" stroke-width="0.25" stroke-linecap="round"/>
  <line x1="24.51" y1="29.00" x2="24.51" y2="25.00" stroke="#dd3333" stroke-width="0.25" stroke-linecap="round"/>
  <line x1="18.63" y1="33.09" x2="24.51" y2="25.00" stroke="#dd3333" stroke-width="0.25" stroke-linecap="round"/>
  <line x1="20.71" y1="26.24" x2="24.51" y2="25.00" stroke="#dd3333" stroke-width="0.25" stroke-linecap="round"/>
  <line x1="15.00" y1="21.91" x2="24.51" y2="25.00" stroke="#dd3333" stroke-width="0.25" stroke-linecap="round"/>
  <line x1="22.16" y1="21.76" x2="24.51" y2="25.00" stroke="#dd3333" stroke-width="0.25" stroke-linecap="round"/>
  <circle cx="24.51" cy="15.00" r="0.4" fill="#dd3333"/>
  <circle cx="24.51" cy="25.00" r="0.4" fill="#dd3333"/>
  <circle cx="26.86" cy="21.76" r="0.4" fill="#dd3333"/>
  <circle cx="34.02" cy="21.91" r="0.4" fill="#dd3333"/>
  <circle cx="28.31" cy="26.24" r="0.4" fill="#dd3333"/>
  <circle cx="30.39" cy="33.09" r="0.4" fill="#dd3333"/>
  <circle cx="24.51" cy="29.00" r="0.4" fill="#dd3333"/>
  <circle cx="18.63" cy="33.09" r="0.4" fill="#dd3333"/>
  <circle cx="20.71" cy="26.24" r="0.4" fill="#dd3333"/>
  <circle cx="15.00" cy="21.91" r="0.4" fill="#dd3333"/>
  <circle cx="22.16" cy="21.76" r="0.4" fill="#dd3333"/>
  <circle cx="24.51" cy="15.00" r="0.35" fill="#4466aa"/>
  <circle cx="26.86" cy="21.76" r="0.35" fill="#4466aa"/>
  <circle cx="34.02" cy="21.91" r="0.35" fill="#4466aa"/>
  <circle cx="28.31" cy="26.24" r="0.35" fill="#4466aa"/>
  <circle cx="30.39" cy="33.09" r="0.35" fill="#4466aa"/>
  <circle cx="24.51" cy="29.00" r="0.35" fill="#4466aa"/>
  <circle cx="18.63" cy="33.09" r="0.35" fill="#4466aa"/>
  <circle cx="20.71" cy="26.24" r="0.35" fill="#4466aa"/>
  <circle cx="15.00" cy="21.91" r="0.35" fill="#4466aa"/>
  <circle cx="22.16" cy="21.76" r="0.35" fill="#4466aa"/>
</g>
<g transform="translate(49.02, 0)">
  <text x="24.51" y="53.09" text-anchor="middle">ChordalAxis (20e, 19n)</text>
  <polygon points="24.51,15.00 26.86,21.76 34.02,21.91 28.31,26.24 30.39,33.09 24.51,29.00 18.63,33.09 20.71,26.24 15.00,21.91 22.16,21.76" fill="#f0f4ff" stroke="#4466aa" stroke-width="0.3"/>
  <line x1="27.59" y1="24.00" x2="34.02" y2="21.91" stroke="#dd3333" stroke-width="0.25" stroke-linecap="round"/>
  <line x1="26.41" y1="27.62" x2="30.39" y2="33.09" stroke="#dd3333" stroke-width="0.25" stroke-linecap="round"/>
  <line x1="25.29" y1="24.75" x2="27.59" y2="24.00" stroke="#dd3333" stroke-width="0.25" stroke-linecap="round"/>
  <line x1="25.29" y1="24.75" x2="24.51" y2="26.24" stroke="#dd3333" stroke-width="0.25" stroke-linecap="round"/>
  <line x1="25.29" y1="24.75" x2="23.78" y2="24.00" stroke="#dd3333" stroke-width="0.25" stroke-linecap="round"/>
  <line x1="22.61" y1="27.62" x2="18.63" y2="33.09" stroke="#dd3333" stroke-width="0.25" stroke-linecap="round"/>
  <line x1="24.99" y1="25.67" x2="26.41" y2="27.62" stroke="#dd3333" stroke-width="0.25" stroke-linecap="round"/>
  <line x1="24.99" y1="25.67" x2="23.33" y2="25.38" stroke="#dd3333" stroke-width="0.25" stroke-linecap="round"/>
  <line x1="24.99" y1="25.67" x2="25.24" y2="24.00" stroke="#dd3333" stroke-width="0.25" stroke-linecap="round"/>
  <line x1="22.46" y1="25.67" x2="22.61" y2="27.62" stroke="#dd3333" stroke-width="0.25" stroke-linecap="round"/>
  <line x1="22.46" y1="25.67" x2="21.43" y2="24.00" stroke="#dd3333" stroke-width="0.25" stroke-linecap="round"/>
  <line x1="22.46" y1="25.67" x2="23.33" y2="25.38" stroke="#dd3333" stroke-width="0.25" stroke-linecap="round"/>
  <line x1="23.73" y1="24.75" x2="24.51" y2="26.24" stroke="#dd3333" stroke-width="0.25" stroke-linecap="round"/>
  <line x1="23.73" y1="24.75" x2="25.24" y2="24.00" stroke="#dd3333" stroke-width="0.25" stroke-linecap="round"/>
  <line x1="23.73" y1="24.75" x2="21.43" y2="24.00" stroke="#dd3333" stroke-width="0.25" stroke-linecap="round"/>
  <line x1="24.51" y1="21.76" x2="24.51" y2="15.00" stroke="#dd3333" stroke-width="0.25" stroke-linecap="round"/>
  <line x1="23.24" y1="23.25" x2="23.78" y2="24.00" stroke="#dd3333" stroke-width="0.25" stroke-linecap="round"/>
  <line x1="23.24" y1="23.25" x2="21.43" y2="24.00" stroke="#dd3333" stroke-width="0.25" stroke-linecap="round"/>
  <line x1="23.24" y1="23.25" x2="24.51" y2="21.76" stroke="#dd3333" stroke-width="0.25" stroke-linecap="round"/>
  <line x1="21.43" y1="24.00" x2="15.00" y2="21.91" stroke="#dd3333" stroke-width="0.25" stroke-linecap="round"/>
  <circle cx="27.59" cy="24.00" r="0.4" fill="#dd3333"/>
  <circle cx="34.02" cy="21.91" r="0.4" fill="#dd3333"/>
  <circle cx="26.41" cy="27.62" r="0.4" fill="#dd3333"/>
  <circle cx="30.39" cy="33.09" r="0.4" fill="#dd3333"/>
  <circle cx="25.29" cy="24.75" r="0.4" fill="#dd3333"/>
  <circle cx="24.51" cy="26.24" r="0.4" fill="#dd3333"/>
  <circle cx="23.78" cy="24.00" r="0.4" fill="#dd3333"/>
  <circle cx="22.61" cy="27.62" r="0.4" fill="#dd3333"/>
  <circle cx="18.63" cy="33.09" r="0.4" fill="#dd3333"/>
  <circle cx="24.99" cy="25.67" r="0.4" fill="#dd3333"/>
  <circle cx="23.33" cy="25.38" r="0.4" fill="#dd3333"/>
  <circle cx="25.24" cy="24.00" r="0.4" fill="#dd3333"/>
  <circle cx="22.46" cy="25.67" r="0.4" fill="#dd3333"/>
  <circle cx="21.43" cy="24.00" r="0.4" fill="#dd3333"/>
  <circle cx="23.73" cy="24.75" r="0.4" fill="#dd3333"/>
  <circle cx="24.51" cy="21.76" r="0.4" fill="#dd3333"/>
  <circle cx="24.51" cy="15.00" r="0.4" fill="#dd3333"/>
  <circle cx="23.24" cy="23.25" r="0.4" fill="#dd3333"/>
  <circle cx="15.00" cy="21.91" r="0.4" fill="#dd3333"/>
  <circle cx="24.51" cy="15.00" r="0.35" fill="#4466aa"/>
  <circle cx="26.86" cy="21.76" r="0.35" fill="#4466aa"/>
  <circle cx="34.02" cy="21.91" r="0.35" fill="#4466aa"/>
  <circle cx="28.31" cy="26.24" r="0.35" fill="#4466aa"/>
  <circle cx="30.39" cy="33.09" r="0.35" fill="#4466aa"/>
  <circle cx="24.51" cy="29.00" r="0.35" fill="#4466aa"/>
  <circle cx="18.63" cy="33.09" r="0.35" fill="#4466aa"/>
  <circle cx="20.71" cy="26.24" r="0.35" fill="#4466aa"/>
  <circle cx="15.00" cy="21.91" r="0.35" fill="#4466aa"/>
  <circle cx="22.16" cy="21.76" r="0.35" fill="#4466aa"/>
</g>
<g transform="translate(98.04, 0)">
  <text x="24.51" y="53.09" text-anchor="middle">Voronoi (86e, 97n)</text>
  <polygon points="24.51,15.00 26.86,21.76 34.02,21.91 28.31,26.24 30.39,33.09 24.51,29.00 18.63,33.09 20.71,26.24 15.00,21.91 22.16,21.76" fill="#f0f4ff" stroke="#4466aa" stroke-width="0.3"/>
  <line x1="32.94" y1="22.26" x2="33.66" y2="22.03" stroke="#dd3333" stroke-width="0.25" stroke-linecap="round"/>
  <line x1="32.94" y1="22.26" x2="32.94" y2="22.26" stroke="#dd3333" stroke-width="0.25" stroke-linecap="round"/>
  <line x1="32.22" y1="22.50" x2="32.94" y2="22.26" stroke="#dd3333" stroke-width="0.25" stroke-linecap="round"/>
  <line x1="32.22" y1="22.50" x2="32.22" y2="22.50" stroke="#dd3333" stroke-width="0.25" stroke-linecap="round"/>
  <line x1="30.78" y1="22.96" x2="31.50" y2="22.73" stroke="#dd3333" stroke-width="0.25" stroke-linecap="round"/>
  <line x1="32.22" y1="22.50" x2="31.50" y2="22.73" stroke="#dd3333" stroke-width="0.25" stroke-linecap="round"/>
  <line x1="31.50" y1="22.73" x2="31.50" y2="22.73" stroke="#dd3333" stroke-width="0.25" stroke-linecap="round"/>
  <line x1="30.78" y1="22.96" x2="30.78" y2="22.96" stroke="#dd3333" stroke-width="0.25" stroke-linecap="round"/>
  <line x1="29.33" y1="23.43" x2="30.06" y2="23.20" stroke="#dd3333" stroke-width="0.25" stroke-linecap="round"/>
  <line x1="30.78" y1="22.96" x2="30.06" y2="23.20" stroke="#dd3333" stroke-width="0.25" stroke-linecap="round"/>
  <line x1="30.06" y1="23.20" x2="30.06" y2="23.20" stroke="#dd3333" stroke-width="0.25" stroke-linecap="round"/>
  <line x1="29.33" y1="23.43" x2="29.33" y2="23.43" stroke="#dd3333" stroke-width="0.25" stroke-linecap="round"/>
  <line x1="28.61" y1="23.67" x2="29.33" y2="23.43" stroke="#dd3333" stroke-width="0.25" stroke-linecap="round"/>
  <line x1="28.61" y1="23.67" x2="28.61" y2="23.67" stroke="#dd3333" stroke-width="0.25" stroke-linecap="round"/>
  <line x1="27.17" y1="24.14" x2="27.89" y2="23.90" stroke="#dd3333" stroke-width="0.25" stroke-linecap="round"/>
  <line x1="28.61" y1="23.67" x2="27.89" y2="23.90" stroke="#dd3333" stroke-width="0.25" stroke-linecap="round"/>
  <line x1="27.89" y1="23.90" x2="27.89" y2="23.90" stroke="#dd3333" stroke-width="0.25" stroke-linecap="round"/>
  <line x1="27.17" y1="24.14" x2="27.17" y2="24.14" stroke="#dd3333" stroke-width="0.25" stroke-linecap="round"/>
  <line x1="29.72" y1="32.17" x2="30.17" y2="32.78" stroke="#dd3333" stroke-width="0.25" stroke-linecap="round"/>
  <line x1="29.72" y1="32.17" x2="29.72" y2="32.17" stroke="#dd3333" stroke-width="0.25" stroke-linecap="round"/>
  <line x1="29.27" y1="31.56" x2="29.72" y2="32.17" stroke="#dd3333" stroke-width="0.25" stroke-linecap="round"/>
  <line x1="29.27" y1="31.56" x2="29.27" y2="31.56" stroke="#dd3333" stroke-width="0.25" stroke-linecap="round"/>
  <line x1="28.83" y1="30.94" x2="29.27" y2="31.56" stroke="#dd3333" stroke-width="0.25" stroke-linecap="round"/>
  <line x1="28.83" y1="30.94" x2="28.83" y2="30.94" stroke="#dd3333" stroke-width="0.25" stroke-linecap="round"/>
  <line x1="28.38" y1="30.33" x2="28.83" y2="30.94" stroke="#dd3333" stroke-width="0.25" stroke-linecap="round"/>
  <line x1="28.38" y1="30.33" x2="28.38" y2="30.33" stroke="#dd3333" stroke-width="0.25" stroke-linecap="round"/>
  <line x1="27.94" y1="29.72" x2="28.38" y2="30.33" stroke="#dd3333" stroke-width="0.25" stroke-linecap="round"/>
  <line x1="27.94" y1="29.72" x2="27.94" y2="29.72" stroke="#dd3333" stroke-width="0.25" stroke-linecap="round"/>
  <line x1="27.05" y1="28.49" x2="27.49" y2="29.10" stroke="#dd3333" stroke-width="0.25" stroke-linecap="round"/>
  <line x1="27.94" y1="29.72" x2="27.49" y2="29.10" stroke="#dd3333" stroke-width="0.25" stroke-linecap="round"/>
  <line x1="27.05" y1="28.49" x2="27.05" y2="28.49" stroke="#dd3333" stroke-width="0.25" stroke-linecap="round"/>
  <line x1="26.60" y1="27.88" x2="27.05" y2="28.49" stroke="#dd3333" stroke-width="0.25" stroke-linecap="round"/>
  <line x1="26.60" y1="27.88" x2="26.16" y2="27.26" stroke="#dd3333" stroke-width="0.25" stroke-linecap="round"/>
  <line x1="18.86" y1="32.78" x2="19.30" y2="32.17" stroke="#dd3333" stroke-width="0.25" stroke-linecap="round"/>
  <line x1="19.30" y1="32.17" x2="19.30" y2="32.17" stroke="#dd3333" stroke-width="0.25" stroke-linecap="round"/>
  <line x1="20.19" y1="30.94" x2="19.75" y2="31.56" stroke="#dd3333" stroke-width="0.25" stroke-linecap="round"/>
  <line x1="19.30" y1="32.17" x2="19.75" y2="31.56" stroke="#dd3333" stroke-width="0.25" stroke-linecap="round"/>
  <line x1="19.75" y1="31.56" x2="19.75" y2="31.56" stroke="#dd3333" stroke-width="0.25" stroke-linecap="round"/>
  <line x1="20.19" y1="30.94" x2="20.19" y2="30.94" stroke="#dd3333" stroke-width="0.25" stroke-linecap="round"/>
  <line x1="20.64" y1="30.33" x2="20.19" y2="30.94" stroke="#dd3333" stroke-width="0.25" stroke-linecap="round"/>
  <line x1="20.64" y1="30.33" x2="20.64" y2="30.33" stroke="#dd3333" stroke-width="0.25" stroke-linecap="round"/>
  <line x1="21.08" y1="29.72" x2="20.64" y2="30.33" stroke="#dd3333" stroke-width="0.25" stroke-linecap="round"/>
  <line x1="21.53" y1="29.10" x2="21.08" y2="29.72" stroke="#dd3333" stroke-width="0.25" stroke-linecap="round"/>
  <line x1="21.53" y1="29.10" x2="21.53" y2="29.10" stroke="#dd3333" stroke-width="0.25" stroke-linecap="round"/>
  <line x1="22.42" y1="27.88" x2="21.97" y2="28.49" stroke="#dd3333" stroke-width="0.25" stroke-linecap="round"/>
  <line x1="21.53" y1="29.10" x2="21.97" y2="28.49" stroke="#dd3333" stroke-width="0.25" stroke-linecap="round"/>
  <line x1="21.97" y1="28.49" x2="21.97" y2="28.49" stroke="#dd3333" stroke-width="0.25" stroke-linecap="round"/>
  <line x1="22.42" y1="27.88" x2="22.42" y2="27.88" stroke="#dd3333" stroke-width="0.25" stroke-linecap="round"/>
  <line x1="27.17" y1="24.14" x2="24.51" y2="25.00" stroke="#dd3333" stroke-width="0.25" stroke-linecap="round"/>
  <line x1="22.42" y1="27.88" x2="22.87" y2="27.26" stroke="#dd3333" stroke-width="0.25" stroke-linecap="round"/>
  <line x1="16.08" y1="22.26" x2="15.36" y2="22.03" stroke="#dd3333" stroke-width="0.25" stroke-linecap="round"/>
  <line x1="16.08" y1="22.26" x2="16.08" y2="22.26" stroke="#dd3333" stroke-width="0.25" stroke-linecap="round"/>
  <line x1="17.52" y1="22.73" x2="16.80" y2="22.50" stroke="#dd3333" stroke-width="0.25" stroke-linecap="round"/>
  <line x1="16.08" y1="22.26" x2="16.80" y2="22.50" stroke="#dd3333" stroke-width="0.25" stroke-linecap="round"/>
  <line x1="16.80" y1="22.50" x2="16.80" y2="22.50" stroke="#dd3333" stroke-width="0.25" stroke-linecap="round"/>
  <line x1="17.52" y1="22.73" x2="17.52" y2="22.73" stroke="#dd3333" stroke-width="0.25" stroke-linecap="round"/>
  <line x1="18.24" y1="22.96" x2="17.52" y2="22.73" stroke="#dd3333" stroke-width="0.25" stroke-linecap="round"/>
  <line x1="18.24" y1="22.96" x2="18.24" y2="22.96" stroke="#dd3333" stroke-width="0.25" stroke-linecap="round"/>
  <line x1="18.24" y1="22.96" x2="18.97" y2="23.20" stroke="#dd3333" stroke-width="0.25" stroke-linecap="round"/>
  <line x1="20.41" y1="23.67" x2="19.69" y2="23.43" stroke="#dd3333" stroke-width="0.25" stroke-linecap="round"/>
  <line x1="18.97" y1="23.20" x2="19.69" y2="23.43" stroke="#dd3333" stroke-width="0.25" stroke-linecap="round"/>
  <line x1="19.69" y1="23.43" x2="19.69" y2="23.43" stroke="#dd3333" stroke-width="0.25" stroke-linecap="round"/>
  <line x1="21.13" y1="23.90" x2="20.41" y2="23.67" stroke="#dd3333" stroke-width="0.25" stroke-linecap="round"/>
  <line x1="21.13" y1="23.90" x2="21.13" y2="23.90" stroke="#dd3333" stroke-width="0.25" stroke-linecap="round"/>
  <line x1="21.85" y1="24.14" x2="21.13" y2="23.90" stroke="#dd3333" stroke-width="0.25" stroke-linecap="round"/>
  <line x1="26.16" y1="27.26" x2="24.51" y2="25.00" stroke="#dd3333" stroke-width="0.25" stroke-linecap="round"/>
  <line x1="22.87" y1="27.26" x2="24.51" y2="25.00" stroke="#dd3333" stroke-width="0.25" stroke-linecap="round"/>
  <line x1="24.51" y1="22.20" x2="24.51" y2="25.00" stroke="#dd3333" stroke-width="0.25" stroke-linecap="round"/>
  <line x1="21.85" y1="24.14" x2="21.85" y2="24.14" stroke="#dd3333" stroke-width="0.25" stroke-linecap="round"/>
  <line x1="24.51" y1="25.00" x2="21.85" y2="24.14" stroke="#dd3333" stroke-width="0.25" stroke-linecap="round"/>
  <line x1="24.51" y1="21.44" x2="24.51" y2="22.20" stroke="#dd3333" stroke-width="0.25" stroke-linecap="round"/>
  <line x1="24.51" y1="20.69" x2="24.51" y2="21.44" stroke="#dd3333" stroke-width="0.25" stroke-linecap="round"/>
  <line x1="24.51" y1="20.69" x2="24.51" y2="20.69" stroke="#dd3333" stroke-width="0.25" stroke-linecap="round"/>
  <line x1="24.51" y1="19.93" x2="24.51" y2="20.69" stroke="#dd3333" stroke-width="0.25" stroke-linecap="round"/>
  <line x1="24.51" y1="19.93" x2="24.51" y2="19.93" stroke="#dd3333" stroke-width="0.25" stroke-linecap="round"/>
  <line x1="24.51" y1="19.17" x2="24.51" y2="19.93" stroke="#dd3333" stroke-width="0.25" stroke-linecap="round"/>
  <line x1="24.51" y1="19.17" x2="24.51" y2="19.17" stroke="#dd3333" stroke-width="0.25" stroke-linecap="round"/>
  <line x1="24.51" y1="18.41" x2="24.51" y2="19.17" stroke="#dd3333" stroke-width="0.25" stroke-linecap="round"/>
  <line x1="24.51" y1="18.41" x2="24.51" y2="18.41" stroke="#dd3333" stroke-width="0.25" stroke-linecap="round"/>
  <line x1="24.51" y1="17.65" x2="24.51" y2="18.41" stroke="#dd3333" stroke-width="0.25" stroke-linecap="round"/>
  <line x1="24.51" y1="17.65" x2="24.51" y2="17.65" stroke="#dd3333" stroke-width="0.25" stroke-linecap="round"/>
  <line x1="24.51" y1="16.90" x2="24.51" y2="17.65" stroke="#dd3333" stroke-width="0.25" stroke-linecap="round"/>
  <line x1="24.51" y1="16.90" x2="24.51" y2="16.90" stroke="#dd3333" stroke-width="0.25" stroke-linecap="round"/>
  <line x1="24.51" y1="15.38" x2="24.51" y2="16.14" stroke="#dd3333" stroke-width="0.25" stroke-linecap="round"/>
  <line x1="24.51" y1="16.90" x2="24.51" y2="16.14" stroke="#dd3333" stroke-width="0.25" stroke-linecap="round"/>
  <line x1="24.51" y1="16.14" x2="24.51" y2="16.14" stroke="#dd3333" stroke-width="0.25" stroke-linecap="round"/>
  <circle cx="32.94" cy="22.26" r="0.4" fill="#dd3333"/>
  <circle cx="33.66" cy="22.03" r="0.4" fill="#dd3333"/>
  <circle cx="32.94" cy="22.26" r="0.4" fill="#dd3333"/>
  <circle cx="32.22" cy="22.50" r="0.4" fill="#dd3333"/>
  <circle cx="32.22" cy="22.50" r="0.4" fill="#dd3333"/>
  <circle cx="30.78" cy="22.96" r="0.4" fill="#dd3333"/>
  <circle cx="31.50" cy="22.73" r="0.4" fill="#dd3333"/>
  <circle cx="31.50" cy="22.73" r="0.4" fill="#dd3333"/>
  <circle cx="30.78" cy="22.96" r="0.4" fill="#dd3333"/>
  <circle cx="29.33" cy="23.43" r="0.4" fill="#dd3333"/>
  <circle cx="30.06" cy="23.20" r="0.4" fill="#dd3333"/>
  <circle cx="30.06" cy="23.20" r="0.4" fill="#dd3333"/>
  <circle cx="29.33" cy="23.43" r="0.4" fill="#dd3333"/>
  <circle cx="28.61" cy="23.67" r="0.4" fill="#dd3333"/>
  <circle cx="28.61" cy="23.67" r="0.4" fill="#dd3333"/>
  <circle cx="27.17" cy="24.14" r="0.4" fill="#dd3333"/>
  <circle cx="27.89" cy="23.90" r="0.4" fill="#dd3333"/>
  <circle cx="27.89" cy="23.90" r="0.4" fill="#dd3333"/>
  <circle cx="27.17" cy="24.14" r="0.4" fill="#dd3333"/>
  <circle cx="29.72" cy="32.17" r="0.4" fill="#dd3333"/>
  <circle cx="30.17" cy="32.78" r="0.4" fill="#dd3333"/>
  <circle cx="29.72" cy="32.17" r="0.4" fill="#dd3333"/>
  <circle cx="29.27" cy="31.56" r="0.4" fill="#dd3333"/>
  <circle cx="29.27" cy="31.56" r="0.4" fill="#dd3333"/>
  <circle cx="28.83" cy="30.94" r="0.4" fill="#dd3333"/>
  <circle cx="28.83" cy="30.94" r="0.4" fill="#dd3333"/>
  <circle cx="28.38" cy="30.33" r="0.4" fill="#dd3333"/>
  <circle cx="28.38" cy="30.33" r="0.4" fill="#dd3333"/>
  <circle cx="27.94" cy="29.72" r="0.4" fill="#dd3333"/>
  <circle cx="27.94" cy="29.72" r="0.4" fill="#dd3333"/>
  <circle cx="27.05" cy="28.49" r="0.4" fill="#dd3333"/>
  <circle cx="27.49" cy="29.10" r="0.4" fill="#dd3333"/>
  <circle cx="27.49" cy="29.10" r="0.4" fill="#dd3333"/>
  <circle cx="27.05" cy="28.49" r="0.4" fill="#dd3333"/>
  <circle cx="26.60" cy="27.88" r="0.4" fill="#dd3333"/>
  <circle cx="26.60" cy="27.88" r="0.4" fill="#dd3333"/>
  <circle cx="26.16" cy="27.26" r="0.4" fill="#dd3333"/>
  <circle cx="18.86" cy="32.78" r="0.4" fill="#dd3333"/>
  <circle cx="19.30" cy="32.17" r="0.4" fill="#dd3333"/>
  <circle cx="19.30" cy="32.17" r="0.4" fill="#dd3333"/>
  <circle cx="20.19" cy="30.94" r="0.4" fill="#dd3333"/>
  <circle cx="19.75" cy="31.56" r="0.4" fill="#dd3333"/>
  <circle cx="19.75" cy="31.56" r="0.4" fill="#dd3333"/>
  <circle cx="20.19" cy="30.94" r="0.4" fill="#dd3333"/>
  <circle cx="20.64" cy="30.33" r="0.4" fill="#dd3333"/>
  <circle cx="20.64" cy="30.33" r="0.4" fill="#dd3333"/>
  <circle cx="21.08" cy="29.72" r="0.4" fill="#dd3333"/>
  <circle cx="21.53" cy="29.10" r="0.4" fill="#dd3333"/>
  <circle cx="21.53" cy="29.10" r="0.4" fill="#dd3333"/>
  <circle cx="22.42" cy="27.88" r="0.4" fill="#dd3333"/>
  <circle cx="21.97" cy="28.49" r="0.4" fill="#dd3333"/>
  <circle cx="21.97" cy="28.49" r="0.4" fill="#dd3333"/>
  <circle cx="22.42" cy="27.88" r="0.4" fill="#dd3333"/>
  <circle cx="24.51" cy="25.00" r="0.4" fill="#dd3333"/>
  <circle cx="22.87" cy="27.26" r="0.4" fill="#dd3333"/>
  <circle cx="16.08" cy="22.26" r="0.4" fill="#dd3333"/>
  <circle cx="15.36" cy="22.03" r="0.4" fill="#dd3333"/>
  <circle cx="16.08" cy="22.26" r="0.4" fill="#dd3333"/>
  <circle cx="17.52" cy="22.73" r="0.4" fill="#dd3333"/>
  <circle cx="16.80" cy="22.50" r="0.4" fill="#dd3333"/>
  <circle cx="16.80" cy="22.50" r="0.4" fill="#dd3333"/>
  <circle cx="17.52" cy="22.73" r="0.4" fill="#dd3333"/>
  <circle cx="18.24" cy="22.96" r="0.4" fill="#dd3333"/>
  <circle cx="18.24" cy="22.96" r="0.4" fill="#dd3333"/>
  <circle cx="18.97" cy="23.20" r="0.4" fill="#dd3333"/>
  <circle cx="20.41" cy="23.67" r="0.4" fill="#dd3333"/>
  <circle cx="19.69" cy="23.43" r="0.4" fill="#dd3333"/>
  <circle cx="18.97" cy="23.20" r="0.4" fill="#dd3333"/>
  <circle cx="19.69" cy="23.43" r="0.4" fill="#dd3333"/>
  <circle cx="21.13" cy="23.90" r="0.4" fill="#dd3333"/>
  <circle cx="20.41" cy="23.67" r="0.4" fill="#dd3333"/>
  <circle cx="21.13" cy="23.90" r="0.4" fill="#dd3333"/>
  <circle cx="21.85" cy="24.14" r="0.4" fill="#dd3333"/>
  <circle cx="26.16" cy="27.26" r="0.4" fill="#dd3333"/>
  <circle cx="24.51" cy="25.00" r="0.4" fill="#dd3333"/>
  <circle cx="22.87" cy="27.26" r="0.4" fill="#dd3333"/>
  <circle cx="24.51" cy="25.00" r="0.4" fill="#dd3333"/>
  <circle cx="24.51" cy="22.20" r="0.4" fill="#dd3333"/>
  <circle cx="24.51" cy="25.00" r="0.4" fill="#dd3333"/>
  <circle cx="21.85" cy="24.14" r="0.4" fill="#dd3333"/>
  <circle cx="24.51" cy="21.44" r="0.4" fill="#dd3333"/>
  <circle cx="24.51" cy="20.69" r="0.4" fill="#dd3333"/>
  <circle cx="24.51" cy="21.44" r="0.4" fill="#dd3333"/>
  <circle cx="24.51" cy="20.69" r="0.4" fill="#dd3333"/>
  <circle cx="24.51" cy="19.93" r="0.4" fill="#dd3333"/>
  <circle cx="24.51" cy="19.93" r="0.4" fill="#dd3333"/>
  <circle cx="24.51" cy="19.17" r="0.4" fill="#dd3333"/>
  <circle cx="24.51" cy="19.17" r="0.4" fill="#dd3333"/>
  <circle cx="24.51" cy="18.41" r="0.4" fill="#dd3333"/>
  <circle cx="24.51" cy="18.41" r="0.4" fill="#dd3333"/>
  <circle cx="24.51" cy="17.65" r="0.4" fill="#dd3333"/>
  <circle cx="24.51" cy="17.65" r="0.4" fill="#dd3333"/>
  <circle cx="24.51" cy="16.90" r="0.4" fill="#dd3333"/>
  <circle cx="24.51" cy="16.90" r="0.4" fill="#dd3333"/>
  <circle cx="24.51" cy="15.38" r="0.4" fill="#dd3333"/>
  <circle cx="24.51" cy="16.14" r="0.4" fill="#dd3333"/>
  <circle cx="24.51" cy="16.14" r="0.4" fill="#dd3333"/>
  <circle cx="24.51" cy="15.00" r="0.35" fill="#4466aa"/>
  <circle cx="26.86" cy="21.76" r="0.35" fill="#4466aa"/>
  <circle cx="34.02" cy="21.91" r="0.35" fill="#4466aa"/>
  <circle cx="28.31" cy="26.24" r="0.35" fill="#4466aa"/>
  <circle cx="30.39" cy="33.09" r="0.35" fill="#4466aa"/>
  <circle cx="24.51" cy="29.00" r="0.35" fill="#4466aa"/>
  <circle cx="18.63" cy="33.09" r="0.35" fill="#4466aa"/>
  <circle cx="20.71" cy="26.24" r="0.35" fill="#4466aa"/>
  <circle cx="15.00" cy="21.91" r="0.35" fill="#4466aa"/>
  <circle cx="22.16" cy="21.76" r="0.35" fill="#4466aa"/>
</g>
</svg>
