<svg xmlns="http://www.w3.org/2000/svg" width="50" height="50" viewBox="0 0 50 50"><path fill="#e8edff" stroke="#4466aa" stroke-width="0.3" d="M25,15 L26.530733108520508,21.304481506347656 L32.071067810058594,17.928932189941406 L28.695518493652344,23.469266891479492 L35,25 L28.695518493652344,26.530733108520508 L32.071067810058594,32.071067810058594 L26.530733108520508,28.695518493652344 L25,35 L23.469266891479492,28.695518493652344 L17.928932189941406,32.071067810058594 L21.304481506347656,26.530733108520508 L15,25 L21.304481506347656,23.469266891479492 L17.928932189941406,17.928932189941406 L23.469266891479492,21.304481506347656 Z"/><line x1="17.928932189941406" y1="17.928932189941406" x2="24.999998092651367" y2="24.99999237060547" stroke="#bbbbbb" stroke-width="0.25" stroke-linecap="round"/><line x1="21.304481506347656" y1="23.469266891479492" x2="24.999998092651367" y2="24.99999237060547" stroke="#bbbbbb" stroke-width="0.25" stroke-linecap="round"/><line x1="15" y1="25" x2="24.999998092651367" y2="24.99999237060547" stroke="#bbbbbb" stroke-width="0.25" stroke-linecap="round"/><line x1="21.304481506347656" y1="26.530733108520508" x2="24.999998092651367" y2="24.99999237060547" stroke="#bbbbbb" stroke-width="0.25" stroke-linecap="round"/><line x1="17.928932189941406" y1="32.071067810058594" x2="24.999998092651367" y2="24.99999237060547" stroke="#bbbbbb" stroke-width="0.25" stroke-linecap="round"/><line x1="23.469266891479492" y1="28.695518493652344" x2="24.999998092651367" y2="24.99999237060547" stroke="#bbbbbb" stroke-width="0.25" stroke-linecap="round"/><line x1="25" y1="35" x2="24.999998092651367" y2="24.99999237060547" stroke="#bbbbbb" stroke-width="0.25" stroke-linecap="round"/><line x1="26.530733108520508" y1="28.695518493652344" x2="24.999998092651367" y2="24.99999237060547" stroke="#bbbbbb" stroke-width="0.25" stroke-linecap="round"/><line x1="32.071067810058594" y1="32.071067810058594" x2="24.999998092651367" y2="24.99999237060547" stroke="#bbbbbb" stroke-width="0.25" stroke-linecap="round"/><line x1="28.695518493652344" y1="26.530733108520508" x2="24.999998092651367" y2="24.99999237060547" stroke="#bbbbbb" stroke-width="0.25" stroke-linecap="round"/><line x1="35" y1="25" x2="24.999998092651367" y2="24.99999237060547" stroke="#bbbbbb" stroke-width="0.25" stroke-linecap="round"/><line x1="28.695518493652344" y1="23.469266891479492" x2="24.999998092651367" y2="24.99999237060547" stroke="#bbbbbb" stroke-width="0.25" stroke-linecap="round"/><line x1="32.071067810058594" y1="17.928932189941406" x2="24.999998092651367" y2="24.99999237060547" stroke="#bbbbbb" stroke-width="0.25" stroke-linecap="round"/><line x1="26.530733108520508" y1="21.304481506347656" x2="24.999998092651367" y2="24.99999237060547" stroke="#bbbbbb" stroke-width="0.25" stroke-linecap="round"/><line x1="25" y1="15" x2="24.999998092651367" y2="24.99999237060547" stroke="#bbbbbb" stroke-width="0.25" stroke-linecap="round"/><line x1="23.469266891479492" y1="21.304481506347656" x2="24.999998092651367" y2="24.99999237060547" stroke="#bbbbbb" stroke-width="0.25" stroke-linecap="round"/><circle cx="17.928932189941406" cy="17.928932189941406" r="0.4" fill="#bbbbbb"/><circle cx="24.999998092651367" cy="24.99999237060547" r="0.4" fill="#bbbbbb"/><circle cx="21.304481506347656" cy="23.469266891479492" r="0.4" fill="#bbbbbb"/><circle cx="15" cy="25" r="0.4" fill="#bbbbbb"/><circle cx="21.304481506347656" cy="26.530733108520508" r="0.4" fill="#bbbbbb"/><circle cx="17.928932189941406" cy="32.071067810058594" r="0.4" fill="#bbbbbb"/><circle cx="23.469266891479492" cy="28.695518493652344" r="0.4" fill="#bbbbbb"/><circle cx="25" cy="35" r="0.4" fill="#bbbbbb"/><circle cx="26.530733108520508" cy="28.695518493652344" r="0.4" fill="#bbbbbb"/><circle cx="32.071067810058594" cy="32.071067810058594" r="0.4" fill="#bbbbbb"/><circle cx="28.695518493652344" cy="26.530733108520508" r="0.4" fill="#bbbbbb"/><circle cx="35" cy="25" r="0.4" fill="#bbbbbb"/><circle cx="28.695518493652344" cy="23.469266891479492" r="0.4" fill="#bbbbbb"/><circle cx="32.071067810058594" cy="17.928932189941406" r="0.4" fill="#bbbbbb"/><circle cx="26.530733108520508" cy="21.304481506347656" r="0.4" fill="#bbbbbb"/><circle cx="25" cy="15" r="0.4" fill="#bbbbbb"/><circle cx="23.469266891479492" cy="21.304481506347656" r="0.4" fill="#bbbbbb"/><circle cx="17.928932189941406" cy="17.928932189941406" r="0" fill="#dd3333"/><circle cx="24.999998092651367" cy="24.99999237060547" r="0" fill="#dd3333"/><circle cx="21.304481506347656" cy="23.469266891479492" r="0" fill="#dd3333"/><circle cx="15" cy="25" r="0" fill="#dd3333"/><circle cx="21.304481506347656" cy="26.530733108520508" r="0" fill="#dd3333"/><circle cx="17.928932189941406" cy="32.071067810058594" r="0" fill="#dd3333"/><circle cx="23.469266891479492" cy="28.695518493652344" r="0" fill="#dd3333"/><circle cx="25" cy="35" r="0" fill="#dd3333"/><circle cx="26.530733108520508" cy="28.695518493652344" r="0" fill="#dd3333"/><circle cx="32.071067810058594" cy="32.071067810058594" r="0" fill="#dd3333"/><circle cx="28.695518493652344" cy="26.530733108520508" r="0" fill="#dd3333"/><circle cx="35" cy="25" r="0" fill="#dd3333"/><circle cx="28.695518493652344" cy="23.469266891479492" r="0" fill="#dd3333"/><circle cx="32.071067810058594" cy="17.928932189941406" r="0" fill="#dd3333"/><circle cx="26.530733108520508" cy="21.304481506347656" r="0" fill="#dd3333"/><circle cx="25" cy="15" r="0" fill="#dd3333"/><circle cx="23.469266891479492" cy="21.304481506347656" r="0" fill="#dd3333"/></svg>