<svg xmlns="http://www.w3.org/2000/svg" width="50" height="50" viewBox="0 0 50 50"><path fill="#e8edff" stroke="#4466aa" stroke-width="0.3" d="M25,15 L26.530733108520508,21.304481506347656 L32.071067810058594,17.928932189941406 L28.695518493652344,23.469266891479492 L35,25 L28.695518493652344,26.530733108520508 L32.071067810058594,32.071067810058594 L26.530733108520508,28.695518493652344 L25,35 L23.469266891479492,28.695518493652344 L17.928932189941406,32.071067810058594 L21.304481506347656,26.530733108520508 L15,25 L21.304481506347656,23.469266891479492 L17.928932189941406,17.928932189941406 L23.469266891479492,21.304481506347656 Z"/><line x1="27.61312484741211" y1="22.38687515258789" x2="32.071067810058594" y2="17.928932189941406" stroke="#dd3333" stroke-width="0.25" stroke-linecap="round"/><line x1="28.695518493652344" y1="25" x2="35" y2="25" stroke="#dd3333" stroke-width="0.25" stroke-linecap="round"/><line x1="27.61312484741211" y1="27.61312484741211" x2="32.071067810058594" y2="32.071067810058594" stroke="#dd3333" stroke-width="0.25" stroke-linecap="round"/><line x1="26.231840133666992" y1="22.026077270507812" x2="27.61312484741211" y2="22.38687515258789" stroke="#dd3333" stroke-width="0.25" stroke-linecap="round"/><line x1="26.231840133666992" y1="22.026077270507812" x2="26.0823917388916" y2="22.38687515258789" stroke="#dd3333" stroke-width="0.25" stroke-linecap="round"/><line x1="26.231840133666992" y1="22.026077270507812" x2="25" y2="21.304481506347656" stroke="#dd3333" stroke-width="0.25" stroke-linecap="round"/><line x1="26.953433990478516" y1="23.768159866333008" x2="28.695518493652344" y2="25" stroke="#dd3333" stroke-width="0.25" stroke-linecap="round"/><line x1="26.953433990478516" y1="23.768159866333008" x2="26.0823917388916" y2="23.9176082611084" stroke="#dd3333" stroke-width="0.25" stroke-linecap="round"/><line x1="26.953433990478516" y1="23.768159866333008" x2="26.0823917388916" y2="22.38687515258789" stroke="#dd3333" stroke-width="0.25" stroke-linecap="round"/><line x1="26.231840133666992" y1="25.510244369506836" x2="27.61312484741211" y2="27.61312484741211" stroke="#dd3333" stroke-width="0.25" stroke-linecap="round"/><line x1="26.231840133666992" y1="25.510244369506836" x2="25" y2="25" stroke="#dd3333" stroke-width="0.25" stroke-linecap="round"/><line x1="26.231840133666992" y1="25.510244369506836" x2="26.0823917388916" y2="23.9176082611084" stroke="#dd3333" stroke-width="0.25" stroke-linecap="round"/><line x1="25" y1="25" x2="21.304481506347656" y2="26.530733108520508" stroke="#dd3333" stroke-width="0.25" stroke-linecap="round"/><line x1="25" y1="21.304481506347656" x2="25" y2="15" stroke="#dd3333" stroke-width="0.25" stroke-linecap="round"/><circle cx="27.61312484741211" cy="22.38687515258789" r="0.4" fill="#dd3333"/><circle cx="32.071067810058594" cy="17.928932189941406" r="0.4" fill="#dd3333"/><circle cx="28.695518493652344" cy="25" r="0.4" fill="#dd3333"/><circle cx="35" cy="25" r="0.4" fill="#dd3333"/><circle cx="27.61312484741211" cy="27.61312484741211" r="0.4" fill="#dd3333"/><circle cx="32.071067810058594" cy="32.071067810058594" r="0.4" fill="#dd3333"/><circle cx="26.231840133666992" cy="22.026077270507812" r="0.4" fill="#dd3333"/><circle cx="26.0823917388916" cy="22.38687515258789" r="0.4" fill="#dd3333"/><circle cx="25" cy="21.304481506347656" r="0.4" fill="#dd3333"/><circle cx="26.953433990478516" cy="23.768159866333008" r="0.4" fill="#dd3333"/><circle cx="26.0823917388916" cy="23.9176082611084" r="0.4" fill="#dd3333"/><circle cx="26.231840133666992" cy="25.510244369506836" r="0.4" fill="#dd3333"/><circle cx="25" cy="25" r="0.4" fill="#dd3333"/><circle cx="21.304481506347656" cy="26.530733108520508" r="0.4" fill="#dd3333"/><circle cx="25" cy="15" r="0.4" fill="#dd3333"/></svg>