<svg xmlns="http://www.w3.org/2000/svg" width="1500.00" height="900.00" viewBox="-1.00 -1.00 152.00 92.00">
<style>text { font-family: sans-serif; font-size: 3px; fill: #333; }</style>
<rect x="-1" y="-1" width="152.00" height="92.00" fill="white"/>
<g transform="translate(0.00, 0)">
  <text x="25.00" y="55.00" text-anchor="middle">StraightSkeleton (16e, 17n)</text>
  <polygon points="25.00,15.00 26.53,21.30 32.07,17.93 28.70,23.47 35.00,25.00 28.70,26.53 32.07,32.07 26.53,28.70 25.00,35.00 23.47,28.70 17.93,32.07 21.30,26.53 15.00,25.00 21.30,23.47 17.93,17.93 23.47,21.30" fill="#f0f4ff" stroke="#4466aa" stroke-width="0.3"/>
  <line x1="25.00" y1="15.00" x2="25.00" y2="25.00" stroke="#dd3333" stroke-width="0.25" stroke-linecap="round"/>
  <line x1="26.53" y1="21.30" x2="25.00" y2="25.00" stroke="#dd3333" stroke-width="0.25" stroke-linecap="round"/>
  <line x1="32.07" y1="17.93" x2="25.00" y2="25.00" stroke="#dd3333" stroke-width="0.25" stroke-linecap="round"/>
  <line x1="28.70" y1="23.47" x2="25.00" y2="25.00" stroke="#dd3333" stroke-width="0.25" stroke-linecap="round"/>
  <line x1="35.00" y1="25.00" x2="25.00" y2="25.00" stroke="#dd3333" stroke-width="0.25" stroke-linecap="round"/>
  <line x1="28.70" y1="26.53" x2="25.00" y2="25.00" stroke="#dd3333" stroke-width="0.25" stroke-linecap="round"/>
  <line x1="32.07" y1="32.07" x2="25.00" y2="25.00" stroke="#dd3333" stroke-width="0.25" stroke-linecap="round"/>
  <line x1="26.53" y1="28.70" x2="25.00" y2="25.00" stroke="#dd3333" stroke-width="0.25" stroke-linecap="round"/>
  <line x1="25.00" y1="35.00" x2="25.00" y2="25.00" stroke="#dd3333" stroke-width="0.25" stroke-linecap="round"/>
  <line x1="23.47" y1="28.70" x2="25.00" y2="25.00" stroke="#dd3333" stroke-width="0.25" stroke-linecap="round"/>
  <line x1="17.93" y1="32.07" x2="25.00" y2="25.00" stroke="#dd3333" stroke-width="0.25" stroke-linecap="round"/>
  <line x1="21.30" y1="26.53" x2="25.00" y2="25.00" stroke="#dd3333" stroke-width="0.25" stroke-linecap="round"/>
  <line x1="15.00" y1="25.00" x2="25.00" y2="25.00" stroke="#dd3333" stroke-width="0.25" stroke-linecap="round"/>
  <line x1="21.30" y1="23.47" x2="25.00" y2="25.00" stroke="#dd3333" stroke-width="0.25" stroke-linecap="round"/>
  <line x1="17.93" y1="17.93" x2="25.00" y2="25.00" stroke="#dd3333" stroke-width="0.25" stroke-linecap="round"/>
  <line x1="23.47" y1="21.30" x2="25.00" y2="25.00" stroke="#dd3333" stroke-width="0.25" stroke-linecap="round"/>
  <circle cx="25.00" cy="15.00" r="0.4" fill="#dd3333"/>
  <circle cx="25.00" cy="25.00" r="0.4" fill="#dd3333"/>
  <circle cx="26.53" cy="21.30" r="0.4" fill="#dd3333"/>
  <circle cx="32.07" cy="17.93" r="0.4" fill="#dd3333"/>
  <circle cx="28.70" cy="23.47" r="0.4" fill="#dd3333"/>
  <circle cx="35.00" cy="25.00" r="0.4" fill="#dd3333"/>
  <circle cx="28.70" cy="26.53" r="0.4" fill="#dd3333"/>
  <circle cx="32.07" cy="32.07" r="0.4" fill="#dd3333"/>
  <circle cx="26.53" cy="28.70" r="0.4" fill="#dd3333"/>
  <circle cx="25.00" cy="35.00" r="0.4" fill="#dd3333"/>
  <circle cx="23.47" cy="28.70" r="0.4" fill="#dd3333"/>
  <circle cx="17.93" cy="32.07" r="0.4" fill="#dd3333"/>
  <circle cx="21.30" cy="26.53" r="0.4" fill="#dd3333"/>
  <circle cx="15.00" cy="25.00" r="0.4" fill="#dd3333"/>
  <circle cx="21.30" cy="23.47" r="0.4" fill="#dd3333"/>
  <circle cx="17.93" cy="17.93" r="0.4" fill="#dd3333"/>
  <circle cx="23.47" cy="21.30" r="0.4" fill="#dd3333"/>
  <circle cx="25.00" cy="15.00" r="0.35" fill="#4466aa"/>
  <circle cx="26.53" cy="21.30" r="0.35" fill="#4466aa"/>
  <circle cx="32.07" cy="17.93" r="0.35" fill="#4466aa"/>
  <circle cx="28.70" cy="23.47" r="0.35" fill="#4466aa"/>
  <circle cx="35.00" cy="25.00" r="0.35" fill="#4466aa"/>
  <circle cx="28.70" cy="26.53" r="0.35" fill="#4466aa"/>
  <circle cx="32.07" cy="32.07" r="0.35" fill="#4466aa"/>
  <circle cx="26.53" cy="28.70" r="0.35" fill="#4466aa"/>
  <circle cx="25.00" cy="35.00" r="0.35" fill="#4466aa"/>
  <circle cx="23.47" cy="28.70" r="0.35" fill="#4466aa"/>
  <circle cx="17.93" cy="32.07" r="0.35" fill="#4466aa"/>
  <circle cx="21.30" cy="26.53" r="0.35" fill="#4466aa"/>
  <circle cx="15.00" cy="25.00" r="0.35" fill="#4466aa"/>
  <circle cx="21.30" cy="23.47" r="0.35" fill="#4466aa"/>
  <circle cx="17.93" cy="17.93" r="0.35" fill="#4466aa"/>
  <circle cx="23.47" cy="21.30" r="0.35" fill="#4466aa"/>
</g>
<g transform="translate(50.00, 0)">
  <text x="25.00" y="55.00" text-anchor="middle">ChordalAxis (37e, 31n)</text>
  <polygon points="25.00,15.00 26.53,21.30 32.07,17.93 28.70,23.47 35.00,25.00 28.70,26.53 32.07,32.07 26.53,28.70 25.00,35.00 23.47,28.70 17.93,32.07 21.30,26.53 15.00,25.00 21.30,23.47 17.93,17.93 23.47,21.30" fill="#f0f4ff" stroke="#4466aa" stroke-width="0.3"/>
  <line x1="27.61" y1="22.39" x2="32.07" y2="17.93" stroke="#dd3333" stroke-width="0.25" stroke-linecap="round"/>
  <line x1="28.70" y1="25.00" x2="35.00" y2="25.00" stroke="#dd3333" stroke-width="0.25" stroke-linecap="round"/>
  <line x1="27.61" y1="27.61" x2="32.07" y2="32.07" stroke="#dd3333" stroke-width="0.25" stroke-linecap="round"/>
  <line x1="25.00" y1="28.70" x2="25.00" y2="35.00" stroke="#dd3333" stroke-width="0.25" stroke-linecap="round"/>
  <line x1="24.79" y1="25.51" x2="26.53" y2="25.00" stroke="#dd3333" stroke-width="0.25" stroke-linecap="round"/>
  <line x1="24.79" y1="25.51" x2="23.92" y2="23.92" stroke="#dd3333" stroke-width="0.25" stroke-linecap="round"/>
  <line x1="24.79" y1="25.51" x2="23.92" y2="27.61" stroke="#dd3333" stroke-width="0.25" stroke-linecap="round"/>
  <line x1="25.00" y1="25.00" x2="23.92" y2="22.39" stroke="#dd3333" stroke-width="0.25" stroke-linecap="round"/>
  <line x1="25.51" y1="23.77" x2="26.53" y2="25.00" stroke="#dd3333" stroke-width="0.25" stroke-linecap="round"/>
  <line x1="25.51" y1="23.77" x2="25.00" y2="25.00" stroke="#dd3333" stroke-width="0.25" stroke-linecap="round"/>
  <line x1="25.51" y1="23.77" x2="25.00" y2="21.30" stroke="#dd3333" stroke-width="0.25" stroke-linecap="round"/>
  <line x1="24.49" y1="26.23" x2="25.00" y2="28.70" stroke="#dd3333" stroke-width="0.25" stroke-linecap="round"/>
  <line x1="24.49" y1="26.23" x2="23.47" y2="25.00" stroke="#dd3333" stroke-width="0.25" stroke-linecap="round"/>
  <line x1="24.49" y1="26.23" x2="25.00" y2="25.00" stroke="#dd3333" stroke-width="0.25" stroke-linecap="round"/>
  <line x1="24.49" y1="23.77" x2="25.00" y2="25.00" stroke="#dd3333" stroke-width="0.25" stroke-linecap="round"/>
  <line x1="24.49" y1="23.77" x2="25.00" y2="21.30" stroke="#dd3333" stroke-width="0.25" stroke-linecap="round"/>
  <line x1="24.49" y1="23.77" x2="23.47" y2="25.00" stroke="#dd3333" stroke-width="0.25" stroke-linecap="round"/>
  <line x1="26.23" y1="22.03" x2="27.61" y2="22.39" stroke="#dd3333" stroke-width="0.25" stroke-linecap="round"/>
  <line x1="26.23" y1="22.03" x2="26.08" y2="22.39" stroke="#dd3333" stroke-width="0.25" stroke-linecap="round"/>
  <line x1="26.23" y1="22.03" x2="25.00" y2="21.30" stroke="#dd3333" stroke-width="0.25" stroke-linecap="round"/>
  <line x1="23.77" y1="23.05" x2="23.92" y2="23.92" stroke="#dd3333" stroke-width="0.25" stroke-linecap="round"/>
  <line x1="23.77" y1="23.05" x2="25.00" y2="21.30" stroke="#dd3333" stroke-width="0.25" stroke-linecap="round"/>
  <line x1="23.77" y1="23.05" x2="22.39" y2="23.92" stroke="#dd3333" stroke-width="0.25" stroke-linecap="round"/>
  <line x1="26.95" y1="23.77" x2="28.70" y2="25.00" stroke="#dd3333" stroke-width="0.25" stroke-linecap="round"/>
  <line x1="26.95" y1="23.77" x2="26.08" y2="23.92" stroke="#dd3333" stroke-width="0.25" stroke-linecap="round"/>
  <line x1="26.95" y1="23.77" x2="26.08" y2="22.39" stroke="#dd3333" stroke-width="0.25" stroke-linecap="round"/>
  <line x1="26.23" y1="25.51" x2="27.61" y2="27.61" stroke="#dd3333" stroke-width="0.25" stroke-linecap="round"/>
  <line x1="26.23" y1="25.51" x2="25.00" y2="25.00" stroke="#dd3333" stroke-width="0.25" stroke-linecap="round"/>
  <line x1="26.23" y1="25.51" x2="26.08" y2="23.92" stroke="#dd3333" stroke-width="0.25" stroke-linecap="round"/>
  <line x1="23.77" y1="25.51" x2="23.92" y2="27.61" stroke="#dd3333" stroke-width="0.25" stroke-linecap="round"/>
  <line x1="23.77" y1="25.51" x2="22.39" y2="23.92" stroke="#dd3333" stroke-width="0.25" stroke-linecap="round"/>
  <line x1="23.77" y1="25.51" x2="25.00" y2="25.00" stroke="#dd3333" stroke-width="0.25" stroke-linecap="round"/>
  <line x1="25.00" y1="21.30" x2="25.00" y2="15.00" stroke="#dd3333" stroke-width="0.25" stroke-linecap="round"/>
  <line x1="23.77" y1="22.03" x2="23.92" y2="22.39" stroke="#dd3333" stroke-width="0.25" stroke-linecap="round"/>
  <line x1="23.77" y1="22.03" x2="22.39" y2="22.39" stroke="#dd3333" stroke-width="0.25" stroke-linecap="round"/>
  <line x1="23.77" y1="22.03" x2="25.00" y2="21.30" stroke="#dd3333" stroke-width="0.25" stroke-linecap="round"/>
  <line x1="22.39" y1="22.39" x2="17.93" y2="17.93" stroke="#dd3333" stroke-width="0.25" stroke-linecap="round"/>
  <circle cx="27.61" cy="22.39" r="0.4" fill="#dd3333"/>
  <circle cx="32.07" cy="17.93" r="0.4" fill="#dd3333"/>
  <circle cx="28.70" cy="25.00" r="0.4" fill="#dd3333"/>
  <circle cx="35.00" cy="25.00" r="0.4" fill="#dd3333"/>
  <circle cx="27.61" cy="27.61" r="0.4" fill="#dd3333"/>
  <circle cx="32.07" cy="32.07" r="0.4" fill="#dd3333"/>
  <circle cx="25.00" cy="28.70" r="0.4" fill="#dd3333"/>
  <circle cx="25.00" cy="35.00" r="0.4" fill="#dd3333"/>
  <circle cx="24.79" cy="25.51" r="0.4" fill="#dd3333"/>
  <circle cx="26.53" cy="25.00" r="0.4" fill="#dd3333"/>
  <circle cx="23.92" cy="23.92" r="0.4" fill="#dd3333"/>
  <circle cx="23.92" cy="27.61" r="0.4" fill="#dd3333"/>
  <circle cx="25.00" cy="25.00" r="0.4" fill="#dd3333"/>
  <circle cx="23.92" cy="22.39" r="0.4" fill="#dd3333"/>
  <circle cx="25.51" cy="23.77" r="0.4" fill="#dd3333"/>
  <circle cx="25.00" cy="21.30" r="0.4" fill="#dd3333"/>
  <circle cx="24.49" cy="26.23" r="0.4" fill="#dd3333"/>
  <circle cx="23.47" cy="25.00" r="0.4" fill="#dd3333"/>
  <circle cx="24.49" cy="23.77" r="0.4" fill="#dd3333"/>
  <circle cx="26.23" cy="22.03" r="0.4" fill="#dd3333"/>
  <circle cx="26.08" cy="22.39" r="0.4" fill="#dd3333"/>
  <circle cx="23.77" cy="23.05" r="0.4" fill="#dd3333"/>
  <circle cx="22.39" cy="23.92" r="0.4" fill="#dd3333"/>
  <circle cx="26.95" cy="23.77" r="0.4" fill="#dd3333"/>
  <circle cx="26.08" cy="23.92" r="0.4" fill="#dd3333"/>
  <circle cx="26.23" cy="25.51" r="0.4" fill="#dd3333"/>
  <circle cx="23.77" cy="25.51" r="0.4" fill="#dd3333"/>
  <circle cx="25.00" cy="15.00" r="0.4" fill="#dd3333"/>
  <circle cx="23.77" cy="22.03" r="0.4" fill="#dd3333"/>
  <circle cx="22.39" cy="22.39" r="0.4" fill="#dd3333"/>
  <circle cx="17.93" cy="17.93" r="0.4" fill="#dd3333"/>
  <circle cx="25.00" cy="15.00" r="0.35" fill="#4466aa"/>
  <circle cx="26.53" cy="21.30" r="0.35" fill="#4466aa"/>
  <circle cx="32.07" cy="17.93" r="0.35" fill="#4466aa"/>
  <circle cx="28.70" cy="23.47" r="0.35" fill="#4466aa"/>
  <circle cx="35.00" cy="25.00" r="0.35" fill="#4466aa"/>
  <circle cx="28.70" cy="26.53" r="0.35" fill="#4466aa"/>
  <circle cx="32.07" cy="32.07" r="0.35" fill="#4466aa"/>
  <circle cx="26.53" cy="28.70" r="0.35" fill="#4466aa"/>
  <circle cx="25.00" cy="35.00" r="0.35" fill="#4466aa"/>
  <circle cx="23.47" cy="28.70" r="0.35" fill="#4466aa"/>
  <circle cx="17.93" cy="32.07" r="0.35" fill="#4466aa"/>
  <circle cx="21.30" cy="26.53" r="0.35" fill="#4466aa"/>
  <circle cx="15.00" cy="25.00" r="0.35" fill="#4466aa"/>
  <circle cx="21.30" cy="23.47" r="0.35" fill="#4466aa"/>
  <circle cx="17.93" cy="17.93" r="0.35" fill="#4466aa"/>
  <circle cx="23.47" cy="21.30" r="0.35" fill="#4466aa"/>
</g>
<g transform="translate(100.00, 0)">
  <text x="25.00" y="55.00" text-anchor="middle">Voronoi (133e, 151n)</text>
  <polygon points="25.00,15.00 26.53,21.30 32.07,17.93 28.70,23.47 35.00,25.00 28.70,26.53 32.07,32.07 26.53,28.70 25.00,35.00 23.47,28.70 17.93,32.07 21.30,26.53 15.00,25.00 21.30,23.47 17.93,17.93 23.47,21.30" fill="#f0f4ff" stroke="#4466aa" stroke-width="0.3"/>
  <line x1="30.89" y1="19.11" x2="31.36" y2="18.64" stroke="#dd3333" stroke-width="0.25" stroke-linecap="round"/>
  <line x1="31.84" y1="18.16" x2="31.36" y2="18.64" stroke="#dd3333" stroke-width="0.25" stroke-linecap="round"/>
  <line x1="31.36" y1="18.64" x2="31.36" y2="18.64" stroke="#dd3333" stroke-width="0.25" stroke-linecap="round"/>
  <line x1="30.89" y1="19.11" x2="30.89" y2="19.11" stroke="#dd3333" stroke-width="0.25" stroke-linecap="round"/>
  <line x1="30.42" y1="19.58" x2="30.89" y2="19.11" stroke="#dd3333" stroke-width="0.25" stroke-linecap="round"/>
  <line x1="30.42" y1="19.58" x2="30.42" y2="19.58" stroke="#dd3333" stroke-width="0.25" stroke-linecap="round"/>
  <line x1="29.95" y1="20.05" x2="30.42" y2="19.58" stroke="#dd3333" stroke-width="0.25" stroke-linecap="round"/>
  <line x1="29.95" y1="20.05" x2="29.95" y2="20.05" stroke="#dd3333" stroke-width="0.25" stroke-linecap="round"/>
  <line x1="29.47" y1="20.53" x2="29.95" y2="20.05" stroke="#dd3333" stroke-width="0.25" stroke-linecap="round"/>
  <line x1="29.47" y1="20.53" x2="29.47" y2="20.53" stroke="#dd3333" stroke-width="0.25" stroke-linecap="round"/>
  <line x1="29.00" y1="21.00" x2="29.47" y2="20.53" stroke="#dd3333" stroke-width="0.25" stroke-linecap="round"/>
  <line x1="29.00" y1="21.00" x2="29.00" y2="21.00" stroke="#dd3333" stroke-width="0.25" stroke-linecap="round"/>
  <line x1="28.53" y1="21.47" x2="29.00" y2="21.00" stroke="#dd3333" stroke-width="0.25" stroke-linecap="round"/>
  <line x1="28.53" y1="21.47" x2="28.53" y2="21.47" stroke="#dd3333" stroke-width="0.25" stroke-linecap="round"/>
  <line x1="28.06" y1="21.94" x2="28.53" y2="21.47" stroke="#dd3333" stroke-width="0.25" stroke-linecap="round"/>
  <line x1="28.06" y1="21.94" x2="28.06" y2="21.94" stroke="#dd3333" stroke-width="0.25" stroke-linecap="round"/>
  <line x1="28.06" y1="21.94" x2="27.59" y2="22.41" stroke="#dd3333" stroke-width="0.25" stroke-linecap="round"/>
  <line x1="27.59" y1="22.41" x2="27.59" y2="22.41" stroke="#dd3333" stroke-width="0.25" stroke-linecap="round"/>
  <line x1="33.33" y1="25.00" x2="34.00" y2="25.00" stroke="#dd3333" stroke-width="0.25" stroke-linecap="round"/>
  <line x1="34.67" y1="25.00" x2="34.00" y2="25.00" stroke="#dd3333" stroke-width="0.25" stroke-linecap="round"/>
  <line x1="34.00" y1="25.00" x2="34.00" y2="25.00" stroke="#dd3333" stroke-width="0.25" stroke-linecap="round"/>
  <line x1="33.33" y1="25.00" x2="33.33" y2="25.00" stroke="#dd3333" stroke-width="0.25" stroke-linecap="round"/>
  <line x1="32.66" y1="25.00" x2="33.33" y2="25.00" stroke="#dd3333" stroke-width="0.25" stroke-linecap="round"/>
  <line x1="32.66" y1="25.00" x2="32.66" y2="25.00" stroke="#dd3333" stroke-width="0.25" stroke-linecap="round"/>
  <line x1="32.00" y1="25.00" x2="32.66" y2="25.00" stroke="#dd3333" stroke-width="0.25" stroke-linecap="round"/>
  <line x1="32.00" y1="25.00" x2="32.00" y2="25.00" stroke="#dd3333" stroke-width="0.25" stroke-linecap="round"/>
  <line x1="31.33" y1="25.00" x2="32.00" y2="25.00" stroke="#dd3333" stroke-width="0.25" stroke-linecap="round"/>
  <line x1="31.33" y1="25.00" x2="31.33" y2="25.00" stroke="#dd3333" stroke-width="0.25" stroke-linecap="round"/>
  <line x1="31.33" y1="25.00" x2="30.66" y2="25.00" stroke="#dd3333" stroke-width="0.25" stroke-linecap="round"/>
  <line x1="30.66" y1="25.00" x2="29.99" y2="25.00" stroke="#dd3333" stroke-width="0.25" stroke-linecap="round"/>
  <line x1="29.99" y1="25.00" x2="29.99" y2="25.00" stroke="#dd3333" stroke-width="0.25" stroke-linecap="round"/>
  <line x1="29.99" y1="25.00" x2="29.33" y2="25.00" stroke="#dd3333" stroke-width="0.25" stroke-linecap="round"/>
  <line x1="29.33" y1="25.00" x2="29.33" y2="25.00" stroke="#dd3333" stroke-width="0.25" stroke-linecap="round"/>
  <line x1="29.33" y1="25.00" x2="28.66" y2="25.00" stroke="#dd3333" stroke-width="0.25" stroke-linecap="round"/>
  <line x1="28.66" y1="25.00" x2="28.66" y2="25.00" stroke="#dd3333" stroke-width="0.25" stroke-linecap="round"/>
  <line x1="31.36" y1="31.36" x2="31.84" y2="31.84" stroke="#dd3333" stroke-width="0.25" stroke-linecap="round"/>
  <line x1="31.36" y1="31.36" x2="31.36" y2="31.36" stroke="#dd3333" stroke-width="0.25" stroke-linecap="round"/>
  <line x1="30.89" y1="30.89" x2="31.36" y2="31.36" stroke="#dd3333" stroke-width="0.25" stroke-linecap="round"/>
  <line x1="30.89" y1="30.89" x2="30.89" y2="30.89" stroke="#dd3333" stroke-width="0.25" stroke-linecap="round"/>
  <line x1="30.42" y1="30.42" x2="30.89" y2="30.89" stroke="#dd3333" stroke-width="0.25" stroke-linecap="round"/>
  <line x1="29.95" y1="29.95" x2="30.42" y2="30.42" stroke="#dd3333" stroke-width="0.25" stroke-linecap="round"/>
  <line x1="29.95" y1="29.95" x2="29.95" y2="29.95" stroke="#dd3333" stroke-width="0.25" stroke-linecap="round"/>
  <line x1="29.47" y1="29.47" x2="29.95" y2="29.95" stroke="#dd3333" stroke-width="0.25" stroke-linecap="round"/>
  <line x1="29.47" y1="29.47" x2="29.47" y2="29.47" stroke="#dd3333" stroke-width="0.25" stroke-linecap="round"/>
  <line x1="29.00" y1="29.00" x2="29.47" y2="29.47" stroke="#dd3333" stroke-width="0.25" stroke-linecap="round"/>
  <line x1="29.00" y1="29.00" x2="29.00" y2="29.00" stroke="#dd3333" stroke-width="0.25" stroke-linecap="round"/>
  <line x1="28.53" y1="28.53" x2="29.00" y2="29.00" stroke="#dd3333" stroke-width="0.25" stroke-linecap="round"/>
  <line x1="28.53" y1="28.53" x2="28.53" y2="28.53" stroke="#dd3333" stroke-width="0.25" stroke-linecap="round"/>
  <line x1="28.06" y1="28.06" x2="28.53" y2="28.53" stroke="#dd3333" stroke-width="0.25" stroke-linecap="round"/>
  <line x1="28.06" y1="28.06" x2="27.59" y2="27.59" stroke="#dd3333" stroke-width="0.25" stroke-linecap="round"/>
  <line x1="27.59" y1="27.59" x2="27.59" y2="27.59" stroke="#dd3333" stroke-width="0.25" stroke-linecap="round"/>
  <line x1="25.00" y1="33.33" x2="25.00" y2="34.00" stroke="#dd3333" stroke-width="0.25" stroke-linecap="round"/>
  <line x1="25.00" y1="34.67" x2="25.00" y2="34.00" stroke="#dd3333" stroke-width="0.25" stroke-linecap="round"/>
  <line x1="25.00" y1="33.33" x2="25.00" y2="33.33" stroke="#dd3333" stroke-width="0.25" stroke-linecap="round"/>
  <line x1="25.00" y1="32.66" x2="25.00" y2="33.33" stroke="#dd3333" stroke-width="0.25" stroke-linecap="round"/>
  <line x1="25.00" y1="32.66" x2="25.00" y2="32.66" stroke="#dd3333" stroke-width="0.25" stroke-linecap="round"/>
  <line x1="25.00" y1="32.00" x2="25.00" y2="32.66" stroke="#dd3333" stroke-width="0.25" stroke-linecap="round"/>
  <line x1="25.00" y1="32.00" x2="25.00" y2="32.00" stroke="#dd3333" stroke-width="0.25" stroke-linecap="round"/>
  <line x1="25.00" y1="31.33" x2="25.00" y2="32.00" stroke="#dd3333" stroke-width="0.25" stroke-linecap="round"/>
  <line x1="25.00" y1="31.33" x2="25.00" y2="31.33" stroke="#dd3333" stroke-width="0.25" stroke-linecap="round"/>
  <line x1="25.00" y1="31.33" x2="25.00" y2="30.66" stroke="#dd3333" stroke-width="0.25" stroke-linecap="round"/>
  <line x1="25.00" y1="29.33" x2="25.00" y2="29.99" stroke="#dd3333" stroke-width="0.25" stroke-linecap="round"/>
  <line x1="25.00" y1="30.66" x2="25.00" y2="29.99" stroke="#dd3333" stroke-width="0.25" stroke-linecap="round"/>
  <line x1="25.00" y1="29.33" x2="25.00" y2="29.33" stroke="#dd3333" stroke-width="0.25" stroke-linecap="round"/>
  <line x1="25.00" y1="29.33" x2="25.00" y2="28.66" stroke="#dd3333" stroke-width="0.25" stroke-linecap="round"/>
  <line x1="19.11" y1="30.89" x2="18.64" y2="31.36" stroke="#dd3333" stroke-width="0.25" stroke-linecap="round"/>
  <line x1="18.16" y1="31.84" x2="18.64" y2="31.36" stroke="#dd3333" stroke-width="0.25" stroke-linecap="round"/>
  <line x1="18.64" y1="31.36" x2="18.64" y2="31.36" stroke="#dd3333" stroke-width="0.25" stroke-linecap="round"/>
  <line x1="19.11" y1="30.89" x2="19.11" y2="30.89" stroke="#dd3333" stroke-width="0.25" stroke-linecap="round"/>
  <line x1="19.58" y1="30.42" x2="19.11" y2="30.89" stroke="#dd3333" stroke-width="0.25" stroke-linecap="round"/>
  <line x1="19.58" y1="30.42" x2="19.58" y2="30.42" stroke="#dd3333" stroke-width="0.25" stroke-linecap="round"/>
  <line x1="20.05" y1="29.95" x2="19.58" y2="30.42" stroke="#dd3333" stroke-width="0.25" stroke-linecap="round"/>
  <line x1="20.05" y1="29.95" x2="20.05" y2="29.95" stroke="#dd3333" stroke-width="0.25" stroke-linecap="round"/>
  <line x1="20.53" y1="29.47" x2="20.05" y2="29.95" stroke="#dd3333" stroke-width="0.25" stroke-linecap="round"/>
  <line x1="20.53" y1="29.47" x2="20.53" y2="29.47" stroke="#dd3333" stroke-width="0.25" stroke-linecap="round"/>
  <line x1="21.00" y1="29.00" x2="20.53" y2="29.47" stroke="#dd3333" stroke-width="0.25" stroke-linecap="round"/>
  <line x1="21.00" y1="29.00" x2="21.00" y2="29.00" stroke="#dd3333" stroke-width="0.25" stroke-linecap="round"/>
  <line x1="21.47" y1="28.53" x2="21.00" y2="29.00" stroke="#dd3333" stroke-width="0.25" stroke-linecap="round"/>
  <line x1="21.47" y1="28.53" x2="21.47" y2="28.53" stroke="#dd3333" stroke-width="0.25" stroke-linecap="round"/>
  <line x1="21.94" y1="28.06" x2="21.47" y2="28.53" stroke="#dd3333" stroke-width="0.25" stroke-linecap="round"/>
  <line x1="21.94" y1="28.06" x2="21.94" y2="28.06" stroke="#dd3333" stroke-width="0.25" stroke-linecap="round"/>
  <line x1="21.94" y1="28.06" x2="22.41" y2="27.59" stroke="#dd3333" stroke-width="0.25" stroke-linecap="round"/>
  <line x1="16.67" y1="25.00" x2="16.00" y2="25.00" stroke="#dd3333" stroke-width="0.25" stroke-linecap="round"/>
  <line x1="15.33" y1="25.00" x2="16.00" y2="25.00" stroke="#dd3333" stroke-width="0.25" stroke-linecap="round"/>
  <line x1="16.00" y1="25.00" x2="16.00" y2="25.00" stroke="#dd3333" stroke-width="0.25" stroke-linecap="round"/>
  <line x1="16.67" y1="25.00" x2="16.67" y2="25.00" stroke="#dd3333" stroke-width="0.25" stroke-linecap="round"/>
  <line x1="17.34" y1="25.00" x2="16.67" y2="25.00" stroke="#dd3333" stroke-width="0.25" stroke-linecap="round"/>
  <line x1="17.34" y1="25.00" x2="17.34" y2="25.00" stroke="#dd3333" stroke-width="0.25" stroke-linecap="round"/>
  <line x1="18.00" y1="25.00" x2="17.34" y2="25.00" stroke="#dd3333" stroke-width="0.25" stroke-linecap="round"/>
  <line x1="18.00" y1="25.00" x2="18.00" y2="25.00" stroke="#dd3333" stroke-width="0.25" stroke-linecap="round"/>
  <line x1="18.67" y1="25.00" x2="18.00" y2="25.00" stroke="#dd3333" stroke-width="0.25" stroke-linecap="round"/>
  <line x1="18.67" y1="25.00" x2="18.67" y2="25.00" stroke="#dd3333" stroke-width="0.25" stroke-linecap="round"/>
  <line x1="18.67" y1="25.00" x2="19.34" y2="25.00" stroke="#dd3333" stroke-width="0.25" stroke-linecap="round"/>
  <line x1="19.34" y1="25.00" x2="20.01" y2="25.00" stroke="#dd3333" stroke-width="0.25" stroke-linecap="round"/>
  <line x1="20.01" y1="25.00" x2="20.01" y2="25.00" stroke="#dd3333" stroke-width="0.25" stroke-linecap="round"/>
  <line x1="20.01" y1="25.00" x2="20.67" y2="25.00" stroke="#dd3333" stroke-width="0.25" stroke-linecap="round"/>
  <line x1="20.67" y1="25.00" x2="20.67" y2="25.00" stroke="#dd3333" stroke-width="0.25" stroke-linecap="round"/>
  <line x1="20.67" y1="25.00" x2="21.34" y2="25.00" stroke="#dd3333" stroke-width="0.25" stroke-linecap="round"/>
  <line x1="18.64" y1="18.64" x2="18.16" y2="18.16" stroke="#dd3333" stroke-width="0.25" stroke-linecap="round"/>
  <line x1="18.64" y1="18.64" x2="18.64" y2="18.64" stroke="#dd3333" stroke-width="0.25" stroke-linecap="round"/>
  <line x1="19.11" y1="19.11" x2="18.64" y2="18.64" stroke="#dd3333" stroke-width="0.25" stroke-linecap="round"/>
  <line x1="19.11" y1="19.11" x2="19.11" y2="19.11" stroke="#dd3333" stroke-width="0.25" stroke-linecap="round"/>
  <line x1="19.58" y1="19.58" x2="19.11" y2="19.11" stroke="#dd3333" stroke-width="0.25" stroke-linecap="round"/>
  <line x1="20.05" y1="20.05" x2="19.58" y2="19.58" stroke="#dd3333" stroke-width="0.25" stroke-linecap="round"/>
  <line x1="20.05" y1="20.05" x2="20.05" y2="20.05" stroke="#dd3333" stroke-width="0.25" stroke-linecap="round"/>
  <line x1="20.53" y1="20.53" x2="20.05" y2="20.05" stroke="#dd3333" stroke-width="0.25" stroke-linecap="round"/>
  <line x1="20.53" y1="20.53" x2="20.53" y2="20.53" stroke="#dd3333" stroke-width="0.25" stroke-linecap="round"/>
  <line x1="21.00" y1="21.00" x2="20.53" y2="20.53" stroke="#dd3333" stroke-width="0.25" stroke-linecap="round"/>
  <line x1="21.00" y1="21.00" x2="21.00" y2="21.00" stroke="#dd3333" stroke-width="0.25" stroke-linecap="round"/>
  <line x1="21.47" y1="21.47" x2="21.00" y2="21.00" stroke="#dd3333" stroke-width="0.25" stroke-linecap="round"/>
  <line x1="21.47" y1="21.47" x2="21.47" y2="21.47" stroke="#dd3333" stroke-width="0.25" stroke-linecap="round"/>
  <line x1="21.94" y1="21.94" x2="21.47" y2="21.47" stroke="#dd3333" stroke-width="0.25" stroke-linecap="round"/>
  <line x1="25.00" y1="28.66" x2="25.00" y2="25.00" stroke="#dd3333" stroke-width="0.25" stroke-linecap="round"/>
  <line x1="27.59" y1="22.41" x2="25.00" y2="25.00" stroke="#dd3333" stroke-width="0.25" stroke-linecap="round"/>
  <line x1="28.66" y1="25.00" x2="25.00" y2="25.00" stroke="#dd3333" stroke-width="0.25" stroke-linecap="round"/>
  <line x1="27.59" y1="27.59" x2="25.00" y2="25.00" stroke="#dd3333" stroke-width="0.25" stroke-linecap="round"/>
  <line x1="25.00" y1="25.00" x2="22.41" y2="22.41" stroke="#dd3333" stroke-width="0.25" stroke-linecap="round"/>
  <line x1="21.94" y1="21.94" x2="22.41" y2="22.41" stroke="#dd3333" stroke-width="0.25" stroke-linecap="round"/>
  <line x1="22.41" y1="22.41" x2="22.41" y2="22.41" stroke="#dd3333" stroke-width="0.25" stroke-linecap="round"/>
  <line x1="25.00" y1="25.00" x2="25.00" y2="21.34" stroke="#dd3333" stroke-width="0.25" stroke-linecap="round"/>
  <line x1="25.00" y1="21.34" x2="25.00" y2="20.67" stroke="#dd3333" stroke-width="0.25" stroke-linecap="round"/>
  <line x1="25.00" y1="20.01" x2="25.00" y2="20.67" stroke="#dd3333" stroke-width="0.25" stroke-linecap="round"/>
  <line x1="25.00" y1="18.67" x2="25.00" y2="19.34" stroke="#dd3333" stroke-width="0.25" stroke-linecap="round"/>
  <line x1="25.00" y1="20.01" x2="25.00" y2="19.34" stroke="#dd3333" stroke-width="0.25" stroke-linecap="round"/>
  <line x1="25.00" y1="18.67" x2="25.00" y2="18.67" stroke="#dd3333" stroke-width="0.25" stroke-linecap="round"/>
  <line x1="25.00" y1="18.00" x2="25.00" y2="18.67" stroke="#dd3333" stroke-width="0.25" stroke-linecap="round"/>
  <line x1="25.00" y1="18.00" x2="25.00" y2="18.00" stroke="#dd3333" stroke-width="0.25" stroke-linecap="round"/>
  <line x1="25.00" y1="17.34" x2="25.00" y2="18.00" stroke="#dd3333" stroke-width="0.25" stroke-linecap="round"/>
  <line x1="25.00" y1="17.34" x2="25.00" y2="17.34" stroke="#dd3333" stroke-width="0.25" stroke-linecap="round"/>
  <line x1="25.00" y1="16.67" x2="25.00" y2="17.34" stroke="#dd3333" stroke-width="0.25" stroke-linecap="round"/>
  <line x1="25.00" y1="16.67" x2="25.00" y2="16.67" stroke="#dd3333" stroke-width="0.25" stroke-linecap="round"/>
  <line x1="25.00" y1="15.33" x2="25.00" y2="16.00" stroke="#dd3333" stroke-width="0.25" stroke-linecap="round"/>
  <line x1="25.00" y1="16.67" x2="25.00" y2="16.00" stroke="#dd3333" stroke-width="0.25" stroke-linecap="round"/>
  <circle cx="30.89" cy="19.11" r="0.4" fill="#dd3333"/>
  <circle cx="31.36" cy="18.64" r="0.4" fill="#dd3333"/>
  <circle cx="31.84" cy="18.16" r="0.4" fill="#dd3333"/>
  <circle cx="31.36" cy="18.64" r="0.4" fill="#dd3333"/>
  <circle cx="30.89" cy="19.11" r="0.4" fill="#dd3333"/>
  <circle cx="30.42" cy="19.58" r="0.4" fill="#dd3333"/>
  <circle cx="30.42" cy="19.58" r="0.4" fill="#dd3333"/>
  <circle cx="29.95" cy="20.05" r="0.4" fill="#dd3333"/>
  <circle cx="29.95" cy="20.05" r="0.4" fill="#dd3333"/>
  <circle cx="29.47" cy="20.53" r="0.4" fill="#dd3333"/>
  <circle cx="29.47" cy="20.53" r="0.4" fill="#dd3333"/>
  <circle cx="29.00" cy="21.00" r="0.4" fill="#dd3333"/>
  <circle cx="29.00" cy="21.00" r="0.4" fill="#dd3333"/>
  <circle cx="28.53" cy="21.47" r="0.4" fill="#dd3333"/>
  <circle cx="28.53" cy="21.47" r="0.4" fill="#dd3333"/>
  <circle cx="28.06" cy="21.94" r="0.4" fill="#dd3333"/>
  <circle cx="28.06" cy="21.94" r="0.4" fill="#dd3333"/>
  <circle cx="27.59" cy="22.41" r="0.4" fill="#dd3333"/>
  <circle cx="27.59" cy="22.41" r="0.4" fill="#dd3333"/>
  <circle cx="33.33" cy="25.00" r="0.4" fill="#dd3333"/>
  <circle cx="34.00" cy="25.00" r="0.4" fill="#dd3333"/>
  <circle cx="34.67" cy="25.00" r="0.4" fill="#dd3333"/>
  <circle cx="34.00" cy="25.00" r="0.4" fill="#dd3333"/>
  <circle cx="33.33" cy="25.00" r="0.4" fill="#dd3333"/>
  <circle cx="32.66" cy="25.00" r="0.4" fill="#dd3333"/>
  <circle cx="32.66" cy="25.00" r="0.4" fill="#dd3333"/>
  <circle cx="32.00" cy="25.00" r="0.4" fill="#dd3333"/>
  <circle cx="32.00" cy="25.00" r="0.4" fill="#dd3333"/>
  <circle cx="31.33" cy="25.00" r="0.4" fill="#dd3333"/>
  <circle cx="31.33" cy="25.00" r="0.4" fill="#dd3333"/>
  <circle cx="30.66" cy="25.00" r="0.4" fill="#dd3333"/>
  <circle cx="30.66" cy="25.00" r="0.4" fill="#dd3333"/>
  <circle cx="29.99" cy="25.00" r="0.4" fill="#dd3333"/>
  <circle cx="29.99" cy="25.00" r="0.4" fill="#dd3333"/>
  <circle cx="29.33" cy="25.00" r="0.4" fill="#dd3333"/>
  <circle cx="29.33" cy="25.00" r="0.4" fill="#dd3333"/>
  <circle cx="28.66" cy="25.00" r="0.4" fill="#dd3333"/>
  <circle cx="28.66" cy="25.00" r="0.4" fill="#dd3333"/>
  <circle cx="31.36" cy="31.36" r="0.4" fill="#dd3333"/>
  <circle cx="31.84" cy="31.84" r="0.4" fill="#dd3333"/>
  <circle cx="31.36" cy="31.36" r="0.4" fill="#dd3333"/>
  <circle cx="30.89" cy="30.89" r="0.4" fill="#dd3333"/>
  <circle cx="30.89" cy="30.89" r="0.4" fill="#dd3333"/>
  <circle cx="30.42" cy="30.42" r="0.4" fill="#dd3333"/>
  <circle cx="29.95" cy="29.95" r="0.4" fill="#dd3333"/>
  <circle cx="30.42" cy="30.42" r="0.4" fill="#dd3333"/>
  <circle cx="29.95" cy="29.95" r="0.4" fill="#dd3333"/>
  <circle cx="29.47" cy="29.47" r="0.4" fill="#dd3333"/>
  <circle cx="29.47" cy="29.47" r="0.4" fill="#dd3333"/>
  <circle cx="29.00" cy="29.00" r="0.4" fill="#dd3333"/>
  <circle cx="29.00" cy="29.00" r="0.4" fill="#dd3333"/>
  <circle cx="28.53" cy="28.53" r="0.4" fill="#dd3333"/>
  <circle cx="28.53" cy="28.53" r="0.4" fill="#dd3333"/>
  <circle cx="28.06" cy="28.06" r="0.4" fill="#dd3333"/>
  <circle cx="28.06" cy="28.06" r="0.4" fill="#dd3333"/>
  <circle cx="27.59" cy="27.59" r="0.4" fill="#dd3333"/>
  <circle cx="27.59" cy="27.59" r="0.4" fill="#dd3333"/>
  <circle cx="25.00" cy="33.33" r="0.4" fill="#dd3333"/>
  <circle cx="25.00" cy="34.00" r="0.4" fill="#dd3333"/>
  <circle cx="25.00" cy="34.67" r="0.4" fill="#dd3333"/>
  <circle cx="25.00" cy="33.33" r="0.4" fill="#dd3333"/>
  <circle cx="25.00" cy="32.66" r="0.4" fill="#dd3333"/>
  <circle cx="25.00" cy="32.66" r="0.4" fill="#dd3333"/>
  <circle cx="25.00" cy="32.00" r="0.4" fill="#dd3333"/>
  <circle cx="25.00" cy="32.00" r="0.4" fill="#dd3333"/>
  <circle cx="25.00" cy="31.33" r="0.4" fill="#dd3333"/>
  <circle cx="25.00" cy="31.33" r="0.4" fill="#dd3333"/>
  <circle cx="25.00" cy="30.66" r="0.4" fill="#dd3333"/>
  <circle cx="25.00" cy="29.33" r="0.4" fill="#dd3333"/>
  <circle cx="25.00" cy="29.99" r="0.4" fill="#dd3333"/>
  <circle cx="25.00" cy="30.66" r="0.4" fill="#dd3333"/>
  <circle cx="25.00" cy="29.33" r="0.4" fill="#dd3333"/>
  <circle cx="25.00" cy="28.66" r="0.4" fill="#dd3333"/>
  <circle cx="19.11" cy="30.89" r="0.4" fill="#dd3333"/>
  <circle cx="18.64" cy="31.36" r="0.4" fill="#dd3333"/>
  <circle cx="18.16" cy="31.84" r="0.4" fill="#dd3333"/>
  <circle cx="18.64" cy="31.36" r="0.4" fill="#dd3333"/>
  <circle cx="19.11" cy="30.89" r="0.4" fill="#dd3333"/>
  <circle cx="19.58" cy="30.42" r="0.4" fill="#dd3333"/>
  <circle cx="19.58" cy="30.42" r="0.4" fill="#dd3333"/>
  <circle cx="20.05" cy="29.95" r="0.4" fill="#dd3333"/>
  <circle cx="20.05" cy="29.95" r="0.4" fill="#dd3333"/>
  <circle cx="20.53" cy="29.47" r="0.4" fill="#dd3333"/>
  <circle cx="20.53" cy="29.47" r="0.4" fill="#dd3333"/>
  <circle cx="21.00" cy="29.00" r="0.4" fill="#dd3333"/>
  <circle cx="21.00" cy="29.00" r="0.4" fill="#dd3333"/>
  <circle cx="21.47" cy="28.53" r="0.4" fill="#dd3333"/>
  <circle cx="21.47" cy="28.53" r="0.4" fill="#dd3333"/>
  <circle cx="21.94" cy="28.06" r="0.4" fill="#dd3333"/>
  <circle cx="21.94" cy="28.06" r="0.4" fill="#dd3333"/>
  <circle cx="22.41" cy="27.59" r="0.4" fill="#dd3333"/>
  <circle cx="16.67" cy="25.00" r="0.4" fill="#dd3333"/>
  <circle cx="16.00" cy="25.00" r="0.4" fill="#dd3333"/>
  <circle cx="15.33" cy="25.00" r="0.4" fill="#dd3333"/>
  <circle cx="16.00" cy="25.00" r="0.4" fill="#dd3333"/>
  <circle cx="16.67" cy="25.00" r="0.4" fill="#dd3333"/>
  <circle cx="17.34" cy="25.00" r="0.4" fill="#dd3333"/>
  <circle cx="17.34" cy="25.00" r="0.4" fill="#dd3333"/>
  <circle cx="18.00" cy="25.00" r="0.4" fill="#dd3333"/>
  <circle cx="18.00" cy="25.00" r="0.4" fill="#dd3333"/>
  <circle cx="18.67" cy="25.00" r="0.4" fill="#dd3333"/>
  <circle cx="18.67" cy="25.00" r="0.4" fill="#dd3333"/>
  <circle cx="19.34" cy="25.00" r="0.4" fill="#dd3333"/>
  <circle cx="19.34" cy="25.00" r="0.4" fill="#dd3333"/>
  <circle cx="20.01" cy="25.00" r="0.4" fill="#dd3333"/>
  <circle cx="20.01" cy="25.00" r="0.4" fill="#dd3333"/>
  <circle cx="20.67" cy="25.00" r="0.4" fill="#dd3333"/>
  <circle cx="20.67" cy="25.00" r="0.4" fill="#dd3333"/>
  <circle cx="21.34" cy="25.00" r="0.4" fill="#dd3333"/>
  <circle cx="18.64" cy="18.64" r="0.4" fill="#dd3333"/>
  <circle cx="18.16" cy="18.16" r="0.4" fill="#dd3333"/>
  <circle cx="18.64" cy="18.64" r="0.4" fill="#dd3333"/>
  <circle cx="19.11" cy="19.11" r="0.4" fill="#dd3333"/>
  <circle cx="19.11" cy="19.11" r="0.4" fill="#dd3333"/>
  <circle cx="19.58" cy="19.58" r="0.4" fill="#dd3333"/>
  <circle cx="20.05" cy="20.05" r="0.4" fill="#dd3333"/>
  <circle cx="19.58" cy="19.58" r="0.4" fill="#dd3333"/>
  <circle cx="20.05" cy="20.05" r="0.4" fill="#dd3333"/>
  <circle cx="20.53" cy="20.53" r="0.4" fill="#dd3333"/>
  <circle cx="20.53" cy="20.53" r="0.4" fill="#dd3333"/>
  <circle cx="21.00" cy="21.00" r="0.4" fill="#dd3333"/>
  <circle cx="21.00" cy="21.00" r="0.4" fill="#dd3333"/>
  <circle cx="21.47" cy="21.47" r="0.4" fill="#dd3333"/>
  <circle cx="21.47" cy="21.47" r="0.4" fill="#dd3333"/>
  <circle cx="21.94" cy="21.94" r="0.4" fill="#dd3333"/>
  <circle cx="25.00" cy="28.66" r="0.4" fill="#dd3333"/>
  <circle cx="25.00" cy="25.00" r="0.4" fill="#dd3333"/>
  <circle cx="25.00" cy="25.00" r="0.4" fill="#dd3333"/>
  <circle cx="25.00" cy="25.00" r="0.4" fill="#dd3333"/>
  <circle cx="25.00" cy="25.00" r="0.4" fill="#dd3333"/>
  <circle cx="25.00" cy="25.00" r="0.4" fill="#dd3333"/>
  <circle cx="22.41" cy="22.41" r="0.4" fill="#dd3333"/>
  <circle cx="21.94" cy="21.94" r="0.4" fill="#dd3333"/>
  <circle cx="22.41" cy="22.41" r="0.4" fill="#dd3333"/>
  <circle cx="25.00" cy="21.34" r="0.4" fill="#dd3333"/>
  <circle cx="25.00" cy="21.34" r="0.4" fill="#dd3333"/>
  <circle cx="25.00" cy="20.67" r="0.4" fill="#dd3333"/>
  <circle cx="25.00" cy="20.01" r="0.4" fill="#dd3333"/>
  <circle cx="25.00" cy="20.67" r="0.4" fill="#dd3333"/>
  <circle cx="25.00" cy="18.67" r="0.4" fill="#dd3333"/>
  <circle cx="25.00" cy="19.34" r="0.4" fill="#dd3333"/>
  <circle cx="25.00" cy="18.67" r="0.4" fill="#dd3333"/>
  <circle cx="25.00" cy="18.00" r="0.4" fill="#dd3333"/>
  <circle cx="25.00" cy="18.00" r="0.4" fill="#dd3333"/>
  <circle cx="25.00" cy="17.34" r="0.4" fill="#dd3333"/>
  <circle cx="25.00" cy="17.34" r="0.4" fill="#dd3333"/>
  <circle cx="25.00" cy="16.67" r="0.4" fill="#dd3333"/>
  <circle cx="25.00" cy="16.67" r="0.4" fill="#dd3333"/>
  <circle cx="25.00" cy="15.33" r="0.4" fill="#dd3333"/>
  <circle cx="25.00" cy="16.00" r="0.4" fill="#dd3333"/>
  <circle cx="25.00" cy="16.00" r="0.4" fill="#dd3333"/>
  <circle cx="25.00" cy="15.00" r="0.35" fill="#4466aa"/>
  <circle cx="26.53" cy="21.30" r="0.35" fill="#4466aa"/>
  <circle cx="32.07" cy="17.93" r="0.35" fill="#4466aa"/>
  <circle cx="28.70" cy="23.47" r="0.35" fill="#4466aa"/>
  <circle cx="35.00" cy="25.00" r="0.35" fill="#4466aa"/>
  <circle cx="28.70" cy="26.53" r="0.35" fill="#4466aa"/>
  <circle cx="32.07" cy="32.07" r="0.35" fill="#4466aa"/>
  <circle cx="26.53" cy="28.70" r="0.35" fill="#4466aa"/>
  <circle cx="25.00" cy="35.00" r="0.35" fill="#4466aa"/>
  <circle cx="23.47" cy="28.70" r="0.35" fill="#4466aa"/>
  <circle cx="17.93" cy="32.07" r="0.35" fill="#4466aa"/>
  <circle cx="21.30" cy="26.53" r="0.35" fill="#4466aa"/>
  <circle cx="15.00" cy="25.00" r="0.35" fill="#4466aa"/>
  <circle cx="21.30" cy="23.47" r="0.35" fill="#4466aa"/>
  <circle cx="17.93" cy="17.93" r="0.35" fill="#4466aa"/>
  <circle cx="23.47" cy="21.30" r="0.35" fill="#4466aa"/>
</g>
</svg>
