<svg xmlns="http://www.w3.org/2000/svg" width="50" height="50" viewBox="0 0 50 50"><path fill="#e8edff" stroke="#4466aa" stroke-width="0.3" d="M25,15 L26.530733108520508,21.304481506347656 L32.071067810058594,17.928932189941406 L28.695518493652344,23.469266891479492 L35,25 L28.695518493652344,26.530733108520508 L32.071067810058594,32.071067810058594 L26.530733108520508,28.695518493652344 L25,35 L23.469266891479492,28.695518493652344 L17.928932189941406,32.071067810058594 L21.304481506347656,26.530733108520508 L15,25 L21.304481506347656,23.469266891479492 L17.928932189941406,17.928932189941406 L23.469266891479492,21.304481506347656 Z"/><line x1="30.65483856201172" y1="19.34514808654785" x2="31.59898567199707" y2="18.4010009765625" stroke="#bbbbbb" stroke-width="0.25" stroke-linecap="round"/><line x1="30.65483856201172" y1="19.34514808654785" x2="30.654842376708984" y2="19.345157623291016" stroke="#bbbbbb" stroke-width="0.25" stroke-linecap="round"/><line x1="29.710693359375" y1="20.289302825927734" x2="30.654842376708984" y2="19.345157623291016" stroke="#bbbbbb" stroke-width="0.25" stroke-linecap="round"/><line x1="29.710693359375" y1="20.289302825927734" x2="29.710693359375" y2="20.289304733276367" stroke="#bbbbbb" stroke-width="0.25" stroke-linecap="round"/><line x1="28.766544342041016" y1="21.23345375061035" x2="29.710693359375" y2="20.289304733276367" stroke="#bbbbbb" stroke-width="0.25" stroke-linecap="round"/><line x1="28.766544342041016" y1="21.23345375061035" x2="28.766544342041016" y2="21.233455657958984" stroke="#bbbbbb" stroke-width="0.25" stroke-linecap="round"/><line x1="28.766544342041016" y1="21.233455657958984" x2="27.82239532470703" y2="22.17760467529297" stroke="#bbbbbb" stroke-width="0.25" stroke-linecap="round"/><line x1="30.326698303222656" y1="25" x2="28.99146842956543" y2="25" stroke="#bbbbbb" stroke-width="0.25" stroke-linecap="round"/><line x1="30.654850006103516" y1="30.65483856201172" x2="31.5989990234375" y2="31.59898567199707" stroke="#bbbbbb" stroke-width="0.25" stroke-linecap="round"/><line x1="30.654850006103516" y1="30.65483856201172" x2="30.654842376708984" y2="30.654842376708984" stroke="#bbbbbb" stroke-width="0.25" stroke-linecap="round"/><line x1="29.710697174072266" y1="29.710693359375" x2="30.654842376708984" y2="30.654842376708984" stroke="#bbbbbb" stroke-width="0.25" stroke-linecap="round"/><line x1="29.710697174072266" y1="29.710693359375" x2="29.710695266723633" y2="29.710693359375" stroke="#bbbbbb" stroke-width="0.25" stroke-linecap="round"/><line x1="28.76654624938965" y1="28.766544342041016" x2="29.710695266723633" y2="29.710693359375" stroke="#bbbbbb" stroke-width="0.25" stroke-linecap="round"/><line x1="28.76654624938965" y1="28.766544342041016" x2="28.766544342041016" y2="28.766544342041016" stroke="#bbbbbb" stroke-width="0.25" stroke-linecap="round"/><line x1="28.766544342041016" y1="28.766544342041016" x2="27.82239532470703" y2="27.82239532470703" stroke="#bbbbbb" stroke-width="0.25" stroke-linecap="round"/><line x1="27.82239532470703" y1="27.82239532470703" x2="27.82239532470703" y2="27.82239532470703" stroke="#bbbbbb" stroke-width="0.25" stroke-linecap="round"/><line x1="19.34516143798828" y1="30.65485191345215" x2="18.40101432800293" y2="31.5989990234375" stroke="#bbbbbb" stroke-width="0.25" stroke-linecap="round"/><line x1="19.34516143798828" y1="30.65485191345215" x2="19.345157623291016" y2="30.654842376708984" stroke="#bbbbbb" stroke-width="0.25" stroke-linecap="round"/><line x1="20.289306640625" y1="29.710697174072266" x2="19.345157623291016" y2="30.654842376708984" stroke="#bbbbbb" stroke-width="0.25" stroke-linecap="round"/><line x1="20.289306640625" y1="29.710697174072266" x2="20.289306640625" y2="29.710695266723633" stroke="#bbbbbb" stroke-width="0.25" stroke-linecap="round"/><line x1="21.233455657958984" y1="28.76654624938965" x2="20.289306640625" y2="29.710695266723633" stroke="#bbbbbb" stroke-width="0.25" stroke-linecap="round"/><line x1="21.233455657958984" y1="28.76654624938965" x2="21.233455657958984" y2="28.766544342041016" stroke="#bbbbbb" stroke-width="0.25" stroke-linecap="round"/><line x1="21.233455657958984" y1="28.766544342041016" x2="22.17760467529297" y2="27.82239532470703" stroke="#bbbbbb" stroke-width="0.25" stroke-linecap="round"/><line x1="19.345149993896484" y1="19.34516143798828" x2="18.4010009765625" y2="18.40101432800293" stroke="#bbbbbb" stroke-width="0.25" stroke-linecap="round"/><line x1="19.345149993896484" y1="19.34516143798828" x2="19.345157623291016" y2="19.345157623291016" stroke="#bbbbbb" stroke-width="0.25" stroke-linecap="round"/><line x1="20.289302825927734" y1="20.289306640625" x2="19.345157623291016" y2="19.345157623291016" stroke="#bbbbbb" stroke-width="0.25" stroke-linecap="round"/><line x1="20.289302825927734" y1="20.289306640625" x2="20.289304733276367" y2="20.289306640625" stroke="#bbbbbb" stroke-width="0.25" stroke-linecap="round"/><line x1="21.23345375061035" y1="21.233455657958984" x2="20.289304733276367" y2="20.289306640625" stroke="#bbbbbb" stroke-width="0.25" stroke-linecap="round"/><line x1="21.23345375061035" y1="21.233455657958984" x2="21.233455657958984" y2="21.233455657958984" stroke="#bbbbbb" stroke-width="0.25" stroke-linecap="round"/><line x1="27.82239532470703" y1="22.17760467529297" x2="25" y2="25" stroke="#bbbbbb" stroke-width="0.25" stroke-linecap="round"/><line x1="28.99146842956543" y1="25" x2="25" y2="25" stroke="#bbbbbb" stroke-width="0.25" stroke-linecap="round"/><line x1="27.82239532470703" y1="27.82239532470703" x2="25" y2="25" stroke="#bbbbbb" stroke-width="0.25" stroke-linecap="round"/><line x1="21.233455657958984" y1="21.233455657958984" x2="22.17760467529297" y2="22.17760467529297" stroke="#bbbbbb" stroke-width="0.25" stroke-linecap="round"/><line x1="22.17760467529297" y1="22.17760467529297" x2="22.17760467529297" y2="22.17760467529297" stroke="#bbbbbb" stroke-width="0.25" stroke-linecap="round"/><line x1="25" y1="25" x2="25" y2="21.008529663085938" stroke="#bbbbbb" stroke-width="0.25" stroke-linecap="round"/><line x1="25" y1="21.00853157043457" x2="25" y2="21.008529663085938" stroke="#bbbbbb" stroke-width="0.25" stroke-linecap="round"/><line x1="25" y1="21.00853157043457" x2="25" y2="19.673301696777344" stroke="#bbbbbb" stroke-width="0.25" stroke-linecap="round"/><circle cx="30.65483856201172" cy="19.34514808654785" r="0.4" fill="#bbbbbb"/><circle cx="31.59898567199707" cy="18.4010009765625" r="0.4" fill="#bbbbbb"/><circle cx="30.654842376708984" cy="19.345157623291016" r="0.4" fill="#bbbbbb"/><circle cx="29.710693359375" cy="20.289302825927734" r="0.4" fill="#bbbbbb"/><circle cx="29.710693359375" cy="20.289304733276367" r="0.4" fill="#bbbbbb"/><circle cx="28.766544342041016" cy="21.23345375061035" r="0.4" fill="#bbbbbb"/><circle cx="28.766544342041016" cy="21.233455657958984" r="0.4" fill="#bbbbbb"/><circle cx="27.82239532470703" cy="22.17760467529297" r="0.4" fill="#bbbbbb"/><circle cx="30.326698303222656" cy="25" r="0.4" fill="#bbbbbb"/><circle cx="28.99146842956543" cy="25" r="0.4" fill="#bbbbbb"/><circle cx="30.654850006103516" cy="30.65483856201172" r="0.4" fill="#bbbbbb"/><circle cx="31.5989990234375" cy="31.59898567199707" r="0.4" fill="#bbbbbb"/><circle cx="30.654842376708984" cy="30.654842376708984" r="0.4" fill="#bbbbbb"/><circle cx="29.710697174072266" cy="29.710693359375" r="0.4" fill="#bbbbbb"/><circle cx="29.710695266723633" cy="29.710693359375" r="0.4" fill="#bbbbbb"/><circle cx="28.76654624938965" cy="28.766544342041016" r="0.4" fill="#bbbbbb"/><circle cx="28.766544342041016" cy="28.766544342041016" r="0.4" fill="#bbbbbb"/><circle cx="27.82239532470703" cy="27.82239532470703" r="0.4" fill="#bbbbbb"/><circle cx="27.82239532470703" cy="27.82239532470703" r="0.4" fill="#bbbbbb"/><circle cx="19.34516143798828" cy="30.65485191345215" r="0.4" fill="#bbbbbb"/><circle cx="18.40101432800293" cy="31.5989990234375" r="0.4" fill="#bbbbbb"/><circle cx="19.345157623291016" cy="30.654842376708984" r="0.4" fill="#bbbbbb"/><circle cx="20.289306640625" cy="29.710697174072266" r="0.4" fill="#bbbbbb"/><circle cx="20.289306640625" cy="29.710695266723633" r="0.4" fill="#bbbbbb"/><circle cx="21.233455657958984" cy="28.76654624938965" r="0.4" fill="#bbbbbb"/><circle cx="21.233455657958984" cy="28.766544342041016" r="0.4" fill="#bbbbbb"/><circle cx="22.17760467529297" cy="27.82239532470703" r="0.4" fill="#bbbbbb"/><circle cx="19.345149993896484" cy="19.34516143798828" r="0.4" fill="#bbbbbb"/><circle cx="18.4010009765625" cy="18.40101432800293" r="0.4" fill="#bbbbbb"/><circle cx="19.345157623291016" cy="19.345157623291016" r="0.4" fill="#bbbbbb"/><circle cx="20.289302825927734" cy="20.289306640625" r="0.4" fill="#bbbbbb"/><circle cx="20.289304733276367" cy="20.289306640625" r="0.4" fill="#bbbbbb"/><circle cx="21.23345375061035" cy="21.233455657958984" r="0.4" fill="#bbbbbb"/><circle cx="21.233455657958984" cy="21.233455657958984" r="0.4" fill="#bbbbbb"/><circle cx="27.82239532470703" cy="22.17760467529297" r="0.4" fill="#bbbbbb"/><circle cx="25" cy="25" r="0.4" fill="#bbbbbb"/><circle cx="25" cy="25" r="0.4" fill="#bbbbbb"/><circle cx="25" cy="25" r="0.4" fill="#bbbbbb"/><circle cx="22.17760467529297" cy="22.17760467529297" r="0.4" fill="#bbbbbb"/><circle cx="22.17760467529297" cy="22.17760467529297" r="0.4" fill="#bbbbbb"/><circle cx="25" cy="21.008529663085938" r="0.4" fill="#bbbbbb"/><circle cx="25" cy="21.00853157043457" r="0.4" fill="#bbbbbb"/><circle cx="25" cy="19.673301696777344" r="0.4" fill="#bbbbbb"/><line x1="27.82239532470703" y1="27.82239532470703" x2="27.82239532470703" y2="27.82239532470703" stroke="#dd3333" stroke-width="0.75" stroke-linecap="round"/><line x1="22.17760467529297" y1="22.17760467529297" x2="22.17760467529297" y2="22.17760467529297" stroke="#dd3333" stroke-width="0.75" stroke-linecap="round"/><circle cx="30.65483856201172" cy="19.34514808654785" r="0" fill="#dd3333"/><circle cx="31.59898567199707" cy="18.4010009765625" r="0" fill="#dd3333"/><circle cx="30.654842376708984" cy="19.345157623291016" r="0" fill="#dd3333"/><circle cx="29.710693359375" cy="20.289302825927734" r="0" fill="#dd3333"/><circle cx="29.710693359375" cy="20.289304733276367" r="0" fill="#dd3333"/><circle cx="28.766544342041016" cy="21.23345375061035" r="0" fill="#dd3333"/><circle cx="28.766544342041016" cy="21.233455657958984" r="0" fill="#dd3333"/><circle cx="27.82239532470703" cy="22.17760467529297" r="0" fill="#dd3333"/><circle cx="30.326698303222656" cy="25" r="0" fill="#dd3333"/><circle cx="28.99146842956543" cy="25" r="0" fill="#dd3333"/><circle cx="30.654850006103516" cy="30.65483856201172" r="0" fill="#dd3333"/><circle cx="31.5989990234375" cy="31.59898567199707" r="0" fill="#dd3333"/><circle cx="30.654842376708984" cy="30.654842376708984" r="0" fill="#dd3333"/><circle cx="29.710697174072266" cy="29.710693359375" r="0" fill="#dd3333"/><circle cx="29.710695266723633" cy="29.710693359375" r="0" fill="#dd3333"/><circle cx="28.76654624938965" cy="28.766544342041016" r="0" fill="#dd3333"/><circle cx="28.766544342041016" cy="28.766544342041016" r="0" fill="#dd3333"/><circle cx="27.82239532470703" cy="27.82239532470703" r="0" fill="#dd3333"/><circle cx="27.82239532470703" cy="27.82239532470703" r="0" fill="#dd3333"/><circle cx="19.34516143798828" cy="30.65485191345215" r="0" fill="#dd3333"/><circle cx="18.40101432800293" cy="31.5989990234375" r="0" fill="#dd3333"/><circle cx="19.345157623291016" cy="30.654842376708984" r="0" fill="#dd3333"/><circle cx="20.289306640625" cy="29.710697174072266" r="0" fill="#dd3333"/><circle cx="20.289306640625" cy="29.710695266723633" r="0" fill="#dd3333"/><circle cx="21.233455657958984" cy="28.76654624938965" r="0" fill="#dd3333"/><circle cx="21.233455657958984" cy="28.766544342041016" r="0" fill="#dd3333"/><circle cx="22.17760467529297" cy="27.82239532470703" r="0" fill="#dd3333"/><circle cx="19.345149993896484" cy="19.34516143798828" r="0" fill="#dd3333"/><circle cx="18.4010009765625" cy="18.40101432800293" r="0" fill="#dd3333"/><circle cx="19.345157623291016" cy="19.345157623291016" r="0" fill="#dd3333"/><circle cx="20.289302825927734" cy="20.289306640625" r="0" fill="#dd3333"/><circle cx="20.289304733276367" cy="20.289306640625" r="0" fill="#dd3333"/><circle cx="21.23345375061035" cy="21.233455657958984" r="0" fill="#dd3333"/><circle cx="21.233455657958984" cy="21.233455657958984" r="0" fill="#dd3333"/><circle cx="27.82239532470703" cy="22.17760467529297" r="0" fill="#dd3333"/><circle cx="25" cy="25" r="0" fill="#dd3333"/><circle cx="25" cy="25" r="0" fill="#dd3333"/><circle cx="25" cy="25" r="0" fill="#dd3333"/><circle cx="22.17760467529297" cy="22.17760467529297" r="0" fill="#dd3333"/><circle cx="22.17760467529297" cy="22.17760467529297" r="0" fill="#dd3333"/><circle cx="25" cy="21.008529663085938" r="0" fill="#dd3333"/><circle cx="25" cy="21.00853157043457" r="0" fill="#dd3333"/><circle cx="25" cy="19.673301696777344" r="0" fill="#dd3333"/></svg>