<svg xmlns="http://www.w3.org/2000/svg" width="49" height="48" viewBox="0 0 49 48"><path fill="#e8edff" stroke="#4466aa" stroke-width="0.3" d="M24.51056480407715,15 L26.861705780029297,21.763931274414062 L34.0211296081543,21.90983009338379 L28.314790725708008,26.236068725585938 L30.388416290283203,33.090171813964844 L24.51056480407715,29 L18.632713317871094,33.090171813964844 L20.70633888244629,26.236068725585938 L15,21.90983009338379 L22.159423828125,21.763931274414062 Z"/><line x1="27.58824920654297" y1="24" x2="34.0211296081543" y2="21.90983009338379" stroke="#bbbbbb" stroke-width="0.25" stroke-linecap="round"/><line x1="26.412677764892578" y1="27.61803436279297" x2="30.388416290283203" y2="33.090171813964844" stroke="#bbbbbb" stroke-width="0.25" stroke-linecap="round"/><line x1="22.60845184326172" y1="27.61803436279297" x2="18.632713317871094" y2="33.090171813964844" stroke="#bbbbbb" stroke-width="0.25" stroke-linecap="round"/><line x1="25.778640747070312" y1="23.2546443939209" x2="27.58824920654297" y2="24" stroke="#bbbbbb" stroke-width="0.25" stroke-linecap="round"/><line x1="25.778640747070312" y1="23.2546443939209" x2="25.23710823059082" y2="24" stroke="#bbbbbb" stroke-width="0.25" stroke-linecap="round"/><line x1="25.778640747070312" y1="23.2546443939209" x2="24.51056480407715" y2="21.763931274414062" stroke="#bbbbbb" stroke-width="0.25" stroke-linecap="round"/><line x1="24.99492645263672" y1="25.66666603088379" x2="26.412677764892578" y2="27.61803436279297" stroke="#bbbbbb" stroke-width="0.25" stroke-linecap="round"/><line x1="24.99492645263672" y1="25.66666603088379" x2="23.33499526977539" y2="25.38196563720703" stroke="#bbbbbb" stroke-width="0.25" stroke-linecap="round"/><line x1="24.99492645263672" y1="25.66666603088379" x2="25.23710823059082" y2="24" stroke="#bbbbbb" stroke-width="0.25" stroke-linecap="round"/><line x1="22.458776473999023" y1="25.66666603088379" x2="22.60845184326172" y2="27.61803436279297" stroke="#bbbbbb" stroke-width="0.25" stroke-linecap="round"/><line x1="22.458776473999023" y1="25.66666603088379" x2="21.432880401611328" y2="24" stroke="#bbbbbb" stroke-width="0.25" stroke-linecap="round"/><line x1="22.458776473999023" y1="25.66666603088379" x2="23.33499526977539" y2="25.38196563720703" stroke="#bbbbbb" stroke-width="0.25" stroke-linecap="round"/><line x1="24.51056480407715" y1="21.763931274414062" x2="24.51056480407715" y2="15" stroke="#bbbbbb" stroke-width="0.25" stroke-linecap="round"/><line x1="21.432880401611328" y1="24" x2="15" y2="21.90983009338379" stroke="#bbbbbb" stroke-width="0.25" stroke-linecap="round"/><circle cx="27.58824920654297" cy="24" r="0.4" fill="#bbbbbb"/><circle cx="34.0211296081543" cy="21.90983009338379" r="0.4" fill="#bbbbbb"/><circle cx="26.412677764892578" cy="27.61803436279297" r="0.4" fill="#bbbbbb"/><circle cx="30.388416290283203" cy="33.090171813964844" r="0.4" fill="#bbbbbb"/><circle cx="22.60845184326172" cy="27.61803436279297" r="0.4" fill="#bbbbbb"/><circle cx="18.632713317871094" cy="33.090171813964844" r="0.4" fill="#bbbbbb"/><circle cx="25.778640747070312" cy="23.2546443939209" r="0.4" fill="#bbbbbb"/><circle cx="25.23710823059082" cy="24" r="0.4" fill="#bbbbbb"/><circle cx="24.51056480407715" cy="21.763931274414062" r="0.4" fill="#bbbbbb"/><circle cx="24.99492645263672" cy="25.66666603088379" r="0.4" fill="#bbbbbb"/><circle cx="23.33499526977539" cy="25.38196563720703" r="0.4" fill="#bbbbbb"/><circle cx="22.458776473999023" cy="25.66666603088379" r="0.4" fill="#bbbbbb"/><circle cx="21.432880401611328" cy="24" r="0.4" fill="#bbbbbb"/><circle cx="24.51056480407715" cy="15" r="0.4" fill="#bbbbbb"/><circle cx="15" cy="21.90983009338379" r="0.4" fill="#bbbbbb"/><line x1="25.778640747070312" y1="23.2546443939209" x2="25.23710823059082" y2="24" stroke="#dd3333" stroke-width="0.75" stroke-linecap="round"/><line x1="24.99492645263672" y1="25.66666603088379" x2="23.33499526977539" y2="25.38196563720703" stroke="#dd3333" stroke-width="0.75" stroke-linecap="round"/><line x1="24.99492645263672" y1="25.66666603088379" x2="25.23710823059082" y2="24" stroke="#dd3333" stroke-width="0.75" stroke-linecap="round"/><line x1="22.458776473999023" y1="25.66666603088379" x2="23.33499526977539" y2="25.38196563720703" stroke="#dd3333" stroke-width="0.75" stroke-linecap="round"/><circle cx="27.58824920654297" cy="24" r="0" fill="#dd3333"/><circle cx="34.0211296081543" cy="21.90983009338379" r="0" fill="#dd3333"/><circle cx="26.412677764892578" cy="27.61803436279297" r="0" fill="#dd3333"/><circle cx="30.388416290283203" cy="33.090171813964844" r="0" fill="#dd3333"/><circle cx="22.60845184326172" cy="27.61803436279297" r="0" fill="#dd3333"/><circle cx="18.632713317871094" cy="33.090171813964844" r="0" fill="#dd3333"/><circle cx="25.778640747070312" cy="23.2546443939209" r="0" fill="#dd3333"/><circle cx="25.23710823059082" cy="24" r="0" fill="#dd3333"/><circle cx="24.51056480407715" cy="21.763931274414062" r="0" fill="#dd3333"/><circle cx="24.99492645263672" cy="25.66666603088379" r="0" fill="#dd3333"/><circle cx="23.33499526977539" cy="25.38196563720703" r="0" fill="#dd3333"/><circle cx="22.458776473999023" cy="25.66666603088379" r="0" fill="#dd3333"/><circle cx="21.432880401611328" cy="24" r="0" fill="#dd3333"/><circle cx="24.51056480407715" cy="15" r="0" fill="#dd3333"/><circle cx="15" cy="21.90983009338379" r="0" fill="#dd3333"/></svg>