<svg xmlns="http://www.w3.org/2000/svg" width="60" height="55" viewBox="0 0 60 55"><path fill="#e8edff" stroke="#4466aa" stroke-width="0.3" d="M15,15 L45,15 L45,23 L33,23 L33,40 L27,40 L27,23 L15,23 Z"/><line x1="39" y1="19" x2="45" y2="23" stroke="#dd3333" stroke-width="0.25" stroke-linecap="round"/><line x1="36" y1="19" x2="21" y2="19" stroke="#dd3333" stroke-width="0.25" stroke-linecap="round"/><line x1="35" y1="20.333333333333332" x2="39" y2="19" stroke="#dd3333" stroke-width="0.25" stroke-linecap="round"/><line x1="35" y1="20.333333333333332" x2="30" y2="23" stroke="#dd3333" stroke-width="0.25" stroke-linecap="round"/><line x1="35" y1="20.333333333333332" x2="36" y2="19" stroke="#dd3333" stroke-width="0.25" stroke-linecap="round"/><line x1="30" y1="31.5" x2="30" y2="23" stroke="#dd3333" stroke-width="0.25" stroke-linecap="round"/><line x1="30" y1="31.5" x2="27" y2="40" stroke="#dd3333" stroke-width="0.25" stroke-linecap="round"/><line x1="21" y1="19" x2="15" y2="23" stroke="#dd3333" stroke-width="0.25" stroke-linecap="round"/><circle cx="39" cy="19" r="0.4" fill="#dd3333"/><circle cx="45" cy="23" r="0.4" fill="#dd3333"/><circle cx="36" cy="19" r="0.4" fill="#dd3333"/><circle cx="21" cy="19" r="0.4" fill="#dd3333"/><circle cx="35" cy="20.333333333333332" r="0.4" fill="#dd3333"/><circle cx="30" cy="23" r="0.4" fill="#dd3333"/><circle cx="30" cy="31.5" r="0.4" fill="#dd3333"/><circle cx="27" cy="40" r="0.4" fill="#dd3333"/><circle cx="15" cy="23" r="0.4" fill="#dd3333"/></svg>