<svg xmlns="http://www.w3.org/2000/svg" width="60" height="55" viewBox="0 0 60 55"><path fill="#e8edff" stroke="#4466aa" stroke-width="0.3" d="M15,15 L45,15 L45,23 L33,23 L33,40 L27,40 L27,23 L15,23 Z"/><line x1="40.90909194946289" y1="18.958160400390625" x2="41.06467056274414" y2="18.96346664428711" stroke="#bbbbbb" stroke-width="0.25" stroke-linecap="round"/><line x1="40.90909194946289" y1="18.958160400390625" x2="40.5" y2="19.083677291870117" stroke="#bbbbbb" stroke-width="0.25" stroke-linecap="round"/><line x1="38.181819915771484" y1="18.92561912536621" x2="40.5" y2="19.083677291870117" stroke="#bbbbbb" stroke-width="0.25" stroke-linecap="round"/><line x1="38.181819915771484" y1="18.92561912536621" x2="37.5" y2="19.111572265625" stroke="#bbbbbb" stroke-width="0.25" stroke-linecap="round"/><line x1="35.45454406738281" y1="18.902374267578125" x2="37.5" y2="19.111572265625" stroke="#bbbbbb" stroke-width="0.25" stroke-linecap="round"/><line x1="35.45454406738281" y1="18.902374267578125" x2="34.5" y2="19.130165100097656" stroke="#bbbbbb" stroke-width="0.25" stroke-linecap="round"/><line x1="32.727272033691406" y1="18.888429641723633" x2="34.5" y2="19.130165100097656" stroke="#bbbbbb" stroke-width="0.25" stroke-linecap="round"/><line x1="30" y1="35.74999237060547" x2="29.999996185302734" y2="36.99509811401367" stroke="#bbbbbb" stroke-width="0.25" stroke-linecap="round"/><line x1="30" y1="35.74999237060547" x2="30.000003814697266" y2="35.75" stroke="#bbbbbb" stroke-width="0.25" stroke-linecap="round"/><line x1="30" y1="32.91667175292969" x2="30.000003814697266" y2="35.75" stroke="#bbbbbb" stroke-width="0.25" stroke-linecap="round"/><line x1="30" y1="32.91667175292969" x2="30" y2="32.916664123535156" stroke="#bbbbbb" stroke-width="0.25" stroke-linecap="round"/><line x1="30" y1="30.083341598510742" x2="30" y2="32.916664123535156" stroke="#bbbbbb" stroke-width="0.25" stroke-linecap="round"/><line x1="30" y1="30.083341598510742" x2="29.999998092651367" y2="30.083332061767578" stroke="#bbbbbb" stroke-width="0.25" stroke-linecap="round"/><line x1="30" y1="24.416667938232422" x2="30.000003814697266" y2="27.249996185302734" stroke="#bbbbbb" stroke-width="0.25" stroke-linecap="round"/><line x1="29.999998092651367" y1="30.083332061767578" x2="29.999998092651367" y2="27.250001907348633" stroke="#bbbbbb" stroke-width="0.25" stroke-linecap="round"/><line x1="30.000003814697266" y1="27.249996185302734" x2="29.999998092651367" y2="27.250001907348633" stroke="#bbbbbb" stroke-width="0.25" stroke-linecap="round"/><line x1="32.727272033691406" y1="18.888429641723633" x2="30" y2="19.44628143310547" stroke="#bbbbbb" stroke-width="0.25" stroke-linecap="round"/><line x1="30" y1="19.44628143310547" x2="27.272727966308594" y2="18.888429641723633" stroke="#bbbbbb" stroke-width="0.25" stroke-linecap="round"/><line x1="30" y1="19.44628143310547" x2="30" y2="24.416667938232422" stroke="#bbbbbb" stroke-width="0.25" stroke-linecap="round"/><line x1="27.272727966308594" y1="18.888429641723633" x2="25.5" y2="19.130165100097656" stroke="#bbbbbb" stroke-width="0.25" stroke-linecap="round"/><line x1="24.545454025268555" y1="18.902376174926758" x2="25.5" y2="19.130165100097656" stroke="#bbbbbb" stroke-width="0.25" stroke-linecap="round"/><line x1="24.545454025268555" y1="18.902376174926758" x2="22.5" y2="19.111570358276367" stroke="#bbbbbb" stroke-width="0.25" stroke-linecap="round"/><line x1="21.81818199157715" y1="18.925621032714844" x2="22.5" y2="19.111570358276367" stroke="#bbbbbb" stroke-width="0.25" stroke-linecap="round"/><line x1="21.81818199157715" y1="18.925621032714844" x2="19.5" y2="19.083677291870117" stroke="#bbbbbb" stroke-width="0.25" stroke-linecap="round"/><line x1="19.09090805053711" y1="18.958160400390625" x2="19.5" y2="19.083677291870117" stroke="#bbbbbb" stroke-width="0.25" stroke-linecap="round"/><line x1="19.09090805053711" y1="18.958160400390625" x2="18.935321807861328" y2="18.963464736938477" stroke="#bbbbbb" stroke-width="0.25" stroke-linecap="round"/><circle cx="40.90909194946289" cy="18.958160400390625" r="0.4" fill="#bbbbbb"/><circle cx="41.06467056274414" cy="18.96346664428711" r="0.4" fill="#bbbbbb"/><circle cx="40.5" cy="19.083677291870117" r="0.4" fill="#bbbbbb"/><circle cx="38.181819915771484" cy="18.92561912536621" r="0.4" fill="#bbbbbb"/><circle cx="37.5" cy="19.111572265625" r="0.4" fill="#bbbbbb"/><circle cx="35.45454406738281" cy="18.902374267578125" r="0.4" fill="#bbbbbb"/><circle cx="34.5" cy="19.130165100097656" r="0.4" fill="#bbbbbb"/><circle cx="32.727272033691406" cy="18.888429641723633" r="0.4" fill="#bbbbbb"/><circle cx="30" cy="35.74999237060547" r="0.4" fill="#bbbbbb"/><circle cx="29.999996185302734" cy="36.99509811401367" r="0.4" fill="#bbbbbb"/><circle cx="30.000003814697266" cy="35.75" r="0.4" fill="#bbbbbb"/><circle cx="30" cy="32.91667175292969" r="0.4" fill="#bbbbbb"/><circle cx="30" cy="32.916664123535156" r="0.4" fill="#bbbbbb"/><circle cx="30" cy="30.083341598510742" r="0.4" fill="#bbbbbb"/><circle cx="29.999998092651367" cy="30.083332061767578" r="0.4" fill="#bbbbbb"/><circle cx="30" cy="24.416667938232422" r="0.4" fill="#bbbbbb"/><circle cx="30.000003814697266" cy="27.249996185302734" r="0.4" fill="#bbbbbb"/><circle cx="29.999998092651367" cy="27.250001907348633" r="0.4" fill="#bbbbbb"/><circle cx="30" cy="19.44628143310547" r="0.4" fill="#bbbbbb"/><circle cx="30" cy="19.44628143310547" r="0.4" fill="#bbbbbb"/><circle cx="27.272727966308594" cy="18.888429641723633" r="0.4" fill="#bbbbbb"/><circle cx="25.5" cy="19.130165100097656" r="0.4" fill="#bbbbbb"/><circle cx="24.545454025268555" cy="18.902376174926758" r="0.4" fill="#bbbbbb"/><circle cx="22.5" cy="19.111570358276367" r="0.4" fill="#bbbbbb"/><circle cx="21.81818199157715" cy="18.925621032714844" r="0.4" fill="#bbbbbb"/><circle cx="19.5" cy="19.083677291870117" r="0.4" fill="#bbbbbb"/><circle cx="19.09090805053711" cy="18.958160400390625" r="0.4" fill="#bbbbbb"/><circle cx="18.935321807861328" cy="18.963464736938477" r="0.4" fill="#bbbbbb"/><circle cx="40.90909194946289" cy="18.958160400390625" r="0" fill="#dd3333"/><circle cx="41.06467056274414" cy="18.96346664428711" r="0" fill="#dd3333"/><circle cx="40.5" cy="19.083677291870117" r="0" fill="#dd3333"/><circle cx="38.181819915771484" cy="18.92561912536621" r="0" fill="#dd3333"/><circle cx="37.5" cy="19.111572265625" r="0" fill="#dd3333"/><circle cx="35.45454406738281" cy="18.902374267578125" r="0" fill="#dd3333"/><circle cx="34.5" cy="19.130165100097656" r="0" fill="#dd3333"/><circle cx="32.727272033691406" cy="18.888429641723633" r="0" fill="#dd3333"/><circle cx="30" cy="35.74999237060547" r="0" fill="#dd3333"/><circle cx="29.999996185302734" cy="36.99509811401367" r="0" fill="#dd3333"/><circle cx="30.000003814697266" cy="35.75" r="0" fill="#dd3333"/><circle cx="30" cy="32.91667175292969" r="0" fill="#dd3333"/><circle cx="30" cy="32.916664123535156" r="0" fill="#dd3333"/><circle cx="30" cy="30.083341598510742" r="0" fill="#dd3333"/><circle cx="29.999998092651367" cy="30.083332061767578" r="0" fill="#dd3333"/><circle cx="30" cy="24.416667938232422" r="0" fill="#dd3333"/><circle cx="30.000003814697266" cy="27.249996185302734" r="0" fill="#dd3333"/><circle cx="29.999998092651367" cy="27.250001907348633" r="0" fill="#dd3333"/><circle cx="30" cy="19.44628143310547" r="0" fill="#dd3333"/><circle cx="30" cy="19.44628143310547" r="0" fill="#dd3333"/><circle cx="27.272727966308594" cy="18.888429641723633" r="0" fill="#dd3333"/><circle cx="25.5" cy="19.130165100097656" r="0" fill="#dd3333"/><circle cx="24.545454025268555" cy="18.902376174926758" r="0" fill="#dd3333"/><circle cx="22.5" cy="19.111570358276367" r="0" fill="#dd3333"/><circle cx="21.81818199157715" cy="18.925621032714844" r="0" fill="#dd3333"/><circle cx="19.5" cy="19.083677291870117" r="0" fill="#dd3333"/><circle cx="19.09090805053711" cy="18.958160400390625" r="0" fill="#dd3333"/><circle cx="18.935321807861328" cy="18.963464736938477" r="0" fill="#dd3333"/></svg>