<svg xmlns="http://www.w3.org/2000/svg" width="60" height="55" viewBox="0 0 60 55"><path fill="#e8edff" stroke="#4466aa" stroke-width="0.3" d="M15,15 L45,15 L45,23 L33,23 L33,40 L27,40 L27,23 L15,23 Z"/><line x1="40.90909090909092" y1="18.958161157024787" x2="41.06467904855002" y2="18.963465298142708" stroke="#dd3333" stroke-width="0.25" stroke-linecap="round"/><line x1="40.90909090909092" y1="18.958161157024787" x2="40.5" y2="19.083677685950416" stroke="#dd3333" stroke-width="0.25" stroke-linecap="round"/><line x1="38.18181818181819" y1="18.92561983471074" x2="40.5" y2="19.083677685950416" stroke="#dd3333" stroke-width="0.25" stroke-linecap="round"/><line x1="38.18181818181819" y1="18.92561983471074" x2="37.5" y2="19.111570247933887" stroke="#dd3333" stroke-width="0.25" stroke-linecap="round"/><line x1="35.45454545454545" y1="18.902376033057855" x2="37.5" y2="19.111570247933887" stroke="#dd3333" stroke-width="0.25" stroke-linecap="round"/><line x1="35.45454545454545" y1="18.902376033057855" x2="34.5" y2="19.130165289256198" stroke="#dd3333" stroke-width="0.25" stroke-linecap="round"/><line x1="32.72727272727272" y1="18.888429752066116" x2="34.5" y2="19.130165289256198" stroke="#dd3333" stroke-width="0.25" stroke-linecap="round"/><line x1="30" y1="36.995098039215705" x2="30" y2="35.75" stroke="#dd3333" stroke-width="0.25" stroke-linecap="round"/><line x1="30.000000000000007" y1="35.749999999999986" x2="30.000000000000004" y2="32.91666666666666" stroke="#dd3333" stroke-width="0.25" stroke-linecap="round"/><line x1="30" y1="32.91666666666666" x2="30" y2="30.08333333333333" stroke="#dd3333" stroke-width="0.25" stroke-linecap="round"/><line x1="29.999999999999996" y1="30.083333333333332" x2="30" y2="27.250000000000004" stroke="#dd3333" stroke-width="0.25" stroke-linecap="round"/><line x1="32.72727272727272" y1="18.888429752066116" x2="30" y2="19.446280991735534" stroke="#dd3333" stroke-width="0.25" stroke-linecap="round"/><line x1="30" y1="19.446280991735538" x2="27.272727272727277" y2="18.888429752066116" stroke="#dd3333" stroke-width="0.25" stroke-linecap="round"/><line x1="30" y1="19.446280991735534" x2="30" y2="24.416666666666664" stroke="#dd3333" stroke-width="0.25" stroke-linecap="round"/><line x1="29.999999999999993" y1="27.249999999999993" x2="30" y2="24.416666666666664" stroke="#dd3333" stroke-width="0.25" stroke-linecap="round"/><line x1="27.272727272727277" y1="18.888429752066116" x2="25.5" y2="19.130165289256198" stroke="#dd3333" stroke-width="0.25" stroke-linecap="round"/><line x1="24.545454545454543" y1="18.902376033057852" x2="25.5" y2="19.130165289256198" stroke="#dd3333" stroke-width="0.25" stroke-linecap="round"/><line x1="24.545454545454543" y1="18.902376033057852" x2="22.5" y2="19.111570247933884" stroke="#dd3333" stroke-width="0.25" stroke-linecap="round"/><line x1="21.81818181818182" y1="18.925619834710744" x2="22.5" y2="19.111570247933884" stroke="#dd3333" stroke-width="0.25" stroke-linecap="round"/><line x1="21.81818181818182" y1="18.925619834710744" x2="19.5" y2="19.083677685950413" stroke="#dd3333" stroke-width="0.25" stroke-linecap="round"/><line x1="19.09090909090909" y1="18.958161157024794" x2="19.5" y2="19.083677685950413" stroke="#dd3333" stroke-width="0.25" stroke-linecap="round"/><line x1="19.09090909090909" y1="18.958161157024794" x2="18.935320951449985" y2="18.96346529814272" stroke="#dd3333" stroke-width="0.25" stroke-linecap="round"/><circle cx="40.90909090909092" cy="18.958161157024787" r="0.4" fill="#dd3333"/><circle cx="41.06467904855002" cy="18.963465298142708" r="0.4" fill="#dd3333"/><circle cx="40.5" cy="19.083677685950416" r="0.4" fill="#dd3333"/><circle cx="38.18181818181819" cy="18.92561983471074" r="0.4" fill="#dd3333"/><circle cx="37.5" cy="19.111570247933887" r="0.4" fill="#dd3333"/><circle cx="35.45454545454545" cy="18.902376033057855" r="0.4" fill="#dd3333"/><circle cx="34.5" cy="19.130165289256198" r="0.4" fill="#dd3333"/><circle cx="32.72727272727272" cy="18.888429752066116" r="0.4" fill="#dd3333"/><circle cx="30" cy="36.995098039215705" r="0.4" fill="#dd3333"/><circle cx="30" cy="35.75" r="0.4" fill="#dd3333"/><circle cx="30.000000000000004" cy="32.91666666666666" r="0.4" fill="#dd3333"/><circle cx="30" cy="30.08333333333333" r="0.4" fill="#dd3333"/><circle cx="30" cy="27.250000000000004" r="0.4" fill="#dd3333"/><circle cx="30" cy="19.446280991735534" r="0.4" fill="#dd3333"/><circle cx="27.272727272727277" cy="18.888429752066116" r="0.4" fill="#dd3333"/><circle cx="30" cy="24.416666666666664" r="0.4" fill="#dd3333"/><circle cx="25.5" cy="19.130165289256198" r="0.4" fill="#dd3333"/><circle cx="24.545454545454543" cy="18.902376033057852" r="0.4" fill="#dd3333"/><circle cx="22.5" cy="19.111570247933884" r="0.4" fill="#dd3333"/><circle cx="21.81818181818182" cy="18.925619834710744" r="0.4" fill="#dd3333"/><circle cx="19.5" cy="19.083677685950413" r="0.4" fill="#dd3333"/><circle cx="19.09090909090909" cy="18.958161157024794" r="0.4" fill="#dd3333"/><circle cx="18.935320951449985" cy="18.96346529814272" r="0.4" fill="#dd3333"/></svg>