<svg xmlns="http://www.w3.org/2000/svg" width="600" height="550" viewBox="0 0 60 55">
<rect width="60" height="55" fill="white"/>
<polygon points="15.00,15.00 45.00,15.00 45.00,23.00 33.00,23.00 33.00,40.00 27.00,40.00 27.00,23.00 15.00,23.00" fill="#e8edff" stroke="#4466aa" stroke-width="0.3"/>
<polygon points="33.00,23.00 27.00,23.00 33.00,40.00" fill="#fff3e0" fill-opacity="0.3" stroke="#e67e22" stroke-width="0.2" stroke-opacity="0.8"/>
<polygon points="27.00,23.00 27.00,40.00 33.00,40.00" fill="#fff3e0" fill-opacity="0.3" stroke="#e67e22" stroke-width="0.2" stroke-opacity="0.8"/>
<polygon points="33.00,40.00 45.00,23.00 33.00,23.00" fill="#fff3e0" fill-opacity="0.3" stroke="#e67e22" stroke-width="0.2" stroke-opacity="0.8"/>
<polygon points="27.00,23.00 15.00,23.00 27.00,40.00" fill="#fff3e0" fill-opacity="0.3" stroke="#e67e22" stroke-width="0.2" stroke-opacity="0.8"/>
<polygon points="33.00,23.00 15.00,15.00 27.00,23.00" fill="#fff3e0" fill-opacity="0.3" stroke="#e67e22" stroke-width="0.2" stroke-opacity="0.8"/>
<polygon points="27.00,23.00 15.00,15.00 15.00,23.00" fill="#fff3e0" fill-opacity="0.3" stroke="#e67e22" stroke-width="0.2" stroke-opacity="0.8"/>
<polygon points="45.00,15.00 15.00,15.00 33.00,23.00" fill="#fff3e0" fill-opacity="0.3" stroke="#e67e22" stroke-width="0.2" stroke-opacity="0.8"/>
<polygon points="45.00,23.00 45.00,15.00 33.00,23.00" fill="#fff3e0" fill-opacity="0.3" stroke="#e67e22" stroke-width="0.2" stroke-opacity="0.8"/>
<polygon points="15.00,15.00 45.00,15.00 45.00,23.00 33.00,23.00 33.00,40.00 27.00,40.00 27.00,23.00 15.00,23.00" fill="none" stroke="#4466aa" stroke-width="0.3"/>
</svg>
