<svg xmlns="http://www.w3.org/2000/svg" width="1800.00" height="950.00" viewBox="-1.00 -1.00 182.00 97.00">
<style>text { font-family: sans-serif; font-size: 3px; fill: #333; }</style>
<rect x="-1" y="-1" width="182.00" height="97.00" fill="white"/>
<g transform="translate(0.00, 0)">
  <text x="30.00" y="60.00" text-anchor="middle">StraightSkeleton (8e, 9n)</text>
  <polygon points="15.00,15.00 45.00,15.00 45.00,23.00 33.00,23.00 33.00,40.00 27.00,40.00 27.00,23.00 15.00,23.00" fill="#f0f4ff" stroke="#4466aa" stroke-width="0.3"/>
  <line x1="15.00" y1="15.00" x2="30.00" y2="25.25" stroke="#dd3333" stroke-width="0.25" stroke-linecap="round"/>
  <line x1="45.00" y1="15.00" x2="30.00" y2="25.25" stroke="#dd3333" stroke-width="0.25" stroke-linecap="round"/>
  <line x1="45.00" y1="23.00" x2="30.00" y2="25.25" stroke="#dd3333" stroke-width="0.25" stroke-linecap="round"/>
  <line x1="33.00" y1="23.00" x2="30.00" y2="25.25" stroke="#dd3333" stroke-width="0.25" stroke-linecap="round"/>
  <line x1="33.00" y1="40.00" x2="30.00" y2="25.25" stroke="#dd3333" stroke-width="0.25" stroke-linecap="round"/>
  <line x1="27.00" y1="40.00" x2="30.00" y2="25.25" stroke="#dd3333" stroke-width="0.25" stroke-linecap="round"/>
  <line x1="27.00" y1="23.00" x2="30.00" y2="25.25" stroke="#dd3333" stroke-width="0.25" stroke-linecap="round"/>
  <line x1="15.00" y1="23.00" x2="30.00" y2="25.25" stroke="#dd3333" stroke-width="0.25" stroke-linecap="round"/>
  <circle cx="15.00" cy="15.00" r="0.4" fill="#dd3333"/>
  <circle cx="30.00" cy="25.25" r="0.4" fill="#dd3333"/>
  <circle cx="45.00" cy="15.00" r="0.4" fill="#dd3333"/>
  <circle cx="45.00" cy="23.00" r="0.4" fill="#dd3333"/>
  <circle cx="33.00" cy="23.00" r="0.4" fill="#dd3333"/>
  <circle cx="33.00" cy="40.00" r="0.4" fill="#dd3333"/>
  <circle cx="27.00" cy="40.00" r="0.4" fill="#dd3333"/>
  <circle cx="27.00" cy="23.00" r="0.4" fill="#dd3333"/>
  <circle cx="15.00" cy="23.00" r="0.4" fill="#dd3333"/>
  <circle cx="15.00" cy="15.00" r="0.35" fill="#4466aa"/>
  <circle cx="45.00" cy="15.00" r="0.35" fill="#4466aa"/>
  <circle cx="45.00" cy="23.00" r="0.35" fill="#4466aa"/>
  <circle cx="33.00" cy="23.00" r="0.35" fill="#4466aa"/>
  <circle cx="33.00" cy="40.00" r="0.35" fill="#4466aa"/>
  <circle cx="27.00" cy="40.00" r="0.35" fill="#4466aa"/>
  <circle cx="27.00" cy="23.00" r="0.35" fill="#4466aa"/>
  <circle cx="15.00" cy="23.00" r="0.35" fill="#4466aa"/>
</g>
<g transform="translate(60.00, 0)">
  <text x="30.00" y="60.00" text-anchor="middle">ChordalAxis (8e, 9n)</text>
  <polygon points="15.00,15.00 45.00,15.00 45.00,23.00 33.00,23.00 33.00,40.00 27.00,40.00 27.00,23.00 15.00,23.00" fill="#f0f4ff" stroke="#4466aa" stroke-width="0.3"/>
  <line x1="39.00" y1="19.00" x2="24.00" y2="19.00" stroke="#dd3333" stroke-width="0.25" stroke-linecap="round"/>
  <line x1="39.00" y1="19.00" x2="45.00" y2="23.00" stroke="#dd3333" stroke-width="0.25" stroke-linecap="round"/>
  <line x1="30.00" y1="31.50" x2="33.00" y2="40.00" stroke="#dd3333" stroke-width="0.25" stroke-linecap="round"/>
  <line x1="25.00" y1="20.33" x2="24.00" y2="19.00" stroke="#dd3333" stroke-width="0.25" stroke-linecap="round"/>
  <line x1="25.00" y1="20.33" x2="30.00" y2="23.00" stroke="#dd3333" stroke-width="0.25" stroke-linecap="round"/>
  <line x1="25.00" y1="20.33" x2="21.00" y2="19.00" stroke="#dd3333" stroke-width="0.25" stroke-linecap="round"/>
  <line x1="30.00" y1="31.50" x2="30.00" y2="23.00" stroke="#dd3333" stroke-width="0.25" stroke-linecap="round"/>
  <line x1="21.00" y1="19.00" x2="15.00" y2="23.00" stroke="#dd3333" stroke-width="0.25" stroke-linecap="round"/>
  <circle cx="39.00" cy="19.00" r="0.4" fill="#dd3333"/>
  <circle cx="24.00" cy="19.00" r="0.4" fill="#dd3333"/>
  <circle cx="45.00" cy="23.00" r="0.4" fill="#dd3333"/>
  <circle cx="30.00" cy="31.50" r="0.4" fill="#dd3333"/>
  <circle cx="33.00" cy="40.00" r="0.4" fill="#dd3333"/>
  <circle cx="25.00" cy="20.33" r="0.4" fill="#dd3333"/>
  <circle cx="30.00" cy="23.00" r="0.4" fill="#dd3333"/>
  <circle cx="21.00" cy="19.00" r="0.4" fill="#dd3333"/>
  <circle cx="15.00" cy="23.00" r="0.4" fill="#dd3333"/>
  <circle cx="15.00" cy="15.00" r="0.35" fill="#4466aa"/>
  <circle cx="45.00" cy="15.00" r="0.35" fill="#4466aa"/>
  <circle cx="45.00" cy="23.00" r="0.35" fill="#4466aa"/>
  <circle cx="33.00" cy="23.00" r="0.35" fill="#4466aa"/>
  <circle cx="33.00" cy="40.00" r="0.35" fill="#4466aa"/>
  <circle cx="27.00" cy="40.00" r="0.35" fill="#4466aa"/>
  <circle cx="27.00" cy="23.00" r="0.35" fill="#4466aa"/>
  <circle cx="15.00" cy="23.00" r="0.35" fill="#4466aa"/>
</g>
<g transform="translate(120.00, 0)">
  <text x="30.00" y="60.00" text-anchor="middle">Voronoi (73e, 77n)</text>
  <polygon points="15.00,15.00 45.00,15.00 45.00,23.00 33.00,23.00 33.00,40.00 27.00,40.00 27.00,23.00 15.00,23.00" fill="#f0f4ff" stroke="#4466aa" stroke-width="0.3"/>
  <line x1="44.32" y1="15.67" x2="43.01" y2="17.00" stroke="#dd3333" stroke-width="0.25" stroke-linecap="round"/>
  <line x1="42.95" y1="17.03" x2="43.01" y2="17.00" stroke="#dd3333" stroke-width="0.25" stroke-linecap="round"/>
  <line x1="42.95" y1="17.03" x2="41.68" y2="18.33" stroke="#dd3333" stroke-width="0.25" stroke-linecap="round"/>
  <line x1="41.59" y1="18.39" x2="41.68" y2="18.33" stroke="#dd3333" stroke-width="0.25" stroke-linecap="round"/>
  <line x1="43.00" y1="21.00" x2="44.33" y2="22.33" stroke="#dd3333" stroke-width="0.25" stroke-linecap="round"/>
  <line x1="43.00" y1="21.00" x2="43.00" y2="21.00" stroke="#dd3333" stroke-width="0.25" stroke-linecap="round"/>
  <line x1="41.59" y1="18.39" x2="41.00" y2="19.00" stroke="#dd3333" stroke-width="0.25" stroke-linecap="round"/>
  <line x1="41.00" y1="19.00" x2="41.67" y2="19.67" stroke="#dd3333" stroke-width="0.25" stroke-linecap="round"/>
  <line x1="43.00" y1="21.00" x2="41.67" y2="19.67" stroke="#dd3333" stroke-width="0.25" stroke-linecap="round"/>
  <line x1="41.67" y1="19.67" x2="41.67" y2="19.67" stroke="#dd3333" stroke-width="0.25" stroke-linecap="round"/>
  <line x1="41.00" y1="19.00" x2="40.33" y2="19.01" stroke="#dd3333" stroke-width="0.25" stroke-linecap="round"/>
  <line x1="40.23" y1="18.99" x2="40.33" y2="19.01" stroke="#dd3333" stroke-width="0.25" stroke-linecap="round"/>
  <line x1="40.23" y1="18.99" x2="39.00" y2="19.01" stroke="#dd3333" stroke-width="0.25" stroke-linecap="round"/>
  <line x1="38.86" y1="18.99" x2="39.00" y2="19.01" stroke="#dd3333" stroke-width="0.25" stroke-linecap="round"/>
  <line x1="38.86" y1="18.99" x2="37.67" y2="19.01" stroke="#dd3333" stroke-width="0.25" stroke-linecap="round"/>
  <line x1="37.50" y1="18.99" x2="37.67" y2="19.01" stroke="#dd3333" stroke-width="0.25" stroke-linecap="round"/>
  <line x1="37.50" y1="18.99" x2="36.33" y2="19.01" stroke="#dd3333" stroke-width="0.25" stroke-linecap="round"/>
  <line x1="36.14" y1="18.98" x2="36.33" y2="19.01" stroke="#dd3333" stroke-width="0.25" stroke-linecap="round"/>
  <line x1="36.14" y1="18.98" x2="35.00" y2="19.01" stroke="#dd3333" stroke-width="0.25" stroke-linecap="round"/>
  <line x1="34.77" y1="18.98" x2="35.00" y2="19.01" stroke="#dd3333" stroke-width="0.25" stroke-linecap="round"/>
  <line x1="30.68" y1="19.31" x2="32.05" y2="19.03" stroke="#dd3333" stroke-width="0.25" stroke-linecap="round"/>
  <line x1="32.05" y1="19.03" x2="33.41" y2="18.98" stroke="#dd3333" stroke-width="0.25" stroke-linecap="round"/>
  <line x1="34.77" y1="18.98" x2="33.67" y2="19.02" stroke="#dd3333" stroke-width="0.25" stroke-linecap="round"/>
  <line x1="33.41" y1="18.98" x2="33.67" y2="19.02" stroke="#dd3333" stroke-width="0.25" stroke-linecap="round"/>
  <line x1="30.91" y1="37.88" x2="32.25" y2="39.29" stroke="#dd3333" stroke-width="0.25" stroke-linecap="round"/>
  <line x1="30.91" y1="37.88" x2="30.75" y2="37.79" stroke="#dd3333" stroke-width="0.25" stroke-linecap="round"/>
  <line x1="30.75" y1="37.79" x2="30.00" y2="37.00" stroke="#dd3333" stroke-width="0.25" stroke-linecap="round"/>
  <line x1="30.00" y1="36.46" x2="30.00" y2="37.00" stroke="#dd3333" stroke-width="0.25" stroke-linecap="round"/>
  <line x1="30.00" y1="37.00" x2="29.25" y2="37.79" stroke="#dd3333" stroke-width="0.25" stroke-linecap="round"/>
  <line x1="27.75" y1="39.29" x2="29.09" y2="37.88" stroke="#dd3333" stroke-width="0.25" stroke-linecap="round"/>
  <line x1="29.25" y1="37.79" x2="29.09" y2="37.88" stroke="#dd3333" stroke-width="0.25" stroke-linecap="round"/>
  <line x1="30.00" y1="36.46" x2="30.00" y2="36.46" stroke="#dd3333" stroke-width="0.25" stroke-linecap="round"/>
  <line x1="30.00" y1="35.04" x2="30.00" y2="36.46" stroke="#dd3333" stroke-width="0.25" stroke-linecap="round"/>
  <line x1="30.00" y1="35.04" x2="30.00" y2="35.04" stroke="#dd3333" stroke-width="0.25" stroke-linecap="round"/>
  <line x1="30.00" y1="33.62" x2="30.00" y2="35.04" stroke="#dd3333" stroke-width="0.25" stroke-linecap="round"/>
  <line x1="30.00" y1="33.62" x2="30.00" y2="33.62" stroke="#dd3333" stroke-width="0.25" stroke-linecap="round"/>
  <line x1="30.00" y1="30.79" x2="30.00" y2="32.21" stroke="#dd3333" stroke-width="0.25" stroke-linecap="round"/>
  <line x1="30.00" y1="33.62" x2="30.00" y2="32.21" stroke="#dd3333" stroke-width="0.25" stroke-linecap="round"/>
  <line x1="30.00" y1="32.21" x2="30.00" y2="32.21" stroke="#dd3333" stroke-width="0.25" stroke-linecap="round"/>
  <line x1="30.00" y1="30.79" x2="30.00" y2="30.79" stroke="#dd3333" stroke-width="0.25" stroke-linecap="round"/>
  <line x1="30.00" y1="29.38" x2="30.00" y2="30.79" stroke="#dd3333" stroke-width="0.25" stroke-linecap="round"/>
  <line x1="30.00" y1="29.38" x2="30.00" y2="29.37" stroke="#dd3333" stroke-width="0.25" stroke-linecap="round"/>
  <line x1="30.00" y1="27.96" x2="30.00" y2="29.37" stroke="#dd3333" stroke-width="0.25" stroke-linecap="round"/>
  <line x1="30.00" y1="27.96" x2="30.00" y2="27.96" stroke="#dd3333" stroke-width="0.25" stroke-linecap="round"/>
  <line x1="30.00" y1="26.54" x2="30.00" y2="27.96" stroke="#dd3333" stroke-width="0.25" stroke-linecap="round"/>
  <line x1="30.00" y1="25.12" x2="30.00" y2="26.54" stroke="#dd3333" stroke-width="0.25" stroke-linecap="round"/>
  <line x1="30.00" y1="23.71" x2="30.00" y2="25.12" stroke="#dd3333" stroke-width="0.25" stroke-linecap="round"/>
  <line x1="30.68" y1="19.31" x2="30.00" y2="19.56" stroke="#dd3333" stroke-width="0.25" stroke-linecap="round"/>
  <line x1="29.32" y1="19.31" x2="30.00" y2="19.56" stroke="#dd3333" stroke-width="0.25" stroke-linecap="round"/>
  <line x1="29.32" y1="19.31" x2="27.95" y2="19.03" stroke="#dd3333" stroke-width="0.25" stroke-linecap="round"/>
  <line x1="30.00" y1="23.71" x2="30.00" y2="23.71" stroke="#dd3333" stroke-width="0.25" stroke-linecap="round"/>
  <line x1="30.00" y1="19.56" x2="30.00" y2="23.71" stroke="#dd3333" stroke-width="0.25" stroke-linecap="round"/>
  <line x1="27.95" y1="19.03" x2="26.59" y2="18.98" stroke="#dd3333" stroke-width="0.25" stroke-linecap="round"/>
  <line x1="26.59" y1="18.98" x2="26.33" y2="19.02" stroke="#dd3333" stroke-width="0.25" stroke-linecap="round"/>
  <line x1="25.23" y1="18.98" x2="26.33" y2="19.02" stroke="#dd3333" stroke-width="0.25" stroke-linecap="round"/>
  <line x1="25.23" y1="18.98" x2="25.00" y2="19.01" stroke="#dd3333" stroke-width="0.25" stroke-linecap="round"/>
  <line x1="23.86" y1="18.98" x2="25.00" y2="19.01" stroke="#dd3333" stroke-width="0.25" stroke-linecap="round"/>
  <line x1="23.86" y1="18.98" x2="23.67" y2="19.01" stroke="#dd3333" stroke-width="0.25" stroke-linecap="round"/>
  <line x1="22.50" y1="18.99" x2="23.67" y2="19.01" stroke="#dd3333" stroke-width="0.25" stroke-linecap="round"/>
  <line x1="22.50" y1="18.99" x2="22.33" y2="19.01" stroke="#dd3333" stroke-width="0.25" stroke-linecap="round"/>
  <line x1="21.14" y1="18.99" x2="22.33" y2="19.01" stroke="#dd3333" stroke-width="0.25" stroke-linecap="round"/>
  <line x1="21.14" y1="18.99" x2="21.00" y2="19.01" stroke="#dd3333" stroke-width="0.25" stroke-linecap="round"/>
  <line x1="19.77" y1="18.99" x2="21.00" y2="19.01" stroke="#dd3333" stroke-width="0.25" stroke-linecap="round"/>
  <line x1="19.77" y1="18.99" x2="19.67" y2="19.01" stroke="#dd3333" stroke-width="0.25" stroke-linecap="round"/>
  <line x1="17.00" y1="21.00" x2="15.67" y2="22.33" stroke="#dd3333" stroke-width="0.25" stroke-linecap="round"/>
  <line x1="18.33" y1="19.67" x2="17.00" y2="21.00" stroke="#dd3333" stroke-width="0.25" stroke-linecap="round"/>
  <line x1="19.67" y1="19.01" x2="19.00" y2="19.00" stroke="#dd3333" stroke-width="0.25" stroke-linecap="round"/>
  <line x1="18.41" y1="18.39" x2="19.00" y2="19.00" stroke="#dd3333" stroke-width="0.25" stroke-linecap="round"/>
  <line x1="19.00" y1="19.00" x2="18.33" y2="19.67" stroke="#dd3333" stroke-width="0.25" stroke-linecap="round"/>
  <line x1="18.41" y1="18.39" x2="18.32" y2="18.33" stroke="#dd3333" stroke-width="0.25" stroke-linecap="round"/>
  <line x1="17.05" y1="17.03" x2="18.32" y2="18.33" stroke="#dd3333" stroke-width="0.25" stroke-linecap="round"/>
  <line x1="17.05" y1="17.03" x2="16.99" y2="17.00" stroke="#dd3333" stroke-width="0.25" stroke-linecap="round"/>
  <line x1="15.68" y1="15.67" x2="16.99" y2="17.00" stroke="#dd3333" stroke-width="0.25" stroke-linecap="round"/>
  <circle cx="44.32" cy="15.67" r="0.4" fill="#dd3333"/>
  <circle cx="43.01" cy="17.00" r="0.4" fill="#dd3333"/>
  <circle cx="42.95" cy="17.03" r="0.4" fill="#dd3333"/>
  <circle cx="41.68" cy="18.33" r="0.4" fill="#dd3333"/>
  <circle cx="41.59" cy="18.39" r="0.4" fill="#dd3333"/>
  <circle cx="43.00" cy="21.00" r="0.4" fill="#dd3333"/>
  <circle cx="44.33" cy="22.33" r="0.4" fill="#dd3333"/>
  <circle cx="43.00" cy="21.00" r="0.4" fill="#dd3333"/>
  <circle cx="41.00" cy="19.00" r="0.4" fill="#dd3333"/>
  <circle cx="41.67" cy="19.67" r="0.4" fill="#dd3333"/>
  <circle cx="41.67" cy="19.67" r="0.4" fill="#dd3333"/>
  <circle cx="40.33" cy="19.01" r="0.4" fill="#dd3333"/>
  <circle cx="40.23" cy="18.99" r="0.4" fill="#dd3333"/>
  <circle cx="39.00" cy="19.01" r="0.4" fill="#dd3333"/>
  <circle cx="38.86" cy="18.99" r="0.4" fill="#dd3333"/>
  <circle cx="37.67" cy="19.01" r="0.4" fill="#dd3333"/>
  <circle cx="37.50" cy="18.99" r="0.4" fill="#dd3333"/>
  <circle cx="36.33" cy="19.01" r="0.4" fill="#dd3333"/>
  <circle cx="36.14" cy="18.98" r="0.4" fill="#dd3333"/>
  <circle cx="35.00" cy="19.01" r="0.4" fill="#dd3333"/>
  <circle cx="34.77" cy="18.98" r="0.4" fill="#dd3333"/>
  <circle cx="30.68" cy="19.31" r="0.4" fill="#dd3333"/>
  <circle cx="32.05" cy="19.03" r="0.4" fill="#dd3333"/>
  <circle cx="33.41" cy="18.98" r="0.4" fill="#dd3333"/>
  <circle cx="33.67" cy="19.02" r="0.4" fill="#dd3333"/>
  <circle cx="30.91" cy="37.88" r="0.4" fill="#dd3333"/>
  <circle cx="32.25" cy="39.29" r="0.4" fill="#dd3333"/>
  <circle cx="30.75" cy="37.79" r="0.4" fill="#dd3333"/>
  <circle cx="30.00" cy="37.00" r="0.4" fill="#dd3333"/>
  <circle cx="30.00" cy="36.46" r="0.4" fill="#dd3333"/>
  <circle cx="29.25" cy="37.79" r="0.4" fill="#dd3333"/>
  <circle cx="27.75" cy="39.29" r="0.4" fill="#dd3333"/>
  <circle cx="29.09" cy="37.88" r="0.4" fill="#dd3333"/>
  <circle cx="30.00" cy="36.46" r="0.4" fill="#dd3333"/>
  <circle cx="30.00" cy="35.04" r="0.4" fill="#dd3333"/>
  <circle cx="30.00" cy="35.04" r="0.4" fill="#dd3333"/>
  <circle cx="30.00" cy="33.62" r="0.4" fill="#dd3333"/>
  <circle cx="30.00" cy="33.62" r="0.4" fill="#dd3333"/>
  <circle cx="30.00" cy="30.79" r="0.4" fill="#dd3333"/>
  <circle cx="30.00" cy="32.21" r="0.4" fill="#dd3333"/>
  <circle cx="30.00" cy="32.21" r="0.4" fill="#dd3333"/>
  <circle cx="30.00" cy="30.79" r="0.4" fill="#dd3333"/>
  <circle cx="30.00" cy="29.38" r="0.4" fill="#dd3333"/>
  <circle cx="30.00" cy="29.37" r="0.4" fill="#dd3333"/>
  <circle cx="30.00" cy="27.96" r="0.4" fill="#dd3333"/>
  <circle cx="30.00" cy="27.96" r="0.4" fill="#dd3333"/>
  <circle cx="30.00" cy="26.54" r="0.4" fill="#dd3333"/>
  <circle cx="30.00" cy="25.12" r="0.4" fill="#dd3333"/>
  <circle cx="30.00" cy="26.54" r="0.4" fill="#dd3333"/>
  <circle cx="30.00" cy="23.71" r="0.4" fill="#dd3333"/>
  <circle cx="30.00" cy="25.12" r="0.4" fill="#dd3333"/>
  <circle cx="30.00" cy="19.56" r="0.4" fill="#dd3333"/>
  <circle cx="29.32" cy="19.31" r="0.4" fill="#dd3333"/>
  <circle cx="27.95" cy="19.03" r="0.4" fill="#dd3333"/>
  <circle cx="30.00" cy="23.71" r="0.4" fill="#dd3333"/>
  <circle cx="26.59" cy="18.98" r="0.4" fill="#dd3333"/>
  <circle cx="26.33" cy="19.02" r="0.4" fill="#dd3333"/>
  <circle cx="25.23" cy="18.98" r="0.4" fill="#dd3333"/>
  <circle cx="25.00" cy="19.01" r="0.4" fill="#dd3333"/>
  <circle cx="23.86" cy="18.98" r="0.4" fill="#dd3333"/>
  <circle cx="23.67" cy="19.01" r="0.4" fill="#dd3333"/>
  <circle cx="22.50" cy="18.99" r="0.4" fill="#dd3333"/>
  <circle cx="22.33" cy="19.01" r="0.4" fill="#dd3333"/>
  <circle cx="21.14" cy="18.99" r="0.4" fill="#dd3333"/>
  <circle cx="21.00" cy="19.01" r="0.4" fill="#dd3333"/>
  <circle cx="19.77" cy="18.99" r="0.4" fill="#dd3333"/>
  <circle cx="19.67" cy="19.01" r="0.4" fill="#dd3333"/>
  <circle cx="17.00" cy="21.00" r="0.4" fill="#dd3333"/>
  <circle cx="15.67" cy="22.33" r="0.4" fill="#dd3333"/>
  <circle cx="18.33" cy="19.67" r="0.4" fill="#dd3333"/>
  <circle cx="19.00" cy="19.00" r="0.4" fill="#dd3333"/>
  <circle cx="18.41" cy="18.39" r="0.4" fill="#dd3333"/>
  <circle cx="18.33" cy="19.67" r="0.4" fill="#dd3333"/>
  <circle cx="18.32" cy="18.33" r="0.4" fill="#dd3333"/>
  <circle cx="17.05" cy="17.03" r="0.4" fill="#dd3333"/>
  <circle cx="16.99" cy="17.00" r="0.4" fill="#dd3333"/>
  <circle cx="15.68" cy="15.67" r="0.4" fill="#dd3333"/>
  <circle cx="15.00" cy="15.00" r="0.35" fill="#4466aa"/>
  <circle cx="45.00" cy="15.00" r="0.35" fill="#4466aa"/>
  <circle cx="45.00" cy="23.00" r="0.35" fill="#4466aa"/>
  <circle cx="33.00" cy="23.00" r="0.35" fill="#4466aa"/>
  <circle cx="33.00" cy="40.00" r="0.35" fill="#4466aa"/>
  <circle cx="27.00" cy="40.00" r="0.35" fill="#4466aa"/>
  <circle cx="27.00" cy="23.00" r="0.35" fill="#4466aa"/>
  <circle cx="15.00" cy="23.00" r="0.35" fill="#4466aa"/>
</g>
</svg>
