<svg xmlns="http://www.w3.org/2000/svg" width="60" height="55" viewBox="0 0 60 55"><path fill="#e8edff" stroke="#4466aa" stroke-width="0.3" d="M15,15 L45,15 L45,23 L33,23 L33,40 L27,40 L27,23 L15,23 Z"/><line x1="33" y1="23" x2="30" y2="20" stroke="#bbbbbb" stroke-width="0.25" stroke-linecap="round"/><line x1="27" y1="23" x2="30" y2="20" stroke="#bbbbbb" stroke-width="0.25" stroke-linecap="round"/><line x1="33" y1="40" x2="30" y2="37" stroke="#bbbbbb" stroke-width="0.25" stroke-linecap="round"/><line x1="27" y1="40" x2="30" y2="37" stroke="#bbbbbb" stroke-width="0.25" stroke-linecap="round"/><line x1="30" y1="37" x2="30" y2="28.5" stroke="#bbbbbb" stroke-width="0.25" stroke-linecap="round"/><line x1="30" y1="20" x2="30" y2="28.5" stroke="#bbbbbb" stroke-width="0.25" stroke-linecap="round"/><line x1="30" y1="20" x2="30" y2="19" stroke="#bbbbbb" stroke-width="0.25" stroke-linecap="round"/><line x1="45" y1="15" x2="41" y2="19" stroke="#bbbbbb" stroke-width="0.25" stroke-linecap="round"/><line x1="45" y1="23" x2="41" y2="19" stroke="#bbbbbb" stroke-width="0.25" stroke-linecap="round"/><line x1="15" y1="23" x2="19" y2="19" stroke="#bbbbbb" stroke-width="0.25" stroke-linecap="round"/><line x1="15" y1="15" x2="19" y2="19" stroke="#bbbbbb" stroke-width="0.25" stroke-linecap="round"/><line x1="41" y1="19" x2="35.5" y2="19" stroke="#bbbbbb" stroke-width="0.25" stroke-linecap="round"/><line x1="30" y1="19" x2="35.5" y2="19" stroke="#bbbbbb" stroke-width="0.25" stroke-linecap="round"/><line x1="19" y1="19" x2="24.5" y2="19" stroke="#bbbbbb" stroke-width="0.25" stroke-linecap="round"/><line x1="30" y1="19" x2="24.5" y2="19" stroke="#bbbbbb" stroke-width="0.25" stroke-linecap="round"/><circle cx="33" cy="23" r="0.4" fill="#bbbbbb"/><circle cx="30" cy="20" r="0.4" fill="#bbbbbb"/><circle cx="27" cy="23" r="0.4" fill="#bbbbbb"/><circle cx="33" cy="40" r="0.4" fill="#bbbbbb"/><circle cx="30" cy="37" r="0.4" fill="#bbbbbb"/><circle cx="27" cy="40" r="0.4" fill="#bbbbbb"/><circle cx="30" cy="28.5" r="0.4" fill="#bbbbbb"/><circle cx="30" cy="19" r="0.4" fill="#bbbbbb"/><circle cx="45" cy="15" r="0.4" fill="#bbbbbb"/><circle cx="41" cy="19" r="0.4" fill="#bbbbbb"/><circle cx="45" cy="23" r="0.4" fill="#bbbbbb"/><circle cx="15" cy="23" r="0.4" fill="#bbbbbb"/><circle cx="19" cy="19" r="0.4" fill="#bbbbbb"/><circle cx="15" cy="15" r="0.4" fill="#bbbbbb"/><circle cx="35.5" cy="19" r="0.4" fill="#bbbbbb"/><circle cx="24.5" cy="19" r="0.4" fill="#bbbbbb"/><line x1="30" y1="37" x2="30" y2="28.5" stroke="#dd3333" stroke-width="0.75" stroke-linecap="round"/><line x1="30" y1="20" x2="30" y2="28.5" stroke="#dd3333" stroke-width="0.75" stroke-linecap="round"/><line x1="30" y1="20" x2="30" y2="19" stroke="#dd3333" stroke-width="0.75" stroke-linecap="round"/><line x1="41" y1="19" x2="35.5" y2="19" stroke="#dd3333" stroke-width="0.75" stroke-linecap="round"/><line x1="30" y1="19" x2="35.5" y2="19" stroke="#dd3333" stroke-width="0.75" stroke-linecap="round"/><line x1="19" y1="19" x2="24.5" y2="19" stroke="#dd3333" stroke-width="0.75" stroke-linecap="round"/><line x1="30" y1="19" x2="24.5" y2="19" stroke="#dd3333" stroke-width="0.75" stroke-linecap="round"/><circle cx="33" cy="23" r="0" fill="#dd3333"/><circle cx="30" cy="20" r="0" fill="#dd3333"/><circle cx="27" cy="23" r="0" fill="#dd3333"/><circle cx="33" cy="40" r="0" fill="#dd3333"/><circle cx="30" cy="37" r="0" fill="#dd3333"/><circle cx="27" cy="40" r="0" fill="#dd3333"/><circle cx="30" cy="28.5" r="0" fill="#dd3333"/><circle cx="30" cy="19" r="0" fill="#dd3333"/><circle cx="45" cy="15" r="0" fill="#dd3333"/><circle cx="41" cy="19" r="0" fill="#dd3333"/><circle cx="45" cy="23" r="0" fill="#dd3333"/><circle cx="15" cy="23" r="0" fill="#dd3333"/><circle cx="19" cy="19" r="0" fill="#dd3333"/><circle cx="15" cy="15" r="0" fill="#dd3333"/><circle cx="35.5" cy="19" r="0" fill="#dd3333"/><circle cx="24.5" cy="19" r="0" fill="#dd3333"/></svg>