<svg xmlns="http://www.w3.org/2000/svg" width="40" height="38" viewBox="0 0 40 38"><path fill="#e8edff" stroke="#4466aa" stroke-width="0.3" d="M20,15 L25,23.65999984741211 L15,23.65999984741211 Z"/><line x1="22.000089645385742" y1="21.92799949645996" x2="24" y2="23.082679748535156" stroke="#bbbbbb" stroke-width="0.25" stroke-linecap="round"/><line x1="22.000089645385742" y1="21.92799949645996" x2="22.000003814697266" y2="21.928001403808594" stroke="#bbbbbb" stroke-width="0.25" stroke-linecap="round"/><line x1="20.0001277923584" y1="20.773338317871094" x2="22.000003814697266" y2="21.928001403808594" stroke="#bbbbbb" stroke-width="0.25" stroke-linecap="round"/><line x1="20.0001277923584" y1="20.773338317871094" x2="20" y2="20.7733154296875" stroke="#bbbbbb" stroke-width="0.25" stroke-linecap="round"/><line x1="20" y1="20.7733154296875" x2="20" y2="18.46405029296875" stroke="#bbbbbb" stroke-width="0.25" stroke-linecap="round"/><circle cx="22.000089645385742" cy="21.92799949645996" r="0.4" fill="#bbbbbb"/><circle cx="24" cy="23.082679748535156" r="0.4" fill="#bbbbbb"/><circle cx="22.000003814697266" cy="21.928001403808594" r="0.4" fill="#bbbbbb"/><circle cx="20.0001277923584" cy="20.773338317871094" r="0.4" fill="#bbbbbb"/><circle cx="20" cy="20.7733154296875" r="0.4" fill="#bbbbbb"/><circle cx="20" cy="18.46405029296875" r="0.4" fill="#bbbbbb"/><circle cx="22.000089645385742" cy="21.92799949645996" r="0" fill="#dd3333"/><circle cx="24" cy="23.082679748535156" r="0" fill="#dd3333"/><circle cx="22.000003814697266" cy="21.928001403808594" r="0" fill="#dd3333"/><circle cx="20.0001277923584" cy="20.773338317871094" r="0" fill="#dd3333"/><circle cx="20" cy="20.7733154296875" r="0" fill="#dd3333"/><circle cx="20" cy="18.46405029296875" r="0" fill="#dd3333"/></svg>