<svg xmlns="http://www.w3.org/2000/svg" width="1200.00" height="786.60" viewBox="-1.00 -1.00 122.00 80.66">
<style>text { font-family: sans-serif; font-size: 3px; fill: #333; }</style>
<rect x="-1" y="-1" width="122.00" height="80.66" fill="white"/>
<g transform="translate(0.00, 0)">
  <text x="20.00" y="43.66" text-anchor="middle">StraightSkeleton (3e, 4n)</text>
  <polygon points="20.00,15.00 25.00,23.66 15.00,23.66" fill="#f0f4ff" stroke="#4466aa" stroke-width="0.3"/>
  <line x1="20.00" y1="15.00" x2="20.00" y2="20.77" stroke="#dd3333" stroke-width="0.25" stroke-linecap="round"/>
  <line x1="25.00" y1="23.66" x2="20.00" y2="20.77" stroke="#dd3333" stroke-width="0.25" stroke-linecap="round"/>
  <line x1="15.00" y1="23.66" x2="20.00" y2="20.77" stroke="#dd3333" stroke-width="0.25" stroke-linecap="round"/>
  <circle cx="20.00" cy="15.00" r="0.4" fill="#dd3333"/>
  <circle cx="20.00" cy="20.77" r="0.4" fill="#dd3333"/>
  <circle cx="25.00" cy="23.66" r="0.4" fill="#dd3333"/>
  <circle cx="15.00" cy="23.66" r="0.4" fill="#dd3333"/>
  <circle cx="20.00" cy="15.00" r="0.35" fill="#4466aa"/>
  <circle cx="25.00" cy="23.66" r="0.35" fill="#4466aa"/>
  <circle cx="15.00" cy="23.66" r="0.35" fill="#4466aa"/>
</g>
<g transform="translate(40.00, 0)">
  <text x="20.00" y="43.66" text-anchor="middle">ChordalAxis (0e, 0n)</text>
  <polygon points="20.00,15.00 25.00,23.66 15.00,23.66" fill="#f0f4ff" stroke="#4466aa" stroke-width="0.3"/>
  <circle cx="20.00" cy="15.00" r="0.35" fill="#4466aa"/>
  <circle cx="25.00" cy="23.66" r="0.35" fill="#4466aa"/>
  <circle cx="15.00" cy="23.66" r="0.35" fill="#4466aa"/>
</g>
<g transform="translate(80.00, 0)">
  <text x="20.00" y="43.66" text-anchor="middle">Voronoi (26e, 28n)</text>
  <polygon points="20.00,15.00 25.00,23.66 15.00,23.66" fill="#f0f4ff" stroke="#4466aa" stroke-width="0.3"/>
  <line x1="23.50" y1="22.79" x2="24.50" y2="23.37" stroke="#dd3333" stroke-width="0.25" stroke-linecap="round"/>
  <line x1="23.50" y1="22.79" x2="23.50" y2="22.79" stroke="#dd3333" stroke-width="0.25" stroke-linecap="round"/>
  <line x1="22.50" y1="22.22" x2="23.50" y2="22.79" stroke="#dd3333" stroke-width="0.25" stroke-linecap="round"/>
  <line x1="22.50" y1="22.22" x2="22.50" y2="22.22" stroke="#dd3333" stroke-width="0.25" stroke-linecap="round"/>
  <line x1="21.50" y1="21.64" x2="22.50" y2="22.22" stroke="#dd3333" stroke-width="0.25" stroke-linecap="round"/>
  <line x1="21.50" y1="21.64" x2="21.50" y2="21.64" stroke="#dd3333" stroke-width="0.25" stroke-linecap="round"/>
  <line x1="20.50" y1="21.06" x2="21.50" y2="21.64" stroke="#dd3333" stroke-width="0.25" stroke-linecap="round"/>
  <line x1="20.50" y1="21.06" x2="20.50" y2="21.06" stroke="#dd3333" stroke-width="0.25" stroke-linecap="round"/>
  <line x1="15.50" y1="23.37" x2="16.50" y2="22.79" stroke="#dd3333" stroke-width="0.25" stroke-linecap="round"/>
  <line x1="16.50" y1="22.79" x2="16.50" y2="22.79" stroke="#dd3333" stroke-width="0.25" stroke-linecap="round"/>
  <line x1="16.50" y1="22.79" x2="17.50" y2="22.22" stroke="#dd3333" stroke-width="0.25" stroke-linecap="round"/>
  <line x1="17.50" y1="22.22" x2="17.50" y2="22.22" stroke="#dd3333" stroke-width="0.25" stroke-linecap="round"/>
  <line x1="17.50" y1="22.22" x2="18.50" y2="21.64" stroke="#dd3333" stroke-width="0.25" stroke-linecap="round"/>
  <line x1="18.50" y1="21.64" x2="18.50" y2="21.64" stroke="#dd3333" stroke-width="0.25" stroke-linecap="round"/>
  <line x1="20.50" y1="21.06" x2="20.00" y2="20.77" stroke="#dd3333" stroke-width="0.25" stroke-linecap="round"/>
  <line x1="20.00" y1="20.20" x2="20.00" y2="20.77" stroke="#dd3333" stroke-width="0.25" stroke-linecap="round"/>
  <line x1="20.00" y1="20.77" x2="19.50" y2="21.06" stroke="#dd3333" stroke-width="0.25" stroke-linecap="round"/>
  <line x1="18.50" y1="21.64" x2="19.50" y2="21.06" stroke="#dd3333" stroke-width="0.25" stroke-linecap="round"/>
  <line x1="19.50" y1="21.06" x2="19.50" y2="21.06" stroke="#dd3333" stroke-width="0.25" stroke-linecap="round"/>
  <line x1="20.00" y1="20.20" x2="20.00" y2="20.20" stroke="#dd3333" stroke-width="0.25" stroke-linecap="round"/>
  <line x1="20.00" y1="19.04" x2="20.00" y2="20.20" stroke="#dd3333" stroke-width="0.25" stroke-linecap="round"/>
  <line x1="20.00" y1="19.04" x2="20.00" y2="19.04" stroke="#dd3333" stroke-width="0.25" stroke-linecap="round"/>
  <line x1="20.00" y1="19.04" x2="20.00" y2="17.89" stroke="#dd3333" stroke-width="0.25" stroke-linecap="round"/>
  <line x1="20.00" y1="17.89" x2="20.00" y2="17.89" stroke="#dd3333" stroke-width="0.25" stroke-linecap="round"/>
  <line x1="20.00" y1="17.89" x2="20.00" y2="16.73" stroke="#dd3333" stroke-width="0.25" stroke-linecap="round"/>
  <line x1="20.00" y1="16.73" x2="20.00" y2="15.58" stroke="#dd3333" stroke-width="0.25" stroke-linecap="round"/>
  <circle cx="23.50" cy="22.79" r="0.4" fill="#dd3333"/>
  <circle cx="24.50" cy="23.37" r="0.4" fill="#dd3333"/>
  <circle cx="23.50" cy="22.79" r="0.4" fill="#dd3333"/>
  <circle cx="22.50" cy="22.22" r="0.4" fill="#dd3333"/>
  <circle cx="22.50" cy="22.22" r="0.4" fill="#dd3333"/>
  <circle cx="21.50" cy="21.64" r="0.4" fill="#dd3333"/>
  <circle cx="21.50" cy="21.64" r="0.4" fill="#dd3333"/>
  <circle cx="20.50" cy="21.06" r="0.4" fill="#dd3333"/>
  <circle cx="20.50" cy="21.06" r="0.4" fill="#dd3333"/>
  <circle cx="15.50" cy="23.37" r="0.4" fill="#dd3333"/>
  <circle cx="16.50" cy="22.79" r="0.4" fill="#dd3333"/>
  <circle cx="16.50" cy="22.79" r="0.4" fill="#dd3333"/>
  <circle cx="17.50" cy="22.22" r="0.4" fill="#dd3333"/>
  <circle cx="17.50" cy="22.22" r="0.4" fill="#dd3333"/>
  <circle cx="18.50" cy="21.64" r="0.4" fill="#dd3333"/>
  <circle cx="18.50" cy="21.64" r="0.4" fill="#dd3333"/>
  <circle cx="20.00" cy="20.77" r="0.4" fill="#dd3333"/>
  <circle cx="20.00" cy="20.20" r="0.4" fill="#dd3333"/>
  <circle cx="19.50" cy="21.06" r="0.4" fill="#dd3333"/>
  <circle cx="19.50" cy="21.06" r="0.4" fill="#dd3333"/>
  <circle cx="20.00" cy="20.20" r="0.4" fill="#dd3333"/>
  <circle cx="20.00" cy="19.04" r="0.4" fill="#dd3333"/>
  <circle cx="20.00" cy="19.04" r="0.4" fill="#dd3333"/>
  <circle cx="20.00" cy="17.89" r="0.4" fill="#dd3333"/>
  <circle cx="20.00" cy="17.89" r="0.4" fill="#dd3333"/>
  <circle cx="20.00" cy="16.73" r="0.4" fill="#dd3333"/>
  <circle cx="20.00" cy="16.73" r="0.4" fill="#dd3333"/>
  <circle cx="20.00" cy="15.58" r="0.4" fill="#dd3333"/>
  <circle cx="20.00" cy="15.00" r="0.35" fill="#4466aa"/>
  <circle cx="25.00" cy="23.66" r="0.35" fill="#4466aa"/>
  <circle cx="15.00" cy="23.66" r="0.35" fill="#4466aa"/>
</g>
</svg>
