<svg xmlns="http://www.w3.org/2000/svg" width="130" height="40" viewBox="0 0 130 40"><path fill="#e8edff" stroke="#4466aa" stroke-width="0.3" d="M15,19.080705642700195 L18.33333396911621,20.39484977722168 L21.666667938232422,20.921470642089844 L25,20.621870040893555 L28.33333396911621,19.833946228027344 L31.666667938232422,19.08058738708496 L35,18.789506912231445 L38.333335876464844,19.06953239440918 L41.66666793823242,19.6586856842041 L45,20.070323944091797 L48.333335876464844,19.861148834228516 L51.66666793823242,18.881622314453125 L55,17.377946853637695 L58.33333206176758,15.890734672546387 L61.66666793823242,15 L65,15.04519271850586 L68.33333587646484,15.962396621704102 L71.66667175292969,17.32113265991211 L75,18.54153823852539 L78.33332824707031,19.1806583404541 L81.66667175292969,19.142009735107422 L85,18.702442169189453 L88.33333587646484,18.34475326538086 L91.66666412353516,18.484533309936523 L95,19.233959197998047 L98.33332824707031,20.326169967651367 L101.66666412353516,21.240793228149414 L105,21.467267990112305 L108.33333587646484,20.771129608154297 L111.66666412353516,19.326004028320312 L115,17.642425537109375 L115,21.904632568359375 L111.66666412353516,23.39212417602539 L108.33333587646484,24.594572067260742 L105,25.012042999267578 L101.66666412353516,24.483089447021484 L98.33332824707031,23.255399703979492 L95,21.85321617126465 L91.66666412353516,20.810455322265625 L88.33333587646484,20.406803131103516 L85,20.541610717773438 L81.66667175292969,20.809032440185547 L78.33332824707031,20.733793258666992 L75,20.04401969909668 L71.66667175292969,18.838409423828125 L68.33333587646484,17.559268951416016 L65,16.78298568725586 L61.66666793823242,16.93387794494629 L58.33333206176758,18.067293167114258 L55,19.833171844482422 L51.66666793823242,21.639326095581055 L48.333335876464844,22.93191909790039 L45,23.451066970825195 L41.66666793823242,23.332763671875 L38.333335876464844,23.007484436035156 L35,22.95033836364746 L31.666667938232422,23.413562774658203 L28.33333396911621,24.280811309814453 L25,25.119388580322266 L21.666667938232422,25.404193878173828 L18.33333396911621,24.797977447509766 L15,23.342910766601562 Z"/><line x1="114.7604751586914" y1="17.997093200683594" x2="114.36246490478516" y2="18.70799446105957" stroke="#dd3333" stroke-width="0.25" stroke-linecap="round"/><line x1="114.30165100097656" y1="18.745370864868164" x2="114.36246490478516" y2="18.70799446105957" stroke="#dd3333" stroke-width="0.25" stroke-linecap="round"/><line x1="114.30165100097656" y1="18.745370864868164" x2="113.9250717163086" y2="19.418386459350586" stroke="#dd3333" stroke-width="0.25" stroke-linecap="round"/><line x1="113.84241485595703" y1="19.493480682373047" x2="113.9250717163086" y2="19.418386459350586" stroke="#dd3333" stroke-width="0.25" stroke-linecap="round"/><line x1="113.84241485595703" y1="19.493480682373047" x2="113.48689270019531" y2="20.128786087036133" stroke="#dd3333" stroke-width="0.25" stroke-linecap="round"/><line x1="113.38448333740234" y1="20.240514755249023" x2="113.48689270019531" y2="20.128786087036133" stroke="#dd3333" stroke-width="0.25" stroke-linecap="round"/><line x1="113.38448333740234" y1="20.240514755249023" x2="113.12930297851562" y2="20.695444107055664" stroke="#dd3333" stroke-width="0.25" stroke-linecap="round"/><line x1="112.83206176757812" y1="20.80805015563965" x2="113.12930297851562" y2="20.695444107055664" stroke="#dd3333" stroke-width="0.25" stroke-linecap="round"/><line x1="112.83206176757812" y1="20.80805015563965" x2="112.58260345458984" y2="20.96548843383789" stroke="#dd3333" stroke-width="0.25" stroke-linecap="round"/><line x1="112.0667724609375" y1="21.1636962890625" x2="112.58260345458984" y2="20.96548843383789" stroke="#dd3333" stroke-width="0.25" stroke-linecap="round"/><line x1="112.0667724609375" y1="21.1636962890625" x2="111.9149398803711" y2="21.259544372558594" stroke="#dd3333" stroke-width="0.25" stroke-linecap="round"/><line x1="111.4032974243164" y1="21.456087112426758" x2="111.9149398803711" y2="21.259544372558594" stroke="#dd3333" stroke-width="0.25" stroke-linecap="round"/><line x1="111.4032974243164" y1="21.456087112426758" x2="111.24467468261719" y2="21.554176330566406" stroke="#dd3333" stroke-width="0.25" stroke-linecap="round"/><line x1="110.73748779296875" y1="21.748779296875" x2="111.24467468261719" y2="21.554176330566406" stroke="#dd3333" stroke-width="0.25" stroke-linecap="round"/><line x1="110.73748779296875" y1="21.748779296875" x2="110.70445251464844" y2="21.768747329711914" stroke="#dd3333" stroke-width="0.25" stroke-linecap="round"/><line x1="110.06222534179688" y1="22.018150329589844" x2="110.70445251464844" y2="21.768747329711914" stroke="#dd3333" stroke-width="0.25" stroke-linecap="round"/><line x1="110.06222534179688" y1="22.018150329589844" x2="110.04511260986328" y2="22.029022216796875" stroke="#dd3333" stroke-width="0.25" stroke-linecap="round"/><line x1="109.38733673095703" y1="22.28742218017578" x2="110.04511260986328" y2="22.029022216796875" stroke="#dd3333" stroke-width="0.25" stroke-linecap="round"/><line x1="109.38733673095703" y1="22.28742218017578" x2="109.38402557373047" y2="22.28848648071289" stroke="#dd3333" stroke-width="0.25" stroke-linecap="round"/><line x1="109.38402557373047" y1="22.28848648071289" x2="108.7269287109375" y2="22.551403045654297" stroke="#dd3333" stroke-width="0.25" stroke-linecap="round"/><line x1="108.37129974365234" y1="22.61768913269043" x2="108.7269287109375" y2="22.551403045654297" stroke="#dd3333" stroke-width="0.25" stroke-linecap="round"/><line x1="108.37129974365234" y1="22.61768913269043" x2="108.04320526123047" y2="22.74469566345215" stroke="#dd3333" stroke-width="0.25" stroke-linecap="round"/><line x1="108.04320526123047" y1="22.74469566345215" x2="107.76990509033203" y2="22.794292449951172" stroke="#dd3333" stroke-width="0.25" stroke-linecap="round"/><line x1="107.71194458007812" y1="22.794204711914062" x2="107.76990509033203" y2="22.794292449951172" stroke="#dd3333" stroke-width="0.25" stroke-linecap="round"/><line x1="107.71194458007812" y1="22.794204711914062" x2="107.10511779785156" y2="22.905498504638672" stroke="#dd3333" stroke-width="0.25" stroke-linecap="round"/><line x1="107.0402603149414" y1="22.90554428100586" x2="107.10511779785156" y2="22.905498504638672" stroke="#dd3333" stroke-width="0.25" stroke-linecap="round"/><line x1="107.0402603149414" y1="22.90554428100586" x2="106.44385528564453" y2="23.01687240600586" stroke="#dd3333" stroke-width="0.25" stroke-linecap="round"/><line x1="106.36679077148438" y1="23.016876220703125" x2="106.44385528564453" y2="23.01687240600586" stroke="#dd3333" stroke-width="0.25" stroke-linecap="round"/><line x1="106.36679077148438" y1="23.016876220703125" x2="105.77787017822266" y2="23.128246307373047" stroke="#dd3333" stroke-width="0.25" stroke-linecap="round"/><line x1="105.6944808959961" y1="23.128358840942383" x2="105.77787017822266" y2="23.128246307373047" stroke="#dd3333" stroke-width="0.25" stroke-linecap="round"/><line x1="105.6944808959961" y1="23.128358840942383" x2="105.11630249023438" y2="23.239646911621094" stroke="#dd3333" stroke-width="0.25" stroke-linecap="round"/><line x1="105.11630249023438" y1="23.239646911621094" x2="104.940185546875" y2="23.23971176147461" stroke="#dd3333" stroke-width="0.25" stroke-linecap="round"/><line x1="104.54979705810547" y1="23.16408348083496" x2="104.940185546875" y2="23.23971176147461" stroke="#dd3333" stroke-width="0.25" stroke-linecap="round"/><line x1="104.54979705810547" y1="23.16408348083496" x2="104.26795959472656" y2="23.164026260375977" stroke="#dd3333" stroke-width="0.25" stroke-linecap="round"/><line x1="103.88544464111328" y1="23.08858299255371" x2="104.26795959472656" y2="23.164026260375977" stroke="#dd3333" stroke-width="0.25" stroke-linecap="round"/><line x1="103.88544464111328" y1="23.08858299255371" x2="103.59738159179688" y2="23.088640213012695" stroke="#dd3333" stroke-width="0.25" stroke-linecap="round"/><line x1="103.2217025756836" y1="23.013084411621094" x2="103.59738159179688" y2="23.088640213012695" stroke="#dd3333" stroke-width="0.25" stroke-linecap="round"/><line x1="103.2217025756836" y1="23.013084411621094" x2="102.9251937866211" y2="23.013071060180664" stroke="#dd3333" stroke-width="0.25" stroke-linecap="round"/><line x1="102.5561294555664" y1="22.93753433227539" x2="102.9251937866211" y2="23.013071060180664" stroke="#dd3333" stroke-width="0.25" stroke-linecap="round"/><line x1="102.5561294555664" y1="22.93753433227539" x2="102.25377655029297" y2="22.937477111816406" stroke="#dd3333" stroke-width="0.25" stroke-linecap="round"/><line x1="101.89069366455078" y1="22.861867904663086" x2="102.25377655029297" y2="22.937477111816406" stroke="#dd3333" stroke-width="0.25" stroke-linecap="round"/><line x1="101.89069366455078" y1="22.861867904663086" x2="101.88631439208984" y2="22.861934661865234" stroke="#dd3333" stroke-width="0.25" stroke-linecap="round"/><line x1="101.88631439208984" y1="22.861934661865234" x2="101.18571472167969" y2="22.706228256225586" stroke="#dd3333" stroke-width="0.25" stroke-linecap="round"/><line x1="100.93933868408203" y1="22.58684539794922" x2="101.18571472167969" y2="22.706228256225586" stroke="#dd3333" stroke-width="0.25" stroke-linecap="round"/><line x1="100.93933868408203" y1="22.58684539794922" x2="100.50870513916016" y2="22.489120483398438" stroke="#dd3333" stroke-width="0.25" stroke-linecap="round"/><line x1="100.28038024902344" y1="22.375829696655273" x2="100.50870513916016" y2="22.489120483398438" stroke="#dd3333" stroke-width="0.25" stroke-linecap="round"/><line x1="100.28038024902344" y1="22.375829696655273" x2="99.83097076416016" y2="22.271574020385742" stroke="#dd3333" stroke-width="0.25" stroke-linecap="round"/><line x1="99.62078094482422" y1="22.16477394104004" x2="99.83097076416016" y2="22.271574020385742" stroke="#dd3333" stroke-width="0.25" stroke-linecap="round"/><line x1="99.62078094482422" y1="22.16477394104004" x2="99.15469360351562" y2="22.05394744873047" stroke="#dd3333" stroke-width="0.25" stroke-linecap="round"/><line x1="98.96163177490234" y1="21.95396614074707" x2="99.15469360351562" y2="22.05394744873047" stroke="#dd3333" stroke-width="0.25" stroke-linecap="round"/><line x1="98.96163177490234" y1="21.95396614074707" x2="98.53248596191406" y2="21.84964942932129" stroke="#dd3333" stroke-width="0.25" stroke-linecap="round"/><line x1="98.30775451660156" y1="21.727792739868164" x2="98.53248596191406" y2="21.84964942932129" stroke="#dd3333" stroke-width="0.25" stroke-linecap="round"/><line x1="98.30775451660156" y1="21.727792739868164" x2="97.8469467163086" y2="21.61207389831543" stroke="#dd3333" stroke-width="0.25" stroke-linecap="round"/><line x1="97.59040832519531" y1="21.467256546020508" x2="97.8469467163086" y2="21.61207389831543" stroke="#dd3333" stroke-width="0.25" stroke-linecap="round"/><line x1="97.59040832519531" y1="21.467256546020508" x2="97.16974639892578" y2="21.358692169189453" stroke="#dd3333" stroke-width="0.25" stroke-linecap="round"/><line x1="96.9321517944336" y1="21.221847534179688" x2="97.16974639892578" y2="21.358692169189453" stroke="#dd3333" stroke-width="0.25" stroke-linecap="round"/><line x1="96.9321517944336" y1="21.221847534179688" x2="96.49214172363281" y2="21.10551643371582" stroke="#dd3333" stroke-width="0.25" stroke-linecap="round"/><line x1="96.27388763427734" y1="20.976394653320312" x2="96.49214172363281" y2="21.10551643371582" stroke="#dd3333" stroke-width="0.25" stroke-linecap="round"/><line x1="96.27388763427734" y1="20.976394653320312" x2="95.81378936767578" y2="20.851797103881836" stroke="#dd3333" stroke-width="0.25" stroke-linecap="round"/><line x1="95.61688232421875" y1="20.731447219848633" x2="95.81378936767578" y2="20.851797103881836" stroke="#dd3333" stroke-width="0.25" stroke-linecap="round"/><line x1="94.3956069946289" y1="20.36439323425293" x2="94.94865417480469" y2="20.517351150512695" stroke="#dd3333" stroke-width="0.25" stroke-linecap="round"/><line x1="95.61688232421875" y1="20.731447219848633" x2="95.03466796875" y2="20.56989097595215" stroke="#dd3333" stroke-width="0.25" stroke-linecap="round"/><line x1="94.94865417480469" y1="20.517351150512695" x2="95.03466796875" y2="20.56989097595215" stroke="#dd3333" stroke-width="0.25" stroke-linecap="round"/><line x1="94.3956069946289" y1="20.36439323425293" x2="94.36829376220703" y2="20.36437225341797" stroke="#dd3333" stroke-width="0.25" stroke-linecap="round"/><line x1="93.73589324951172" y1="20.18505859375" x2="94.36829376220703" y2="20.36437225341797" stroke="#dd3333" stroke-width="0.25" stroke-linecap="round"/><line x1="93.73589324951172" y1="20.18505859375" x2="93.69100189208984" y2="20.185060501098633" stroke="#dd3333" stroke-width="0.25" stroke-linecap="round"/><line x1="93.07508850097656" y1="20.005889892578125" x2="93.69100189208984" y2="20.185060501098633" stroke="#dd3333" stroke-width="0.25" stroke-linecap="round"/><line x1="93.07508850097656" y1="20.005889892578125" x2="93.01641082763672" y2="20.005887985229492" stroke="#dd3333" stroke-width="0.25" stroke-linecap="round"/><line x1="92.41519927978516" y1="19.82672119140625" x2="93.01641082763672" y2="20.005887985229492" stroke="#dd3333" stroke-width="0.25" stroke-linecap="round"/><line x1="92.41519927978516" y1="19.82672119140625" x2="92.34114074707031" y2="19.826757431030273" stroke="#dd3333" stroke-width="0.25" stroke-linecap="round"/><line x1="91.7552261352539" y1="19.647443771362305" x2="92.34114074707031" y2="19.826757431030273" stroke="#dd3333" stroke-width="0.25" stroke-linecap="round"/><line x1="91.7552261352539" y1="19.647443771362305" x2="91.4686050415039" y2="19.647441864013672" stroke="#dd3333" stroke-width="0.25" stroke-linecap="round"/><line x1="91.28600311279297" y1="19.593284606933594" x2="91.4686050415039" y2="19.647441864013672" stroke="#dd3333" stroke-width="0.25" stroke-linecap="round"/><line x1="91.28600311279297" y1="19.593284606933594" x2="90.80030822753906" y2="19.59329605102539" stroke="#dd3333" stroke-width="0.25" stroke-linecap="round"/><line x1="90.62075805664062" y1="19.538854598999023" x2="90.80030822753906" y2="19.59329605102539" stroke="#dd3333" stroke-width="0.25" stroke-linecap="round"/><line x1="90.62075805664062" y1="19.538854598999023" x2="90.12879943847656" y2="19.538835525512695" stroke="#dd3333" stroke-width="0.25" stroke-linecap="round"/><line x1="89.95528411865234" y1="19.484561920166016" x2="90.12879943847656" y2="19.538835525512695" stroke="#dd3333" stroke-width="0.25" stroke-linecap="round"/><line x1="89.95528411865234" y1="19.484561920166016" x2="89.46066284179688" y2="19.48457145690918" stroke="#dd3333" stroke-width="0.25" stroke-linecap="round"/><line x1="89.28956604003906" y1="19.430072784423828" x2="89.46066284179688" y2="19.48457145690918" stroke="#dd3333" stroke-width="0.25" stroke-linecap="round"/><line x1="88.1070556640625" y1="19.375823974609375" x2="88.62319946289062" y2="19.375812530517578" stroke="#dd3333" stroke-width="0.25" stroke-linecap="round"/><line x1="89.28956604003906" y1="19.430072784423828" x2="88.78929901123047" y2="19.43007469177246" stroke="#dd3333" stroke-width="0.25" stroke-linecap="round"/><line x1="88.62319946289062" y1="19.375812530517578" x2="88.78929901123047" y2="19.43007469177246" stroke="#dd3333" stroke-width="0.25" stroke-linecap="round"/><line x1="88.1070556640625" y1="19.375823974609375" x2="87.96107482910156" y2="19.425020217895508" stroke="#dd3333" stroke-width="0.25" stroke-linecap="round"/><line x1="87.4371566772461" y1="19.424983978271484" x2="87.96107482910156" y2="19.425020217895508" stroke="#dd3333" stroke-width="0.25" stroke-linecap="round"/><line x1="87.4371566772461" y1="19.424983978271484" x2="87.29383850097656" y2="19.474166870117188" stroke="#dd3333" stroke-width="0.25" stroke-linecap="round"/><line x1="86.76935577392578" y1="19.47418785095215" x2="87.29383850097656" y2="19.474166870117188" stroke="#dd3333" stroke-width="0.25" stroke-linecap="round"/><line x1="86.76935577392578" y1="19.47418785095215" x2="86.62843322753906" y2="19.523645401000977" stroke="#dd3333" stroke-width="0.25" stroke-linecap="round"/><line x1="86.09896087646484" y1="19.523618698120117" x2="86.62843322753906" y2="19.523645401000977" stroke="#dd3333" stroke-width="0.25" stroke-linecap="round"/><line x1="86.09896087646484" y1="19.523618698120117" x2="85.963623046875" y2="19.572715759277344" stroke="#dd3333" stroke-width="0.25" stroke-linecap="round"/><line x1="85.43022155761719" y1="19.572710037231445" x2="85.963623046875" y2="19.572715759277344" stroke="#dd3333" stroke-width="0.25" stroke-linecap="round"/><line x1="85.43022155761719" y1="19.572710037231445" x2="85.29653930664062" y2="19.62198829650879" stroke="#dd3333" stroke-width="0.25" stroke-linecap="round"/><line x1="84.78163146972656" y1="19.621986389160156" x2="85.29653930664062" y2="19.62198829650879" stroke="#dd3333" stroke-width="0.25" stroke-linecap="round"/><line x1="84.78163146972656" y1="19.621986389160156" x2="84.59600830078125" y2="19.69269371032715" stroke="#dd3333" stroke-width="0.25" stroke-linecap="round"/><line x1="84.11359405517578" y1="19.692707061767578" x2="84.59600830078125" y2="19.69269371032715" stroke="#dd3333" stroke-width="0.25" stroke-linecap="round"/><line x1="84.11359405517578" y1="19.692707061767578" x2="83.93098449707031" y2="19.763370513916016" stroke="#dd3333" stroke-width="0.25" stroke-linecap="round"/><line x1="83.4443588256836" y1="19.763463973999023" x2="83.93098449707031" y2="19.763370513916016" stroke="#dd3333" stroke-width="0.25" stroke-linecap="round"/><line x1="83.4443588256836" y1="19.763463973999023" x2="83.26567840576172" y2="19.834091186523438" stroke="#dd3333" stroke-width="0.25" stroke-linecap="round"/><line x1="82.77556610107422" y1="19.83411407470703" x2="83.26567840576172" y2="19.834091186523438" stroke="#dd3333" stroke-width="0.25" stroke-linecap="round"/><line x1="82.77556610107422" y1="19.83411407470703" x2="82.60089874267578" y2="19.904808044433594" stroke="#dd3333" stroke-width="0.25" stroke-linecap="round"/><line x1="82.10590362548828" y1="19.904787063598633" x2="82.60089874267578" y2="19.904808044433594" stroke="#dd3333" stroke-width="0.25" stroke-linecap="round"/><line x1="82.10590362548828" y1="19.904787063598633" x2="81.93515014648438" y2="19.975669860839844" stroke="#dd3333" stroke-width="0.25" stroke-linecap="round"/><line x1="81.93515014648438" y1="19.975669860839844" x2="81.35231018066406" y2="19.97564697265625" stroke="#dd3333" stroke-width="0.25" stroke-linecap="round"/><line x1="81.34268188476562" y1="19.97183609008789" x2="81.35231018066406" y2="19.97564697265625" stroke="#dd3333" stroke-width="0.25" stroke-linecap="round"/><line x1="81.34268188476562" y1="19.97183609008789" x2="80.68467712402344" y2="19.97185707092285" stroke="#dd3333" stroke-width="0.25" stroke-linecap="round"/><line x1="80.67608642578125" y1="19.968280792236328" x2="80.68467712402344" y2="19.97185707092285" stroke="#dd3333" stroke-width="0.25" stroke-linecap="round"/><line x1="80.67608642578125" y1="19.968280792236328" x2="80.01813507080078" y2="19.96827507019043" stroke="#dd3333" stroke-width="0.25" stroke-linecap="round"/><line x1="80.00902557373047" y1="19.9644775390625" x2="80.01813507080078" y2="19.96827507019043" stroke="#dd3333" stroke-width="0.25" stroke-linecap="round"/><line x1="80.00902557373047" y1="19.9644775390625" x2="79.35070037841797" y2="19.96446418762207" stroke="#dd3333" stroke-width="0.25" stroke-linecap="round"/><line x1="79.34268951416016" y1="19.961027145385742" x2="79.35070037841797" y2="19.96446418762207" stroke="#dd3333" stroke-width="0.25" stroke-linecap="round"/><line x1="79.34268951416016" y1="19.961027145385742" x2="78.68419647216797" y2="19.96103286743164" stroke="#dd3333" stroke-width="0.25" stroke-linecap="round"/><line x1="78.67570495605469" y1="19.957143783569336" x2="78.68419647216797" y2="19.96103286743164" stroke="#dd3333" stroke-width="0.25" stroke-linecap="round"/><line x1="78.67570495605469" y1="19.957143783569336" x2="78.14667510986328" y2="19.957157135009766" stroke="#dd3333" stroke-width="0.25" stroke-linecap="round"/><line x1="77.86426544189453" y1="19.82427978515625" x2="78.14667510986328" y2="19.957157135009766" stroke="#dd3333" stroke-width="0.25" stroke-linecap="round"/><line x1="77.86426544189453" y1="19.82427978515625" x2="77.47867584228516" y2="19.824386596679688" stroke="#dd3333" stroke-width="0.25" stroke-linecap="round"/><line x1="77.19901275634766" y1="19.691553115844727" x2="77.47867584228516" y2="19.824386596679688" stroke="#dd3333" stroke-width="0.25" stroke-linecap="round"/><line x1="77.19901275634766" y1="19.691553115844727" x2="76.81090545654297" y2="19.69155502319336" stroke="#dd3333" stroke-width="0.25" stroke-linecap="round"/><line x1="76.53275299072266" y1="19.558507919311523" x2="76.81090545654297" y2="19.69155502319336" stroke="#dd3333" stroke-width="0.25" stroke-linecap="round"/><line x1="76.53275299072266" y1="19.558507919311523" x2="76.14364624023438" y2="19.558509826660156" stroke="#dd3333" stroke-width="0.25" stroke-linecap="round"/><line x1="75.86715698242188" y1="19.42574119567871" x2="76.14364624023438" y2="19.558509826660156" stroke="#dd3333" stroke-width="0.25" stroke-linecap="round"/><line x1="75.86715698242188" y1="19.42574119567871" x2="75.47589111328125" y2="19.425626754760742" stroke="#dd3333" stroke-width="0.25" stroke-linecap="round"/><line x1="75.20152282714844" y1="19.292770385742188" x2="75.47589111328125" y2="19.425626754760742" stroke="#dd3333" stroke-width="0.25" stroke-linecap="round"/><line x1="75.20152282714844" y1="19.292770385742188" x2="74.89498138427734" y2="19.29264259338379" stroke="#dd3333" stroke-width="0.25" stroke-linecap="round"/><line x1="74.43574523925781" y1="19.05010414123535" x2="74.89498138427734" y2="19.29264259338379" stroke="#dd3333" stroke-width="0.25" stroke-linecap="round"/><line x1="74.43574523925781" y1="19.05010414123535" x2="74.22895812988281" y2="19.050111770629883" stroke="#dd3333" stroke-width="0.25" stroke-linecap="round"/><line x1="73.76864624023438" y1="18.807552337646484" x2="74.22895812988281" y2="19.050111770629883" stroke="#dd3333" stroke-width="0.25" stroke-linecap="round"/><line x1="73.76864624023438" y1="18.807552337646484" x2="73.56283569335938" y2="18.80756187438965" stroke="#dd3333" stroke-width="0.25" stroke-linecap="round"/><line x1="73.10105895996094" y1="18.56498146057129" x2="73.56283569335938" y2="18.80756187438965" stroke="#dd3333" stroke-width="0.25" stroke-linecap="round"/><line x1="73.10105895996094" y1="18.56498146057129" x2="72.89657592773438" y2="18.56510353088379" stroke="#dd3333" stroke-width="0.25" stroke-linecap="round"/><line x1="72.43426513671875" y1="18.322389602661133" x2="72.89657592773438" y2="18.56510353088379" stroke="#dd3333" stroke-width="0.25" stroke-linecap="round"/><line x1="72.43426513671875" y1="18.322389602661133" x2="72.22994995117188" y2="18.322389602661133" stroke="#dd3333" stroke-width="0.25" stroke-linecap="round"/><line x1="71.76693725585938" y1="18.07977867126465" x2="72.22994995117188" y2="18.322389602661133" stroke="#dd3333" stroke-width="0.25" stroke-linecap="round"/><line x1="71.76693725585938" y1="18.07977867126465" x2="71.57552337646484" y2="18.07977867126465" stroke="#dd3333" stroke-width="0.25" stroke-linecap="round"/><line x1="71.07662200927734" y1="17.815898895263672" x2="71.57552337646484" y2="18.07977867126465" stroke="#dd3333" stroke-width="0.25" stroke-linecap="round"/><line x1="71.07662200927734" y1="17.815898895263672" x2="70.911865234375" y2="17.815900802612305" stroke="#dd3333" stroke-width="0.25" stroke-linecap="round"/><line x1="70.40611267089844" y1="17.55225372314453" x2="70.911865234375" y2="17.815900802612305" stroke="#dd3333" stroke-width="0.25" stroke-linecap="round"/><line x1="70.40611267089844" y1="17.55225372314453" x2="70.24801635742188" y2="17.55219268798828" stroke="#dd3333" stroke-width="0.25" stroke-linecap="round"/><line x1="69.73590850830078" y1="17.28835678100586" x2="70.24801635742188" y2="17.55219268798828" stroke="#dd3333" stroke-width="0.25" stroke-linecap="round"/><line x1="69.73590850830078" y1="17.28835678100586" x2="69.58450317382812" y2="17.288406372070312" stroke="#dd3333" stroke-width="0.25" stroke-linecap="round"/><line x1="69.06657409667969" y1="17.024654388427734" x2="69.58450317382812" y2="17.288406372070312" stroke="#dd3333" stroke-width="0.25" stroke-linecap="round"/><line x1="69.06657409667969" y1="17.024654388427734" x2="68.92092895507812" y2="17.024662017822266" stroke="#dd3333" stroke-width="0.25" stroke-linecap="round"/><line x1="68.39646911621094" y1="16.760847091674805" x2="68.92092895507812" y2="17.024662017822266" stroke="#dd3333" stroke-width="0.25" stroke-linecap="round"/><line x1="68.39646911621094" y1="16.760847091674805" x2="68.16806030273438" y2="16.76084327697754" stroke="#dd3333" stroke-width="0.25" stroke-linecap="round"/><line x1="67.80175018310547" y1="16.591480255126953" x2="68.16806030273438" y2="16.76084327697754" stroke="#dd3333" stroke-width="0.25" stroke-linecap="round"/><line x1="67.80175018310547" y1="16.591480255126953" x2="67.50456237792969" y2="16.591482162475586" stroke="#dd3333" stroke-width="0.25" stroke-linecap="round"/><line x1="67.13130950927734" y1="16.422069549560547" x2="67.50456237792969" y2="16.591482162475586" stroke="#dd3333" stroke-width="0.25" stroke-linecap="round"/><line x1="67.13130950927734" y1="16.422069549560547" x2="66.84123229980469" y2="16.422122955322266" stroke="#dd3333" stroke-width="0.25" stroke-linecap="round"/><line x1="66.46060180664062" y1="16.252788543701172" x2="66.84123229980469" y2="16.422122955322266" stroke="#dd3333" stroke-width="0.25" stroke-linecap="round"/><line x1="66.46060180664062" y1="16.252788543701172" x2="66.17756652832031" y2="16.252735137939453" stroke="#dd3333" stroke-width="0.25" stroke-linecap="round"/><line x1="65.78974151611328" y1="16.08342933654785" x2="66.17756652832031" y2="16.252735137939453" stroke="#dd3333" stroke-width="0.25" stroke-linecap="round"/><line x1="64.65471649169922" y1="15.914115905761719" x2="65.11940002441406" y2="15.914116859436035" stroke="#dd3333" stroke-width="0.25" stroke-linecap="round"/><line x1="65.78974151611328" y1="16.08342933654785" x2="65.51457977294922" y2="16.083417892456055" stroke="#dd3333" stroke-width="0.25" stroke-linecap="round"/><line x1="65.11940002441406" y1="15.914116859436035" x2="65.51457977294922" y2="16.083417892456055" stroke="#dd3333" stroke-width="0.25" stroke-linecap="round"/><line x1="64.65471649169922" y1="15.914115905761719" x2="64.62722778320312" y2="15.924646377563477" stroke="#dd3333" stroke-width="0.25" stroke-linecap="round"/><line x1="63.98777770996094" y1="15.924629211425781" x2="64.62722778320312" y2="15.924646377563477" stroke="#dd3333" stroke-width="0.25" stroke-linecap="round"/><line x1="63.98777770996094" y1="15.924629211425781" x2="63.95936965942383" y2="15.935213088989258" stroke="#dd3333" stroke-width="0.25" stroke-linecap="round"/><line x1="63.32109451293945" y1="15.935173034667969" x2="63.95936965942383" y2="15.935213088989258" stroke="#dd3333" stroke-width="0.25" stroke-linecap="round"/><line x1="63.32109451293945" y1="15.935173034667969" x2="63.29171371459961" y2="15.945806503295898" stroke="#dd3333" stroke-width="0.25" stroke-linecap="round"/><line x1="62.65398406982422" y1="15.945798873901367" x2="63.29171371459961" y2="15.945806503295898" stroke="#dd3333" stroke-width="0.25" stroke-linecap="round"/><line x1="62.65398406982422" y1="15.945798873901367" x2="62.624446868896484" y2="15.956415176391602" stroke="#dd3333" stroke-width="0.25" stroke-linecap="round"/><line x1="61.987144470214844" y1="15.956371307373047" x2="62.624446868896484" y2="15.956415176391602" stroke="#dd3333" stroke-width="0.25" stroke-linecap="round"/><line x1="61.987144470214844" y1="15.956371307373047" x2="61.956790924072266" y2="15.966954231262207" stroke="#dd3333" stroke-width="0.25" stroke-linecap="round"/><line x1="61.56764221191406" y1="15.966948509216309" x2="61.956790924072266" y2="15.966954231262207" stroke="#dd3333" stroke-width="0.25" stroke-linecap="round"/><line x1="61.56764221191406" y1="15.966948509216309" x2="61.035030364990234" y2="16.16933250427246" stroke="#dd3333" stroke-width="0.25" stroke-linecap="round"/><line x1="60.90773010253906" y1="16.169334411621094" x2="61.035030364990234" y2="16.16933250427246" stroke="#dd3333" stroke-width="0.25" stroke-linecap="round"/><line x1="60.90773010253906" y1="16.169334411621094" x2="60.35991668701172" y2="16.3716983795166" stroke="#dd3333" stroke-width="0.25" stroke-linecap="round"/><line x1="60.24759292602539" y1="16.37174415588379" x2="60.35991668701172" y2="16.3716983795166" stroke="#dd3333" stroke-width="0.25" stroke-linecap="round"/><line x1="60.24759292602539" y1="16.37174415588379" x2="59.684967041015625" y2="16.57417106628418" stroke="#dd3333" stroke-width="0.25" stroke-linecap="round"/><line x1="59.587467193603516" y1="16.574169158935547" x2="59.684967041015625" y2="16.57417106628418" stroke="#dd3333" stroke-width="0.25" stroke-linecap="round"/><line x1="58.407936096191406" y1="16.954092025756836" x2="58.92711639404297" y2="16.776622772216797" stroke="#dd3333" stroke-width="0.25" stroke-linecap="round"/><line x1="59.587467193603516" y1="16.574169158935547" x2="59.01002502441406" y2="16.77662467956543" stroke="#dd3333" stroke-width="0.25" stroke-linecap="round"/><line x1="58.92711639404297" y1="16.776622772216797" x2="59.01002502441406" y2="16.77662467956543" stroke="#dd3333" stroke-width="0.25" stroke-linecap="round"/><line x1="58.407936096191406" y1="16.954092025756836" x2="58.34428787231445" y2="17.005624771118164" stroke="#dd3333" stroke-width="0.25" stroke-linecap="round"/><line x1="57.72901153564453" y1="17.223926544189453" x2="58.34428787231445" y2="17.005624771118164" stroke="#dd3333" stroke-width="0.25" stroke-linecap="round"/><line x1="57.72901153564453" y1="17.223926544189453" x2="57.54283905029297" y2="17.380828857421875" stroke="#dd3333" stroke-width="0.25" stroke-linecap="round"/><line x1="57.07212829589844" y1="17.543031692504883" x2="57.54283905029297" y2="17.380828857421875" stroke="#dd3333" stroke-width="0.25" stroke-linecap="round"/><line x1="57.07212829589844" y1="17.543031692504883" x2="56.864532470703125" y2="17.712114334106445" stroke="#dd3333" stroke-width="0.25" stroke-linecap="round"/><line x1="56.415348052978516" y1="17.862552642822266" x2="56.864532470703125" y2="17.712114334106445" stroke="#dd3333" stroke-width="0.25" stroke-linecap="round"/><line x1="56.415348052978516" y1="17.862552642822266" x2="56.186004638671875" y2="18.0429744720459" stroke="#dd3333" stroke-width="0.25" stroke-linecap="round"/><line x1="55.758384704589844" y1="18.182348251342773" x2="56.186004638671875" y2="18.0429744720459" stroke="#dd3333" stroke-width="0.25" stroke-linecap="round"/><line x1="55.758384704589844" y1="18.182348251342773" x2="55.507503509521484" y2="18.373722076416016" stroke="#dd3333" stroke-width="0.25" stroke-linecap="round"/><line x1="55.10569381713867" y1="18.501174926757812" x2="55.507503509521484" y2="18.373722076416016" stroke="#dd3333" stroke-width="0.25" stroke-linecap="round"/><line x1="55.10569381713867" y1="18.501174926757812" x2="54.829429626464844" y2="18.705554962158203" stroke="#dd3333" stroke-width="0.25" stroke-linecap="round"/><line x1="54.448638916015625" y1="18.82346534729004" x2="54.829429626464844" y2="18.705554962158203" stroke="#dd3333" stroke-width="0.25" stroke-linecap="round"/><line x1="54.448638916015625" y1="18.82346534729004" x2="54.14134216308594" y2="19.04438591003418" stroke="#dd3333" stroke-width="0.25" stroke-linecap="round"/><line x1="53.793212890625" y1="19.149168014526367" x2="54.14134216308594" y2="19.04438591003418" stroke="#dd3333" stroke-width="0.25" stroke-linecap="round"/><line x1="53.793212890625" y1="19.149168014526367" x2="53.46092987060547" y2="19.380495071411133" stroke="#dd3333" stroke-width="0.25" stroke-linecap="round"/><line x1="53.13798522949219" y1="19.475143432617188" x2="53.46092987060547" y2="19.380495071411133" stroke="#dd3333" stroke-width="0.25" stroke-linecap="round"/><line x1="53.13798522949219" y1="19.475143432617188" x2="52.78086853027344" y2="19.716358184814453" stroke="#dd3333" stroke-width="0.25" stroke-linecap="round"/><line x1="52.482547760009766" y1="19.801389694213867" x2="52.78086853027344" y2="19.716358184814453" stroke="#dd3333" stroke-width="0.25" stroke-linecap="round"/><line x1="52.482547760009766" y1="19.801389694213867" x2="52.10016632080078" y2="20.051959991455078" stroke="#dd3333" stroke-width="0.25" stroke-linecap="round"/><line x1="51.68273162841797" y1="20.168109893798828" x2="52.10016632080078" y2="20.051959991455078" stroke="#dd3333" stroke-width="0.25" stroke-linecap="round"/><line x1="51.68273162841797" y1="20.168109893798828" x2="51.39503860473633" y2="20.342374801635742" stroke="#dd3333" stroke-width="0.25" stroke-linecap="round"/><line x1="51.037044525146484" y1="20.435585021972656" x2="51.39503860473633" y2="20.342374801635742" stroke="#dd3333" stroke-width="0.25" stroke-linecap="round"/><line x1="51.037044525146484" y1="20.435585021972656" x2="50.85590362548828" y2="20.537538528442383" stroke="#dd3333" stroke-width="0.25" stroke-linecap="round"/><line x1="50.3784065246582" y1="20.658872604370117" x2="50.85590362548828" y2="20.537538528442383" stroke="#dd3333" stroke-width="0.25" stroke-linecap="round"/><line x1="50.3784065246582" y1="20.658872604370117" x2="50.17855453491211" y2="20.768512725830078" stroke="#dd3333" stroke-width="0.25" stroke-linecap="round"/><line x1="49.71977996826172" y1="20.882375717163086" x2="50.17855453491211" y2="20.768512725830078" stroke="#dd3333" stroke-width="0.25" stroke-linecap="round"/><line x1="49.71977996826172" y1="20.882375717163086" x2="49.50131607055664" y2="20.999351501464844" stroke="#dd3333" stroke-width="0.25" stroke-linecap="round"/><line x1="49.061180114746094" y1="21.106037139892578" x2="49.50131607055664" y2="20.999351501464844" stroke="#dd3333" stroke-width="0.25" stroke-linecap="round"/><line x1="49.061180114746094" y1="21.106037139892578" x2="48.82355880737305" y2="21.229995727539062" stroke="#dd3333" stroke-width="0.25" stroke-linecap="round"/><line x1="48.82355880737305" y1="21.229995727539062" x2="48.12137222290039" y2="21.39653778076172" stroke="#dd3333" stroke-width="0.25" stroke-linecap="round"/><line x1="48.095130920410156" y1="21.396535873413086" x2="48.12137222290039" y2="21.39653778076172" stroke="#dd3333" stroke-width="0.25" stroke-linecap="round"/><line x1="48.095130920410156" y1="21.396535873413086" x2="47.76427459716797" y2="21.469379425048828" stroke="#dd3333" stroke-width="0.25" stroke-linecap="round"/><line x1="47.43038558959961" y1="21.469385147094727" x2="47.76427459716797" y2="21.469379425048828" stroke="#dd3333" stroke-width="0.25" stroke-linecap="round"/><line x1="47.43038558959961" y1="21.469385147094727" x2="47.092735290527344" y2="21.54218292236328" stroke="#dd3333" stroke-width="0.25" stroke-linecap="round"/><line x1="46.765525817871094" y1="21.542163848876953" x2="47.092735290527344" y2="21.54218292236328" stroke="#dd3333" stroke-width="0.25" stroke-linecap="round"/><line x1="46.765525817871094" y1="21.542163848876953" x2="46.42095947265625" y2="21.615022659301758" stroke="#dd3333" stroke-width="0.25" stroke-linecap="round"/><line x1="46.10090255737305" y1="21.615036010742188" x2="46.42095947265625" y2="21.615022659301758" stroke="#dd3333" stroke-width="0.25" stroke-linecap="round"/><line x1="46.10090255737305" y1="21.615036010742188" x2="45.74983215332031" y2="21.68787384033203" stroke="#dd3333" stroke-width="0.25" stroke-linecap="round"/><line x1="45.43622589111328" y1="21.687877655029297" x2="45.74983215332031" y2="21.68787384033203" stroke="#dd3333" stroke-width="0.25" stroke-linecap="round"/><line x1="45.43622589111328" y1="21.687877655029297" x2="45.07818603515625" y2="21.760700225830078" stroke="#dd3333" stroke-width="0.25" stroke-linecap="round"/><line x1="45.07818603515625" y1="21.760700225830078" x2="44.72630310058594" y2="21.760700225830078" stroke="#dd3333" stroke-width="0.25" stroke-linecap="round"/><line x1="44.45946502685547" y1="21.70769500732422" x2="44.72630310058594" y2="21.760700225830078" stroke="#dd3333" stroke-width="0.25" stroke-linecap="round"/><line x1="44.45946502685547" y1="21.70769500732422" x2="44.06060791015625" y2="21.707693099975586" stroke="#dd3333" stroke-width="0.25" stroke-linecap="round"/><line x1="43.7890510559082" y1="21.654705047607422" x2="44.06060791015625" y2="21.707693099975586" stroke="#dd3333" stroke-width="0.25" stroke-linecap="round"/><line x1="43.7890510559082" y1="21.654705047607422" x2="43.39501953125" y2="21.65471649169922" stroke="#dd3333" stroke-width="0.25" stroke-linecap="round"/><line x1="43.11869812011719" y1="21.601707458496094" x2="43.39501953125" y2="21.65471649169922" stroke="#dd3333" stroke-width="0.25" stroke-linecap="round"/><line x1="43.11869812011719" y1="21.601707458496094" x2="42.72938919067383" y2="21.60170555114746" stroke="#dd3333" stroke-width="0.25" stroke-linecap="round"/><line x1="42.448486328125" y1="21.5487060546875" x2="42.72938919067383" y2="21.60170555114746" stroke="#dd3333" stroke-width="0.25" stroke-linecap="round"/><line x1="42.448486328125" y1="21.5487060546875" x2="42.06374740600586" y2="21.54871368408203" stroke="#dd3333" stroke-width="0.25" stroke-linecap="round"/><line x1="41.77830505371094" y1="21.4957332611084" x2="42.06374740600586" y2="21.54871368408203" stroke="#dd3333" stroke-width="0.25" stroke-linecap="round"/><line x1="41.77830505371094" y1="21.4957332611084" x2="41.50934600830078" y2="21.4957218170166" stroke="#dd3333" stroke-width="0.25" stroke-linecap="round"/><line x1="41.01432800292969" y1="21.40427017211914" x2="41.50934600830078" y2="21.4957218170166" stroke="#dd3333" stroke-width="0.25" stroke-linecap="round"/><line x1="41.01432800292969" y1="21.40427017211914" x2="40.84532165527344" y2="21.404273986816406" stroke="#dd3333" stroke-width="0.25" stroke-linecap="round"/><line x1="40.34308624267578" y1="21.312837600708008" x2="40.84532165527344" y2="21.404273986816406" stroke="#dd3333" stroke-width="0.25" stroke-linecap="round"/><line x1="40.34308624267578" y1="21.312837600708008" x2="40.18134307861328" y2="21.312835693359375" stroke="#dd3333" stroke-width="0.25" stroke-linecap="round"/><line x1="39.671722412109375" y1="21.221391677856445" x2="40.18134307861328" y2="21.312835693359375" stroke="#dd3333" stroke-width="0.25" stroke-linecap="round"/><line x1="39.671722412109375" y1="21.221391677856445" x2="39.5171012878418" y2="21.22138023376465" stroke="#dd3333" stroke-width="0.25" stroke-linecap="round"/><line x1="39.000389099121094" y1="21.12995147705078" x2="39.5171012878418" y2="21.22138023376465" stroke="#dd3333" stroke-width="0.25" stroke-linecap="round"/><line x1="39.000389099121094" y1="21.12995147705078" x2="38.853050231933594" y2="21.12994384765625" stroke="#dd3333" stroke-width="0.25" stroke-linecap="round"/><line x1="38.329044342041016" y1="21.03849983215332" x2="38.853050231933594" y2="21.12994384765625" stroke="#dd3333" stroke-width="0.25" stroke-linecap="round"/><line x1="38.329044342041016" y1="21.03849983215332" x2="38.033729553222656" y2="21.038511276245117" stroke="#dd3333" stroke-width="0.25" stroke-linecap="round"/><line x1="37.83504104614258" y1="21.004783630371094" x2="38.033729553222656" y2="21.038511276245117" stroke="#dd3333" stroke-width="0.25" stroke-linecap="round"/><line x1="37.83504104614258" y1="21.004783630371094" x2="37.367286682128906" y2="21.004779815673828" stroke="#dd3333" stroke-width="0.25" stroke-linecap="round"/><line x1="37.166526794433594" y1="20.9710750579834" x2="37.367286682128906" y2="21.004779815673828" stroke="#dd3333" stroke-width="0.25" stroke-linecap="round"/><line x1="37.166526794433594" y1="20.9710750579834" x2="36.70111846923828" y2="20.9710750579834" stroke="#dd3333" stroke-width="0.25" stroke-linecap="round"/><line x1="36.498046875" y1="20.93736457824707" x2="36.70111846923828" y2="20.9710750579834" stroke="#dd3333" stroke-width="0.25" stroke-linecap="round"/><line x1="36.498046875" y1="20.93736457824707" x2="36.034828186035156" y2="20.937362670898438" stroke="#dd3333" stroke-width="0.25" stroke-linecap="round"/><line x1="35.82945251464844" y1="20.903640747070312" x2="36.034828186035156" y2="20.937362670898438" stroke="#dd3333" stroke-width="0.25" stroke-linecap="round"/><line x1="34.84575653076172" y1="20.86991310119629" x2="35.160926818847656" y2="20.869924545288086" stroke="#dd3333" stroke-width="0.25" stroke-linecap="round"/><line x1="35.82945251464844" y1="20.903640747070312" x2="35.36847686767578" y2="20.903636932373047" stroke="#dd3333" stroke-width="0.25" stroke-linecap="round"/><line x1="35.160926818847656" y1="20.869924545288086" x2="35.36847686767578" y2="20.903636932373047" stroke="#dd3333" stroke-width="0.25" stroke-linecap="round"/><line x1="34.84575653076172" y1="20.86991310119629" x2="34.381591796875" y2="20.945356369018555" stroke="#dd3333" stroke-width="0.25" stroke-linecap="round"/><line x1="34.18062973022461" y1="20.94536018371582" x2="34.381591796875" y2="20.945356369018555" stroke="#dd3333" stroke-width="0.25" stroke-linecap="round"/><line x1="34.18062973022461" y1="20.94536018371582" x2="33.71253967285156" y2="21.02077865600586" stroke="#dd3333" stroke-width="0.25" stroke-linecap="round"/><line x1="33.515506744384766" y1="21.020788192749023" x2="33.71253967285156" y2="21.02077865600586" stroke="#dd3333" stroke-width="0.25" stroke-linecap="round"/><line x1="33.515506744384766" y1="21.020788192749023" x2="33.04347229003906" y2="21.096216201782227" stroke="#dd3333" stroke-width="0.25" stroke-linecap="round"/><line x1="32.85031509399414" y1="21.096208572387695" x2="33.04347229003906" y2="21.096216201782227" stroke="#dd3333" stroke-width="0.25" stroke-linecap="round"/><line x1="31.802478790283203" y1="21.231796264648438" x2="32.18517303466797" y2="21.171649932861328" stroke="#dd3333" stroke-width="0.25" stroke-linecap="round"/><line x1="32.85031509399414" y1="21.096208572387695" x2="32.37443923950195" y2="21.171646118164062" stroke="#dd3333" stroke-width="0.25" stroke-linecap="round"/><line x1="32.18517303466797" y1="21.171649932861328" x2="32.37443923950195" y2="21.171646118164062" stroke="#dd3333" stroke-width="0.25" stroke-linecap="round"/><line x1="31.802478790283203" y1="21.231796264648438" x2="31.70756721496582" y2="21.262767791748047" stroke="#dd3333" stroke-width="0.25" stroke-linecap="round"/><line x1="31.129606246948242" y1="21.35488510131836" x2="31.70756721496582" y2="21.262767791748047" stroke="#dd3333" stroke-width="0.25" stroke-linecap="round"/><line x1="31.129606246948242" y1="21.35488510131836" x2="30.80328369140625" y2="21.46282386779785" stroke="#dd3333" stroke-width="0.25" stroke-linecap="round"/><line x1="30.465383529663086" y1="21.516389846801758" x2="30.80328369140625" y2="21.46282386779785" stroke="#dd3333" stroke-width="0.25" stroke-linecap="round"/><line x1="30.465383529663086" y1="21.516389846801758" x2="30.13375473022461" y2="21.625444412231445" stroke="#dd3333" stroke-width="0.25" stroke-linecap="round"/><line x1="29.801172256469727" y1="21.677894592285156" x2="30.13375473022461" y2="21.625444412231445" stroke="#dd3333" stroke-width="0.25" stroke-linecap="round"/><line x1="29.801172256469727" y1="21.677894592285156" x2="29.46429443359375" y2="21.78805923461914" stroke="#dd3333" stroke-width="0.25" stroke-linecap="round"/><line x1="29.136917114257812" y1="21.839391708374023" x2="29.46429443359375" y2="21.78805923461914" stroke="#dd3333" stroke-width="0.25" stroke-linecap="round"/><line x1="29.136917114257812" y1="21.839391708374023" x2="28.79477310180664" y2="21.950674057006836" stroke="#dd3333" stroke-width="0.25" stroke-linecap="round"/><line x1="28.49285125732422" y1="21.997772216796875" x2="28.79477310180664" y2="21.950674057006836" stroke="#dd3333" stroke-width="0.25" stroke-linecap="round"/><line x1="28.49285125732422" y1="21.997772216796875" x2="28.12615203857422" y2="22.116561889648438" stroke="#dd3333" stroke-width="0.25" stroke-linecap="round"/><line x1="27.827999114990234" y1="22.16290855407715" x2="28.12615203857422" y2="22.116561889648438" stroke="#dd3333" stroke-width="0.25" stroke-linecap="round"/><line x1="27.827999114990234" y1="22.16290855407715" x2="27.474750518798828" y2="22.27688980102539" stroke="#dd3333" stroke-width="0.25" stroke-linecap="round"/><line x1="27.16244888305664" y1="22.325319290161133" x2="27.474750518798828" y2="22.27688980102539" stroke="#dd3333" stroke-width="0.25" stroke-linecap="round"/><line x1="27.16244888305664" y1="22.325319290161133" x2="26.8068904876709" y2="22.439773559570312" stroke="#dd3333" stroke-width="0.25" stroke-linecap="round"/><line x1="26.49690818786621" y1="22.48773193359375" x2="26.8068904876709" y2="22.439773559570312" stroke="#dd3333" stroke-width="0.25" stroke-linecap="round"/><line x1="26.49690818786621" y1="22.48773193359375" x2="26.139009475708008" y2="22.602670669555664" stroke="#dd3333" stroke-width="0.25" stroke-linecap="round"/><line x1="25.83139419555664" y1="22.6501407623291" x2="26.139009475708008" y2="22.602670669555664" stroke="#dd3333" stroke-width="0.25" stroke-linecap="round"/><line x1="25.83139419555664" y1="22.6501407623291" x2="25.471126556396484" y2="22.765554428100586" stroke="#dd3333" stroke-width="0.25" stroke-linecap="round"/><line x1="24.86504554748535" y1="22.858882904052734" x2="25.471126556396484" y2="22.765554428100586" stroke="#dd3333" stroke-width="0.25" stroke-linecap="round"/><line x1="24.86504554748535" y1="22.858882904052734" x2="24.791515350341797" y2="22.8818302154541" stroke="#dd3333" stroke-width="0.25" stroke-linecap="round"/><line x1="24.791515350341797" y1="22.8818302154541" x2="24.477075576782227" y2="22.929067611694336" stroke="#dd3333" stroke-width="0.25" stroke-linecap="round"/><line x1="24.199298858642578" y1="22.929073333740234" x2="24.477075576782227" y2="22.929067611694336" stroke="#dd3333" stroke-width="0.25" stroke-linecap="round"/><line x1="24.199298858642578" y1="22.929073333740234" x2="23.81055450439453" y2="22.98751449584961" stroke="#dd3333" stroke-width="0.25" stroke-linecap="round"/><line x1="23.532485961914062" y1="22.987503051757812" x2="23.81055450439453" y2="22.98751449584961" stroke="#dd3333" stroke-width="0.25" stroke-linecap="round"/><line x1="23.532485961914062" y1="22.987503051757812" x2="23.144023895263672" y2="23.04595947265625" stroke="#dd3333" stroke-width="0.25" stroke-linecap="round"/><line x1="22.865690231323242" y1="23.045948028564453" x2="23.144023895263672" y2="23.04595947265625" stroke="#dd3333" stroke-width="0.25" stroke-linecap="round"/><line x1="22.865690231323242" y1="23.045948028564453" x2="22.477462768554688" y2="23.10439109802246" stroke="#dd3333" stroke-width="0.25" stroke-linecap="round"/><line x1="22.198888778686523" y1="23.104393005371094" x2="22.477462768554688" y2="23.10439109802246" stroke="#dd3333" stroke-width="0.25" stroke-linecap="round"/><line x1="22.198888778686523" y1="23.104393005371094" x2="21.810924530029297" y2="23.1628360748291" stroke="#dd3333" stroke-width="0.25" stroke-linecap="round"/><line x1="21.810924530029297" y1="23.1628360748291" x2="21.729942321777344" y2="23.162830352783203" stroke="#dd3333" stroke-width="0.25" stroke-linecap="round"/><line x1="21.729942321777344" y1="23.162830352783203" x2="21.059839248657227" y2="23.06040382385254" stroke="#dd3333" stroke-width="0.25" stroke-linecap="round"/><line x1="20.990541458129883" y1="23.038616180419922" x2="21.059839248657227" y2="23.06040382385254" stroke="#dd3333" stroke-width="0.25" stroke-linecap="round"/><line x1="20.990541458129883" y1="23.038616180419922" x2="20.391801834106445" y2="22.946754455566406" stroke="#dd3333" stroke-width="0.25" stroke-linecap="round"/><line x1="20.32506561279297" y1="22.925695419311523" x2="20.391801834106445" y2="22.946754455566406" stroke="#dd3333" stroke-width="0.25" stroke-linecap="round"/><line x1="20.32506561279297" y1="22.925695419311523" x2="19.7237548828125" y2="22.833106994628906" stroke="#dd3333" stroke-width="0.25" stroke-linecap="round"/><line x1="19.659603118896484" y1="22.812786102294922" x2="19.7237548828125" y2="22.833106994628906" stroke="#dd3333" stroke-width="0.25" stroke-linecap="round"/><line x1="19.659603118896484" y1="22.812786102294922" x2="19.055702209472656" y2="22.719451904296875" stroke="#dd3333" stroke-width="0.25" stroke-linecap="round"/><line x1="18.994131088256836" y1="22.699871063232422" x2="19.055702209472656" y2="22.719451904296875" stroke="#dd3333" stroke-width="0.25" stroke-linecap="round"/><line x1="18.994131088256836" y1="22.699871063232422" x2="18.86134147644043" y2="22.679271697998047" stroke="#dd3333" stroke-width="0.25" stroke-linecap="round"/><line x1="18.341415405273438" y1="22.506256103515625" x2="18.86134147644043" y2="22.679271697998047" stroke="#dd3333" stroke-width="0.25" stroke-linecap="round"/><line x1="18.341415405273438" y1="22.506256103515625" x2="18.156265258789062" y2="22.476242065429688" stroke="#dd3333" stroke-width="0.25" stroke-linecap="round"/><line x1="18.156265258789062" y1="22.476242065429688" x2="17.467479705810547" y2="22.23589515686035" stroke="#dd3333" stroke-width="0.25" stroke-linecap="round"/><line x1="17.267122268676758" y1="22.12238311767578" x2="17.467479705810547" y2="22.23589515686035" stroke="#dd3333" stroke-width="0.25" stroke-linecap="round"/><line x1="17.267122268676758" y1="22.12238311767578" x2="17.007287979125977" y2="22.031042098999023" stroke="#dd3333" stroke-width="0.25" stroke-linecap="round"/><line x1="16.708385467529297" y1="21.58578872680664" x2="17.007287979125977" y2="22.031042098999023" stroke="#dd3333" stroke-width="0.25" stroke-linecap="round"/><line x1="17.007287979125977" y1="22.031042098999023" x2="16.663217544555664" y2="22.260107040405273" stroke="#dd3333" stroke-width="0.25" stroke-linecap="round"/><line x1="15.551894187927246" y1="22.987728118896484" x2="16.61891746520996" y2="22.277359008789062" stroke="#dd3333" stroke-width="0.25" stroke-linecap="round"/><line x1="16.663217544555664" y1="22.260107040405273" x2="16.61891746520996" y2="22.277359008789062" stroke="#dd3333" stroke-width="0.25" stroke-linecap="round"/><line x1="16.708385467529297" y1="21.58578872680664" x2="16.6890926361084" y2="21.566991806030273" stroke="#dd3333" stroke-width="0.25" stroke-linecap="round"/><line x1="16.22062873840332" y1="20.86915397644043" x2="16.6890926361084" y2="21.566991806030273" stroke="#dd3333" stroke-width="0.25" stroke-linecap="round"/><line x1="16.22062873840332" y1="20.86915397644043" x2="16.20553970336914" y2="20.856624603271484" stroke="#dd3333" stroke-width="0.25" stroke-linecap="round"/><line x1="15.732871055603027" y1="20.15252113342285" x2="16.20553970336914" y2="20.856624603271484" stroke="#dd3333" stroke-width="0.25" stroke-linecap="round"/><line x1="15.732871055603027" y1="20.15252113342285" x2="15.721989631652832" y2="20.146255493164062" stroke="#dd3333" stroke-width="0.25" stroke-linecap="round"/><line x1="15.245113372802734" y1="19.435888290405273" x2="15.721989631652832" y2="20.146255493164062" stroke="#dd3333" stroke-width="0.25" stroke-linecap="round"/><circle cx="114.7604751586914" cy="17.997093200683594" r="0.4" fill="#dd3333"/><circle cx="114.36246490478516" cy="18.70799446105957" r="0.4" fill="#dd3333"/><circle cx="114.30165100097656" cy="18.745370864868164" r="0.4" fill="#dd3333"/><circle cx="113.9250717163086" cy="19.418386459350586" r="0.4" fill="#dd3333"/><circle cx="113.84241485595703" cy="19.493480682373047" r="0.4" fill="#dd3333"/><circle cx="113.48689270019531" cy="20.128786087036133" r="0.4" fill="#dd3333"/><circle cx="113.38448333740234" cy="20.240514755249023" r="0.4" fill="#dd3333"/><circle cx="113.12930297851562" cy="20.695444107055664" r="0.4" fill="#dd3333"/><circle cx="112.83206176757812" cy="20.80805015563965" r="0.4" fill="#dd3333"/><circle cx="112.58260345458984" cy="20.96548843383789" r="0.4" fill="#dd3333"/><circle cx="112.0667724609375" cy="21.1636962890625" r="0.4" fill="#dd3333"/><circle cx="111.9149398803711" cy="21.259544372558594" r="0.4" fill="#dd3333"/><circle cx="111.4032974243164" cy="21.456087112426758" r="0.4" fill="#dd3333"/><circle cx="111.24467468261719" cy="21.554176330566406" r="0.4" fill="#dd3333"/><circle cx="110.73748779296875" cy="21.748779296875" r="0.4" fill="#dd3333"/><circle cx="110.70445251464844" cy="21.768747329711914" r="0.4" fill="#dd3333"/><circle cx="110.06222534179688" cy="22.018150329589844" r="0.4" fill="#dd3333"/><circle cx="110.04511260986328" cy="22.029022216796875" r="0.4" fill="#dd3333"/><circle cx="109.38733673095703" cy="22.28742218017578" r="0.4" fill="#dd3333"/><circle cx="109.38402557373047" cy="22.28848648071289" r="0.4" fill="#dd3333"/><circle cx="108.7269287109375" cy="22.551403045654297" r="0.4" fill="#dd3333"/><circle cx="108.37129974365234" cy="22.61768913269043" r="0.4" fill="#dd3333"/><circle cx="108.04320526123047" cy="22.74469566345215" r="0.4" fill="#dd3333"/><circle cx="107.76990509033203" cy="22.794292449951172" r="0.4" fill="#dd3333"/><circle cx="107.71194458007812" cy="22.794204711914062" r="0.4" fill="#dd3333"/><circle cx="107.10511779785156" cy="22.905498504638672" r="0.4" fill="#dd3333"/><circle cx="107.0402603149414" cy="22.90554428100586" r="0.4" fill="#dd3333"/><circle cx="106.44385528564453" cy="23.01687240600586" r="0.4" fill="#dd3333"/><circle cx="106.36679077148438" cy="23.016876220703125" r="0.4" fill="#dd3333"/><circle cx="105.77787017822266" cy="23.128246307373047" r="0.4" fill="#dd3333"/><circle cx="105.6944808959961" cy="23.128358840942383" r="0.4" fill="#dd3333"/><circle cx="105.11630249023438" cy="23.239646911621094" r="0.4" fill="#dd3333"/><circle cx="104.940185546875" cy="23.23971176147461" r="0.4" fill="#dd3333"/><circle cx="104.54979705810547" cy="23.16408348083496" r="0.4" fill="#dd3333"/><circle cx="104.26795959472656" cy="23.164026260375977" r="0.4" fill="#dd3333"/><circle cx="103.88544464111328" cy="23.08858299255371" r="0.4" fill="#dd3333"/><circle cx="103.59738159179688" cy="23.088640213012695" r="0.4" fill="#dd3333"/><circle cx="103.2217025756836" cy="23.013084411621094" r="0.4" fill="#dd3333"/><circle cx="102.9251937866211" cy="23.013071060180664" r="0.4" fill="#dd3333"/><circle cx="102.5561294555664" cy="22.93753433227539" r="0.4" fill="#dd3333"/><circle cx="102.25377655029297" cy="22.937477111816406" r="0.4" fill="#dd3333"/><circle cx="101.89069366455078" cy="22.861867904663086" r="0.4" fill="#dd3333"/><circle cx="101.88631439208984" cy="22.861934661865234" r="0.4" fill="#dd3333"/><circle cx="101.18571472167969" cy="22.706228256225586" r="0.4" fill="#dd3333"/><circle cx="100.93933868408203" cy="22.58684539794922" r="0.4" fill="#dd3333"/><circle cx="100.50870513916016" cy="22.489120483398438" r="0.4" fill="#dd3333"/><circle cx="100.28038024902344" cy="22.375829696655273" r="0.4" fill="#dd3333"/><circle cx="99.83097076416016" cy="22.271574020385742" r="0.4" fill="#dd3333"/><circle cx="99.62078094482422" cy="22.16477394104004" r="0.4" fill="#dd3333"/><circle cx="99.15469360351562" cy="22.05394744873047" r="0.4" fill="#dd3333"/><circle cx="98.96163177490234" cy="21.95396614074707" r="0.4" fill="#dd3333"/><circle cx="98.53248596191406" cy="21.84964942932129" r="0.4" fill="#dd3333"/><circle cx="98.30775451660156" cy="21.727792739868164" r="0.4" fill="#dd3333"/><circle cx="97.8469467163086" cy="21.61207389831543" r="0.4" fill="#dd3333"/><circle cx="97.59040832519531" cy="21.467256546020508" r="0.4" fill="#dd3333"/><circle cx="97.16974639892578" cy="21.358692169189453" r="0.4" fill="#dd3333"/><circle cx="96.9321517944336" cy="21.221847534179688" r="0.4" fill="#dd3333"/><circle cx="96.49214172363281" cy="21.10551643371582" r="0.4" fill="#dd3333"/><circle cx="96.27388763427734" cy="20.976394653320312" r="0.4" fill="#dd3333"/><circle cx="95.81378936767578" cy="20.851797103881836" r="0.4" fill="#dd3333"/><circle cx="95.61688232421875" cy="20.731447219848633" r="0.4" fill="#dd3333"/><circle cx="94.3956069946289" cy="20.36439323425293" r="0.4" fill="#dd3333"/><circle cx="94.94865417480469" cy="20.517351150512695" r="0.4" fill="#dd3333"/><circle cx="95.03466796875" cy="20.56989097595215" r="0.4" fill="#dd3333"/><circle cx="94.36829376220703" cy="20.36437225341797" r="0.4" fill="#dd3333"/><circle cx="93.73589324951172" cy="20.18505859375" r="0.4" fill="#dd3333"/><circle cx="93.69100189208984" cy="20.185060501098633" r="0.4" fill="#dd3333"/><circle cx="93.07508850097656" cy="20.005889892578125" r="0.4" fill="#dd3333"/><circle cx="93.01641082763672" cy="20.005887985229492" r="0.4" fill="#dd3333"/><circle cx="92.41519927978516" cy="19.82672119140625" r="0.4" fill="#dd3333"/><circle cx="92.34114074707031" cy="19.826757431030273" r="0.4" fill="#dd3333"/><circle cx="91.7552261352539" cy="19.647443771362305" r="0.4" fill="#dd3333"/><circle cx="91.4686050415039" cy="19.647441864013672" r="0.4" fill="#dd3333"/><circle cx="91.28600311279297" cy="19.593284606933594" r="0.4" fill="#dd3333"/><circle cx="90.80030822753906" cy="19.59329605102539" r="0.4" fill="#dd3333"/><circle cx="90.62075805664062" cy="19.538854598999023" r="0.4" fill="#dd3333"/><circle cx="90.12879943847656" cy="19.538835525512695" r="0.4" fill="#dd3333"/><circle cx="89.95528411865234" cy="19.484561920166016" r="0.4" fill="#dd3333"/><circle cx="89.46066284179688" cy="19.48457145690918" r="0.4" fill="#dd3333"/><circle cx="89.28956604003906" cy="19.430072784423828" r="0.4" fill="#dd3333"/><circle cx="88.1070556640625" cy="19.375823974609375" r="0.4" fill="#dd3333"/><circle cx="88.62319946289062" cy="19.375812530517578" r="0.4" fill="#dd3333"/><circle cx="88.78929901123047" cy="19.43007469177246" r="0.4" fill="#dd3333"/><circle cx="87.96107482910156" cy="19.425020217895508" r="0.4" fill="#dd3333"/><circle cx="87.4371566772461" cy="19.424983978271484" r="0.4" fill="#dd3333"/><circle cx="87.29383850097656" cy="19.474166870117188" r="0.4" fill="#dd3333"/><circle cx="86.76935577392578" cy="19.47418785095215" r="0.4" fill="#dd3333"/><circle cx="86.62843322753906" cy="19.523645401000977" r="0.4" fill="#dd3333"/><circle cx="86.09896087646484" cy="19.523618698120117" r="0.4" fill="#dd3333"/><circle cx="85.963623046875" cy="19.572715759277344" r="0.4" fill="#dd3333"/><circle cx="85.43022155761719" cy="19.572710037231445" r="0.4" fill="#dd3333"/><circle cx="85.29653930664062" cy="19.62198829650879" r="0.4" fill="#dd3333"/><circle cx="84.78163146972656" cy="19.621986389160156" r="0.4" fill="#dd3333"/><circle cx="84.59600830078125" cy="19.69269371032715" r="0.4" fill="#dd3333"/><circle cx="84.11359405517578" cy="19.692707061767578" r="0.4" fill="#dd3333"/><circle cx="83.93098449707031" cy="19.763370513916016" r="0.4" fill="#dd3333"/><circle cx="83.4443588256836" cy="19.763463973999023" r="0.4" fill="#dd3333"/><circle cx="83.26567840576172" cy="19.834091186523438" r="0.4" fill="#dd3333"/><circle cx="82.77556610107422" cy="19.83411407470703" r="0.4" fill="#dd3333"/><circle cx="82.60089874267578" cy="19.904808044433594" r="0.4" fill="#dd3333"/><circle cx="82.10590362548828" cy="19.904787063598633" r="0.4" fill="#dd3333"/><circle cx="81.93515014648438" cy="19.975669860839844" r="0.4" fill="#dd3333"/><circle cx="81.35231018066406" cy="19.97564697265625" r="0.4" fill="#dd3333"/><circle cx="81.34268188476562" cy="19.97183609008789" r="0.4" fill="#dd3333"/><circle cx="80.68467712402344" cy="19.97185707092285" r="0.4" fill="#dd3333"/><circle cx="80.67608642578125" cy="19.968280792236328" r="0.4" fill="#dd3333"/><circle cx="80.01813507080078" cy="19.96827507019043" r="0.4" fill="#dd3333"/><circle cx="80.00902557373047" cy="19.9644775390625" r="0.4" fill="#dd3333"/><circle cx="79.35070037841797" cy="19.96446418762207" r="0.4" fill="#dd3333"/><circle cx="79.34268951416016" cy="19.961027145385742" r="0.4" fill="#dd3333"/><circle cx="78.68419647216797" cy="19.96103286743164" r="0.4" fill="#dd3333"/><circle cx="78.67570495605469" cy="19.957143783569336" r="0.4" fill="#dd3333"/><circle cx="78.14667510986328" cy="19.957157135009766" r="0.4" fill="#dd3333"/><circle cx="77.86426544189453" cy="19.82427978515625" r="0.4" fill="#dd3333"/><circle cx="77.47867584228516" cy="19.824386596679688" r="0.4" fill="#dd3333"/><circle cx="77.19901275634766" cy="19.691553115844727" r="0.4" fill="#dd3333"/><circle cx="76.81090545654297" cy="19.69155502319336" r="0.4" fill="#dd3333"/><circle cx="76.53275299072266" cy="19.558507919311523" r="0.4" fill="#dd3333"/><circle cx="76.14364624023438" cy="19.558509826660156" r="0.4" fill="#dd3333"/><circle cx="75.86715698242188" cy="19.42574119567871" r="0.4" fill="#dd3333"/><circle cx="75.47589111328125" cy="19.425626754760742" r="0.4" fill="#dd3333"/><circle cx="75.20152282714844" cy="19.292770385742188" r="0.4" fill="#dd3333"/><circle cx="74.89498138427734" cy="19.29264259338379" r="0.4" fill="#dd3333"/><circle cx="74.43574523925781" cy="19.05010414123535" r="0.4" fill="#dd3333"/><circle cx="74.22895812988281" cy="19.050111770629883" r="0.4" fill="#dd3333"/><circle cx="73.76864624023438" cy="18.807552337646484" r="0.4" fill="#dd3333"/><circle cx="73.56283569335938" cy="18.80756187438965" r="0.4" fill="#dd3333"/><circle cx="73.10105895996094" cy="18.56498146057129" r="0.4" fill="#dd3333"/><circle cx="72.89657592773438" cy="18.56510353088379" r="0.4" fill="#dd3333"/><circle cx="72.43426513671875" cy="18.322389602661133" r="0.4" fill="#dd3333"/><circle cx="72.22994995117188" cy="18.322389602661133" r="0.4" fill="#dd3333"/><circle cx="71.76693725585938" cy="18.07977867126465" r="0.4" fill="#dd3333"/><circle cx="71.57552337646484" cy="18.07977867126465" r="0.4" fill="#dd3333"/><circle cx="71.07662200927734" cy="17.815898895263672" r="0.4" fill="#dd3333"/><circle cx="70.911865234375" cy="17.815900802612305" r="0.4" fill="#dd3333"/><circle cx="70.40611267089844" cy="17.55225372314453" r="0.4" fill="#dd3333"/><circle cx="70.24801635742188" cy="17.55219268798828" r="0.4" fill="#dd3333"/><circle cx="69.73590850830078" cy="17.28835678100586" r="0.4" fill="#dd3333"/><circle cx="69.58450317382812" cy="17.288406372070312" r="0.4" fill="#dd3333"/><circle cx="69.06657409667969" cy="17.024654388427734" r="0.4" fill="#dd3333"/><circle cx="68.92092895507812" cy="17.024662017822266" r="0.4" fill="#dd3333"/><circle cx="68.39646911621094" cy="16.760847091674805" r="0.4" fill="#dd3333"/><circle cx="68.16806030273438" cy="16.76084327697754" r="0.4" fill="#dd3333"/><circle cx="67.80175018310547" cy="16.591480255126953" r="0.4" fill="#dd3333"/><circle cx="67.50456237792969" cy="16.591482162475586" r="0.4" fill="#dd3333"/><circle cx="67.13130950927734" cy="16.422069549560547" r="0.4" fill="#dd3333"/><circle cx="66.84123229980469" cy="16.422122955322266" r="0.4" fill="#dd3333"/><circle cx="66.46060180664062" cy="16.252788543701172" r="0.4" fill="#dd3333"/><circle cx="66.17756652832031" cy="16.252735137939453" r="0.4" fill="#dd3333"/><circle cx="65.78974151611328" cy="16.08342933654785" r="0.4" fill="#dd3333"/><circle cx="64.65471649169922" cy="15.914115905761719" r="0.4" fill="#dd3333"/><circle cx="65.11940002441406" cy="15.914116859436035" r="0.4" fill="#dd3333"/><circle cx="65.51457977294922" cy="16.083417892456055" r="0.4" fill="#dd3333"/><circle cx="64.62722778320312" cy="15.924646377563477" r="0.4" fill="#dd3333"/><circle cx="63.98777770996094" cy="15.924629211425781" r="0.4" fill="#dd3333"/><circle cx="63.95936965942383" cy="15.935213088989258" r="0.4" fill="#dd3333"/><circle cx="63.32109451293945" cy="15.935173034667969" r="0.4" fill="#dd3333"/><circle cx="63.29171371459961" cy="15.945806503295898" r="0.4" fill="#dd3333"/><circle cx="62.65398406982422" cy="15.945798873901367" r="0.4" fill="#dd3333"/><circle cx="62.624446868896484" cy="15.956415176391602" r="0.4" fill="#dd3333"/><circle cx="61.987144470214844" cy="15.956371307373047" r="0.4" fill="#dd3333"/><circle cx="61.956790924072266" cy="15.966954231262207" r="0.4" fill="#dd3333"/><circle cx="61.56764221191406" cy="15.966948509216309" r="0.4" fill="#dd3333"/><circle cx="61.035030364990234" cy="16.16933250427246" r="0.4" fill="#dd3333"/><circle cx="60.90773010253906" cy="16.169334411621094" r="0.4" fill="#dd3333"/><circle cx="60.35991668701172" cy="16.3716983795166" r="0.4" fill="#dd3333"/><circle cx="60.24759292602539" cy="16.37174415588379" r="0.4" fill="#dd3333"/><circle cx="59.684967041015625" cy="16.57417106628418" r="0.4" fill="#dd3333"/><circle cx="59.587467193603516" cy="16.574169158935547" r="0.4" fill="#dd3333"/><circle cx="58.407936096191406" cy="16.954092025756836" r="0.4" fill="#dd3333"/><circle cx="58.92711639404297" cy="16.776622772216797" r="0.4" fill="#dd3333"/><circle cx="59.01002502441406" cy="16.77662467956543" r="0.4" fill="#dd3333"/><circle cx="58.34428787231445" cy="17.005624771118164" r="0.4" fill="#dd3333"/><circle cx="57.72901153564453" cy="17.223926544189453" r="0.4" fill="#dd3333"/><circle cx="57.54283905029297" cy="17.380828857421875" r="0.4" fill="#dd3333"/><circle cx="57.07212829589844" cy="17.543031692504883" r="0.4" fill="#dd3333"/><circle cx="56.864532470703125" cy="17.712114334106445" r="0.4" fill="#dd3333"/><circle cx="56.415348052978516" cy="17.862552642822266" r="0.4" fill="#dd3333"/><circle cx="56.186004638671875" cy="18.0429744720459" r="0.4" fill="#dd3333"/><circle cx="55.758384704589844" cy="18.182348251342773" r="0.4" fill="#dd3333"/><circle cx="55.507503509521484" cy="18.373722076416016" r="0.4" fill="#dd3333"/><circle cx="55.10569381713867" cy="18.501174926757812" r="0.4" fill="#dd3333"/><circle cx="54.829429626464844" cy="18.705554962158203" r="0.4" fill="#dd3333"/><circle cx="54.448638916015625" cy="18.82346534729004" r="0.4" fill="#dd3333"/><circle cx="54.14134216308594" cy="19.04438591003418" r="0.4" fill="#dd3333"/><circle cx="53.793212890625" cy="19.149168014526367" r="0.4" fill="#dd3333"/><circle cx="53.46092987060547" cy="19.380495071411133" r="0.4" fill="#dd3333"/><circle cx="53.13798522949219" cy="19.475143432617188" r="0.4" fill="#dd3333"/><circle cx="52.78086853027344" cy="19.716358184814453" r="0.4" fill="#dd3333"/><circle cx="52.482547760009766" cy="19.801389694213867" r="0.4" fill="#dd3333"/><circle cx="52.10016632080078" cy="20.051959991455078" r="0.4" fill="#dd3333"/><circle cx="51.68273162841797" cy="20.168109893798828" r="0.4" fill="#dd3333"/><circle cx="51.39503860473633" cy="20.342374801635742" r="0.4" fill="#dd3333"/><circle cx="51.037044525146484" cy="20.435585021972656" r="0.4" fill="#dd3333"/><circle cx="50.85590362548828" cy="20.537538528442383" r="0.4" fill="#dd3333"/><circle cx="50.3784065246582" cy="20.658872604370117" r="0.4" fill="#dd3333"/><circle cx="50.17855453491211" cy="20.768512725830078" r="0.4" fill="#dd3333"/><circle cx="49.71977996826172" cy="20.882375717163086" r="0.4" fill="#dd3333"/><circle cx="49.50131607055664" cy="20.999351501464844" r="0.4" fill="#dd3333"/><circle cx="49.061180114746094" cy="21.106037139892578" r="0.4" fill="#dd3333"/><circle cx="48.82355880737305" cy="21.229995727539062" r="0.4" fill="#dd3333"/><circle cx="48.12137222290039" cy="21.39653778076172" r="0.4" fill="#dd3333"/><circle cx="48.095130920410156" cy="21.396535873413086" r="0.4" fill="#dd3333"/><circle cx="47.76427459716797" cy="21.469379425048828" r="0.4" fill="#dd3333"/><circle cx="47.43038558959961" cy="21.469385147094727" r="0.4" fill="#dd3333"/><circle cx="47.092735290527344" cy="21.54218292236328" r="0.4" fill="#dd3333"/><circle cx="46.765525817871094" cy="21.542163848876953" r="0.4" fill="#dd3333"/><circle cx="46.42095947265625" cy="21.615022659301758" r="0.4" fill="#dd3333"/><circle cx="46.10090255737305" cy="21.615036010742188" r="0.4" fill="#dd3333"/><circle cx="45.74983215332031" cy="21.68787384033203" r="0.4" fill="#dd3333"/><circle cx="45.43622589111328" cy="21.687877655029297" r="0.4" fill="#dd3333"/><circle cx="45.07818603515625" cy="21.760700225830078" r="0.4" fill="#dd3333"/><circle cx="44.72630310058594" cy="21.760700225830078" r="0.4" fill="#dd3333"/><circle cx="44.45946502685547" cy="21.70769500732422" r="0.4" fill="#dd3333"/><circle cx="44.06060791015625" cy="21.707693099975586" r="0.4" fill="#dd3333"/><circle cx="43.7890510559082" cy="21.654705047607422" r="0.4" fill="#dd3333"/><circle cx="43.39501953125" cy="21.65471649169922" r="0.4" fill="#dd3333"/><circle cx="43.11869812011719" cy="21.601707458496094" r="0.4" fill="#dd3333"/><circle cx="42.72938919067383" cy="21.60170555114746" r="0.4" fill="#dd3333"/><circle cx="42.448486328125" cy="21.5487060546875" r="0.4" fill="#dd3333"/><circle cx="42.06374740600586" cy="21.54871368408203" r="0.4" fill="#dd3333"/><circle cx="41.77830505371094" cy="21.4957332611084" r="0.4" fill="#dd3333"/><circle cx="41.50934600830078" cy="21.4957218170166" r="0.4" fill="#dd3333"/><circle cx="41.01432800292969" cy="21.40427017211914" r="0.4" fill="#dd3333"/><circle cx="40.84532165527344" cy="21.404273986816406" r="0.4" fill="#dd3333"/><circle cx="40.34308624267578" cy="21.312837600708008" r="0.4" fill="#dd3333"/><circle cx="40.18134307861328" cy="21.312835693359375" r="0.4" fill="#dd3333"/><circle cx="39.671722412109375" cy="21.221391677856445" r="0.4" fill="#dd3333"/><circle cx="39.5171012878418" cy="21.22138023376465" r="0.4" fill="#dd3333"/><circle cx="39.000389099121094" cy="21.12995147705078" r="0.4" fill="#dd3333"/><circle cx="38.853050231933594" cy="21.12994384765625" r="0.4" fill="#dd3333"/><circle cx="38.329044342041016" cy="21.03849983215332" r="0.4" fill="#dd3333"/><circle cx="38.033729553222656" cy="21.038511276245117" r="0.4" fill="#dd3333"/><circle cx="37.83504104614258" cy="21.004783630371094" r="0.4" fill="#dd3333"/><circle cx="37.367286682128906" cy="21.004779815673828" r="0.4" fill="#dd3333"/><circle cx="37.166526794433594" cy="20.9710750579834" r="0.4" fill="#dd3333"/><circle cx="36.70111846923828" cy="20.9710750579834" r="0.4" fill="#dd3333"/><circle cx="36.498046875" cy="20.93736457824707" r="0.4" fill="#dd3333"/><circle cx="36.034828186035156" cy="20.937362670898438" r="0.4" fill="#dd3333"/><circle cx="35.82945251464844" cy="20.903640747070312" r="0.4" fill="#dd3333"/><circle cx="34.84575653076172" cy="20.86991310119629" r="0.4" fill="#dd3333"/><circle cx="35.160926818847656" cy="20.869924545288086" r="0.4" fill="#dd3333"/><circle cx="35.36847686767578" cy="20.903636932373047" r="0.4" fill="#dd3333"/><circle cx="34.381591796875" cy="20.945356369018555" r="0.4" fill="#dd3333"/><circle cx="34.18062973022461" cy="20.94536018371582" r="0.4" fill="#dd3333"/><circle cx="33.71253967285156" cy="21.02077865600586" r="0.4" fill="#dd3333"/><circle cx="33.515506744384766" cy="21.020788192749023" r="0.4" fill="#dd3333"/><circle cx="33.04347229003906" cy="21.096216201782227" r="0.4" fill="#dd3333"/><circle cx="32.85031509399414" cy="21.096208572387695" r="0.4" fill="#dd3333"/><circle cx="31.802478790283203" cy="21.231796264648438" r="0.4" fill="#dd3333"/><circle cx="32.18517303466797" cy="21.171649932861328" r="0.4" fill="#dd3333"/><circle cx="32.37443923950195" cy="21.171646118164062" r="0.4" fill="#dd3333"/><circle cx="31.70756721496582" cy="21.262767791748047" r="0.4" fill="#dd3333"/><circle cx="31.129606246948242" cy="21.35488510131836" r="0.4" fill="#dd3333"/><circle cx="30.80328369140625" cy="21.46282386779785" r="0.4" fill="#dd3333"/><circle cx="30.465383529663086" cy="21.516389846801758" r="0.4" fill="#dd3333"/><circle cx="30.13375473022461" cy="21.625444412231445" r="0.4" fill="#dd3333"/><circle cx="29.801172256469727" cy="21.677894592285156" r="0.4" fill="#dd3333"/><circle cx="29.46429443359375" cy="21.78805923461914" r="0.4" fill="#dd3333"/><circle cx="29.136917114257812" cy="21.839391708374023" r="0.4" fill="#dd3333"/><circle cx="28.79477310180664" cy="21.950674057006836" r="0.4" fill="#dd3333"/><circle cx="28.49285125732422" cy="21.997772216796875" r="0.4" fill="#dd3333"/><circle cx="28.12615203857422" cy="22.116561889648438" r="0.4" fill="#dd3333"/><circle cx="27.827999114990234" cy="22.16290855407715" r="0.4" fill="#dd3333"/><circle cx="27.474750518798828" cy="22.27688980102539" r="0.4" fill="#dd3333"/><circle cx="27.16244888305664" cy="22.325319290161133" r="0.4" fill="#dd3333"/><circle cx="26.8068904876709" cy="22.439773559570312" r="0.4" fill="#dd3333"/><circle cx="26.49690818786621" cy="22.48773193359375" r="0.4" fill="#dd3333"/><circle cx="26.139009475708008" cy="22.602670669555664" r="0.4" fill="#dd3333"/><circle cx="25.83139419555664" cy="22.6501407623291" r="0.4" fill="#dd3333"/><circle cx="25.471126556396484" cy="22.765554428100586" r="0.4" fill="#dd3333"/><circle cx="24.86504554748535" cy="22.858882904052734" r="0.4" fill="#dd3333"/><circle cx="24.791515350341797" cy="22.8818302154541" r="0.4" fill="#dd3333"/><circle cx="24.477075576782227" cy="22.929067611694336" r="0.4" fill="#dd3333"/><circle cx="24.199298858642578" cy="22.929073333740234" r="0.4" fill="#dd3333"/><circle cx="23.81055450439453" cy="22.98751449584961" r="0.4" fill="#dd3333"/><circle cx="23.532485961914062" cy="22.987503051757812" r="0.4" fill="#dd3333"/><circle cx="23.144023895263672" cy="23.04595947265625" r="0.4" fill="#dd3333"/><circle cx="22.865690231323242" cy="23.045948028564453" r="0.4" fill="#dd3333"/><circle cx="22.477462768554688" cy="23.10439109802246" r="0.4" fill="#dd3333"/><circle cx="22.198888778686523" cy="23.104393005371094" r="0.4" fill="#dd3333"/><circle cx="21.810924530029297" cy="23.1628360748291" r="0.4" fill="#dd3333"/><circle cx="21.729942321777344" cy="23.162830352783203" r="0.4" fill="#dd3333"/><circle cx="21.059839248657227" cy="23.06040382385254" r="0.4" fill="#dd3333"/><circle cx="20.990541458129883" cy="23.038616180419922" r="0.4" fill="#dd3333"/><circle cx="20.391801834106445" cy="22.946754455566406" r="0.4" fill="#dd3333"/><circle cx="20.32506561279297" cy="22.925695419311523" r="0.4" fill="#dd3333"/><circle cx="19.7237548828125" cy="22.833106994628906" r="0.4" fill="#dd3333"/><circle cx="19.659603118896484" cy="22.812786102294922" r="0.4" fill="#dd3333"/><circle cx="19.055702209472656" cy="22.719451904296875" r="0.4" fill="#dd3333"/><circle cx="18.994131088256836" cy="22.699871063232422" r="0.4" fill="#dd3333"/><circle cx="18.86134147644043" cy="22.679271697998047" r="0.4" fill="#dd3333"/><circle cx="18.341415405273438" cy="22.506256103515625" r="0.4" fill="#dd3333"/><circle cx="18.156265258789062" cy="22.476242065429688" r="0.4" fill="#dd3333"/><circle cx="17.467479705810547" cy="22.23589515686035" r="0.4" fill="#dd3333"/><circle cx="17.267122268676758" cy="22.12238311767578" r="0.4" fill="#dd3333"/><circle cx="17.007287979125977" cy="22.031042098999023" r="0.4" fill="#dd3333"/><circle cx="16.708385467529297" cy="21.58578872680664" r="0.4" fill="#dd3333"/><circle cx="16.663217544555664" cy="22.260107040405273" r="0.4" fill="#dd3333"/><circle cx="15.551894187927246" cy="22.987728118896484" r="0.4" fill="#dd3333"/><circle cx="16.61891746520996" cy="22.277359008789062" r="0.4" fill="#dd3333"/><circle cx="16.6890926361084" cy="21.566991806030273" r="0.4" fill="#dd3333"/><circle cx="16.22062873840332" cy="20.86915397644043" r="0.4" fill="#dd3333"/><circle cx="16.20553970336914" cy="20.856624603271484" r="0.4" fill="#dd3333"/><circle cx="15.732871055603027" cy="20.15252113342285" r="0.4" fill="#dd3333"/><circle cx="15.721989631652832" cy="20.146255493164062" r="0.4" fill="#dd3333"/><circle cx="15.245113372802734" cy="19.435888290405273" r="0.4" fill="#dd3333"/></svg>