<svg xmlns="http://www.w3.org/2000/svg" width="130" height="40" viewBox="0 0 130 40"><path fill="#e8edff" stroke="#4466aa" stroke-width="0.3" d="M15,19.080705642700195 L18.33333396911621,20.39484977722168 L21.666667938232422,20.921470642089844 L25,20.621870040893555 L28.33333396911621,19.833946228027344 L31.666667938232422,19.08058738708496 L35,18.789506912231445 L38.333335876464844,19.06953239440918 L41.66666793823242,19.6586856842041 L45,20.070323944091797 L48.333335876464844,19.861148834228516 L51.66666793823242,18.881622314453125 L55,17.377946853637695 L58.33333206176758,15.890734672546387 L61.66666793823242,15 L65,15.04519271850586 L68.33333587646484,15.962396621704102 L71.66667175292969,17.32113265991211 L75,18.54153823852539 L78.33332824707031,19.1806583404541 L81.66667175292969,19.142009735107422 L85,18.702442169189453 L88.33333587646484,18.34475326538086 L91.66666412353516,18.484533309936523 L95,19.233959197998047 L98.33332824707031,20.326169967651367 L101.66666412353516,21.240793228149414 L105,21.467267990112305 L108.33333587646484,20.771129608154297 L111.66666412353516,19.326004028320312 L115,17.642425537109375 L115,21.904632568359375 L111.66666412353516,23.39212417602539 L108.33333587646484,24.594572067260742 L105,25.012042999267578 L101.66666412353516,24.483089447021484 L98.33332824707031,23.255399703979492 L95,21.85321617126465 L91.66666412353516,20.810455322265625 L88.33333587646484,20.406803131103516 L85,20.541610717773438 L81.66667175292969,20.809032440185547 L78.33332824707031,20.733793258666992 L75,20.04401969909668 L71.66667175292969,18.838409423828125 L68.33333587646484,17.559268951416016 L65,16.78298568725586 L61.66666793823242,16.93387794494629 L58.33333206176758,18.067293167114258 L55,19.833171844482422 L51.66666793823242,21.639326095581055 L48.333335876464844,22.93191909790039 L45,23.451066970825195 L41.66666793823242,23.332763671875 L38.333335876464844,23.007484436035156 L35,22.95033836364746 L31.666667938232422,23.413562774658203 L28.33333396911621,24.280811309814453 L25,25.119388580322266 L21.666667938232422,25.404193878173828 L18.33333396911621,24.797977447509766 L15,23.342910766601562 Z"/><line x1="113.33332824707031" y1="20.615318298339844" x2="115" y2="17.642425537109375" stroke="#dd3333" stroke-width="0.25" stroke-linecap="round"/><line x1="111.66666412353516" y1="21.35906410217285" x2="110" y2="22.081626892089844" stroke="#dd3333" stroke-width="0.25" stroke-linecap="round"/><line x1="113.33332824707031" y1="20.615318298339844" x2="111.66666412353516" y2="21.35906410217285" stroke="#dd3333" stroke-width="0.25" stroke-linecap="round"/><line x1="108.33333587646484" y1="22.682849884033203" x2="106.66667175292969" y2="23.030920028686523" stroke="#dd3333" stroke-width="0.25" stroke-linecap="round"/><line x1="110" y1="22.081626892089844" x2="108.33333587646484" y2="22.682849884033203" stroke="#dd3333" stroke-width="0.25" stroke-linecap="round"/><line x1="106.66667175292969" y1="23.030920028686523" x2="105" y2="23.239654541015625" stroke="#dd3333" stroke-width="0.25" stroke-linecap="round"/><line x1="103.33332824707031" y1="22.97517967224121" x2="101.66666412353516" y2="22.861942291259766" stroke="#dd3333" stroke-width="0.25" stroke-linecap="round"/><line x1="105" y1="23.239654541015625" x2="103.33332824707031" y2="22.97517967224121" stroke="#dd3333" stroke-width="0.25" stroke-linecap="round"/><line x1="100" y1="22.248096466064453" x2="98.33332824707031" y2="21.79078483581543" stroke="#dd3333" stroke-width="0.25" stroke-linecap="round"/><line x1="101.66666412353516" y1="22.861942291259766" x2="100" y2="22.248096466064453" stroke="#dd3333" stroke-width="0.25" stroke-linecap="round"/><line x1="96.66666412353516" y1="21.089693069458008" x2="95" y2="20.54358673095703" stroke="#dd3333" stroke-width="0.25" stroke-linecap="round"/><line x1="98.33332824707031" y1="21.79078483581543" x2="96.66666412353516" y2="21.089693069458008" stroke="#dd3333" stroke-width="0.25" stroke-linecap="round"/><line x1="93.33332824707031" y1="20.022207260131836" x2="91.66666412353516" y2="19.64749526977539" stroke="#dd3333" stroke-width="0.25" stroke-linecap="round"/><line x1="95" y1="20.54358673095703" x2="93.33332824707031" y2="20.022207260131836" stroke="#dd3333" stroke-width="0.25" stroke-linecap="round"/><line x1="88.33333587646484" y1="19.375778198242188" x2="86.66667175292969" y2="19.554622650146484" stroke="#dd3333" stroke-width="0.25" stroke-linecap="round"/><line x1="90" y1="19.445669174194336" x2="88.33333587646484" y2="19.375778198242188" stroke="#dd3333" stroke-width="0.25" stroke-linecap="round"/><line x1="91.66666412353516" y1="19.64749526977539" x2="90" y2="19.445669174194336" stroke="#dd3333" stroke-width="0.25" stroke-linecap="round"/><line x1="85" y1="19.622026443481445" x2="83.33333587646484" y2="19.84181022644043" stroke="#dd3333" stroke-width="0.25" stroke-linecap="round"/><line x1="86.66667175292969" y1="19.554622650146484" x2="85" y2="19.622026443481445" stroke="#dd3333" stroke-width="0.25" stroke-linecap="round"/><line x1="83.33333587646484" y1="19.84181022644043" x2="81.66667175292969" y2="19.975521087646484" stroke="#dd3333" stroke-width="0.25" stroke-linecap="round"/><line x1="80" y1="19.93790054321289" x2="78.33332824707031" y2="19.957225799560547" stroke="#dd3333" stroke-width="0.25" stroke-linecap="round"/><line x1="81.66667175292969" y1="19.975521087646484" x2="80" y2="19.93790054321289" stroke="#dd3333" stroke-width="0.25" stroke-linecap="round"/><line x1="76.66667175292969" y1="19.61233901977539" x2="75" y2="19.29277801513672" stroke="#dd3333" stroke-width="0.25" stroke-linecap="round"/><line x1="78.33332824707031" y1="19.957225799560547" x2="76.66667175292969" y2="19.61233901977539" stroke="#dd3333" stroke-width="0.25" stroke-linecap="round"/><line x1="73.33333587646484" y1="18.689973831176758" x2="71.66667175292969" y2="18.079771041870117" stroke="#dd3333" stroke-width="0.25" stroke-linecap="round"/><line x1="75" y1="19.29277801513672" x2="73.33333587646484" y2="18.689973831176758" stroke="#dd3333" stroke-width="0.25" stroke-linecap="round"/><line x1="70" y1="17.440200805664062" x2="68.33333587646484" y2="16.760833740234375" stroke="#dd3333" stroke-width="0.25" stroke-linecap="round"/><line x1="71.66667175292969" y1="18.079771041870117" x2="70" y2="17.440200805664062" stroke="#dd3333" stroke-width="0.25" stroke-linecap="round"/><line x1="65" y1="15.914090156555176" x2="63.333335876464844" y2="15.89149284362793" stroke="#dd3333" stroke-width="0.25" stroke-linecap="round"/><line x1="66.66667175292969" y1="16.372692108154297" x2="65" y2="15.914090156555176" stroke="#dd3333" stroke-width="0.25" stroke-linecap="round"/><line x1="68.33333587646484" y1="16.760833740234375" x2="66.66667175292969" y2="16.372692108154297" stroke="#dd3333" stroke-width="0.25" stroke-linecap="round"/><line x1="61.66666793823242" y1="15.966938972473145" x2="60" y2="16.41230583190918" stroke="#dd3333" stroke-width="0.25" stroke-linecap="round"/><line x1="63.333335876464844" y1="15.89149284362793" x2="61.66666793823242" y2="15.966938972473145" stroke="#dd3333" stroke-width="0.25" stroke-linecap="round"/><line x1="58.33333206176758" y1="16.979013442993164" x2="56.666664123535156" y2="17.722620010375977" stroke="#dd3333" stroke-width="0.25" stroke-linecap="round"/><line x1="60" y1="16.41230583190918" x2="58.33333206176758" y2="16.979013442993164" stroke="#dd3333" stroke-width="0.25" stroke-linecap="round"/><line x1="55" y1="18.605558395385742" x2="53.333335876464844" y2="19.357397079467773" stroke="#dd3333" stroke-width="0.25" stroke-linecap="round"/><line x1="56.666664123535156" y1="17.722620010375977" x2="55" y2="18.605558395385742" stroke="#dd3333" stroke-width="0.25" stroke-linecap="round"/><line x1="51.66666793823242" y1="20.260475158691406" x2="50" y2="20.75023651123047" stroke="#dd3333" stroke-width="0.25" stroke-linecap="round"/><line x1="53.333335876464844" y1="19.357397079467773" x2="51.66666793823242" y2="20.260475158691406" stroke="#dd3333" stroke-width="0.25" stroke-linecap="round"/><line x1="48.333335876464844" y1="21.396533966064453" x2="46.66666793823242" y2="21.501121520996094" stroke="#dd3333" stroke-width="0.25" stroke-linecap="round"/><line x1="50" y1="20.75023651123047" x2="48.333335876464844" y2="21.396533966064453" stroke="#dd3333" stroke-width="0.25" stroke-linecap="round"/><line x1="46.66666793823242" y1="21.501121520996094" x2="45" y2="21.760696411132812" stroke="#dd3333" stroke-width="0.25" stroke-linecap="round"/><line x1="43.333335876464844" y1="21.7015438079834" x2="41.66666793823242" y2="21.495723724365234" stroke="#dd3333" stroke-width="0.25" stroke-linecap="round"/><line x1="45" y1="21.760696411132812" x2="43.333335876464844" y2="21.7015438079834" stroke="#dd3333" stroke-width="0.25" stroke-linecap="round"/><line x1="40" y1="21.333084106445312" x2="38.333335876464844" y2="21.038509368896484" stroke="#dd3333" stroke-width="0.25" stroke-linecap="round"/><line x1="41.66666793823242" y1="21.495723724365234" x2="40" y2="21.333084106445312" stroke="#dd3333" stroke-width="0.25" stroke-linecap="round"/><line x1="35" y1="20.869922637939453" x2="33.333335876464844" y2="21.01546287536621" stroke="#dd3333" stroke-width="0.25" stroke-linecap="round"/><line x1="36.66666793823242" y1="21.00993537902832" x2="35" y2="20.869922637939453" stroke="#dd3333" stroke-width="0.25" stroke-linecap="round"/><line x1="38.333335876464844" y1="21.038509368896484" x2="36.66666793823242" y2="21.00993537902832" stroke="#dd3333" stroke-width="0.25" stroke-linecap="round"/><line x1="31.666667938232422" y1="21.2470760345459" x2="30" y2="21.623754501342773" stroke="#dd3333" stroke-width="0.25" stroke-linecap="round"/><line x1="33.333335876464844" y1="21.01546287536621" x2="31.666667938232422" y2="21.2470760345459" stroke="#dd3333" stroke-width="0.25" stroke-linecap="round"/><line x1="28.33333396911621" y1="22.057376861572266" x2="26.666667938232422" y2="22.451339721679688" stroke="#dd3333" stroke-width="0.25" stroke-linecap="round"/><line x1="30" y1="21.623754501342773" x2="28.33333396911621" y2="22.057376861572266" stroke="#dd3333" stroke-width="0.25" stroke-linecap="round"/><line x1="25" y1="22.870630264282227" x2="23.33333396911621" y2="23.020429611206055" stroke="#dd3333" stroke-width="0.25" stroke-linecap="round"/><line x1="26.666667938232422" y1="22.451339721679688" x2="25" y2="22.870630264282227" stroke="#dd3333" stroke-width="0.25" stroke-linecap="round"/><line x1="23.33333396911621" y1="23.020429611206055" x2="21.666667938232422" y2="23.162832260131836" stroke="#dd3333" stroke-width="0.25" stroke-linecap="round"/><line x1="20" y1="22.859724044799805" x2="18.33333396911621" y2="22.59641456604004" stroke="#dd3333" stroke-width="0.25" stroke-linecap="round"/><line x1="21.666667938232422" y1="23.162832260131836" x2="20" y2="22.859724044799805" stroke="#dd3333" stroke-width="0.25" stroke-linecap="round"/><line x1="16.66666603088379" y1="21.868881225585938" x2="15" y2="19.080705642700195" stroke="#dd3333" stroke-width="0.25" stroke-linecap="round"/><line x1="18.33333396911621" y1="22.59641456604004" x2="16.66666603088379" y2="21.868881225585938" stroke="#dd3333" stroke-width="0.25" stroke-linecap="round"/><circle cx="113.33332824707031" cy="20.615318298339844" r="0.4" fill="#dd3333"/><circle cx="115" cy="17.642425537109375" r="0.4" fill="#dd3333"/><circle cx="111.66666412353516" cy="21.35906410217285" r="0.4" fill="#dd3333"/><circle cx="110" cy="22.081626892089844" r="0.4" fill="#dd3333"/><circle cx="108.33333587646484" cy="22.682849884033203" r="0.4" fill="#dd3333"/><circle cx="106.66667175292969" cy="23.030920028686523" r="0.4" fill="#dd3333"/><circle cx="105" cy="23.239654541015625" r="0.4" fill="#dd3333"/><circle cx="103.33332824707031" cy="22.97517967224121" r="0.4" fill="#dd3333"/><circle cx="101.66666412353516" cy="22.861942291259766" r="0.4" fill="#dd3333"/><circle cx="100" cy="22.248096466064453" r="0.4" fill="#dd3333"/><circle cx="98.33332824707031" cy="21.79078483581543" r="0.4" fill="#dd3333"/><circle cx="96.66666412353516" cy="21.089693069458008" r="0.4" fill="#dd3333"/><circle cx="95" cy="20.54358673095703" r="0.4" fill="#dd3333"/><circle cx="93.33332824707031" cy="20.022207260131836" r="0.4" fill="#dd3333"/><circle cx="91.66666412353516" cy="19.64749526977539" r="0.4" fill="#dd3333"/><circle cx="88.33333587646484" cy="19.375778198242188" r="0.4" fill="#dd3333"/><circle cx="86.66667175292969" cy="19.554622650146484" r="0.4" fill="#dd3333"/><circle cx="90" cy="19.445669174194336" r="0.4" fill="#dd3333"/><circle cx="85" cy="19.622026443481445" r="0.4" fill="#dd3333"/><circle cx="83.33333587646484" cy="19.84181022644043" r="0.4" fill="#dd3333"/><circle cx="81.66667175292969" cy="19.975521087646484" r="0.4" fill="#dd3333"/><circle cx="80" cy="19.93790054321289" r="0.4" fill="#dd3333"/><circle cx="78.33332824707031" cy="19.957225799560547" r="0.4" fill="#dd3333"/><circle cx="76.66667175292969" cy="19.61233901977539" r="0.4" fill="#dd3333"/><circle cx="75" cy="19.29277801513672" r="0.4" fill="#dd3333"/><circle cx="73.33333587646484" cy="18.689973831176758" r="0.4" fill="#dd3333"/><circle cx="71.66667175292969" cy="18.079771041870117" r="0.4" fill="#dd3333"/><circle cx="70" cy="17.440200805664062" r="0.4" fill="#dd3333"/><circle cx="68.33333587646484" cy="16.760833740234375" r="0.4" fill="#dd3333"/><circle cx="65" cy="15.914090156555176" r="0.4" fill="#dd3333"/><circle cx="63.333335876464844" cy="15.89149284362793" r="0.4" fill="#dd3333"/><circle cx="66.66667175292969" cy="16.372692108154297" r="0.4" fill="#dd3333"/><circle cx="61.66666793823242" cy="15.966938972473145" r="0.4" fill="#dd3333"/><circle cx="60" cy="16.41230583190918" r="0.4" fill="#dd3333"/><circle cx="58.33333206176758" cy="16.979013442993164" r="0.4" fill="#dd3333"/><circle cx="56.666664123535156" cy="17.722620010375977" r="0.4" fill="#dd3333"/><circle cx="55" cy="18.605558395385742" r="0.4" fill="#dd3333"/><circle cx="53.333335876464844" cy="19.357397079467773" r="0.4" fill="#dd3333"/><circle cx="51.66666793823242" cy="20.260475158691406" r="0.4" fill="#dd3333"/><circle cx="50" cy="20.75023651123047" r="0.4" fill="#dd3333"/><circle cx="48.333335876464844" cy="21.396533966064453" r="0.4" fill="#dd3333"/><circle cx="46.66666793823242" cy="21.501121520996094" r="0.4" fill="#dd3333"/><circle cx="45" cy="21.760696411132812" r="0.4" fill="#dd3333"/><circle cx="43.333335876464844" cy="21.7015438079834" r="0.4" fill="#dd3333"/><circle cx="41.66666793823242" cy="21.495723724365234" r="0.4" fill="#dd3333"/><circle cx="40" cy="21.333084106445312" r="0.4" fill="#dd3333"/><circle cx="38.333335876464844" cy="21.038509368896484" r="0.4" fill="#dd3333"/><circle cx="35" cy="20.869922637939453" r="0.4" fill="#dd3333"/><circle cx="33.333335876464844" cy="21.01546287536621" r="0.4" fill="#dd3333"/><circle cx="36.66666793823242" cy="21.00993537902832" r="0.4" fill="#dd3333"/><circle cx="31.666667938232422" cy="21.2470760345459" r="0.4" fill="#dd3333"/><circle cx="30" cy="21.623754501342773" r="0.4" fill="#dd3333"/><circle cx="28.33333396911621" cy="22.057376861572266" r="0.4" fill="#dd3333"/><circle cx="26.666667938232422" cy="22.451339721679688" r="0.4" fill="#dd3333"/><circle cx="25" cy="22.870630264282227" r="0.4" fill="#dd3333"/><circle cx="23.33333396911621" cy="23.020429611206055" r="0.4" fill="#dd3333"/><circle cx="21.666667938232422" cy="23.162832260131836" r="0.4" fill="#dd3333"/><circle cx="20" cy="22.859724044799805" r="0.4" fill="#dd3333"/><circle cx="18.33333396911621" cy="22.59641456604004" r="0.4" fill="#dd3333"/><circle cx="16.66666603088379" cy="21.868881225585938" r="0.4" fill="#dd3333"/><circle cx="15" cy="19.080705642700195" r="0.4" fill="#dd3333"/></svg>