<svg xmlns="http://www.w3.org/2000/svg" width="200" height="240" viewBox="-2.00 -17.00 14.00 24.00">
<rect x="-2.00" y="-17.00" width="14.00" height="24.00" fill="white"/>
<g transform="scale(1,-1)">
<path d="M0,0 C2,15 8,-5 10,0" fill="none" stroke="#4466aa" stroke-width="0.15" stroke-dasharray="4,2"/>
<line x1="0" y1="0" x2="2" y2="15" stroke="#4466aa" stroke-width="0.06"/>
<line x1="10" y1="0" x2="8" y2="-5" stroke="#4466aa" stroke-width="0.06"/>
<polygon points="2,14.699999809265137 2.299999952316284,15 2,15.300000190734863 1.7000000476837158,15" fill="#4466aa"/>
<polygon points="8,-5.300000190734863 8.300000190734863,-5 8,-4.699999809265137 7.699999809265137,-5" fill="#4466aa"/>
<polyline points="0,0 0.061822183430194855,0.4438941180706024 0.12604361772537231,0.8667327761650085 0.1926148682832718,1.2688872814178467 0.2614864110946655,1.6507283449172974 0.33260881900787354,2.012626886367798 0.40593260526657104,2.354954481124878 0.4814082682132721,2.678081512451172 0.5589864253997803,2.98237943649292 0.6386175751686096,3.268219232559204 0.7202522158622742,3.5359721183776855 0.8038408756256104,3.786007881164551 0.8893340826034546,4.018699645996094 0.9766824245452881,4.234416484832764 1.0658361911773682,4.433529853820801 1.1567466259002686,4.616412162780762 1.2493633031845093,4.783432483673096 1.343637466430664,4.934963226318359 1.4395192861557007,5.071374893188477 1.5369592905044556,5.193037986755371 1.6359081268310547,5.3003249168396 1.7363163232803345,5.393604755401611 1.838134527206421,5.473250865936279 1.9413130283355713,5.539632797241211 2.045802593231201,5.5931220054626465 2.1515533924102783,5.634088516235352 2.2585158348083496,5.662904262542725 2.3666419982910156,5.679940700531006 2.4758799076080322,5.6855669021606445 2.586181879043579,5.680156707763672 2.697498321533203,5.664078712463379 2.809778928756714,5.637704849243164 2.922975540161133,5.601408004760742 3.037036895751953,5.5555548667907715 3.1519148349761963,5.500521183013916 3.267559766769409,5.43667459487915 3.3839221000671387,5.364387512207031 3.5009515285491943,5.284031391143799 3.6185998916625977,5.195974826812744 3.7368178367614746,5.100593566894531 3.85555362701416,4.998252868652344 3.9747602939605713,4.8893280029296875 4.094387531280518,4.774188041687012 4.214385032653809,4.653204441070557 4.334705352783203,4.526749134063721 4.455296993255615,4.395190715789795 4.57611083984375,4.258903503417969 4.697098731994629,4.118256568908691 4.818209648132324,3.9736201763153076 4.939394950866699,3.8253676891326904 5.060604572296143,3.673868179321289 5.181790351867676,3.5194926261901855 5.302901268005371,3.3626129627227783 5.42388916015625,3.2035999298095703 5.544703006744385,3.0428245067596436 5.665295124053955,2.88065767288208 5.785614490509033,2.7174720764160156 5.905611991882324,2.553635835647583 6.025239944458008,2.389521360397339 6.144445896148682,2.225499391555786 6.263183116912842,2.061941623687744 6.381400108337402,1.8992178440093994 6.499048233032227,1.737701654434204 6.6160783767700195,1.577761173248291 6.732439994812012,1.4197685718536377 6.848084926605225,1.2640948295593262 6.962963104248047,1.1111106872558594 7.077024459838867,0.961188554763794 7.190220355987549,0.8146975040435791 7.302501201629639,0.6720094680786133 7.413817405700684,0.5334951877593994 7.5241193771362305,0.39952635765075684 7.633358955383301,0.27047300338745117 7.741483688354492,0.14670753479003906 7.848445892333984,0.02859973907470703 7.954197883605957,-0.08347940444946289 8.058687210083008,-0.18915843963623047 8.161865234375,-0.28806591033935547 8.263684272766113,-0.37983179092407227 8.364091873168945,-0.4640836715698242 8.463040351867676,-0.5404518842697144 8.560481071472168,-0.6085649728775024 8.656362533569336,-0.6680518388748169 8.750636100769043,-0.7185414433479309 8.843254089355469,-0.7596628069877625 8.934163093566895,-0.7910447716712952 9.023317337036133,-0.8123166561126709 9.110666275024414,-0.823107123374939 9.196159362792969,-0.8230452537536621 9.27974796295166,-0.8117600083351135 9.361382484436035,-0.788880467414856 9.44101333618164,-0.7540356516838074 9.518590927124023,-0.7068543434143066 9.594066619873047,-0.6469655632972717 9.667391777038574,-0.5739982724189758 9.738513946533203,-0.4875815212726593 9.807384490966797,-0.3873441815376282 9.873956680297852,-0.27291610836982727 9.938178062438965,-0.14392484724521637 10,0" fill="none" stroke="#999999" stroke-width="0.06" stroke-dasharray="2,1"/>
<circle cx="0" cy="0" r="0.12" fill="#888888"/>
<circle cx="0.061822183430194855" cy="0.4438941180706024" r="0.12" fill="#888888"/>
<circle cx="0.12604361772537231" cy="0.8667327761650085" r="0.12" fill="#888888"/>
<circle cx="0.1926148682832718" cy="1.2688872814178467" r="0.12" fill="#888888"/>
<circle cx="0.2614864110946655" cy="1.6507283449172974" r="0.12" fill="#888888"/>
<circle cx="0.33260881900787354" cy="2.012626886367798" r="0.12" fill="#888888"/>
<circle cx="0.40593260526657104" cy="2.354954481124878" r="0.12" fill="#888888"/>
<circle cx="0.4814082682132721" cy="2.678081512451172" r="0.12" fill="#888888"/>
<circle cx="0.5589864253997803" cy="2.98237943649292" r="0.12" fill="#888888"/>
<circle cx="0.6386175751686096" cy="3.268219232559204" r="0.12" fill="#888888"/>
<circle cx="0.7202522158622742" cy="3.5359721183776855" r="0.12" fill="#888888"/>
<circle cx="0.8038408756256104" cy="3.786007881164551" r="0.12" fill="#888888"/>
<circle cx="0.8893340826034546" cy="4.018699645996094" r="0.12" fill="#888888"/>
<circle cx="0.9766824245452881" cy="4.234416484832764" r="0.12" fill="#888888"/>
<circle cx="1.0658361911773682" cy="4.433529853820801" r="0.12" fill="#888888"/>
<circle cx="1.1567466259002686" cy="4.616412162780762" r="0.12" fill="#888888"/>
<circle cx="1.2493633031845093" cy="4.783432483673096" r="0.12" fill="#888888"/>
<circle cx="1.343637466430664" cy="4.934963226318359" r="0.12" fill="#888888"/>
<circle cx="1.4395192861557007" cy="5.071374893188477" r="0.12" fill="#888888"/>
<circle cx="1.5369592905044556" cy="5.193037986755371" r="0.12" fill="#888888"/>
<circle cx="1.6359081268310547" cy="5.3003249168396" r="0.12" fill="#888888"/>
<circle cx="1.7363163232803345" cy="5.393604755401611" r="0.12" fill="#888888"/>
<circle cx="1.838134527206421" cy="5.473250865936279" r="0.12" fill="#888888"/>
<circle cx="1.9413130283355713" cy="5.539632797241211" r="0.12" fill="#888888"/>
<circle cx="2.045802593231201" cy="5.5931220054626465" r="0.12" fill="#888888"/>
<circle cx="2.1515533924102783" cy="5.634088516235352" r="0.12" fill="#888888"/>
<circle cx="2.2585158348083496" cy="5.662904262542725" r="0.12" fill="#888888"/>
<circle cx="2.3666419982910156" cy="5.679940700531006" r="0.12" fill="#888888"/>
<circle cx="2.4758799076080322" cy="5.6855669021606445" r="0.12" fill="#888888"/>
<circle cx="2.586181879043579" cy="5.680156707763672" r="0.12" fill="#888888"/>
<circle cx="2.697498321533203" cy="5.664078712463379" r="0.12" fill="#888888"/>
<circle cx="2.809778928756714" cy="5.637704849243164" r="0.12" fill="#888888"/>
<circle cx="2.922975540161133" cy="5.601408004760742" r="0.12" fill="#888888"/>
<circle cx="3.037036895751953" cy="5.5555548667907715" r="0.12" fill="#888888"/>
<circle cx="3.1519148349761963" cy="5.500521183013916" r="0.12" fill="#888888"/>
<circle cx="3.267559766769409" cy="5.43667459487915" r="0.12" fill="#888888"/>
<circle cx="3.3839221000671387" cy="5.364387512207031" r="0.12" fill="#888888"/>
<circle cx="3.5009515285491943" cy="5.284031391143799" r="0.12" fill="#888888"/>
<circle cx="3.6185998916625977" cy="5.195974826812744" r="0.12" fill="#888888"/>
<circle cx="3.7368178367614746" cy="5.100593566894531" r="0.12" fill="#888888"/>
<circle cx="3.85555362701416" cy="4.998252868652344" r="0.12" fill="#888888"/>
<circle cx="3.9747602939605713" cy="4.8893280029296875" r="0.12" fill="#888888"/>
<circle cx="4.094387531280518" cy="4.774188041687012" r="0.12" fill="#888888"/>
<circle cx="4.214385032653809" cy="4.653204441070557" r="0.12" fill="#888888"/>
<circle cx="4.334705352783203" cy="4.526749134063721" r="0.12" fill="#888888"/>
<circle cx="4.455296993255615" cy="4.395190715789795" r="0.12" fill="#888888"/>
<circle cx="4.57611083984375" cy="4.258903503417969" r="0.12" fill="#888888"/>
<circle cx="4.697098731994629" cy="4.118256568908691" r="0.12" fill="#888888"/>
<circle cx="4.818209648132324" cy="3.9736201763153076" r="0.12" fill="#888888"/>
<circle cx="4.939394950866699" cy="3.8253676891326904" r="0.12" fill="#888888"/>
<circle cx="5.060604572296143" cy="3.673868179321289" r="0.12" fill="#888888"/>
<circle cx="5.181790351867676" cy="3.5194926261901855" r="0.12" fill="#888888"/>
<circle cx="5.302901268005371" cy="3.3626129627227783" r="0.12" fill="#888888"/>
<circle cx="5.42388916015625" cy="3.2035999298095703" r="0.12" fill="#888888"/>
<circle cx="5.544703006744385" cy="3.0428245067596436" r="0.12" fill="#888888"/>
<circle cx="5.665295124053955" cy="2.88065767288208" r="0.12" fill="#888888"/>
<circle cx="5.785614490509033" cy="2.7174720764160156" r="0.12" fill="#888888"/>
<circle cx="5.905611991882324" cy="2.553635835647583" r="0.12" fill="#888888"/>
<circle cx="6.025239944458008" cy="2.389521360397339" r="0.12" fill="#888888"/>
<circle cx="6.144445896148682" cy="2.225499391555786" r="0.12" fill="#888888"/>
<circle cx="6.263183116912842" cy="2.061941623687744" r="0.12" fill="#888888"/>
<circle cx="6.381400108337402" cy="1.8992178440093994" r="0.12" fill="#888888"/>
<circle cx="6.499048233032227" cy="1.737701654434204" r="0.12" fill="#888888"/>
<circle cx="6.6160783767700195" cy="1.577761173248291" r="0.12" fill="#888888"/>
<circle cx="6.732439994812012" cy="1.4197685718536377" r="0.12" fill="#888888"/>
<circle cx="6.848084926605225" cy="1.2640948295593262" r="0.12" fill="#888888"/>
<circle cx="6.962963104248047" cy="1.1111106872558594" r="0.12" fill="#888888"/>
<circle cx="7.077024459838867" cy="0.961188554763794" r="0.12" fill="#888888"/>
<circle cx="7.190220355987549" cy="0.8146975040435791" r="0.12" fill="#888888"/>
<circle cx="7.302501201629639" cy="0.6720094680786133" r="0.12" fill="#888888"/>
<circle cx="7.413817405700684" cy="0.5334951877593994" r="0.12" fill="#888888"/>
<circle cx="7.5241193771362305" cy="0.39952635765075684" r="0.12" fill="#888888"/>
<circle cx="7.633358955383301" cy="0.27047300338745117" r="0.12" fill="#888888"/>
<circle cx="7.741483688354492" cy="0.14670753479003906" r="0.12" fill="#888888"/>
<circle cx="7.848445892333984" cy="0.02859973907470703" r="0.12" fill="#888888"/>
<circle cx="7.954197883605957" cy="-0.08347940444946289" r="0.12" fill="#888888"/>
<circle cx="8.058687210083008" cy="-0.18915843963623047" r="0.12" fill="#888888"/>
<circle cx="8.161865234375" cy="-0.28806591033935547" r="0.12" fill="#888888"/>
<circle cx="8.263684272766113" cy="-0.37983179092407227" r="0.12" fill="#888888"/>
<circle cx="8.364091873168945" cy="-0.4640836715698242" r="0.12" fill="#888888"/>
<circle cx="8.463040351867676" cy="-0.5404518842697144" r="0.12" fill="#888888"/>
<circle cx="8.560481071472168" cy="-0.6085649728775024" r="0.12" fill="#888888"/>
<circle cx="8.656362533569336" cy="-0.6680518388748169" r="0.12" fill="#888888"/>
<circle cx="8.750636100769043" cy="-0.7185414433479309" r="0.12" fill="#888888"/>
<circle cx="8.843254089355469" cy="-0.7596628069877625" r="0.12" fill="#888888"/>
<circle cx="8.934163093566895" cy="-0.7910447716712952" r="0.12" fill="#888888"/>
<circle cx="9.023317337036133" cy="-0.8123166561126709" r="0.12" fill="#888888"/>
<circle cx="9.110666275024414" cy="-0.823107123374939" r="0.12" fill="#888888"/>
<circle cx="9.196159362792969" cy="-0.8230452537536621" r="0.12" fill="#888888"/>
<circle cx="9.27974796295166" cy="-0.8117600083351135" r="0.12" fill="#888888"/>
<circle cx="9.361382484436035" cy="-0.788880467414856" r="0.12" fill="#888888"/>
<circle cx="9.44101333618164" cy="-0.7540356516838074" r="0.12" fill="#888888"/>
<circle cx="9.518590927124023" cy="-0.7068543434143066" r="0.12" fill="#888888"/>
<circle cx="9.594066619873047" cy="-0.6469655632972717" r="0.12" fill="#888888"/>
<circle cx="9.667391777038574" cy="-0.5739982724189758" r="0.12" fill="#888888"/>
<circle cx="9.738513946533203" cy="-0.4875815212726593" r="0.12" fill="#888888"/>
<circle cx="9.807384490966797" cy="-0.3873441815376282" r="0.12" fill="#888888"/>
<circle cx="9.873956680297852" cy="-0.27291610836982727" r="0.12" fill="#888888"/>
<circle cx="9.938178062438965" cy="-0.14392484724521637" r="0.12" fill="#888888"/>
<circle cx="10" cy="0" r="0.12" fill="#888888"/>
<path d="M0,0 C2.236070394515991,14.747064590454102 6.535081386566162,-3.5195908546447754 10,0" fill="none" stroke="#dd3333" stroke-width="0.15"/>
<line x1="0" y1="0" x2="2.236070394515991" y2="14.747064590454102" stroke="#dd3333" stroke-width="0.06"/>
<line x1="10" y1="0" x2="6.535081386566162" y2="-3.5195908546447754" stroke="#dd3333" stroke-width="0.06"/>
<polygon points="2.236070394515991,14.447064399719238 2.5360703468322754,14.747064590454102 2.236070394515991,15.047064781188965 1.936070442199707,14.747064590454102" fill="#dd3333"/>
<polygon points="6.535081386566162,-3.8195908069610596 6.835081577301025,-3.5195908546447754 6.535081386566162,-3.219590902328491 6.235081195831299,-3.5195908546447754" fill="#dd3333"/>
<circle cx="0" cy="0" r="0.18" fill="#000000"/>
<circle cx="10" cy="0" r="0.18" fill="#000000"/>
</g>
</svg>
