<svg xmlns="http://www.w3.org/2000/svg" width="200" height="160" viewBox="-2.00 -14.00 16.00 16.00">
<rect x="-2.00" y="-14.00" width="16.00" height="16.00" fill="white"/>
<g transform="scale(1,-1)">
<path d="M0,0 C4,12 8,12 12,0" fill="none" stroke="#4466aa" stroke-width="0.15" stroke-dasharray="4,2"/>
<line x1="0" y1="0" x2="4" y2="12" stroke="#4466aa" stroke-width="0.06"/>
<line x1="12" y1="0" x2="8" y2="12" stroke="#4466aa" stroke-width="0.06"/>
<polygon points="4,11.699999809265137 4.300000190734863,12 4,12.300000190734863 3.700000047683716,12" fill="#4466aa"/>
<polygon points="8,11.699999809265137 8.300000190734863,12 8,12.300000190734863 7.699999809265137,12" fill="#4466aa"/>
<polyline points="0,0 0.32423487305641174,0.9459635019302368 0.6657298803329468,1.885827660560608 1.0275014638900757,2.818066120147705 1.4134306907653809,3.7405548095703125 1.8289523124694824,4.650075912475586 2.2810378074645996,5.541945934295654 2.78039813041687,6.408146858215332 3.342989683151245,7.234461784362793 3.993267059326172,7.993098258972168 4.7689208984375,8.620575904846191 5.696068286895752,8.976811408996582 6.681879997253418,8.883389472961426 7.550899982452393,8.398053169250488 8.272720336914062,7.708190441131592 8.885275840759277,6.918481349945068 9.420740127563477,6.07422399520874 9.90031909942627,5.196869373321533 10.336883544921875,4.297277927398682 10.740111351013184,3.382233142852783 11.116233825683594,2.455698013305664 11.469633102416992,1.5202487707138062 11.804144859313965,0.5778735280036926 12,0" fill="none" stroke="#999999" stroke-width="0.06" stroke-dasharray="2,1"/>
<circle cx="0" cy="0" r="0.12" fill="#888888"/>
<circle cx="0.32423487305641174" cy="0.9459635019302368" r="0.12" fill="#888888"/>
<circle cx="0.6657298803329468" cy="1.885827660560608" r="0.12" fill="#888888"/>
<circle cx="1.0275014638900757" cy="2.818066120147705" r="0.12" fill="#888888"/>
<circle cx="1.4134306907653809" cy="3.7405548095703125" r="0.12" fill="#888888"/>
<circle cx="1.8289523124694824" cy="4.650075912475586" r="0.12" fill="#888888"/>
<circle cx="2.2810378074645996" cy="5.541945934295654" r="0.12" fill="#888888"/>
<circle cx="2.78039813041687" cy="6.408146858215332" r="0.12" fill="#888888"/>
<circle cx="3.342989683151245" cy="7.234461784362793" r="0.12" fill="#888888"/>
<circle cx="3.993267059326172" cy="7.993098258972168" r="0.12" fill="#888888"/>
<circle cx="4.7689208984375" cy="8.620575904846191" r="0.12" fill="#888888"/>
<circle cx="5.696068286895752" cy="8.976811408996582" r="0.12" fill="#888888"/>
<circle cx="6.681879997253418" cy="8.883389472961426" r="0.12" fill="#888888"/>
<circle cx="7.550899982452393" cy="8.398053169250488" r="0.12" fill="#888888"/>
<circle cx="8.272720336914062" cy="7.708190441131592" r="0.12" fill="#888888"/>
<circle cx="8.885275840759277" cy="6.918481349945068" r="0.12" fill="#888888"/>
<circle cx="9.420740127563477" cy="6.07422399520874" r="0.12" fill="#888888"/>
<circle cx="9.90031909942627" cy="5.196869373321533" r="0.12" fill="#888888"/>
<circle cx="10.336883544921875" cy="4.297277927398682" r="0.12" fill="#888888"/>
<circle cx="10.740111351013184" cy="3.382233142852783" r="0.12" fill="#888888"/>
<circle cx="11.116233825683594" cy="2.455698013305664" r="0.12" fill="#888888"/>
<circle cx="11.469633102416992" cy="1.5202487707138062" r="0.12" fill="#888888"/>
<circle cx="11.804144859313965" cy="0.5778735280036926" r="0.12" fill="#888888"/>
<circle cx="12" cy="0" r="0.12" fill="#888888"/>
<path d="M0,0 C3.756636381149292,11.861660957336426 8.243693351745605,11.860530853271484 12,0" fill="none" stroke="#dd3333" stroke-width="0.15"/>
<line x1="0" y1="0" x2="3.756636381149292" y2="11.861660957336426" stroke="#dd3333" stroke-width="0.06"/>
<line x1="12" y1="0" x2="8.243693351745605" y2="11.860530853271484" stroke="#dd3333" stroke-width="0.06"/>
<polygon points="3.756636381149292,11.561660766601562 4.056636333465576,11.861660957336426 3.756636381149292,12.161661148071289 3.456636428833008,11.861660957336426" fill="#dd3333"/>
<polygon points="8.243693351745605,11.560530662536621 8.543693542480469,11.860530853271484 8.243693351745605,12.160531044006348 7.943693161010742,11.860530853271484" fill="#dd3333"/>
<circle cx="0" cy="0" r="0.18" fill="#000000"/>
<circle cx="12" cy="0" r="0.18" fill="#000000"/>
</g>
</svg>
