<svg xmlns="http://www.w3.org/2000/svg" width="200" height="140" viewBox="-2.00 -12.00 14.00 14.00">
<rect x="-2.00" y="-12.00" width="14.00" height="14.00" fill="white"/>
<g transform="scale(1,-1)">
<path d="M0,0 C3,10 7,10 10,0" fill="none" stroke="#4466aa" stroke-width="0.15" stroke-dasharray="4,2"/>
<line x1="0" y1="0" x2="3" y2="10" stroke="#4466aa" stroke-width="0.06"/>
<line x1="10" y1="0" x2="7" y2="10" stroke="#4466aa" stroke-width="0.06"/>
<polygon points="3,9.699999809265137 3.299999952316284,10 3,10.300000190734863 2.700000047683716,10" fill="#4466aa"/>
<polygon points="7,9.699999809265137 7.300000190734863,10 7,10.300000190734863 6.699999809265137,10" fill="#4466aa"/>
<polyline points="0,0 2.40625,5.625 5,7.5 7.59375,5.625 10,0" fill="none" stroke="#999999" stroke-width="0.06" stroke-dasharray="2,1"/>
<circle cx="0" cy="0" r="0.12" fill="#888888"/>
<circle cx="2.40625" cy="5.625" r="0.12" fill="#888888"/>
<circle cx="5" cy="7.5" r="0.12" fill="#888888"/>
<circle cx="7.59375" cy="5.625" r="0.12" fill="#888888"/>
<circle cx="10" cy="0" r="0.12" fill="#888888"/>
<path d="M0,0 C2.7516164779663086,9.905076026916504 7.248381614685059,9.905080795288086 10,0" fill="none" stroke="#dd3333" stroke-width="0.15"/>
<line x1="0" y1="0" x2="2.7516164779663086" y2="9.905076026916504" stroke="#dd3333" stroke-width="0.06"/>
<line x1="10" y1="0" x2="7.248381614685059" y2="9.905080795288086" stroke="#dd3333" stroke-width="0.06"/>
<polygon points="2.7516164779663086,9.60507583618164 3.0516164302825928,9.905076026916504 2.7516164779663086,10.205076217651367 2.4516165256500244,9.905076026916504" fill="#dd3333"/>
<polygon points="7.248381614685059,9.605080604553223 7.548381805419922,9.905080795288086 7.248381614685059,10.20508098602295 6.948381423950195,9.905080795288086" fill="#dd3333"/>
<circle cx="0" cy="0" r="0.18" fill="#000000"/>
<circle cx="10" cy="0" r="0.18" fill="#000000"/>
</g>
</svg>
