<svg xmlns="http://www.w3.org/2000/svg" width="240" height="340" viewBox="-2.00 -22.03 24.00 34.03">
<rect x="-2.00" y="-22.03" width="24.00" height="34.03" fill="white"/>
<g transform="scale(1,-1)">
<path d="M0,0 C5,20 15,-10 20,5" fill="none" stroke="#4466aa" stroke-width="0.15" stroke-dasharray="4,2"/>
<line x1="0" y1="0" x2="5" y2="20" stroke="#4466aa" stroke-width="0.06"/>
<line x1="20" y1="5" x2="15" y2="-10" stroke="#4466aa" stroke-width="0.06"/>
<polygon points="5,19.700000762939453 5.300000190734863,20 5,20.299999237060547 4.699999809265137,20" fill="#4466aa"/>
<polygon points="15,-10.300000190734863 15.300000190734863,-10 15,-9.699999809265137 14.699999809265137,-10" fill="#4466aa"/>
<polyline points="0,0 0.07575439661741257,0.29773178696632385 0.1522587537765503,0.587960422039032 0.22950538992881775,0.8707579970359802 0.30748677253723145,1.1461970806121826 0.38619524240493774,1.414349913597107 0.46562322974205017,1.6752889156341553 0.5457630753517151,1.929086446762085 0.6266071796417236,2.175814390182495 0.7081479430198669,2.4155454635620117 0.7903777956962585,2.6483521461486816 0.8732889294624329,2.8743062019348145 0.9568740129470825,3.0934805870056152 1.0411251783370972,3.3059473037719727 1.1260349750518799,3.5117783546447754 1.2115957736968994,3.7110471725463867 1.297799825668335,3.903824806213379 1.3846395015716553,4.090184211730957 1.4721076488494873,4.270198345184326 1.5601961612701416,4.443938255310059 1.648897409439087,4.611476898193359 1.7382041215896606,4.772885799407959 1.828108549118042,4.928239822387695 1.9186029434204102,5.077608585357666 2.0096797943115234,5.221065521240234 2.1013314723968506,5.358682632446289 2.1935501098632812,5.490531921386719 2.2863287925720215,5.616687297821045 2.379659414291382,5.737219333648682 2.473534107208252,5.852200508117676 2.567945718765259,5.961704730987549 2.662886381149292,6.065802097320557 2.7583484649658203,6.1645660400390625 2.8543248176574707,6.258070468902588 2.9508073329925537,6.346385478973389 3.0477888584136963,6.42958402633667 3.145260810852051,6.507739067077637 3.2432162761688232,6.580921649932861 3.3416481018066406,6.649204730987549 3.4405477046966553,6.712661266326904 3.5399084091186523,6.771362781524658 3.6397221088409424,6.825382709503174 3.739981174468994,6.874792098999023 3.840677499771118,6.919663429260254 3.941804885864258,6.960071086883545 4.04335355758667,6.996082782745361 4.145318508148193,7.02777624130249 4.247689723968506,7.055219650268555 4.350461483001709,7.078486442565918 4.453624248504639,7.097651958465576 4.557172775268555,7.112784385681152 4.661098003387451,7.123958587646484 4.7653913497924805,7.13124418258667 4.8700480461120605,7.134716987609863 4.975057125091553,7.13444709777832 5.080413341522217,7.130507946014404 5.186108589172363,7.122971534729004 5.2921342849731445,7.111907958984375 5.398484230041504,7.097393989562988 5.505149841308594,7.079498767852783 5.612123966217041,7.0582966804504395 5.719399452209473,7.033858299255371 5.826967716217041,7.006254196166992 5.934820652008057,6.975560665130615 6.042951583862305,6.941847324371338 6.151353359222412,6.90518856048584 6.260018348693848,6.865655899047852 6.368937969207764,6.82332181930542 6.4781036376953125,6.778255939483643 6.587510108947754,6.730533599853516 6.697149753570557,6.680227756500244 6.807013511657715,6.627410411834717 6.9170942306518555,6.572151184082031 7.027383327484131,6.514523506164551 7.137874126434326,6.4546003341674805 7.248559951782227,6.392453670501709 7.359433650970459,6.328158378601074 7.470484256744385,6.261784076690674 7.5817060470581055,6.1934027671813965 7.693093299865723,6.123086452484131 7.804635047912598,6.050909996032715 7.91632604598999,5.976944923400879 8.028158187866211,5.901264190673828 8.14012336730957,5.823935031890869 8.252212524414062,5.745035171508789 8.364420890808105,5.664634704589844 8.476739883422852,5.5828094482421875 8.58916187286377,5.499626636505127 8.701679229736328,5.415162086486816 8.814282417297363,5.32948637008667 8.926966667175293,5.242672443389893 9.03972339630127,5.154792785644531 9.152544975280762,5.065918922424316 9.265424728393555,4.976125240325928 9.378351211547852,4.885480880737305 9.491320610046387,4.794061183929443 9.604325294494629,4.7019362449646 9.71735668182373,4.6091814041137695 9.830406188964844,4.515865325927734 9.94346809387207,4.422061920166016 10.056533813476562,4.327843189239502 10.16959285736084,4.233283519744873 10.28264331817627,4.138452053070068 10.395674705505371,4.043422222137451 10.508678436279297,3.9482688903808594 10.621647834777832,3.8530595302581787 10.734576225280762,3.757871150970459 10.847454071044922,3.662773847579956 10.960275650024414,3.567840814590454 11.07303237915039,3.4731431007385254 11.18571662902832,3.3787529468536377 11.298321723937988,3.2847440242767334 11.410837173461914,3.1911890506744385 11.523260116577148,3.098159074783325 11.635578155517578,3.0057268142700195 11.747787475585938,2.9139626026153564 11.859878540039062,2.8229427337646484 11.971841812133789,2.732736825942993 12.083675384521484,2.643418312072754 12.195365905761719,2.5550589561462402 12.306906700134277,2.4677317142486572 12.418292999267578,2.381507396697998 12.529515266418457,2.2964606285095215 12.640565872192383,2.2126619815826416 12.751440048217773,2.1301827430725098 12.8621244430542,2.0490994453430176 12.972616195678711,1.9694797992706299 13.082905769348145,1.8913989067077637 13.192987442016602,1.814927339553833 13.302850723266602,1.7401398420333862 13.41248893737793,1.6671075820922852 13.521896362304688,1.5959008932113647 13.631063461303711,1.5265939235687256 13.739982604980469,1.4592607021331787 13.848647117614746,1.3939704895019531 13.957048416137695,1.330796241760254 14.065178871154785,1.269811987876892 14.173033714294434,1.2110880613327026 14.280600547790527,1.154699444770813 14.387876510620117,1.100715160369873 14.494850158691406,1.0492093563079834 14.60151481628418,1.0002548694610596 14.707864761352539,0.9539222717285156 14.813892364501953,0.9102859497070312 14.919588088989258,0.8694159984588623 15.024944305419922,0.8313864469528198 15.129952430725098,0.7962695360183716 15.234609603881836,0.764136552810669 15.338900566101074,0.7350609302520752 15.442827224731445,0.7091143131256104 15.546375274658203,0.6863687038421631 15.649538040161133,0.6668977737426758 15.752310752868652,0.6507728099822998 15.854682922363281,0.6380660533905029 15.956645965576172,0.6288504600524902 16.058197021484375,0.6231980323791504 16.159320831298828,0.6211812496185303 16.260019302368164,0.6228723526000977 16.360279083251953,0.6283433437347412 16.46009063720703,0.6376664638519287 16.559452056884766,0.6509151458740234 16.65835189819336,0.6681606769561768 16.756784439086914,0.6894755363464355 16.854740142822266,0.7149324417114258 16.952211380004883,0.744603157043457 17.049192428588867,0.7785606384277344 17.145675659179688,0.8168771266937256 17.24165153503418,0.8596241474151611 17.337116241455078,0.9068753719329834 17.43205451965332,0.9587018489837646 17.526466369628906,1.015176773071289 17.620342254638672,1.0763723850250244 17.71367073059082,1.142359733581543 17.80644989013672,1.2132129669189453 17.89866828918457,1.2890040874481201 17.990320205688477,1.3698036670684814 18.081398010253906,1.4556865692138672 18.171892166137695,1.546722650527954 18.261795043945312,1.64298677444458 18.351102828979492,1.7445499897003174 18.439804077148438,1.8514833450317383 18.52789306640625,1.9638614654541016 18.615360260009766,2.081754684448242 18.702199935913086,2.20523738861084 18.78840446472168,2.334381341934204 18.873966217041016,2.46925687789917 18.95887565612793,2.609938859939575 19.04312515258789,2.7564988136291504 19.126710891723633,2.9090070724487305 19.209623336791992,3.067539691925049 19.291851043701172,3.2321646213531494 19.37339210510254,3.402958869934082 19.45423698425293,3.5799925327301025 19.53437614440918,3.763335704803467 19.613805770874023,3.9530653953552246 19.69251251220703,4.1492509841918945 19.770492553710938,4.351963043212891 19.847742080688477,4.561278820037842 19.924245834350586,4.777265548706055 20,5" fill="none" stroke="#999999" stroke-width="0.06" stroke-dasharray="2,1"/>
<circle cx="0" cy="0" r="0.12" fill="#888888"/>
<circle cx="0.07575439661741257" cy="0.29773178696632385" r="0.12" fill="#888888"/>
<circle cx="0.1522587537765503" cy="0.587960422039032" r="0.12" fill="#888888"/>
<circle cx="0.22950538992881775" cy="0.8707579970359802" r="0.12" fill="#888888"/>
<circle cx="0.30748677253723145" cy="1.1461970806121826" r="0.12" fill="#888888"/>
<circle cx="0.38619524240493774" cy="1.414349913597107" r="0.12" fill="#888888"/>
<circle cx="0.46562322974205017" cy="1.6752889156341553" r="0.12" fill="#888888"/>
<circle cx="0.5457630753517151" cy="1.929086446762085" r="0.12" fill="#888888"/>
<circle cx="0.6266071796417236" cy="2.175814390182495" r="0.12" fill="#888888"/>
<circle cx="0.7081479430198669" cy="2.4155454635620117" r="0.12" fill="#888888"/>
<circle cx="0.7903777956962585" cy="2.6483521461486816" r="0.12" fill="#888888"/>
<circle cx="0.8732889294624329" cy="2.8743062019348145" r="0.12" fill="#888888"/>
<circle cx="0.9568740129470825" cy="3.0934805870056152" r="0.12" fill="#888888"/>
<circle cx="1.0411251783370972" cy="3.3059473037719727" r="0.12" fill="#888888"/>
<circle cx="1.1260349750518799" cy="3.5117783546447754" r="0.12" fill="#888888"/>
<circle cx="1.2115957736968994" cy="3.7110471725463867" r="0.12" fill="#888888"/>
<circle cx="1.297799825668335" cy="3.903824806213379" r="0.12" fill="#888888"/>
<circle cx="1.3846395015716553" cy="4.090184211730957" r="0.12" fill="#888888"/>
<circle cx="1.4721076488494873" cy="4.270198345184326" r="0.12" fill="#888888"/>
<circle cx="1.5601961612701416" cy="4.443938255310059" r="0.12" fill="#888888"/>
<circle cx="1.648897409439087" cy="4.611476898193359" r="0.12" fill="#888888"/>
<circle cx="1.7382041215896606" cy="4.772885799407959" r="0.12" fill="#888888"/>
<circle cx="1.828108549118042" cy="4.928239822387695" r="0.12" fill="#888888"/>
<circle cx="1.9186029434204102" cy="5.077608585357666" r="0.12" fill="#888888"/>
<circle cx="2.0096797943115234" cy="5.221065521240234" r="0.12" fill="#888888"/>
<circle cx="2.1013314723968506" cy="5.358682632446289" r="0.12" fill="#888888"/>
<circle cx="2.1935501098632812" cy="5.490531921386719" r="0.12" fill="#888888"/>
<circle cx="2.2863287925720215" cy="5.616687297821045" r="0.12" fill="#888888"/>
<circle cx="2.379659414291382" cy="5.737219333648682" r="0.12" fill="#888888"/>
<circle cx="2.473534107208252" cy="5.852200508117676" r="0.12" fill="#888888"/>
<circle cx="2.567945718765259" cy="5.961704730987549" r="0.12" fill="#888888"/>
<circle cx="2.662886381149292" cy="6.065802097320557" r="0.12" fill="#888888"/>
<circle cx="2.7583484649658203" cy="6.1645660400390625" r="0.12" fill="#888888"/>
<circle cx="2.8543248176574707" cy="6.258070468902588" r="0.12" fill="#888888"/>
<circle cx="2.9508073329925537" cy="6.346385478973389" r="0.12" fill="#888888"/>
<circle cx="3.0477888584136963" cy="6.42958402633667" r="0.12" fill="#888888"/>
<circle cx="3.145260810852051" cy="6.507739067077637" r="0.12" fill="#888888"/>
<circle cx="3.2432162761688232" cy="6.580921649932861" r="0.12" fill="#888888"/>
<circle cx="3.3416481018066406" cy="6.649204730987549" r="0.12" fill="#888888"/>
<circle cx="3.4405477046966553" cy="6.712661266326904" r="0.12" fill="#888888"/>
<circle cx="3.5399084091186523" cy="6.771362781524658" r="0.12" fill="#888888"/>
<circle cx="3.6397221088409424" cy="6.825382709503174" r="0.12" fill="#888888"/>
<circle cx="3.739981174468994" cy="6.874792098999023" r="0.12" fill="#888888"/>
<circle cx="3.840677499771118" cy="6.919663429260254" r="0.12" fill="#888888"/>
<circle cx="3.941804885864258" cy="6.960071086883545" r="0.12" fill="#888888"/>
<circle cx="4.04335355758667" cy="6.996082782745361" r="0.12" fill="#888888"/>
<circle cx="4.145318508148193" cy="7.02777624130249" r="0.12" fill="#888888"/>
<circle cx="4.247689723968506" cy="7.055219650268555" r="0.12" fill="#888888"/>
<circle cx="4.350461483001709" cy="7.078486442565918" r="0.12" fill="#888888"/>
<circle cx="4.453624248504639" cy="7.097651958465576" r="0.12" fill="#888888"/>
<circle cx="4.557172775268555" cy="7.112784385681152" r="0.12" fill="#888888"/>
<circle cx="4.661098003387451" cy="7.123958587646484" r="0.12" fill="#888888"/>
<circle cx="4.7653913497924805" cy="7.13124418258667" r="0.12" fill="#888888"/>
<circle cx="4.8700480461120605" cy="7.134716987609863" r="0.12" fill="#888888"/>
<circle cx="4.975057125091553" cy="7.13444709777832" r="0.12" fill="#888888"/>
<circle cx="5.080413341522217" cy="7.130507946014404" r="0.12" fill="#888888"/>
<circle cx="5.186108589172363" cy="7.122971534729004" r="0.12" fill="#888888"/>
<circle cx="5.2921342849731445" cy="7.111907958984375" r="0.12" fill="#888888"/>
<circle cx="5.398484230041504" cy="7.097393989562988" r="0.12" fill="#888888"/>
<circle cx="5.505149841308594" cy="7.079498767852783" r="0.12" fill="#888888"/>
<circle cx="5.612123966217041" cy="7.0582966804504395" r="0.12" fill="#888888"/>
<circle cx="5.719399452209473" cy="7.033858299255371" r="0.12" fill="#888888"/>
<circle cx="5.826967716217041" cy="7.006254196166992" r="0.12" fill="#888888"/>
<circle cx="5.934820652008057" cy="6.975560665130615" r="0.12" fill="#888888"/>
<circle cx="6.042951583862305" cy="6.941847324371338" r="0.12" fill="#888888"/>
<circle cx="6.151353359222412" cy="6.90518856048584" r="0.12" fill="#888888"/>
<circle cx="6.260018348693848" cy="6.865655899047852" r="0.12" fill="#888888"/>
<circle cx="6.368937969207764" cy="6.82332181930542" r="0.12" fill="#888888"/>
<circle cx="6.4781036376953125" cy="6.778255939483643" r="0.12" fill="#888888"/>
<circle cx="6.587510108947754" cy="6.730533599853516" r="0.12" fill="#888888"/>
<circle cx="6.697149753570557" cy="6.680227756500244" r="0.12" fill="#888888"/>
<circle cx="6.807013511657715" cy="6.627410411834717" r="0.12" fill="#888888"/>
<circle cx="6.9170942306518555" cy="6.572151184082031" r="0.12" fill="#888888"/>
<circle cx="7.027383327484131" cy="6.514523506164551" r="0.12" fill="#888888"/>
<circle cx="7.137874126434326" cy="6.4546003341674805" r="0.12" fill="#888888"/>
<circle cx="7.248559951782227" cy="6.392453670501709" r="0.12" fill="#888888"/>
<circle cx="7.359433650970459" cy="6.328158378601074" r="0.12" fill="#888888"/>
<circle cx="7.470484256744385" cy="6.261784076690674" r="0.12" fill="#888888"/>
<circle cx="7.5817060470581055" cy="6.1934027671813965" r="0.12" fill="#888888"/>
<circle cx="7.693093299865723" cy="6.123086452484131" r="0.12" fill="#888888"/>
<circle cx="7.804635047912598" cy="6.050909996032715" r="0.12" fill="#888888"/>
<circle cx="7.91632604598999" cy="5.976944923400879" r="0.12" fill="#888888"/>
<circle cx="8.028158187866211" cy="5.901264190673828" r="0.12" fill="#888888"/>
<circle cx="8.14012336730957" cy="5.823935031890869" r="0.12" fill="#888888"/>
<circle cx="8.252212524414062" cy="5.745035171508789" r="0.12" fill="#888888"/>
<circle cx="8.364420890808105" cy="5.664634704589844" r="0.12" fill="#888888"/>
<circle cx="8.476739883422852" cy="5.5828094482421875" r="0.12" fill="#888888"/>
<circle cx="8.58916187286377" cy="5.499626636505127" r="0.12" fill="#888888"/>
<circle cx="8.701679229736328" cy="5.415162086486816" r="0.12" fill="#888888"/>
<circle cx="8.814282417297363" cy="5.32948637008667" r="0.12" fill="#888888"/>
<circle cx="8.926966667175293" cy="5.242672443389893" r="0.12" fill="#888888"/>
<circle cx="9.03972339630127" cy="5.154792785644531" r="0.12" fill="#888888"/>
<circle cx="9.152544975280762" cy="5.065918922424316" r="0.12" fill="#888888"/>
<circle cx="9.265424728393555" cy="4.976125240325928" r="0.12" fill="#888888"/>
<circle cx="9.378351211547852" cy="4.885480880737305" r="0.12" fill="#888888"/>
<circle cx="9.491320610046387" cy="4.794061183929443" r="0.12" fill="#888888"/>
<circle cx="9.604325294494629" cy="4.7019362449646" r="0.12" fill="#888888"/>
<circle cx="9.71735668182373" cy="4.6091814041137695" r="0.12" fill="#888888"/>
<circle cx="9.830406188964844" cy="4.515865325927734" r="0.12" fill="#888888"/>
<circle cx="9.94346809387207" cy="4.422061920166016" r="0.12" fill="#888888"/>
<circle cx="10.056533813476562" cy="4.327843189239502" r="0.12" fill="#888888"/>
<circle cx="10.16959285736084" cy="4.233283519744873" r="0.12" fill="#888888"/>
<circle cx="10.28264331817627" cy="4.138452053070068" r="0.12" fill="#888888"/>
<circle cx="10.395674705505371" cy="4.043422222137451" r="0.12" fill="#888888"/>
<circle cx="10.508678436279297" cy="3.9482688903808594" r="0.12" fill="#888888"/>
<circle cx="10.621647834777832" cy="3.8530595302581787" r="0.12" fill="#888888"/>
<circle cx="10.734576225280762" cy="3.757871150970459" r="0.12" fill="#888888"/>
<circle cx="10.847454071044922" cy="3.662773847579956" r="0.12" fill="#888888"/>
<circle cx="10.960275650024414" cy="3.567840814590454" r="0.12" fill="#888888"/>
<circle cx="11.07303237915039" cy="3.4731431007385254" r="0.12" fill="#888888"/>
<circle cx="11.18571662902832" cy="3.3787529468536377" r="0.12" fill="#888888"/>
<circle cx="11.298321723937988" cy="3.2847440242767334" r="0.12" fill="#888888"/>
<circle cx="11.410837173461914" cy="3.1911890506744385" r="0.12" fill="#888888"/>
<circle cx="11.523260116577148" cy="3.098159074783325" r="0.12" fill="#888888"/>
<circle cx="11.635578155517578" cy="3.0057268142700195" r="0.12" fill="#888888"/>
<circle cx="11.747787475585938" cy="2.9139626026153564" r="0.12" fill="#888888"/>
<circle cx="11.859878540039062" cy="2.8229427337646484" r="0.12" fill="#888888"/>
<circle cx="11.971841812133789" cy="2.732736825942993" r="0.12" fill="#888888"/>
<circle cx="12.083675384521484" cy="2.643418312072754" r="0.12" fill="#888888"/>
<circle cx="12.195365905761719" cy="2.5550589561462402" r="0.12" fill="#888888"/>
<circle cx="12.306906700134277" cy="2.4677317142486572" r="0.12" fill="#888888"/>
<circle cx="12.418292999267578" cy="2.381507396697998" r="0.12" fill="#888888"/>
<circle cx="12.529515266418457" cy="2.2964606285095215" r="0.12" fill="#888888"/>
<circle cx="12.640565872192383" cy="2.2126619815826416" r="0.12" fill="#888888"/>
<circle cx="12.751440048217773" cy="2.1301827430725098" r="0.12" fill="#888888"/>
<circle cx="12.8621244430542" cy="2.0490994453430176" r="0.12" fill="#888888"/>
<circle cx="12.972616195678711" cy="1.9694797992706299" r="0.12" fill="#888888"/>
<circle cx="13.082905769348145" cy="1.8913989067077637" r="0.12" fill="#888888"/>
<circle cx="13.192987442016602" cy="1.814927339553833" r="0.12" fill="#888888"/>
<circle cx="13.302850723266602" cy="1.7401398420333862" r="0.12" fill="#888888"/>
<circle cx="13.41248893737793" cy="1.6671075820922852" r="0.12" fill="#888888"/>
<circle cx="13.521896362304688" cy="1.5959008932113647" r="0.12" fill="#888888"/>
<circle cx="13.631063461303711" cy="1.5265939235687256" r="0.12" fill="#888888"/>
<circle cx="13.739982604980469" cy="1.4592607021331787" r="0.12" fill="#888888"/>
<circle cx="13.848647117614746" cy="1.3939704895019531" r="0.12" fill="#888888"/>
<circle cx="13.957048416137695" cy="1.330796241760254" r="0.12" fill="#888888"/>
<circle cx="14.065178871154785" cy="1.269811987876892" r="0.12" fill="#888888"/>
<circle cx="14.173033714294434" cy="1.2110880613327026" r="0.12" fill="#888888"/>
<circle cx="14.280600547790527" cy="1.154699444770813" r="0.12" fill="#888888"/>
<circle cx="14.387876510620117" cy="1.100715160369873" r="0.12" fill="#888888"/>
<circle cx="14.494850158691406" cy="1.0492093563079834" r="0.12" fill="#888888"/>
<circle cx="14.60151481628418" cy="1.0002548694610596" r="0.12" fill="#888888"/>
<circle cx="14.707864761352539" cy="0.9539222717285156" r="0.12" fill="#888888"/>
<circle cx="14.813892364501953" cy="0.9102859497070312" r="0.12" fill="#888888"/>
<circle cx="14.919588088989258" cy="0.8694159984588623" r="0.12" fill="#888888"/>
<circle cx="15.024944305419922" cy="0.8313864469528198" r="0.12" fill="#888888"/>
<circle cx="15.129952430725098" cy="0.7962695360183716" r="0.12" fill="#888888"/>
<circle cx="15.234609603881836" cy="0.764136552810669" r="0.12" fill="#888888"/>
<circle cx="15.338900566101074" cy="0.7350609302520752" r="0.12" fill="#888888"/>
<circle cx="15.442827224731445" cy="0.7091143131256104" r="0.12" fill="#888888"/>
<circle cx="15.546375274658203" cy="0.6863687038421631" r="0.12" fill="#888888"/>
<circle cx="15.649538040161133" cy="0.6668977737426758" r="0.12" fill="#888888"/>
<circle cx="15.752310752868652" cy="0.6507728099822998" r="0.12" fill="#888888"/>
<circle cx="15.854682922363281" cy="0.6380660533905029" r="0.12" fill="#888888"/>
<circle cx="15.956645965576172" cy="0.6288504600524902" r="0.12" fill="#888888"/>
<circle cx="16.058197021484375" cy="0.6231980323791504" r="0.12" fill="#888888"/>
<circle cx="16.159320831298828" cy="0.6211812496185303" r="0.12" fill="#888888"/>
<circle cx="16.260019302368164" cy="0.6228723526000977" r="0.12" fill="#888888"/>
<circle cx="16.360279083251953" cy="0.6283433437347412" r="0.12" fill="#888888"/>
<circle cx="16.46009063720703" cy="0.6376664638519287" r="0.12" fill="#888888"/>
<circle cx="16.559452056884766" cy="0.6509151458740234" r="0.12" fill="#888888"/>
<circle cx="16.65835189819336" cy="0.6681606769561768" r="0.12" fill="#888888"/>
<circle cx="16.756784439086914" cy="0.6894755363464355" r="0.12" fill="#888888"/>
<circle cx="16.854740142822266" cy="0.7149324417114258" r="0.12" fill="#888888"/>
<circle cx="16.952211380004883" cy="0.744603157043457" r="0.12" fill="#888888"/>
<circle cx="17.049192428588867" cy="0.7785606384277344" r="0.12" fill="#888888"/>
<circle cx="17.145675659179688" cy="0.8168771266937256" r="0.12" fill="#888888"/>
<circle cx="17.24165153503418" cy="0.8596241474151611" r="0.12" fill="#888888"/>
<circle cx="17.337116241455078" cy="0.9068753719329834" r="0.12" fill="#888888"/>
<circle cx="17.43205451965332" cy="0.9587018489837646" r="0.12" fill="#888888"/>
<circle cx="17.526466369628906" cy="1.015176773071289" r="0.12" fill="#888888"/>
<circle cx="17.620342254638672" cy="1.0763723850250244" r="0.12" fill="#888888"/>
<circle cx="17.71367073059082" cy="1.142359733581543" r="0.12" fill="#888888"/>
<circle cx="17.80644989013672" cy="1.2132129669189453" r="0.12" fill="#888888"/>
<circle cx="17.89866828918457" cy="1.2890040874481201" r="0.12" fill="#888888"/>
<circle cx="17.990320205688477" cy="1.3698036670684814" r="0.12" fill="#888888"/>
<circle cx="18.081398010253906" cy="1.4556865692138672" r="0.12" fill="#888888"/>
<circle cx="18.171892166137695" cy="1.546722650527954" r="0.12" fill="#888888"/>
<circle cx="18.261795043945312" cy="1.64298677444458" r="0.12" fill="#888888"/>
<circle cx="18.351102828979492" cy="1.7445499897003174" r="0.12" fill="#888888"/>
<circle cx="18.439804077148438" cy="1.8514833450317383" r="0.12" fill="#888888"/>
<circle cx="18.52789306640625" cy="1.9638614654541016" r="0.12" fill="#888888"/>
<circle cx="18.615360260009766" cy="2.081754684448242" r="0.12" fill="#888888"/>
<circle cx="18.702199935913086" cy="2.20523738861084" r="0.12" fill="#888888"/>
<circle cx="18.78840446472168" cy="2.334381341934204" r="0.12" fill="#888888"/>
<circle cx="18.873966217041016" cy="2.46925687789917" r="0.12" fill="#888888"/>
<circle cx="18.95887565612793" cy="2.609938859939575" r="0.12" fill="#888888"/>
<circle cx="19.04312515258789" cy="2.7564988136291504" r="0.12" fill="#888888"/>
<circle cx="19.126710891723633" cy="2.9090070724487305" r="0.12" fill="#888888"/>
<circle cx="19.209623336791992" cy="3.067539691925049" r="0.12" fill="#888888"/>
<circle cx="19.291851043701172" cy="3.2321646213531494" r="0.12" fill="#888888"/>
<circle cx="19.37339210510254" cy="3.402958869934082" r="0.12" fill="#888888"/>
<circle cx="19.45423698425293" cy="3.5799925327301025" r="0.12" fill="#888888"/>
<circle cx="19.53437614440918" cy="3.763335704803467" r="0.12" fill="#888888"/>
<circle cx="19.613805770874023" cy="3.9530653953552246" r="0.12" fill="#888888"/>
<circle cx="19.69251251220703" cy="4.1492509841918945" r="0.12" fill="#888888"/>
<circle cx="19.770492553710938" cy="4.351963043212891" r="0.12" fill="#888888"/>
<circle cx="19.847742080688477" cy="4.561278820037842" r="0.12" fill="#888888"/>
<circle cx="19.924245834350586" cy="4.777265548706055" r="0.12" fill="#888888"/>
<circle cx="20" cy="5" r="0.12" fill="#888888"/>
<path d="M0,0 C4.626888751983643,20.02814292907715 14.836246490478516,-9.792007446289062 20,5" fill="none" stroke="#dd3333" stroke-width="0.15"/>
<line x1="0" y1="0" x2="4.626888751983643" y2="20.02814292907715" stroke="#dd3333" stroke-width="0.06"/>
<line x1="20" y1="5" x2="14.836246490478516" y2="-9.792007446289062" stroke="#dd3333" stroke-width="0.06"/>
<polygon points="4.626888751983643,19.7281436920166 4.926888942718506,20.02814292907715 4.626888751983643,20.328142166137695 4.326888561248779,20.02814292907715" fill="#dd3333"/>
<polygon points="14.836246490478516,-10.092007637023926 15.136246681213379,-9.792007446289062 14.836246490478516,-9.4920072555542 14.536246299743652,-9.792007446289062" fill="#dd3333"/>
<circle cx="0" cy="0" r="0.18" fill="#000000"/>
<circle cx="20" cy="5" r="0.18" fill="#000000"/>
</g>
</svg>
