<svg xmlns="http://www.w3.org/2000/svg" width="240" height="172" viewBox="-12.00 -15.27 24.00 17.27">
<rect x="-12.00" y="-15.27" width="24.00" height="17.27" fill="white"/>
<g transform="scale(1,-1)">
<polyline points="10,0 9.979454040527344,0.6407022476196289 9.917900085449219,1.2787716388702393 9.815591812133789,1.9115862846374512 9.672948837280273,2.536545991897583 9.490557670593262,3.1510825157165527 9.26916790008545,3.7526700496673584 9.009688377380371,4.338837623596191 8.713187217712402,4.907175540924072 8.380881309509277,5.455348968505859 8.01413631439209,5.981105804443359 7.61445951461792,6.4822845458984375 7.1834940910339355,6.956825256347656 6.723008632659912,7.402780055999756 6.234897613525391,7.818315029144287 5.721166133880615,8.201722145080566 5.183925151824951,8.551427841186523 4.625382900238037,8.86599349975586 4.047833442687988,9.144125938415527 3.4536502361297607,9.384684562683105 2.8452749252319336,9.586678504943848 2.2252085208892822,9.749279022216797 1.5959975719451904,9.871817588806152 0.9602303504943848,9.953790664672852 0.32051628828048706,9.994861602783203 -0.3205159902572632,9.994861602783203 -0.9602313041687012,9.953790664672852 -1.5959994792938232,9.871817588806152 -2.225210666656494,9.749279022216797 -2.845275640487671,9.586678504943848 -3.453650951385498,9.384683609008789 -4.047833442687988,9.144125938415527 -4.625383377075195,8.865992546081543 -5.183926105499268,8.551426887512207 -5.721166610717773,8.201722145080566 -6.234899520874023,7.8183135986328125 -6.723008155822754,7.402780532836914 -7.183494567871094,6.956824779510498 -7.614459991455078,6.482283592224121 -8.01413631439209,5.981104850769043 -8.380882263183594,5.455347061157227 -8.713187217712402,4.9071760177612305 -9.009689331054688,4.338836193084717 -9.26916790008545,3.752669095993042 -9.490558624267578,3.1510794162750244 -9.672948837280273,2.536545753479004 -9.815591812133789,1.9115865230560303 -9.917900085449219,1.2787699699401855 -9.979454040527344,0.6407033205032349 -10,-8.74227794156468E-07" fill="none" stroke="#999999" stroke-width="0.06" stroke-dasharray="2,1"/>
<circle cx="10" cy="0" r="0.12" fill="#888888"/>
<circle cx="9.979454040527344" cy="0.6407022476196289" r="0.12" fill="#888888"/>
<circle cx="9.917900085449219" cy="1.2787716388702393" r="0.12" fill="#888888"/>
<circle cx="9.815591812133789" cy="1.9115862846374512" r="0.12" fill="#888888"/>
<circle cx="9.672948837280273" cy="2.536545991897583" r="0.12" fill="#888888"/>
<circle cx="9.490557670593262" cy="3.1510825157165527" r="0.12" fill="#888888"/>
<circle cx="9.26916790008545" cy="3.7526700496673584" r="0.12" fill="#888888"/>
<circle cx="9.009688377380371" cy="4.338837623596191" r="0.12" fill="#888888"/>
<circle cx="8.713187217712402" cy="4.907175540924072" r="0.12" fill="#888888"/>
<circle cx="8.380881309509277" cy="5.455348968505859" r="0.12" fill="#888888"/>
<circle cx="8.01413631439209" cy="5.981105804443359" r="0.12" fill="#888888"/>
<circle cx="7.61445951461792" cy="6.4822845458984375" r="0.12" fill="#888888"/>
<circle cx="7.1834940910339355" cy="6.956825256347656" r="0.12" fill="#888888"/>
<circle cx="6.723008632659912" cy="7.402780055999756" r="0.12" fill="#888888"/>
<circle cx="6.234897613525391" cy="7.818315029144287" r="0.12" fill="#888888"/>
<circle cx="5.721166133880615" cy="8.201722145080566" r="0.12" fill="#888888"/>
<circle cx="5.183925151824951" cy="8.551427841186523" r="0.12" fill="#888888"/>
<circle cx="4.625382900238037" cy="8.86599349975586" r="0.12" fill="#888888"/>
<circle cx="4.047833442687988" cy="9.144125938415527" r="0.12" fill="#888888"/>
<circle cx="3.4536502361297607" cy="9.384684562683105" r="0.12" fill="#888888"/>
<circle cx="2.8452749252319336" cy="9.586678504943848" r="0.12" fill="#888888"/>
<circle cx="2.2252085208892822" cy="9.749279022216797" r="0.12" fill="#888888"/>
<circle cx="1.5959975719451904" cy="9.871817588806152" r="0.12" fill="#888888"/>
<circle cx="0.9602303504943848" cy="9.953790664672852" r="0.12" fill="#888888"/>
<circle cx="0.32051628828048706" cy="9.994861602783203" r="0.12" fill="#888888"/>
<circle cx="-0.3205159902572632" cy="9.994861602783203" r="0.12" fill="#888888"/>
<circle cx="-0.9602313041687012" cy="9.953790664672852" r="0.12" fill="#888888"/>
<circle cx="-1.5959994792938232" cy="9.871817588806152" r="0.12" fill="#888888"/>
<circle cx="-2.225210666656494" cy="9.749279022216797" r="0.12" fill="#888888"/>
<circle cx="-2.845275640487671" cy="9.586678504943848" r="0.12" fill="#888888"/>
<circle cx="-3.453650951385498" cy="9.384683609008789" r="0.12" fill="#888888"/>
<circle cx="-4.047833442687988" cy="9.144125938415527" r="0.12" fill="#888888"/>
<circle cx="-4.625383377075195" cy="8.865992546081543" r="0.12" fill="#888888"/>
<circle cx="-5.183926105499268" cy="8.551426887512207" r="0.12" fill="#888888"/>
<circle cx="-5.721166610717773" cy="8.201722145080566" r="0.12" fill="#888888"/>
<circle cx="-6.234899520874023" cy="7.8183135986328125" r="0.12" fill="#888888"/>
<circle cx="-6.723008155822754" cy="7.402780532836914" r="0.12" fill="#888888"/>
<circle cx="-7.183494567871094" cy="6.956824779510498" r="0.12" fill="#888888"/>
<circle cx="-7.614459991455078" cy="6.482283592224121" r="0.12" fill="#888888"/>
<circle cx="-8.01413631439209" cy="5.981104850769043" r="0.12" fill="#888888"/>
<circle cx="-8.380882263183594" cy="5.455347061157227" r="0.12" fill="#888888"/>
<circle cx="-8.713187217712402" cy="4.9071760177612305" r="0.12" fill="#888888"/>
<circle cx="-9.009689331054688" cy="4.338836193084717" r="0.12" fill="#888888"/>
<circle cx="-9.26916790008545" cy="3.752669095993042" r="0.12" fill="#888888"/>
<circle cx="-9.490558624267578" cy="3.1510794162750244" r="0.12" fill="#888888"/>
<circle cx="-9.672948837280273" cy="2.536545753479004" r="0.12" fill="#888888"/>
<circle cx="-9.815591812133789" cy="1.9115865230560303" r="0.12" fill="#888888"/>
<circle cx="-9.917900085449219" cy="1.2787699699401855" r="0.12" fill="#888888"/>
<circle cx="-9.979454040527344" cy="0.6407033205032349" r="0.12" fill="#888888"/>
<circle cx="-10" cy="-8.74227794156468E-07" r="0.12" fill="#888888"/>
<path d="M10,0 C9.420432090759277,13.270866394042969 -9.420428276062012,13.270883560180664 -10,-8.74227794156468E-07" fill="none" stroke="#dd3333" stroke-width="0.15"/>
<line x1="10" y1="0" x2="9.420432090759277" y2="13.270866394042969" stroke="#dd3333" stroke-width="0.06"/>
<line x1="-10" y1="-8.74227794156468E-07" x2="-9.420428276062012" y2="13.270883560180664" stroke="#dd3333" stroke-width="0.06"/>
<polygon points="9.420432090759277,12.970866203308105 9.72043228149414,13.270866394042969 9.420432090759277,13.570866584777832 9.120431900024414,13.270866394042969" fill="#dd3333"/>
<polygon points="-9.420428276062012,12.9708833694458 -9.120428085327148,13.270883560180664 -9.420428276062012,13.570883750915527 -9.720428466796875,13.270883560180664" fill="#dd3333"/>
<circle cx="10" cy="0" r="0.18" fill="#000000"/>
<circle cx="-10" cy="-8.74227794156468E-07" r="0.18" fill="#000000"/>
</g>
</svg>
