<svg xmlns="http://www.w3.org/2000/svg" width="200" height="120" viewBox="-2.00 -2.00 14.00 4.00">
<rect x="-2.00" y="-2.00" width="14.00" height="4.00" fill="white"/>
<g transform="scale(1,-1)">
<polyline points="0,0 1,0 2,0 3,0 4,0 5,0 6,0 7,0 8,0 9,0 10,0" fill="none" stroke="#999999" stroke-width="0.06" stroke-dasharray="2,1"/>
<circle cx="0" cy="0" r="0.12" fill="#888888"/>
<circle cx="1" cy="0" r="0.12" fill="#888888"/>
<circle cx="2" cy="0" r="0.12" fill="#888888"/>
<circle cx="3" cy="0" r="0.12" fill="#888888"/>
<circle cx="4" cy="0" r="0.12" fill="#888888"/>
<circle cx="5" cy="0" r="0.12" fill="#888888"/>
<circle cx="6" cy="0" r="0.12" fill="#888888"/>
<circle cx="7" cy="0" r="0.12" fill="#888888"/>
<circle cx="8" cy="0" r="0.12" fill="#888888"/>
<circle cx="9" cy="0" r="0.12" fill="#888888"/>
<circle cx="10" cy="0" r="0.12" fill="#888888"/>
<path d="M0,0 C3.3333358764648438,0 6.666667461395264,0 10,0" fill="none" stroke="#dd3333" stroke-width="0.15"/>
<line x1="0" y1="0" x2="3.3333358764648438" y2="0" stroke="#dd3333" stroke-width="0.06"/>
<line x1="10" y1="0" x2="6.666667461395264" y2="0" stroke="#dd3333" stroke-width="0.06"/>
<polygon points="3.3333358764648438,-0.30000001192092896 3.633335828781128,0 3.3333358764648438,0.30000001192092896 3.0333359241485596,0" fill="#dd3333"/>
<polygon points="6.666667461395264,-0.30000001192092896 6.966667652130127,0 6.666667461395264,0.30000001192092896 6.3666672706604,0" fill="#dd3333"/>
<circle cx="0" cy="0" r="0.18" fill="#000000"/>
<circle cx="10" cy="0" r="0.18" fill="#000000"/>
</g>
</svg>
