<svg xmlns="http://www.w3.org/2000/svg" width="200" height="140" viewBox="-2.00 -12.00 14.00 14.00">
<rect x="-2.00" y="-12.00" width="14.00" height="14.00" fill="white"/>
<g transform="scale(1,-1)">
<path d="M0,0 C3,10 7,10 10,0" fill="none" stroke="#4466aa" stroke-width="0.15" stroke-dasharray="4,2"/>
<line x1="0" y1="0" x2="3" y2="10" stroke="#4466aa" stroke-width="0.06"/>
<line x1="10" y1="0" x2="7" y2="10" stroke="#4466aa" stroke-width="0.06"/>
<polygon points="3,9.699999809265137 3.299999952316284,10 3,10.300000190734863 2.700000047683716,10" fill="#4466aa"/>
<polygon points="7,9.699999809265137 7.300000190734863,10 7,10.300000190734863 6.699999809265137,10" fill="#4466aa"/>
<polyline points="0,0 0.18490594625473022,0.5997501611709595 0.3722088634967804,1.1745105981826782 0.5618067979812622,1.724281668663025 0.7535975575447083,2.2490627765655518 0.9474793672561646,2.748854637145996 1.1433500051498413,3.22365665435791 1.341107964515686,3.6734695434570312 1.540650486946106,4.098292350769043 1.7418761253356934,4.498125076293945 1.9446829557418823,4.872969627380371 2.148968458175659,5.222823619842529 2.354631185531616,5.5476884841918945 2.56156849861145,5.847563743591309 2.769679307937622,6.122448921203613 2.978861093521118,6.372345447540283 3.189011335372925,6.5972514152526855 3.400029182434082,6.797167778015137 3.611811399459839,6.972095489501953 3.8242568969726562,7.12203311920166 4.037262916564941,7.246979713439941 4.250728607177734,7.346938133239746 4.464550971984863,7.421906471252441 4.678628921508789,7.47188663482666 4.89285945892334,7.4968767166137695 5.107141017913818,7.4968767166137695 5.321371078491211,7.47188663482666 5.5354485511779785,7.421908378601074 5.749270915985107,7.346938133239746 5.9627366065979,7.246979713439941 6.175743103027344,7.122032165527344 6.388188362121582,6.972095489501953 6.599970817565918,6.797167778015137 6.810988426208496,6.597250938415527 7.021139144897461,6.372344493865967 7.230320453643799,6.122448444366455 7.438431739807129,5.847563743591309 7.645368576049805,5.547688961029053 7.851031303405762,5.2228240966796875 8.055316925048828,4.872970104217529 8.258124351501465,4.4981255531311035 8.459349632263184,4.098291873931885 8.658891677856445,3.673469066619873 8.856649398803711,3.22365665435791 9.052520751953125,2.748854875564575 9.246402740478516,2.249063491821289 9.438193321228027,1.7242807149887085 9.627791404724121,1.17451012134552 9.815094947814941,0.5997498631477356 10,0" fill="none" stroke="#999999" stroke-width="0.06" stroke-dasharray="2,1"/>
<circle cx="0" cy="0" r="0.12" fill="#888888"/>
<circle cx="0.18490594625473022" cy="0.5997501611709595" r="0.12" fill="#888888"/>
<circle cx="0.3722088634967804" cy="1.1745105981826782" r="0.12" fill="#888888"/>
<circle cx="0.5618067979812622" cy="1.724281668663025" r="0.12" fill="#888888"/>
<circle cx="0.7535975575447083" cy="2.2490627765655518" r="0.12" fill="#888888"/>
<circle cx="0.9474793672561646" cy="2.748854637145996" r="0.12" fill="#888888"/>
<circle cx="1.1433500051498413" cy="3.22365665435791" r="0.12" fill="#888888"/>
<circle cx="1.341107964515686" cy="3.6734695434570312" r="0.12" fill="#888888"/>
<circle cx="1.540650486946106" cy="4.098292350769043" r="0.12" fill="#888888"/>
<circle cx="1.7418761253356934" cy="4.498125076293945" r="0.12" fill="#888888"/>
<circle cx="1.9446829557418823" cy="4.872969627380371" r="0.12" fill="#888888"/>
<circle cx="2.148968458175659" cy="5.222823619842529" r="0.12" fill="#888888"/>
<circle cx="2.354631185531616" cy="5.5476884841918945" r="0.12" fill="#888888"/>
<circle cx="2.56156849861145" cy="5.847563743591309" r="0.12" fill="#888888"/>
<circle cx="2.769679307937622" cy="6.122448921203613" r="0.12" fill="#888888"/>
<circle cx="2.978861093521118" cy="6.372345447540283" r="0.12" fill="#888888"/>
<circle cx="3.189011335372925" cy="6.5972514152526855" r="0.12" fill="#888888"/>
<circle cx="3.400029182434082" cy="6.797167778015137" r="0.12" fill="#888888"/>
<circle cx="3.611811399459839" cy="6.972095489501953" r="0.12" fill="#888888"/>
<circle cx="3.8242568969726562" cy="7.12203311920166" r="0.12" fill="#888888"/>
<circle cx="4.037262916564941" cy="7.246979713439941" r="0.12" fill="#888888"/>
<circle cx="4.250728607177734" cy="7.346938133239746" r="0.12" fill="#888888"/>
<circle cx="4.464550971984863" cy="7.421906471252441" r="0.12" fill="#888888"/>
<circle cx="4.678628921508789" cy="7.47188663482666" r="0.12" fill="#888888"/>
<circle cx="4.89285945892334" cy="7.4968767166137695" r="0.12" fill="#888888"/>
<circle cx="5.107141017913818" cy="7.4968767166137695" r="0.12" fill="#888888"/>
<circle cx="5.321371078491211" cy="7.47188663482666" r="0.12" fill="#888888"/>
<circle cx="5.5354485511779785" cy="7.421908378601074" r="0.12" fill="#888888"/>
<circle cx="5.749270915985107" cy="7.346938133239746" r="0.12" fill="#888888"/>
<circle cx="5.9627366065979" cy="7.246979713439941" r="0.12" fill="#888888"/>
<circle cx="6.175743103027344" cy="7.122032165527344" r="0.12" fill="#888888"/>
<circle cx="6.388188362121582" cy="6.972095489501953" r="0.12" fill="#888888"/>
<circle cx="6.599970817565918" cy="6.797167778015137" r="0.12" fill="#888888"/>
<circle cx="6.810988426208496" cy="6.597250938415527" r="0.12" fill="#888888"/>
<circle cx="7.021139144897461" cy="6.372344493865967" r="0.12" fill="#888888"/>
<circle cx="7.230320453643799" cy="6.122448444366455" r="0.12" fill="#888888"/>
<circle cx="7.438431739807129" cy="5.847563743591309" r="0.12" fill="#888888"/>
<circle cx="7.645368576049805" cy="5.547688961029053" r="0.12" fill="#888888"/>
<circle cx="7.851031303405762" cy="5.2228240966796875" r="0.12" fill="#888888"/>
<circle cx="8.055316925048828" cy="4.872970104217529" r="0.12" fill="#888888"/>
<circle cx="8.258124351501465" cy="4.4981255531311035" r="0.12" fill="#888888"/>
<circle cx="8.459349632263184" cy="4.098291873931885" r="0.12" fill="#888888"/>
<circle cx="8.658891677856445" cy="3.673469066619873" r="0.12" fill="#888888"/>
<circle cx="8.856649398803711" cy="3.22365665435791" r="0.12" fill="#888888"/>
<circle cx="9.052520751953125" cy="2.748854875564575" r="0.12" fill="#888888"/>
<circle cx="9.246402740478516" cy="2.249063491821289" r="0.12" fill="#888888"/>
<circle cx="9.438193321228027" cy="1.7242807149887085" r="0.12" fill="#888888"/>
<circle cx="9.627791404724121" cy="1.17451012134552" r="0.12" fill="#888888"/>
<circle cx="9.815094947814941" cy="0.5997498631477356" r="0.12" fill="#888888"/>
<circle cx="10" cy="0" r="0.12" fill="#888888"/>
<path d="M0,0 C2.869204044342041,9.945327758789062 7.130799770355225,9.945289611816406 10,0" fill="none" stroke="#dd3333" stroke-width="0.15"/>
<line x1="0" y1="0" x2="2.869204044342041" y2="9.945327758789062" stroke="#dd3333" stroke-width="0.06"/>
<line x1="10" y1="0" x2="7.130799770355225" y2="9.945289611816406" stroke="#dd3333" stroke-width="0.06"/>
<polygon points="2.869204044342041,9.6453275680542 3.169203996658325,9.945327758789062 2.869204044342041,10.245327949523926 2.569204092025757,9.945327758789062" fill="#dd3333"/>
<polygon points="7.130799770355225,9.645289421081543 7.430799961090088,9.945289611816406 7.130799770355225,10.24528980255127 6.830799579620361,9.945289611816406" fill="#dd3333"/>
<circle cx="0" cy="0" r="0.18" fill="#000000"/>
<circle cx="10" cy="0" r="0.18" fill="#000000"/>
</g>
</svg>
